<svg width="505" height="505" viewBox="0 0 505 505" fill="none" xmlns="http://www.w3.org/2000/svg">
<circle cx="252.5" cy="252.5" r="252.5" fill="url(#paint0_linear_2_3409)"/>
<circle cx="252.5" cy="252.5" r="247.862" fill="url(#paint1_linear_2_3409)"/>
<circle cx="252.5" cy="252.5" r="207.485" fill="url(#paint2_linear_2_3409)"/>
<circle cx="252.5" cy="252.5" r="196.569" fill="url(#paint3_linear_2_3409)"/>
<circle cx="252.5" cy="252.5" r="190.847" fill="url(#paint4_linear_2_3409)"/>
<g opacity="0.1">
<g opacity="0.58">
<path opacity="0.58" d="M85.234 278.91C87.773 278.91 89.8372 276.725 89.8372 274.036C89.8372 271.463 87.9426 269.355 85.5587 269.181V217.659L112.136 189.503V165.857C114.525 165.682 116.414 163.57 116.414 161.002C116.414 158.313 114.35 156.127 111.811 156.127C109.272 156.127 107.208 158.313 107.208 161.002C107.208 163.575 109.103 165.682 111.487 165.857V189.217L84.9094 217.373V269.176C82.5206 269.35 80.6309 271.463 80.6309 274.031C80.6309 276.725 82.695 278.91 85.234 278.91ZM108.822 161.002C108.822 159.253 110.164 157.833 111.811 157.833C113.459 157.833 114.801 159.253 114.801 161.002C114.801 162.746 113.459 164.171 111.811 164.171C110.164 164.171 108.822 162.751 108.822 161.002ZM85.234 270.872C86.8815 270.872 88.2236 272.292 88.2236 274.041C88.2236 275.79 86.8815 277.21 85.234 277.21C83.5866 277.21 82.2444 275.79 82.2444 274.041C82.2444 272.292 83.5866 270.872 85.234 270.872Z" fill="white"/>
<path opacity="0.58" d="M165.164 194.237C167.591 194.237 169.583 192.231 169.747 189.701H187.351C187.516 192.231 189.507 194.237 191.935 194.237C194.474 194.237 196.538 192.051 196.538 189.362C196.538 186.673 194.474 184.488 191.935 184.488C189.507 184.488 187.516 186.494 187.351 189.023H169.747C169.583 186.494 167.591 184.488 165.164 184.488C162.625 184.488 160.561 186.673 160.561 189.362C160.561 192.051 162.625 194.237 165.164 194.237ZM191.935 186.198C193.582 186.198 194.924 187.618 194.924 189.367C194.924 191.116 193.582 192.536 191.935 192.536C190.287 192.536 188.945 191.116 188.945 189.367C188.945 187.618 190.287 186.198 191.935 186.198ZM165.164 186.198C166.811 186.198 168.153 187.618 168.153 189.367C168.153 191.116 166.811 192.536 165.164 192.536C163.516 192.536 162.174 191.116 162.174 189.367C162.174 187.618 163.516 186.198 165.164 186.198Z" fill="white"/>
<path opacity="0.58" d="M148.932 193.108C149.732 193.815 150.759 194.241 151.873 194.241C154.412 194.241 156.476 192.056 156.476 189.367C156.476 186.678 154.412 184.492 151.873 184.492C149.334 184.492 147.27 186.678 147.27 189.367C147.27 190.627 147.726 191.77 148.467 192.633L124.778 217.378V241.024C122.389 241.198 120.499 243.311 120.499 245.879C120.499 248.568 122.563 250.754 125.102 250.754C127.641 250.754 129.705 248.568 129.705 245.879C129.705 243.306 127.811 241.198 125.427 241.024V217.664L148.932 193.108ZM151.873 186.198C153.521 186.198 154.863 187.618 154.863 189.367C154.863 191.116 153.521 192.536 151.873 192.536C150.226 192.536 148.884 191.116 148.884 189.367C148.884 187.618 150.226 186.198 151.873 186.198ZM128.092 245.879C128.092 247.623 126.75 249.048 125.102 249.048C123.455 249.048 122.113 247.628 122.113 245.879C122.113 244.13 123.455 242.71 125.102 242.71C126.75 242.715 128.092 244.135 128.092 245.879Z" fill="white"/>
<path opacity="0.58" d="M165.164 208.317C167.591 208.317 169.583 206.311 169.747 203.782H187.351C187.516 206.311 189.507 208.317 191.935 208.317C194.474 208.317 196.538 206.132 196.538 203.443C196.538 200.754 194.474 198.568 191.935 198.568C189.507 198.568 187.516 200.574 187.351 203.104H169.747C169.583 200.574 167.591 198.568 165.164 198.568C162.625 198.568 160.561 200.754 160.561 203.443C160.561 206.132 162.625 208.317 165.164 208.317ZM191.935 200.274C193.582 200.274 194.924 201.694 194.924 203.443C194.924 205.192 193.582 206.612 191.935 206.612C190.287 206.612 188.945 205.192 188.945 203.443C188.945 201.694 190.287 200.274 191.935 200.274ZM165.164 200.274C166.811 200.274 168.153 201.694 168.153 203.443C168.153 205.192 166.811 206.612 165.164 206.612C163.516 206.612 162.174 205.192 162.174 203.443C162.174 201.694 163.516 200.274 165.164 200.274Z" fill="white"/>
<path opacity="0.58" d="M165.067 222.287C167.495 222.287 169.486 220.281 169.651 217.752H187.254C187.419 220.281 189.41 222.287 191.838 222.287C194.377 222.287 196.441 220.102 196.441 217.412C196.441 214.723 194.377 212.538 191.838 212.538C189.41 212.538 187.419 214.544 187.254 217.073H169.651C169.486 214.544 167.495 212.538 165.067 212.538C162.528 212.538 160.464 214.723 160.464 217.412C160.464 220.102 162.528 222.287 165.067 222.287ZM191.838 214.243C193.485 214.243 194.828 215.663 194.828 217.412C194.828 219.162 193.485 220.581 191.838 220.581C190.191 220.581 188.848 219.162 188.848 217.412C188.848 215.663 190.191 214.243 191.838 214.243ZM165.067 214.243C166.714 214.243 168.057 215.663 168.057 217.412C168.057 219.162 166.714 220.581 165.067 220.581C163.42 220.581 162.077 219.162 162.077 217.412C162.077 215.663 163.42 214.243 165.067 214.243Z" fill="white"/>
<path opacity="0.58" d="M165.067 236.474C167.495 236.474 169.486 234.468 169.651 231.939H187.254C187.419 234.468 189.41 236.474 191.838 236.474C194.377 236.474 196.441 234.289 196.441 231.6C196.441 228.91 194.377 226.725 191.838 226.725C189.41 226.725 187.419 228.731 187.254 231.26H169.651C169.486 228.731 167.495 226.725 165.067 226.725C162.528 226.725 160.464 228.91 160.464 231.6C160.464 234.284 162.528 236.474 165.067 236.474ZM191.838 228.431C193.485 228.431 194.828 229.85 194.828 231.6C194.828 233.349 193.485 234.769 191.838 234.769C190.191 234.769 188.848 233.349 188.848 231.6C188.848 229.85 190.191 228.431 191.838 228.431ZM165.067 228.431C166.714 228.431 168.057 229.85 168.057 231.6C168.057 233.349 166.714 234.769 165.067 234.769C163.42 234.769 162.077 233.349 162.077 231.6C162.077 229.85 163.42 228.431 165.067 228.431Z" fill="white"/>
<path opacity="0.58" d="M165.067 250.754C167.495 250.754 169.486 248.748 169.651 246.218H187.254C187.419 248.748 189.41 250.754 191.838 250.754C194.377 250.754 196.441 248.568 196.441 245.879C196.441 243.19 194.377 241.005 191.838 241.005C189.41 241.005 187.419 243.011 187.254 245.54H169.651C169.486 243.011 167.495 241.005 165.067 241.005C162.528 241.005 160.464 243.19 160.464 245.879C160.464 248.568 162.528 250.754 165.067 250.754ZM191.838 242.715C193.485 242.715 194.828 244.135 194.828 245.884C194.828 247.628 193.485 249.053 191.838 249.053C190.191 249.053 188.848 247.633 188.848 245.884C188.848 244.135 190.191 242.715 191.838 242.715ZM165.067 242.715C166.714 242.715 168.057 244.135 168.057 245.884C168.057 247.628 166.714 249.053 165.067 249.053C163.42 249.053 162.077 247.633 162.077 245.884C162.077 244.135 163.42 242.715 165.067 242.715Z" fill="white"/>
<path opacity="0.58" d="M232.074 265.348L232.195 265.246V165.862C234.584 165.687 236.474 163.575 236.474 161.007C236.474 158.317 234.41 156.132 231.871 156.132C229.332 156.132 227.268 158.317 227.268 161.007C227.268 163.579 229.162 165.687 231.546 165.862V264.917L164.96 321.332L164.839 321.434V339.774C162.45 339.948 160.561 342.061 160.561 344.629C160.561 347.318 162.625 349.503 165.164 349.503C167.703 349.503 169.767 347.318 169.767 344.629C169.767 342.056 167.872 339.948 165.488 339.774V321.759L232.074 265.348ZM228.881 161.002C228.881 159.252 230.223 157.833 231.871 157.833C233.518 157.833 234.86 159.252 234.86 161.002C234.86 162.746 233.518 164.171 231.871 164.171C230.223 164.171 228.881 162.751 228.881 161.002ZM168.153 344.634C168.153 346.383 166.811 347.803 165.164 347.803C163.516 347.803 162.174 346.383 162.174 344.634C162.174 342.889 163.516 341.465 165.164 341.465C166.811 341.465 168.153 342.885 168.153 344.634Z" fill="white"/>
<path opacity="0.58" d="M245.462 270.465L245.578 270.363V165.862C247.967 165.687 249.857 163.575 249.857 161.007C249.857 158.317 247.793 156.132 245.254 156.132C242.715 156.132 240.65 158.317 240.65 161.007C240.65 163.579 242.545 165.687 244.929 165.862V270.038C227.427 285.258 182.612 323.978 178.648 326.308C178.6 326.274 178.537 326.26 178.445 326.26C178.256 326.26 178.149 326.381 178.125 326.619H178.12C178.12 326.623 178.12 326.633 178.12 326.648C178.12 326.667 178.12 326.691 178.12 326.711L178.125 326.764C178.139 327.917 178.183 335.214 178.212 339.764C175.828 339.943 173.938 342.051 173.938 344.619C173.938 347.309 176.003 349.494 178.542 349.494C181.081 349.494 183.145 347.309 183.145 344.619C183.145 342.046 181.25 339.934 178.861 339.759L178.779 327.185C178.779 327.098 178.779 327.021 178.779 326.953C180.078 326.284 185.529 322.059 212.484 298.932C228.857 284.904 245.297 270.605 245.462 270.465ZM242.269 161.002C242.269 159.252 243.611 157.833 245.258 157.833C246.906 157.833 248.248 159.252 248.248 161.002C248.248 162.746 246.906 164.171 245.258 164.171C243.611 164.171 242.269 162.751 242.269 161.002ZM181.541 344.634C181.541 346.383 180.199 347.803 178.551 347.803C176.904 347.803 175.562 346.383 175.562 344.634C175.562 342.889 176.904 341.465 178.551 341.465C180.199 341.465 181.541 342.885 181.541 344.634Z" fill="white"/>
<path opacity="0.58" d="M218.783 260.226L218.904 260.125V165.862C221.293 165.687 223.183 163.575 223.183 161.007C223.183 158.317 221.119 156.132 218.58 156.132C216.041 156.132 213.977 158.317 213.977 161.007C213.977 163.579 215.871 165.687 218.255 165.862V259.795L151.674 316.211L151.553 316.312V339.774C149.164 339.948 147.274 342.061 147.274 344.629C147.274 347.318 149.339 349.503 151.878 349.503C154.417 349.503 156.481 347.318 156.481 344.629C156.481 342.056 154.586 339.948 152.202 339.774V316.637L218.783 260.226ZM215.595 161.002C215.595 159.252 216.937 157.833 218.585 157.833C220.232 157.833 221.574 159.252 221.574 161.002C221.574 162.746 220.232 164.171 218.585 164.171C216.932 164.171 215.595 162.751 215.595 161.002ZM154.862 344.634C154.862 346.383 153.52 347.803 151.873 347.803C150.225 347.803 148.883 346.383 148.883 344.634C148.883 342.889 150.225 341.465 151.873 341.465C153.52 341.465 154.862 342.885 154.862 344.634Z" fill="white"/>
<path opacity="0.58" d="M191.731 331.571L191.61 331.672L191.523 339.774C189.134 339.943 187.234 342.056 187.234 344.634C187.234 347.323 189.299 349.508 191.838 349.508C194.377 349.508 196.441 347.323 196.441 344.634C196.441 342.066 194.551 339.958 192.172 339.779L192.259 332.007L258.753 275.591L258.874 275.49V165.862C261.263 165.687 263.153 163.575 263.153 161.007C263.153 158.317 261.088 156.132 258.549 156.132C256.01 156.132 253.946 158.317 253.946 161.007C253.946 163.579 255.841 165.687 258.225 165.862V275.155L191.731 331.571ZM194.827 344.634C194.827 346.383 193.485 347.803 191.838 347.803C190.19 347.803 188.848 346.383 188.848 344.634C188.848 342.889 190.19 341.465 191.838 341.465C193.485 341.465 194.827 342.885 194.827 344.634ZM255.555 161.002C255.555 159.252 256.897 157.833 258.545 157.833C260.192 157.833 261.534 159.252 261.534 161.002C261.534 162.746 260.192 164.171 258.545 164.171C256.897 164.171 255.555 162.751 255.555 161.002Z" fill="white"/>
<path opacity="0.58" d="M138.587 292.991C141.014 292.991 143.006 290.985 143.17 288.456H157.765L188.383 263.376C189.226 264.394 190.462 265.038 191.838 265.038C194.377 265.038 196.441 262.853 196.441 260.164C196.441 257.474 194.377 255.289 191.838 255.289C189.299 255.289 187.235 257.474 187.235 260.164C187.235 261.147 187.516 262.068 187.991 262.833L157.542 287.773H143.165C143.001 285.243 141.009 283.237 138.582 283.237C136.043 283.237 133.979 285.423 133.979 288.112C133.983 290.801 136.048 292.991 138.587 292.991ZM191.838 256.995C193.485 256.995 194.827 258.414 194.827 260.164C194.827 261.913 193.485 263.332 191.838 263.332C190.19 263.332 188.848 261.913 188.848 260.164C188.848 258.419 190.19 256.995 191.838 256.995ZM138.587 284.948C140.234 284.948 141.576 286.368 141.576 288.117C141.576 289.866 140.234 291.286 138.587 291.286C136.939 291.286 135.597 289.866 135.597 288.117C135.592 286.368 136.934 284.948 138.587 284.948Z" fill="white"/>
<path opacity="0.58" d="M129.705 274.036C129.705 271.347 127.641 269.161 125.102 269.161C122.563 269.161 120.499 271.347 120.499 274.036C120.499 276.609 122.394 278.717 124.778 278.891V339.774C122.389 339.948 120.499 342.061 120.499 344.629C120.499 347.318 122.563 349.503 125.102 349.503C127.641 349.503 129.705 347.318 129.705 344.629C129.705 342.056 127.811 339.948 125.427 339.774V278.896C127.811 278.717 129.705 276.609 129.705 274.036ZM128.092 344.634C128.092 346.383 126.75 347.803 125.102 347.803C123.455 347.803 122.113 346.383 122.113 344.634C122.113 342.889 123.455 341.465 125.102 341.465C126.75 341.465 128.092 342.885 128.092 344.634ZM125.102 277.205C123.455 277.205 122.113 275.785 122.113 274.036C122.113 272.287 123.455 270.867 125.102 270.867C126.75 270.867 128.092 272.287 128.092 274.036C128.092 275.785 126.75 277.205 125.102 277.205Z" fill="white"/>
<path opacity="0.58" d="M263.148 330.243C263.148 327.554 261.084 325.368 258.545 325.368C256.006 325.368 253.942 327.554 253.942 330.243C253.942 332.816 255.837 334.924 258.221 335.098L258.245 386.726H236.382C236.217 384.197 234.226 382.191 231.798 382.191C229.259 382.191 227.195 384.376 227.195 387.065C227.195 389.755 229.259 391.94 231.798 391.94C234.226 391.94 236.217 389.934 236.382 387.404H258.889L258.865 335.093C261.259 334.924 263.148 332.816 263.148 330.243ZM231.803 390.239C230.156 390.239 228.814 388.819 228.814 387.07C228.814 385.321 230.156 383.901 231.803 383.901C233.451 383.901 234.793 385.321 234.793 387.07C234.793 388.819 233.451 390.239 231.803 390.239ZM258.55 333.412C256.903 333.412 255.56 331.992 255.56 330.243C255.56 328.494 256.903 327.074 258.55 327.074C260.198 327.074 261.54 328.494 261.54 330.243C261.54 331.992 260.198 333.412 258.55 333.412Z" fill="white"/>
<path opacity="0.58" d="M271.865 335.118C274.404 335.118 276.468 332.932 276.468 330.243C276.468 327.67 274.573 325.562 272.19 325.388V274.181L298.864 246.025L298.956 236.455C301.344 236.28 303.244 234.173 303.244 231.595C303.244 228.906 301.18 226.72 298.641 226.72C296.102 226.72 294.038 228.906 294.038 231.595C294.038 234.163 295.927 236.271 298.311 236.45L298.224 245.734L271.54 273.896V325.388C269.151 325.562 267.262 327.675 267.262 330.243C267.262 332.932 269.326 335.118 271.865 335.118ZM295.646 231.6C295.646 229.851 296.988 228.431 298.636 228.431C300.283 228.431 301.626 229.851 301.626 231.6C301.626 233.349 300.283 234.769 298.636 234.769C296.988 234.769 295.646 233.344 295.646 231.6ZM271.865 327.079C273.512 327.079 274.855 328.499 274.855 330.248C274.855 331.997 273.512 333.417 271.865 333.417C270.217 333.417 268.875 331.997 268.875 330.248C268.875 328.499 270.213 327.079 271.865 327.079Z" fill="white"/>
<path opacity="0.58" d="M347.289 302.348C347.289 305.037 349.353 307.222 351.892 307.222C354.431 307.222 356.495 305.037 356.495 302.348C356.495 299.775 354.601 297.667 352.217 297.488V278.843C354.606 278.668 356.495 276.555 356.495 273.987C356.495 271.298 354.431 269.113 351.892 269.113C349.353 269.113 347.289 271.298 347.289 273.987C347.289 276.56 349.184 278.668 351.568 278.843V297.488C349.179 297.667 347.289 299.775 347.289 302.348ZM348.898 273.987C348.898 272.238 350.24 270.819 351.887 270.819C353.535 270.819 354.877 272.238 354.877 273.987C354.877 275.737 353.535 277.156 351.887 277.156C350.24 277.156 348.898 275.732 348.898 273.987ZM351.887 299.179C353.535 299.179 354.877 300.599 354.877 302.348C354.877 304.092 353.535 305.517 351.887 305.517C350.24 305.517 348.898 304.097 348.898 302.348C348.898 300.599 350.24 299.179 351.887 299.179Z" fill="white"/>
<path opacity="0.58" d="M343.199 273.987C343.199 271.298 341.135 269.113 338.596 269.113C336.057 269.113 333.993 271.298 333.993 273.987C333.993 276.56 335.888 278.668 338.272 278.843V297.488C335.883 297.662 333.993 299.775 333.993 302.348C333.993 305.037 336.057 307.222 338.596 307.222C341.135 307.222 343.199 305.037 343.199 302.348C343.199 299.775 341.305 297.667 338.921 297.488V278.843C341.31 278.668 343.199 276.56 343.199 273.987ZM341.591 302.348C341.591 304.092 340.249 305.517 338.601 305.517C336.954 305.517 335.612 304.097 335.612 302.348C335.612 300.599 336.954 299.179 338.601 299.179C340.249 299.179 341.591 300.599 341.591 302.348ZM338.601 277.156C336.954 277.156 335.612 275.737 335.612 273.987C335.612 272.238 336.954 270.819 338.601 270.819C340.249 270.819 341.591 272.238 341.591 273.987C341.591 275.732 340.249 277.156 338.601 277.156Z" fill="white"/>
<path opacity="0.58" d="M330.015 273.886C330.015 271.197 327.951 269.011 325.412 269.011C322.873 269.011 320.809 271.197 320.809 273.886C320.809 276.459 322.703 278.566 325.087 278.741V297.386C322.698 297.561 320.809 299.668 320.809 302.241C320.809 304.93 322.873 307.116 325.412 307.116C327.951 307.116 330.015 304.93 330.015 302.241C330.015 299.668 328.12 297.561 325.736 297.386V278.741C328.12 278.566 330.015 276.459 330.015 273.886ZM328.401 302.246C328.401 303.99 327.059 305.415 325.412 305.415C323.764 305.415 322.422 303.995 322.422 302.246C322.422 300.502 323.764 299.077 325.412 299.077C327.059 299.077 328.401 300.497 328.401 302.246ZM325.412 277.05C323.764 277.05 322.422 275.63 322.422 273.881C322.422 272.132 323.764 270.712 325.412 270.712C327.059 270.712 328.401 272.132 328.401 273.881C328.401 275.63 327.059 277.05 325.412 277.05Z" fill="white"/>
<path opacity="0.58" d="M316.622 273.886C316.622 271.197 314.558 269.011 312.019 269.011C309.48 269.011 307.416 271.197 307.416 273.886C307.416 276.459 309.311 278.566 311.695 278.741V297.386C309.306 297.561 307.416 299.668 307.416 302.241C307.416 304.93 309.48 307.116 312.019 307.116C314.558 307.116 316.622 304.93 316.622 302.241C316.622 299.668 314.728 297.561 312.344 297.386V278.741C314.733 278.566 316.622 276.459 316.622 273.886ZM315.014 302.246C315.014 303.99 313.671 305.415 312.024 305.415C310.377 305.415 309.034 303.995 309.034 302.246C309.034 300.502 310.377 299.077 312.024 299.077C313.671 299.077 315.014 300.497 315.014 302.246ZM312.019 277.05C310.372 277.05 309.03 275.63 309.03 273.881C309.03 272.132 310.372 270.712 312.019 270.712C313.667 270.712 315.009 272.132 315.009 273.881C315.014 275.63 313.671 277.05 312.019 277.05Z" fill="white"/>
<path opacity="0.58" d="M293.937 302.246C293.937 304.935 296.001 307.121 298.54 307.121C301.079 307.121 303.143 304.935 303.143 302.246C303.143 299.673 301.248 297.565 298.864 297.391V278.741C301.253 278.566 303.143 276.454 303.143 273.886C303.143 271.197 301.079 269.011 298.54 269.011C296.001 269.011 293.937 271.197 293.937 273.886C293.937 276.459 295.831 278.566 298.215 278.741V297.386C295.831 297.565 293.937 299.673 293.937 302.246ZM295.55 273.886C295.55 272.137 296.892 270.717 298.54 270.717C300.187 270.717 301.529 272.137 301.529 273.886C301.529 275.63 300.187 277.055 298.54 277.055C296.892 277.05 295.55 275.63 295.55 273.886ZM298.54 299.077C300.187 299.077 301.529 300.497 301.529 302.246C301.529 303.99 300.187 305.415 298.54 305.415C296.892 305.415 295.55 303.995 295.55 302.246C295.55 300.497 296.892 299.077 298.54 299.077Z" fill="white"/>
<path opacity="0.58" d="M298.684 325.78C296.145 325.78 294.081 327.966 294.081 330.655C294.081 333.344 296.145 335.529 298.684 335.529C301.117 335.529 303.103 333.523 303.268 330.989L365.275 330.587H365.595V217.863H431.168C431.124 217.635 431.086 217.407 431.042 217.18H364.95V329.904L303.268 330.311C303.098 327.786 301.112 325.78 298.684 325.78ZM298.684 333.824C297.037 333.824 295.695 332.404 295.695 330.655C295.695 328.906 297.037 327.486 298.684 327.486C300.332 327.486 301.674 328.906 301.674 330.655C301.674 332.404 300.332 333.824 298.684 333.824Z" fill="white"/>
<path opacity="0.58" d="M378.241 344.392H303.268C303.103 341.862 301.112 339.856 298.684 339.856C296.145 339.856 294.081 342.042 294.081 344.731C294.081 347.42 296.145 349.605 298.684 349.605C301.112 349.605 303.103 347.599 303.268 345.07H378.886V232.041H433.174C433.15 231.813 433.126 231.585 433.101 231.357H378.241V344.392ZM298.684 347.905C297.037 347.905 295.695 346.485 295.695 344.736C295.695 342.991 297.037 341.567 298.684 341.567C300.332 341.567 301.674 342.986 301.674 344.736C301.674 346.48 300.332 347.905 298.684 347.905Z" fill="white"/>
<path opacity="0.58" d="M298.588 363.58C301.015 363.58 303.007 361.574 303.171 359.044H392.177V246.01H434.061C434.056 245.782 434.046 245.555 434.042 245.327H391.537V358.361H303.171C303.007 355.832 301.015 353.826 298.588 353.826C296.049 353.826 293.984 356.011 293.984 358.7C293.984 361.394 296.049 363.58 298.588 363.58ZM298.588 355.536C300.235 355.536 301.577 356.956 301.577 358.705C301.577 360.449 300.235 361.874 298.588 361.874C296.94 361.874 295.598 360.454 295.598 358.705C295.598 356.961 296.94 355.536 298.588 355.536Z" fill="white"/>
<path opacity="0.58" d="M298.588 377.767C301.015 377.767 303.007 375.761 303.171 373.232H387.278C387.482 373.004 387.69 372.776 387.894 372.548H303.171C303.007 370.019 301.015 368.013 298.588 368.013C296.049 368.013 293.984 370.198 293.984 372.888C293.984 375.582 296.049 377.767 298.588 377.767ZM298.588 369.724C300.235 369.724 301.577 371.143 301.577 372.892C301.577 374.642 300.235 376.061 298.588 376.061C296.94 376.061 295.598 374.642 295.598 372.892C295.598 371.143 296.94 369.724 298.588 369.724Z" fill="white"/>
<path opacity="0.58" d="M433.916 259.514H405.018V349.988C405.236 349.654 405.449 349.315 405.662 348.98V260.197H433.887C433.896 259.97 433.901 259.742 433.916 259.514Z" fill="white"/>
<path opacity="0.58" d="M298.588 392.051C301.015 392.051 303.007 390.045 303.171 387.516L373.052 387.453C373.304 387.225 373.561 386.997 373.813 386.77L303.171 386.833C303.007 384.303 301.015 382.302 298.588 382.302C296.049 382.302 293.984 384.488 293.984 387.177C293.984 389.861 296.049 392.051 298.588 392.051ZM298.588 384.008C300.235 384.008 301.577 385.428 301.577 387.177C301.577 388.926 300.235 390.346 298.588 390.346C296.94 390.346 295.598 388.926 295.598 387.177C295.598 385.428 296.94 384.008 298.588 384.008Z" fill="white"/>
<path opacity="0.58" d="M418.304 273.537V325.417C418.522 324.932 418.735 324.448 418.948 323.958V274.23L432.617 274.385C432.646 274.157 432.675 273.929 432.704 273.702L418.304 273.537Z" fill="white"/>
<path opacity="0.58" d="M325.087 226.841C322.703 227.021 320.809 229.129 320.809 231.697C320.809 234.386 322.873 236.571 325.412 236.571C327.951 236.571 330.015 234.386 330.015 231.697C330.015 229.124 328.12 227.016 325.732 226.837L325.538 175.417H360.691C360.856 177.946 362.848 179.952 365.275 179.952C367.814 179.952 369.878 177.767 369.878 175.078C369.878 172.389 367.814 170.203 365.275 170.203C362.848 170.203 360.856 172.209 360.691 174.739H324.893L325.087 226.841ZM365.275 171.914C366.923 171.914 368.265 173.333 368.265 175.083C368.265 176.832 366.923 178.251 365.275 178.251C363.628 178.251 362.285 176.832 362.285 175.083C362.285 173.333 363.628 171.914 365.275 171.914ZM328.401 231.701C328.401 233.451 327.059 234.87 325.412 234.87C323.764 234.87 322.422 233.451 322.422 231.701C322.422 229.952 323.764 228.533 325.412 228.533C327.059 228.533 328.401 229.952 328.401 231.701Z" fill="white"/>
<path opacity="0.58" d="M294.033 203.443C294.033 206.132 296.097 208.317 298.636 208.317C301.175 208.317 303.24 206.132 303.24 203.443C303.24 200.87 301.345 198.762 298.961 198.588V137.705C301.35 137.531 303.24 135.418 303.24 132.85C303.24 130.161 301.175 127.975 298.636 127.975C296.097 127.975 294.033 130.161 294.033 132.85C294.033 135.423 295.928 137.531 298.312 137.705V198.588C295.928 198.762 294.033 200.87 294.033 203.443ZM295.647 132.845C295.647 131.096 296.989 129.676 298.636 129.676C300.284 129.676 301.626 131.096 301.626 132.845C301.626 134.594 300.284 136.014 298.636 136.014C296.989 136.014 295.647 134.594 295.647 132.845ZM298.636 200.274C300.284 200.274 301.626 201.694 301.626 203.443C301.626 205.192 300.284 206.612 298.636 206.612C296.989 206.612 295.647 205.192 295.647 203.443C295.647 201.694 296.989 200.274 298.636 200.274Z" fill="white"/>
<path opacity="0.58" d="M307.338 104.829C307.503 107.358 309.494 109.364 311.922 109.364C314.461 109.364 316.525 107.179 316.525 104.49C316.525 101.8 314.461 99.615 311.922 99.615C309.494 99.615 307.503 101.621 307.338 104.15H284.831V156.152C282.442 156.326 280.553 158.439 280.553 161.007C280.553 163.696 282.617 165.881 285.156 165.881C287.695 165.881 289.759 163.696 289.759 161.007C289.759 158.434 287.864 156.326 285.481 156.152V104.829H307.338ZM311.927 101.316C313.574 101.316 314.917 102.735 314.917 104.485C314.917 106.234 313.574 107.654 311.927 107.654C310.279 107.654 308.937 106.234 308.937 104.485C308.932 102.74 310.275 101.316 311.927 101.316ZM288.146 161.002C288.146 162.746 286.803 164.171 285.156 164.171C283.508 164.171 282.166 162.751 282.166 161.002C282.166 159.253 283.508 157.833 285.156 157.833C286.803 157.833 288.146 159.257 288.146 161.002Z" fill="white"/>
<path opacity="0.58" d="M351.568 226.842C349.179 227.016 347.289 229.129 347.289 231.697C347.289 234.386 349.353 236.571 351.892 236.571C354.431 236.571 356.495 234.386 356.495 231.697C356.495 229.124 354.601 227.016 352.217 226.842V203.782H428.043C427.985 203.554 427.922 203.327 427.864 203.099H351.568V226.842ZM354.877 231.702C354.877 233.451 353.535 234.87 351.887 234.87C350.24 234.87 348.898 233.451 348.898 231.702C348.898 229.952 350.24 228.533 351.887 228.533C353.54 228.533 354.877 229.952 354.877 231.702Z" fill="white"/>
<path opacity="0.58" d="M338.33 226.74C335.941 226.919 334.052 229.027 334.052 231.595C334.052 234.284 336.116 236.469 338.655 236.469C341.194 236.469 343.258 234.284 343.258 231.595C343.258 229.022 341.364 226.914 338.98 226.74L338.931 189.706H423.702C423.62 189.478 423.537 189.251 423.455 189.023H338.277L338.33 226.74ZM341.64 231.6C341.64 233.349 340.298 234.769 338.65 234.769C337.003 234.769 335.66 233.349 335.66 231.6C335.66 229.85 337.003 228.431 338.65 228.431C340.302 228.431 341.64 229.85 341.64 231.6Z" fill="white"/>
<path opacity="0.58" d="M332.5 415.028L200.525 415.091L178.779 392.153L178.871 377.849C181.26 377.675 183.155 375.567 183.155 372.989C183.155 370.3 181.09 368.115 178.551 368.115C176.012 368.115 173.948 370.3 173.948 372.989C173.948 375.562 175.838 377.665 178.222 377.844L178.13 392.429L200.162 415.668L200.254 415.765L331.11 415.702C331.575 415.484 332.04 415.256 332.5 415.028ZM175.557 372.994C175.557 371.245 176.899 369.825 178.547 369.825C180.194 369.825 181.536 371.245 181.536 372.994C181.536 374.739 180.194 376.163 178.547 376.163C176.899 376.163 175.557 374.743 175.557 372.994Z" fill="white"/>
<path opacity="0.58" d="M191.523 377.854L191.615 387.128L205.09 401.495H355.313C355.637 401.267 355.962 401.04 356.287 400.812H205.356L192.254 386.842L192.167 377.854C194.551 377.675 196.441 375.567 196.441 372.999C196.441 370.31 194.377 368.125 191.838 368.125C189.299 368.125 187.234 370.31 187.234 372.999C187.234 375.572 189.134 377.68 191.523 377.854ZM191.838 369.825C193.485 369.825 194.827 371.245 194.827 372.994C194.827 374.739 193.485 376.163 191.838 376.163C190.19 376.163 188.848 374.743 188.848 372.994C188.848 371.245 190.19 369.825 191.838 369.825Z" fill="white"/>
<path opacity="0.58" d="M151.873 377.767C154.3 377.767 156.292 375.761 156.456 373.232H160.575C160.74 375.761 162.731 377.767 165.159 377.767C167.698 377.767 169.762 375.582 169.762 372.892C169.762 370.203 167.698 368.018 165.159 368.018C162.731 368.018 160.74 370.024 160.575 372.553H156.456C156.292 370.024 154.3 368.018 151.873 368.018C149.334 368.018 147.27 370.203 147.27 372.892C147.274 375.582 149.339 377.767 151.873 377.767ZM165.164 369.724C166.811 369.724 168.153 371.143 168.153 372.892C168.153 374.642 166.811 376.061 165.164 376.061C163.516 376.061 162.174 374.642 162.174 372.892C162.174 371.143 163.516 369.724 165.164 369.724ZM151.873 369.724C153.52 369.724 154.862 371.143 154.862 372.892C154.862 374.642 153.52 376.061 151.873 376.061C150.225 376.061 148.883 374.642 148.883 372.892C148.883 371.143 150.225 369.724 151.873 369.724Z" fill="white"/>
<path opacity="0.58" d="M218.503 339.759C216.075 339.759 214.084 341.765 213.919 344.295H209.8C209.635 341.765 207.644 339.759 205.216 339.759C202.677 339.759 200.613 341.945 200.613 344.634C200.613 347.323 202.677 349.508 205.216 349.508C207.644 349.508 209.635 347.502 209.8 344.973H213.919C214.084 347.502 216.075 349.508 218.503 349.508C221.042 349.508 223.106 347.323 223.106 344.634C223.101 341.945 221.037 339.759 218.503 339.759ZM205.212 347.803C203.564 347.803 202.222 346.383 202.222 344.634C202.222 342.89 203.564 341.465 205.212 341.465C206.859 341.465 208.201 342.885 208.201 344.634C208.201 346.378 206.859 347.803 205.212 347.803ZM218.503 347.803C216.855 347.803 215.513 346.383 215.513 344.634C215.513 342.89 216.855 341.465 218.503 341.465C220.15 341.465 221.492 342.885 221.492 344.634C221.492 346.378 220.15 347.803 218.503 347.803Z" fill="white"/>
<path opacity="0.58" d="M218.503 368.12C216.075 368.12 214.084 370.126 213.919 372.655H209.8C209.635 370.126 207.644 368.12 205.216 368.12C202.677 368.12 200.613 370.305 200.613 372.994C200.613 375.683 202.677 377.869 205.216 377.869C207.644 377.869 209.635 375.863 209.8 373.333H213.919C214.084 375.863 216.075 377.869 218.503 377.869C221.042 377.869 223.106 375.683 223.106 372.994C223.101 370.305 221.037 368.12 218.503 368.12ZM205.212 376.163C203.564 376.163 202.222 374.743 202.222 372.994C202.222 371.245 203.564 369.825 205.212 369.825C206.859 369.825 208.201 371.245 208.201 372.994C208.201 374.743 206.859 376.163 205.212 376.163ZM218.503 376.163C216.855 376.163 215.513 374.743 215.513 372.994C215.513 371.245 216.855 369.825 218.503 369.825C220.15 369.825 221.492 371.245 221.492 372.994C221.492 374.743 220.15 376.163 218.503 376.163Z" fill="white"/>
<path opacity="0.58" d="M289.837 175.083C289.837 172.393 287.772 170.208 285.233 170.208C282.694 170.208 280.63 172.393 280.63 175.083C280.63 177.656 282.525 179.763 284.909 179.938L284.923 202.387L271.627 217.281L271.54 217.378V240.806C269.151 240.98 267.262 243.093 267.262 245.661C267.262 248.35 269.326 250.536 271.865 250.536C274.404 250.536 276.468 248.35 276.468 245.661C276.468 243.088 274.573 240.98 272.19 240.806V217.65L285.485 202.755L285.573 202.658L285.558 179.938C287.947 179.763 289.837 177.656 289.837 175.083ZM274.855 245.671C274.855 247.42 273.512 248.84 271.865 248.84C270.217 248.84 268.875 247.42 268.875 245.671C268.875 243.922 270.217 242.502 271.865 242.502C273.512 242.502 274.855 243.922 274.855 245.671ZM285.238 178.252C283.591 178.252 282.249 176.832 282.249 175.083C282.249 173.338 283.591 171.914 285.238 171.914C286.886 171.914 288.228 173.333 288.228 175.083C288.228 176.827 286.886 178.252 285.238 178.252Z" fill="white"/>
<path opacity="0.58" d="M311.7 160.76L311.603 160.861V198.588C309.214 198.762 307.324 200.875 307.324 203.443C307.324 206.132 309.388 208.317 311.927 208.317C314.466 208.317 316.531 206.132 316.531 203.443C316.531 200.87 314.636 198.762 312.252 198.588V161.147L325.742 147.066V109.345C328.13 109.17 330.02 107.058 330.02 104.49C330.02 101.8 327.956 99.615 325.417 99.615C322.878 99.615 320.814 101.8 320.814 104.49C320.814 107.062 322.708 109.17 325.092 109.345V146.785L311.7 160.76ZM314.917 203.443C314.917 205.192 313.575 206.612 311.927 206.612C310.28 206.612 308.938 205.192 308.938 203.443C308.938 201.694 310.28 200.274 311.927 200.274C313.575 200.274 314.917 201.694 314.917 203.443ZM322.423 104.485C322.423 102.735 323.765 101.316 325.412 101.316C327.06 101.316 328.402 102.735 328.402 104.485C328.402 106.234 327.06 107.654 325.412 107.654C323.765 107.654 322.423 106.234 322.423 104.485Z" fill="white"/>
<path opacity="0.58" d="M391.852 170.208C389.313 170.208 387.249 172.393 387.249 175.083C387.249 177.772 389.313 179.957 391.852 179.957C394.28 179.957 396.271 177.951 396.436 175.422H417.969C417.867 175.194 417.761 174.966 417.659 174.739H396.441C396.271 172.209 394.28 170.208 391.852 170.208ZM391.852 178.252C390.205 178.252 388.863 176.832 388.863 175.083C388.863 173.338 390.205 171.914 391.852 171.914C393.5 171.914 394.842 173.333 394.842 175.083C394.842 176.827 393.504 178.252 391.852 178.252Z" fill="white"/>
<path opacity="0.58" d="M356.49 104.485C356.49 101.795 354.426 99.6101 351.887 99.6101C349.348 99.6101 347.284 101.795 347.284 104.485C347.284 107.101 349.242 109.233 351.684 109.349C351.727 113.361 351.694 131.479 351.664 142.066C349.276 142.24 347.381 144.348 347.381 146.926C347.381 149.615 349.445 151.8 351.984 151.8C354.523 151.8 356.587 149.615 356.587 146.926C356.587 144.353 354.698 142.245 352.309 142.071C352.314 139.716 352.333 132.734 352.343 125.746C352.357 115.019 352.357 110.934 352.323 109.34C354.659 109.102 356.49 107.019 356.49 104.485ZM354.974 146.926C354.974 148.675 353.632 150.095 351.984 150.095C350.337 150.095 348.995 148.675 348.995 146.926C348.995 145.177 350.337 143.757 351.984 143.757C353.632 143.757 354.974 145.177 354.974 146.926ZM351.887 107.654C350.24 107.654 348.898 106.234 348.898 104.485C348.898 102.735 350.24 101.316 351.887 101.316C353.535 101.316 354.877 102.735 354.877 104.485C354.877 106.234 353.54 107.654 351.887 107.654Z" fill="white"/>
<path opacity="0.58" d="M364.95 109.345V142.071C362.562 142.245 360.672 144.358 360.672 146.926C360.672 149.615 362.736 151.8 365.275 151.8C367.814 151.8 369.878 149.615 369.878 146.926C369.878 144.353 367.984 142.245 365.6 142.071V109.345C366.108 109.306 366.593 109.175 367.048 108.976C366.506 108.531 365.963 108.09 365.411 107.649C365.367 107.649 365.323 107.654 365.275 107.654C363.88 107.654 362.712 106.636 362.382 105.265C361.825 104.834 361.263 104.407 360.701 103.986C360.686 104.15 360.677 104.315 360.677 104.485C360.672 107.058 362.566 109.165 364.95 109.345ZM368.265 146.926C368.265 148.675 366.922 150.095 365.275 150.095C363.628 150.095 362.285 148.675 362.285 146.926C362.285 145.177 363.628 143.757 365.275 143.757C366.922 143.757 368.265 145.177 368.265 146.926Z" fill="white"/>
<path opacity="0.58" d="M383.15 146.582C382.985 144.052 380.994 142.046 378.566 142.046C376.027 142.046 373.963 144.232 373.963 146.921C373.963 149.61 376.027 151.795 378.566 151.795C380.994 151.795 382.985 149.789 383.15 147.26H392.177V134.032C391.964 133.775 391.746 133.518 391.532 133.262V146.577H383.15V146.582ZM378.566 150.095C376.919 150.095 375.576 148.675 375.576 146.926C375.576 145.177 376.919 143.757 378.566 143.757C380.213 143.757 381.556 145.177 381.556 146.926C381.556 148.675 380.213 150.095 378.566 150.095Z" fill="white"/>
<path opacity="0.58" d="M98.5247 321.352C101.064 321.352 103.128 319.166 103.128 316.477C103.128 313.788 101.064 311.603 98.5247 311.603C96.0971 311.603 94.1056 313.609 93.9409 316.138H79.1914C79.2786 316.366 79.3658 316.593 79.4579 316.821H93.9409C94.1056 319.346 96.0971 321.352 98.5247 321.352ZM98.5247 313.308C100.172 313.308 101.514 314.728 101.514 316.477C101.514 318.221 100.172 319.646 98.5247 319.646C96.8772 319.646 95.535 318.226 95.535 316.477C95.535 314.728 96.8724 313.308 98.5247 313.308Z" fill="white"/>
<path opacity="0.58" d="M98.6214 335.428C101.16 335.428 103.225 333.242 103.225 330.553C103.225 327.864 101.16 325.679 98.6214 325.679C96.1939 325.679 94.2024 327.685 94.0377 330.214H85.248C85.3595 330.442 85.4709 330.669 85.5824 330.897H94.0377C94.2024 333.426 96.1939 335.428 98.6214 335.428ZM98.6214 327.389C100.269 327.389 101.611 328.809 101.611 330.558C101.611 332.302 100.269 333.727 98.6214 333.727C96.974 333.727 95.6318 332.307 95.6318 330.558C95.6318 328.809 96.9691 327.389 98.6214 327.389Z" fill="white"/>
<path opacity="0.58" d="M111.811 369.724C113.458 369.724 114.8 371.143 114.8 372.892C114.8 373.241 114.742 373.581 114.645 373.895C115.047 374.336 115.449 374.777 115.852 375.213C116.205 374.521 116.414 373.736 116.414 372.892C116.414 370.203 114.35 368.018 111.811 368.018C111.132 368.018 110.493 368.178 109.911 368.459C110.294 368.919 110.682 369.375 111.069 369.83C111.307 369.762 111.559 369.724 111.811 369.724Z" fill="white"/>
<path opacity="0.58" d="M165.067 142.051C162.528 142.051 160.464 144.236 160.464 146.926C160.464 149.615 162.528 151.8 165.067 151.8C167.495 151.8 169.486 149.794 169.651 147.265H187.254C187.419 149.794 189.41 151.8 191.838 151.8C194.377 151.8 196.441 149.615 196.441 146.926C196.441 144.236 194.377 142.051 191.838 142.051C189.41 142.051 187.419 144.057 187.254 146.586H169.651C169.486 144.052 167.495 142.051 165.067 142.051ZM165.067 150.095C163.42 150.095 162.077 148.675 162.077 146.926C162.077 145.176 163.42 143.757 165.067 143.757C166.714 143.757 168.057 145.176 168.057 146.926C168.057 148.675 166.714 150.095 165.067 150.095ZM191.838 143.757C193.485 143.757 194.828 145.176 194.828 146.926C194.828 148.675 193.485 150.095 191.838 150.095C190.191 150.095 188.848 148.675 188.848 146.926C188.848 145.176 190.191 143.757 191.838 143.757Z" fill="white"/>
<path opacity="0.58" d="M244.963 90.2681V113.705C242.574 113.88 240.685 115.993 240.685 118.561C240.685 121.25 242.749 123.435 245.288 123.435C247.827 123.435 249.891 121.25 249.891 118.561C249.891 115.988 247.996 113.88 245.612 113.705V90.5492L266.709 68.0373C266.428 68.0131 266.147 67.9888 265.866 67.9695L244.963 90.2681ZM248.277 118.565C248.277 120.315 246.935 121.734 245.288 121.734C243.64 121.734 242.298 120.315 242.298 118.565C242.298 116.816 243.64 115.397 245.288 115.397C246.935 115.397 248.277 116.816 248.277 118.565Z" fill="white"/>
<path opacity="0.58" d="M218.609 113.691C216.181 113.691 214.19 115.697 214.025 118.226H196.421C196.257 115.697 194.265 113.691 191.838 113.691C189.299 113.691 187.234 115.876 187.234 118.566C187.234 121.255 189.299 123.44 191.838 123.44C194.265 123.44 196.257 121.434 196.421 118.905H214.025C214.19 121.434 216.181 123.44 218.609 123.44C221.148 123.44 223.212 121.255 223.212 118.566C223.212 115.876 221.148 113.691 218.609 113.691ZM191.838 121.73C190.19 121.73 188.848 120.31 188.848 118.561C188.848 116.811 190.19 115.392 191.838 115.392C193.485 115.392 194.827 116.811 194.827 118.561C194.827 120.31 193.485 121.73 191.838 121.73ZM218.609 121.73C216.961 121.73 215.619 120.31 215.619 118.561C215.619 116.811 216.961 115.392 218.609 115.392C220.256 115.392 221.598 116.811 221.598 118.561C221.598 120.31 220.261 121.73 218.609 121.73Z" fill="white"/>
<path opacity="0.58" d="M111.811 363.793C114.35 363.793 116.414 361.607 116.414 358.918C116.414 356.229 114.35 354.044 111.811 354.044C109.383 354.044 107.392 356.05 107.227 358.579H102.197C102.362 358.807 102.532 359.035 102.696 359.262H107.227C107.396 361.787 109.383 363.793 111.811 363.793ZM111.811 355.749C113.458 355.749 114.8 357.169 114.8 358.918C114.8 360.667 113.458 362.087 111.811 362.087C110.163 362.087 108.821 360.667 108.821 358.918C108.821 357.169 110.163 355.749 111.811 355.749Z" fill="white"/>
<path opacity="0.58" d="M133.983 161.002C133.983 163.691 136.048 165.876 138.587 165.876C141.126 165.876 143.19 163.691 143.19 161.002C143.19 158.429 141.295 156.321 138.911 156.147V137.705C141.3 137.531 143.19 135.418 143.19 132.85C143.19 130.161 141.126 127.975 138.587 127.975C136.048 127.975 133.983 130.161 133.983 132.85C133.983 135.423 135.878 137.531 138.262 137.705V156.147C135.873 156.321 133.983 158.429 133.983 161.002ZM135.592 132.845C135.592 131.096 136.934 129.676 138.582 129.676C140.229 129.676 141.571 131.096 141.571 132.845C141.571 134.594 140.229 136.014 138.582 136.014C136.934 136.014 135.592 134.594 135.592 132.845ZM138.587 157.833C140.234 157.833 141.576 159.253 141.576 161.002C141.576 162.746 140.234 164.171 138.587 164.171C136.939 164.171 135.597 162.751 135.597 161.002C135.592 159.257 136.934 157.833 138.587 157.833Z" fill="white"/>
<path opacity="0.58" d="M124.782 165.862V194.343L98.2053 222.5V269.181C95.8165 269.355 93.9268 271.468 93.9268 274.036C93.9268 276.725 95.9909 278.91 98.5299 278.91C101.069 278.91 103.133 276.725 103.133 274.036C103.133 271.463 101.239 269.355 98.8546 269.181V222.781L125.432 194.624V165.857C127.821 165.682 129.71 163.57 129.71 161.002C129.71 158.313 127.646 156.127 125.107 156.127C122.568 156.127 120.504 158.313 120.504 161.002C120.499 163.575 122.394 165.682 124.782 165.862ZM101.515 274.036C101.515 275.785 100.173 277.205 98.5251 277.205C96.8776 277.205 95.5354 275.785 95.5354 274.036C95.5354 272.287 96.8776 270.867 98.5251 270.867C100.173 270.872 101.515 272.292 101.515 274.036ZM125.102 157.833C126.75 157.833 128.092 159.253 128.092 161.002C128.092 162.746 126.75 164.171 125.102 164.171C123.455 164.171 122.113 162.751 122.113 161.002C122.113 159.257 123.455 157.833 125.102 157.833Z" fill="white"/>
</g>
</g>
<g filter="url(#filter0_d_2_3409)">
<path d="M294.622 356.074C285.02 356.248 275.34 353.51 267.883 347.887C259.961 341.915 255.416 332.353 253.33 322.655C250.522 309.595 251.214 296.068 251.191 282.816C251.093 227.089 251.06 162.33 251.06 162.33L325.349 162.612L325.468 168.416L274.699 168.457C274.699 168.457 274.659 252.635 274.768 290.701C274.805 303.318 273.417 322.649 283.108 332.325C290.857 340.061 303.908 340.027 313.743 335.216C323.578 330.403 330.945 321.815 338.02 313.459C337.451 317.041 335.507 324.649 333.962 328.188C331.701 333.365 328.636 338.195 324.909 342.441C317.046 351.399 306.58 355.858 294.622 356.074Z" fill="url(#paint5_linear_2_3409)"/>
<path d="M210.084 155.965H232.595C232.595 155.965 232.205 284.269 232.668 296.683C234.668 350.215 251.848 356.14 251.848 356.14C251.848 356.14 226.078 361.768 215.252 328.482C210.58 314.12 210.671 298.686 210.485 283.584C210.016 245.541 208.804 207.423 209.625 169.382C209.626 169.381 210.084 155.965 210.084 155.965Z" fill="url(#paint6_linear_2_3409)"/>
<path d="M232.596 148.501H147.289V170.124H232.596V148.501Z" fill="url(#paint7_linear_2_3409)"/>
<path opacity="0.2" d="M232.596 170.124H209.613L209.456 179.689L232.596 170.124Z" fill="white"/>
<path d="M251.079 170.124H357.712V148.501H251.079V170.124Z" fill="url(#paint8_linear_2_3409)"/>
<path opacity="0.2" d="M251.058 170.124L274.701 168.712L274.695 179.689L251.058 170.124Z" fill="white"/>
</g>
<path opacity="0.03" d="M498.449 198.569C474.124 85.0866 373.247 0 252.5 0C131.752 0 30.8755 85.0866 6.55078 198.569C72.8415 161.295 158.699 124.536 252.5 124.536C346.3 124.536 432.158 161.295 498.449 198.569Z" fill="#E9E9E9"/>
<defs>
<filter id="filter0_d_2_3409" x="107.289" y="108.501" width="290.423" height="287.998" filterUnits="userSpaceOnUse" color-interpolation-filters="sRGB">
<feFlood flood-opacity="0" result="BackgroundImageFix"/>
<feColorMatrix in="SourceAlpha" type="matrix" values="0 0 0 0 0 0 0 0 0 0 0 0 0 0 0 0 0 0 127 0" result="hardAlpha"/>
<feOffset/>
<feGaussianBlur stdDeviation="20"/>
<feComposite in2="hardAlpha" operator="out"/>
<feColorMatrix type="matrix" values="0 0 0 0 0.665017 0 0 0 0 0.903771 0 0 0 0 0.979167 0 0 0 0.8 0"/>
<feBlend mode="normal" in2="BackgroundImageFix" result="effect1_dropShadow_2_3409"/>
<feBlend mode="normal" in="SourceGraphic" in2="effect1_dropShadow_2_3409" result="shape"/>
</filter>
<linearGradient id="paint0_linear_2_3409" x1="252.499" y1="-7.0447" x2="252.499" y2="437.336" gradientUnits="userSpaceOnUse">
<stop stop-color="#4A4A4A"/>
<stop offset="1"/>
</linearGradient>
<linearGradient id="paint1_linear_2_3409" x1="252.501" y1="71.0123" x2="252.501" y2="768.588" gradientUnits="userSpaceOnUse">
<stop stop-color="#080808"/>
<stop offset="1"/>
</linearGradient>
<linearGradient id="paint2_linear_2_3409" x1="252.502" y1="268.599" x2="252.502" y2="-127.223" gradientUnits="userSpaceOnUse">
<stop/>
<stop offset="1"/>
</linearGradient>
<linearGradient id="paint3_linear_2_3409" x1="252.499" y1="450.097" x2="252.499" y2="2.3392" gradientUnits="userSpaceOnUse">
<stop stop-color="#080808"/>
<stop offset="1"/>
</linearGradient>
<linearGradient id="paint4_linear_2_3409" x1="252.501" y1="59.1382" x2="252.501" y2="555.277" gradientUnits="userSpaceOnUse">
<stop stop-color="#141414"/>
<stop offset="1"/>
</linearGradient>
<linearGradient id="paint5_linear_2_3409" x1="265.318" y1="148.025" x2="359.844" y2="156.697" gradientUnits="userSpaceOnUse">
<stop stop-color="white"/>
<stop offset="1" stop-color="white"/>
</linearGradient>
<linearGradient id="paint6_linear_2_3409" x1="216.315" y1="141.16" x2="262.815" y2="143.175" gradientUnits="userSpaceOnUse">
<stop stop-color="white"/>
<stop offset="1" stop-color="white"/>
</linearGradient>
<linearGradient id="paint7_linear_2_3409" x1="161.276" y1="146.904" x2="217.94" y2="192.596" gradientUnits="userSpaceOnUse">
<stop stop-color="white"/>
<stop offset="1" stop-color="white"/>
</linearGradient>
<linearGradient id="paint8_linear_2_3409" x1="268.563" y1="146.904" x2="326.542" y2="205.345" gradientUnits="userSpaceOnUse">
<stop stop-color="white"/>
<stop offset="1" stop-color="white"/>
</linearGradient>
</defs>
</svg>
