<svg width="14" height="18" viewBox="0 0 14 18" fill="none" xmlns="http://www.w3.org/2000/svg">
<path d="M11 5.99998V3.99997C11 2.57083 10.2376 1.2504 9.00002 0.535823C7.76244 -0.178607 6.23758 -0.178607 5.00001 0.535823C3.76244 1.2504 3.00001 2.57083 3.00001 3.99997V5.99998C2.2044 5.99998 1.44125 6.31611 0.878645 6.87862C0.316144 7.44127 0 8.20437 0 8.99998V15C0 15.7956 0.316129 16.5587 0.878645 17.1214C1.44129 17.6839 2.2044 18 3.00001 18H11C11.7956 18 12.5588 17.6839 13.1214 17.1214C13.6839 16.5587 14 15.7956 14 15V8.99998C14 8.20437 13.6839 7.44123 13.1214 6.87862C12.5587 6.31612 11.7956 5.99998 11 5.99998ZM5.00001 3.99997C5.00001 3.2854 5.38115 2.62526 6.00001 2.26797C6.61887 1.91068 7.38116 1.91068 8.00002 2.26797C8.61887 2.62526 9.00002 3.2854 9.00002 3.99997V5.99998H5.00001V3.99997ZM7.00001 14C6.46958 14 5.9608 13.7893 5.5858 13.4142C5.21065 13.0392 5.00001 12.5304 5.00001 12C5.00001 11.4696 5.21067 10.9608 5.5858 10.5858C5.9608 10.2106 6.46958 9.99998 7.00001 9.99998C7.53044 9.99998 8.03923 10.2106 8.41423 10.5858C8.78937 10.9608 9.00002 11.4696 9.00002 12C9.00002 12.5304 8.78936 13.0392 8.41423 13.4142C8.03923 13.7893 7.53044 14 7.00001 14Z" fill="#fff"/>
</svg>
