<svg width="113" height="71" viewBox="0 0 113 71" fill="none" xmlns="http://www.w3.org/2000/svg">
<path d="M81.2223 65.7962C98.5093 65.7962 112.519 51.7816 112.519 34.4999C112.519 17.2182 98.5093 3.20361 81.2223 3.20361C63.9354 3.20361 49.926 17.2182 49.926 34.4999C49.926 51.7816 63.9354 65.7962 81.2223 65.7962Z" fill="url(#paint0_linear_286_234)"/>
<g opacity="0.89">
<path opacity="0.89" d="M100.428 34.2139C101.633 35.3579 102.806 36.469 104.012 37.613C103.859 37.723 103.76 37.789 103.672 37.833C96.3497 42.0462 89.0161 46.2594 81.6826 50.4836C81.4743 50.6046 81.3318 50.6266 81.1236 50.4946C73.7791 46.2484 66.4346 42.0132 59.0901 37.778C59.0134 37.734 58.9366 37.69 58.7612 37.569C59.0572 37.305 59.3313 37.085 59.5834 36.843C60.3288 36.1059 61.0632 35.3689 61.7867 34.6099C61.995 34.3899 62.1375 34.3679 62.4116 34.5219C68.616 38.064 74.8424 41.5952 81.0468 45.1373C81.3428 45.3133 81.5511 45.3023 81.847 45.1373C87.9638 41.5292 94.0806 37.943 100.208 34.3459C100.296 34.2909 100.417 34.2249 100.428 34.2139Z" fill="white"/>
<path opacity="0.89" d="M64.626 26.4473C65.7331 27.0853 66.7745 27.6903 67.8269 28.2953C72.2445 30.8585 76.6731 33.4326 81.0908 36.0067C81.3539 36.1607 81.5512 36.1717 81.8252 36.0067C87.087 32.9155 92.3706 29.8354 97.6433 26.7553C97.7968 26.6673 97.9502 26.5793 98.1695 26.4583C98.1695 26.9093 98.1695 27.3053 98.1695 27.7123C98.1695 28.9554 98.1695 30.1984 98.1695 31.4305C98.1695 31.6725 98.1147 31.8045 97.9064 31.9255C92.4912 35.0496 87.087 38.1848 81.6718 41.3199C81.4854 41.4299 81.3648 41.4189 81.1785 41.3199C75.7523 38.2068 70.3262 35.1046 64.911 31.9915C64.7904 31.9145 64.6369 31.7495 64.6369 31.6285C64.626 29.9344 64.626 28.2183 64.626 26.4473Z" fill="white"/>
<path opacity="0.89" d="M71.0276 26.2715C75.6206 23.6093 80.1698 20.9692 84.7738 18.3071C84.7848 18.4941 84.8067 18.6261 84.8177 18.7581C84.8505 19.8252 84.8834 20.9032 84.8944 21.9703C84.8944 22.1023 84.7957 22.3003 84.6752 22.3663C81.3318 24.3134 77.9884 26.2495 74.645 28.1745C74.5354 28.2295 74.349 28.2625 74.2613 28.2075C73.1871 27.5805 72.1347 26.9425 71.0276 26.2715Z" fill="white"/>
<path opacity="0.89" d="M86.9882 25.1382C86.9882 26.4472 86.9882 27.6683 86.9772 28.8783C86.9772 28.9883 86.8676 29.1313 86.758 29.1973C85.037 30.2094 83.305 31.1994 81.573 32.1895C81.4853 32.2445 81.3318 32.2775 81.2551 32.2335C80.1699 31.6174 79.0956 30.9684 77.9556 30.3084C80.9701 28.5813 83.9298 26.8873 86.9882 25.1382Z" fill="white"/>
</g>
<path d="M35.0283 70.0438C54.1344 70.0438 69.623 54.5164 69.623 35.3625C69.623 16.2085 54.1344 0.681152 35.0283 0.681152C15.9222 0.681152 0.433594 16.2085 0.433594 35.3625C0.433594 54.5164 15.9222 70.0438 35.0283 70.0438Z" fill="url(#paint1_linear_286_234)"/>
<path d="M35.0284 69.406C53.783 69.406 68.9867 54.1643 68.9867 35.3627C68.9867 16.561 53.783 1.31934 35.0284 1.31934C16.2737 1.31934 1.07007 16.561 1.07007 35.3627C1.07007 54.1643 16.2737 69.406 35.0284 69.406Z" fill="url(#paint2_linear_286_234)"/>
<path opacity="0.3" d="M36.3895 1.31934C55.3221 1.31934 70.666 16.56 70.666 35.3627C70.666 54.1653 55.3221 69.406 36.3895 69.406C17.457 69.406 2.11304 54.1653 2.11304 35.3627C2.11304 16.5777 17.457 1.31934 36.3895 1.31934Z" fill="url(#paint3_radial_286_234)"/>
<path d="M35.0281 63.8586C50.7269 63.8586 63.4533 51.1003 63.4533 35.3622C63.4533 19.624 50.7269 6.86572 35.0281 6.86572C19.3292 6.86572 6.60278 19.624 6.60278 35.3622C6.60278 51.1003 19.3292 63.8586 35.0281 63.8586Z" fill="url(#paint4_linear_286_234)"/>
<path d="M35.0283 62.3696C49.907 62.3696 61.9687 50.2778 61.9687 35.3618C61.9687 20.4458 49.907 8.354 35.0283 8.354C20.1495 8.354 8.08789 20.4458 8.08789 35.3618C8.08789 50.2778 20.1495 62.3696 35.0283 62.3696Z" fill="url(#paint5_linear_286_234)"/>
<path d="M35.0284 61.573C49.4679 61.573 61.1733 49.8383 61.1733 35.3627C61.1733 20.8871 49.4679 9.15234 35.0284 9.15234C20.589 9.15234 8.88354 20.8871 8.88354 35.3627C8.88354 49.8383 20.589 61.573 35.0284 61.573Z" fill="url(#paint6_linear_286_234)"/>
<g opacity="0.3">
<g opacity="0.58">
<path opacity="0.58" d="M12.1181 38.9955C12.4716 38.9955 12.7545 38.6943 12.7545 38.3221C12.7545 37.9677 12.4893 37.6841 12.1711 37.6487V30.5777L15.8127 26.7144V23.4714C16.1485 23.4536 16.396 23.1524 16.396 22.7979C16.396 22.4258 16.1132 22.1245 15.7596 22.1245C15.4061 22.1245 15.1232 22.4258 15.1232 22.7979C15.1232 23.1524 15.3884 23.4359 15.7066 23.4714V26.679L12.065 30.5423V37.6664C11.7292 37.6841 11.4817 37.9854 11.4817 38.3398C11.4817 38.6943 11.7645 38.9955 12.1181 38.9955ZM15.353 22.7979C15.353 22.5498 15.5298 22.3549 15.7596 22.3549C15.9894 22.3549 16.1662 22.5498 16.1662 22.7979C16.1662 23.046 15.9894 23.241 15.7596 23.241C15.5298 23.241 15.353 23.046 15.353 22.7979ZM12.1181 37.8968C12.3479 37.8968 12.5247 38.0917 12.5247 38.3398C12.5247 38.5879 12.3479 38.7829 12.1181 38.7829C11.8883 38.7829 11.7115 38.5879 11.7115 38.3398C11.7115 38.0917 11.8883 37.8968 12.1181 37.8968Z" fill="#2BBAA0"/>
<path opacity="0.58" d="M23.0607 27.3703C23.3966 27.3703 23.6617 27.0867 23.6971 26.75H26.1012C26.1189 27.1045 26.4017 27.3703 26.7376 27.3703C27.0912 27.3703 27.374 27.069 27.374 26.6969C27.374 26.3247 27.0912 26.0234 26.7376 26.0234C26.4017 26.0234 26.1366 26.307 26.1012 26.6437H23.6971C23.6794 26.2893 23.3966 26.0234 23.0607 26.0234C22.7072 26.0234 22.4243 26.3247 22.4243 26.6969C22.442 27.069 22.7248 27.3703 23.0607 27.3703ZM26.7376 26.2538C26.9674 26.2538 27.1442 26.4488 27.1442 26.6969C27.1442 26.945 26.9674 27.1399 26.7376 27.1399C26.5078 27.1399 26.331 26.945 26.331 26.6969C26.331 26.4488 26.5078 26.2538 26.7376 26.2538ZM23.0607 26.2538C23.2905 26.2538 23.4673 26.4488 23.4673 26.6969C23.4673 26.945 23.2905 27.1399 23.0607 27.1399C22.8309 27.1399 22.6541 26.945 22.6541 26.6969C22.6541 26.4488 22.8486 26.2538 23.0607 26.2538Z" fill="#2BBAA0"/>
<path opacity="0.58" d="M20.8506 27.2108C20.9566 27.2994 21.098 27.3703 21.2571 27.3703C21.6107 27.3703 21.8935 27.069 21.8935 26.6969C21.8935 26.3247 21.6107 26.0234 21.2571 26.0234C20.9036 26.0234 20.6208 26.3247 20.6208 26.6969C20.6208 26.8741 20.6915 27.0336 20.7798 27.1399L17.5272 30.5425V33.7855C17.1913 33.8033 16.9438 34.1045 16.9438 34.459C16.9438 34.8311 17.2267 35.1324 17.5802 35.1324C17.9338 35.1324 18.2166 34.8311 18.2166 34.459C18.2166 34.1045 17.9515 33.821 17.6333 33.7855V30.5779L20.8506 27.2108ZM21.2395 26.2538C21.4693 26.2538 21.646 26.4488 21.646 26.6969C21.646 26.945 21.4693 27.1399 21.2395 27.1399C21.0097 27.1399 20.8329 26.945 20.8329 26.6969C20.8329 26.4488 21.0273 26.2538 21.2395 26.2538ZM17.9868 34.459C17.9868 34.7071 17.81 34.902 17.5802 34.902C17.3504 34.902 17.1737 34.7071 17.1737 34.459C17.1737 34.2108 17.3504 34.0159 17.5802 34.0159C17.81 34.0336 17.9868 34.2286 17.9868 34.459Z" fill="#2BBAA0"/>
<path opacity="0.58" d="M23.0607 29.3014C23.3966 29.3014 23.6617 29.0179 23.6971 28.6812H26.1012C26.1189 29.0356 26.4017 29.3014 26.7376 29.3014C27.0912 29.3014 27.374 29.0002 27.374 28.628C27.374 28.2559 27.0912 27.9546 26.7376 27.9546C26.4017 27.9546 26.1366 28.2381 26.1012 28.5748H23.6971C23.6794 28.2204 23.3966 27.9546 23.0607 27.9546C22.7072 27.9546 22.4243 28.2559 22.4243 28.628C22.4243 29.0002 22.7248 29.3014 23.0607 29.3014ZM26.7376 28.2027C26.9674 28.2027 27.1442 28.3976 27.1442 28.6457C27.1442 28.8938 26.9674 29.0888 26.7376 29.0888C26.5078 29.0888 26.331 28.8938 26.331 28.6457C26.331 28.3976 26.5078 28.2027 26.7376 28.2027ZM23.0607 28.2027C23.2905 28.2027 23.4673 28.3976 23.4673 28.6457C23.4673 28.8938 23.2905 29.0888 23.0607 29.0888C22.8309 29.0888 22.6541 28.8938 22.6541 28.6457C22.6541 28.3976 22.8486 28.2027 23.0607 28.2027Z" fill="#2BBAA0"/>
<path opacity="0.58" d="M23.0607 31.215C23.3966 31.215 23.6617 30.9315 23.6971 30.5948H26.1012C26.1189 30.9492 26.4017 31.215 26.7376 31.215C27.0912 31.215 27.374 30.9137 27.374 30.5416C27.374 30.1694 27.0912 29.8682 26.7376 29.8682C26.4017 29.8682 26.1366 30.1517 26.1012 30.4884H23.6971C23.6794 30.134 23.3966 29.8682 23.0607 29.8682C22.7072 29.8682 22.4243 30.1694 22.4243 30.5416C22.4243 30.9137 22.7072 31.215 23.0607 31.215ZM26.7199 30.1163C26.9497 30.1163 27.1265 30.3112 27.1265 30.5593C27.1265 30.8074 26.9497 31.0024 26.7199 31.0024C26.4901 31.0024 26.3133 30.8074 26.3133 30.5593C26.3133 30.3112 26.4901 30.1163 26.7199 30.1163ZM23.0607 30.1163C23.2905 30.1163 23.4673 30.3112 23.4673 30.5593C23.4673 30.8074 23.2905 31.0024 23.0607 31.0024C22.8309 31.0024 22.6541 30.8074 22.6541 30.5593C22.6364 30.3112 22.8309 30.1163 23.0607 30.1163Z" fill="#2BBAA0"/>
<path opacity="0.58" d="M23.0607 33.1652C23.3966 33.1652 23.6617 32.8817 23.6971 32.5449H26.1012C26.1189 32.8994 26.4017 33.1652 26.7376 33.1652C27.0912 33.1652 27.374 32.8639 27.374 32.4918C27.374 32.1196 27.0912 31.8184 26.7376 31.8184C26.4017 31.8184 26.1366 32.1019 26.1012 32.4386H23.6971C23.6794 32.0842 23.3966 31.8184 23.0607 31.8184C22.7072 31.8184 22.4243 32.1196 22.4243 32.4918C22.4243 32.8639 22.7072 33.1652 23.0607 33.1652ZM26.7199 32.0665C26.9497 32.0665 27.1265 32.2614 27.1265 32.5095C27.1265 32.7576 26.9497 32.9525 26.7199 32.9525C26.4901 32.9525 26.3133 32.7576 26.3133 32.5095C26.3133 32.2614 26.4901 32.0665 26.7199 32.0665ZM23.0607 32.0665C23.2905 32.0665 23.4673 32.2614 23.4673 32.5095C23.4673 32.7576 23.2905 32.9525 23.0607 32.9525C22.8309 32.9525 22.6541 32.7576 22.6541 32.5095C22.6364 32.2614 22.8309 32.0665 23.0607 32.0665Z" fill="#2BBAA0"/>
<path opacity="0.58" d="M23.0607 35.132C23.3966 35.132 23.6617 34.8485 23.6971 34.5117H26.1012C26.1189 34.8662 26.4017 35.132 26.7376 35.132C27.0912 35.132 27.374 34.8307 27.374 34.4586C27.374 34.0864 27.0912 33.7852 26.7376 33.7852C26.4017 33.7852 26.1366 34.0687 26.1012 34.4054H23.6971C23.6794 34.051 23.3966 33.7852 23.0607 33.7852C22.7072 33.7852 22.4243 34.0864 22.4243 34.4586C22.4243 34.8307 22.7072 35.132 23.0607 35.132ZM26.7199 34.0333C26.9497 34.0333 27.1265 34.2282 27.1265 34.4763C27.1265 34.7244 26.9497 34.9193 26.7199 34.9193C26.4901 34.9193 26.3133 34.7244 26.3133 34.4763C26.3133 34.2282 26.4901 34.0333 26.7199 34.0333ZM23.0607 34.0333C23.2905 34.0333 23.4673 34.2282 23.4673 34.4763C23.4673 34.7244 23.2905 34.9193 23.0607 34.9193C22.8309 34.9193 22.6541 34.7244 22.6541 34.4763C22.6364 34.2282 22.8309 34.0333 23.0607 34.0333Z" fill="#2BBAA0"/>
<path opacity="0.58" d="M32.2353 37.1348L32.253 23.4714C32.5888 23.4536 32.8363 23.1524 32.8363 22.7979C32.8363 22.4258 32.5535 22.1245 32.1999 22.1245C31.8464 22.1245 31.5635 22.4258 31.5635 22.7979C31.5635 23.1524 31.8287 23.4359 32.1469 23.4714V37.0816L23.0253 44.826L23.0077 44.8437V47.3602C22.6718 47.3779 22.4243 47.6791 22.4243 48.0336C22.4243 48.4057 22.7072 48.707 23.0607 48.707C23.4143 48.707 23.6971 48.4057 23.6971 48.0336C23.6971 47.6791 23.4319 47.3956 23.1137 47.3602V44.8791L32.2353 37.1348ZM31.7933 22.7979C31.7933 22.5498 31.9701 22.3549 32.1999 22.3549C32.4297 22.3549 32.6065 22.5498 32.6065 22.7979C32.6065 23.046 32.4297 23.241 32.1999 23.241C31.9701 23.241 31.7933 23.046 31.7933 22.7979ZM23.485 48.0336C23.485 48.2817 23.3082 48.4766 23.0784 48.4766C22.8486 48.4766 22.6718 48.2817 22.6718 48.0336C22.6718 47.7855 22.8486 47.5905 23.0784 47.5905C23.2905 47.5905 23.485 47.7855 23.485 48.0336Z" fill="#2BBAA0"/>
<path opacity="0.58" d="M34.0737 37.8436L34.0913 23.4714C34.4272 23.4536 34.6747 23.1524 34.6747 22.7979C34.6747 22.4258 34.3919 22.1245 34.0383 22.1245C33.6848 22.1245 33.4019 22.4258 33.4019 22.7979C33.4019 23.1524 33.6671 23.4359 33.9853 23.4714V37.7905C31.5811 39.8816 25.4471 45.1981 24.8991 45.5171C24.8991 45.5171 24.8814 45.5171 24.8637 45.5171C24.846 45.5171 24.8284 45.5348 24.8284 45.5703C24.8284 45.7298 24.8284 46.7399 24.8461 47.3602C24.5279 47.3779 24.2627 47.6791 24.2627 48.0336C24.2627 48.4057 24.5455 48.707 24.8991 48.707C25.2526 48.707 25.5355 48.4057 25.5355 48.0336C25.5355 47.6791 25.2703 47.3956 24.9521 47.3602L24.9344 45.6412C24.9344 45.6234 24.9344 45.6234 24.9344 45.6057C25.1112 45.5171 25.8537 44.9323 29.5482 41.7601C31.7933 39.8285 34.056 37.8613 34.0737 37.8436ZM33.6317 22.7979C33.6317 22.5498 33.8085 22.3549 34.0383 22.3549C34.2681 22.3549 34.4449 22.5498 34.4449 22.7979C34.4449 23.046 34.2681 23.241 34.0383 23.241C33.8262 23.241 33.6317 23.046 33.6317 22.7979ZM25.3057 48.0336C25.3057 48.2817 25.1289 48.4766 24.8991 48.4766C24.6693 48.4766 24.4925 48.2817 24.4925 48.0336C24.4925 47.7855 24.6693 47.5905 24.8991 47.5905C25.1289 47.5905 25.3057 47.7855 25.3057 48.0336Z" fill="#2BBAA0"/>
<path opacity="0.58" d="M30.4142 36.426L30.4319 23.4538C30.7678 23.4361 31.0153 23.1348 31.0153 22.7804C31.0153 22.4082 30.7324 22.1069 30.3789 22.1069C30.0253 22.1069 29.7425 22.4082 29.7425 22.7804C29.7425 23.1348 30.0077 23.4183 30.3258 23.4538V36.3552L21.2043 44.0995L21.1866 44.1172V47.3426C20.8508 47.3603 20.6033 47.6616 20.6033 48.016C20.6033 48.3882 20.8861 48.6894 21.2397 48.6894C21.5932 48.6894 21.876 48.3882 21.876 48.016C21.876 47.6616 21.6109 47.378 21.2927 47.3426V44.1704L30.4142 36.426ZM29.9723 22.7981C29.9723 22.55 30.1491 22.355 30.3789 22.355C30.6087 22.355 30.7855 22.55 30.7855 22.7981C30.7855 23.0462 30.6087 23.2411 30.3789 23.2411C30.1667 23.2411 29.9723 23.0462 29.9723 22.7981ZM21.6639 48.0337C21.6639 48.2818 21.4871 48.4768 21.2573 48.4768C21.0275 48.4768 20.8508 48.2818 20.8508 48.0337C20.8508 47.7856 21.0275 47.5907 21.2573 47.5907C21.4695 47.5907 21.6639 47.7856 21.6639 48.0337Z" fill="#2BBAA0"/>
<path opacity="0.58" d="M26.702 46.226L26.6666 47.3602C26.3307 47.3779 26.0833 47.6791 26.0833 48.0336C26.0833 48.4057 26.3661 48.707 26.7196 48.707C27.0732 48.707 27.356 48.4057 27.356 48.0336C27.356 47.6791 27.0909 47.3956 26.7727 47.3602L26.7903 46.2969L35.8942 38.5525L35.9119 38.5348V23.4714C36.2478 23.4536 36.4952 23.1524 36.4952 22.7979C36.4952 22.4258 36.2124 22.1245 35.8589 22.1245C35.5053 22.1245 35.2225 22.4258 35.2225 22.7979C35.2225 23.1524 35.4876 23.4359 35.8058 23.4714V38.4816L26.702 46.226ZM27.1262 48.0336C27.1262 48.2817 26.9494 48.4766 26.7196 48.4766C26.4898 48.4766 26.3131 48.2817 26.3131 48.0336C26.3131 47.7855 26.4898 47.5905 26.7196 47.5905C26.9494 47.5905 27.1262 47.7855 27.1262 48.0336ZM35.4523 22.7979C35.4523 22.5498 35.6291 22.3549 35.8589 22.3549C36.0887 22.3549 36.2654 22.5498 36.2654 22.7979C36.2654 23.046 36.0887 23.241 35.8589 23.241C35.6467 23.241 35.4523 23.046 35.4523 22.7979Z" fill="#2BBAA0"/>
<path opacity="0.58" d="M19.4191 40.9267C19.755 40.9267 20.0201 40.6431 20.0555 40.3064H22.053L26.2426 36.8684C26.3663 37.0102 26.5254 37.0988 26.7199 37.0988C27.0734 37.0988 27.3563 36.7975 27.3563 36.4254C27.3563 36.0532 27.0734 35.752 26.7199 35.752C26.3663 35.752 26.0835 36.0532 26.0835 36.4254C26.0835 36.5672 26.1188 36.6912 26.1896 36.7975L22.0177 40.2178H20.0555C20.0378 39.8634 19.755 39.5976 19.4191 39.5976C19.0656 39.5976 18.7827 39.8988 18.7827 40.271C18.8004 40.6254 19.0832 40.9267 19.4191 40.9267ZM26.7199 35.9823C26.9497 35.9823 27.1265 36.1773 27.1265 36.4254C27.1265 36.6735 26.9497 36.8684 26.7199 36.8684C26.4901 36.8684 26.3133 36.6735 26.3133 36.4254C26.3133 36.1773 26.4901 35.9823 26.7199 35.9823ZM19.4191 39.8279C19.6489 39.8279 19.8257 40.0229 19.8257 40.271C19.8257 40.5191 19.6489 40.714 19.4191 40.714C19.1893 40.714 19.0125 40.5191 19.0125 40.271C19.0125 40.0229 19.207 39.8279 19.4191 39.8279Z" fill="#2BBAA0"/>
<path opacity="0.58" d="M18.1993 38.3223C18.1993 37.9502 17.9164 37.6489 17.5629 37.6489C17.2094 37.6489 16.9265 37.9502 16.9265 38.3223C16.9265 38.6768 17.1917 38.9603 17.5099 38.9958V47.3604C17.174 47.3781 16.9265 47.6794 16.9265 48.0338C16.9265 48.406 17.2094 48.7072 17.5629 48.7072C17.9164 48.7072 18.1993 48.406 18.1993 48.0338C18.1993 47.6794 17.9341 47.3958 17.6159 47.3604V38.9958C17.9518 38.978 18.1993 38.6768 18.1993 38.3223ZM17.9872 48.0338C17.9872 48.2819 17.8104 48.4769 17.5806 48.4769C17.3508 48.4769 17.174 48.2819 17.174 48.0338C17.174 47.7857 17.3508 47.5908 17.5806 47.5908C17.8104 47.5908 17.9872 47.7857 17.9872 48.0338ZM17.5806 38.7654C17.3508 38.7654 17.174 38.5704 17.174 38.3223C17.174 38.0742 17.3508 37.8793 17.5806 37.8793C17.8104 37.8793 17.9872 38.0742 17.9872 38.3223C17.9872 38.5704 17.8104 38.7654 17.5806 38.7654Z" fill="#2BBAA0"/>
<path opacity="0.58" d="M36.4956 46.0484C36.4956 45.6763 36.2127 45.375 35.8592 45.375C35.5056 45.375 35.2228 45.6763 35.2228 46.0484C35.2228 46.4029 35.488 46.6864 35.8062 46.7218V53.8105H32.8187C32.801 53.4561 32.5182 53.1903 32.1823 53.1903C31.8287 53.1903 31.5459 53.4915 31.5459 53.8637C31.5459 54.2358 31.8287 54.5371 32.1823 54.5371C32.5182 54.5371 32.7833 54.2536 32.8187 53.9168H35.8945V46.7218C36.2304 46.6864 36.4956 46.4029 36.4956 46.0484ZM32.2 54.289C31.9702 54.289 31.7934 54.0941 31.7934 53.846C31.7934 53.5979 31.9702 53.4029 32.2 53.4029C32.4298 53.4029 32.6065 53.5979 32.6065 53.846C32.6065 54.0941 32.4298 54.289 32.2 54.289ZM35.8592 46.4915C35.6294 46.4915 35.4526 46.2965 35.4526 46.0484C35.4526 45.8003 35.6294 45.6054 35.8592 45.6054C36.089 45.6054 36.2658 45.8003 36.2658 46.0484C36.2658 46.2965 36.089 46.4915 35.8592 46.4915Z" fill="#2BBAA0"/>
<path opacity="0.58" d="M37.6972 46.7223C38.0507 46.7223 38.3336 46.421 38.3336 46.0489C38.3336 45.6944 38.0684 45.4109 37.7502 45.3754V38.3399L41.4094 34.4766L41.4271 33.1652C41.763 33.1475 42.0105 32.8462 42.0105 32.4918C42.0105 32.1196 41.7276 31.8184 41.3741 31.8184C41.0205 31.8184 40.7377 32.1196 40.7377 32.4918C40.7377 32.8462 41.0029 33.1298 41.321 33.1652L41.3034 34.4412L37.6441 38.3045V45.3754C37.3083 45.3932 37.0608 45.6944 37.0608 46.0489C37.0608 46.421 37.3436 46.7223 37.6972 46.7223ZM40.9498 32.4918C40.9498 32.2437 41.1266 32.0487 41.3564 32.0487C41.5862 32.0487 41.763 32.2437 41.763 32.4918C41.763 32.7399 41.5862 32.9348 41.3564 32.9348C41.1266 32.9348 40.9498 32.7399 40.9498 32.4918ZM37.6972 45.6235C37.927 45.6235 38.1038 45.8185 38.1038 46.0666C38.1038 46.3147 37.927 46.5096 37.6972 46.5096C37.4674 46.5096 37.2906 46.3147 37.2906 46.0666C37.2906 45.8185 37.4674 45.6235 37.6972 45.6235Z" fill="#2BBAA0"/>
<path opacity="0.58" d="M48.021 42.2203C48.021 42.5924 48.3038 42.8937 48.6574 42.8937C49.0109 42.8937 49.2938 42.5924 49.2938 42.2203C49.2938 41.8658 49.0286 41.5823 48.7104 41.5469V38.9772C49.0463 38.9595 49.2938 38.6582 49.2938 38.3038C49.2938 37.9316 49.0109 37.6304 48.6574 37.6304C48.3038 37.6304 48.021 37.9316 48.021 38.3038C48.021 38.6582 48.2862 38.9418 48.6043 38.9772V41.5469C48.2862 41.5823 48.021 41.8658 48.021 42.2203ZM48.2508 38.3215C48.2508 38.0734 48.4276 37.8785 48.6574 37.8785C48.8872 37.8785 49.064 38.0734 49.064 38.3215C49.064 38.5696 48.8872 38.7646 48.6574 38.7646C48.4276 38.7646 48.2508 38.5696 48.2508 38.3215ZM48.6574 41.7772C48.8872 41.7772 49.064 41.9722 49.064 42.2203C49.064 42.4684 48.8872 42.6633 48.6574 42.6633C48.4276 42.6633 48.2508 42.4684 48.2508 42.2203C48.2508 41.9722 48.4276 41.7772 48.6574 41.7772Z" fill="#2BBAA0"/>
<path opacity="0.58" d="M47.4732 38.3223C47.4732 37.9502 47.1904 37.6489 46.8368 37.6489C46.4833 37.6489 46.2004 37.9502 46.2004 38.3223C46.2004 38.6768 46.4656 38.9603 46.7838 38.9958V41.5654C46.4479 41.5831 46.2004 41.8844 46.2004 42.2388C46.2004 42.611 46.4833 42.9123 46.8368 42.9123C47.1904 42.9123 47.4732 42.611 47.4732 42.2388C47.4732 41.8844 47.2081 41.6009 46.8899 41.5654V38.9958C47.2081 38.9603 47.4732 38.6768 47.4732 38.3223ZM47.2434 42.2211C47.2434 42.4692 47.0666 42.6642 46.8368 42.6642C46.607 42.6642 46.4302 42.4692 46.4302 42.2211C46.4302 41.973 46.607 41.7781 46.8368 41.7781C47.0666 41.7781 47.2434 41.973 47.2434 42.2211ZM46.8368 38.7654C46.607 38.7654 46.4302 38.5704 46.4302 38.3223C46.4302 38.0742 46.607 37.8793 46.8368 37.8793C47.0666 37.8793 47.2434 38.0742 47.2434 38.3223C47.2434 38.5704 47.0666 38.7654 46.8368 38.7654Z" fill="#2BBAA0"/>
<path opacity="0.58" d="M45.6522 38.3038C45.6522 37.9316 45.3693 37.6304 45.0158 37.6304C44.6622 37.6304 44.3794 37.9316 44.3794 38.3038C44.3794 38.6582 44.6446 38.9418 44.9628 38.9772V41.5469C44.6269 41.5646 44.3794 41.8658 44.3794 42.2203C44.3794 42.5924 44.6622 42.8937 45.0158 42.8937C45.3693 42.8937 45.6522 42.5924 45.6522 42.2203C45.6522 41.8658 45.387 41.5823 45.0688 41.5469V38.9772C45.4047 38.9418 45.6522 38.6582 45.6522 38.3038ZM45.44 42.2026C45.44 42.4507 45.2633 42.6456 45.0335 42.6456C44.8037 42.6456 44.6269 42.4507 44.6269 42.2026C44.6269 41.9545 44.8037 41.7595 45.0335 41.7595C45.2633 41.7595 45.44 41.9722 45.44 42.2026ZM45.0335 38.7468C44.8037 38.7468 44.6269 38.5519 44.6269 38.3038C44.6269 38.0557 44.8037 37.8608 45.0335 37.8608C45.2633 37.8608 45.44 38.0557 45.44 38.3038C45.44 38.5519 45.2456 38.7468 45.0335 38.7468Z" fill="#2BBAA0"/>
<path opacity="0.58" d="M43.8314 38.3038C43.8314 37.9316 43.5485 37.6304 43.195 37.6304C42.8414 37.6304 42.5586 37.9316 42.5586 38.3038C42.5586 38.6582 42.8238 38.9418 43.142 38.9772V41.5469C42.8061 41.5646 42.5586 41.8658 42.5586 42.2203C42.5586 42.5924 42.8414 42.8937 43.195 42.8937C43.5485 42.8937 43.8314 42.5924 43.8314 42.2203C43.8314 41.8658 43.5662 41.5823 43.248 41.5469V38.9772C43.5662 38.9418 43.8314 38.6582 43.8314 38.3038ZM43.6016 42.2026C43.6016 42.4507 43.4248 42.6456 43.195 42.6456C42.9652 42.6456 42.7884 42.4507 42.7884 42.2026C42.7884 41.9545 42.9652 41.7595 43.195 41.7595C43.4248 41.7772 43.6016 41.9722 43.6016 42.2026ZM43.195 38.7468C42.9652 38.7468 42.7884 38.5519 42.7884 38.3038C42.7884 38.0557 42.9652 37.8608 43.195 37.8608C43.4248 37.8608 43.6016 38.0557 43.6016 38.3038C43.6016 38.5519 43.4248 38.7468 43.195 38.7468Z" fill="#2BBAA0"/>
<path opacity="0.58" d="M40.7202 42.2027C40.7202 42.5749 41.0031 42.8761 41.3566 42.8761C41.7101 42.8761 41.993 42.5749 41.993 42.2027C41.993 41.8483 41.7278 41.5647 41.4096 41.5293V38.9596C41.7455 38.9419 41.993 38.6407 41.993 38.2862C41.993 37.9141 41.7101 37.6128 41.3566 37.6128C41.0031 37.6128 40.7202 37.9141 40.7202 38.2862C40.7202 38.6407 40.9854 38.9242 41.3036 38.9596V41.5293C40.9677 41.5647 40.7202 41.8483 40.7202 42.2027ZM40.9323 38.3039C40.9323 38.0558 41.1091 37.8609 41.3389 37.8609C41.5687 37.8609 41.7455 38.0558 41.7455 38.3039C41.7455 38.552 41.5687 38.747 41.3389 38.747C41.1268 38.747 40.9323 38.552 40.9323 38.3039ZM41.3389 41.7774C41.5687 41.7774 41.7455 41.9723 41.7455 42.2204C41.7455 42.4685 41.5687 42.6635 41.3389 42.6635C41.1091 42.6635 40.9323 42.4685 40.9323 42.2204C40.9323 41.9723 41.1268 41.7774 41.3389 41.7774Z" fill="#2BBAA0"/>
<path opacity="0.58" d="M41.3566 45.4459C41.0031 45.4459 40.7202 45.7472 40.7202 46.1193C40.7202 46.4915 41.0031 46.7928 41.3566 46.7928C41.6925 46.7928 41.9576 46.5092 41.993 46.1725L50.4958 46.1193H50.5312V30.6306H59.5113C59.5113 30.5952 59.4936 30.5597 59.4936 30.542H50.4428V46.0307L41.993 46.0839C41.9753 45.7117 41.6925 45.4459 41.3566 45.4459ZM41.3566 46.5447C41.1268 46.5447 40.95 46.3497 40.95 46.1016C40.95 45.8535 41.1268 45.6586 41.3566 45.6586C41.5864 45.6586 41.7632 45.8535 41.7632 46.1016C41.7809 46.3497 41.5864 46.5447 41.3566 46.5447Z" fill="#2BBAA0"/>
<path opacity="0.58" d="M52.2636 47.9977H41.993C41.9753 47.6432 41.6925 47.3774 41.3566 47.3774C41.0031 47.3774 40.7202 47.6787 40.7202 48.0508C40.7202 48.423 41.0031 48.7243 41.3566 48.7243C41.6925 48.7243 41.9576 48.4407 41.993 48.104H52.352V32.5798H59.7941C59.7941 32.5444 59.7941 32.5089 59.7765 32.4912H52.2636V47.9977ZM41.3566 48.4762C41.1268 48.4762 40.95 48.2812 40.95 48.0331C40.95 47.785 41.1268 47.5901 41.3566 47.5901C41.5864 47.5901 41.7632 47.785 41.7632 48.0331C41.7809 48.2812 41.5864 48.4762 41.3566 48.4762Z" fill="#2BBAA0"/>
<path opacity="0.58" d="M41.3565 50.6388C41.6923 50.6388 41.9575 50.3553 41.9928 50.0185H54.1903V34.4944H59.9354C59.9354 34.4589 59.9354 34.4235 59.9354 34.4058H54.1195V49.9299H41.9752C41.9575 49.5755 41.6746 49.3097 41.3388 49.3097C40.9852 49.3097 40.7024 49.611 40.7024 49.9831C40.7201 50.3375 41.0029 50.6388 41.3565 50.6388ZM41.3565 49.5223C41.5863 49.5223 41.763 49.7173 41.763 49.9654C41.763 50.2135 41.5863 50.4084 41.3565 50.4084C41.1266 50.4084 40.9499 50.2135 40.9499 49.9654C40.9499 49.7173 41.1266 49.5223 41.3565 49.5223Z" fill="#2BBAA0"/>
<path opacity="0.58" d="M41.3565 52.5879C41.6923 52.5879 41.9575 52.3044 41.9928 51.9677H53.5185C53.5539 51.9322 53.5715 51.8968 53.6069 51.879H41.9752C41.9575 51.5246 41.6746 51.2588 41.3388 51.2588C40.9852 51.2588 40.7024 51.5601 40.7024 51.9322C40.7201 52.2867 41.0029 52.5879 41.3565 52.5879ZM41.3565 51.4715C41.5863 51.4715 41.763 51.6664 41.763 51.9145C41.763 52.1626 41.5863 52.3575 41.3565 52.3575C41.1266 52.3575 40.9499 52.1626 40.9499 51.9145C40.9499 51.6664 41.1266 51.4715 41.3565 51.4715Z" fill="#2BBAA0"/>
<path opacity="0.58" d="M59.9004 36.3369H55.9407V48.7598C55.976 48.7066 55.9937 48.6712 56.0291 48.618V36.4255H59.9004C59.9004 36.3901 59.9004 36.3724 59.9004 36.3369Z" fill="#2BBAA0"/>
<path opacity="0.58" d="M41.3566 54.5371C41.6925 54.5371 41.9576 54.2536 41.993 53.9169H51.5741C51.6095 53.8814 51.6449 53.846 51.6802 53.8283H41.993C41.9753 53.4738 41.6925 53.208 41.3566 53.208C41.0031 53.208 40.7202 53.5093 40.7202 53.8814C40.7202 54.2359 41.0031 54.5371 41.3566 54.5371ZM41.3566 53.4384C41.5864 53.4384 41.7632 53.6333 41.7632 53.8814C41.7632 54.1295 41.5864 54.3245 41.3566 54.3245C41.1268 54.3245 40.95 54.1295 40.95 53.8814C40.95 53.6333 41.1268 53.4384 41.3566 53.4384Z" fill="#2BBAA0"/>
<path opacity="0.58" d="M57.7612 38.2686V45.3927C57.7966 45.3218 57.8143 45.2509 57.8496 45.1977V38.3572L59.7234 38.3749C59.7234 38.3394 59.7234 38.304 59.7411 38.2863L57.7612 38.2686Z" fill="#2BBAA0"/>
<path opacity="0.58" d="M44.9801 31.8537C44.6619 31.8714 44.3967 32.1727 44.3967 32.5271C44.3967 32.8993 44.6796 33.2005 45.0331 33.2005C45.3867 33.2005 45.6695 32.8993 45.6695 32.5271C45.6695 32.1727 45.4043 31.8891 45.0861 31.8537L45.0508 24.7827H49.8767C49.8944 25.1372 50.1772 25.403 50.5131 25.403C50.8667 25.403 51.1495 25.1017 51.1495 24.7296C51.1495 24.3574 50.8667 24.0562 50.5131 24.0562C50.1772 24.0562 49.9121 24.3397 49.8767 24.6764H44.9624L44.9801 31.8537ZM50.4954 24.3043C50.7252 24.3043 50.902 24.4992 50.902 24.7473C50.902 24.9954 50.7252 25.1903 50.4954 25.1903C50.2656 25.1903 50.0889 24.9954 50.0889 24.7473C50.0712 24.4992 50.2656 24.3043 50.4954 24.3043ZM45.4397 32.5094C45.4397 32.7575 45.2629 32.9524 45.0331 32.9524C44.8033 32.9524 44.6265 32.7575 44.6265 32.5094C44.6265 32.2613 44.8033 32.0663 45.0331 32.0663C45.2629 32.0663 45.4397 32.279 45.4397 32.5094Z" fill="#2BBAA0"/>
<path opacity="0.58" d="M40.7202 28.6285C40.7202 29.0007 41.0031 29.302 41.3566 29.302C41.7101 29.302 41.993 29.0007 41.993 28.6285C41.993 28.2741 41.7278 27.9906 41.4096 27.9551V19.5905C41.7455 19.5728 41.993 19.2715 41.993 18.9171C41.993 18.5449 41.7101 18.2437 41.3566 18.2437C41.0031 18.2437 40.7202 18.5449 40.7202 18.9171C40.7202 19.2715 40.9854 19.5551 41.3036 19.5905V27.9551C40.9854 27.9906 40.7202 28.2741 40.7202 28.6285ZM40.95 18.9348C40.95 18.6867 41.1268 18.4918 41.3566 18.4918C41.5864 18.4918 41.7632 18.6867 41.7632 18.9348C41.7632 19.1829 41.5864 19.3778 41.3566 19.3778C41.1268 19.3601 40.95 19.1652 40.95 18.9348ZM41.3566 28.2032C41.5864 28.2032 41.7632 28.3982 41.7632 28.6463C41.7632 28.8944 41.5864 29.0893 41.3566 29.0893C41.1268 29.0893 40.95 28.8944 40.95 28.6463C40.95 28.3982 41.1268 28.2032 41.3566 28.2032Z" fill="#2BBAA0"/>
<path opacity="0.58" d="M42.5589 15.0889C42.5766 15.4433 42.8594 15.7092 43.1953 15.7092C43.5488 15.7092 43.8317 15.4079 43.8317 15.0357C43.8317 14.6636 43.5488 14.3623 43.1953 14.3623C42.8594 14.3623 42.5942 14.6459 42.5589 14.9826H39.483V22.1244C39.1471 22.1421 38.8997 22.4434 38.8997 22.7978C38.8997 23.17 39.1825 23.4712 39.536 23.4712C39.8896 23.4712 40.1724 23.17 40.1724 22.7978C40.1724 22.4434 39.9073 22.1598 39.5891 22.1244V15.0889H42.5589ZM43.1776 14.5927C43.4074 14.5927 43.5842 14.7876 43.5842 15.0357C43.5842 15.2838 43.4074 15.4788 43.1776 15.4788C42.9478 15.4788 42.771 15.2838 42.771 15.0357C42.771 14.7876 42.9478 14.5927 43.1776 14.5927ZM39.9249 22.7978C39.9249 23.0459 39.7482 23.2409 39.5184 23.2409C39.2886 23.2409 39.1118 23.0459 39.1118 22.7978C39.1118 22.5497 39.2886 22.3548 39.5184 22.3548C39.7482 22.3548 39.9249 22.5674 39.9249 22.7978Z" fill="#2BBAA0"/>
<path opacity="0.58" d="M48.6043 31.8531C48.2685 31.8708 48.021 32.1721 48.021 32.5265C48.021 32.8987 48.3038 33.1999 48.6574 33.1999C49.0109 33.1999 49.2938 32.8987 49.2938 32.5265C49.2938 32.1721 49.0286 31.8885 48.7104 31.8531V28.6809H59.1047C59.1047 28.6455 59.0871 28.61 59.0871 28.5923H48.6397V31.8531H48.6043ZM49.064 32.5088C49.064 32.7569 48.8872 32.9518 48.6574 32.9518C48.4276 32.9518 48.2508 32.7569 48.2508 32.5088C48.2508 32.2607 48.4276 32.0657 48.6574 32.0657C48.8872 32.0835 49.064 32.2784 49.064 32.5088Z" fill="#2BBAA0"/>
<path opacity="0.58" d="M46.8011 31.8363C46.4653 31.8541 46.2178 32.1553 46.2178 32.5098C46.2178 32.8819 46.5006 33.1832 46.8542 33.1832C47.2077 33.1832 47.4905 32.8819 47.4905 32.5098C47.4905 32.1553 47.2254 31.8718 46.9072 31.8363V26.7502H58.5213C58.5036 26.7148 58.5036 26.6793 58.4859 26.6616H46.8188L46.8011 31.8363ZM47.2431 32.492C47.2431 32.7402 47.0663 32.9351 46.8365 32.9351C46.6067 32.9351 46.4299 32.7402 46.4299 32.492C46.4299 32.2439 46.6067 32.049 46.8365 32.049C47.0663 32.0667 47.2431 32.2617 47.2431 32.492Z" fill="#2BBAA0"/>
<path opacity="0.58" d="M46.0059 57.6919H27.9219L24.9344 54.5552L24.9521 52.5881C25.288 52.5703 25.5355 52.2691 25.5355 51.9146C25.5355 51.5425 25.2526 51.2412 24.8991 51.2412C24.5455 51.2412 24.2627 51.5425 24.2627 51.9146C24.2627 52.2691 24.5279 52.5526 24.8461 52.5881L24.8284 54.5906L27.8512 57.7805L27.8689 57.7982H45.7938C45.8645 57.7628 45.9352 57.7273 46.0059 57.6919ZM24.4925 51.9324C24.4925 51.6843 24.6693 51.4893 24.8991 51.4893C25.1289 51.4893 25.3057 51.6843 25.3057 51.9324C25.3057 52.1805 25.1289 52.3754 24.8991 52.3754C24.6693 52.3754 24.4925 52.1627 24.4925 51.9324Z" fill="#2BBAA0"/>
<path opacity="0.58" d="M26.6846 52.5881L26.7023 53.864L28.5408 55.8311H49.1349C49.188 55.7957 49.2233 55.7602 49.2764 55.7425H28.5938L26.773 53.8286L26.7553 52.5881C27.0735 52.5703 27.3387 52.2691 27.3387 51.9146C27.3387 51.5425 27.0559 51.2412 26.7023 51.2412C26.3488 51.2412 26.0659 51.5425 26.0659 51.9146C26.0836 52.2868 26.3488 52.5703 26.6846 52.5881ZM26.72 51.4893C26.9498 51.4893 27.1266 51.6843 27.1266 51.9324C27.1266 52.1805 26.9498 52.3754 26.72 52.3754C26.4902 52.3754 26.3134 52.1805 26.3134 51.9324C26.3134 51.6843 26.4902 51.4893 26.72 51.4893Z" fill="#2BBAA0"/>
<path opacity="0.58" d="M21.2397 52.5881C21.5755 52.5881 21.8407 52.3045 21.876 51.9678H22.4417C22.4594 52.3222 22.7422 52.5881 23.0781 52.5881C23.4317 52.5881 23.7145 52.2868 23.7145 51.9146C23.7145 51.5425 23.4317 51.2412 23.0781 51.2412C22.7422 51.2412 22.4771 51.5248 22.4417 51.8615H21.876C21.8584 51.507 21.5755 51.2412 21.2397 51.2412C20.8861 51.2412 20.6033 51.5425 20.6033 51.9146C20.6209 52.2868 20.9038 52.5881 21.2397 52.5881ZM23.0604 51.4716C23.2902 51.4716 23.467 51.6665 23.467 51.9146C23.467 52.1627 23.2902 52.3577 23.0604 52.3577C22.8306 52.3577 22.6539 52.1627 22.6539 51.9146C22.6539 51.6665 22.8483 51.4716 23.0604 51.4716ZM21.2397 51.4716C21.4695 51.4716 21.6462 51.6665 21.6462 51.9146C21.6462 52.1627 21.4695 52.3577 21.2397 52.3577C21.0099 52.3577 20.8331 52.1627 20.8331 51.9146C20.8331 51.6665 21.0275 51.4716 21.2397 51.4716Z" fill="#2BBAA0"/>
<path opacity="0.58" d="M30.3791 47.3599C30.0433 47.3599 29.7781 47.6434 29.7427 47.9801H29.1771C29.1594 47.6257 28.8766 47.3599 28.5407 47.3599C28.1871 47.3599 27.9043 47.6611 27.9043 48.0333C27.9043 48.4054 28.1871 48.7067 28.5407 48.7067C28.8766 48.7067 29.1417 48.4232 29.1771 48.0865H29.7427C29.7604 48.4409 30.0433 48.7067 30.3791 48.7067C30.7327 48.7067 31.0155 48.4054 31.0155 48.0333C31.0155 47.6611 30.7327 47.3599 30.3791 47.3599ZM28.5584 48.4586C28.3286 48.4586 28.1518 48.2637 28.1518 48.0156C28.1518 47.7675 28.3286 47.5725 28.5584 47.5725C28.7882 47.5725 28.9649 47.7675 28.9649 48.0156C28.9649 48.2637 28.7882 48.4586 28.5584 48.4586ZM30.3791 48.4586C30.1493 48.4586 29.9726 48.2637 29.9726 48.0156C29.9726 47.7675 30.1493 47.5725 30.3791 47.5725C30.6089 47.5725 30.7857 47.7675 30.7857 48.0156C30.7857 48.2637 30.6089 48.4586 30.3791 48.4586Z" fill="#2BBAA0"/>
<path opacity="0.58" d="M30.3791 51.2588C30.0433 51.2588 29.7781 51.5423 29.7427 51.879H29.1771C29.1594 51.5246 28.8766 51.2588 28.5407 51.2588C28.1871 51.2588 27.9043 51.5601 27.9043 51.9322C27.9043 52.3044 28.1871 52.6056 28.5407 52.6056C28.8766 52.6056 29.1417 52.3221 29.1771 51.9854H29.7427C29.7604 52.3398 30.0433 52.6056 30.3791 52.6056C30.7327 52.6056 31.0155 52.3044 31.0155 51.9322C31.0155 51.5601 30.7327 51.2588 30.3791 51.2588ZM28.5584 52.3575C28.3286 52.3575 28.1518 52.1626 28.1518 51.9145C28.1518 51.6664 28.3286 51.4715 28.5584 51.4715C28.7882 51.4715 28.9649 51.6664 28.9649 51.9145C28.9649 52.1626 28.7882 52.3575 28.5584 52.3575ZM30.3791 52.3575C30.1493 52.3575 29.9726 52.1626 29.9726 51.9145C29.9726 51.6664 30.1493 51.4715 30.3791 51.4715C30.6089 51.4715 30.7857 51.6664 30.7857 51.9145C30.7857 52.1626 30.6089 52.3575 30.3791 52.3575Z" fill="#2BBAA0"/>
<path opacity="0.58" d="M40.1547 24.7296C40.1547 24.3574 39.8718 24.0562 39.5183 24.0562C39.1647 24.0562 38.8819 24.3574 38.8819 24.7296C38.8819 25.084 39.1471 25.3676 39.4653 25.403V28.4866L37.6445 30.5246L37.6268 30.5423V33.7676C37.2909 33.7853 37.0435 34.0866 37.0435 34.441C37.0435 34.8132 37.3263 35.1145 37.6798 35.1145C38.0334 35.1145 38.3162 34.8132 38.3162 34.441C38.3162 34.0866 38.0511 33.8031 37.7329 33.7676V30.5777L39.5537 28.5397L39.5713 28.522V25.403C39.8895 25.3853 40.1547 25.084 40.1547 24.7296ZM38.1041 34.4233C38.1041 34.6714 37.9273 34.8664 37.6975 34.8664C37.4677 34.8664 37.2909 34.6714 37.2909 34.4233C37.2909 34.1752 37.4677 33.9803 37.6975 33.9803C37.9273 33.9803 38.1041 34.1929 38.1041 34.4233ZM39.5183 25.1726C39.2885 25.1726 39.1117 24.9777 39.1117 24.7296C39.1117 24.4815 39.2885 24.2865 39.5183 24.2865C39.7481 24.2865 39.9249 24.4815 39.9249 24.7296C39.9249 24.9777 39.7481 25.1726 39.5183 25.1726Z" fill="#2BBAA0"/>
<path opacity="0.58" d="M43.1418 22.7624L43.1241 27.9548C42.7883 27.9725 42.5408 28.2738 42.5408 28.6282C42.5408 29.0004 42.8236 29.3017 43.1772 29.3017C43.5307 29.3017 43.8135 29.0004 43.8135 28.6282C43.8135 28.2738 43.5484 27.9903 43.2302 27.9548V22.8155L45.0863 20.8839V15.7092C45.4222 15.6914 45.6697 15.3902 45.6697 15.0357C45.6697 14.6636 45.3868 14.3623 45.0333 14.3623C44.6797 14.3623 44.3969 14.6636 44.3969 15.0357C44.3969 15.3902 44.6621 15.6737 44.9803 15.7092V20.8484L43.1418 22.7624ZM43.5837 28.6282C43.5837 28.8764 43.407 29.0713 43.1772 29.0713C42.9474 29.0713 42.7706 28.8764 42.7706 28.6282C42.7706 28.3801 42.9474 28.1852 43.1772 28.1852C43.407 28.1852 43.5837 28.3979 43.5837 28.6282ZM44.609 15.0357C44.609 14.7876 44.7858 14.5927 45.0156 14.5927C45.2454 14.5927 45.4222 14.7876 45.4222 15.0357C45.4222 15.2838 45.2454 15.4788 45.0156 15.4788C44.8035 15.4788 44.609 15.2838 44.609 15.0357Z" fill="#2BBAA0"/>
<path opacity="0.58" d="M54.1374 24.0562C53.7838 24.0562 53.501 24.3574 53.501 24.7296C53.501 25.1017 53.7838 25.403 54.1374 25.403C54.4732 25.403 54.7384 25.1195 54.7737 24.7827H57.7082C57.6905 24.7473 57.6728 24.7119 57.6728 24.6941H54.7737C54.7384 24.3397 54.4732 24.0562 54.1374 24.0562ZM54.1374 25.1726C53.9076 25.1726 53.7308 24.9777 53.7308 24.7296C53.7308 24.4815 53.9076 24.2865 54.1374 24.2865C54.3672 24.2865 54.5439 24.4815 54.5439 24.7296C54.5439 24.9777 54.3672 25.1726 54.1374 25.1726Z" fill="#2BBAA0"/>
<path opacity="0.58" d="M49.2938 15.0357C49.2938 14.6636 49.0109 14.3623 48.6574 14.3623C48.3038 14.3623 48.021 14.6636 48.021 15.0357C48.021 15.3902 48.2862 15.6914 48.622 15.7092C48.622 16.2585 48.622 18.7573 48.622 20.2105C48.2862 20.2282 48.0387 20.5294 48.0387 20.8839C48.0387 21.256 48.3215 21.5573 48.6751 21.5573C49.0286 21.5573 49.3114 21.256 49.3114 20.8839C49.3114 20.5294 49.0463 20.2459 48.7281 20.2105C48.7281 19.8915 48.7281 18.9345 48.7281 17.9598C48.7281 16.4889 48.7281 15.9218 48.7281 15.7092C49.0286 15.6737 49.2938 15.3902 49.2938 15.0357ZM49.0816 20.8662C49.0816 21.1143 48.9049 21.3092 48.6751 21.3092C48.4452 21.3092 48.2685 21.1143 48.2685 20.8662C48.2685 20.6181 48.4452 20.4231 48.6751 20.4231C48.8872 20.4231 49.0816 20.6181 49.0816 20.8662ZM48.6574 15.4788C48.4276 15.4788 48.2508 15.2838 48.2508 15.0357C48.2508 14.7876 48.4276 14.5927 48.6574 14.5927C48.8872 14.5927 49.064 14.7876 49.064 15.0357C49.064 15.2838 48.8872 15.4788 48.6574 15.4788Z" fill="#2BBAA0"/>
<path opacity="0.58" d="M50.4427 15.7092V20.2105C50.1069 20.2282 49.8594 20.5294 49.8594 20.8839C49.8594 21.256 50.1422 21.5573 50.4958 21.5573C50.8493 21.5573 51.1321 21.256 51.1321 20.8839C51.1321 20.5294 50.867 20.2459 50.5488 20.2105V15.7092C50.6195 15.7092 50.6902 15.6914 50.7432 15.656C50.6725 15.6028 50.6018 15.5319 50.5134 15.4788H50.4958C50.3013 15.4788 50.1422 15.337 50.1069 15.1421C50.0361 15.0889 49.9478 15.018 49.8771 14.9648C49.8771 14.9826 49.8771 15.018 49.8771 15.0357C49.8594 15.3902 50.1245 15.6737 50.4427 15.7092ZM50.9023 20.8662C50.9023 21.1143 50.7256 21.3092 50.4958 21.3092C50.266 21.3092 50.0892 21.1143 50.0892 20.8662C50.0892 20.6181 50.266 20.4231 50.4958 20.4231C50.7079 20.4231 50.9023 20.6181 50.9023 20.8662Z" fill="#2BBAA0"/>
<path opacity="0.58" d="M52.9351 20.8126C52.9175 20.4582 52.6346 20.1924 52.2987 20.1924C51.9452 20.1924 51.6624 20.4936 51.6624 20.8658C51.6624 21.238 51.9452 21.5392 52.2987 21.5392C52.6346 21.5392 52.8998 21.2557 52.9351 20.919H54.1725V19.0936C54.1372 19.0582 54.1195 19.0227 54.0842 18.9873V20.8126H52.9351ZM52.3164 21.3088C52.0866 21.3088 51.9098 21.1139 51.9098 20.8658C51.9098 20.6177 52.0866 20.4228 52.3164 20.4228C52.5462 20.4228 52.723 20.6177 52.723 20.8658C52.723 21.1139 52.5285 21.3088 52.3164 21.3088Z" fill="#2BBAA0"/>
<path opacity="0.58" d="M13.939 44.8259C14.2925 44.8259 14.5754 44.5246 14.5754 44.1524C14.5754 43.7803 14.2925 43.479 13.939 43.479C13.6031 43.479 13.3379 43.7626 13.3026 44.0993H11.2874C11.305 44.1347 11.305 44.1702 11.3227 44.1879H13.3026C13.3379 44.56 13.6031 44.8259 13.939 44.8259ZM13.939 43.7271C14.1688 43.7271 14.3455 43.922 14.3455 44.1702C14.3455 44.4183 14.1688 44.6132 13.939 44.6132C13.7092 44.6132 13.5324 44.4183 13.5324 44.1702C13.5324 43.922 13.7092 43.7271 13.939 43.7271Z" fill="#2BBAA0"/>
<path opacity="0.58" d="M13.9566 46.758C14.3102 46.758 14.593 46.4567 14.593 46.0846C14.593 45.7124 14.3102 45.4111 13.9566 45.4111C13.6207 45.4111 13.3556 45.6947 13.3202 46.0314H12.1182C12.1358 46.0668 12.1535 46.1023 12.1712 46.12H13.3379C13.3379 46.4922 13.6207 46.758 13.9566 46.758ZM13.9566 45.6592C14.1864 45.6592 14.3632 45.8542 14.3632 46.1023C14.3632 46.3504 14.1864 46.5453 13.9566 46.5453C13.7268 46.5453 13.55 46.3504 13.55 46.1023C13.5324 45.8542 13.7268 45.6592 13.9566 45.6592Z" fill="#2BBAA0"/>
<path opacity="0.58" d="M15.7594 51.4716C15.9892 51.4716 16.166 51.6665 16.166 51.9146C16.166 51.9678 16.166 52.0032 16.1483 52.0564C16.2013 52.1096 16.2544 52.1805 16.3074 52.2336C16.3604 52.145 16.3781 52.0387 16.3781 51.9146C16.3781 51.5425 16.0953 51.2412 15.7417 51.2412C15.6533 51.2412 15.5649 51.2589 15.4766 51.2944C15.5296 51.3653 15.5826 51.4184 15.6357 51.4893C15.6887 51.4716 15.724 51.4716 15.7594 51.4716Z" fill="#2BBAA0"/>
<path opacity="0.58" d="M23.0607 20.1929C22.7072 20.1929 22.4243 20.4941 22.4243 20.8663C22.4243 21.2384 22.7072 21.5397 23.0607 21.5397C23.3966 21.5397 23.6617 21.2562 23.6971 20.9195H26.1012C26.1189 21.2739 26.4017 21.5397 26.7376 21.5397C27.0912 21.5397 27.374 21.2384 27.374 20.8663C27.374 20.4941 27.0912 20.1929 26.7376 20.1929C26.4017 20.1929 26.1366 20.4764 26.1012 20.8131H23.6971C23.6617 20.4764 23.3789 20.1929 23.0607 20.1929ZM23.0607 21.3093C22.8309 21.3093 22.6541 21.1144 22.6541 20.8663C22.6541 20.6182 22.8309 20.4233 23.0607 20.4233C23.2905 20.4233 23.4673 20.6182 23.4673 20.8663C23.4673 21.1144 23.2728 21.3093 23.0607 21.3093ZM26.7199 20.4233C26.9497 20.4233 27.1265 20.6182 27.1265 20.8663C27.1265 21.1144 26.9497 21.3093 26.7199 21.3093C26.4901 21.3093 26.3133 21.1144 26.3133 20.8663C26.3133 20.6182 26.4901 20.4233 26.7199 20.4233Z" fill="#2BBAA0"/>
<path opacity="0.58" d="M34.003 13.0865V16.3118C33.6672 16.3296 33.4197 16.6308 33.4197 16.9853C33.4197 17.3574 33.7025 17.6587 34.0561 17.6587C34.4096 17.6587 34.6925 17.3574 34.6925 16.9853C34.6925 16.6308 34.4273 16.3473 34.1091 16.3118V13.1219L37.0082 10.0207C36.9728 10.0207 36.9375 10.0207 36.8844 10.0029L34.003 13.0865ZM34.4626 16.9675C34.4626 17.2156 34.2859 17.4106 34.0561 17.4106C33.8263 17.4106 33.6495 17.2156 33.6495 16.9675C33.6495 16.7194 33.8263 16.5245 34.0561 16.5245C34.2859 16.5245 34.4626 16.7372 34.4626 16.9675Z" fill="#2BBAA0"/>
<path opacity="0.58" d="M30.3965 16.2939C30.0607 16.2939 29.7955 16.5775 29.7602 16.9142H27.356C27.3383 16.5598 27.0555 16.2939 26.7196 16.2939C26.3661 16.2939 26.0833 16.5952 26.0833 16.9674C26.0833 17.3395 26.3661 17.6408 26.7196 17.6408C27.0555 17.6408 27.3207 17.3572 27.356 17.0205H29.7602C29.7778 17.375 30.0607 17.6408 30.3965 17.6408C30.7501 17.6408 31.0329 17.3395 31.0329 16.9674C31.0152 16.5952 30.7324 16.2939 30.3965 16.2939ZM26.7196 17.4104C26.4898 17.4104 26.3131 17.2155 26.3131 16.9674C26.3131 16.7193 26.4898 16.5243 26.7196 16.5243C26.9494 16.5243 27.1262 16.7193 27.1262 16.9674C27.1262 17.2155 26.9494 17.4104 26.7196 17.4104ZM30.3965 17.4104C30.1667 17.4104 29.99 17.2155 29.99 16.9674C29.99 16.7193 30.1667 16.5243 30.3965 16.5243C30.6263 16.5243 30.8031 16.7193 30.8031 16.9674C30.8031 17.2155 30.6263 17.4104 30.3965 17.4104Z" fill="#2BBAA0"/>
<path opacity="0.58" d="M15.7599 50.6564C16.1134 50.6564 16.3963 50.3552 16.3963 49.983C16.3963 49.6108 16.1134 49.3096 15.7599 49.3096C15.424 49.3096 15.1589 49.5931 15.1235 49.9298H14.4341C14.4518 49.9653 14.4871 50.0007 14.5048 50.0184H15.1235C15.1589 50.3906 15.424 50.6564 15.7599 50.6564ZM15.7599 49.5577C15.9897 49.5577 16.1665 49.7526 16.1665 50.0007C16.1665 50.2488 15.9897 50.4438 15.7599 50.4438C15.5301 50.4438 15.3533 50.2488 15.3533 50.0007C15.3533 49.7526 15.5301 49.5577 15.7599 49.5577Z" fill="#2BBAA0"/>
<path opacity="0.58" d="M18.8005 22.7981C18.8005 23.1703 19.0834 23.4715 19.4369 23.4715C19.7905 23.4715 20.0733 23.1703 20.0733 22.7981C20.0733 22.4437 19.8081 22.1601 19.49 22.1247V19.5905C19.8258 19.5728 20.0733 19.2715 20.0733 18.9171C20.0733 18.5449 19.7905 18.2437 19.4369 18.2437C19.0834 18.2437 18.8005 18.5449 18.8005 18.9171C18.8005 19.2715 19.0657 19.5551 19.3839 19.5905V22.1247C19.048 22.1601 18.8005 22.4437 18.8005 22.7981ZM19.0127 18.9348C19.0127 18.6867 19.1894 18.4918 19.4192 18.4918C19.6491 18.4918 19.8258 18.6867 19.8258 18.9348C19.8258 19.1829 19.6491 19.3778 19.4192 19.3778C19.2071 19.3601 19.0127 19.1652 19.0127 18.9348ZM19.4192 22.3728C19.6491 22.3728 19.8258 22.5677 19.8258 22.8158C19.8258 23.0639 19.6491 23.2589 19.4192 23.2589C19.1894 23.2589 19.0127 23.0639 19.0127 22.8158C19.0127 22.5677 19.2071 22.3728 19.4192 22.3728Z" fill="#2BBAA0"/>
<path opacity="0.58" d="M17.5271 23.4714V27.3878L13.8856 31.2512V37.6664C13.5497 37.6841 13.3022 37.9854 13.3022 38.3398C13.3022 38.712 13.5851 39.0133 13.9386 39.0133C14.2922 39.0133 14.575 38.712 14.575 38.3398C14.575 37.9854 14.3099 37.7019 13.9917 37.6664V31.2866L17.6332 27.4233V23.4714C17.9691 23.4536 18.2166 23.1524 18.2166 22.7979C18.2166 22.4258 17.9337 22.1245 17.5802 22.1245C17.2266 22.1245 16.9438 22.4258 16.9438 22.7979C16.9438 23.1524 17.209 23.4359 17.5271 23.4714ZM14.3452 38.3221C14.3452 38.5702 14.1684 38.7652 13.9386 38.7652C13.7088 38.7652 13.5321 38.5702 13.5321 38.3221C13.5321 38.074 13.7088 37.8791 13.9386 37.8791C14.1684 37.8968 14.3452 38.0917 14.3452 38.3221ZM17.5802 22.3726C17.81 22.3726 17.9868 22.5676 17.9868 22.8157C17.9868 23.0638 17.81 23.2587 17.5802 23.2587C17.3504 23.2587 17.1736 23.0638 17.1736 22.8157C17.1736 22.5676 17.3504 22.3726 17.5802 22.3726Z" fill="#2BBAA0"/>
</g>
</g>
<path d="M45.7229 36.7973H50.4781C51.0261 36.7973 51.5211 36.5669 51.8923 36.2125C52.2458 35.858 52.4756 35.3441 52.4756 34.7947C52.4756 33.696 51.5918 32.7922 50.4781 32.7922H45.7229V31.9061C45.7229 30.7896 45.4577 29.7263 45.0158 28.7871H50.4781C51.0261 28.7871 51.5211 28.5567 51.8923 28.2023C52.2458 27.8478 52.4756 27.3339 52.4756 26.7845C52.4756 25.6858 51.5918 24.782 50.4781 24.782H37.9271C37.9802 24.02 38.0509 23.3465 38.1393 22.7972C38.3337 21.5921 39.3236 20.6883 40.5611 20.582C40.5964 20.582 40.6141 20.582 40.6494 20.582C40.7025 20.582 40.7378 20.582 40.7732 20.582C40.9853 20.5642 41.1798 20.5642 41.3742 20.5465C41.604 20.5288 41.8162 20.5288 42.0283 20.5111C42.5233 20.4756 42.8945 20.387 43.2304 20.263C43.9905 19.9794 44.4147 19.4478 44.4854 18.7035C44.5738 17.8705 44.2556 17.2326 43.5309 16.825C43.0713 16.5591 42.5409 16.4528 41.9222 16.506C41.7985 16.5237 41.6747 16.5414 41.5333 16.5591C40.2605 16.7718 39.0762 17.3389 37.8387 18.349C35.7705 20.0149 34.4977 22.1415 34.0911 24.6757C34.0911 24.7111 34.0734 24.7465 34.0734 24.782H20.6033C20.0553 24.782 19.5603 25.0124 19.1891 25.3668C18.8355 25.7212 18.6057 26.2352 18.6057 26.7845C18.6057 27.8833 19.4896 28.7871 20.6033 28.7871H26.5075C26.0479 29.7263 25.8004 30.7896 25.8004 31.9061V32.7922H20.6209C20.0729 32.7922 19.578 33.0226 19.2067 33.377C18.8532 33.7314 18.6234 34.2454 18.6234 34.7947C18.6234 35.8935 19.5073 36.7973 20.6209 36.7973H25.8004V37.6834C25.8004 38.7998 26.0656 39.8631 26.5075 40.8024H20.6033C20.0553 40.8024 19.5603 41.0328 19.1891 41.3872C18.8178 41.7416 18.6057 42.2555 18.6057 42.8049C18.6057 43.9037 19.4896 44.8075 20.6033 44.8075H33.5254C33.5078 45.4277 33.4547 46.1366 33.331 46.81C33.0835 48.2277 32.0052 49.4151 30.5733 49.8404C30.1137 49.9822 29.7071 50.0708 29.5127 50.1062C29.3005 50.1417 29.0884 50.1949 28.894 50.2303C28.346 50.3366 27.8156 50.4252 27.3384 50.6202C26.7904 50.8328 26.4015 51.2936 26.26 51.8607C26.1186 52.4455 26.2777 53.0658 26.6843 53.5265C27.2323 54.1291 27.904 54.3594 28.8409 54.2886C28.947 54.2708 29.0707 54.2708 29.1768 54.2531C30.8031 53.9873 32.288 53.2784 33.5608 52.1265C35.5583 50.3189 36.7781 47.9974 37.3261 44.9847C37.3438 44.9315 37.3438 44.8606 37.3614 44.8075H50.4604C51.0084 44.8075 51.5034 44.5771 51.8746 44.2227C52.2282 43.8682 52.458 43.3543 52.458 42.8049C52.458 41.7062 51.5741 40.8024 50.4604 40.8024H44.9981C45.4577 39.8631 45.7052 38.7998 45.7052 37.6834V36.7973H45.7229ZM37.9625 28.8225C40.0484 28.8225 41.7454 30.5238 41.7454 32.615V32.8099H37.6796C37.6973 31.4808 37.715 30.1162 37.7504 28.8225H37.9625ZM29.7955 32.615C29.7955 30.5238 31.4925 28.8225 33.5785 28.8225H33.9144C33.879 30.0276 33.8436 31.3922 33.8083 32.8099H29.8132V32.615H29.7955ZM29.7955 37.0099V36.815H33.7022C33.6669 38.2505 33.6492 39.615 33.6138 40.8024H33.5785C31.4749 40.8024 29.7955 39.1011 29.7955 37.0099ZM37.662 40.8024C37.662 40.6606 37.662 40.5188 37.662 40.3771C37.662 40.0049 37.662 39.4378 37.662 38.7112C37.662 38.1441 37.662 37.5061 37.662 36.815H41.7454V37.0099C41.7454 39.1011 40.0484 40.8024 37.9625 40.8024H37.662Z" fill="#F3F3F3"/>
<path opacity="0.03" d="M65.5569 19.6076C57.991 5.57206 41.4449 -1.74698 25.5706 2.89609C9.6786 7.55689 -0.309143 22.6557 0.839889 38.5698C8.12298 31.0913 18.0047 22.9393 30.3435 19.3241C42.6823 15.7089 55.3924 17.2506 65.5569 19.6076Z" fill="#E9E9E9"/>
<defs>
<linearGradient id="paint0_linear_286_234" x1="82.6841" y1="-3.81678" x2="79.7392" y2="72.8378" gradientUnits="userSpaceOnUse">
<stop stop-color="#D591FF"/>
<stop offset="0.4792" stop-color="#919CFF"/>
<stop offset="0.947" stop-color="#91EBFF"/>
</linearGradient>
<linearGradient id="paint1_linear_286_234" x1="35.0357" y1="-0.286628" x2="35.0357" y2="60.763" gradientUnits="userSpaceOnUse">
<stop stop-color="#4A4A4A"/>
<stop offset="1"/>
</linearGradient>
<linearGradient id="paint2_linear_286_234" x1="35.0358" y1="10.4371" x2="35.0358" y2="106.271" gradientUnits="userSpaceOnUse">
<stop stop-color="#080808"/>
<stop offset="1"/>
</linearGradient>
<radialGradient id="paint3_radial_286_234" cx="0" cy="0" r="1" gradientUnits="userSpaceOnUse" gradientTransform="translate(42.9145 7.05869) rotate(102.967) scale(50.5826 51.1016)">
<stop offset="0.00697311" stop-color="white"/>
<stop offset="1" stop-opacity="0"/>
</radialGradient>
<linearGradient id="paint4_linear_286_234" x1="35.0355" y1="37.5814" x2="35.0355" y2="-16.7971" gradientUnits="userSpaceOnUse">
<stop/>
<stop offset="1"/>
</linearGradient>
<linearGradient id="paint5_linear_286_234" x1="35.0357" y1="62.5155" x2="35.0357" y2="1.00196" gradientUnits="userSpaceOnUse">
<stop stop-color="#080808"/>
<stop offset="1"/>
</linearGradient>
<linearGradient id="paint6_linear_286_234" x1="35.0361" y1="8.80594" x2="35.0361" y2="76.9661" gradientUnits="userSpaceOnUse">
<stop stop-color="#141414"/>
<stop offset="1"/>
</linearGradient>
</defs>
</svg>
