<svg width="112" height="118" viewBox="0 0 112 118" fill="none" xmlns="http://www.w3.org/2000/svg">
<g filter="url(#filter0_d_2_4827)">
<rect x="27.2773" y="15.4285" width="73.9055" height="73.8073" rx="4" fill="url(#paint0_linear_2_4827)" fill-opacity="0.15" shape-rendering="crispEdges"/>
</g>
<g filter="url(#filter1_df_2_4827)">
<path d="M19.8512 13.2154C10.0155 19.3804 7.04639 32.3403 13.2206 42.1624C19.3949 51.9845 32.369 54.9492 42.2047 48.7842C52.0404 42.6192 55.0095 29.6593 48.8353 19.8372C42.661 10.0156 29.6869 7.05092 19.8512 13.2154Z" fill="url(#paint1_radial_2_4827)"/>
</g>
<path d="M85.5 71H103.819L111 79.2L85.5 118L60 79.2L79.6248 71.6864L85.5 71Z" fill="url(#paint2_linear_2_4827)"/>
<path d="M85.2033 118L75 87H95L85.2033 118Z" fill="url(#paint3_linear_2_4827)"/>
<path d="M95.3328 87.0001L111 79.1969L85.5 40.0001L60 79.1969L75.2592 87.0001H95.3328Z" fill="url(#paint4_linear_2_4827)"/>
<path d="M85.2033 40.0001L95 87.0001H75L85.2033 40.0001Z" fill="url(#paint5_linear_2_4827)"/>
<path d="M60.0795 33.5C60.0795 32.1193 46.8543 31 30.5402 31C14.2262 31 1.00098 32.1193 1.00098 33.5" stroke="url(#paint6_linear_2_4827)" stroke-width="1.5" stroke-linecap="round"/>
<defs>
<filter id="filter0_d_2_4827" x="17.2773" y="9.42847" width="93.9053" height="93.8073" filterUnits="userSpaceOnUse" color-interpolation-filters="sRGB">
<feFlood flood-opacity="0" result="BackgroundImageFix"/>
<feColorMatrix in="SourceAlpha" type="matrix" values="0 0 0 0 0 0 0 0 0 0 0 0 0 0 0 0 0 0 127 0" result="hardAlpha"/>
<feOffset dy="4"/>
<feGaussianBlur stdDeviation="5"/>
<feComposite in2="hardAlpha" operator="out"/>
<feColorMatrix type="matrix" values="0 0 0 0 0 0 0 0 0 0 0 0 0 0 0 0 0 0 0.5 0"/>
<feBlend mode="normal" in2="BackgroundImageFix" result="effect1_dropShadow_2_4827"/>
<feBlend mode="normal" in="SourceGraphic" in2="effect1_dropShadow_2_4827" result="shape"/>
</filter>
<filter id="filter1_df_2_4827" x="0" y="0" width="62.0557" height="68" filterUnits="userSpaceOnUse" color-interpolation-filters="sRGB">
<feFlood flood-opacity="0" result="BackgroundImageFix"/>
<feColorMatrix in="SourceAlpha" type="matrix" values="0 0 0 0 0 0 0 0 0 0 0 0 0 0 0 0 0 0 127 0" result="hardAlpha"/>
<feOffset dy="6"/>
<feGaussianBlur stdDeviation="5"/>
<feComposite in2="hardAlpha" operator="out"/>
<feColorMatrix type="matrix" values="0 0 0 0 0 0 0 0 0 0 0 0 0 0 0 0 0 0 0.5 0"/>
<feBlend mode="normal" in2="BackgroundImageFix" result="effect1_dropShadow_2_4827"/>
<feBlend mode="normal" in="SourceGraphic" in2="effect1_dropShadow_2_4827" result="shape"/>
<feGaussianBlur stdDeviation="5" result="effect2_foregroundBlur_2_4827"/>
</filter>
<linearGradient id="paint0_linear_2_4827" x1="105.248" y1="126.139" x2="-14.6244" y2="-58.5245" gradientUnits="userSpaceOnUse">
<stop stop-color="white" stop-opacity="0"/>
<stop offset="1" stop-color="white" stop-opacity="0.9"/>
</linearGradient>
<radialGradient id="paint1_radial_2_4827" cx="0" cy="0" r="1" gradientUnits="userSpaceOnUse" gradientTransform="translate(17.9439 49.2) rotate(-58.1573) scale(47.1303 47.1582)">
<stop stop-color="#CF89E5"/>
<stop offset="0.734375" stop-color="#92D9F1"/>
<stop offset="0.991368" stop-color="#89A7FE"/>
</radialGradient>
<linearGradient id="paint2_linear_2_4827" x1="85.4999" y1="70.9906" x2="85.4999" y2="130.597" gradientUnits="userSpaceOnUse">
<stop stop-color="#36D1DC"/>
<stop offset="1" stop-color="#5B86E5"/>
</linearGradient>
<linearGradient id="paint3_linear_2_4827" x1="85.0001" y1="131.674" x2="85.0001" y2="87.0143" gradientUnits="userSpaceOnUse">
<stop stop-color="#17DAB0"/>
<stop offset="1" stop-color="#58E1FF"/>
</linearGradient>
<linearGradient id="paint4_linear_2_4827" x1="85.4999" y1="102.964" x2="85.4999" y2="27.4077" gradientUnits="userSpaceOnUse">
<stop stop-color="#5B86E5"/>
<stop offset="1" stop-color="#36D1DC"/>
</linearGradient>
<linearGradient id="paint5_linear_2_4827" x1="85.0003" y1="19.6759" x2="85.0003" y2="79.2808" gradientUnits="userSpaceOnUse">
<stop stop-color="#5B86E5"/>
<stop offset="1" stop-color="#36D1DC"/>
</linearGradient>
<linearGradient id="paint6_linear_2_4827" x1="-7.51033" y1="34" x2="94.6246" y2="28.4854" gradientUnits="userSpaceOnUse">
<stop stop-color="#44B4DF"/>
<stop offset="0.489583" stop-color="white" stop-opacity="0.557292"/>
<stop offset="1" stop-color="#44B4DF" stop-opacity="0"/>
</linearGradient>
</defs>
</svg>
