<?xml version="1.0" standalone="no"?>
<!DOCTYPE svg PUBLIC "-//W3C//DTD SVG 1.1//EN" "http://www.w3.org/Graphics/SVG/1.1/DTD/svg11.dtd" >
<svg xmlns="http://www.w3.org/2000/svg" xmlns:xlink="http://www.w3.org/1999/xlink" version="1.1">
<metadata>
Created by FontForge 20170731 at Wed Nov  7 09:40:40 2018
 By Aleksey,,,
Copyright (c) 2018 by Sofia Mohr. All rights reserved.
</metadata>
<defs>
<font id="MohrRounded-Black" horiz-adv-x="640" >
  <font-face 
    font-family="MohrRounded-Black"
    font-weight="400"
    font-stretch="normal"
    units-per-em="1000"
    panose-1="0 0 10 0 0 0 0 0 0 0"
    ascent="775"
    descent="-225"
    x-height="518"
    cap-height="728"
    bbox="-569 -564 1382.15 1067"
    underline-thickness="50"
    underline-position="-200"
    unicode-range="U+0020-FB02"
  />
<missing-glyph horiz-adv-x="530" 
d="M50 730h430v-730h-430v730zM115 695l150 -287l150 287h-300zM243 365l-153 292v-584zM288 365l152 -292v584zM265 322l-150 -287h300z" />
    <glyph glyph-name="fi" unicode="fi" horiz-adv-x="694" 
d="M560 511q41 0 63.5 -23t22.5 -63v-322q0 -51 -28.5 -80.5t-80.5 -29.5q-53 0 -81.5 29.5t-28.5 80.5v235h-100v-235q0 -51 -28.5 -80.5t-80.5 -29.5t-81 29.5t-29 80.5l-1 235h-2q-40 0 -63 23.5t-23 63.5t23 63t63 23h3q22 259 299 259q134 0 196 -59q29 -27 29 -61
q0 -36 -20.5 -55.5t-51.5 -19.5q-28 0 -70 16t-81 16q-72 0 -81 -96h232z" />
    <glyph glyph-name="fl" unicode="fl" horiz-adv-x="697" 
d="M538 756q52 0 80.5 -29.5t28.5 -80.5v-543q0 -51 -28.5 -80.5t-80.5 -29.5q-53 0 -81.5 29.5t-28.5 80.5v502q-22 13 -40 13q-60 0 -60 -84v-23q34 -3 53 -25.5t19 -60.5t-19 -61t-53 -26l-1 -235q0 -51 -28.5 -80.5t-80.5 -29.5t-81 29.5t-29 80.5l-1 235h-1
q-40 0 -63.5 23.5t-23.5 63.5t23.5 63t62.5 23h1v27q-1 112 62.5 172t164.5 60q81 0 127 -41q29 27 78 27z" />
    <glyph glyph-name="f_f" unicode="ff" horiz-adv-x="777" 
d="M680 599q-21 0 -33 -14.5t-11 -41.5l3 -32h39q40 0 63.5 -22.5t23.5 -63.5t-23.5 -64t-63.5 -23h-28l-1 -235q0 -51 -28 -80.5t-80 -29.5q-53 0 -82 29.5t-29 80.5l-1 235h-101l-1 -236q0 -50 -29.5 -79.5t-79.5 -29.5t-80 29.5t-30 79.5l-1 236q-40 0 -64 23t-24 64
t23.5 63.5t63.5 22.5v27q-1 112 62.5 172t164.5 60q44 0 90 -12.5t72 -34.5q56 47 152 47q94 0 135 -39q25 -26 25 -66q0 -36 -19 -56.5t-47 -20.5q-16 0 -32.5 5.5t-28.5 5.5zM429 511v56q0 23 3 42q-31 9 -44 9q-60 0 -60 -84v-23h101z" />
    <glyph glyph-name="f_f_i" unicode="ffi" horiz-adv-x="1014" 
d="M879 511q42 0 64.5 -23t22.5 -63v-322q0 -51 -28.5 -80.5t-80.5 -29.5q-53 0 -81.5 29.5t-28.5 80.5v235h-100v-235q0 -51 -28.5 -80.5t-80.5 -29.5q-53 0 -81.5 29.5t-28.5 80.5l-1 235h-100v-235q0 -51 -28.5 -80.5t-80.5 -29.5q-53 0 -81.5 29.5t-28.5 80.5l-1 235h-2
q-40 0 -63 23.5t-23 63.5t23 63t63 23h2q2 133 71 196t189 63t173 -44q71 44 187 44q133 0 195 -59q29 -26 29 -61q0 -36 -20.5 -55.5t-50.5 -19.5q-28 0 -70 16t-82 16q-71 0 -80 -96h231zM327 511h101q4 56 21 100q-33 7 -50 7q-72 0 -72 -84v-23z" />
    <glyph glyph-name="f_f_l" unicode="ffl" horiz-adv-x="1014" 
d="M856 756q52 0 80.5 -29.5t28.5 -80.5v-543q0 -51 -28.5 -80.5t-80.5 -29.5q-53 0 -81.5 29.5t-28.5 80.5v502q-22 13 -40 13q-61 0 -61 -84v-23q35 -3 54 -25.5t19 -60.5t-19 -61t-54 -26v-235q0 -51 -28.5 -80.5t-80.5 -29.5q-53 0 -81.5 29.5t-28.5 80.5l-1 235h-98
v-235q0 -51 -28.5 -80.5t-80.5 -29.5q-53 0 -81.5 29.5t-28.5 80.5l-1 235h-2q-40 0 -63 23.5t-23 63.5t23 63t63 23h2v27q0 112 62.5 172t163.5 60q112 0 164 -50q61 50 154 50q81 0 127 -41q29 27 78 27zM424 511v27q0 43 8 71q-31 9 -44 9q-61 0 -61 -84v-23h97z" />
    <glyph glyph-name="f_t" unicode="ft" horiz-adv-x="802" 
d="M723 179q26 0 43.5 -21t17.5 -56q0 -42 -23 -70q-41 -48 -132 -48q-99 0 -149 58t-50 154v142h-100l-1 -235q0 -51 -28 -80.5t-80 -29.5q-53 0 -82 29.5t-29 80.5l-1 235h-6q-40 0 -64 23t-24 64t23.5 63.5t64.5 22.5h6v49q0 95 54 152.5t157 57.5q64 0 103 -31
q37 -27 37 -74q0 -33 -16 -55t-45 -22q-13 0 -28.5 4.5t-25.5 4.5q-18 0 -28 -12.5t-7 -35.5l6 -38h126q1 1 1 2q11 52 40.5 84t73.5 32q93 0 93 -101v-17h36q40 0 63.5 -23t23.5 -63t-23.5 -63.5t-63.5 -23.5h-36v-111q0 -57 30 -57q7 0 20 4.5t23 4.5z" />
    <glyph glyph-name="t_t" unicode="tt" horiz-adv-x="798" 
d="M719 179q26 0 43.5 -21t17.5 -56q0 -42 -23 -70q-41 -48 -134 -48q-100 0 -150 58t-50 154v142h-104v-148q0 -35 19 -35q4 0 12.5 2t14.5 2q20 0 32.5 -19.5t12.5 -43.5q0 -42 -25 -70q-36 -42 -106 -42q-180 0 -180 222v132q-38 1 -61 24.5t-23 62.5q0 40 23.5 63
t63.5 23h9q1 1 1 2q11 52 40.5 84t73.5 32q93 0 93 -101v-17h116q1 1 1 2q11 52 40.5 84t73.5 32q93 0 93 -101v-17h39q40 0 63 -23t23 -63t-23 -63.5t-63 -23.5h-39v-111q0 -57 31 -57q8 0 21.5 4.5t23.5 4.5z" />
    <glyph glyph-name=".notdef" horiz-adv-x="530" 
d="M50 730h430v-730h-430v730zM115 695l150 -287l150 287h-300zM243 365l-153 292v-584zM288 365l152 -292v584zM265 322l-150 -287h300z" />
    <glyph glyph-name=".null" horiz-adv-x="0" 
 />
    <glyph glyph-name="nonmarkingreturn" horiz-adv-x="333" 
 />
    <glyph glyph-name="space" unicode=" " horiz-adv-x="223" 
 />
    <glyph glyph-name="exclam" unicode="!" horiz-adv-x="340" 
d="M169 266q-101 0 -104 118l-5 208q-2 65 26.5 100.5t83.5 35.5t83 -36t26 -100l-5 -209q-4 -117 -105 -117zM170 -15q-59 0 -92.5 30.5t-33.5 82.5q0 48 34.5 80t91.5 32t91 -31.5t34 -80.5q0 -52 -33 -82.5t-92 -30.5z" />
    <glyph glyph-name="quotedbl" unicode="&#x22;" horiz-adv-x="494" 
d="M127 410q-66 0 -74 70l-15 159q-4 40 19.5 67t68.5 27q49 0 71 -26t19 -68l-14 -160q-5 -69 -75 -69zM366 410q-66 0 -74 70l-15 159q-3 41 20 67.5t68 26.5q49 0 71 -26t19 -68l-14 -160q-5 -69 -75 -69z" />
    <glyph glyph-name="numbersign" unicode="#" horiz-adv-x="832" 
d="M716 405h-41l-24 -93q36 -1 60.5 -23t24.5 -62q0 -41 -25 -64.5t-62 -23.5h-43l-21 -80q-16 -66 -85 -66q-49 0 -72.5 32t-12.5 77l10 37h-133l-21 -80q-17 -66 -86 -66q-49 0 -73 32.5t-12 77.5l9 36q-34 2 -56 25t-22 61q0 37 24.5 62t61.5 25h37l24 93
q-35 2 -57.5 24.5t-22.5 61.5q0 37 24.5 62t61.5 25h38l22 84q16 66 87 66q47 0 71 -33.5t13 -77.5l-10 -39h133l22 84q16 66 86 66q46 0 71 -32.5t13 -77.5l-10 -40q36 -2 59.5 -24t23.5 -62q0 -37 -25 -62t-62 -25zM469 312l24 93h-133l-24 -93h133z" />
    <glyph glyph-name="dollar" unicode="$" horiz-adv-x="572" 
d="M536 251q0 -64 -44 -108.5t-132 -57.5v-41q0 -29 -21 -50.5t-51 -21.5t-51.5 21.5t-21.5 50.5v41q-88 10 -136 41q-45 30 -45 77q0 32 19.5 51.5t51.5 19.5q25 0 74 -23t82 -23q50 0 50 24q0 5 -2 9.5t-6.5 8t-9.5 6t-13.5 5.5t-15 4.5t-18 4.5t-19.5 5q-86 22 -133 62.5
t-47 109.5q0 61 44 103.5t124 55.5v47q0 29 21.5 50.5t51.5 21.5t51 -21.5t21 -50.5v-46q73 -12 115 -38q46 -29 46 -71q0 -33 -23.5 -53.5t-60.5 -16.5q-16 1 -59.5 16.5t-69.5 15.5q-42 0 -42 -22q0 -14 14 -20.5t49 -14.5q3 0 4.5 -0.5t4.5 -1t5 -1.5q33 -8 51.5 -13
t49.5 -18.5t48 -29.5t30.5 -44t13.5 -64z" />
    <glyph glyph-name="percent" unicode="%" horiz-adv-x="954" 
d="M360 27q-20 -34 -60 -34q-30 0 -50.5 20.5t-20.5 50.5q0 19 10 37l365 593q20 34 60 34q29 0 50 -20.5t21 -50.5q0 -19 -11 -37zM214 367q-82 0 -135 50t-53 126t51.5 126.5t136.5 50.5q83 0 135.5 -50t52.5 -127q0 -74 -52.5 -125t-135.5 -51zM214 490q21 0 32 15t11 38
q0 54 -43 54q-42 0 -42 -54q0 -53 42 -53zM741 -14q-83 0 -136 50t-53 126t52 126.5t137 50.5q82 0 134.5 -50.5t52.5 -126.5q0 -74 -52 -125t-135 -51zM741 109q21 0 31.5 15t10.5 38q0 54 -42 54q-43 0 -43 -54q0 -53 43 -53z" />
    <glyph glyph-name="ampersand" unicode="&#x26;" horiz-adv-x="730" 
d="M670 128q26 -29 26 -59q0 -38 -24.5 -61t-64.5 -23q-33 0 -73 40l-9 9q-87 -49 -210 -49q-132 0 -207.5 58t-75.5 157q0 118 132 193q-44 67 -44 157q0 83 65 134t178 51q98 0 162 -50.5t64 -127.5q0 -71 -43.5 -114.5t-121.5 -81.5l87 -82q1 8 1 26q0 41 22 64.5
t63 23.5t63.5 -23.5t22.5 -64.5q0 -86 -38 -154zM361 594q-58 0 -58 -55q0 -28 28 -72q43 18 63.5 35t20.5 41t-15.5 37.5t-38.5 13.5zM338 132q36 0 71 12l-140 134q-34 -28 -34 -67q0 -79 103 -79z" />
    <glyph glyph-name="quotesingle" unicode="'" horiz-adv-x="255" 
d="M127 410q-66 0 -74 70l-15 159q-4 40 19.5 67t68.5 27q49 0 71 -26t19 -68l-14 -160q-5 -69 -75 -69z" />
    <glyph glyph-name="parenleft" unicode="(" horiz-adv-x="370" 
d="M37 300q0 252 114 422q29 44 81 44q42 0 71.5 -24t29.5 -67q0 -22 -12 -46q-81 -162 -81 -324q0 -171 89 -361q12 -29 12 -47q0 -38 -28.5 -64.5t-77.5 -26.5q-31 0 -49 12t-34 37q-115 189 -115 445z" />
    <glyph glyph-name="parenright" unicode=")" horiz-adv-x="370" 
d="M136 -194q-49 0 -78 26.5t-29 64.5q0 18 12 47q89 190 89 361q0 162 -81 324q-12 29 -12 46q0 43 29.5 67t71.5 24q52 0 81 -44q114 -170 114 -422q0 -256 -115 -445q-16 -25 -34 -37t-48 -12z" />
    <glyph glyph-name="asterisk" unicode="*" horiz-adv-x="436" 
d="M101 351q-40 28 -14 81l28 42q-15 6 -44 19q-51 28 -34 75q15 46 69 38q21 -4 50 -12q0 26 3 50q9 56 59 56q48 0 59 -54q3 -24 3 -52q25 8 54 13q54 8 68 -37q14 -43 -29 -71q-27 -16 -52 -25q11 -15 23 -34q35 -57 -9 -89q-44 -34 -92 22q-5 6 -14.5 18t-11.5 14
q-10 -14 -30 -38q-44 -47 -86 -16z" />
    <glyph glyph-name="plus" unicode="+" horiz-adv-x="537" 
d="M350 509v-68h74q37 0 59.5 -22t22.5 -59t-22.5 -59.5t-59.5 -22.5h-74v-68q0 -36 -22 -58.5t-59 -22.5t-59.5 22.5t-22.5 58.5v68h-74q-37 0 -59 22.5t-22 59.5t22 59t59 22h74v68q0 37 22.5 59.5t59.5 22.5t59 -22.5t22 -59.5z" />
    <glyph glyph-name="comma" unicode="," horiz-adv-x="250" 
d="M102 -210q-44 0 -63.5 25.5t-15.5 65.5q8 57 11 143q1 38 25 63.5t66 25.5q46 0 71 -29.5t20 -72.5q-9 -92 -37 -168q-19 -53 -77 -53z" />
    <glyph glyph-name="hyphen" unicode="-" horiz-adv-x="462" 
d="M334 174h-205q-38 0 -62.5 22.5t-24.5 64.5t24.5 64.5t62.5 22.5h205q37 0 61.5 -22.5t24.5 -64.5t-24.5 -64.5t-61.5 -22.5z" />
    <glyph glyph-name="period" unicode="." horiz-adv-x="318" 
d="M159 -18q-59 0 -92.5 30.5t-33.5 81.5q0 49 34.5 81t91.5 32t91 -32t34 -81q0 -51 -33 -81.5t-92 -30.5z" />
    <glyph glyph-name="slash" unicode="/" horiz-adv-x="484" 
d="M105 -215q-45 0 -68.5 29t-10.5 71l290 822q16 49 66 49q45 0 66.5 -31t8.5 -76l-288 -815q-16 -49 -64 -49z" />
    <glyph glyph-name="zero" unicode="0" horiz-adv-x="784" 
d="M394 -15q-153 0 -253.5 98.5t-100.5 275.5q0 171 102 273.5t250 102.5q147 0 250 -102.5t103 -273.5q0 -177 -100 -275.5t-251 -98.5zM392 184q55 0 89.5 42t34.5 133q0 93 -35.5 135t-88.5 42t-88 -42t-35 -135q0 -92 34 -133.5t89 -41.5z" />
    <glyph glyph-name="one" unicode="1" horiz-adv-x="454" 
d="M165 468l-27 -10q-18 -4 -31 -4q-45 0 -71.5 28.5t-26.5 71.5q0 69 65 93l170 61q33 12 62 12q36 0 58 -21.5t22 -65.5v-529q0 -51 -29 -81t-81 -30q-53 0 -82 30t-29 81v364z" />
    <glyph glyph-name="two" unicode="2" horiz-adv-x="658" 
d="M592 495q0 -144 -201 -316v-2h133q48 0 75 -24.5t27 -67.5q0 -44 -26.5 -68t-75.5 -24h-387q-49 0 -73 25t-24 63q0 16 4 29.5t8 22.5t16.5 22t18 18t24.5 20.5t25 20.5q216 161 216 252q0 32 -15.5 49t-54.5 17q-35 -1 -84 -24.5t-76 -23.5q-39 0 -62.5 27t-23.5 65
q0 52 51 92q86 68 232 68q138 0 205.5 -66t67.5 -175z" />
    <glyph glyph-name="three" unicode="3" horiz-adv-x="620" 
d="M299 -15q-127 0 -197 43q-60 32 -60 95q0 39 23.5 65.5t61.5 26.5q25 0 63.5 -14.5t65.5 -15.5q77 0 77 52t-86 52h-61q-35 0 -56 20t-21 54t21.5 55t55.5 21h66q30 0 48.5 13t18.5 37q0 47 -63 47q-24 -1 -65 -15.5t-63 -14.5q-39 0 -62.5 26.5t-23.5 65.5q0 61 59 95
q73 43 200 43q120 0 190.5 -53.5t70.5 -146.5q0 -52 -31 -97.5t-82 -67.5v-2q59 -16 94 -64.5t35 -110.5q0 -101 -75 -155t-204 -54z" />
    <glyph glyph-name="four" unicode="4" horiz-adv-x="661" 
d="M654 206q0 -41 -23 -65.5t-63 -25.5v-12q0 -50 -30 -80t-81 -30t-81.5 30t-30.5 80v12h-228q-56 0 -83 29.5t-24 70.5t27 86l207 378q33 56 84 56q44 0 77 -27t33 -69q0 -29 -18 -58l-164 -284h102l1 9q31 116 111 116q98 0 98 -125q40 -1 63 -26t23 -65z" />
    <glyph glyph-name="five" unicode="5" horiz-adv-x="633" 
d="M257 317q-30 0 -69.5 -7.5t-62.5 -7.5q-73 0 -64 88l21 204q8 82 39.5 108t113.5 26h247q42 0 66.5 -25.5t24.5 -68.5q0 -42 -24.5 -66.5t-65.5 -24.5h-207l-10 -84q26 6 75 6q107 0 179 -56.5t72 -168.5q0 -123 -83 -189t-216 -66q-137 0 -208 50q-48 34 -48 88
q0 39 23.5 65.5t61.5 26.5q25 0 68 -15t68 -15q95 0 95 73q0 59 -96 59z" />
    <glyph glyph-name="six" unicode="6" horiz-adv-x="667" 
d="M421 489q-44 0 -78 -12h-2l68 104q22 35 22 62q0 41 -30 66.5t-76 25.5q-29 0 -51 -10t-32.5 -21t-25.5 -31l-87 -135q-45 -74 -68 -139t-23 -143q0 -116 79.5 -193t222.5 -77q142 0 222.5 79.5t80.5 188.5q0 110 -64 172.5t-158 62.5zM339 346q41 0 64.5 -26.5
t23.5 -65.5q0 -43 -21.5 -72t-65.5 -29q-42 0 -64 27t-22 73q-1 47 24 70t61 23z" />
    <glyph glyph-name="seven" unicode="7" horiz-adv-x="580" 
d="M232 -10q-51 0 -80 28t-29 68q0 24 10 48l175 390l-198 -1q-47 0 -73.5 27t-26.5 75q0 49 27 76t74 27h343q51 0 79.5 -29t28.5 -81q0 -33 -15 -65l-213 -483q-17 -42 -38 -61t-64 -19z" />
    <glyph glyph-name="eight" unicode="8" horiz-adv-x="689" 
d="M345 -15q-140 0 -223.5 59t-83.5 163q0 65 37.5 111.5t98.5 67.5v2q-46 20 -75.5 61.5t-29.5 95.5q0 88 74.5 139t201.5 51q125 0 200.5 -50.5t75.5 -139.5q0 -53 -29 -94t-77 -63v-2q61 -20 98 -65.5t37 -114.5q0 -103 -82.5 -162t-222.5 -59zM344 465q34 0 49.5 20
t15.5 47q0 25 -15 44t-49 19q-66 0 -64 -64q0 -66 63 -66zM344 141q37 0 57 23.5t20 58.5q0 40 -20 61.5t-56 21.5q-34 0 -55.5 -20.5t-20.5 -62.5q0 -40 19.5 -61t55.5 -21z" />
    <glyph glyph-name="nine" unicode="9" horiz-adv-x="667" 
d="M246 232q44 0 78 12h2l-68 -104q-22 -35 -22 -62q0 -41 29.5 -66.5t76.5 -25.5q42 0 65 15.5t44 46.5l87 135q45 74 68 139t23 143q0 116 -79.5 193t-223.5 77q-142 0 -222 -79.5t-80 -188.5q0 -110 64 -172.5t158 -62.5zM327 375q-41 0 -64 26.5t-23 65.5q0 43 21.5 72
t64.5 29q42 0 64.5 -27t22.5 -73q1 -47 -24 -70t-62 -23z" />
    <glyph glyph-name="colon" unicode=":" horiz-adv-x="340" 
d="M170 294q-59 0 -92.5 31t-33.5 83q0 48 34.5 80.5t91.5 32.5q58 0 92 -32t34 -81q0 -52 -33.5 -83t-92.5 -31zM170 -19q-58 0 -92 31t-34 82q0 49 34.5 81t91.5 32q58 0 92 -32t34 -81q0 -51 -33.5 -82t-92.5 -31z" />
    <glyph glyph-name="semicolon" unicode=";" horiz-adv-x="329" 
d="M165 295q-59 0 -92.5 30.5t-33.5 82.5q0 48 34.5 80.5t91.5 32.5q58 0 92 -32t34 -81q0 -52 -33.5 -82.5t-92.5 -30.5zM139 -209q-44 0 -64 26t-15 64q7 60 10 143q2 38 26 63.5t65 25.5q45 0 70.5 -30t21.5 -72q-11 -95 -38 -168q-19 -52 -76 -52z" />
    <glyph glyph-name="less" unicode="&#x3c;" horiz-adv-x="513" 
d="M379 122q-20 0 -31 5l-207 83q-100 40 -100 148q0 61 24.5 94.5t75.5 54.5l207 83q13 6 30 6q35 0 58.5 -23.5t23.5 -59.5q0 -56 -55 -77l-208 -76v-2l208 -77q55 -21 55 -78q0 -36 -23.5 -58.5t-57.5 -22.5z" />
    <glyph glyph-name="equal" unicode="=" horiz-adv-x="536" 
d="M406 390h-276q-34 0 -54 20.5t-20 54.5q0 33 20 53t54 20h276q34 0 54 -20t20 -53q0 -34 -20 -54.5t-54 -20.5zM406 180h-276q-34 0 -54 20.5t-20 54.5q0 33 20 53t54 20h276q34 0 54 -20t20 -53q0 -34 -20 -54.5t-54 -20.5z" />
    <glyph glyph-name="greater" unicode="&#x3e;" horiz-adv-x="513" 
d="M134 122q-34 0 -57.5 22.5t-23.5 58.5q0 57 55 78l208 77v2l-208 76q-55 21 -55 77q0 36 23.5 59.5t58.5 23.5q17 0 30 -6l207 -83q51 -21 75.5 -54.5t24.5 -94.5q0 -108 -100 -148l-207 -83q-11 -5 -31 -5z" />
    <glyph glyph-name="question" unicode="?" horiz-adv-x="561" 
d="M532 556q0 -74 -48 -119.5t-113 -62.5v-29q0 -46 -28.5 -74t-79.5 -28q-52 0 -81.5 26.5t-29.5 66.5v33q0 58 72 90q59 25 71 39q10 11 10 25q0 18 -10.5 27.5t-39.5 9.5q-39 0 -79 -17.5t-65 -17.5q-39 0 -62.5 24t-23.5 62q0 51 62 86q73 38 172 38q137 0 205 -49
t68 -130zM262 -19q-58 0 -91.5 31t-33.5 82q0 49 34 81t91 32q58 0 92 -32t34 -81q0 -51 -33.5 -82t-92.5 -31z" />
    <glyph glyph-name="at" unicode="@" horiz-adv-x="1042" 
d="M544 737q97 0 175.5 -23.5t131.5 -63.5t88.5 -95.5t51.5 -118t16 -133.5q0 -133 -65.5 -204.5t-177.5 -71.5q-39 0 -71 9.5t-51 23.5t-28.5 24t-13.5 18h-2q-43 -69 -132 -69t-136.5 61t-47.5 163q0 97 47.5 157.5t132.5 60.5q46 0 82 -19.5t51 -59.5h2v4q1 74 75 74
q34 0 53 -19.5t19 -52.5v-164q0 -33 9.5 -45.5t31.5 -12.5q25 0 43 32t18 85q0 66 -14.5 116t-47.5 90.5t-93.5 62t-146.5 21.5q-164 0 -258 -89t-94 -244q0 -161 94 -242t257 -81q31 0 72 8t55 8q29 0 47 -18.5t18 -47.5q0 -48 -47 -74t-145 -26q-245 0 -378.5 126.5
t-133.5 346.5q0 210 140 346.5t373 136.5zM569 256q0 72 -52 72q-24 0 -37.5 -20t-13.5 -54t13.5 -54.5t38.5 -20.5q52 0 51 77z" />
    <glyph glyph-name="A" unicode="A" horiz-adv-x="709" 
d="M682 131q18 -53 -9.5 -95.5t-90.5 -42.5q-46 0 -69.5 22t-35.5 65l-10 34h-223l-10 -34q-11 -42 -34.5 -64.5t-69.5 -22.5q-63 0 -90.5 42.5t-10.5 95.5l158 460q25 71 62.5 104t105.5 33q69 0 105 -32.5t62 -105.5zM294 280h123l-61 203h-2z" />
    <glyph glyph-name="B" unicode="B" horiz-adv-x="685" 
d="M348 0h-168q-56 0 -85.5 30t-29.5 85v490q0 55 29.5 85t85.5 30l169 1q278 0 278 -203q0 -51 -25 -90.5t-73 -60.5v-2q122 -48 122 -166q0 -104 -73.5 -151.5t-229.5 -47.5zM273 560v-132h74q68 0 68 66t-71 66h-71zM272 299v-141h80q38 0 58.5 15t20.5 54q0 72 -77 72
h-82z" />
    <glyph glyph-name="C" unicode="C" horiz-adv-x="663" 
d="M429 -16q-178 0 -286 101t-108 274t108.5 274.5t285.5 101.5q98 0 156 -35q54 -33 54 -92q0 -40 -24 -66.5t-63 -26.5q-20 0 -55 9.5t-60 9.5q-75 0 -125 -45.5t-50 -129.5t49.5 -129t123.5 -45q28 0 63.5 9.5t56.5 9.5q37 0 60.5 -26.5t23.5 -65.5q0 -61 -57 -95
q-53 -33 -153 -33z" />
    <glyph glyph-name="D" unicode="D" horiz-adv-x="773" 
d="M349 -7h-169q-56 0 -85.5 29.5t-29.5 85.5v505q0 55 29.5 85t85.5 30h169q187 0 287 -98.5t100 -269.5t-100 -269t-287 -98zM284 538v-355h71q75 0 115 45t40 132q0 88 -41 133t-114 45h-71z" />
    <glyph glyph-name="E" unicode="E" horiz-adv-x="599" 
d="M477 -7h-297q-56 0 -85.5 29.5t-29.5 85.5v505q0 55 29.5 85t85.5 30h296q39 0 62 -23t23 -62t-23 -62t-62 -23h-192v-110h159q40 0 64.5 -23.5t24.5 -64.5t-24 -64.5t-64 -23.5h-160v-110h192q39 0 62 -23t23 -62t-22.5 -61.5t-61.5 -22.5z" />
    <glyph glyph-name="F" unicode="F" horiz-adv-x="586" 
d="M175 -7q-52 0 -81 29.5t-29 80.5v510q0 55 29.5 85t85.5 30h302q39 0 62 -24.5t23 -63.5q0 -40 -23 -63.5t-61 -23.5h-199v-135h166q40 0 64 -24t24 -64t-23.5 -64t-63.5 -24h-167v-139q0 -51 -28.5 -80.5t-80.5 -29.5z" />
    <glyph glyph-name="G" unicode="G" horiz-adv-x="712" 
d="M428 -16q-178 0 -285 100t-107 275t108.5 275.5t286.5 100.5q112 0 169 -35q55 -33 55 -92q0 -41 -24 -67.5t-62 -26.5q-17 0 -52.5 9t-67.5 11q-87 0 -136.5 -44.5t-49.5 -133.5q0 -88 48 -134.5t123 -46.5q24 0 45 6v104q0 45 25 71.5t71 26.5t71 -26.5t25 -71.5v-159
q0 -75 -61 -110q-58 -32 -182 -32z" />
    <glyph glyph-name="H" unicode="H" horiz-adv-x="799" 
d="M175 -7q-52 0 -81 29.5t-29 80.5v514q0 51 29 81t81 30t80.5 -30t28.5 -81v-153h230l1 153q0 51 29 81t81 30t80.5 -30t28.5 -81v-514q0 -51 -28.5 -80.5t-80.5 -29.5q-53 0 -81.5 29.5t-28.5 80.5v155h-231v-155q0 -51 -28.5 -80.5t-80.5 -29.5z" />
    <glyph glyph-name="I" unicode="I" horiz-adv-x="349" 
d="M175 -7q-52 0 -81 29.5t-29 80.5v514q0 51 29 81t81 30t80.5 -30t28.5 -81v-514q0 -51 -28.5 -80.5t-80.5 -29.5z" />
    <glyph glyph-name="J" unicode="J" horiz-adv-x="503" 
d="M199 -16q-86 0 -141 37q-49 34 -49 92q0 39 22.5 65t59.5 26q13 0 35.5 -6.5t43.5 -6.5q34 0 45 35.5t11 129.5v266q0 49 30 78.5t80 29.5t79.5 -29t29.5 -79v-279q0 -182 -54.5 -270.5t-191.5 -88.5z" />
    <glyph glyph-name="K" unicode="K" horiz-adv-x="723" 
d="M175 -7q-53 0 -81.5 29.5t-28.5 80.5v514q0 51 29 81t81 30t80 -30t28 -81v-153h78l118 206q16 31 37 44.5t58 13.5q46 0 78.5 -30.5t32.5 -74.5q0 -29 -12 -50l-130 -211l133 -212q13 -22 13 -50q0 -45 -34.5 -76t-80.5 -31q-36 0 -57.5 14t-39.5 46l-122 206h-72v-156
q0 -51 -28 -80.5t-80 -29.5z" />
    <glyph glyph-name="L" unicode="L" horiz-adv-x="545" 
d="M434 -7h-254q-56 0 -85.5 29.5t-29.5 85.5v511q0 50 30 79.5t80 29.5t79.5 -29.5t29.5 -79.5l1 -421h148q47 0 75 -27.5t28 -75.5t-27.5 -75t-74.5 -27z" />
    <glyph glyph-name="M" unicode="M" horiz-adv-x="957" 
d="M165 -7q-48 0 -74 27.5t-26 74.5v486q0 69 32.5 108t93.5 39q56 0 90 -28t65 -96l131 -298h2l131 298q30 68 63 96t86 28q65 0 99 -39t34 -108v-486q0 -47 -26 -74.5t-75 -27.5q-47 0 -73.5 27.5t-26.5 74.5v263h-2l-104 -246q-26 -64 -49 -91.5t-57 -27.5t-57 27t-50 91
l-104 247h-2v-263q0 -47 -26.5 -74.5t-74.5 -27.5z" />
    <glyph glyph-name="N" unicode="N" horiz-adv-x="790" 
d="M175 -7q-52 0 -81 29.5t-29 80.5v510q0 55 29 85t80 30q40 0 65.5 -22t73.5 -88l192 -262h2l-1 261q0 51 29 81t81 30t80.5 -30t28.5 -81v-509q0 -55 -29.5 -85t-81.5 -30q-43 0 -74.5 26t-84.5 98l-170 231h-2l1 -245q0 -51 -28.5 -80.5t-80.5 -29.5z" />
    <glyph glyph-name="O" unicode="O" horiz-adv-x="835" 
d="M419 -15q-178 0 -281 103t-103 271q0 164 104 270t278 106t278 -106t104 -270q0 -168 -101.5 -271t-278.5 -103zM417 181q71 0 113 46.5t42 131.5q0 87 -43 133t-112 46t-111.5 -46t-42.5 -133q0 -85 42.5 -131.5t111.5 -46.5z" />
    <glyph glyph-name="P" unicode="P" horiz-adv-x="674" 
d="M175 -7q-52 0 -81 29.5t-29 80.5v510q0 55 29.5 85t85.5 30h161q147 0 227.5 -70.5t80.5 -203.5t-80.5 -203.5t-225.5 -70.5h-59v-77q0 -51 -28.5 -80.5t-80.5 -29.5zM284 547v-186h53q100 0 100 93t-99 93h-54z" />
    <glyph glyph-name="Q" unicode="Q" horiz-adv-x="843" 
d="M655 -56q34 0 55 -24t22 -59q0 -57 -53 -90q-45 -30 -125 -30q-225 0 -236 255q-134 28 -208.5 125t-74.5 238q0 164 105 270t281 106q177 0 282 -106t105 -270q0 -141 -74 -238t-207 -126q1 -36 10.5 -52t33.5 -16q18 0 41.5 8.5t42.5 8.5zM262 359q0 -85 43.5 -131.5
t115.5 -46.5q74 0 117 46.5t43 131.5q-1 88 -44.5 133.5t-115.5 45.5q-71 0 -115 -45.5t-44 -133.5z" />
    <glyph glyph-name="R" unicode="R" horiz-adv-x="698" 
d="M175 -7q-52 0 -81 29.5t-29 80.5v511q0 56 29.5 85.5t85.5 29.5l169 -1q311 -2 311 -259q0 -132 -107 -215l69 -104q22 -33 22 -65q0 -36 -32 -64t-85 -28q-32 0 -53 15.5t-41 50.5l-89 151h-60v-107q0 -51 -28.5 -80.5t-80.5 -29.5zM284 553v-176h64q95 0 95 88t-101 88
h-58z" />
    <glyph glyph-name="S" unicode="S" horiz-adv-x="658" 
d="M624 221q0 -117 -78 -177.5t-219 -60.5q-139 0 -228 55q-63 39 -63 96q0 42 24.5 67.5t64.5 25.5q26 0 87 -27.5t104 -27.5q34 0 51.5 12.5t17.5 31.5q0 7 -3 13.5t-9.5 11.5t-13.5 9t-18.5 8t-20.5 6.5t-23.5 7t-23.5 7.5q-40 14 -64 23.5t-58.5 29.5t-53.5 42.5
t-33.5 59.5t-14.5 82q0 102 74 160.5t204 58.5q143 0 222 -52q48 -33 48 -81q0 -42 -23.5 -68t-64.5 -26q-33 0 -84 21t-81 21q-59 0 -59 -40q0 -13 12 -22.5t23.5 -14t37.5 -12.5q113 -35 150 -54q116 -59 116 -186z" />
    <glyph glyph-name="T" unicode="T" horiz-adv-x="679" 
d="M340 -7q-52 0 -81 29.5t-29 80.5l-1 420h-119q-47 0 -74.5 27.5t-27.5 74.5t27.5 75t74.5 28h459q47 0 74.5 -28t27.5 -75t-27 -74.5t-74 -27.5h-120l-1 -420q0 -51 -28.5 -80.5t-80.5 -29.5z" />
    <glyph glyph-name="U" unicode="U" horiz-adv-x="772" 
d="M386 -16q-164 0 -247.5 90.5t-83.5 265.5v277q0 51 29 81t82 30q52 0 80 -30t28 -81v-305q0 -132 112 -132q110 0 110 132v305q0 51 29 81t82 30q52 0 80 -30t28 -81v-277q0 -356 -329 -356z" />
    <glyph glyph-name="V" unicode="V" horiz-adv-x="734" 
d="M368 -7q-68 0 -105 33t-66 108l-170 456q-18 53 9.5 95.5t91.5 42.5q45 0 68 -22t35 -64l136 -418h2l132 418q13 42 36 64t68 22q64 0 91.5 -43t8.5 -95l-168 -456q-28 -75 -65 -108t-104 -33z" />
    <glyph glyph-name="W" unicode="W" horiz-adv-x="1041" 
d="M319 -7q-60 0 -89.5 32.5t-55.5 116.5l-145 454q-17 56 11.5 94t89.5 38q51 0 73.5 -23t35.5 -74l82 -333h2l76 316q15 62 45 88t82 26q47 0 75 -26.5t43 -87.5l76 -316h2l82 333q13 53 36 75t70 22q60 0 90.5 -38t12.5 -94l-143 -447q-26 -88 -56.5 -122t-90.5 -34
t-90.5 37t-50.5 118l-59 239h-2l-62 -241q-22 -80 -52 -116.5t-88 -36.5z" />
    <glyph glyph-name="X" unicode="X" horiz-adv-x="683" 
d="M130 -7q-44 0 -75.5 29.5t-31.5 67.5q0 27 16 49l176 231l-164 215q-16 22 -16 48q0 40 29.5 67.5t71.5 27.5q32 0 50.5 -15.5t53.5 -61.5l100 -135h2l98 135q23 29 34 42t30 23.5t41 10.5q42 0 72.5 -27t30.5 -67q0 -25 -16 -48l-164 -215l176 -231q16 -22 16 -49
q0 -38 -33 -67.5t-77 -29.5q-25 0 -44 15t-53 60l-111 148h-2l-112 -149q-34 -45 -52.5 -59.5t-45.5 -14.5z" />
    <glyph glyph-name="Y" unicode="Y" horiz-adv-x="657" 
d="M330 -7q-55 0 -85.5 31t-30.5 85v147l-172 304q-21 39 -21 74q0 41 28 67.5t77 26.5q38 0 59.5 -17.5t46.5 -68.5l96 -190h2l95 190q25 51 46.5 68.5t59.5 17.5q48 0 76 -26t28 -67q0 -37 -21 -74l-170 -305v-147q0 -54 -29.5 -85t-84.5 -31z" />
    <glyph glyph-name="Z" unicode="Z" horiz-adv-x="700" 
d="M577 -7h-447q-49 0 -77.5 30t-28.5 76q0 38 25 68l298 366h-209q-45 0 -72 25.5t-27 71.5t27 72t72 26h415q53 0 81 -30t28 -79q0 -42 -27 -72l-303 -360h245q45 0 72 -25.5t27 -71.5t-26.5 -71.5t-72.5 -25.5z" />
    <glyph glyph-name="bracketleft" unicode="[" horiz-adv-x="408" 
d="M285 -190h-106q-56 0 -86.5 30.5t-30.5 86.5v722q0 56 30.5 86.5t86.5 30.5h106q48 0 76 -26t28 -75q0 -48 -28 -75t-76 -27h-32v-550h32q48 0 76 -27t28 -75q0 -49 -28 -75t-76 -26z" />
    <glyph glyph-name="backslash" unicode="\" horiz-adv-x="484" 
d="M379 -215q-48 0 -64 49l-288 815q-13 45 8.5 76t66.5 31q50 0 66 -49l290 -822q13 -42 -10.5 -71t-68.5 -29z" />
    <glyph glyph-name="bracketright" unicode="]" horiz-adv-x="409" 
d="M230 -190h-106q-48 0 -76 26t-28 75q0 48 28 75t76 27h32v550h-32q-48 0 -76 27t-28 75q0 49 28 75t76 26h106q56 0 86.5 -30.5t30.5 -86.5v-722q0 -56 -30.5 -86.5t-86.5 -30.5z" />
    <glyph glyph-name="asciicircum" unicode="^" horiz-adv-x="561" 
d="M49 421l83 206q20 50 54.5 75.5t93.5 25.5q61 0 94.5 -24.5t54.5 -76.5l83 -206q5 -15 5 -31q0 -34 -23 -58t-59 -24q-56 0 -77 56l-77 207h-2l-77 -207q-19 -56 -77 -56q-36 0 -59 24t-23 58q0 18 6 31z" />
    <glyph glyph-name="underscore" unicode="_" horiz-adv-x="608" 
d="M493 -189h-378q-37 0 -62 22.5t-25 63.5q0 42 24.5 64.5t62.5 22.5h378q38 0 62.5 -22.5t24.5 -64.5q0 -41 -24.5 -63.5t-62.5 -22.5z" />
    <glyph glyph-name="grave" unicode="`" horiz-adv-x="600" 
d="M284 770l64 -81q24 -26 24 -62q0 -33 -23 -55.5t-57 -22.5q-26 0 -57 24l-83 70q-39 32 -39 79q0 38 25.5 65.5t65.5 27.5q45 0 80 -45z" />
    <glyph glyph-name="a" unicode="a" horiz-adv-x="618" 
d="M195 -16q-83 0 -128 40t-45 115q0 82 57 123t144 41q71 0 122 -26q0 45 -25.5 60t-74.5 15q-25 0 -69 -8q-25 -5 -42 -5q-32 0 -50 20t-18 54q0 61 71 90q59 23 147 23q65 0 113 -17t75.5 -42.5t44.5 -63.5t22.5 -73t5.5 -78v-39q0 -25 5 -34t17 -17q37 -24 37 -73
q0 -48 -33 -76.5t-84 -28.5q-32 0 -57 10.5t-38.5 25.5t-19.5 26t-8 18h-2q-61 -80 -167 -80zM272 124q26 0 47.5 18t25.5 45q-27 17 -61 17q-26 0 -42.5 -11.5t-16.5 -30.5q0 -38 47 -38z" />
    <glyph glyph-name="b" unicode="b" horiz-adv-x="641" 
d="M392 -16q-53 0 -98 23.5t-64 70.5h-2v-6q-2 -36 -24 -57.5t-65 -21.5q-42 0 -65.5 23.5t-23.5 64.5v565q0 51 29 80.5t82 29.5q52 0 80.5 -29.5t28.5 -80.5v-164h2q14 19 49.5 31.5t71.5 12.5q102 0 160 -77t58 -190q0 -114 -58.5 -194.5t-160.5 -80.5zM322 167
q30 0 47 24t17 64q0 41 -16.5 64.5t-46.5 23.5q-64 0 -64 -87q-1 -89 63 -89z" />
    <glyph glyph-name="c" unicode="c" horiz-adv-x="519" 
d="M312 -16q-137 0 -210 75t-73 195q0 127 79.5 199.5t207.5 72.5q88 0 134 -31q45 -29 45 -81q0 -32 -20 -54.5t-53 -22.5q-19 0 -44.5 9t-48.5 9q-41 0 -65.5 -28.5t-24.5 -71.5q0 -44 24.5 -72t65.5 -28q23 0 48.5 9t44.5 9q33 0 53 -22.5t20 -55.5q0 -53 -47 -81
q-50 -30 -136 -30z" />
    <glyph glyph-name="d" unicode="d" horiz-adv-x="668" 
d="M259 -16q-108 0 -168 75t-60 198q0 121 59.5 195t164.5 74q37 0 68.5 -12.5t45.5 -30.5h2l1 163q0 51 28.5 80.5t81.5 29.5q52 0 80.5 -29.5t28.5 -80.5v-427q0 -41 22 -56q37 -27 37 -73t-32.5 -76t-88.5 -30q-32 0 -56.5 10.5t-37 26t-18 25.5t-7.5 18h-2
q-47 -80 -149 -80zM319 166q64 0 63 89q0 88 -63 88q-30 0 -47 -23.5t-17 -64.5t17 -65t47 -24z" />
    <glyph glyph-name="e" unicode="e" horiz-adv-x="581" 
d="M331 -16q-148 0 -225 73.5t-77 200.5q0 118 76.5 193t196.5 75q124 0 187 -64t63 -161q0 -46 -21 -67t-75 -21h-217q0 -59 104 -59q24 0 60.5 8t55.5 8q33 0 53 -21t20 -54q0 -52 -48 -81q-52 -30 -153 -30zM233 306h130v9q0 25 -16 41t-46 16q-29 0 -48.5 -18.5
t-19.5 -47.5z" />
    <glyph glyph-name="f" unicode="f" horiz-adv-x="457" 
d="M360 599q-21 0 -33 -15t-10 -41l3 -32h38q41 0 64.5 -22.5t23.5 -63.5t-24 -64t-64 -23h-28l-1 -235q0 -51 -28 -80.5t-80 -29.5q-53 0 -82 29.5t-29 80.5l-1 235h-6q-40 0 -64 23t-24 64t23.5 63.5t64.5 22.5h6v56q0 93 56.5 148t161.5 55q94 0 135 -39q25 -26 25 -66
q0 -36 -19 -56.5t-47 -20.5q-16 0 -32.5 5.5t-28.5 5.5z" />
    <glyph glyph-name="g" unicode="g" 
d="M292 -237q-128 0 -184 46q-38 29 -38 75q0 36 22.5 58.5t60.5 22.5q25 0 63 -14.5t69 -14.5q46 0 73 22t27 64v24h-2q-14 -19 -47.5 -32t-69.5 -13q-111 0 -173 71t-62 186q0 121 59.5 194.5t165.5 73.5q49 0 91.5 -23.5t62.5 -67.5h2v6q2 34 26 55.5t64 21.5
q42 0 65 -24t23 -65v-356q0 -145 -71.5 -227.5t-226.5 -82.5zM319 168q64 0 64 90q0 86 -64 86q-30 0 -47 -24t-17 -64q0 -41 17 -64.5t47 -23.5z" />
    <glyph glyph-name="h" unicode="h" horiz-adv-x="641" 
d="M160 -7q-53 0 -81.5 29.5t-28.5 80.5v543q0 51 28.5 80.5t81.5 29.5q52 0 80.5 -29.5t28.5 -80.5l1 -165h2q14 19 51 32t73 13q101 0 151.5 -64t50.5 -204v-155q0 -51 -28 -80.5t-80 -29.5q-53 0 -82 29.5t-29 80.5v161q0 77 -51 77q-29 0 -44 -21.5t-14 -54.5l-1 -162
q0 -51 -28.5 -80.5t-80.5 -29.5z" />
    <glyph glyph-name="i" unicode="i" horiz-adv-x="315" 
d="M158 581q-56 0 -90.5 32t-34.5 87t34.5 86.5t90.5 31.5t89.5 -31.5t33.5 -86.5t-33.5 -87t-89.5 -32zM158 -7q-53 0 -81.5 29.5t-28.5 80.5v304q0 51 29 81t81 30t80.5 -30t28.5 -81v-304q0 -51 -28.5 -80.5t-80.5 -29.5z" />
    <glyph glyph-name="j" unicode="j" horiz-adv-x="328" 
d="M168 581q-56 0 -90.5 32t-34.5 87t34.5 86.5t90.5 31.5t90 -31.5t34 -86.5t-33.5 -87t-90.5 -32zM66 -230q-81 0 -125 39q-37 31 -37 79q0 34 20 56.5t53 22.5q10 0 26 -4.5t24 -4.5q20 0 25.5 17.5t5.5 56.5v375q0 51 28.5 81t80.5 30q53 0 82 -30t29 -81v-385
q0 -50 -9.5 -91.5t-31.5 -79.5t-65.5 -59.5t-105.5 -21.5z" />
    <glyph glyph-name="k" unicode="k" horiz-adv-x="602" 
d="M160 -7q-53 0 -82 30t-29 82l1 541q0 51 29 80.5t82 29.5q52 0 80.5 -29.5t28.5 -80.5v-306h36l64 113q16 33 36 49t59 16q44 0 73 -29.5t29 -69.5q0 -23 -11 -43l-72 -120l75 -113q13 -19 13 -49q0 -41 -30 -71t-75 -30q-41 0 -61.5 16.5t-37.5 51.5l-66 111h-32v-67
q0 -52 -28.5 -82t-81.5 -30z" />
    <glyph glyph-name="l" unicode="l" horiz-adv-x="319" 
d="M160 -7q-53 0 -81.5 29.5t-28.5 80.5v543q0 51 28.5 80.5t81.5 29.5q52 0 80.5 -29.5t28.5 -80.5v-543q0 -51 -28.5 -80.5t-80.5 -29.5z" />
    <glyph glyph-name="m" unicode="m" horiz-adv-x="955" 
d="M159 -7q-53 0 -82 29.5t-29 80.5v327q0 40 23.5 64t65.5 24q40 0 63.5 -22t25.5 -59v-7h2q18 45 63.5 70.5t99.5 25.5t98 -25t62 -71h2q21 47 67 71.5t99 24.5q193 0 193 -268v-155q0 -51 -28 -80.5t-80 -29.5q-53 0 -82 29.5t-29 80.5v153q0 76 -49 76q-54 0 -54 -75
v-154q0 -51 -28 -80.5t-80 -29.5q-53 0 -82 29.5t-29 80.5v153q0 76 -47 76q-29 0 -42.5 -20.5t-12.5 -54.5l-1 -154q0 -51 -28.5 -80.5t-80.5 -29.5z" />
    <glyph glyph-name="n" unicode="n" 
d="M159 -7q-53 0 -82 29.5t-29 80.5v327q0 40 23.5 64t65.5 24q41 0 64.5 -21.5t24.5 -59.5v-7h2q18 46 66 71t101 25q101 0 151.5 -64t50.5 -204v-155q0 -51 -28.5 -80.5t-80.5 -29.5q-53 0 -81.5 29.5t-28.5 80.5v153q0 77 -51 77q-29 0 -44 -21.5t-14 -54.5l-1 -154
q0 -51 -28.5 -80.5t-80.5 -29.5z" />
    <glyph glyph-name="o" unicode="o" horiz-adv-x="632" 
d="M317 -16q-133 0 -210.5 73.5t-77.5 196.5q0 125 77.5 198.5t209.5 73.5q131 0 209 -73.5t78 -198.5q0 -123 -76.5 -196.5t-209.5 -73.5zM316 166q34 0 52.5 23.5t18.5 65.5q0 41 -19 65t-53 24q-70 0 -69 -90q0 -44 19 -66t51 -22z" />
    <glyph glyph-name="p" unicode="p" horiz-adv-x="641" 
d="M160 -216q-53 0 -82 30t-29 81l2 536q0 40 23.5 63.5t65.5 23.5q40 0 63.5 -19.5t25.5 -54.5v-6h2q21 43 63.5 65.5t90.5 22.5q110 0 167.5 -76t57.5 -191q0 -120 -58 -197.5t-164 -77.5q-36 0 -69.5 12t-48.5 31h-2v-132q0 -51 -28 -81t-80 -30zM322 166q30 0 46.5 23.5
t16.5 64.5t-17 65t-47 24q-63 0 -63 -89q0 -88 64 -88z" />
    <glyph glyph-name="q" unicode="q" horiz-adv-x="641" 
d="M481 -216q-52 0 -80.5 30t-28.5 81v131h-2q-14 -18 -47.5 -30t-70.5 -12q-105 0 -163 77.5t-58 197.5q0 115 58 191t167 76q50 0 91.5 -22.5t61.5 -65.5h2v4q3 34 27 55t63 21q42 0 65 -24t23 -64l2 -535q0 -51 -29 -81t-81 -30zM319 166q63 0 63 88q1 89 -63 89
q-30 0 -47 -24t-17 -65t17 -64.5t47 -23.5z" />
    <glyph glyph-name="r" unicode="r" horiz-adv-x="450" 
d="M159 -7q-53 0 -82 29.5t-29 80.5v327q0 40 23.5 64t65.5 24q40 0 63.5 -19.5t25.5 -54.5v-6h2q41 88 129 88q42 0 65 -25.5t23 -61.5q0 -38 -23.5 -65.5t-68.5 -27.5q-85 0 -85 -106v-137q0 -51 -28.5 -80.5t-80.5 -29.5z" />
    <glyph glyph-name="s" unicode="s" horiz-adv-x="545" 
d="M273 -16q-130 0 -200 45q-45 29 -45 76q0 32 19 51.5t51 19.5q25 0 71.5 -22.5t76.5 -22.5q43 0 43 23q0 15 -15.5 22t-48.5 15q-9 2 -14 3q-83 23 -127 62.5t-44 107.5q0 73 62.5 117.5t171.5 44.5q117 0 183 -43q45 -27 45 -70q0 -34 -22.5 -54t-58.5 -16
q-16 1 -57.5 16.5t-66.5 15.5q-38 0 -38 -21q0 -14 13 -20t47 -14q6 -1 9 -2q31 -7 49 -12t48.5 -18.5t47 -29t30 -43.5t13.5 -63q0 -76 -62 -122t-181 -46z" />
    <glyph glyph-name="t" unicode="t" horiz-adv-x="473" 
d="M394 179q26 0 44 -21t18 -56q0 -43 -24 -70q-41 -48 -133 -48q-100 0 -150 58t-50 154v142q-39 1 -61.5 24.5t-22.5 62.5q0 40 23 63t63 23h10q1 1 1 2q11 52 40.5 84t73.5 32q93 0 93 -101v-17h38q40 0 63.5 -23t23.5 -63t-23.5 -63.5t-63.5 -23.5h-38v-111
q0 -57 31 -57q8 0 21.5 4.5t22.5 4.5z" />
    <glyph glyph-name="u" unicode="u" 
d="M245 -16q-101 0 -151.5 64t-50.5 204v155q0 51 29 81t81 30t80.5 -30t28.5 -81v-153q0 -77 51 -77q29 0 44 21t15 55l1 154q0 51 29 81t81 30t80.5 -30t28.5 -81v-326q0 -41 -23.5 -64.5t-65.5 -23.5q-40 0 -64 22t-26 58v7h-2q-18 -46 -65.5 -71t-100.5 -25z" />
    <glyph glyph-name="v" unicode="v" horiz-adv-x="586" 
d="M299 -7h-9q-67 0 -104 37t-68 126l-89 225q-22 56 9.5 96.5t96.5 40.5q40 0 58.5 -24t33.5 -80l66 -215h2l65 215q15 58 37.5 81t67.5 23q61 0 87 -40t5 -97l-88 -223q-34 -92 -70 -128.5t-100 -36.5z" />
    <glyph glyph-name="w" unicode="w" horiz-adv-x="834" 
d="M251 -7h-8q-61 0 -93 35.5t-52 108.5l-69 255q-15 58 11 92t85 34q70 0 90 -96l46 -208h2l41 191q11 59 38 86t76 27h6q46 -1 70 -27.5t36 -84.5l41 -192h2l46 208q10 49 31.5 72.5t67.5 23.5q52 0 76.5 -34.5t9.5 -91.5l-69 -255q-20 -72 -52 -108t-92 -36h-7
q-105 0 -138 138l-28 115h-2l-29 -115q-31 -138 -136 -138z" />
    <glyph glyph-name="x" unicode="x" horiz-adv-x="572" 
d="M131 -7q-41 0 -72 27.5t-31 62.5q0 28 15 47l99 125l-97 126q-12 16 -12 44q0 38 31.5 65.5t71.5 27.5q22 0 38 -8t22.5 -16t24.5 -32l61 -85h2l56 78q2 3 7.5 10.5t7.5 10t7 9t8 8.5t8 7t8.5 6.5t9.5 4.5t11.5 4t12.5 2t15 1q40 0 71.5 -27.5t31.5 -65.5q0 -27 -11 -44
l-96 -126l97 -125q14 -18 14 -46q0 -36 -32 -63.5t-73 -27.5q-26 0 -43 12t-40 42l-68 86h-2l-67 -86q-24 -29 -41.5 -41.5t-44.5 -12.5z" />
    <glyph glyph-name="y" unicode="y" horiz-adv-x="573" 
d="M156 -230q-51 0 -83 19q-48 26 -48 84q0 35 20 56.5t54 21.5q5 0 10 -0.5t9 -0.5q27 0 41 11t22 35l-150 384q-20 53 9 95.5t89 42.5q46 0 66.5 -22t29.5 -62l65 -271h2l51 245q13 110 102 110q66 0 92.5 -40t4.5 -101l-133 -365q-50 -135 -108.5 -188.5t-144.5 -53.5z
" />
    <glyph glyph-name="z" unicode="z" horiz-adv-x="556" 
d="M440 -7h-322q-45 0 -68.5 25t-23.5 68q0 34 27 64l171 196h-100q-41 0 -64.5 22.5t-23.5 63.5t24 63.5t64 22.5h299q47 0 74 -24.5t27 -63.5q0 -38 -30 -69l-177 -196h123q40 0 64 -22.5t24 -63.5t-23.5 -63.5t-64.5 -22.5z" />
    <glyph glyph-name="braceleft" unicode="{" horiz-adv-x="429" 
d="M21 288q0 62 40 96l7 7t7 6.5t6 6t5.5 6.5t4.5 6.5t4 8t3 8.5t2.5 10t1 11.5t0.5 14.5v61q0 117 52 178t148 61q51 0 80 -22.5t29 -61.5q0 -16 -4 -28t-7.5 -19.5t-14 -14.5t-14.5 -9t-18.5 -7t-16.5 -6q-28 -9 -39 -33t-12 -80v-54q0 -37 -11 -66t-27 -43.5t-32 -23.5
t-27 -11l-12 -2v-2q4 0 11.5 -1.5t26.5 -10.5t33 -22.5t26 -42t12 -65.5v-59q1 -56 12 -79t39 -32q6 -2 20 -6.5t21 -8t16.5 -11t13.5 -20t4 -31.5q0 -43 -28.5 -67t-80.5 -24q-95 0 -147.5 62t-52.5 177v61q0 9 -0.5 17t-2.5 15t-2.5 11.5t-4.5 10.5t-5 8.5t-6.5 8.5
t-6.5 7t-8.5 8t-8.5 8q-36 36 -36 88z" />
    <glyph glyph-name="bar" unicode="|" horiz-adv-x="309" 
d="M63 -125v762q0 41 25 65.5t67 24.5q41 0 66 -24.5t25 -66.5v-761q0 -41 -25 -66t-66 -25q-42 0 -67 25t-25 66z" />
    <glyph glyph-name="braceright" unicode="}" horiz-adv-x="429" 
d="M408 288q0 -52 -36 -88q-1 -1 -8.5 -8t-8.5 -8t-6.5 -7t-6.5 -8.5t-5 -8.5t-4.5 -10.5t-2.5 -11.5t-2.5 -15t-0.5 -17v-61q0 -115 -52.5 -177t-147.5 -62q-52 0 -80.5 24t-28.5 67q0 19 4 31.5t13.5 20t16.5 11t21 8t20 6.5q28 9 39 32t12 79v59q0 37 11 65.5t27 42.5
t32.5 22.5t27.5 9.5l11 2v2q-4 1 -11.5 2.5t-26.5 11t-33.5 23.5t-26 43t-11.5 66v54q-1 56 -12 80t-39 33q-4 1 -14.5 5t-15 6t-13.5 7t-13.5 10t-9.5 13t-7 19t-2 24q0 39 29 61.5t80 22.5q96 0 148 -61t52 -178v-61q0 -9 1 -17.5t1.5 -14t4 -11.5t4 -9t6 -9t6.5 -7
t9 -8.5t9 -8.5q40 -34 40 -96z" />
    <glyph glyph-name="asciitilde" unicode="~" horiz-adv-x="601" 
d="M399 410q11 0 18 4.5t15 15.5t12 15q17 17 45 17q32 0 50.5 -24.5t18.5 -58.5q0 -47 -33 -84t-94 -37q-51 0 -118 24.5t-104 24.5q-8 0 -13.5 -1.5t-10.5 -5.5t-7 -6t-6.5 -9t-5.5 -8q-17 -23 -52 -23q-32 0 -50 22t-18 54q0 54 40.5 90.5t103.5 36.5q66 0 129 -23.5
t80 -23.5z" />
    <glyph glyph-name="exclamdown" unicode="&#xa1;" horiz-adv-x="329" 
d="M164 518q59 0 92.5 -30.5t33.5 -82.5q0 -49 -34.5 -81t-91.5 -32t-91 32t-34 81q0 52 33 82.5t92 30.5zM164 216q101 0 105 -117l5 -186q2 -64 -26 -100.5t-82 -36.5t-83.5 36t-27.5 100l5 186q3 118 104 118z" />
    <glyph glyph-name="cent" unicode="&#xa2;" horiz-adv-x="540" 
d="M428 276q33 0 53 -22.5t20 -55.5q0 -53 -47 -81q-27 -17 -70 -25v-32q0 -29 -21 -50t-51 -21t-50.5 21t-20.5 50v34q-101 20 -153.5 91t-52.5 172q0 105 55.5 173.5t150.5 89.5v35q0 29 20.5 50t50.5 21t51 -21t21 -50v-31q42 -7 72 -26q45 -29 45 -81q0 -33 -20 -55.5
t-53 -22.5q-19 0 -44.5 9t-48.5 9q-41 0 -65.5 -28t-24.5 -72q0 -43 24.5 -71t65.5 -28q23 0 48.5 9t44.5 9z" />
    <glyph glyph-name="sterling" unicode="&#xa3;" horiz-adv-x="588" 
d="M476 230q35 0 55 -19.5t20 -56.5q0 -35 -20.5 -56.5t-54.5 -21.5h-329q-39 0 -58 19.5t-19 51.5q0 14 7 30.5t12 23.5t20 29q18 26 26 58h-29q-29 0 -50.5 21t-21.5 51q0 29 21.5 50t50.5 21h38q8 118 64.5 169.5t161.5 51.5q73 0 114 -26t41 -73q0 -33 -19.5 -55
t-49.5 -22q-16 0 -38 8q-22 6 -37 6q-44 0 -49 -59h59q29 0 50.5 -21t21.5 -50q0 -30 -21.5 -51t-50.5 -21h-63q-5 -36 -14 -58h162z" />
    <glyph glyph-name="currency" unicode="&#xa4;" horiz-adv-x="634" 
d="M550 222q32 -30 32 -61q0 -26 -22.5 -47.5t-49.5 -21.5q-29 0 -58 28l-28 26l-4 4q-45 -18 -104 -18q-60 0 -107 18l-2 -2l-26 -25q-30 -30 -60 -30q-27 0 -48.5 22t-21.5 48q0 31 30 60l21 21q-26 49 -26 112q0 66 27 114l-23 25q-29 32 -29 62q0 26 22 47.5t48 21.5
q31 0 59 -31l30 -31q46 18 106 18q62 0 112 -21l26 25q30 30 61 30q26 0 47.5 -22t21.5 -47q0 -31 -30 -61l-23 -23q23 -48 23 -107q0 -63 -26 -113zM316 273q31 0 48.5 23t17.5 61t-17.5 61t-48.5 23q-65 0 -64 -84q0 -84 64 -84z" />
    <glyph glyph-name="yen" unicode="&#xa5;" horiz-adv-x="558" 
d="M522 571q0 -26 -18 -60l-102 -184h17q30 0 51 -20.5t21 -50.5t-21 -50.5t-51 -20.5h-41v-16q0 -44 -27 -70.5t-71 -26.5q-46 0 -73 26.5t-27 70.5v16h-45q-29 0 -50 20.5t-21 50.5t21 50.5t50 20.5h21l-102 184q-16 34 -16 60q0 34 25 57t64 23q34 0 55.5 -16t34.5 -55
l60 -145h2l63 145q12 39 33.5 55t55.5 16q39 0 65 -23t26 -57z" />
    <glyph glyph-name="brokenbar" unicode="&#xa6;" horiz-adv-x="309" 
d="M246 637v-222q0 -42 -25 -66.5t-66 -24.5q-42 0 -67 24.5t-25 66.5v222q0 41 25 65.5t67 24.5q41 0 66 -24.5t25 -65.5zM246 89v-214q0 -41 -25 -66t-66 -25q-42 0 -67 25t-25 66v214q0 41 25 66t67 25q41 0 66 -25t25 -66z" />
    <glyph glyph-name="section" unicode="&#xa7;" horiz-adv-x="615" 
d="M518 188q52 -49 52 -128q0 -88 -64 -141.5t-186 -53.5q-146 0 -224 52q-46 30 -46 76q0 36 20.5 57t55.5 21q22 0 78.5 -26.5t109.5 -26.5q35 0 51.5 10t16.5 34q0 10 -6.5 18t-22.5 14.5t-29 10.5t-41 11.5t-43 11.5q-43 12 -73.5 25t-62 34.5t-48 53.5t-16.5 75
q0 46 20 86.5t51 63.5q-43 48 -43 117q0 93 65.5 140t180.5 47q113 0 181 -43q49 -32 49 -73q0 -34 -23.5 -55t-61.5 -18q-12 1 -66 19.5t-97 18.5q-22 0 -35.5 -9.5t-13.5 -25.5q0 -7 1.5 -12.5t5.5 -10t7 -7t11.5 -6t12 -4.5t16 -4.5t16.5 -4.5q8 -2 35 -8.5t41.5 -10.5
t40.5 -13.5t42 -18.5t36 -24.5t31 -33t19 -43t8 -54.5q0 -80 -52 -141zM230 346q0 -30 27 -46t90 -33q22 -6 33 -10q11 22 11 40q0 13 -3.5 21.5t-16 16t-22 11t-34.5 11.5q-47 16 -74 28q-11 -20 -11 -39z" />
    <glyph glyph-name="dieresis" unicode="&#xa8;" horiz-adv-x="607" 
d="M174 561q-54 0 -83 29t-29 75q0 43 30 73t82 30q51 0 80.5 -30t29.5 -73q0 -46 -28.5 -75t-81.5 -29zM436 561q-54 0 -83 29t-29 75q0 43 30 73t82 30q51 0 80.5 -30t29.5 -73q0 -46 -28.5 -75t-81.5 -29z" />
    <glyph glyph-name="copyright" unicode="&#xa9;" horiz-adv-x="883" 
d="M443 -40q-189 0 -297 104.5t-108 280.5q0 172 110.5 280.5t292.5 108.5t293 -108.5t111 -280.5q0 -177 -106.5 -281t-295.5 -104zM443 98q127 0 192.5 64t65.5 183q0 114 -69.5 182.5t-190.5 68.5t-190.5 -68t-69.5 -183q0 -119 67.5 -183t194.5 -64zM442 151
q-97 0 -149.5 54t-52.5 141q0 91 57 143.5t148 52.5q63 0 98 -23q32 -20 32 -58q0 -23 -14.5 -39t-37.5 -16q-13 0 -32 6.5t-36 6.5q-30 0 -48 -20.5t-18 -53.5q0 -31 18.5 -51.5t47.5 -20.5q17 0 36 6.5t32 6.5q23 0 37.5 -15.5t14.5 -38.5q0 -38 -34 -60q-32 -21 -99 -21z
" />
    <glyph glyph-name="ordfeminine" unicode="&#xaa;" horiz-adv-x="571" 
d="M32 516q0 -102 47.5 -163t136.5 -61q83 0 128 69h2q2 -10 9.5 -24t31.5 -29.5t57 -15.5q43 0 70.5 23.5t27.5 65.5t-28 61q-17 13 -17 48v161q0 35 -20 56t-57 21q-35 0 -56 -17t-21 -47v-11h-2q-29 81 -130 81q-84 0 -131.5 -60.5t-47.5 -157.5zM268 438
q-25 0 -38.5 20.5t-13.5 54.5t13.5 54t37.5 20q52 0 52 -72q1 -77 -51 -77z" />
    <glyph glyph-name="guillemotleft" unicode="&#xab;" horiz-adv-x="568" 
d="M46 311l59 111q27 53 73 53q38 0 66 -21.5t28 -58.5q0 -21 -12 -45l-48 -94l48 -93q12 -24 12 -45q0 -37 -28 -58.5t-66 -21.5q-46 0 -73 53l-59 111q-15 28 -15 54q0 28 15 55zM300 311l59 111q25 53 73 53q38 0 65.5 -21.5t27.5 -58.5q0 -23 -11 -45l-48 -94l48 -93
q11 -22 11 -45q0 -37 -27.5 -58.5t-65.5 -21.5q-48 0 -73 53l-59 111q-15 28 -15 54q0 28 15 55z" />
    <glyph glyph-name="registered" unicode="&#xae;" horiz-adv-x="883" 
d="M443 -40q-189 0 -297 104.5t-108 280.5q0 172 110.5 280.5t292.5 108.5t293 -108.5t111 -280.5q0 -177 -106.5 -281t-295.5 -104zM443 98q127 0 192.5 64t65.5 183q0 114 -69.5 182.5t-190.5 68.5t-190.5 -68t-69.5 -183q0 -119 67.5 -183t194.5 -64zM288 218v215
q0 98 98 96h60q163 0 163 -127q0 -76 -53 -110l28 -47q9 -15 9 -32q0 -23 -16 -38.5t-43 -15.5q-23 0 -33.5 8.5t-18.5 25.5l-40 79h-36v-54q0 -59 -59 -59t-59 59zM406 429v-64h38q38 0 38 32t-39 32h-37z" />
    <glyph glyph-name="macron" unicode="&#xaf;" horiz-adv-x="600" 
d="M388 592h-250q-31 0 -54 23.5t-23 54.5t23 53.5t54 22.5h250q31 0 53.5 -23t22.5 -54t-22.5 -54t-53.5 -23z" />
    <glyph glyph-name="degree" unicode="&#xb0;" horiz-adv-x="435" 
d="M218 384q-83 0 -136.5 49.5t-53.5 124.5q0 76 52.5 126t137.5 50q83 0 136.5 -50t53.5 -126q0 -74 -53 -124t-137 -50zM218 506q42 0 42 53t-42 53q-43 0 -43 -53t43 -53z" />
    <glyph glyph-name="plusminus" unicode="&#xb1;" horiz-adv-x="507" 
d="M254 639q36 0 58.5 -20.5t22.5 -53.5v-19h44q34 0 58 -23t24 -58t-24 -58.5t-58 -23.5h-44v-19q0 -33 -22.5 -53.5t-58.5 -20.5t-58.5 19.5t-22.5 52.5v21h-45q-34 0 -58 23.5t-24 58.5t24 58t58 23h45v21q0 33 22.5 52.5t58.5 19.5zM135 250h237q37 0 58 -21t21 -57
t-21 -57.5t-58 -21.5h-237q-37 0 -57.5 21.5t-20.5 57.5t20.5 57t57.5 21z" />
    <glyph glyph-name="acute" unicode="&#xb4;" horiz-adv-x="434" 
d="M84 689l64 81q35 45 80 45q40 0 65.5 -27.5t25.5 -65.5q0 -47 -39 -79l-83 -70q-32 -24 -58 -24q-33 0 -56 22.5t-23 55.5q0 36 24 62z" />
    <glyph glyph-name="paragraph" unicode="&#xb6;" horiz-adv-x="722" 
d="M566 728q39 0 59 -22t20 -58v-716q0 -34 -18.5 -56.5t-54.5 -22.5q-37 0 -55.5 22.5t-18.5 56.5v634h-73v-625q0 -37 -20 -62.5t-60 -25.5q-41 0 -61.5 25t-20.5 63v287q-115 0 -176 67t-61 179q0 115 64 184t176 70h3h291h3h3z" />
    <glyph glyph-name="periodcentered" unicode="&#xb7;" horiz-adv-x="326" 
d="M163 138q-59 0 -92 30.5t-33 82.5q0 48 34.5 80.5t90.5 32.5q58 0 92 -32t34 -81q0 -52 -33.5 -82.5t-92.5 -30.5z" />
    <glyph glyph-name="cedilla" unicode="&#xb8;" horiz-adv-x="600" 
d="M191 -292q-51 0 -86 22q-32 22 -32 52q0 25 14.5 40t34.5 15q10 0 23.5 -4.5t19.5 -4.5q27 0 27 26t-34 26q-23 0 -32 10.5t-1 39.5l12 41q8 27 22 37.5t47 10.5q31 0 50 -11.5t12 -33.5l-12 -32q4 -1 10.5 -2.5t23 -9t29 -18.5t23 -32.5t10.5 -48.5q0 -52 -41.5 -87.5
t-119.5 -35.5z" />
    <glyph glyph-name="ordmasculine" unicode="&#xba;" horiz-adv-x="528" 
d="M264 293q-109 0 -172 59.5t-63 159.5q0 103 63 163t171 60t172 -60t64 -163q0 -100 -63 -159.5t-172 -59.5zM263 442q27 0 42.5 18.5t15.5 52.5t-15.5 53t-42.5 19t-42.5 -19t-15.5 -53q0 -33 15.5 -52t42.5 -19z" />
    <glyph glyph-name="guillemotright" unicode="&#xbb;" horiz-adv-x="568" 
d="M209 422l60 -111q15 -30 15 -55q0 -22 -15 -54l-60 -111q-25 -53 -73 -53q-38 0 -65.5 21.5t-27.5 58.5q0 23 11 45l48 93l-48 94q-11 22 -11 45q0 37 27.5 58.5t65.5 21.5q48 0 73 -53zM463 422l59 -111q15 -27 15 -55q0 -26 -15 -54l-59 -111q-25 -53 -73 -53
q-38 0 -65.5 21.5t-27.5 58.5q0 23 11 45l48 93l-48 94q-11 22 -11 45q0 37 27.5 58.5t65.5 21.5q48 0 73 -53z" />
    <glyph glyph-name="onequarter" unicode="&#xbc;" horiz-adv-x="949" 
d="M647 660q0 -19 -8 -38l-257 -592q-20 -45 -67 -45q-36 0 -57.5 21t-21.5 52q0 15 7 33l260 599q20 45 69 45q33 0 54 -21.5t21 -53.5zM290 414q0 -40 -22 -63t-62 -23q-39 0 -61.5 23.5t-22.5 62.5v119q-14 -5 -25 -5q-33 0 -52.5 22t-19.5 55q0 52 49 71l129 46
q17 6 31 6q25 0 40.5 -15t15.5 -38v-261zM927 110q0 -22 -12.5 -36.5t-32.5 -16.5q-5 -30 -26 -47t-53 -17q-31 0 -52.5 17t-26.5 46h-129q-37 0 -55 17.5t-18 46.5q0 28 18 64l98 186q22 41 59 41q33 0 56.5 -19t23.5 -48q0 -18 -14 -41l-78 -139h50l2 9q24 81 79 81
q67 0 67 -89v-2q20 -3 32 -17.5t12 -35.5z" />
    <glyph glyph-name="onehalf" unicode="&#xbd;" horiz-adv-x="954" 
d="M311 -15q-36 0 -57.5 21t-21.5 52q0 15 7 33l260 599q20 45 68 45q33 0 54.5 -21.5t21.5 -53.5q0 -16 -8 -38l-257 -592q-20 -45 -67 -45zM205 328q-39 0 -61.5 23.5t-22.5 62.5v119q-14 -5 -25 -5q-33 0 -52.5 22t-19.5 55q0 52 49 71l129 46q17 6 31 6q25 0 40.5 -15
t15.5 -38v-261q0 -40 -22 -63t-62 -23zM696 260q-14 0 -32 -12q-19 -15 -40 -15q-26 0 -42.5 18t-16.5 44q0 39 36 67q49 40 142 40q81 0 121.5 -35.5t40.5 -91.5q0 -44 -28 -84.5t-78 -67.5v-2h53q32 0 50.5 -17t18.5 -46t-18 -46t-51 -17h-224q-31 0 -45.5 16t-14.5 40
q0 22 12.5 37.5t41.5 37.5q68 54 84 76q13 17 13 32q0 26 -23 26z" />
    <glyph glyph-name="threequarters" unicode="&#xbe;" horiz-adv-x="1021" 
d="M390 434q0 -56 -46.5 -88t-136.5 -32q-91 0 -139 32q-30 18 -30 48q0 23 13.5 39t35.5 16q14 0 35.5 -8.5t37.5 -8.5q31 0 31 23q0 25 -45 25h-19q-42 0 -42 44q0 41 42 41h23q35 0 35 26t-29 26q-15 0 -34.5 -8.5t-34.5 -8.5q-22 0 -35.5 16t-13.5 38q0 29 30 49
q48 32 139 32q88 0 132 -29.5t44 -82.5q0 -27 -17 -52.5t-46 -37.5v-2q34 -11 52 -36.5t18 -60.5zM718 660q0 -19 -8 -38l-257 -592q-20 -45 -67 -45q-36 0 -57.5 21t-21.5 52q0 15 7 33l260 599q20 45 69 45q33 0 54 -21.5t21 -53.5zM999 110q0 -22 -12.5 -36.5
t-32.5 -16.5q-5 -30 -26 -47t-53 -17t-53.5 17t-26.5 46h-129q-72 0 -72 64q0 30 17 64l98 186q24 41 59 41q33 0 56.5 -19t23.5 -48q0 -20 -13 -41l-78 -139h49l3 9q24 81 79 81q67 0 67 -89v-2q20 -3 32 -17.5t12 -35.5z" />
    <glyph glyph-name="questiondown" unicode="&#xbf;" horiz-adv-x="555" 
d="M295 523q59 0 92.5 -31t33.5 -83q0 -49 -34.5 -81t-91.5 -32t-91 32t-34 81q0 52 33 83t92 31zM26 -52q0 74 47.5 119.5t112.5 62.5v29q0 45 29 73t80 28q52 0 81 -26t29 -66v-34q0 -59 -72 -89q-57 -25 -69 -38q-11 -11 -11 -26q0 -18 10.5 -27.5t39.5 -9.5
q39 0 79 17.5t65 17.5q39 0 62 -24t23 -62q0 -50 -61 -86q-70 -38 -173 -38q-136 0 -204 49t-68 130z" />
    <glyph glyph-name="Agrave" unicode="&#xc0;" horiz-adv-x="709" 
d="M208 859q-39 32 -39 79q0 39 25.5 66t64.5 27q47 0 81 -44l64 -81q24 -27 24 -62q0 -33 -23 -55.5t-57 -22.5q-26 0 -57 24zM682 131q18 -53 -9.5 -95.5t-90.5 -42.5q-46 0 -69.5 22t-35.5 65l-10 34h-223l-10 -34q-11 -42 -34.5 -64.5t-69.5 -22.5q-63 0 -90.5 42.5
t-10.5 95.5l158 460q25 71 62.5 104t105.5 33q69 0 105 -32.5t62 -105.5zM294 280h123l-61 203h-2z" />
    <glyph glyph-name="Aacute" unicode="&#xc1;" horiz-adv-x="709" 
d="M353 766q-33 0 -56 22.5t-23 55.5q0 35 24 62l64 81q34 44 80 44q40 0 65.5 -27t25.5 -66q0 -47 -39 -79l-83 -69q-31 -24 -58 -24zM682 131q18 -53 -9.5 -95.5t-90.5 -42.5q-46 0 -69.5 22t-35.5 65l-10 34h-223l-10 -34q-11 -42 -34.5 -64.5t-69.5 -22.5
q-63 0 -90.5 42.5t-10.5 95.5l158 460q25 71 62.5 104t105.5 33q69 0 105 -32.5t62 -105.5zM294 280h123l-61 203h-2z" />
    <glyph glyph-name="Acircumflex" unicode="&#xc2;" horiz-adv-x="709" 
d="M221 758q-30 0 -51.5 21t-21.5 53q0 36 34 67l43 39q39 33 68.5 50t61.5 17q53 0 130 -67l44 -39q33 -30 33 -67q0 -32 -21 -53t-52 -21q-25 0 -48 19l-85 71h-2l-85 -71q-23 -19 -48 -19zM682 131q18 -53 -9.5 -95.5t-90.5 -42.5q-46 0 -69.5 22t-35.5 65l-10 34h-223
l-10 -34q-11 -42 -34.5 -64.5t-69.5 -22.5q-63 0 -90.5 42.5t-10.5 95.5l158 460q25 71 62.5 104t105.5 33q69 0 105 -32.5t62 -105.5zM294 280h123l-61 203h-2z" />
    <glyph glyph-name="Atilde" unicode="&#xc3;" horiz-adv-x="709" 
d="M188 763q-32 0 -50 22t-18 54q0 55 41 92.5t103 37.5q52 0 98.5 -22t60.5 -22q9 0 15.5 3t10 5.5t10 10t9.5 10.5q18 20 49 20q33 0 50.5 -24t17.5 -60q0 -47 -35 -85t-95 -38q-51 0 -101.5 23.5t-70.5 23.5q-6 0 -10.5 -0.5t-8.5 -2.5l-6 -3t-5.5 -5t-4 -4.5t-4.5 -6.5
l-4 -5q-18 -24 -52 -24zM682 131q18 -53 -9.5 -95.5t-90.5 -42.5q-46 0 -69.5 22t-35.5 65l-10 34h-223l-10 -34q-11 -42 -34.5 -64.5t-69.5 -22.5q-63 0 -90.5 42.5t-10.5 95.5l158 460q25 71 62.5 104t105.5 33q69 0 105 -32.5t62 -105.5zM294 280h123l-61 203h-2z" />
    <glyph glyph-name="Adieresis" unicode="&#xc4;" horiz-adv-x="709" 
d="M227 777q-54 0 -83 29t-29 75q0 43 30 73.5t82 30.5q51 0 80.5 -30.5t29.5 -73.5q0 -46 -28.5 -75t-81.5 -29zM489 777q-54 0 -83 29t-29 75q0 43 30 73.5t82 30.5q51 0 80.5 -30.5t29.5 -73.5q0 -46 -28.5 -75t-81.5 -29zM682 131q18 -53 -9.5 -95.5t-90.5 -42.5
q-46 0 -69.5 22t-35.5 65l-10 34h-223l-10 -34q-11 -42 -34.5 -64.5t-69.5 -22.5q-63 0 -90.5 42.5t-10.5 95.5l158 460q25 71 62.5 104t105.5 33q69 0 105 -32.5t62 -105.5zM294 280h123l-61 203h-2z" />
    <glyph glyph-name="Aring" unicode="&#xc5;" horiz-adv-x="709" 
d="M355 748q-61 0 -99.5 34t-38.5 94t38.5 94t99.5 34t100 -34t39 -94t-39 -94t-100 -34zM355 909q-27 0 -27 -33q0 -34 27 -34q28 0 28 34q0 33 -28 33zM682 131q18 -53 -9.5 -95.5t-90.5 -42.5q-46 0 -69.5 22t-35.5 65l-10 34h-223l-10 -34q-11 -42 -34.5 -64.5
t-69.5 -22.5q-63 0 -90.5 42.5t-10.5 95.5l158 460q25 71 62.5 104t105.5 33q69 0 105 -32.5t62 -105.5zM294 280h123l-61 203h-2z" />
    <glyph glyph-name="AE" unicode="&#xc6;" horiz-adv-x="959" 
d="M836 162q39 0 62 -22.5t23 -62.5q0 -39 -22.5 -61.5t-61.5 -22.5h-297q-56 0 -85.5 29.5t-29.5 85.5v6h-182l-26 -58q-12 -32 -33.5 -47.5t-64.5 -15.5q-62 0 -91 45.5t-5 98.5l220 462q32 76 65 102.5t93 26.5h435q39 0 62 -23t23 -62q0 -40 -23 -62.5t-62 -22.5h-192
v-110h159q41 0 65 -23.5t24 -64.5t-24 -64.5t-64 -23.5h-160v-110h192zM316 280h109v241h-2z" />
    <glyph glyph-name="Ccedilla" unicode="&#xc7;" horiz-adv-x="663" 
d="M555 204q37 0 60.5 -26.5t23.5 -65.5q0 -61 -57 -95q-45 -27 -123 -32l-7 -20q4 -1 10.5 -2.5t23 -9t29 -18.5t23 -32.5t10.5 -48.5q0 -52 -41.5 -87.5t-118.5 -35.5q-53 0 -87 22q-31 20 -31 52q0 25 14 40t35 15q9 0 22 -4.5t20 -4.5q27 0 27 26t-34 26q-22 0 -31 10.5
t-2 38.5l12 41q-138 26 -218 122t-80 244q0 173 108.5 274.5t285.5 101.5q98 0 156 -35q54 -33 54 -92q0 -40 -24 -66.5t-63 -26.5q-20 0 -55 9.5t-60 9.5q-75 0 -125 -45.5t-50 -129.5t49.5 -129t123.5 -45q28 0 63.5 9.5t56.5 9.5z" />
    <glyph glyph-name="Egrave" unicode="&#xc8;" horiz-adv-x="599" 
d="M306 987l64 -81q24 -27 24 -62q0 -33 -23 -55.5t-57 -22.5q-26 0 -57 24l-83 69q-39 32 -39 79q0 39 25.5 66t64.5 27q47 0 81 -44zM477 -7h-297q-56 0 -85.5 29.5t-29.5 85.5v505q0 55 29.5 85t85.5 30h296q39 0 62 -23t23 -62t-23 -62t-62 -23h-192v-110h159
q40 0 64.5 -23.5t24.5 -64.5t-24 -64.5t-64 -23.5h-160v-110h192q39 0 62 -23t23 -62t-22.5 -61.5t-61.5 -22.5z" />
    <glyph glyph-name="Eacute" unicode="&#xc9;" horiz-adv-x="599" 
d="M264 906l64 81q34 44 80 44q40 0 65.5 -27t25.5 -66q0 -47 -39 -79l-83 -69q-31 -24 -58 -24q-33 0 -56 22.5t-23 55.5q0 35 24 62zM477 -7h-297q-56 0 -85.5 29.5t-29.5 85.5v505q0 55 29.5 85t85.5 30h296q39 0 62 -23t23 -62t-23 -62t-62 -23h-192v-110h159
q40 0 64.5 -23.5t24.5 -64.5t-24 -64.5t-64 -23.5h-160v-110h192q39 0 62 -23t23 -62t-22.5 -61.5t-61.5 -22.5z" />
    <glyph glyph-name="Ecircumflex" unicode="&#xca;" horiz-adv-x="599" 
d="M187 758q-30 0 -51.5 21t-21.5 53q0 36 34 67l43 39q39 33 68.5 50t61.5 17q53 0 130 -67l44 -39q33 -30 33 -67q0 -32 -21 -53t-52 -21q-25 0 -48 19l-85 71h-2l-85 -71q-23 -19 -48 -19zM477 -7h-297q-56 0 -85.5 29.5t-29.5 85.5v505q0 55 29.5 85t85.5 30h296
q39 0 62 -23t23 -62t-23 -62t-62 -23h-192v-110h159q40 0 64.5 -23.5t24.5 -64.5t-24 -64.5t-64 -23.5h-160v-110h192q39 0 62 -23t23 -62t-22.5 -61.5t-61.5 -22.5z" />
    <glyph glyph-name="Edieresis" unicode="&#xcb;" horiz-adv-x="599" 
d="M193 777q-54 0 -83 29t-29 75q0 43 30 73.5t82 30.5q51 0 80.5 -30.5t29.5 -73.5q0 -46 -28.5 -75t-81.5 -29zM455 777q-54 0 -83 29t-29 75q0 43 30 73.5t82 30.5q51 0 80.5 -30.5t29.5 -73.5q0 -46 -28.5 -75t-81.5 -29zM477 -7h-297q-56 0 -85.5 29.5t-29.5 85.5v505
q0 55 29.5 85t85.5 30h296q39 0 62 -23t23 -62t-23 -62t-62 -23h-192v-110h159q40 0 64.5 -23.5t24.5 -64.5t-24 -64.5t-64 -23.5h-160v-110h192q39 0 62 -23t23 -62t-22.5 -61.5t-61.5 -22.5z" />
    <glyph glyph-name="Igrave" unicode="&#xcc;" horiz-adv-x="349" 
d="M162 987l65 -81q23 -26 23 -62q0 -33 -22.5 -55.5t-56.5 -22.5q-25 0 -58 24l-83 69q-39 32 -39 79q0 39 25.5 66t65.5 27q46 0 80 -44zM175 -7q-52 0 -81 29.5t-29 80.5v514q0 51 29 81t81 30t80.5 -30t28.5 -81v-514q0 -51 -28.5 -80.5t-80.5 -29.5z" />
    <glyph glyph-name="Iacute" unicode="&#xcd;" horiz-adv-x="349" 
d="M120 906l64 81q34 44 81 44q40 0 65 -27t25 -66q0 -48 -39 -79l-83 -69q-31 -24 -57 -24q-34 0 -56.5 22.5t-22.5 55.5q0 36 23 62zM175 -7q-52 0 -81 29.5t-29 80.5v514q0 51 29 81t81 30t80.5 -30t28.5 -81v-514q0 -51 -28.5 -80.5t-80.5 -29.5z" />
    <glyph glyph-name="Icircumflex" unicode="&#xce;" horiz-adv-x="349" 
d="M44 758q-31 0 -52 21t-21 53q0 36 34 67l43 39q26 22 42 33.5t40.5 22.5t46.5 11q53 0 130 -67l44 -39q33 -30 33 -67q0 -32 -21 -53t-52 -21q-24 0 -47 19l-86 71h-2l-85 -71q-23 -19 -47 -19zM175 -7q-52 0 -81 29.5t-29 80.5v514q0 51 29 81t81 30t80.5 -30t28.5 -81
v-514q0 -51 -28.5 -80.5t-80.5 -29.5z" />
    <glyph glyph-name="Idieresis" unicode="&#xcf;" horiz-adv-x="349" 
d="M49 777q-53 0 -82.5 29t-29.5 75q0 43 30 73.5t82 30.5q51 0 80.5 -30.5t29.5 -73.5q0 -46 -28.5 -75t-81.5 -29zM311 777q-53 0 -82.5 29t-29.5 75q0 43 30 73.5t82 30.5q51 0 80.5 -30.5t29.5 -73.5q0 -46 -28.5 -75t-81.5 -29zM175 -7q-52 0 -81 29.5t-29 80.5v514
q0 51 29 81t81 30t80.5 -30t28.5 -81v-514q0 -51 -28.5 -80.5t-80.5 -29.5z" />
    <glyph glyph-name="Eth" unicode="&#xd0;" horiz-adv-x="820" 
d="M396 728q187 0 287 -98.5t100 -269.5t-100 -269t-287 -98h-169q-56 0 -85.5 29.5t-29.5 85.5v166h-8q-40 0 -62.5 22.5t-22.5 62.5q0 39 22.5 62t62.5 23h8v169q0 55 30 85t85 30h169zM402 183q75 0 115 45t40 132q0 88 -41 133t-114 45h-71v-94h19q40 0 62.5 -23
t22.5 -62q0 -40 -22.5 -62.5t-62.5 -22.5h-19v-91h71z" />
    <glyph glyph-name="Ntilde" unicode="&#xd1;" horiz-adv-x="790" 
d="M303 969q53 0 99 -22t60 -22q9 0 15.5 3t10 5.5t10 10t9.5 10.5q18 20 49 20q33 0 50.5 -24t17.5 -60q0 -47 -34.5 -85t-95.5 -38q-51 0 -101.5 23.5t-70.5 23.5q-8 0 -13.5 -1t-10.5 -5t-6.5 -5t-6.5 -8t-6 -8q-18 -24 -52 -24q-32 0 -50 22t-18 54q0 55 41 92.5
t103 37.5zM175 -7q-52 0 -81 29.5t-29 80.5v510q0 55 29 85t80 30q40 0 65.5 -22t73.5 -88l192 -262h2l-1 261q0 51 29 81t81 30t80.5 -30t28.5 -81v-509q0 -55 -29.5 -85t-81.5 -30q-43 0 -74.5 26t-84.5 98l-170 231h-2l1 -245q0 -51 -28.5 -80.5t-80.5 -29.5z" />
    <glyph glyph-name="Ograve" unicode="&#xd2;" horiz-adv-x="835" 
d="M402 1002l64 -81q24 -27 24 -62q0 -33 -23 -55.5t-56 -22.5q-25 0 -58 24l-83 69q-39 32 -39 79q0 39 25.5 66t65.5 27q46 0 80 -44zM419 -15q-178 0 -281 103t-103 271q0 164 104 270t278 106t278 -106t104 -270q0 -168 -101.5 -271t-278.5 -103zM417 181q71 0 113 46.5
t42 131.5q0 87 -43 133t-112 46t-111.5 -46t-42.5 -133q0 -85 42.5 -131.5t111.5 -46.5z" />
    <glyph glyph-name="Oacute" unicode="&#xd3;" horiz-adv-x="835" 
d="M360 921l64 81q34 44 81 44q39 0 64.5 -27t25.5 -66q0 -47 -39 -79l-83 -69q-31 -24 -57 -24q-34 0 -56.5 22.5t-22.5 55.5q0 36 23 62zM419 -15q-178 0 -281 103t-103 271q0 164 104 270t278 106t278 -106t104 -270q0 -168 -101.5 -271t-278.5 -103zM417 181
q71 0 113 46.5t42 131.5q0 87 -43 133t-112 46t-111.5 -46t-42.5 -133q0 -85 42.5 -131.5t111.5 -46.5z" />
    <glyph glyph-name="Ocircumflex" unicode="&#xd4;" horiz-adv-x="835" 
d="M284 773q-31 0 -52.5 21t-21.5 53q0 36 34 67l44 39q26 22 42 33.5t40.5 22.5t46.5 11q53 0 130 -67l44 -39q33 -30 33 -67q0 -32 -21 -53t-52 -21q-25 0 -47 19l-86 71h-2l-85 -71q-23 -19 -47 -19zM419 -15q-178 0 -281 103t-103 271q0 164 104 270t278 106t278 -106
t104 -270q0 -168 -101.5 -271t-278.5 -103zM417 181q71 0 113 46.5t42 131.5q0 87 -43 133t-112 46t-111.5 -46t-42.5 -133q0 -85 42.5 -131.5t111.5 -46.5z" />
    <glyph glyph-name="Otilde" unicode="&#xd5;" horiz-adv-x="835" 
d="M326 984q53 0 99 -22t60 -22q9 0 16 3t10 5.5t9.5 10t9.5 10.5q18 20 49 20q33 0 50.5 -24t17.5 -60q0 -47 -34.5 -85t-95.5 -38q-51 0 -101 23.5t-71 23.5q-8 0 -13.5 -1t-10.5 -5t-6.5 -5t-6.5 -8t-6 -8q-18 -24 -52 -24q-32 0 -50 22t-18 54q0 55 41 92.5t103 37.5z
M419 -15q-178 0 -281 103t-103 271q0 164 104 270t278 106t278 -106t104 -270q0 -168 -101.5 -271t-278.5 -103zM417 181q71 0 113 46.5t42 131.5q0 87 -43 133t-112 46t-111.5 -46t-42.5 -133q0 -85 42.5 -131.5t111.5 -46.5z" />
    <glyph glyph-name="Odieresis" unicode="&#xd6;" horiz-adv-x="835" 
d="M289 792q-53 0 -82.5 29t-29.5 75q0 43 30 73.5t82 30.5q51 0 80.5 -30.5t29.5 -73.5q0 -46 -28.5 -75t-81.5 -29zM551 792q-53 0 -82.5 29t-29.5 75q0 43 30 73.5t82 30.5q51 0 80.5 -30.5t29.5 -73.5q0 -46 -28.5 -75t-81.5 -29zM419 -15q-178 0 -281 103t-103 271
q0 164 104 270t278 106t278 -106t104 -270q0 -168 -101.5 -271t-278.5 -103zM417 181q71 0 113 46.5t42 131.5q0 87 -43 133t-112 46t-111.5 -46t-42.5 -133q0 -85 42.5 -131.5t111.5 -46.5z" />
    <glyph glyph-name="multiply" unicode="&#xd7;" horiz-adv-x="492" 
d="M131 163q-34 0 -57.5 23.5t-23.5 57.5q0 33 23 58l58 58l-57 57q-24 22 -24 57q0 34 23.5 58t57.5 24q32 0 58 -24l57 -57l58 58q23 23 57 23t57.5 -24t23.5 -57q0 -32 -24 -58l-57 -57l57 -58q25 -23 25 -57t-24 -58t-58 -24q-33 0 -58 25l-57 57l-57 -58
q-24 -24 -58 -24z" />
    <glyph glyph-name="Oslash" unicode="&#xd8;" horiz-adv-x="865" 
d="M811 584l-39 -39q43 -83 43 -186q0 -168 -102 -271t-279 -103q-107 0 -189 40l-38 -38q-35 -35 -75 -35q-44 0 -77 33.5t-33 79.5q0 41 37 76l33 33q-41 80 -41 185q0 164 104 270t278 106q102 0 186 -41l41 41q34 31 75 31q44 0 76.5 -33.5t32.5 -75.5q0 -40 -33 -73z
M433 181q71 0 112.5 46.5t41.5 131.5q0 88 -42.5 133.5t-112.5 45.5q-68 0 -110.5 -46t-42.5 -133q0 -85 42.5 -131.5t111.5 -46.5z" />
    <glyph glyph-name="Ugrave" unicode="&#xd9;" horiz-adv-x="772" 
d="M370 987l65 -81q23 -26 23 -62q0 -33 -22.5 -55.5t-56.5 -22.5q-25 0 -57 24l-83 69q-39 31 -39 79q0 39 25 66t65 27q46 0 80 -44zM386 -16q-164 0 -247.5 90.5t-83.5 265.5v277q0 51 29 81t82 30q52 0 80 -30t28 -81v-305q0 -132 112 -132q110 0 110 132v305
q0 51 29 81t82 30q52 0 80 -30t28 -81v-277q0 -356 -329 -356z" />
    <glyph glyph-name="Uacute" unicode="&#xda;" horiz-adv-x="772" 
d="M328 906l64 81q35 44 81 44q40 0 65 -27t25 -66q0 -48 -39 -79l-83 -69q-31 -24 -57 -24q-34 0 -56.5 22.5t-22.5 55.5q0 36 23 62zM386 -16q-164 0 -247.5 90.5t-83.5 265.5v277q0 51 29 81t82 30q52 0 80 -30t28 -81v-305q0 -132 112 -132q110 0 110 132v305
q0 51 29 81t82 30q52 0 80 -30t28 -81v-277q0 -356 -329 -356z" />
    <glyph glyph-name="Ucircumflex" unicode="&#xdb;" horiz-adv-x="772" 
d="M252 758q-31 0 -52 21t-21 53q0 36 34 67l43 39q26 22 42 33.5t41 22.5t47 11q52 0 129 -67l44 -39q34 -31 34 -67q0 -32 -21.5 -53t-52.5 -21q-24 0 -47 19l-85 71h-2l-86 -71q-22 -19 -47 -19zM386 -16q-164 0 -247.5 90.5t-83.5 265.5v277q0 51 29 81t82 30
q52 0 80 -30t28 -81v-305q0 -132 112 -132q110 0 110 132v305q0 51 29 81t82 30q52 0 80 -30t28 -81v-277q0 -356 -329 -356z" />
    <glyph glyph-name="Udieresis" unicode="&#xdc;" horiz-adv-x="772" 
d="M257 777q-53 0 -82.5 29t-29.5 75q0 43 30 73.5t82 30.5q51 0 80.5 -30.5t29.5 -73.5q0 -46 -28.5 -75t-81.5 -29zM519 777q-53 0 -82.5 29t-29.5 75q0 43 30 73.5t82 30.5q51 0 80.5 -30.5t29.5 -73.5q0 -46 -28.5 -75t-81.5 -29zM386 -16q-164 0 -247.5 90.5
t-83.5 265.5v277q0 51 29 81t82 30q52 0 80 -30t28 -81v-305q0 -132 112 -132q110 0 110 132v305q0 51 29 81t82 30q52 0 80 -30t28 -81v-277q0 -356 -329 -356z" />
    <glyph glyph-name="Yacute" unicode="&#xdd;" horiz-adv-x="657" 
d="M272 915l64 81q35 45 80 45q40 0 65.5 -27.5t25.5 -65.5q0 -47 -39 -79l-83 -70q-31 -24 -58 -24q-33 0 -56 22.5t-23 55.5q0 36 24 62zM330 -7q-55 0 -85.5 31t-30.5 85v147l-172 304q-21 39 -21 74q0 41 28 67.5t77 26.5q38 0 59.5 -17.5t46.5 -68.5l96 -190h2l95 190
q25 51 46.5 68.5t59.5 17.5q48 0 76 -26t28 -67q0 -37 -21 -74l-170 -305v-147q0 -54 -29.5 -85t-84.5 -31z" />
    <glyph glyph-name="Thorn" unicode="&#xde;" horiz-adv-x="691" 
d="M659 360q0 -132 -77 -201t-226 -69h-75v-16q-17 -81 -106 -81q-52 0 -81 29.5t-29 80.5v514q0 51 29 81t81 30q44 0 70.5 -22t35.5 -60v-16h75q150 0 226.5 -69t76.5 -201zM438 360q0 38 -22.5 59.5t-65.5 21.5h-66v-161h66q88 0 88 80z" />
    <glyph glyph-name="germandbls" unicode="&#xdf;" horiz-adv-x="711" 
d="M50 103v395q0 136 75.5 204.5t217.5 68.5q133 0 199.5 -61.5t66.5 -148.5q0 -46 -23.5 -97.5t-23.5 -72.5q0 -18 12.5 -33.5t30.5 -29.5t36 -32t30.5 -49t12.5 -72q0 -86 -57 -138t-163 -52q-59 0 -100 19q-57 27 -57 90q0 35 18 55t51 20q7 0 23.5 -3t27.5 -3
q43 0 43 47q0 21 -19 40t-42 32.5t-42 39t-19 58.5t26 80t26 72q0 26 -17.5 40.5t-46.5 14.5q-37 0 -52 -25t-15 -77v-382q0 -51 -28.5 -80.5t-80.5 -29.5q-53 0 -81.5 29.5t-28.5 80.5z" />
    <glyph glyph-name="agrave" unicode="&#xe0;" horiz-adv-x="618" 
d="M289 793l64 -81q23 -26 23 -62q0 -33 -22.5 -55.5t-56.5 -22.5q-25 0 -57 24l-83 70q-39 31 -39 78q0 39 25 66t65 27q47 0 81 -44zM195 -16q-83 0 -128 40t-45 115q0 82 57 123t144 41q71 0 122 -26q0 45 -25.5 60t-74.5 15q-25 0 -69 -8q-25 -5 -42 -5q-32 0 -50 20
t-18 54q0 61 71 90q59 23 147 23q65 0 113 -17t75.5 -42.5t44.5 -63.5t22.5 -73t5.5 -78v-39q0 -25 5 -34t17 -17q37 -24 37 -73q0 -48 -33 -76.5t-84 -28.5q-32 0 -57 10.5t-38.5 25.5t-19.5 26t-8 18h-2q-61 -80 -167 -80zM272 124q26 0 47.5 18t25.5 45q-27 17 -61 17
q-26 0 -42.5 -11.5t-16.5 -30.5q0 -38 47 -38z" />
    <glyph glyph-name="aacute" unicode="&#xe1;" horiz-adv-x="618" 
d="M246 712l65 81q34 44 80 44q40 0 65.5 -27t25.5 -66q0 -46 -39 -78l-83 -70q-33 -24 -58 -24q-34 0 -56.5 22.5t-22.5 55.5q0 36 23 62zM195 -16q-83 0 -128 40t-45 115q0 82 57 123t144 41q71 0 122 -26q0 45 -25.5 60t-74.5 15q-25 0 -69 -8q-25 -5 -42 -5
q-32 0 -50 20t-18 54q0 61 71 90q59 23 147 23q65 0 113 -17t75.5 -42.5t44.5 -63.5t22.5 -73t5.5 -78v-39q0 -25 5 -34t17 -17q37 -24 37 -73q0 -48 -33 -76.5t-84 -28.5q-32 0 -57 10.5t-38.5 25.5t-19.5 26t-8 18h-2q-61 -80 -167 -80zM272 124q26 0 47.5 18t25.5 45
q-27 17 -61 17q-26 0 -42.5 -11.5t-16.5 -30.5q0 -38 47 -38z" />
    <glyph glyph-name="acircumflex" unicode="&#xe2;" horiz-adv-x="618" 
d="M170 564q-31 0 -52 21t-21 53q0 36 34 67l43 39q26 22 42 33.5t41 22.5t47 11q53 0 130 -67l43 -39q34 -29 34 -67q0 -32 -21.5 -53t-51.5 -21q-25 0 -48 19l-85 71h-2l-86 -71q-22 -19 -47 -19zM195 -16q-83 0 -128 40t-45 115q0 82 57 123t144 41q71 0 122 -26
q0 45 -25.5 60t-74.5 15q-25 0 -69 -8q-25 -5 -42 -5q-32 0 -50 20t-18 54q0 61 71 90q59 23 147 23q65 0 113 -17t75.5 -42.5t44.5 -63.5t22.5 -73t5.5 -78v-39q0 -25 5 -34t17 -17q37 -24 37 -73q0 -48 -33 -76.5t-84 -28.5q-32 0 -57 10.5t-38.5 25.5t-19.5 26t-8 18h-2
q-61 -80 -167 -80zM272 124q26 0 47.5 18t25.5 45q-27 17 -61 17q-26 0 -42.5 -11.5t-16.5 -30.5q0 -38 47 -38z" />
    <glyph glyph-name="atilde" unicode="&#xe3;" horiz-adv-x="618" 
d="M212 775q53 0 99 -22t60 -22q7 0 12.5 1.5t10 5t7.5 6.5t7.5 8.5t7.5 8.5q21 19 50 19q33 0 50.5 -24t17.5 -60q0 -47 -35 -85t-96 -38q-50 0 -100.5 23.5t-71.5 23.5q-6 0 -11.5 -1.5t-8.5 -2.5t-7 -4.5t-5.5 -5t-5.5 -7t-5 -6.5q-16 -24 -52 -24q-32 0 -49.5 22
t-17.5 54q0 55 40.5 92.5t102.5 37.5zM195 -16q-83 0 -128 40t-45 115q0 82 57 123t144 41q71 0 122 -26q0 45 -25.5 60t-74.5 15q-25 0 -69 -8q-25 -5 -42 -5q-32 0 -50 20t-18 54q0 61 71 90q59 23 147 23q65 0 113 -17t75.5 -42.5t44.5 -63.5t22.5 -73t5.5 -78v-39
q0 -25 5 -34t17 -17q37 -24 37 -73q0 -48 -33 -76.5t-84 -28.5q-32 0 -57 10.5t-38.5 25.5t-19.5 26t-8 18h-2q-61 -80 -167 -80zM272 124q26 0 47.5 18t25.5 45q-27 17 -61 17q-26 0 -42.5 -11.5t-16.5 -30.5q0 -38 47 -38z" />
    <glyph glyph-name="adieresis" unicode="&#xe4;" horiz-adv-x="618" 
d="M176 583q-54 0 -83.5 29t-29.5 75q0 43 30.5 73.5t82.5 30.5q50 0 80 -30.5t30 -73.5q0 -46 -29 -75t-81 -29zM438 583q-54 0 -83.5 29t-29.5 75q0 43 30.5 73.5t82.5 30.5q51 0 80 -30t29 -74q0 -46 -28.5 -75t-80.5 -29zM195 -16q-83 0 -128 40t-45 115q0 82 57 123
t144 41q71 0 122 -26q0 45 -25.5 60t-74.5 15q-25 0 -69 -8q-25 -5 -42 -5q-32 0 -50 20t-18 54q0 61 71 90q59 23 147 23q65 0 113 -17t75.5 -42.5t44.5 -63.5t22.5 -73t5.5 -78v-39q0 -25 5 -34t17 -17q37 -24 37 -73q0 -48 -33 -76.5t-84 -28.5q-32 0 -57 10.5
t-38.5 25.5t-19.5 26t-8 18h-2q-61 -80 -167 -80zM272 124q26 0 47.5 18t25.5 45q-27 17 -61 17q-26 0 -42.5 -11.5t-16.5 -30.5q0 -38 47 -38z" />
    <glyph glyph-name="aring" unicode="&#xe5;" horiz-adv-x="618" 
d="M304 554q-61 0 -100 34t-39 94t39 94t100 34t100 -34t39 -94t-39 -94t-100 -34zM304 648q28 0 28 34q0 33 -28 33q-27 0 -27 -33q0 -34 27 -34zM195 -16q-83 0 -128 40t-45 115q0 82 57 123t144 41q71 0 122 -26q0 45 -25.5 60t-74.5 15q-25 0 -69 -8q-25 -5 -42 -5
q-32 0 -50 20t-18 54q0 61 71 90q59 23 147 23q65 0 113 -17t75.5 -42.5t44.5 -63.5t22.5 -73t5.5 -78v-39q0 -25 5 -34t17 -17q37 -24 37 -73q0 -48 -33 -76.5t-84 -28.5q-32 0 -57 10.5t-38.5 25.5t-19.5 26t-8 18h-2q-61 -80 -167 -80zM272 124q26 0 47.5 18t25.5 45
q-27 17 -61 17q-26 0 -42.5 -11.5t-16.5 -30.5q0 -38 47 -38z" />
    <glyph glyph-name="ae" unicode="&#xe6;" horiz-adv-x="899" 
d="M777 170q33 0 53 -21t20 -54q0 -52 -49 -81q-50 -30 -153 -30q-156 0 -234 83q-29 -30 -81.5 -56.5t-119.5 -26.5q-89 0 -140 40.5t-51 114.5q0 82 57 123t144 41q71 0 122 -26q0 45 -25.5 60t-74.5 15q-25 0 -69 -8q-25 -5 -42 -5q-32 0 -50 20t-18 54q0 61 71 90
q59 23 147 23q116 0 172 -48q70 48 164 48q123 0 186.5 -64.5t63.5 -160.5q0 -46 -21.5 -67t-75.5 -21h-216q0 -59 104 -59q23 0 60 8t56 8zM619 372q-29 0 -48.5 -18.5t-19.5 -47.5h130v9q0 25 -16.5 41t-45.5 16zM272 124q26 0 47.5 18t25.5 45q-27 17 -61 17
q-26 0 -42.5 -11.5t-16.5 -30.5q0 -38 47 -38z" />
    <glyph glyph-name="ccedilla" unicode="&#xe7;" horiz-adv-x="519" 
d="M422 173q33 0 53 -22.5t20 -55.5q0 -53 -47 -81q-34 -21 -88 -27l-7 -19q4 -1 10.5 -2.5t23 -9t29 -18.5t23 -32.5t10.5 -48.5q0 -52 -41.5 -87.5t-118.5 -35.5q-51 0 -87 22q-31 21 -31 52q0 25 14 40t35 15q10 0 23 -4.5t19 -4.5q28 0 28 26t-35 26q-22 0 -31 10.5
t-2 39.5l10 36q-99 20 -151 90.5t-52 171.5q0 127 79.5 199.5t207.5 72.5q88 0 134 -31q45 -29 45 -81q0 -32 -20 -54.5t-53 -22.5q-19 0 -44.5 9t-48.5 9q-41 0 -65.5 -28.5t-24.5 -71.5q0 -44 24.5 -72t65.5 -28q23 0 48.5 9t44.5 9z" />
    <glyph glyph-name="egrave" unicode="&#xe8;" horiz-adv-x="581" 
d="M287 793l64 -81q23 -26 23 -62q0 -33 -22.5 -55.5t-56.5 -22.5q-25 0 -57 24l-83 70q-39 32 -39 78q0 39 25.5 66t64.5 27q47 0 81 -44zM331 -16q-148 0 -225 73.5t-77 200.5q0 118 76.5 193t196.5 75q124 0 187 -64t63 -161q0 -46 -21 -67t-75 -21h-217q0 -59 104 -59
q24 0 60.5 8t55.5 8q33 0 53 -21t20 -54q0 -52 -48 -81q-52 -30 -153 -30zM233 306h130v9q0 25 -16 41t-46 16q-29 0 -48.5 -18.5t-19.5 -47.5z" />
    <glyph glyph-name="eacute" unicode="&#xe9;" horiz-adv-x="581" 
d="M245 712l64 81q34 44 80 44q40 0 65.5 -27t25.5 -66q0 -46 -39 -78l-83 -70q-32 -24 -58 -24q-33 0 -56 22.5t-23 55.5q0 35 24 62zM331 -16q-148 0 -225 73.5t-77 200.5q0 118 76.5 193t196.5 75q124 0 187 -64t63 -161q0 -46 -21 -67t-75 -21h-217q0 -59 104 -59
q24 0 60.5 8t55.5 8q33 0 53 -21t20 -54q0 -52 -48 -81q-52 -30 -153 -30zM233 306h130v9q0 25 -16 41t-46 16q-29 0 -48.5 -18.5t-19.5 -47.5z" />
    <glyph glyph-name="ecircumflex" unicode="&#xea;" horiz-adv-x="581" 
d="M168 564q-30 0 -51.5 21t-21.5 53q0 36 34 67l43 39q39 33 68.5 50t61.5 17q53 0 130 -67l44 -39q33 -28 33 -67q0 -32 -21 -53t-52 -21q-25 0 -48 19l-85 71h-2l-85 -71q-23 -19 -48 -19zM331 -16q-148 0 -225 73.5t-77 200.5q0 118 76.5 193t196.5 75q124 0 187 -64
t63 -161q0 -46 -21 -67t-75 -21h-217q0 -59 104 -59q24 0 60.5 8t55.5 8q33 0 53 -21t20 -54q0 -52 -48 -81q-52 -30 -153 -30zM233 306h130v9q0 25 -16 41t-46 16q-29 0 -48.5 -18.5t-19.5 -47.5z" />
    <glyph glyph-name="edieresis" unicode="&#xeb;" horiz-adv-x="581" 
d="M174 583q-54 0 -83 29t-29 75q0 43 30 73.5t82 30.5q51 0 80.5 -30.5t29.5 -73.5q0 -46 -28.5 -75t-81.5 -29zM436 583q-54 0 -83 29t-29 75q0 43 30 73.5t82 30.5q51 0 80.5 -30.5t29.5 -73.5q0 -46 -28.5 -75t-81.5 -29zM331 -16q-148 0 -225 73.5t-77 200.5
q0 118 76.5 193t196.5 75q124 0 187 -64t63 -161q0 -46 -21 -67t-75 -21h-217q0 -59 104 -59q24 0 60.5 8t55.5 8q33 0 53 -21t20 -54q0 -52 -48 -81q-52 -30 -153 -30zM233 306h130v9q0 25 -16 41t-46 16q-29 0 -48.5 -18.5t-19.5 -47.5z" />
    <glyph glyph-name="igrave" unicode="&#xec;" horiz-adv-x="315" 
d="M143 791l64 -81q24 -27 24 -62q0 -34 -23 -56.5t-57 -22.5q-25 0 -57 24l-83 70q-39 32 -39 79q0 39 25.5 66t65.5 27q46 0 80 -44zM158 -7q-53 0 -81.5 29.5t-28.5 80.5v304q0 51 29 81t81 30t80.5 -30t28.5 -81v-304q0 -51 -28.5 -80.5t-80.5 -29.5z" />
    <glyph glyph-name="iacute" unicode="&#xed;" horiz-adv-x="315" 
d="M101 710l64 81q34 44 80 44q40 0 65.5 -27t25.5 -66q0 -47 -39 -79l-83 -70q-32 -24 -57 -24q-34 0 -57 22.5t-23 56.5q0 35 24 62zM158 -7q-53 0 -81.5 29.5t-28.5 80.5v304q0 51 29 81t81 30t80.5 -30t28.5 -81v-304q0 -51 -28.5 -80.5t-80.5 -29.5z" />
    <glyph glyph-name="icircumflex" unicode="&#xee;" horiz-adv-x="315" 
d="M24 561q-30 0 -51.5 21.5t-21.5 53.5q0 36 34 67l43 39q39 33 68.5 50t61.5 17q51 0 130 -67l44 -39q33 -30 33 -67q0 -32 -21.5 -53.5t-51.5 -21.5q-23 0 -47 19l-86 72h-2l-85 -72q-25 -19 -48 -19zM158 -7q-53 0 -81.5 29.5t-28.5 80.5v304q0 51 29 81t81 30t80.5 -30
t28.5 -81v-304q0 -51 -28.5 -80.5t-80.5 -29.5z" />
    <glyph glyph-name="idieresis" unicode="&#xef;" horiz-adv-x="315" 
d="M30 581q-54 0 -83 29t-29 75q0 43 30 73t82 30q51 0 80.5 -30t29.5 -73q0 -46 -28.5 -75t-81.5 -29zM292 581q-54 0 -83 29t-29 75q0 43 30 73t82 30q51 0 80.5 -30t29.5 -73q0 -46 -28.5 -75t-81.5 -29zM158 -7q-53 0 -81.5 29.5t-28.5 80.5v304q0 51 29 81t81 30
t80.5 -30t28.5 -81v-304q0 -51 -28.5 -80.5t-80.5 -29.5z" />
    <glyph glyph-name="eth" unicode="&#xf0;" horiz-adv-x="642" 
d="M406 698q201 -125 201 -395q0 -148 -79.5 -233t-209.5 -85q-133 0 -210.5 73t-77.5 196q0 117 68 182.5t160 65.5q52 0 89.5 -19t54.5 -42h2q0 80 -90 130l-13 -19q-26 -36 -68 -27q-35 7 -52 36t2 66q-45 22 -45 64q0 39 24.5 60t59.5 18q33 -3 55 -10l15 20
q26 36 63 29q39 -8 57 -39.5t-6 -70.5zM317 167q34 0 52.5 23.5t18.5 64.5t-19 64.5t-53 23.5q-70 0 -69 -89q0 -87 70 -87z" />
    <glyph glyph-name="ntilde" unicode="&#xf1;" 
d="M236 774q53 0 99 -22t60 -22q7 0 12.5 1.5t10 4.5t7.5 6t7.5 8.5t7.5 8.5q20 20 50 20q33 0 50 -24.5t17 -59.5q0 -47 -34.5 -85t-95.5 -38q-51 0 -101 23.5t-71 23.5q-5 0 -9.5 -0.5t-8.5 -2.5t-6.5 -3t-5.5 -4.5t-4 -5t-4.5 -6.5t-4.5 -6q-15 -23 -52 -23q-32 0 -50 22
t-18 54q0 55 41 92.5t103 37.5zM159 -7q-53 0 -82 29.5t-29 80.5v327q0 40 23.5 64t65.5 24q41 0 64.5 -21.5t24.5 -59.5v-7h2q18 46 66 71t101 25q101 0 151.5 -64t50.5 -204v-155q0 -51 -28.5 -80.5t-80.5 -29.5q-53 0 -81.5 29.5t-28.5 80.5v153q0 77 -51 77
q-29 0 -44 -21.5t-14 -54.5l-1 -154q0 -51 -28.5 -80.5t-80.5 -29.5z" />
    <glyph glyph-name="ograve" unicode="&#xf2;" horiz-adv-x="632" 
d="M301 792l64 -81q23 -26 23 -62q0 -33 -22.5 -55.5t-56.5 -22.5q-25 0 -57 24l-83 70q-39 32 -39 78q0 39 25.5 66t64.5 27q47 0 81 -44zM317 -16q-133 0 -210.5 73.5t-77.5 196.5q0 125 77.5 198.5t209.5 73.5q131 0 209 -73.5t78 -198.5q0 -123 -76.5 -196.5
t-209.5 -73.5zM316 166q34 0 52.5 23.5t18.5 65.5q0 41 -19 65t-53 24q-70 0 -69 -90q0 -44 19 -66t51 -22z" />
    <glyph glyph-name="oacute" unicode="&#xf3;" horiz-adv-x="632" 
d="M259 711l64 81q34 44 80 44q40 0 65.5 -27t25.5 -66q0 -46 -39 -78l-83 -70q-33 -24 -58 -24q-33 0 -56 22.5t-23 55.5q0 35 24 62zM317 -16q-133 0 -210.5 73.5t-77.5 196.5q0 125 77.5 198.5t209.5 73.5q131 0 209 -73.5t78 -198.5q0 -123 -76.5 -196.5t-209.5 -73.5z
M316 166q34 0 52.5 23.5t18.5 65.5q0 41 -19 65t-53 24q-70 0 -69 -90q0 -44 19 -66t51 -22z" />
    <glyph glyph-name="ocircumflex" unicode="&#xf4;" horiz-adv-x="632" 
d="M182 563q-31 0 -52 21t-21 53q0 36 34 67l43 39q39 33 68.5 50t61.5 17q53 0 130 -67l43 -39q34 -28 34 -67q0 -32 -21.5 -53t-51.5 -21q-25 0 -48 19l-85 71h-2l-85 -71q-23 -19 -48 -19zM317 -16q-133 0 -210.5 73.5t-77.5 196.5q0 125 77.5 198.5t209.5 73.5
q131 0 209 -73.5t78 -198.5q0 -123 -76.5 -196.5t-209.5 -73.5zM316 166q34 0 52.5 23.5t18.5 65.5q0 41 -19 65t-53 24q-70 0 -69 -90q0 -44 19 -66t51 -22z" />
    <glyph glyph-name="otilde" unicode="&#xf5;" horiz-adv-x="632" 
d="M225 774q52 0 98 -22t61 -22q8 0 15 3t10.5 6t10 10.5t9.5 10.5q19 19 49 19q33 0 50.5 -24t17.5 -60q0 -47 -35 -85t-95 -38q-51 0 -101.5 23.5t-70.5 23.5q-6 0 -10.5 -0.5t-8.5 -2.5l-6 -3t-5.5 -5t-4 -4.5t-4.5 -5.5l-4 -6q-18 -24 -52 -24q-32 0 -50 22t-18 54
q0 55 41 92.5t103 37.5zM317 -16q-133 0 -210.5 73.5t-77.5 196.5q0 125 77.5 198.5t209.5 73.5q131 0 209 -73.5t78 -198.5q0 -123 -76.5 -196.5t-209.5 -73.5zM316 166q34 0 52.5 23.5t18.5 65.5q0 41 -19 65t-53 24q-70 0 -69 -90q0 -44 19 -66t51 -22z" />
    <glyph glyph-name="odieresis" unicode="&#xf6;" horiz-adv-x="632" 
d="M188 582q-54 0 -83 29t-29 75q0 43 30 73.5t82 30.5q51 0 80.5 -30.5t29.5 -73.5q0 -46 -28.5 -75t-81.5 -29zM450 582q-54 0 -83 29t-29 75q0 43 30 73.5t82 30.5q51 0 80.5 -30.5t29.5 -73.5q0 -46 -28.5 -75t-81.5 -29zM317 -16q-133 0 -210.5 73.5t-77.5 196.5
q0 125 77.5 198.5t209.5 73.5q131 0 209 -73.5t78 -198.5q0 -123 -76.5 -196.5t-209.5 -73.5zM316 166q34 0 52.5 23.5t18.5 65.5q0 41 -19 65t-53 24q-70 0 -69 -90q0 -44 19 -66t51 -22z" />
    <glyph glyph-name="divide" unicode="&#xf7;" horiz-adv-x="490" 
d="M244 475q-51 0 -80.5 27t-29.5 72q0 43 30 71t80 28q51 0 80.5 -28t29.5 -71q0 -46 -29 -72.5t-81 -26.5zM388 289h-285q-33 0 -52 19t-19 52q0 32 19 51t52 19h285q33 0 51.5 -19t18.5 -51q0 -33 -18.5 -52t-51.5 -19zM244 46q-50 0 -80 28.5t-30 71.5q0 45 29.5 72
t80.5 27q52 0 81 -26.5t29 -72.5q0 -43 -30 -71.5t-80 -28.5z" />
    <glyph glyph-name="oslash" unicode="&#xf8;" 
d="M586 391l-7 -7q28 -58 28 -130q0 -123 -76.5 -196.5t-209.5 -73.5q-71 0 -126 21l-13 -13q-32 -28 -67 -27.5t-62 27t-27 64.5q0 36 28 65l6 6q-26 57 -26 127q0 125 77.5 198.5t208.5 73.5q70 0 124 -21l14 14q32 27 66.5 26t62 -27.5t27.5 -63.5q0 -35 -28 -63z
M320 166q34 0 52.5 23.5t18.5 65.5q0 41 -19 65t-52 24q-71 0 -70 -90q0 -44 19 -66t51 -22z" />
    <glyph glyph-name="ugrave" unicode="&#xf9;" 
d="M304 791l64 -81q24 -27 24 -62q0 -34 -23 -56.5t-56 -22.5q-25 0 -58 24l-83 70q-39 32 -39 79q0 39 25.5 66t65.5 27q46 0 80 -44zM245 -16q-101 0 -151.5 64t-50.5 204v155q0 51 29 81t81 30t80.5 -30t28.5 -81v-153q0 -77 51 -77q29 0 44 21t15 55l1 154q0 51 29 81
t81 30t80.5 -30t28.5 -81v-326q0 -41 -23.5 -64.5t-65.5 -23.5q-40 0 -64 22t-26 58v7h-2q-18 -46 -65.5 -71t-100.5 -25z" />
    <glyph glyph-name="uacute" unicode="&#xfa;" 
d="M255 710l65 81q34 44 80 44q40 0 65.5 -27t25.5 -66q0 -48 -40 -79l-82 -70q-33 -24 -58 -24q-34 0 -56.5 22.5t-22.5 56.5q0 36 23 62zM245 -16q-101 0 -151.5 64t-50.5 204v155q0 51 29 81t81 30t80.5 -30t28.5 -81v-153q0 -77 51 -77q29 0 44 21t15 55l1 154
q0 51 29 81t81 30t80.5 -30t28.5 -81v-326q0 -41 -23.5 -64.5t-65.5 -23.5q-40 0 -64 22t-26 58v7h-2q-18 -46 -65.5 -71t-100.5 -25z" />
    <glyph glyph-name="ucircumflex" unicode="&#xfb;" 
d="M179 561q-31 0 -52 21.5t-21 53.5q0 36 34 67l43 39q26 22 42 33.5t41 22.5t47 11q32 0 61.5 -17t68.5 -50l43 -39q34 -31 34 -67q0 -32 -21.5 -53.5t-51.5 -21.5q-23 0 -48 19l-85 72h-2l-86 -72q-24 -19 -47 -19zM245 -16q-101 0 -151.5 64t-50.5 204v155q0 51 29 81
t81 30t80.5 -30t28.5 -81v-153q0 -77 51 -77q29 0 44 21t15 55l1 154q0 51 29 81t81 30t80.5 -30t28.5 -81v-326q0 -41 -23.5 -64.5t-65.5 -23.5q-40 0 -64 22t-26 58v7h-2q-18 -46 -65.5 -71t-100.5 -25z" />
    <glyph glyph-name="udieresis" unicode="&#xfc;" 
d="M188 581q-54 0 -83 29t-29 75q0 43 30 73t82 30q51 0 80.5 -30t29.5 -73q0 -46 -28.5 -75t-81.5 -29zM450 581q-54 0 -83 29t-29 75q0 43 30 73t82 30q51 0 80.5 -30t29.5 -73q0 -46 -28.5 -75t-81.5 -29zM245 -16q-101 0 -151.5 64t-50.5 204v155q0 51 29 81t81 30
t80.5 -30t28.5 -81v-153q0 -77 51 -77q29 0 44 21t15 55l1 154q0 51 29 81t81 30t80.5 -30t28.5 -81v-326q0 -41 -23.5 -64.5t-65.5 -23.5q-40 0 -64 22t-26 58v7h-2q-18 -46 -65.5 -71t-100.5 -25z" />
    <glyph glyph-name="yacute" unicode="&#xfd;" horiz-adv-x="573" 
d="M230 697l64 81q34 44 81 44q39 0 64.5 -27t25.5 -66q0 -46 -39 -78l-83 -70q-31 -24 -57 -24q-34 0 -56.5 22.5t-22.5 55.5q0 36 23 62zM156 -230q-51 0 -83 19q-48 26 -48 84q0 35 20 56.5t54 21.5q5 0 10 -0.5t9 -0.5q27 0 41 11t22 35l-150 384q-20 53 9 95.5t89 42.5
q46 0 66.5 -22t29.5 -62l65 -271h2l51 245q13 110 102 110q66 0 92.5 -40t4.5 -101l-133 -365q-50 -135 -108.5 -188.5t-144.5 -53.5z" />
    <glyph glyph-name="thorn" unicode="&#xfe;" horiz-adv-x="643" 
d="M163 -216q-53 0 -82 30t-29 81v751q0 51 28.5 80.5t80.5 29.5q53 0 82 -29.5t29 -80.5v-162h2q14 19 45.5 31t67.5 12q103 0 164.5 -74.5t61.5 -193.5q0 -118 -59 -197t-163 -79q-36 0 -69.5 12t-47.5 31h-2v-131q0 -51 -28.5 -81t-80.5 -30zM324 344q-63 0 -63 -90
q0 -89 64 -89q30 0 46.5 23.5t16.5 65.5q0 41 -17 65.5t-47 24.5z" />
    <glyph glyph-name="ydieresis" unicode="&#xff;" horiz-adv-x="573" 
d="M159 568q-53 0 -82.5 29t-29.5 75q0 43 30 73.5t82 30.5q51 0 80.5 -30.5t29.5 -73.5q0 -46 -28.5 -75t-81.5 -29zM421 568q-53 0 -82.5 29t-29.5 75q0 43 30 73.5t82 30.5t81 -30t29 -74q0 -46 -28.5 -75t-81.5 -29zM156 -230q-51 0 -83 19q-48 26 -48 84q0 35 20 56.5
t54 21.5q5 0 10 -0.5t9 -0.5q27 0 41 11t22 35l-150 384q-20 53 9 95.5t89 42.5q46 0 66.5 -22t29.5 -62l65 -271h2l51 245q13 110 102 110q66 0 92.5 -40t4.5 -101l-133 -365q-50 -135 -108.5 -188.5t-144.5 -53.5z" />
    <glyph glyph-name="Amacron" unicode="&#x100;" horiz-adv-x="709" 
d="M237 809q-31 0 -53.5 23t-22.5 55q0 31 22.5 53.5t53.5 22.5h250q32 0 54.5 -23t22.5 -55q0 -31 -23 -53.5t-54 -22.5h-250zM682 131q18 -53 -9.5 -95.5t-90.5 -42.5q-46 0 -69.5 22t-35.5 65l-10 34h-223l-10 -34q-11 -42 -34.5 -64.5t-69.5 -22.5q-63 0 -90.5 42.5
t-10.5 95.5l158 460q25 71 62.5 104t105.5 33q69 0 105 -32.5t62 -105.5zM294 280h123l-61 203h-2z" />
    <glyph glyph-name="amacron" unicode="&#x101;" horiz-adv-x="618" 
d="M436 615h-250q-31 0 -53.5 23t-22.5 55q0 31 22.5 53.5t53.5 22.5h250q31 0 53.5 -23t22.5 -55q0 -31 -22.5 -53.5t-53.5 -22.5zM195 -16q-83 0 -128 40t-45 115q0 82 57 123t144 41q71 0 122 -26q0 45 -25.5 60t-74.5 15q-25 0 -69 -8q-25 -5 -42 -5q-32 0 -50 20
t-18 54q0 61 71 90q59 23 147 23q65 0 113 -17t75.5 -42.5t44.5 -63.5t22.5 -73t5.5 -78v-39q0 -25 5 -34t17 -17q37 -24 37 -73q0 -48 -33 -76.5t-84 -28.5q-32 0 -57 10.5t-38.5 25.5t-19.5 26t-8 18h-2q-61 -80 -167 -80zM272 124q26 0 47.5 18t25.5 45q-27 17 -61 17
q-26 0 -42.5 -11.5t-16.5 -30.5q0 -38 47 -38z" />
    <glyph glyph-name="Abreve" unicode="&#x102;" horiz-adv-x="709" 
d="M354 761q-93 0 -147.5 45t-54.5 111q0 36 21.5 56t53.5 20q53 0 72 -51q17 -45 55 -45q22 0 33.5 12t21.5 36q18 48 71 48q33 0 54 -20t21 -56q0 -66 -54.5 -111t-146.5 -45zM682 131q18 -53 -9.5 -95.5t-90.5 -42.5q-46 0 -69.5 22t-35.5 65l-10 34h-223l-10 -34
q-11 -42 -34.5 -64.5t-69.5 -22.5q-63 0 -90.5 42.5t-10.5 95.5l158 460q25 71 62.5 104t105.5 33q69 0 105 -32.5t62 -105.5zM294 280h123l-61 203h-2z" />
    <glyph glyph-name="abreve" unicode="&#x103;" horiz-adv-x="618" 
d="M303 703q22 0 33.5 12t21.5 36q18 48 71 48q33 0 54 -20t21 -56q0 -66 -54.5 -111t-146.5 -45q-93 0 -147.5 45t-54.5 111q0 36 21.5 56t53.5 20q53 0 72 -50q16 -46 55 -46zM195 -16q-83 0 -128 40t-45 115q0 82 57 123t144 41q71 0 122 -26q0 45 -25.5 60t-74.5 15
q-25 0 -69 -8q-25 -5 -42 -5q-32 0 -50 20t-18 54q0 61 71 90q59 23 147 23q65 0 113 -17t75.5 -42.5t44.5 -63.5t22.5 -73t5.5 -78v-39q0 -25 5 -34t17 -17q37 -24 37 -73q0 -48 -33 -76.5t-84 -28.5q-32 0 -57 10.5t-38.5 25.5t-19.5 26t-8 18h-2q-61 -80 -167 -80z
M272 124q26 0 47.5 18t25.5 45q-27 17 -61 17q-26 0 -42.5 -11.5t-16.5 -30.5q0 -38 47 -38z" />
    <glyph glyph-name="Aogonek" unicode="&#x104;" horiz-adv-x="709" 
d="M653 -122q24 0 39 -17.5t15 -46.5q0 -32 -25 -51q-28 -24 -84 -24q-72 0 -116 42.5t-44 114.5q0 83 55 143q-11 22 -16 41l-10 34h-223l-10 -34q-11 -42 -34.5 -64.5t-69.5 -22.5q-63 0 -90.5 42.5t-10.5 95.5l158 460q25 71 62.5 104t105.5 33q69 0 105 -32.5t62 -105.5
l160 -459q13 -36 2.5 -70.5t-41.5 -52.5q-47 -41 -47 -92q0 -40 35 -40q4 0 11 1t11 1zM294 280h123l-61 203h-2z" />
    <glyph glyph-name="aogonek" unicode="&#x105;" horiz-adv-x="618" 
d="M564 -131q24 0 39 -17.5t15 -46.5q0 -32 -25 -51q-29 -23 -84 -23q-72 0 -116 42.5t-44 114.5q0 75 45 130q-21 20 -30 46h-2q-61 -80 -167 -80q-83 0 -128 40t-45 115q0 82 57 123t144 41q71 0 122 -26q0 45 -25.5 60t-74.5 15q-25 0 -69 -8q-25 -5 -42 -5q-32 0 -50 20
t-18 54q0 61 71 90q59 23 147 23q65 0 113 -17t75.5 -42.5t44.5 -63.5t22.5 -73t5.5 -78v-39q0 -25 5 -34t17 -17q37 -24 37 -73t-34 -78l-6 -5q-57 -41 -57 -98q0 -41 35 -41q4 0 11 1t11 1zM272 124q26 0 47.5 18t25.5 45q-27 17 -61 17q-26 0 -42.5 -11.5t-16.5 -30.5
q0 -38 47 -38z" />
    <glyph glyph-name="Cacute" unicode="&#x106;" horiz-adv-x="663" 
d="M325 911l64 81q34 44 81 44q39 0 64.5 -27t25.5 -66q0 -47 -39 -79l-83 -70q-31 -24 -57 -24q-34 0 -57 23t-23 56q0 35 24 62zM429 -16q-178 0 -286 101t-108 274t108.5 274.5t285.5 101.5q98 0 156 -35q54 -33 54 -92q0 -40 -24 -66.5t-63 -26.5q-20 0 -55 9.5t-60 9.5
q-75 0 -125 -45.5t-50 -129.5t49.5 -129t123.5 -45q28 0 63.5 9.5t56.5 9.5q37 0 60.5 -26.5t23.5 -65.5q0 -61 -57 -95q-53 -33 -153 -33z" />
    <glyph glyph-name="cacute" unicode="&#x107;" horiz-adv-x="519" 
d="M231 712l64 81q34 44 81 44q40 0 65 -27t25 -66q0 -47 -39 -79l-83 -70q-32 -24 -57 -24q-34 0 -56.5 22.5t-22.5 56.5q0 36 23 62zM312 -16q-137 0 -210 75t-73 195q0 127 79.5 199.5t207.5 72.5q88 0 134 -31q45 -29 45 -81q0 -32 -20 -54.5t-53 -22.5q-19 0 -44.5 9
t-48.5 9q-41 0 -65.5 -28.5t-24.5 -71.5q0 -44 24.5 -72t65.5 -28q23 0 48.5 9t44.5 9q33 0 53 -22.5t20 -55.5q0 -53 -47 -81q-50 -30 -136 -30z" />
    <glyph glyph-name="Cdotaccent" unicode="&#x10a;" horiz-adv-x="663" 
d="M416 792q-57 0 -91 32t-34 87t34 86.5t91 31.5q56 0 89.5 -31.5t33.5 -86.5t-33.5 -87t-89.5 -32zM429 -16q-178 0 -286 101t-108 274t108.5 274.5t285.5 101.5q98 0 156 -35q54 -33 54 -92q0 -40 -24 -66.5t-63 -26.5q-20 0 -55 9.5t-60 9.5q-75 0 -125 -45.5
t-50 -129.5t49.5 -129t123.5 -45q28 0 63.5 9.5t56.5 9.5q37 0 60.5 -26.5t23.5 -65.5q0 -61 -57 -95q-53 -33 -153 -33z" />
    <glyph glyph-name="cdotaccent" unicode="&#x10b;" horiz-adv-x="519" 
d="M288 583q-56 0 -90.5 32t-34.5 87t34.5 86t90.5 31t90 -31t34 -86q0 -56 -33.5 -87.5t-90.5 -31.5zM312 -16q-137 0 -210 75t-73 195q0 127 79.5 199.5t207.5 72.5q88 0 134 -31q45 -29 45 -81q0 -32 -20 -54.5t-53 -22.5q-19 0 -44.5 9t-48.5 9q-41 0 -65.5 -28.5
t-24.5 -71.5q0 -44 24.5 -72t65.5 -28q23 0 48.5 9t44.5 9q33 0 53 -22.5t20 -55.5q0 -53 -47 -81q-50 -30 -136 -30z" />
    <glyph glyph-name="Ccaron" unicode="&#x10c;" horiz-adv-x="663" 
d="M415 776q-51 0 -130 67l-43 39q-34 29 -34 67q0 32 21.5 53t51.5 21q28 0 48 -19l85 -73h2l86 73q20 19 47 19q31 0 52 -21t21 -53q0 -36 -34 -67l-43 -39q-77 -67 -130 -67zM429 -16q-178 0 -286 101t-108 274t108.5 274.5t285.5 101.5q98 0 156 -35q54 -33 54 -92
q0 -40 -24 -66.5t-63 -26.5q-20 0 -55 9.5t-60 9.5q-75 0 -125 -45.5t-50 -129.5t49.5 -129t123.5 -45q28 0 63.5 9.5t56.5 9.5q37 0 60.5 -26.5t23.5 -65.5q0 -61 -57 -95q-53 -33 -153 -33z" />
    <glyph glyph-name="ccaron" unicode="&#x10d;" horiz-adv-x="519" 
d="M288 566q-52 0 -130 68l-44 39q-33 28 -33 67q0 32 21 53t52 21q25 0 47 -19l86 -73h2l85 73q22 19 48 19q30 0 51.5 -21t21.5 -53q0 -36 -34 -67l-43 -39q-80 -68 -130 -68zM312 -16q-137 0 -210 75t-73 195q0 127 79.5 199.5t207.5 72.5q88 0 134 -31q45 -29 45 -81
q0 -32 -20 -54.5t-53 -22.5q-19 0 -44.5 9t-48.5 9q-41 0 -65.5 -28.5t-24.5 -71.5q0 -44 24.5 -72t65.5 -28q23 0 48.5 9t44.5 9q33 0 53 -22.5t20 -55.5q0 -53 -47 -81q-50 -30 -136 -30z" />
    <glyph glyph-name="Dcaron" unicode="&#x10e;" horiz-adv-x="773" 
d="M355 761q-51 0 -130 67l-44 39q-33 28 -33 67q0 32 21 53t52 21q27 0 47 -19l86 -73h2l85 73q20 19 48 19q30 0 51.5 -21t21.5 -53q0 -36 -34 -67l-43 -39q-77 -67 -130 -67zM349 -7h-169q-56 0 -85.5 29.5t-29.5 85.5v505q0 55 29.5 85t85.5 30h169q187 0 287 -98.5
t100 -269.5t-100 -269t-287 -98zM284 538v-355h71q75 0 115 45t40 132q0 88 -41 133t-114 45h-71z" />
    <glyph glyph-name="dcaron" unicode="&#x10f;" horiz-adv-x="777" 
d="M259 -16q-108 0 -168 75t-60 198q0 121 59.5 195t164.5 74q37 0 68.5 -12.5t45.5 -30.5h2l1 163q0 51 28.5 80.5t81.5 29.5q52 0 80.5 -29.5t28.5 -80.5v-427q0 -41 22 -56q37 -27 37 -73t-32.5 -76t-88.5 -30q-32 0 -56.5 10.5t-37 26t-18 25.5t-7.5 18h-2
q-47 -80 -149 -80zM718 469q-41 0 -59.5 23.5t-14.5 60.5q7 60 10 121q1 36 23.5 59t60.5 23q43 0 66.5 -27t19.5 -66q-9 -71 -35 -144q-18 -50 -71 -50zM319 166q64 0 63 89q0 88 -63 88q-30 0 -47 -23.5t-17 -64.5t17 -65t47 -24z" />
    <glyph glyph-name="Dcroat" unicode="&#x110;" horiz-adv-x="820" 
d="M396 728q187 0 287 -98.5t100 -269.5t-100 -269t-287 -98h-169q-56 0 -85.5 29.5t-29.5 85.5v166h-8q-40 0 -62.5 22.5t-22.5 62.5q0 39 22.5 62t62.5 23h8v169q0 55 30 85t85 30h169zM402 183q75 0 115 45t40 132q0 88 -41 133t-114 45h-71v-94h19q40 0 62.5 -23
t22.5 -62q0 -40 -22.5 -62.5t-62.5 -22.5h-19v-91h71z" />
    <glyph glyph-name="dcroat" unicode="&#x111;" horiz-adv-x="668" 
d="M612 560h-21v-341q0 -41 22 -56q37 -27 37 -73t-32.5 -76t-88.5 -30q-32 0 -56.5 10.5t-37 26t-18 25.5t-7.5 18h-2q-47 -80 -149 -80q-108 0 -168 75t-60 198q0 121 59.5 195t164.5 74q37 0 68.5 -12.5t45.5 -30.5h2v77h-46q-26 0 -44.5 18.5t-18.5 45.5t18.5 45
t44.5 18h53q21 69 104 69q82 0 103 -69h27q26 0 44.5 -18t18.5 -45t-18.5 -45.5t-44.5 -18.5zM319 166q64 0 63 89q0 88 -63 88q-30 0 -47 -23.5t-17 -64.5t17 -65t47 -24z" />
    <glyph glyph-name="Emacron" unicode="&#x112;" horiz-adv-x="599" 
d="M453 809h-250q-31 0 -53.5 23t-22.5 55q0 31 22.5 53.5t53.5 22.5h250q32 0 54.5 -23t22.5 -55q0 -31 -23 -53.5t-54 -22.5zM477 -7h-297q-56 0 -85.5 29.5t-29.5 85.5v505q0 55 29.5 85t85.5 30h296q39 0 62 -23t23 -62t-23 -62t-62 -23h-192v-110h159q40 0 64.5 -23.5
t24.5 -64.5t-24 -64.5t-64 -23.5h-160v-110h192q39 0 62 -23t23 -62t-22.5 -61.5t-61.5 -22.5z" />
    <glyph glyph-name="emacron" unicode="&#x113;" horiz-adv-x="581" 
d="M434 615h-250q-31 0 -53.5 23t-22.5 55q0 31 22.5 53.5t53.5 22.5h250q32 0 54.5 -23t22.5 -55q0 -31 -23 -53.5t-54 -22.5zM331 -16q-148 0 -225 73.5t-77 200.5q0 118 76.5 193t196.5 75q124 0 187 -64t63 -161q0 -46 -21 -67t-75 -21h-217q0 -59 104 -59q24 0 60.5 8
t55.5 8q33 0 53 -21t20 -54q0 -52 -48 -81q-52 -30 -153 -30zM233 306h130v9q0 25 -16 41t-46 16q-29 0 -48.5 -18.5t-19.5 -47.5z" />
    <glyph glyph-name="Edotaccent" unicode="&#x116;" horiz-adv-x="599" 
d="M321 777q-56 0 -90.5 32t-34.5 87t34.5 86.5t90.5 31.5t89.5 -31.5t33.5 -86.5t-33.5 -87t-89.5 -32zM477 -7h-297q-56 0 -85.5 29.5t-29.5 85.5v505q0 55 29.5 85t85.5 30h296q39 0 62 -23t23 -62t-23 -62t-62 -23h-192v-110h159q40 0 64.5 -23.5t24.5 -64.5t-24 -64.5
t-64 -23.5h-160v-110h192q39 0 62 -23t23 -62t-22.5 -61.5t-61.5 -22.5z" />
    <glyph glyph-name="edotaccent" unicode="&#x117;" horiz-adv-x="581" 
d="M302 583q-56 0 -90.5 32t-34.5 87t34.5 86.5t90.5 31.5t89.5 -31.5t33.5 -86.5t-33.5 -87t-89.5 -32zM331 -16q-148 0 -225 73.5t-77 200.5q0 118 76.5 193t196.5 75q124 0 187 -64t63 -161q0 -46 -21 -67t-75 -21h-217q0 -59 104 -59q24 0 60.5 8t55.5 8q33 0 53 -21
t20 -54q0 -52 -48 -81q-52 -30 -153 -30zM233 306h130v9q0 25 -16 41t-46 16q-29 0 -48.5 -18.5t-19.5 -47.5z" />
    <glyph glyph-name="Eogonek" unicode="&#x118;" horiz-adv-x="599" 
d="M522 -134q23 0 38 -17.5t15 -46.5q0 -32 -24 -51q-31 -23 -85 -23q-72 0 -116 42.5t-44 113.5q0 60 29 109h-155q-56 0 -85.5 29.5t-29.5 85.5v505q0 55 29.5 85t85.5 30h296q39 0 62 -23t23 -62t-23 -62t-62 -23h-192v-110h159q40 0 64.5 -23.5t24.5 -64.5t-24 -64.5
t-64 -23.5h-160v-110h192q39 0 62 -23t23 -62q0 -55 -41 -75q-56 -42 -56 -97q0 -41 35 -41q4 0 11 1t12 1z" />
    <glyph glyph-name="eogonek" unicode="&#x119;" horiz-adv-x="581" 
d="M493 -117q23 0 38 -17.5t15 -46.5q0 -33 -24 -51q-30 -24 -85 -24q-72 0 -116 42.5t-44 114.5q0 47 17 84q-130 10 -197.5 82t-67.5 191q0 118 76.5 193t196.5 75q124 0 187 -64t63 -161q0 -46 -21 -67t-75 -21h-217q0 -59 104 -59q24 0 60.5 8t55.5 8q33 0 53 -21
t20 -54q0 -51 -47 -80q-50 -42 -50 -94q0 -40 35 -40q4 0 11 1t12 1zM301 372q-29 0 -48.5 -18.5t-19.5 -47.5h130v9q0 25 -16 41t-46 16z" />
    <glyph glyph-name="Ecaron" unicode="&#x11a;" horiz-adv-x="599" 
d="M320 761q-52 0 -129 67l-44 39q-34 29 -34 67q0 32 21.5 53t52.5 21q27 0 47 -19l85 -73h2l86 73q20 19 47 19q31 0 52 -21t21 -53q0 -36 -34 -67l-43 -39q-77 -67 -130 -67zM477 -7h-297q-56 0 -85.5 29.5t-29.5 85.5v505q0 55 29.5 85t85.5 30h296q39 0 62 -23t23 -62
t-23 -62t-62 -23h-192v-110h159q40 0 64.5 -23.5t24.5 -64.5t-24 -64.5t-64 -23.5h-160v-110h192q39 0 62 -23t23 -62t-22.5 -61.5t-61.5 -22.5z" />
    <glyph glyph-name="ecaron" unicode="&#x11b;" horiz-adv-x="581" 
d="M301 567q-52 0 -129 67l-44 39q-34 31 -34 67q0 32 21.5 53t52.5 21q27 0 47 -19l85 -73h2l86 73q20 19 47 19q31 0 52 -21t21 -53q0 -36 -34 -67l-43 -39q-77 -67 -130 -67zM331 -16q-148 0 -225 73.5t-77 200.5q0 118 76.5 193t196.5 75q124 0 187 -64t63 -161
q0 -46 -21 -67t-75 -21h-217q0 -59 104 -59q24 0 60.5 8t55.5 8q33 0 53 -21t20 -54q0 -52 -48 -81q-52 -30 -153 -30zM233 306h130v9q0 25 -16 41t-46 16q-29 0 -48.5 -18.5t-19.5 -47.5z" />
    <glyph glyph-name="Gbreve" unicode="&#x11e;" horiz-adv-x="712" 
d="M426 912q22 0 33.5 12t21.5 36q18 48 71 48q33 0 54 -20t21 -56q0 -66 -54.5 -111t-146.5 -45q-93 0 -147.5 45t-54.5 111q0 36 21.5 56t53.5 20q53 0 72 -51q17 -45 55 -45zM428 -16q-178 0 -285 100t-107 275t108.5 275.5t286.5 100.5q112 0 169 -35q55 -33 55 -92
q0 -41 -24 -67.5t-62 -26.5q-17 0 -52.5 9t-67.5 11q-87 0 -136.5 -44.5t-49.5 -133.5q0 -88 48 -134.5t123 -46.5q24 0 45 6v104q0 45 25 71.5t71 26.5t71 -26.5t25 -71.5v-159q0 -75 -61 -110q-58 -32 -182 -32z" />
    <glyph glyph-name="gbreve" unicode="&#x11f;" 
d="M318 702q22 0 34 11.5t21 36.5q18 48 71 48q33 0 54 -20t21 -56q0 -67 -54.5 -111.5t-146.5 -44.5q-93 0 -147.5 45t-54.5 111q0 35 21.5 55.5t53.5 20.5q53 0 72 -51q17 -45 55 -45zM292 -237q-128 0 -184 46q-38 29 -38 75q0 36 22.5 58.5t60.5 22.5q25 0 63 -14.5
t69 -14.5q46 0 73 22t27 64v24h-2q-14 -19 -47.5 -32t-69.5 -13q-111 0 -173 71t-62 186q0 121 59.5 194.5t165.5 73.5q49 0 91.5 -23.5t62.5 -67.5h2v6q2 34 26 55.5t64 21.5q42 0 65 -24t23 -65v-356q0 -145 -71.5 -227.5t-226.5 -82.5zM319 168q64 0 64 90q0 86 -64 86
q-30 0 -47 -24t-17 -64q0 -41 17 -64.5t47 -23.5z" />
    <glyph glyph-name="Gdotaccent" unicode="&#x120;" horiz-adv-x="712" 
d="M427 792q-56 0 -90.5 32t-34.5 87t34.5 86.5t90.5 31.5t89.5 -31.5t33.5 -86.5t-33.5 -87t-89.5 -32zM428 -16q-178 0 -285 100t-107 275t108.5 275.5t286.5 100.5q112 0 169 -35q55 -33 55 -92q0 -41 -24 -67.5t-62 -26.5q-17 0 -52.5 9t-67.5 11q-87 0 -136.5 -44.5
t-49.5 -133.5q0 -88 48 -134.5t123 -46.5q24 0 45 6v104q0 45 25 71.5t71 26.5t71 -26.5t25 -71.5v-159q0 -75 -61 -110q-58 -32 -182 -32z" />
    <glyph glyph-name="gdotaccent" unicode="&#x121;" 
d="M319 582q-57 0 -91 31.5t-34 86.5t34 86.5t91 31.5q56 0 89.5 -31.5t33.5 -86.5t-33.5 -86.5t-89.5 -31.5zM292 -237q-128 0 -184 46q-38 29 -38 75q0 36 22.5 58.5t60.5 22.5q25 0 63 -14.5t69 -14.5q46 0 73 22t27 64v24h-2q-14 -19 -47.5 -32t-69.5 -13
q-111 0 -173 71t-62 186q0 121 59.5 194.5t165.5 73.5q49 0 91.5 -23.5t62.5 -67.5h2v6q2 34 26 55.5t64 21.5q42 0 65 -24t23 -65v-356q0 -145 -71.5 -227.5t-226.5 -82.5zM319 168q64 0 64 90q0 86 -64 86q-30 0 -47 -24t-17 -64q0 -41 17 -64.5t47 -23.5z" />
    <glyph glyph-name="uni0122" unicode="&#x122;" horiz-adv-x="712" 
d="M428 -16q-178 0 -285 100t-107 275t108.5 275.5t286.5 100.5q112 0 169 -35q55 -33 55 -92q0 -41 -24 -67.5t-62 -26.5q-17 0 -52.5 9t-67.5 11q-87 0 -136.5 -44.5t-49.5 -133.5q0 -88 48 -134.5t123 -46.5q24 0 45 6v104q0 45 25 71.5t71 26.5t71 -26.5t25 -71.5v-159
q0 -75 -61 -110q-58 -32 -182 -32zM399 -341q-40 0 -59 24t-14 60q8 84 9 121q2 36 24.5 59t60.5 23q43 0 66 -27t19 -66q-8 -71 -34 -145q-20 -49 -72 -49z" />
    <glyph glyph-name="uni0123" unicode="&#x123;" 
d="M348 854q40 0 59 -24t14 -60q-8 -86 -9 -122q-2 -35 -24.5 -58.5t-60.5 -23.5q-43 0 -66 27.5t-19 66.5q8 70 34 144q19 50 72 50zM292 -237q-128 0 -184 46q-38 29 -38 75q0 36 22.5 58.5t60.5 22.5q25 0 63 -14.5t69 -14.5q46 0 73 22t27 64v24h-2q-14 -19 -47.5 -32
t-69.5 -13q-111 0 -173 71t-62 186q0 121 59.5 194.5t165.5 73.5q49 0 91.5 -23.5t62.5 -67.5h2v6q2 34 26 55.5t64 21.5q42 0 65 -24t23 -65v-356q0 -145 -71.5 -227.5t-226.5 -82.5zM319 168q64 0 64 90q0 86 -64 86q-30 0 -47 -24t-17 -64q0 -41 17 -64.5t47 -23.5z" />
    <glyph glyph-name="Hbar" unicode="&#x126;" horiz-adv-x="849" 
d="M767 646q30 0 50.5 -17.5t20.5 -46.5t-20.5 -47t-50.5 -18h-7v-414q0 -51 -28 -80.5t-80 -29.5q-53 0 -82 29.5t-29 80.5v155h-230v-155q0 -51 -28.5 -80.5t-80.5 -29.5q-53 0 -82 29.5t-29 80.5v414h-9q-30 0 -50.5 18t-20.5 47t20.5 46.5t50.5 17.5h12q8 38 36 60
t72 22q43 0 70.5 -22t35.5 -60h236q8 38 36 60t72 22t71 -22t34 -60h10zM541 464v53h-230v-53h230z" />
    <glyph glyph-name="hbar" unicode="&#x127;" horiz-adv-x="641" 
d="M396 526q101 0 151.5 -64t50.5 -204v-155q0 -51 -28 -80.5t-80 -29.5q-53 0 -82 29.5t-29 80.5v161q0 77 -51 77q-29 0 -44 -21.5t-14 -54.5l-1 -162q0 -51 -28.5 -80.5t-80.5 -29.5q-53 0 -81.5 29.5t-28.5 80.5v457h-23q-26 0 -44.5 18.5t-18.5 45.5t18.5 45t44.5 18
h29q21 69 104 69q82 0 103 -69h51q27 0 45.5 -18t18.5 -45t-18.5 -45.5t-45.5 -18.5h-44v-79h2q14 19 51 32t73 13z" />
    <glyph glyph-name="Itilde" unicode="&#x128;" horiz-adv-x="349" 
d="M86 969q53 0 99 -22t60 -22q9 0 16 3t10 5.5t9.5 10t9.5 10.5q18 20 49 20q33 0 50.5 -24t17.5 -60q0 -47 -34.5 -85t-95.5 -38q-51 0 -101 23.5t-71 23.5q-6 0 -11.5 -1.5t-8.5 -2.5t-7 -4.5t-5.5 -5t-5.5 -7t-5 -6.5q-18 -24 -52 -24q-32 0 -50 22t-18 54q0 55 41 92.5
t103 37.5zM175 -7q-52 0 -81 29.5t-29 80.5v514q0 51 29 81t81 30t80.5 -30t28.5 -81v-514q0 -51 -28.5 -80.5t-80.5 -29.5z" />
    <glyph glyph-name="itilde" unicode="&#x129;" horiz-adv-x="315" 
d="M67 773q52 0 98.5 -22t60.5 -22q9 0 15.5 3t10 5.5t10 10t9.5 10.5q18 20 49 20q33 0 50.5 -24t17.5 -60q0 -47 -34.5 -85t-95.5 -38q-51 0 -101.5 23.5t-70.5 23.5q-10 0 -16 -1.5t-12.5 -8l-7 -7t-7.5 -11.5q-17 -23 -52 -23q-32 0 -50 22t-18 54q0 55 41 92.5
t103 37.5zM158 -7q-53 0 -81.5 29.5t-28.5 80.5v304q0 51 29 81t81 30t80.5 -30t28.5 -81v-304q0 -51 -28.5 -80.5t-80.5 -29.5z" />
    <glyph glyph-name="Imacron" unicode="&#x12a;" horiz-adv-x="349" 
d="M310 809h-250q-31 0 -53.5 23t-22.5 55q0 31 22.5 53.5t53.5 22.5h250q31 0 53.5 -23t22.5 -55q0 -31 -22.5 -53.5t-53.5 -22.5zM175 -7q-52 0 -81 29.5t-29 80.5v514q0 51 29 81t81 30t80.5 -30t28.5 -81v-514q0 -51 -28.5 -80.5t-80.5 -29.5z" />
    <glyph glyph-name="imacron" unicode="&#x12b;" horiz-adv-x="315" 
d="M291 613h-251q-31 0 -53.5 23t-22.5 55q0 31 22.5 53.5t53.5 22.5h251q31 0 53.5 -23t22.5 -55q0 -31 -22.5 -53.5t-53.5 -22.5zM158 -7q-53 0 -81.5 29.5t-28.5 80.5v304q0 51 29 81t81 30t80.5 -30t28.5 -81v-304q0 -51 -28.5 -80.5t-80.5 -29.5z" />
    <glyph glyph-name="Iogonek" unicode="&#x12e;" horiz-adv-x="351" 
d="M240 -129q23 0 38 -17.5t15 -46.5q0 -32 -24 -51q-31 -23 -85 -23q-72 0 -116 42.5t-44 114.5q0 86 60 148q-17 26 -17 65v514q0 51 29 81t81 30t80.5 -30t28.5 -81v-514q0 -66 -46 -94l-1 -1q-57 -40 -57 -98q0 -40 35 -40q4 0 11 0.5t12 0.5z" />
    <glyph glyph-name="iogonek" unicode="&#x12f;" horiz-adv-x="318" 
d="M161 581q-56 0 -90.5 32t-34.5 87t34.5 86.5t90.5 31.5t89.5 -31.5t33.5 -86.5t-33.5 -87t-89.5 -32zM220 -131q23 0 38.5 -17.5t15.5 -46.5q0 -31 -25 -51q-31 -23 -84 -23q-72 0 -116 42.5t-44 114.5q0 88 62 150q-16 29 -16 65v304q0 51 29 81t81 30t80.5 -30
t28.5 -81v-304q0 -71 -52 -97q-56 -41 -56 -98q0 -40 36 -40q4 0 11 0.5t11 0.5z" />
    <glyph glyph-name="Idotaccent" unicode="&#x130;" horiz-adv-x="349" 
d="M177 777q-56 0 -90.5 32t-34.5 87t34.5 86.5t90.5 31.5t90 -31.5t34 -86.5t-33.5 -87t-90.5 -32zM175 -7q-52 0 -81 29.5t-29 80.5v514q0 51 29 81t81 30t80.5 -30t28.5 -81v-514q0 -51 -28.5 -80.5t-80.5 -29.5z" />
    <glyph glyph-name="dotlessi" unicode="&#x131;" horiz-adv-x="315" 
d="M158 -7q-53 0 -81.5 29.5t-28.5 80.5v304q0 51 29 81t81 30t80.5 -30t28.5 -81v-304q0 -51 -28.5 -80.5t-80.5 -29.5z" />
    <glyph glyph-name="IJ" unicode="&#x132;" horiz-adv-x="872" 
d="M568 -16q-87 0 -142 37q-48 34 -48 92q0 39 22 65t59 26q13 0 36 -6.5t43 -6.5q34 0 45 35.5t11 129.5v266q0 49 30 78.5t80 29.5t79.5 -29t29.5 -79v-279q0 -182 -54.5 -270.5t-190.5 -88.5zM175 -7q-52 0 -81 29.5t-29 80.5v514q0 51 29 81t81 30t80.5 -30t28.5 -81
v-514q0 -51 -28.5 -80.5t-80.5 -29.5z" />
    <glyph glyph-name="ij" unicode="&#x133;" horiz-adv-x="637" 
d="M158 581q-56 0 -90.5 32t-34.5 87t34.5 86.5t90.5 31.5t89.5 -31.5t33.5 -86.5t-33.5 -87t-89.5 -32zM477 581q-56 0 -90.5 32t-34.5 87t34.5 86.5t90.5 31.5t90 -31.5t34 -86.5t-33.5 -87t-90.5 -32zM158 -7q-53 0 -81.5 29.5t-28.5 80.5v304q0 51 29 81t81 30t80.5 -30
t28.5 -81v-304q0 -51 -28.5 -80.5t-80.5 -29.5zM375 -230q-81 0 -125 39q-37 31 -37 79q0 34 20 56.5t53 22.5q10 0 26 -4.5t24 -4.5q20 0 25.5 17.5t5.5 56.5l1 375q0 51 28.5 81t80.5 30t81 -30t29 -81v-385q0 -50 -9.5 -91.5t-31.5 -79.5t-65.5 -59.5t-105.5 -21.5z" />
    <glyph glyph-name="uni0136" unicode="&#x136;" horiz-adv-x="723" 
d="M175 -7q-53 0 -81.5 29.5t-28.5 80.5v514q0 51 29 81t81 30t80 -30t28 -81v-153h78l118 206q16 31 37 44.5t58 13.5q46 0 78.5 -30.5t32.5 -74.5q0 -29 -12 -50l-130 -211l133 -212q13 -22 13 -50q0 -45 -34.5 -76t-80.5 -31q-36 0 -57.5 14t-39.5 46l-122 206h-72v-156
q0 -51 -28 -80.5t-80 -29.5zM355 -329q-40 0 -59 24t-14 60q8 84 9 121q2 36 24.5 59t60.5 23q43 0 66 -27t19 -66q-8 -71 -34 -145q-20 -49 -72 -49z" />
    <glyph glyph-name="uni0137" unicode="&#x137;" horiz-adv-x="602" 
d="M160 -7q-53 0 -82 30t-29 82l1 541q0 51 29 80.5t82 29.5q52 0 80.5 -29.5t28.5 -80.5v-306h36l64 113q16 33 36 49t59 16q44 0 73 -29.5t29 -69.5q0 -23 -11 -43l-72 -120l75 -113q13 -19 13 -49q0 -41 -30 -71t-75 -30q-41 0 -61.5 16.5t-37.5 51.5l-66 111h-32v-67
q0 -52 -28.5 -82t-81.5 -30zM281 -329q-40 0 -59 24t-14 60q7 68 9 121q1 36 23.5 59t61.5 23q42 0 65.5 -27t19.5 -66q-8 -73 -35 -145q-18 -49 -71 -49z" />
    <glyph glyph-name="kgreenlandic" unicode="&#x138;" horiz-adv-x="600" 
d="M158 -7q-53 0 -82 30t-29 82l1 303q0 51 29 80.5t82 29.5q52 0 80.5 -29.5t28.5 -80.5v-68h36l64 113q16 33 36 49t59 16q44 0 73 -29.5t29 -69.5q0 -23 -11 -43l-72 -120l75 -113q13 -19 13 -49q0 -41 -30 -71t-75 -30q-41 0 -61.5 16.5t-37.5 51.5l-66 111h-32v-67
q0 -52 -28.5 -82t-81.5 -30z" />
    <glyph glyph-name="Lacute" unicode="&#x139;" horiz-adv-x="545" 
d="M116 907l64 81q34 44 80 44q40 0 65.5 -27t25.5 -66q0 -47 -39 -79l-83 -69q-31 -24 -58 -24q-33 0 -56 22.5t-23 55.5q0 35 24 62zM434 -7h-254q-56 0 -85.5 29.5t-29.5 85.5v511q0 50 30 79.5t80 29.5t79.5 -29.5t29.5 -79.5l1 -421h148q47 0 75 -27.5t28 -75.5
t-27.5 -75t-74.5 -27z" />
    <glyph glyph-name="lacute" unicode="&#x13a;" horiz-adv-x="319" 
d="M102 941l64 81q35 45 80 45q40 0 65.5 -27.5t25.5 -65.5q0 -47 -39 -79l-83 -70q-31 -24 -57 -24q-34 0 -57 22.5t-23 55.5q0 36 24 62zM160 -7q-53 0 -81.5 29.5t-28.5 80.5v543q0 51 28.5 80.5t81.5 29.5q52 0 80.5 -29.5t28.5 -80.5v-543q0 -51 -28.5 -80.5
t-80.5 -29.5z" />
    <glyph glyph-name="uni013B" unicode="&#x13b;" horiz-adv-x="545" 
d="M434 -7h-254q-56 0 -85.5 29.5t-29.5 85.5v511q0 50 30 79.5t80 29.5t79.5 -29.5t29.5 -79.5l1 -421h148q47 0 75 -27.5t28 -75.5t-27.5 -75t-74.5 -27zM269 -329q-40 0 -59 24t-14 60q8 84 9 121q2 36 24.5 59t60.5 23q43 0 66 -27t19 -66q-8 -71 -34 -145
q-20 -49 -72 -49z" />
    <glyph glyph-name="uni013C" unicode="&#x13c;" horiz-adv-x="319" 
d="M160 -7q-53 0 -81.5 29.5t-28.5 80.5v543q0 51 28.5 80.5t81.5 29.5q52 0 80.5 -29.5t28.5 -80.5v-543q0 -51 -28.5 -80.5t-80.5 -29.5zM131 -329q-40 0 -59 24t-14 60q7 68 9 121q1 36 23.5 59t60.5 23q43 0 66.5 -27t19.5 -66q-8 -73 -35 -145q-18 -49 -71 -49z" />
    <glyph glyph-name="Lcaron" unicode="&#x13d;" horiz-adv-x="578" 
d="M442 443q-40 0 -59 24t-14 60q7 68 9 121q1 36 23.5 59t60.5 23q43 0 66.5 -27t19.5 -66q-8 -72 -35 -144q-18 -50 -71 -50zM434 -7h-254q-56 0 -85.5 29.5t-29.5 85.5v511q0 50 30 79.5t80 29.5t79.5 -29.5t29.5 -79.5l1 -421h148q47 0 75 -27.5t28 -75.5t-27.5 -75
t-74.5 -27z" />
    <glyph glyph-name="lcaron" unicode="&#x13e;" horiz-adv-x="460" 
d="M387 470q-40 0 -59 24t-14 60q8 84 9 121q2 36 24.5 59t60.5 23q43 0 66 -27t19 -66q-8 -71 -34 -145q-20 -49 -72 -49zM160 -7q-53 0 -81.5 29.5t-28.5 80.5v543q0 51 28.5 80.5t81.5 29.5q52 0 80.5 -29.5t28.5 -80.5v-543q0 -51 -28.5 -80.5t-80.5 -29.5z" />
    <glyph glyph-name="Ldot" unicode="&#x13f;" horiz-adv-x="606" 
d="M434 -7h-254q-56 0 -85.5 29.5t-29.5 85.5v511q0 50 30 79.5t80 29.5t79.5 -29.5t29.5 -79.5l1 -421h148q47 0 75 -27.5t28 -75.5t-27.5 -75t-74.5 -27zM469 334q-52 0 -83 28t-31 79q0 48 31 78t83 30q51 0 82 -30t31 -78q0 -51 -30.5 -79t-82.5 -28z" />
    <glyph glyph-name="ldot" unicode="&#x140;" horiz-adv-x="525" 
d="M160 -7q-53 0 -81.5 29.5t-28.5 80.5v543q0 51 28.5 80.5t81.5 29.5q52 0 80.5 -29.5t28.5 -80.5v-543q0 -51 -28.5 -80.5t-80.5 -29.5zM421 271q-52 0 -83 28.5t-31 78.5q0 48 31.5 78t82.5 30t82 -30t31 -78q0 -50 -30.5 -78.5t-82.5 -28.5z" />
    <glyph glyph-name="Lslash" unicode="&#x141;" horiz-adv-x="641" 
d="M528 198q47 0 74.5 -27.5t27.5 -75.5t-27 -75t-74 -27h-254q-115 0 -115 115v151l-32 -14q-18 -8 -36 -8q-30 0 -50.5 21.5t-20.5 62.5q0 46 48 66l91 39v193q0 50 29.5 79.5t80.5 29.5q50 0 79.5 -29.5t29.5 -79.5v-101l49 21q17 7 33 7q31 0 52.5 -21.5t21.5 -58.5
q0 -47 -47 -69l-109 -46v-153h149z" />
    <glyph glyph-name="lslash" unicode="&#x142;" horiz-adv-x="490" 
d="M408 536q33 0 53.5 -21t20.5 -54q0 -49 -43 -70l-82 -40v-248q0 -51 -28.5 -80.5t-80.5 -29.5q-53 0 -81.5 29.5t-28.5 80.5v140l-12 -6q-14 -7 -36 -7q-34 0 -55 21.5t-21 54.5q0 48 44 70l80 39v231q0 51 28.5 80.5t81.5 29.5q52 0 80.5 -29.5t28.5 -80.5v-125l15 7
q13 8 36 8z" />
    <glyph glyph-name="Nacute" unicode="&#x143;" horiz-adv-x="790" 
d="M337 906l64 81q34 44 81 44q39 0 64.5 -27t25.5 -66q0 -47 -39 -79l-83 -69q-32 -24 -57 -24q-34 0 -57 22.5t-23 55.5q0 35 24 62zM175 -7q-52 0 -81 29.5t-29 80.5v510q0 55 29 85t80 30q40 0 65.5 -22t73.5 -88l192 -262h2l-1 261q0 51 29 81t81 30t80.5 -30t28.5 -81
v-509q0 -55 -29.5 -85t-81.5 -30q-43 0 -74.5 26t-84.5 98l-170 231h-2l1 -245q0 -51 -28.5 -80.5t-80.5 -29.5z" />
    <glyph glyph-name="nacute" unicode="&#x144;" 
d="M270 711l65 81q34 44 80 44q40 0 65 -27t25 -66q0 -48 -39 -79l-83 -70q-31 -24 -57 -24q-34 0 -56.5 22.5t-22.5 56.5q0 36 23 62zM159 -7q-53 0 -82 29.5t-29 80.5v327q0 40 23.5 64t65.5 24q41 0 64.5 -21.5t24.5 -59.5v-7h2q18 46 66 71t101 25q101 0 151.5 -64
t50.5 -204v-155q0 -51 -28.5 -80.5t-80.5 -29.5q-53 0 -81.5 29.5t-28.5 80.5v153q0 77 -51 77q-29 0 -44 -21.5t-14 -54.5l-1 -154q0 -51 -28.5 -80.5t-80.5 -29.5z" />
    <glyph glyph-name="uni0145" unicode="&#x145;" horiz-adv-x="790" 
d="M175 -7q-52 0 -81 29.5t-29 80.5v510q0 55 29 85t80 30q40 0 65.5 -22t73.5 -88l192 -262h2l-1 261q0 51 29 81t81 30t80.5 -30t28.5 -81v-509q0 -55 -29.5 -85t-81.5 -30q-43 0 -74.5 26t-84.5 98l-170 231h-2l1 -245q0 -51 -28.5 -80.5t-80.5 -29.5zM377 -329
q-40 0 -59 24t-14 60q8 84 9 121q2 36 24.5 59t60.5 23q43 0 66 -27t19 -66q-8 -71 -34 -145q-20 -49 -72 -49z" />
    <glyph glyph-name="uni0146" unicode="&#x146;" 
d="M159 -7q-53 0 -82 29.5t-29 80.5v327q0 40 23.5 64t65.5 24q41 0 64.5 -21.5t24.5 -59.5v-7h2q18 46 66 71t101 25q101 0 151.5 -64t50.5 -204v-155q0 -51 -28.5 -80.5t-80.5 -29.5q-53 0 -81.5 29.5t-28.5 80.5v153q0 77 -51 77q-29 0 -44 -21.5t-14 -54.5l-1 -154
q0 -51 -28.5 -80.5t-80.5 -29.5zM295 -329q-40 0 -59 24t-14 60q7 68 9 121q1 36 23.5 59t61.5 23q42 0 65.5 -27t19.5 -66q-8 -73 -35 -145q-18 -49 -71 -49z" />
    <glyph glyph-name="Ncaron" unicode="&#x147;" horiz-adv-x="790" 
d="M394 761q-53 0 -130 67l-44 39q-33 28 -33 67q0 32 21 53t52 21q27 0 47 -19l86 -73h2l85 73q20 19 47 19q31 0 52 -21t21 -53q0 -36 -34 -67l-43 -39q-77 -67 -129 -67zM175 -7q-52 0 -81 29.5t-29 80.5v510q0 55 29 85t80 30q40 0 65.5 -22t73.5 -88l192 -262h2l-1 261
q0 51 29 81t81 30t80.5 -30t28.5 -81v-509q0 -55 -29.5 -85t-81.5 -30q-43 0 -74.5 26t-84.5 98l-170 231h-2l1 -245q0 -51 -28.5 -80.5t-80.5 -29.5z" />
    <glyph glyph-name="ncaron" unicode="&#x148;" 
d="M327 565q-52 0 -130 68l-44 39q-33 28 -33 67q0 32 21 53t52 21q26 0 48 -19l85 -73h2l85 73q22 19 48 19q31 0 52 -21t21 -53q0 -36 -34 -67l-43 -39q-78 -68 -130 -68zM159 -7q-53 0 -82 29.5t-29 80.5v327q0 40 23.5 64t65.5 24q41 0 64.5 -21.5t24.5 -59.5v-7h2
q18 46 66 71t101 25q101 0 151.5 -64t50.5 -204v-155q0 -51 -28.5 -80.5t-80.5 -29.5q-53 0 -81.5 29.5t-28.5 80.5v153q0 77 -51 77q-29 0 -44 -21.5t-14 -54.5l-1 -154q0 -51 -28.5 -80.5t-80.5 -29.5z" />
    <glyph glyph-name="napostrophe" unicode="&#x149;" horiz-adv-x="738" 
d="M87 507q-40 0 -58.5 23.5t-14.5 60.5q7 60 10 121q1 36 23 59t61 23q43 0 66 -27t19 -66q-8 -71 -34 -145q-18 -49 -72 -49zM257 -7q-53 0 -82 29.5t-29 80.5v327q0 40 23.5 64t65.5 24q40 0 64 -21.5t25 -59.5v-7h2q18 46 65.5 71t100.5 25q101 0 152 -64t51 -204v-155
q0 -51 -28.5 -80.5t-80.5 -29.5q-53 0 -81.5 29.5t-28.5 80.5v153q0 77 -51 77q-30 0 -44.5 -21t-14.5 -55l-1 -154q0 -51 -28 -80.5t-80 -29.5z" />
    <glyph glyph-name="Eng" unicode="&#x14a;" horiz-adv-x="792" 
d="M65 103v510q0 55 29 85t80 30q40 0 65.5 -22t73.5 -88l192 -262h2l-1 261q0 51 29 81t81 30t80.5 -30t28.5 -81v-622q0 -225 -199 -225q-89 0 -134 33q-39 28 -39 77q0 33 19.5 55.5t51.5 22.5q12 0 33 -5t35 -5q43 0 43 37q0 8 -3 16.5t-12 22.5t-15.5 23.5t-23.5 33
t-26 36.5l-170 231h-2l1 -245q0 -51 -28.5 -80.5t-80.5 -29.5t-81 29.5t-29 80.5z" />
    <glyph glyph-name="eng" unicode="&#x14b;" horiz-adv-x="643" 
d="M269 257l-1 -154q0 -51 -28.5 -80.5t-80.5 -29.5q-53 0 -82 29.5t-29 80.5v327q0 40 23.5 64t65.5 24q41 0 64.5 -21.5t24.5 -59.5v-7h2q18 46 66 71t101 25q101 0 151.5 -64t50.5 -204v-274q0 -214 -163 -214q-49 0 -82 26.5t-33 72.5q0 48 37 73q22 15 22 46v268
q0 77 -51 77q-29 0 -44 -21.5t-14 -54.5z" />
    <glyph glyph-name="Omacron" unicode="&#x14c;" horiz-adv-x="835" 
d="M550 824h-250q-31 0 -53.5 23t-22.5 55q0 31 22.5 53.5t53.5 22.5h250q31 0 53.5 -23t22.5 -55q0 -31 -22.5 -53.5t-53.5 -22.5zM419 -15q-178 0 -281 103t-103 271q0 164 104 270t278 106t278 -106t104 -270q0 -168 -101.5 -271t-278.5 -103zM417 181q71 0 113 46.5
t42 131.5q0 87 -43 133t-112 46t-111.5 -46t-42.5 -133q0 -85 42.5 -131.5t111.5 -46.5z" />
    <glyph glyph-name="omacron" unicode="&#x14d;" horiz-adv-x="632" 
d="M448 614h-250q-31 0 -53.5 23t-22.5 55q0 31 22.5 53.5t53.5 22.5h250q31 0 53.5 -23t22.5 -55q0 -31 -22.5 -53.5t-53.5 -22.5zM317 -16q-133 0 -210.5 73.5t-77.5 196.5q0 125 77.5 198.5t209.5 73.5q131 0 209 -73.5t78 -198.5q0 -123 -76.5 -196.5t-209.5 -73.5z
M316 166q34 0 52.5 23.5t18.5 65.5q0 41 -19 65t-53 24q-70 0 -69 -90q0 -44 19 -66t51 -22z" />
    <glyph glyph-name="Ohungarumlaut" unicode="&#x150;" horiz-adv-x="835" 
d="M298 766q-36 0 -62 25t-26 62q0 28 16 57l48 82q28 50 79 50q40 0 71 -28.5t31 -68.5q0 -28 -20 -57l-56 -76q-35 -46 -81 -46zM543 766q-36 0 -62 25t-26 62q0 28 16 57l48 82q28 50 79 50q40 0 71 -28.5t31 -68.5q0 -28 -20 -57l-56 -76q-34 -46 -81 -46zM419 -15
q-178 0 -281 103t-103 271q0 164 104 270t278 106t278 -106t104 -270q0 -168 -101.5 -271t-278.5 -103zM417 181q71 0 113 46.5t42 131.5q0 87 -43 133t-112 46t-111.5 -46t-42.5 -133q0 -85 42.5 -131.5t111.5 -46.5z" />
    <glyph glyph-name="ohungarumlaut" unicode="&#x151;" horiz-adv-x="632" 
d="M196 556q-35 0 -61 25t-26 62q0 29 16 57l47 82q29 50 80 50q40 0 71 -28.5t31 -68.5q0 -28 -20 -57l-56 -76q-35 -46 -82 -46zM441 556q-35 0 -61 25t-26 62q0 29 16 57l47 82q29 50 80 50q40 0 71 -28.5t31 -68.5q0 -28 -20 -57l-57 -76q-33 -46 -81 -46zM317 -16
q-133 0 -210.5 73.5t-77.5 196.5q0 125 77.5 198.5t209.5 73.5q131 0 209 -73.5t78 -198.5q0 -123 -76.5 -196.5t-209.5 -73.5zM316 166q34 0 52.5 23.5t18.5 65.5q0 41 -19 65t-53 24q-70 0 -69 -90q0 -44 19 -66t51 -22z" />
    <glyph glyph-name="OE" unicode="&#x152;" horiz-adv-x="1120" 
d="M997 162q39 0 62 -23t23 -62t-22.5 -61.5t-61.5 -22.5h-297q-61 0 -89 34q-84 -42 -193 -42q-178 0 -281 103t-103 271q0 164 104 270t278 106q107 0 192 -44q31 37 92 37h296q39 0 62 -23t23 -62t-23 -62t-62 -23h-193l1 -110h159q40 0 64.5 -23.5t24.5 -64.5t-24 -64.5
t-64 -23.5h-160v-110h192zM417 181q71 0 113 46.5t42 131.5q0 87 -43 133t-112 46t-111.5 -46t-42.5 -133q0 -85 42.5 -131.5t111.5 -46.5z" />
    <glyph glyph-name="oe" unicode="&#x153;" horiz-adv-x="954" 
d="M831 170q33 0 53.5 -21t20.5 -54q0 -52 -49 -81q-52 -30 -153 -30q-124 0 -200 54q-74 -54 -186 -54q-133 0 -210.5 73.5t-77.5 196.5q0 125 77.5 198.5t209.5 73.5q112 0 186 -54q73 54 172 54q124 0 187.5 -64t63.5 -161q0 -46 -21.5 -67t-75.5 -21h-217
q0 -26 25.5 -42.5t78.5 -16.5q24 0 60.5 8t55.5 8zM673 372q-28 0 -47.5 -18.5t-19.5 -47.5h129q1 3 1 9q0 25 -16.5 41t-46.5 16zM316 166q34 0 52.5 23.5t18.5 65.5q0 41 -19 65t-53 24q-70 0 -69 -90q0 -44 19 -66t51 -22z" />
    <glyph glyph-name="Racute" unicode="&#x154;" horiz-adv-x="698" 
d="M287 905l64 81q35 45 81 45q39 0 64.5 -27.5t25.5 -65.5q0 -47 -39 -79l-83 -70q-32 -24 -57 -24q-34 0 -57 22.5t-23 55.5q0 36 24 62zM175 -7q-52 0 -81 29.5t-29 80.5v511q0 56 29.5 85.5t85.5 29.5l169 -1q311 -2 311 -259q0 -132 -107 -215l69 -104q22 -33 22 -65
q0 -36 -32 -64t-85 -28q-32 0 -53 15.5t-41 50.5l-89 151h-60v-107q0 -51 -28.5 -80.5t-80.5 -29.5zM284 553v-176h64q95 0 95 88t-101 88h-58z" />
    <glyph glyph-name="racute" unicode="&#x155;" horiz-adv-x="450" 
d="M173 697l64 81q34 44 81 44q40 0 65 -27t25 -66q0 -47 -39 -78l-83 -70q-31 -24 -57 -24q-34 0 -56.5 22.5t-22.5 55.5q0 36 23 62zM159 -7q-53 0 -82 29.5t-29 80.5v327q0 40 23.5 64t65.5 24q40 0 63.5 -19.5t25.5 -54.5v-6h2q41 88 129 88q42 0 65 -25.5t23 -61.5
q0 -38 -23.5 -65.5t-68.5 -27.5q-85 0 -85 -106v-137q0 -51 -28.5 -80.5t-80.5 -29.5z" />
    <glyph glyph-name="uni0156" unicode="&#x156;" horiz-adv-x="698" 
d="M175 -7q-52 0 -81 29.5t-29 80.5v511q0 56 29.5 85.5t85.5 29.5l169 -1q311 -2 311 -259q0 -132 -107 -215l69 -104q22 -33 22 -65q0 -36 -32 -64t-85 -28q-32 0 -53 15.5t-41 50.5l-89 151h-60v-107q0 -51 -28.5 -80.5t-80.5 -29.5zM284 553v-176h64q95 0 95 88t-101 88
h-58zM340 -329q-40 0 -59 24t-14 60q8 84 9 121q2 36 24.5 59t60.5 23q43 0 66 -27t19 -66q-8 -71 -34 -145q-20 -49 -72 -49z" />
    <glyph glyph-name="uni0157" unicode="&#x157;" horiz-adv-x="450" 
d="M159 -7q-53 0 -82 29.5t-29 80.5v327q0 40 23.5 64t65.5 24q40 0 63.5 -19.5t25.5 -54.5v-6h2q41 88 129 88q42 0 65 -25.5t23 -61.5q0 -38 -23.5 -65.5t-68.5 -27.5q-85 0 -85 -106v-137q0 -51 -28.5 -80.5t-80.5 -29.5zM130 -329q-40 0 -59 24t-14 60q8 84 9 121
q2 36 24.5 59t60.5 23q43 0 66 -27t19 -66q-8 -71 -34 -145q-20 -49 -72 -49z" />
    <glyph glyph-name="Rcaron" unicode="&#x158;" horiz-adv-x="698" 
d="M343 760q-51 0 -130 67l-44 39q-33 30 -33 67q0 33 21 54t52 21q25 0 47 -19l86 -74h2l85 74q22 19 47 19q31 0 52.5 -21.5t21.5 -53.5q0 -35 -35 -67l-43 -39q-77 -67 -129 -67zM175 -7q-52 0 -81 29.5t-29 80.5v511q0 56 29.5 85.5t85.5 29.5l169 -1q311 -2 311 -259
q0 -132 -107 -215l69 -104q22 -33 22 -65q0 -36 -32 -64t-85 -28q-32 0 -53 15.5t-41 50.5l-89 151h-60v-107q0 -51 -28.5 -80.5t-80.5 -29.5zM284 553v-176h64q95 0 95 88t-101 88h-58z" />
    <glyph glyph-name="rcaron" unicode="&#x159;" horiz-adv-x="450" 
d="M230 552q-51 0 -130 67l-44 39q-33 30 -33 67q0 32 21 53t52 21q27 0 47 -19l86 -73h2l85 73q20 19 48 19q30 0 51.5 -21t21.5 -53q0 -36 -34 -67l-43 -39q-77 -67 -130 -67zM159 -7q-53 0 -82 29.5t-29 80.5v327q0 40 23.5 64t65.5 24q40 0 63.5 -19.5t25.5 -54.5v-6h2
q41 88 129 88q42 0 65 -25.5t23 -61.5q0 -38 -23.5 -65.5t-68.5 -27.5q-85 0 -85 -106v-137q0 -51 -28.5 -80.5t-80.5 -29.5z" />
    <glyph glyph-name="Sacute" unicode="&#x15a;" horiz-adv-x="658" 
d="M271 934l64 81q34 44 81 44q40 0 65 -27t25 -66q0 -48 -39 -79l-83 -70q-32 -24 -57 -24q-34 0 -56.5 22.5t-22.5 56.5q0 36 23 62zM624 221q0 -117 -78 -177.5t-219 -60.5q-139 0 -228 55q-63 39 -63 96q0 42 24.5 67.5t64.5 25.5q26 0 87 -27.5t104 -27.5
q34 0 51.5 12.5t17.5 31.5q0 7 -3 13.5t-9.5 11.5t-13.5 9t-18.5 8t-20.5 6.5t-23.5 7t-23.5 7.5q-40 14 -64 23.5t-58.5 29.5t-53.5 42.5t-33.5 59.5t-14.5 82q0 102 74 160.5t204 58.5q143 0 222 -52q48 -33 48 -81q0 -42 -23.5 -68t-64.5 -26q-33 0 -84 21t-81 21
q-59 0 -59 -40q0 -13 12 -22.5t23.5 -14t37.5 -12.5q113 -35 150 -54q116 -59 116 -186z" />
    <glyph glyph-name="sacute" unicode="&#x15b;" horiz-adv-x="545" 
d="M218 712l65 81q34 44 80 44q40 0 65.5 -27t25.5 -66q0 -47 -40 -78l-82 -70q-33 -24 -58 -24q-34 0 -56.5 22.5t-22.5 55.5q0 36 23 62zM273 -16q-130 0 -200 45q-45 29 -45 76q0 32 19 51.5t51 19.5q25 0 71.5 -22.5t76.5 -22.5q43 0 43 23q0 15 -15.5 22t-48.5 15
q-9 2 -14 3q-83 23 -127 62.5t-44 107.5q0 73 62.5 117.5t171.5 44.5q117 0 183 -43q45 -27 45 -70q0 -34 -22.5 -54t-58.5 -16q-16 1 -57.5 16.5t-66.5 15.5q-38 0 -38 -21q0 -14 13 -20t47 -14q6 -1 9 -2q31 -7 49 -12t48.5 -18.5t47 -29t30 -43.5t13.5 -63
q0 -76 -62 -122t-181 -46z" />
    <glyph glyph-name="Scedilla" unicode="&#x15e;" horiz-adv-x="658" 
d="M624 221q0 -101 -59 -160t-167 -74l-8 -20q4 -1 10.5 -2.5t23 -9t29 -18.5t23 -32.5t10.5 -48.5q0 -52 -41.5 -87.5t-118.5 -35.5q-53 0 -87 22q-31 20 -31 52q0 25 14 40t35 15q10 0 23.5 -4.5t19.5 -4.5q27 0 27 26t-35 26q-22 0 -31 10.5t-2 38.5l9 32
q-103 11 -169 52q-63 39 -63 96q0 42 24.5 67.5t64.5 25.5q26 0 87 -27.5t104 -27.5q34 0 51.5 12.5t17.5 31.5q0 7 -3 13.5t-9.5 11.5t-13.5 9t-18.5 8t-20.5 6.5t-23.5 7t-23.5 7.5q-40 14 -64 23.5t-58.5 29.5t-53.5 42.5t-33.5 59.5t-14.5 82q0 102 74 160.5t204 58.5
q143 0 222 -52q48 -33 48 -81q0 -42 -23.5 -68t-64.5 -26q-33 0 -84 21t-81 21q-59 0 -59 -40q0 -13 12 -22.5t23.5 -14t37.5 -12.5q113 -35 150 -54q116 -59 116 -186z" />
    <glyph glyph-name="scedilla" unicode="&#x15f;" horiz-adv-x="545" 
d="M516 152q0 -64 -44 -107.5t-130 -55.5l-8 -21q4 -1 10.5 -2.5t23 -9t29 -18.5t23 -32.5t10.5 -48.5q0 -52 -41.5 -87.5t-118.5 -35.5q-53 0 -87 22q-31 20 -31 52q0 25 14 40t35 15q9 0 22 -4.5t20 -4.5q27 0 27 26t-34 26q-22 0 -31 10.5t-2 38.5l9 32q-88 10 -139 42
q-45 29 -45 76q0 32 19 51.5t51 19.5q25 0 71.5 -22.5t76.5 -22.5q43 0 43 23q0 15 -15.5 22t-48.5 15q-9 2 -14 3q-83 23 -127 62.5t-44 107.5q0 73 62.5 117.5t171.5 44.5q117 0 183 -43q45 -27 45 -70q0 -34 -22.5 -54t-58.5 -16q-16 1 -57.5 16.5t-66.5 15.5
q-38 0 -38 -21q0 -14 13 -20t47 -14q6 -1 9 -2q31 -7 49 -12t48.5 -18.5t47 -29t30 -43.5t13.5 -63z" />
    <glyph glyph-name="Scaron" unicode="&#x160;" horiz-adv-x="658" 
d="M328 788q-52 0 -130 68l-44 39q-33 28 -33 67q0 32 21 53t52 21q25 0 47 -19l86 -73h2l85 73q22 19 48 19q30 0 51.5 -21t21.5 -53q0 -36 -34 -67l-43 -39q-78 -68 -130 -68zM624 221q0 -117 -78 -177.5t-219 -60.5q-139 0 -228 55q-63 39 -63 96q0 42 24.5 67.5
t64.5 25.5q26 0 87 -27.5t104 -27.5q34 0 51.5 12.5t17.5 31.5q0 7 -3 13.5t-9.5 11.5t-13.5 9t-18.5 8t-20.5 6.5t-23.5 7t-23.5 7.5q-40 14 -64 23.5t-58.5 29.5t-53.5 42.5t-33.5 59.5t-14.5 82q0 102 74 160.5t204 58.5q143 0 222 -52q48 -33 48 -81q0 -42 -23.5 -68
t-64.5 -26q-33 0 -84 21t-81 21q-59 0 -59 -40q0 -13 12 -22.5t23.5 -14t37.5 -12.5q113 -35 150 -54q116 -59 116 -186z" />
    <glyph glyph-name="scaron" unicode="&#x161;" horiz-adv-x="545" 
d="M275 567q-51 0 -130 67l-43 39q-34 31 -34 67q0 32 21.5 53t51.5 21q28 0 48 -19l85 -73h2l85 73q22 19 48 19q31 0 52 -21t21 -53q0 -36 -34 -67l-43 -39q-77 -67 -130 -67zM273 -16q-130 0 -200 45q-45 29 -45 76q0 32 19 51.5t51 19.5q25 0 71.5 -22.5t76.5 -22.5
q43 0 43 23q0 15 -15.5 22t-48.5 15q-9 2 -14 3q-83 23 -127 62.5t-44 107.5q0 73 62.5 117.5t171.5 44.5q117 0 183 -43q45 -27 45 -70q0 -34 -22.5 -54t-58.5 -16q-16 1 -57.5 16.5t-66.5 15.5q-38 0 -38 -21q0 -14 13 -20t47 -14q6 -1 9 -2q31 -7 49 -12t48.5 -18.5
t47 -29t30 -43.5t13.5 -63q0 -76 -62 -122t-181 -46z" />
    <glyph glyph-name="uni0162" unicode="&#x162;" horiz-adv-x="679" 
d="M569 728q47 0 74.5 -28t27.5 -75t-27 -74.5t-74 -27.5h-120l-1 -420q0 -68 -48 -95l-12 -36q4 -1 10.5 -2.5t23 -9t29 -18.5t23 -32.5t10.5 -48.5q0 -52 -42 -87.5t-119 -35.5q-51 0 -86 22q-32 22 -32 52q0 25 14.5 40t34.5 15q10 0 23.5 -4.5t19.5 -4.5q27 0 27 26
t-34 26q-23 0 -32 10.5t-1 39.5l13 46q0 1 0.5 2.5t1.5 2.5q-43 29 -43 92l-1 420h-119q-47 0 -74.5 27.5t-27.5 74.5t27.5 75t74.5 28h459z" />
    <glyph glyph-name="uni0163" unicode="&#x163;" horiz-adv-x="473" 
d="M394 179q26 0 44 -21t18 -56q0 -43 -24 -70q-32 -37 -99 -46l-9 -24q4 -1 10.5 -2t23 -8.5t29 -18.5t23 -32.5t10.5 -48.5q0 -52 -41.5 -88t-118.5 -36q-52 0 -87 23q-31 20 -31 52q0 25 14 39.5t35 14.5q9 0 22 -4.5t20 -4.5q28 0 28 27q0 25 -35 25q-46 0 -33 50l14 45
q0 1 1 3v2q-109 45 -109 196v142q-39 1 -61.5 24.5t-22.5 62.5q0 40 23 63t63 23h10q1 1 1 2q11 52 40.5 84t73.5 32q93 0 93 -101v-17h38q40 0 63.5 -23t23.5 -63t-23.5 -63.5t-63.5 -23.5h-38v-111q0 -57 31 -57q8 0 21.5 4.5t22.5 4.5z" />
    <glyph glyph-name="Tcaron" unicode="&#x164;" horiz-adv-x="679" 
d="M339 761q-51 0 -130 67l-43 39q-34 29 -34 67q0 32 21.5 53t51.5 21q28 0 48 -19l85 -73h2l86 73q20 19 47 19q31 0 52 -21t21 -53q0 -36 -34 -67l-43 -39q-77 -67 -130 -67zM340 -7q-52 0 -81 29.5t-29 80.5l-1 420h-119q-47 0 -74.5 27.5t-27.5 74.5t27.5 75t74.5 28
h459q47 0 74.5 -28t27.5 -75t-27 -74.5t-74 -27.5h-120l-1 -420q0 -51 -28.5 -80.5t-80.5 -29.5z" />
    <glyph glyph-name="tcaron" unicode="&#x165;" horiz-adv-x="473" 
d="M437 839q43 0 66.5 -27t19.5 -66q-9 -72 -35 -145q-18 -49 -71 -49q-41 0 -59.5 23.5t-14.5 60.5q7 60 10 121q1 36 23.5 59t60.5 23zM394 179q26 0 44 -21t18 -56q0 -43 -24 -70q-41 -48 -133 -48q-100 0 -150 58t-50 154v142q-39 1 -61.5 24.5t-22.5 62.5q0 40 23 63
t63 23h10q1 1 1 2q11 52 40.5 84t73.5 32q93 0 93 -101v-17h38q40 0 63.5 -23t23.5 -63t-23.5 -63.5t-63.5 -23.5h-38v-111q0 -57 31 -57q8 0 21.5 4.5t22.5 4.5z" />
    <glyph glyph-name="Tbar" unicode="&#x166;" horiz-adv-x="691" 
d="M576 523h-120v-144h50q33 0 55.5 -21t22.5 -57t-22.5 -57t-55.5 -21h-51v-120q0 -51 -28 -80.5t-80 -29.5q-53 0 -82 29.5t-29 80.5v120h-57q-33 0 -55.5 21t-22.5 57t22.5 57t55.5 21h57v144h-120q-47 0 -74.5 27.5t-27.5 74.5t28 75t75 28h458q47 0 75 -28t28 -75
t-27.5 -74.5t-74.5 -27.5z" />
    <glyph glyph-name="tbar" unicode="&#x167;" horiz-adv-x="476" 
d="M395 179q27 0 44.5 -20.5t17.5 -56.5q0 -41 -24 -70q-41 -48 -132 -48q-99 0 -149 58t-50 154v47h-32q-22 0 -37 14t-15 38q0 23 15 37t37 14h32v38h-19q-29 0 -46 17t-17 47t17 46.5t46 16.5h31q1 1 1 2q11 52 40.5 84t73.5 32q93 0 93 -101v-17h60q29 0 46.5 -16.5
t17.5 -46.5t-17.5 -47t-46.5 -17h-60v-38h72q22 0 37 -14t15 -37q0 -25 -14.5 -38.5t-37.5 -13.5h-72v-16q0 -57 30 -57q8 0 21 4.5t22 4.5z" />
    <glyph glyph-name="Utilde" unicode="&#x168;" horiz-adv-x="772" 
d="M294 969q53 0 99 -22t60 -22q7 0 12.5 1.5t10 4.5t7.5 6t7.5 8.5t7.5 8.5q20 20 50 20q33 0 50 -24t17 -60q0 -47 -34.5 -85t-95.5 -38q-51 0 -101 23.5t-71 23.5q-6 0 -11.5 -1.5t-8.5 -2.5t-7 -4.5t-5.5 -5t-5.5 -7t-5 -6.5q-16 -24 -52 -24q-32 0 -50 22t-18 54
q0 55 41 92.5t103 37.5zM386 -16q-164 0 -247.5 90.5t-83.5 265.5v277q0 51 29 81t82 30q52 0 80 -30t28 -81v-305q0 -132 112 -132q110 0 110 132v305q0 51 29 81t82 30q52 0 80 -30t28 -81v-277q0 -356 -329 -356z" />
    <glyph glyph-name="utilde" unicode="&#x169;" 
d="M233 773q53 0 99 -22t60 -22q7 0 12.5 1.5t10 4.5t7.5 6t7.5 8.5t7.5 8.5q20 20 50 20q33 0 50 -24t17 -60q0 -47 -34.5 -85t-95.5 -38q-50 0 -101 23.5t-71 23.5q-5 0 -9.5 -0.5t-8.5 -2.5t-6.5 -3t-5.5 -4.5t-4 -5t-4.5 -6.5t-4.5 -6q-15 -23 -52 -23q-32 0 -49.5 22
t-17.5 54q0 55 40.5 92.5t102.5 37.5zM245 -16q-101 0 -151.5 64t-50.5 204v155q0 51 29 81t81 30t80.5 -30t28.5 -81v-153q0 -77 51 -77q29 0 44 21t15 55l1 154q0 51 29 81t81 30t80.5 -30t28.5 -81v-326q0 -41 -23.5 -64.5t-65.5 -23.5q-40 0 -64 22t-26 58v7h-2
q-18 -46 -65.5 -71t-100.5 -25z" />
    <glyph glyph-name="Umacron" unicode="&#x16a;" horiz-adv-x="772" 
d="M518 809h-250q-31 0 -53.5 23t-22.5 55q0 31 22.5 53.5t53.5 22.5h250q31 0 53.5 -23t22.5 -55q0 -31 -22.5 -53.5t-53.5 -22.5zM386 -16q-164 0 -247.5 90.5t-83.5 265.5v277q0 51 29 81t82 30q52 0 80 -30t28 -81v-305q0 -132 112 -132q110 0 110 132v305q0 51 29 81
t82 30q52 0 80 -30t28 -81v-277q0 -356 -329 -356z" />
    <glyph glyph-name="umacron" unicode="&#x16b;" 
d="M448 613h-250q-31 0 -53.5 23t-22.5 55q0 31 22.5 53.5t53.5 22.5h250q32 0 54.5 -23t22.5 -55q0 -31 -23 -53.5t-54 -22.5zM245 -16q-101 0 -151.5 64t-50.5 204v155q0 51 29 81t81 30t80.5 -30t28.5 -81v-153q0 -77 51 -77q29 0 44 21t15 55l1 154q0 51 29 81t81 30
t80.5 -30t28.5 -81v-326q0 -41 -23.5 -64.5t-65.5 -23.5q-40 0 -64 22t-26 58v7h-2q-18 -46 -65.5 -71t-100.5 -25z" />
    <glyph glyph-name="Uring" unicode="&#x16e;" horiz-adv-x="772" 
d="M386 748q-61 0 -100 34t-39 94t39 94t100 34t100 -34t39 -94t-39 -94t-100 -34zM386 842q28 0 28 34q0 33 -28 33q-27 0 -27 -33q0 -34 27 -34zM386 -16q-164 0 -247.5 90.5t-83.5 265.5v277q0 51 29 81t82 30q52 0 80 -30t28 -81v-305q0 -132 112 -132q110 0 110 132
v305q0 51 29 81t82 30q52 0 80 -30t28 -81v-277q0 -356 -329 -356z" />
    <glyph glyph-name="uring" unicode="&#x16f;" 
d="M316 552q-61 0 -99.5 34t-38.5 93q0 60 38.5 94.5t99.5 34.5t100 -34.5t39 -94.5q0 -59 -39 -93t-100 -34zM316 645q28 0 28 34t-28 34q-27 0 -27 -34t27 -34zM245 -16q-101 0 -151.5 64t-50.5 204v155q0 51 29 81t81 30t80.5 -30t28.5 -81v-153q0 -77 51 -77q29 0 44 21
t15 55l1 154q0 51 29 81t81 30t80.5 -30t28.5 -81v-326q0 -41 -23.5 -64.5t-65.5 -23.5q-40 0 -64 22t-26 58v7h-2q-18 -46 -65.5 -71t-100.5 -25z" />
    <glyph glyph-name="Uhungarumlaut" unicode="&#x170;" horiz-adv-x="772" 
d="M266 751q-36 0 -62 25t-26 62q0 29 17 57l47 82q29 50 79 50q40 0 71 -28.5t31 -68.5q0 -30 -20 -57l-56 -76q-33 -46 -81 -46zM511 751q-36 0 -62 25t-26 62q0 28 16 57l48 82q29 50 79 50q40 0 71 -28.5t31 -68.5q0 -30 -20 -57l-56 -76q-33 -46 -81 -46zM386 -16
q-164 0 -247.5 90.5t-83.5 265.5v277q0 51 29 81t82 30q52 0 80 -30t28 -81v-305q0 -132 112 -132q110 0 110 132v305q0 51 29 81t82 30q52 0 80 -30t28 -81v-277q0 -356 -329 -356z" />
    <glyph glyph-name="uhungarumlaut" unicode="&#x171;" 
d="M193 554q-36 0 -61.5 25t-25.5 63q0 28 16 57l47 82q29 50 79 50q40 0 71.5 -28.5t31.5 -68.5q0 -28 -20 -57l-57 -76q-34 -47 -81 -47zM438 554q-36 0 -61.5 25t-25.5 63q0 28 16 57l47 82q29 50 79 50q40 0 71.5 -28.5t31.5 -68.5q0 -28 -20 -57l-57 -76
q-34 -47 -81 -47zM245 -16q-101 0 -151.5 64t-50.5 204v155q0 51 29 81t81 30t80.5 -30t28.5 -81v-153q0 -77 51 -77q29 0 44 21t15 55l1 154q0 51 29 81t81 30t80.5 -30t28.5 -81v-326q0 -41 -23.5 -64.5t-65.5 -23.5q-40 0 -64 22t-26 58v7h-2q-18 -46 -65.5 -71
t-100.5 -25z" />
    <glyph glyph-name="Uogonek" unicode="&#x172;" horiz-adv-x="772" 
d="M607 728q52 0 80 -30t28 -81v-277q0 -303 -238 -348l-6 -5q-57 -42 -57 -98q0 -41 35 -41q4 0 11 1t12 1q23 0 38.5 -17.5t15.5 -46.5q0 -31 -25 -51q-31 -23 -85 -23q-72 0 -115.5 42t-43.5 114q0 70 39 124q-241 47 -241 348v277q0 51 29 81t82 30q52 0 80 -30t28 -81
v-305q0 -132 112 -132q110 0 110 132v305q0 51 29 81t82 30z" />
    <glyph glyph-name="uogonek" unicode="&#x173;" 
d="M558 -129q23 0 38.5 -17.5t15.5 -46.5q0 -31 -25 -51q-30 -24 -85 -24q-71 0 -115 43t-44 114q0 96 74 161q-4 14 -4 23v7h-2q-18 -46 -65.5 -71t-100.5 -25q-101 0 -151.5 64t-50.5 204v155q0 51 29 81t81 30t80.5 -30t28.5 -81v-153q0 -77 51 -77q29 0 44 21t15 55
l1 154q0 51 29 81t81 30t80.5 -30t28.5 -81v-326q0 -55 -40 -77q-52 -42 -52 -95q0 -40 36 -40q4 0 11 1t11 1z" />
    <glyph glyph-name="Wcircumflex" unicode="&#x174;" horiz-adv-x="1041" 
d="M388 758q-31 0 -52 21t-21 53q0 36 34 67l43 39q26 22 42 33.5t41 22.5t47 11q52 0 129 -67l44 -39q34 -31 34 -67q0 -32 -21.5 -53t-52.5 -21q-24 0 -47 19l-85 71h-2l-86 -71q-22 -19 -47 -19zM319 -7q-60 0 -89.5 32.5t-55.5 116.5l-145 454q-17 56 11.5 94t89.5 38
q51 0 73.5 -23t35.5 -74l82 -333h2l76 316q15 62 45 88t82 26q47 0 75 -26.5t43 -87.5l76 -316h2l82 333q13 53 36 75t70 22q60 0 90.5 -38t12.5 -94l-143 -447q-26 -88 -56.5 -122t-90.5 -34t-90.5 37t-50.5 118l-59 239h-2l-62 -241q-22 -80 -52 -116.5t-88 -36.5z" />
    <glyph glyph-name="wcircumflex" unicode="&#x175;" horiz-adv-x="834" 
d="M283 549q-31 0 -52 21t-21 53q0 36 34 67l43 39q39 33 68.5 50t61.5 17q53 0 130 -67l43 -39q34 -29 34 -67q0 -32 -21.5 -53t-51.5 -21q-25 0 -48 19l-85 71h-2l-85 -71q-23 -19 -48 -19zM251 -7h-8q-61 0 -93 35.5t-52 108.5l-69 255q-15 58 11 92t85 34q70 0 90 -96
l46 -208h2l41 191q11 59 38 86t76 27h6q46 -1 70 -27.5t36 -84.5l41 -192h2l46 208q10 49 31.5 72.5t67.5 23.5q52 0 76.5 -34.5t9.5 -91.5l-69 -255q-20 -72 -52 -108t-92 -36h-7q-105 0 -138 138l-28 115h-2l-29 -115q-31 -138 -136 -138z" />
    <glyph glyph-name="Ycircumflex" unicode="&#x176;" horiz-adv-x="657" 
d="M195 767q-30 0 -51.5 21t-21.5 53q0 36 34 67l43 39q27 22 43 34t40.5 23t46.5 11q52 0 130 -68l44 -39q33 -28 33 -67q0 -32 -21 -53t-52 -21q-25 0 -48 19l-85 71h-2l-85 -71q-23 -19 -48 -19zM330 -7q-55 0 -85.5 31t-30.5 85v147l-172 304q-21 39 -21 74
q0 41 28 67.5t77 26.5q38 0 59.5 -17.5t46.5 -68.5l96 -190h2l95 190q25 51 46.5 68.5t59.5 17.5q48 0 76 -26t28 -67q0 -37 -21 -74l-170 -305v-147q0 -54 -29.5 -85t-84.5 -31z" />
    <glyph glyph-name="ycircumflex" unicode="&#x177;" horiz-adv-x="573" 
d="M154 549q-31 0 -52.5 21t-21.5 53q0 36 34 67l44 39q26 22 42 33.5t40.5 22.5t46.5 11q53 0 130 -67l44 -39q33 -28 33 -67q0 -32 -21 -53t-52 -21q-25 0 -47 19l-86 71h-2l-85 -71q-23 -19 -47 -19zM156 -230q-51 0 -83 19q-48 26 -48 84q0 35 20 56.5t54 21.5
q5 0 10 -0.5t9 -0.5q27 0 41 11t22 35l-150 384q-20 53 9 95.5t89 42.5q46 0 66.5 -22t29.5 -62l65 -271h2l51 245q13 110 102 110q66 0 92.5 -40t4.5 -101l-133 -365q-50 -135 -108.5 -188.5t-144.5 -53.5z" />
    <glyph glyph-name="Ydieresis" unicode="&#x178;" horiz-adv-x="657" 
d="M201 787q-54 0 -83 29t-29 74q0 43 30 73.5t82 30.5q51 0 80.5 -30.5t29.5 -73.5q0 -45 -28.5 -74t-81.5 -29zM463 787q-54 0 -83 29t-29 74q0 43 30 73.5t82 30.5q51 0 80.5 -30.5t29.5 -73.5q0 -45 -28.5 -74t-81.5 -29zM330 -7q-55 0 -85.5 31t-30.5 85v147l-172 304
q-21 39 -21 74q0 41 28 67.5t77 26.5q38 0 59.5 -17.5t46.5 -68.5l96 -190h2l95 190q25 51 46.5 68.5t59.5 17.5q48 0 76 -26t28 -67q0 -37 -21 -74l-170 -305v-147q0 -54 -29.5 -85t-84.5 -31z" />
    <glyph glyph-name="Zacute" unicode="&#x179;" horiz-adv-x="700" 
d="M281 913l64 81q34 44 80 44q40 0 65.5 -27t25.5 -66q0 -47 -39 -79l-83 -70q-32 -24 -58 -24q-33 0 -56 22.5t-23 56.5q0 35 24 62zM577 -7h-447q-49 0 -77.5 30t-28.5 76q0 38 25 68l298 366h-209q-45 0 -72 25.5t-27 71.5t27 72t72 26h415q53 0 81 -30t28 -79
q0 -42 -27 -72l-303 -360h245q45 0 72 -25.5t27 -71.5t-26.5 -71.5t-72.5 -25.5z" />
    <glyph glyph-name="zacute" unicode="&#x17a;" horiz-adv-x="556" 
d="M218 697l64 81q34 44 81 44q40 0 65 -27t25 -66q0 -46 -39 -78l-83 -70q-32 -24 -57 -24q-34 0 -56.5 22.5t-22.5 55.5q0 36 23 62zM440 -7h-322q-45 0 -68.5 25t-23.5 68q0 34 27 64l171 196h-100q-41 0 -64.5 22.5t-23.5 63.5t24 63.5t64 22.5h299q47 0 74 -24.5
t27 -63.5q0 -38 -30 -69l-177 -196h123q40 0 64 -22.5t24 -63.5t-23.5 -63.5t-64.5 -22.5z" />
    <glyph glyph-name="Zdotaccent" unicode="&#x17b;" horiz-adv-x="700" 
d="M348 784q-56 0 -90.5 32t-34.5 87t34.5 86t90.5 31t89.5 -31t33.5 -86q0 -56 -33.5 -87.5t-89.5 -31.5zM577 -7h-447q-49 0 -77.5 30t-28.5 76q0 38 25 68l298 366h-209q-45 0 -72 25.5t-27 71.5t27 72t72 26h415q53 0 81 -30t28 -79q0 -42 -27 -72l-303 -360h245
q45 0 72 -25.5t27 -71.5t-26.5 -71.5t-72.5 -25.5z" />
    <glyph glyph-name="zdotaccent" unicode="&#x17c;" horiz-adv-x="556" 
d="M275 568q-56 0 -90.5 32t-34.5 87t34.5 86.5t90.5 31.5t90 -31.5t34 -86.5t-33.5 -87t-90.5 -32zM440 -7h-322q-45 0 -68.5 25t-23.5 68q0 34 27 64l171 196h-100q-41 0 -64.5 22.5t-23.5 63.5t24 63.5t64 22.5h299q47 0 74 -24.5t27 -63.5q0 -38 -30 -69l-177 -196h123
q40 0 64 -22.5t24 -63.5t-23.5 -63.5t-64.5 -22.5z" />
    <glyph glyph-name="Zcaron" unicode="&#x17d;" horiz-adv-x="700" 
d="M351 767q-52 0 -130 68l-44 38q-33 30 -33 68q0 32 21 53t52 21q25 0 47 -19l86 -73h2l85 73q22 19 47 19q31 0 52.5 -21t21.5 -53q0 -36 -34 -68l-44 -38q-78 -68 -129 -68zM577 -7h-447q-49 0 -77.5 30t-28.5 76q0 38 25 68l298 366h-209q-45 0 -72 25.5t-27 71.5
t27 72t72 26h415q53 0 81 -30t28 -79q0 -42 -27 -72l-303 -360h245q45 0 72 -25.5t27 -71.5t-26.5 -71.5t-72.5 -25.5z" />
    <glyph glyph-name="zcaron" unicode="&#x17e;" horiz-adv-x="556" 
d="M275 552q-51 0 -130 67l-44 39q-33 30 -33 67q0 32 21 53t52 21q27 0 47 -19l86 -73h2l85 73q20 19 48 19q30 0 51.5 -21t21.5 -53q0 -36 -34 -67l-43 -39q-77 -67 -130 -67zM440 -7h-322q-45 0 -68.5 25t-23.5 68q0 34 27 64l171 196h-100q-41 0 -64.5 22.5t-23.5 63.5
t24 63.5t64 22.5h299q47 0 74 -24.5t27 -63.5q0 -38 -30 -69l-177 -196h123q40 0 64 -22.5t24 -63.5t-23.5 -63.5t-64.5 -22.5z" />
    <glyph glyph-name="uni01EA" unicode="&#x1ea;" horiz-adv-x="835" 
d="M503 -10q-57 -42 -57 -98q0 -40 35 -40q4 0 11 0.5t11 0.5q24 0 39 -17.5t15 -46.5q0 -32 -25 -51q-29 -23 -84 -23q-72 0 -116 42.5t-44 114.5q0 70 38 121q-137 26 -214 124t-77 242q0 164 104 270t278 106t278 -106t104 -270q0 -145 -77.5 -243.5t-215.5 -123.5
q-1 0 -3 -2zM263 359q0 -85 42.5 -131.5t111.5 -46.5q71 0 113 46.5t42 131.5q0 87 -43 133t-112 46t-111.5 -46t-42.5 -133z" />
    <glyph glyph-name="uni01EB" unicode="&#x1eb;" horiz-adv-x="632" 
d="M400 -7q-50 -42 -50 -93q0 -40 35 -40q4 0 11 0.5t12 0.5q23 0 38 -17.5t15 -46.5q0 -32 -24 -51q-31 -23 -85 -23q-72 0 -116 42.5t-44 114.5q0 64 33 115q-93 22 -144.5 90.5t-51.5 168.5q0 125 77.5 198.5t209.5 73.5q131 0 209 -73.5t78 -198.5q0 -102 -53.5 -171
t-149.5 -90zM315 344q-70 0 -69 -90q0 -44 19 -66t51 -22q34 0 52.5 23.5t18.5 65.5q0 41 -19 65t-53 24z" />
    <glyph glyph-name="AEacute" unicode="&#x1fc;" horiz-adv-x="959" 
d="M544 766q-34 0 -57 22.5t-23 55.5q0 35 24 62l64 81q34 44 81 44q39 0 64.5 -27t25.5 -66q0 -47 -39 -79l-83 -69q-31 -24 -57 -24zM836 162q39 0 62 -22.5t23 -62.5q0 -39 -22.5 -61.5t-61.5 -22.5h-297q-56 0 -85.5 29.5t-29.5 85.5v6h-182l-26 -58
q-12 -32 -33.5 -47.5t-64.5 -15.5q-62 0 -91 45.5t-5 98.5l220 462q32 76 65 102.5t93 26.5h435q39 0 62 -23t23 -62q0 -40 -23 -62.5t-62 -22.5h-192v-110h159q41 0 65 -23.5t24 -64.5t-24 -64.5t-64 -23.5h-160v-110h192zM316 280h109v241h-2z" />
    <glyph glyph-name="aeacute" unicode="&#x1fd;" horiz-adv-x="899" 
d="M445 571q-34 0 -56.5 22.5t-22.5 55.5q0 37 23 62l65 81q34 44 80 44q40 0 65 -27t25 -66q0 -47 -39 -78l-83 -70q-31 -24 -57 -24zM777 170q33 0 53 -21t20 -54q0 -52 -49 -81q-50 -30 -153 -30q-156 0 -234 83q-29 -30 -81.5 -56.5t-119.5 -26.5q-89 0 -140 40.5
t-51 114.5q0 82 57 123t144 41q71 0 122 -26q0 45 -25.5 60t-74.5 15q-25 0 -69 -8q-25 -5 -42 -5q-32 0 -50 20t-18 54q0 61 71 90q59 23 147 23q116 0 172 -48q70 48 164 48q123 0 186.5 -64.5t63.5 -160.5q0 -46 -21.5 -67t-75.5 -21h-216q0 -59 104 -59q23 0 60 8t56 8z
M619 372q-29 0 -48.5 -18.5t-19.5 -47.5h130v9q0 25 -16.5 41t-45.5 16zM272 124q26 0 47.5 18t25.5 45q-27 17 -61 17q-26 0 -42.5 -11.5t-16.5 -30.5q0 -38 47 -38z" />
    <glyph glyph-name="Oslashacute" unicode="&#x1fe;" horiz-adv-x="863" 
d="M425 781q-34 0 -56.5 22.5t-22.5 55.5q0 36 23 62l64 81q34 44 81 44q39 0 64.5 -27t25.5 -66q0 -47 -39 -79l-83 -69q-31 -24 -57 -24zM811 584l-39 -39q43 -83 43 -186q0 -168 -102 -271t-279 -103q-107 0 -189 40l-38 -38q-35 -35 -75 -35q-44 0 -77 33.5t-33 79.5
q0 41 37 76l33 33q-41 80 -41 185q0 164 104 270t278 106q102 0 186 -41l41 41q34 31 75 31q44 0 76.5 -33.5t32.5 -75.5q0 -40 -33 -73zM433 181q71 0 112.5 46.5t41.5 131.5q0 88 -42.5 133.5t-112.5 45.5q-68 0 -110.5 -46t-42.5 -133q0 -85 42.5 -131.5t111.5 -46.5z
" />
    <glyph glyph-name="oslashacute" unicode="&#x1ff;" 
d="M319 584q-34 0 -56.5 22.5t-22.5 56.5q0 36 23 61l64 82q34 44 81 44q39 0 64.5 -27.5t25.5 -65.5q0 -47 -39 -79l-83 -70q-32 -24 -57 -24zM586 391l-7 -7q28 -58 28 -130q0 -123 -76.5 -196.5t-209.5 -73.5q-71 0 -126 21l-13 -13q-32 -28 -67 -27.5t-62 27t-27 64.5
q0 36 28 65l6 6q-26 57 -26 127q0 125 77.5 198.5t208.5 73.5q70 0 124 -21l14 14q32 27 66.5 26t62 -27.5t27.5 -63.5q0 -35 -28 -63zM320 166q34 0 52.5 23.5t18.5 65.5q0 41 -19 65t-52 24q-71 0 -70 -90q0 -44 19 -66t51 -22z" />
    <glyph glyph-name="uni0218" unicode="&#x218;" horiz-adv-x="658" 
d="M624 221q0 -117 -78 -177.5t-219 -60.5q-139 0 -228 55q-63 39 -63 96q0 42 24.5 67.5t64.5 25.5q26 0 87 -27.5t104 -27.5q34 0 51.5 12.5t17.5 31.5q0 7 -3 13.5t-9.5 11.5t-13.5 9t-18.5 8t-20.5 6.5t-23.5 7t-23.5 7.5q-40 14 -64 23.5t-58.5 29.5t-53.5 42.5
t-33.5 59.5t-14.5 82q0 102 74 160.5t204 58.5q143 0 222 -52q48 -33 48 -81q0 -42 -23.5 -68t-64.5 -26q-33 0 -84 21t-81 21q-59 0 -59 -40q0 -13 12 -22.5t23.5 -14t37.5 -12.5q113 -35 150 -54q116 -59 116 -186zM301 -335q-41 0 -59.5 24t-13.5 60q7 71 9 122
q1 35 23.5 58.5t60.5 23.5q43 0 66.5 -27.5t19.5 -66.5q-8 -72 -35 -144q-18 -50 -71 -50z" />
    <glyph glyph-name="uni0219" unicode="&#x219;" horiz-adv-x="545" 
d="M273 -16q-130 0 -200 45q-45 29 -45 76q0 32 19 51.5t51 19.5q25 0 71.5 -22.5t76.5 -22.5q43 0 43 23q0 15 -15.5 22t-48.5 15q-9 2 -14 3q-83 23 -127 62.5t-44 107.5q0 73 62.5 117.5t171.5 44.5q117 0 183 -43q45 -27 45 -70q0 -34 -22.5 -54t-58.5 -16
q-16 1 -57.5 16.5t-66.5 15.5q-38 0 -38 -21q0 -14 13 -20t47 -14q6 -1 9 -2q31 -7 49 -12t48.5 -18.5t47 -29t30 -43.5t13.5 -63q0 -76 -62 -122t-181 -46zM244 -333q-40 0 -58.5 23.5t-14.5 59.5q7 62 10 122q1 35 23.5 58.5t60.5 23.5q43 0 66 -27.5t19 -65.5
q-8 -71 -34 -145q-18 -49 -72 -49z" />
    <glyph glyph-name="uni021A" unicode="&#x21a;" horiz-adv-x="679" 
d="M340 -7q-52 0 -81 29.5t-29 80.5l-1 420h-119q-47 0 -74.5 27.5t-27.5 74.5t27.5 75t74.5 28h459q47 0 74.5 -28t27.5 -75t-27 -74.5t-74 -27.5h-120l-1 -420q0 -51 -28.5 -80.5t-80.5 -29.5zM310 -329q-40 0 -58.5 23.5t-14.5 60.5q7 60 10 121q1 36 23 59t61 23
q43 0 66 -27t19 -66q-8 -71 -34 -145q-18 -49 -72 -49z" />
    <glyph glyph-name="uni021B" unicode="&#x21b;" horiz-adv-x="473" 
d="M394 179q26 0 44 -21t18 -56q0 -43 -24 -70q-41 -48 -133 -48q-100 0 -150 58t-50 154v142q-39 1 -61.5 24.5t-22.5 62.5q0 40 23 63t63 23h10q1 1 1 2q11 52 40.5 84t73.5 32q93 0 93 -101v-17h38q40 0 63.5 -23t23.5 -63t-23.5 -63.5t-63.5 -23.5h-38v-111
q0 -57 31 -57q8 0 21.5 4.5t22.5 4.5zM266 -41q43 0 66 -27t19 -66q-8 -71 -34 -145q-18 -49 -71 -49q-41 0 -59.5 23.5t-14.5 60.5q7 60 10 121q1 36 23 59t61 23z" />
    <glyph glyph-name="uni0237" unicode="&#x237;" horiz-adv-x="328" 
d="M66 -230q-81 0 -125 39q-37 31 -37 79q0 34 20 56.5t53 22.5q10 0 26 -4.5t24 -4.5q20 0 25.5 17.5t5.5 56.5v375q0 51 28.5 81t80.5 30q53 0 82 -30t29 -81v-385q0 -50 -9.5 -91.5t-31.5 -79.5t-65.5 -59.5t-105.5 -21.5z" />
    <glyph glyph-name="circumflex" unicode="&#x2c6;" horiz-adv-x="600" 
d="M173 587q-31 0 -52 21t-21 53q0 36 34 68l43 38q27 23 42.5 34t40.5 22.5t47 11.5q51 0 129 -68l44 -38q33 -30 33 -68q0 -32 -21 -53t-52 -21q-24 0 -47 19l-85 71h-2l-86 -71q-23 -19 -47 -19z" />
    <glyph glyph-name="caron" unicode="&#x2c7;" horiz-adv-x="600" 
d="M286 544q-52 0 -130 68l-44 38q-33 30 -33 67q0 33 21.5 54t51.5 21q25 0 47 -19l86 -74h2l85 74q22 19 47 19q31 0 52.5 -21.5t21.5 -53.5q0 -35 -34 -67l-44 -38q-76 -68 -129 -68z" />
    <glyph glyph-name="breve" unicode="&#x2d8;" horiz-adv-x="600" 
d="M278 681q22 0 34.5 12t20.5 36q18 48 72 48q32 0 53 -20t21 -56q0 -67 -54.5 -111.5t-146.5 -44.5q-93 0 -147 45t-54 111q0 35 21.5 55.5t52.5 20.5q54 0 73 -51q17 -45 54 -45z" />
    <glyph glyph-name="dotaccent" unicode="&#x2d9;" horiz-adv-x="600" 
d="M166 561q-56 0 -90 31.5t-34 86.5t34 86.5t90 31.5t90 -31.5t34 -86.5t-33.5 -86.5t-90.5 -31.5z" />
    <glyph glyph-name="ring" unicode="&#x2da;" horiz-adv-x="600" 
d="M200 531q-61 0 -100 34t-39 94t39 94t100 34t100 -34t39 -94t-39 -94t-100 -34zM200 625q28 0 28 34t-28 34q-27 0 -27 -34t27 -34z" />
    <glyph glyph-name="ogonek" unicode="&#x2db;" horiz-adv-x="600" 
d="M213 -293q-72 0 -116 42.5t-44 114.5q0 139 149 209q12 6 30 6q22 0 40 -16.5t18 -37.5q0 -24 -22 -43q-57 -42 -57 -98q0 -40 35 -40q4 0 11 0.5t11 0.5q24 0 39 -17.5t15 -46.5q0 -32 -24 -51q-31 -23 -85 -23z" />
    <glyph glyph-name="tilde" unicode="&#x2dc;" horiz-adv-x="524" 
d="M190 753q53 0 99 -22t60 -22q9 0 16 3t10 5.5t9.5 10t9.5 10.5q22 20 50 20q33 0 50 -24.5t17 -59.5q0 -48 -34.5 -85.5t-95.5 -37.5q-51 0 -101.5 23.5t-70.5 23.5q-7 0 -13 -1t-11 -5t-6.5 -5.5t-6.5 -8.5t-6 -8q-16 -24 -52 -24q-32 0 -50 22.5t-18 54.5q0 55 41 92.5
t103 37.5z" />
    <glyph glyph-name="hungarumlaut" unicode="&#x2dd;" horiz-adv-x="600" 
d="M151 534q-36 0 -61.5 25t-25.5 62q0 29 16 57l47 83q30 49 80 49q40 0 71 -28t31 -68q0 -28 -20 -57l-57 -77q-34 -46 -81 -46zM396 534q-36 0 -61.5 25t-25.5 62q0 29 16 57l47 83q30 49 79 49q41 0 72 -28t31 -68q0 -28 -20 -57l-57 -77q-34 -46 -81 -46z" />
    <glyph glyph-name="gravecomb" unicode="&#x300;" horiz-adv-x="0" 
d="M-165 770l64 -81q24 -26 24 -62q0 -33 -23 -55.5t-57 -22.5q-25 0 -57 24l-83 70q-39 32 -39 79q0 38 25.5 65.5t65.5 27.5q45 0 80 -45z" />
    <glyph glyph-name="acutecomb" unicode="&#x301;" horiz-adv-x="0" 
d="M-361 689l65 81q35 45 80 45q40 0 65.5 -27.5t25.5 -65.5q0 -48 -40 -79l-82 -70q-33 -24 -58 -24q-34 0 -56.5 22.5t-22.5 55.5q0 37 23 62z" />
    <glyph glyph-name="uni0302" unicode="&#x302;" horiz-adv-x="0" 
d="M-441 587q-31 0 -52 21t-21 53q0 36 34 68l43 38q27 23 42.5 34t40.5 22.5t47 11.5q51 0 129 -68l44 -38q33 -30 33 -68q0 -32 -21 -53t-52 -21q-24 0 -47 19l-85 71h-2l-86 -71q-23 -19 -47 -19z" />
    <glyph glyph-name="tildecomb" unicode="&#x303;" horiz-adv-x="0" 
d="M-370 753q53 0 99 -22t60 -22q9 0 16 3t10 5.5t9.5 10t9.5 10.5q20 20 49 20q33 0 50.5 -24.5t17.5 -59.5q0 -48 -34.5 -85.5t-95.5 -37.5q-50 0 -100.5 23.5t-71.5 23.5q-7 0 -13 -1t-11 -5t-6.5 -5.5t-6.5 -8.5t-6 -8q-18 -24 -52 -24q-32 0 -50 22.5t-18 54.5
q0 55 41 92.5t103 37.5z" />
    <glyph glyph-name="uni0304" unicode="&#x304;" horiz-adv-x="0" 
d="M-122 592h-250q-31 0 -54 23.5t-23 54.5t23 53.5t54 22.5h250q31 0 53.5 -23t22.5 -54t-22.5 -54t-53.5 -23z" />
    <glyph glyph-name="uni0306" unicode="&#x306;" horiz-adv-x="0" 
d="M-281 681q22 0 34.5 12t20.5 36q18 48 72 48q32 0 53 -20t21 -56q0 -67 -54.5 -111.5t-146.5 -44.5q-93 0 -147 45t-54 111q0 35 21.5 55.5t52.5 20.5q54 0 73 -51q17 -45 54 -45z" />
    <glyph glyph-name="uni0307" unicode="&#x307;" horiz-adv-x="0" 
d="M-167 561q-56 0 -90 31.5t-34 86.5t34 86.5t90 31.5t90 -31.5t34 -86.5t-33.5 -86.5t-90.5 -31.5z" />
    <glyph glyph-name="uni0308" unicode="&#x308;" horiz-adv-x="0" 
d="M-433 561q-54 0 -83 29t-29 75q0 43 30 73t82 30q51 0 80.5 -30t29.5 -73q0 -46 -28.5 -75t-81.5 -29zM-171 561q-54 0 -83 29t-29 75q0 43 30 73t82 30q51 0 80.5 -30t29.5 -73q0 -46 -28.5 -75t-81.5 -29z" />
    <glyph glyph-name="uni030A" unicode="&#x30a;" horiz-adv-x="0" 
d="M-201 531q-61 0 -100 34t-39 94t39 94t100 34t100 -34t39 -94t-39 -94t-100 -34zM-201 625q28 0 28 34t-28 34q-27 0 -27 -34t27 -34z" />
    <glyph glyph-name="uni030B" unicode="&#x30b;" horiz-adv-x="0" 
d="M-482 534q-36 0 -61.5 25t-25.5 62q0 29 16 57l47 83q30 49 80 49q40 0 71 -28t31 -68q0 -28 -20 -57l-57 -77q-34 -46 -81 -46zM-237 534q-36 0 -61.5 25t-25.5 62q0 29 16 57l47 83q30 49 79 49q41 0 72 -28t31 -68q0 -28 -20 -57l-57 -77q-34 -46 -81 -46z" />
    <glyph glyph-name="uni030C" unicode="&#x30c;" horiz-adv-x="0" 
d="M-288 544q-52 0 -130 68l-44 38q-33 30 -33 67q0 33 21.5 54t51.5 21q25 0 47 -19l86 -74h2l85 74q22 19 47 19q31 0 52.5 -21.5t21.5 -53.5q0 -35 -34 -67l-44 -38q-76 -68 -129 -68z" />
    <glyph glyph-name="uni0326" unicode="&#x326;" horiz-adv-x="0" 
d="M-184 -178q-40 0 -59 24t-14 60q8 84 9 122q2 35 24.5 58.5t60.5 23.5q43 0 66 -27.5t19 -66.5q-8 -70 -34 -144q-19 -50 -72 -50z" />
    <glyph glyph-name="uni0327" unicode="&#x327;" horiz-adv-x="0" 
d="M-211 -292q-51 0 -86 22q-32 22 -32 52q0 25 14.5 40t34.5 15q10 0 23.5 -4.5t19.5 -4.5q27 0 27 26t-34 26q-23 0 -32 10.5t-1 39.5l12 41q8 27 22 37.5t47 10.5q31 0 50 -11.5t12 -33.5l-12 -32q4 -1 10.5 -2.5t23 -9t29 -18.5t23 -32.5t10.5 -48.5q0 -52 -41.5 -87.5
t-119.5 -35.5z" />
    <glyph glyph-name="uni0328" unicode="&#x328;" horiz-adv-x="0" 
d="M-173 -293q-72 0 -116 42.5t-44 114.5q0 139 149 209q12 6 30 6q22 0 40 -16.5t18 -37.5q0 -24 -22 -43q-57 -42 -57 -98q0 -40 35 -40q4 0 11 0.5t11 0.5q24 0 39 -17.5t15 -46.5q0 -32 -24 -51q-31 -23 -85 -23z" />
    <glyph glyph-name="Wgrave" unicode="&#x1e80;" horiz-adv-x="1041" 
d="M506 987l65 -81q23 -26 23 -62q0 -33 -22.5 -55.5t-56.5 -22.5q-26 0 -57 24l-83 69q-39 31 -39 79q0 39 25 66t65 27q46 0 80 -44zM319 -7q-60 0 -89.5 32.5t-55.5 116.5l-145 454q-17 56 11.5 94t89.5 38q51 0 73.5 -23t35.5 -74l82 -333h2l76 316q15 62 45 88t82 26
q47 0 75 -26.5t43 -87.5l76 -316h2l82 333q13 53 36 75t70 22q60 0 90.5 -38t12.5 -94l-143 -447q-26 -88 -56.5 -122t-90.5 -34t-90.5 37t-50.5 118l-59 239h-2l-62 -241q-22 -80 -52 -116.5t-88 -36.5z" />
    <glyph glyph-name="wgrave" unicode="&#x1e81;" horiz-adv-x="834" 
d="M402 778l64 -81q23 -26 23 -62q0 -33 -22.5 -55.5t-56.5 -22.5q-25 0 -57 24l-83 70q-39 32 -39 78q0 39 25.5 66t64.5 27q47 0 81 -44zM251 -7h-8q-61 0 -93 35.5t-52 108.5l-69 255q-15 58 11 92t85 34q70 0 90 -96l46 -208h2l41 191q11 59 38 86t76 27h6
q46 -1 70 -27.5t36 -84.5l41 -192h2l46 208q10 49 31.5 72.5t67.5 23.5q52 0 76.5 -34.5t9.5 -91.5l-69 -255q-20 -72 -52 -108t-92 -36h-7q-105 0 -138 138l-28 115h-2l-29 -115q-31 -138 -136 -138z" />
    <glyph glyph-name="Wacute" unicode="&#x1e82;" horiz-adv-x="1041" 
d="M464 906l64 81q35 44 81 44q40 0 65 -27t25 -66q0 -48 -39 -79l-83 -69q-31 -24 -57 -24q-34 0 -56.5 22.5t-22.5 55.5q0 36 23 62zM319 -7q-60 0 -89.5 32.5t-55.5 116.5l-145 454q-17 56 11.5 94t89.5 38q51 0 73.5 -23t35.5 -74l82 -333h2l76 316q15 62 45 88t82 26
q47 0 75 -26.5t43 -87.5l76 -316h2l82 333q13 53 36 75t70 22q60 0 90.5 -38t12.5 -94l-143 -447q-26 -88 -56.5 -122t-90.5 -34t-90.5 37t-50.5 118l-59 239h-2l-62 -241q-22 -80 -52 -116.5t-88 -36.5z" />
    <glyph glyph-name="wacute" unicode="&#x1e83;" horiz-adv-x="834" 
d="M360 697l64 81q34 44 80 44q40 0 65.5 -27t25.5 -66q0 -46 -39 -78l-83 -70q-33 -24 -58 -24q-33 0 -56 22.5t-23 55.5q0 35 24 62zM251 -7h-8q-61 0 -93 35.5t-52 108.5l-69 255q-15 58 11 92t85 34q70 0 90 -96l46 -208h2l41 191q11 59 38 86t76 27h6q46 -1 70 -27.5
t36 -84.5l41 -192h2l46 208q10 49 31.5 72.5t67.5 23.5q52 0 76.5 -34.5t9.5 -91.5l-69 -255q-20 -72 -52 -108t-92 -36h-7q-105 0 -138 138l-28 115h-2l-29 -115q-31 -138 -136 -138z" />
    <glyph glyph-name="Wdieresis" unicode="&#x1e84;" horiz-adv-x="1041" 
d="M393 777q-53 0 -82.5 29t-29.5 75q0 43 30 73.5t82 30.5q51 0 80.5 -30.5t29.5 -73.5q0 -46 -28.5 -75t-81.5 -29zM655 777q-53 0 -82.5 29t-29.5 75q0 43 30 73.5t82 30.5q51 0 80.5 -30.5t29.5 -73.5q0 -46 -28.5 -75t-81.5 -29zM319 -7q-60 0 -89.5 32.5t-55.5 116.5
l-145 454q-17 56 11.5 94t89.5 38q51 0 73.5 -23t35.5 -74l82 -333h2l76 316q15 62 45 88t82 26q47 0 75 -26.5t43 -87.5l76 -316h2l82 333q13 53 36 75t70 22q60 0 90.5 -38t12.5 -94l-143 -447q-26 -88 -56.5 -122t-90.5 -34t-90.5 37t-50.5 118l-59 239h-2l-62 -241
q-22 -80 -52 -116.5t-88 -36.5z" />
    <glyph glyph-name="wdieresis" unicode="&#x1e85;" horiz-adv-x="834" 
d="M289 568q-54 0 -83 29t-29 75q0 43 30 73.5t82 30.5q51 0 80.5 -30.5t29.5 -73.5q0 -46 -28.5 -75t-81.5 -29zM551 568q-54 0 -83 29t-29 75q0 43 30 73.5t82 30.5q51 0 80.5 -30.5t29.5 -73.5q0 -46 -28.5 -75t-81.5 -29zM251 -7h-8q-61 0 -93 35.5t-52 108.5l-69 255
q-15 58 11 92t85 34q70 0 90 -96l46 -208h2l41 191q11 59 38 86t76 27h6q46 -1 70 -27.5t36 -84.5l41 -192h2l46 208q10 49 31.5 72.5t67.5 23.5q52 0 76.5 -34.5t9.5 -91.5l-69 -255q-20 -72 -52 -108t-92 -36h-7q-105 0 -138 138l-28 115h-2l-29 -115q-31 -138 -136 -138z
" />
    <glyph glyph-name="uni1E9E" unicode="&#x1e9e;" horiz-adv-x="718" 
d="M61 102v378q0 121 83.5 188t202.5 67q133 0 204.5 -58t71.5 -142q0 -99 -64 -151v-2q57 -16 92 -64.5t35 -116.5q0 -107 -62 -161.5t-160 -54.5q-81 0 -124 32q-40 30 -40 77q0 35 17 58t52 23q5 0 19 -2t23 -2q32 0 48.5 15.5t16.5 53.5q0 29 -17 47t-51 18l-21 -1
q-70 0 -70 72q0 34 17 53t49 19h19q19 0 28 17.5t9 39.5q0 28 -19.5 45t-54.5 17q-40 0 -64.5 -22.5t-24.5 -70.5v-372q0 -50 -27.5 -79.5t-79.5 -29.5q-51 0 -79.5 29.5t-28.5 79.5z" />
    <glyph glyph-name="Ygrave" unicode="&#x1ef2;" horiz-adv-x="657" 
d="M314 996l64 -81q24 -26 24 -62q0 -33 -23 -55.5t-57 -22.5q-26 0 -57 24l-83 70q-39 32 -39 79q0 38 25.5 65.5t64.5 27.5q46 0 81 -45zM330 -7q-55 0 -85.5 31t-30.5 85v147l-172 304q-21 39 -21 74q0 41 28 67.5t77 26.5q38 0 59.5 -17.5t46.5 -68.5l96 -190h2l95 190
q25 51 46.5 68.5t59.5 17.5q48 0 76 -26t28 -67q0 -37 -21 -74l-170 -305v-147q0 -54 -29.5 -85t-84.5 -31z" />
    <glyph glyph-name="ygrave" unicode="&#x1ef3;" horiz-adv-x="573" 
d="M272 778l64 -81q24 -27 24 -62q0 -33 -23 -55.5t-56 -22.5q-25 0 -58 24l-83 70q-39 32 -39 78q0 39 25.5 66t65.5 27q46 0 80 -44zM156 -230q-51 0 -83 19q-48 26 -48 84q0 35 20 56.5t54 21.5q5 0 10 -0.5t9 -0.5q27 0 41 11t22 35l-150 384q-20 53 9 95.5t89 42.5
q46 0 66.5 -22t29.5 -62l65 -271h2l51 245q13 110 102 110q66 0 92.5 -40t4.5 -101l-133 -365q-50 -135 -108.5 -188.5t-144.5 -53.5z" />
    <glyph glyph-name="uni1EF8" unicode="&#x1ef8;" horiz-adv-x="657" 
d="M238 978q52 0 98.5 -21.5t60.5 -21.5q9 0 15.5 3t10 5.5t10 10t9.5 10.5q19 19 49 19q33 0 50.5 -24t17.5 -59q0 -47 -35 -85t-95 -38q-51 0 -101.5 23t-70.5 23q-6 0 -10.5 -0.5t-8.5 -2.5l-6 -3t-5.5 -5t-4 -4.5t-4.5 -5.5l-4 -6q-18 -24 -52 -24q-32 0 -50 22t-18 54
q0 55 41 92.5t103 37.5zM330 -7q-55 0 -85.5 31t-30.5 85v147l-172 304q-21 39 -21 74q0 41 28 67.5t77 26.5q38 0 59.5 -17.5t46.5 -68.5l96 -190h2l95 190q25 51 46.5 68.5t59.5 17.5q48 0 76 -26t28 -67q0 -37 -21 -74l-170 -305v-147q0 -54 -29.5 -85t-84.5 -31z" />
    <glyph glyph-name="uni1EF9" unicode="&#x1ef9;" horiz-adv-x="573" 
d="M196 760q53 0 99 -22t60 -22q9 0 16 3t10 6t9.5 10.5t9.5 10.5q19 19 49 19q33 0 50.5 -24t17.5 -60q0 -47 -34.5 -85t-95.5 -38q-51 0 -101 23.5t-71 23.5q-8 0 -13.5 -1t-10.5 -5t-6.5 -5t-6.5 -8t-6 -8q-18 -24 -52 -24q-32 0 -50 22t-18 54q0 55 41 92.5t103 37.5z
M156 -230q-51 0 -83 19q-48 26 -48 84q0 35 20 56.5t54 21.5q5 0 10 -0.5t9 -0.5q27 0 41 11t22 35l-150 384q-20 53 9 95.5t89 42.5q46 0 66.5 -22t29.5 -62l65 -271h2l51 245q13 110 102 110q66 0 92.5 -40t4.5 -101l-133 -365q-50 -135 -108.5 -188.5t-144.5 -53.5z" />
    <glyph glyph-name="endash" unicode="&#x2013;" horiz-adv-x="636" 
d="M507 174h-378q-38 0 -62.5 22.5t-24.5 64.5t24.5 64.5t62.5 22.5h378q37 0 62 -22.5t25 -64.5t-25 -64.5t-62 -22.5z" />
    <glyph glyph-name="emdash" unicode="&#x2014;" horiz-adv-x="910" 
d="M781 174h-652q-38 0 -62.5 22.5t-24.5 64.5t24.5 64.5t62.5 22.5h652q38 0 62.5 -22.5t24.5 -64.5t-24.5 -64.5t-62.5 -22.5z" />
    <glyph glyph-name="quoteleft" unicode="&#x2018;" horiz-adv-x="266" 
d="M126 412q-46 0 -71 29.5t-20 72.5q9 86 37 165q21 52 76 52q42 0 63 -26t17 -64q-8 -58 -11 -140q-1 -39 -24.5 -64t-66.5 -25z" />
    <glyph glyph-name="quoteright" unicode="&#x2019;" horiz-adv-x="265" 
d="M120 412q-42 0 -63 26.5t-17 63.5q8 58 11 140q1 39 24.5 64t66.5 25q46 0 71 -29.5t20 -72.5q-9 -87 -37 -164q-21 -53 -76 -53z" />
    <glyph glyph-name="quotesinglbase" unicode="&#x201a;" horiz-adv-x="250" 
d="M102 -210q-44 0 -63.5 25.5t-15.5 65.5q8 57 11 143q1 38 25 63.5t66 25.5q46 0 71 -29.5t20 -72.5q-9 -92 -37 -168q-19 -53 -77 -53z" />
    <glyph glyph-name="quotedblleft" unicode="&#x201c;" horiz-adv-x="513" 
d="M126 412q-46 0 -71 29.5t-20 72.5q9 86 37 165q21 52 76 52q42 0 63 -26t17 -64q-8 -58 -11 -140q-1 -39 -24.5 -64t-66.5 -25zM373 412q-46 0 -71 29.5t-20 72.5q9 86 37 165q21 52 76 52q42 0 63 -26t17 -64q-8 -58 -11 -140q-1 -39 -24.5 -64t-66.5 -25z" />
    <glyph glyph-name="quotedblright" unicode="&#x201d;" horiz-adv-x="512" 
d="M120 412q-42 0 -63 26.5t-17 63.5q8 58 11 140q1 39 24.5 64t66.5 25q46 0 71 -29.5t20 -72.5q-9 -87 -37 -164q-21 -53 -76 -53zM367 412q-42 0 -63 26.5t-17 63.5q8 58 11 140q1 39 24.5 64t66.5 25q46 0 71 -29.5t20 -72.5q-9 -87 -37 -164q-21 -53 -76 -53z" />
    <glyph glyph-name="quotedblbase" unicode="&#x201e;" horiz-adv-x="497" 
d="M103 -209q-42 0 -63 26t-17 64q9 79 10 139q2 40 25.5 65t65.5 25q47 0 72 -30t20 -72q-9 -90 -38 -165q-19 -52 -75 -52zM350 -209q-42 0 -63 26t-17 64q9 79 10 139q2 40 25.5 65t65.5 25q47 0 72 -30t20 -72q-9 -90 -38 -165q-19 -52 -75 -52z" />
    <glyph glyph-name="dagger" unicode="&#x2020;" horiz-adv-x="572" 
d="M287 -7q-43 0 -67.5 23.5t-24.5 66.5v332h-83q-42 0 -64.5 24.5t-22.5 62.5t22.5 62.5t64.5 24.5h83v48q0 44 24.5 67.5t67.5 23.5q42 0 66.5 -23.5t24.5 -67.5v-48h82q42 0 65 -24.5t23 -62.5t-23 -62.5t-65 -24.5h-82v-332q0 -43 -24.5 -66.5t-66.5 -23.5z" />
    <glyph glyph-name="daggerdbl" unicode="&#x2021;" horiz-adv-x="600" 
d="M300 -7q-42 0 -67 23.5t-25 66.5v49h-82q-38 0 -63 25.5t-25 62.5q0 36 25 61t63 25h82v109h-82q-42 0 -65 24.5t-23 62.5t23 62.5t65 24.5h82v48q0 43 25 67t67 24q43 0 67 -23.5t24 -67.5v-48h83q42 0 64.5 -24.5t22.5 -62.5t-22.5 -62.5t-64.5 -24.5h-83v-109h83
q38 0 62.5 -25t24.5 -62t-24.5 -62t-62.5 -25h-83v-49q0 -43 -24.5 -66.5t-66.5 -23.5z" />
    <glyph glyph-name="bullet" unicode="&#x2022;" horiz-adv-x="443" 
d="M221 110q-73 0 -116 38t-43 101q0 60 44 99.5t115 39.5q72 0 116.5 -39.5t44.5 -99.5q0 -63 -43 -101t-118 -38z" />
    <glyph glyph-name="ellipsis" unicode="&#x2026;" horiz-adv-x="913" 
d="M159 -18q-59 0 -92.5 30.5t-33.5 81.5q0 49 34.5 81t91.5 32t91 -32t34 -81q0 -51 -33 -81.5t-92 -30.5zM458 -18q-59 0 -92.5 30.5t-33.5 81.5q0 49 34.5 81t91.5 32t91 -32t34 -81q0 -51 -33 -81.5t-92 -30.5zM754 -18q-58 0 -91.5 30.5t-33.5 81.5q0 49 34 81t91 32
q58 0 92 -32t34 -81q0 -51 -33 -81.5t-93 -30.5z" />
    <glyph glyph-name="perthousand" unicode="&#x2030;" horiz-adv-x="1396" 
d="M360 27q-20 -34 -60 -34q-30 0 -50.5 20.5t-20.5 50.5q0 19 10 37l365 593q20 34 60 34q29 0 50 -20.5t21 -50.5q0 -19 -11 -37zM215 367q-83 0 -136 50t-53 126t52 126.5t137 50.5q83 0 135.5 -50t52.5 -127q0 -74 -52.5 -125t-135.5 -51zM215 490q21 0 32 15t11 38
q0 54 -43 54t-43 -54q0 -53 43 -53zM743 -14q-83 0 -136 50t-53 126t52 126.5t137 50.5q83 0 135.5 -50t52.5 -127q0 -74 -52.5 -125t-135.5 -51zM1183 -14q-83 0 -136 50t-53 126t52 126.5t137 50.5q83 0 135.5 -50t52.5 -127q0 -74 -52 -125t-136 -51zM743 109q42 0 42 53
q0 54 -42 54q-43 0 -43 -54q0 -53 43 -53zM1183 109q21 0 32 15t11 38q0 54 -43 54t-43 -54q0 -53 43 -53z" />
    <glyph glyph-name="guilsinglleft" unicode="&#x2039;" horiz-adv-x="314" 
d="M46 311l59 111q27 53 73 53q38 0 66 -21.5t28 -58.5q0 -21 -12 -45l-48 -94l48 -93q12 -24 12 -45q0 -37 -28 -58.5t-66 -21.5q-46 0 -73 53l-59 111q-15 28 -15 54q0 28 15 55z" />
    <glyph glyph-name="guilsinglright" unicode="&#x203a;" horiz-adv-x="314" 
d="M209 422l60 -111q15 -30 15 -55q0 -22 -15 -54l-60 -111q-25 -53 -73 -53q-38 0 -65.5 21.5t-27.5 58.5q0 23 11 45l48 93l-48 94q-11 22 -11 45q0 37 27.5 58.5t65.5 21.5q48 0 73 -53z" />
    <glyph glyph-name="fraction" unicode="&#x2044;" horiz-adv-x="411" 
d="M146 30q-20 -45 -67 -45q-36 0 -57.5 21t-21.5 52q0 15 7 33l260 599q20 45 69 45q33 0 54 -21.5t21 -53.5q0 -19 -8 -38z" />
    <glyph glyph-name="Euro" unicode="&#x20ac;" 
d="M405 651q84 0 134 -31q45 -29 45 -81q0 -33 -20 -54t-53 -21q-19 0 -48 9t-52 9q-54 0 -72 -52h70q29 0 50.5 -21t21.5 -51q0 -29 -21.5 -50t-50.5 -21h-71q17 -53 73 -53q23 0 52 9t48 9q33 0 53 -21.5t20 -53.5q0 -53 -48 -82q-48 -30 -135 -30q-119 0 -190 59t-88 163
h-26q-29 0 -50 21t-21 50q0 30 21 51t50 21h28q19 107 94 164t186 57z" />
    <glyph glyph-name="trademark" unicode="&#x2122;" horiz-adv-x="1071" 
d="M152 335l-1 245h-51q-34 0 -54 19.5t-20 53.5q0 33 20 53t54 20h260q33 0 52.5 -20t19.5 -53q0 -34 -19.5 -53.5t-52.5 -19.5h-53v-245q0 -37 -20 -58t-57 -21t-57.5 21.5t-20.5 57.5zM731 256q-25 0 -39 14.5t-27 49.5l-56 149h-2v-137q0 -35 -19.5 -55.5t-54.5 -20.5
q-36 0 -56 20.5t-20 55.5v276q0 52 27 81.5t76 29.5q44 0 68 -27.5t44 -83.5l58 -153h2l58 153q19 55 43 83t68 28q50 0 76.5 -29.5t26.5 -81.5l1 -276q0 -35 -19.5 -55.5t-55.5 -20.5t-55.5 20.5t-19.5 55.5v137h-2l-55 -149q-12 -34 -27.5 -49t-39.5 -15z" />
    <glyph glyph-name="minus" unicode="&#x2212;" horiz-adv-x="492" 
d="M364 286h-236q-36 0 -57.5 20.5t-21.5 58.5q0 37 21.5 57.5t57.5 20.5h236q36 0 57.5 -20.5t21.5 -57.5q0 -38 -21 -58.5t-58 -20.5z" />
    <glyph glyph-name="approxequal" unicode="&#x2248;" horiz-adv-x="624" 
d="M409 531q11 0 18 4.5t15 15.5t12 15q17 17 45 17q32 0 50.5 -24.5t18.5 -58.5q0 -47 -33 -84t-94 -37q-52 0 -118.5 24.5t-103.5 24.5q-8 0 -13.5 -1.5t-10.5 -5t-7 -6t-6.5 -9t-5.5 -8.5q-17 -23 -52 -23q-32 0 -50 22t-18 54q0 54 40.5 90.5t103.5 36.5
q67 0 129.5 -23.5t79.5 -23.5zM409 299q11 0 18 4.5t15 15.5t12 15q17 17 45 17q32 0 50.5 -24.5t18.5 -58.5q0 -48 -33 -84.5t-94 -36.5q-52 0 -118.5 24.5t-103.5 24.5q-10 0 -17 -3.5t-10 -6t-9 -11t-7 -9.5q-18 -24 -52 -24q-32 0 -50 22t-18 54q0 54 41 91t103 37
q67 0 129.5 -23.5t79.5 -23.5z" />
    <glyph glyph-name="notequal" unicode="&#x2260;" horiz-adv-x="536" 
d="M406 335q34 0 54 -20.5t20 -53.5q0 -34 -20 -54t-54 -20h-109l-14 -45q-8 -24 -28.5 -39t-45.5 -15q-43 0 -63.5 29.5t-10.5 69.5h-5q-34 0 -54 20t-20 54q0 33 20 53.5t54 20.5h50l15 49h-65q-34 0 -54 20t-20 54q0 33 20 53.5t54 20.5h110l11 37q8 24 28.5 39.5
t46.5 15.5q41 0 62 -27t14 -65h4q34 0 54 -20.5t20 -53.5q0 -34 -20 -54t-54 -20h-49l-15 -49h64z" />
    <glyph glyph-name="uniF8FF" unicode="&#xf8ff;" horiz-adv-x="1427" 
d="M741 540q-26 0 -44 18t-18 42q0 27 17.5 44t44.5 17q24 0 41.5 -17.5t17.5 -43.5q0 -24 -18 -42t-41 -18zM207 601q0 -8 3 -57.5t5 -116.5t2 -135h-117q0 157 8 309h99zM798 292h-116q0 109 2 146h-58l3 -66q2 -1 14 -1q16 0 20 2v-70q-15 -16 -69 -16q-80 0 -80 66
q0 11 2 47.5t2 37.5h-21v78l117 29l1 -17h173q10 -64 10 -236zM396 354q-11 -66 -72 -66q-91 0 -91 112q0 133 132 133q120 0 120 -116v-125h-80zM1068 430l3 -138h-111q0 26 1 56.5t1 36.5q0 28 -14 28q-9 0 -13 -4t-5 -9t-1 -15q0 -6 1 -36.5t1 -56.5h-110q0 169 9 236h79
q5 -52 5 -74q2 14 6.5 29t23.5 32.5t48 17.5q42 0 58 -24.5t18 -78.5zM1208 533q119 0 119 -121q0 -124 -121 -124q-120 0 -120 122q0 123 122 123zM361 368q23 0 23 28q0 26 -23 26q-21 0 -21 -26q0 -28 21 -28zM1206 368q24 0 24 28q0 26 -24 26q-21 0 -21 -26
q0 -28 21 -28zM422 147v117h101q12 -66 12 -138q0 -78 -33.5 -112t-117.5 -34q-60 0 -86 16v81q19 -13 69 -13q21 0 34 5.5t16 10t3 8.5q-12 -10 -48 -10q-89 0 -89 83v11h-54l3 -63q6 -4 16 -4q12 0 17 5v-71q-15 -15 -68 -15q-43 0 -60.5 16.5t-17.5 51.5q0 44 3 80h-18
v79l115 28l-1 -15h173v-117q0 -17 2.5 -22.5t12.5 -5.5q9 0 12.5 6t3.5 22zM642 187q18 82 79 82q35 0 56.5 -29.5t21.5 -82.5q0 -133 -135 -133q1 -16 1 -39h-115q0 134 10 279h76q6 -42 6 -77zM938 269q54 0 84 -30t30 -85q0 -23 -3 -35h-122q9 -17 48 -17q35 0 56 11v-73
q-25 -16 -77 -16q-139 0 -139 121q0 57 33 90.5t90 33.5zM922 136h40q2 27 -16 27q-24 0 -24 -27zM656 127q0 -12 5 -27q4 0 11 2t15.5 11t8.5 23q0 23 -21 23q-19 0 -19 -32zM1078 65q-10 0 -16.5 -6.5t-6.5 -16.5q0 -22 23 -22q24 0 24 22q0 23 -24 23zM1078 24
q-17 0 -17 18q0 19 17 19q18 0 18 -19q0 -18 -18 -18zM1082 31h6l-6 9q7 0 7 6q0 8 -10 8h-10v-23h5v9h4zM1084 46q0 -3 -4 -3h-6v6h6q4 0 4 -3z" />
    <glyph glyph-name="A.fina" horiz-adv-x="1052" 
d="M1005 276q26 -50 26 -122q0 -117 -72 -188t-201 -71q-110 0 -180 55.5t-117 163.5h-217l-10 -34q-11 -42 -34.5 -64.5t-69.5 -22.5q-60 0 -90 41.5t-11 96.5l158 460q25 71 62.5 104t105.5 33q69 0 105 -32.5t62 -105.5l22 -68q74 -232 90 -275q55 -142 112 -154
q6 -1 12 -1q58 0 58 68q0 20 -5 42q-6 26 -6 39q0 41 30.5 68t74.5 27q64 0 95 -60zM293 280h113q-20 76 -35 143l-17 60h-2z" />
    <glyph glyph-name="Aacute.fina" horiz-adv-x="1052" 
d="M350 779q-34 0 -56.5 22.5t-22.5 55.5q0 37 23 62l64 81q35 45 81 45q39 0 64.5 -27.5t25.5 -65.5q0 -47 -39 -79l-83 -70q-31 -24 -57 -24zM1005 276q26 -50 26 -122q0 -117 -72 -188t-201 -71q-110 0 -180 55.5t-117 163.5h-217l-10 -34q-11 -42 -34.5 -64.5
t-69.5 -22.5q-60 0 -90 41.5t-11 96.5l158 460q25 71 62.5 104t105.5 33q69 0 105 -32.5t62 -105.5l22 -68q74 -232 90 -275q55 -142 112 -154q6 -1 12 -1q58 0 58 68q0 20 -5 42q-6 26 -6 39q0 41 30.5 68t74.5 27q64 0 95 -60zM293 280h113q-20 76 -35 143l-17 60h-2z" />
    <glyph glyph-name="Abreve.fina" horiz-adv-x="1052" 
d="M350 775q-93 0 -147.5 45t-54.5 111q0 35 21.5 55.5t53.5 20.5q54 0 73 -51q17 -45 54 -45q22 0 34.5 12t20.5 36q18 48 71 48q33 0 54 -20t21 -56q0 -67 -54.5 -111.5t-146.5 -44.5zM1005 276q26 -50 26 -122q0 -117 -72 -188t-201 -71q-110 0 -180 55.5t-117 163.5
h-217l-10 -34q-11 -42 -34.5 -64.5t-69.5 -22.5q-60 0 -90 41.5t-11 96.5l158 460q25 71 62.5 104t105.5 33q69 0 105 -32.5t62 -105.5l22 -68q74 -232 90 -275q55 -142 112 -154q6 -1 12 -1q58 0 58 68q0 20 -5 42q-6 26 -6 39q0 41 30.5 68t74.5 27q64 0 95 -60zM293 280
h113q-20 76 -35 143l-17 60h-2z" />
    <glyph glyph-name="Acircumflex.fina" horiz-adv-x="1052" 
d="M218 771q-31 0 -52.5 21t-21.5 53q0 36 35 68l43 38q27 23 42.5 34t40 22.5t46.5 11.5q52 0 130 -68l44 -38q33 -30 33 -68q0 -32 -21 -53t-52 -21q-25 0 -47 19l-86 71h-2l-85 -71q-23 -19 -47 -19zM1005 276q26 -50 26 -122q0 -117 -72 -188t-201 -71q-110 0 -180 55.5
t-117 163.5h-217l-10 -34q-11 -42 -34.5 -64.5t-69.5 -22.5q-60 0 -90 41.5t-11 96.5l158 460q25 71 62.5 104t105.5 33q69 0 105 -32.5t62 -105.5l22 -68q74 -232 90 -275q55 -142 112 -154q6 -1 12 -1q58 0 58 68q0 20 -5 42q-6 26 -6 39q0 41 30.5 68t74.5 27
q64 0 95 -60zM293 280h113q-20 76 -35 143l-17 60h-2z" />
    <glyph glyph-name="Adieresis.fina" horiz-adv-x="1052" 
d="M223 791q-53 0 -82.5 29t-29.5 75q0 43 30 73t82 30q51 0 80.5 -30t29.5 -73q0 -46 -28.5 -75t-81.5 -29zM485 791q-53 0 -82.5 29t-29.5 75q0 43 30 73t82 30t81 -30t29 -73q0 -46 -28.5 -75t-81.5 -29zM1005 276q26 -50 26 -122q0 -117 -72 -188t-201 -71
q-110 0 -180 55.5t-117 163.5h-217l-10 -34q-11 -42 -34.5 -64.5t-69.5 -22.5q-60 0 -90 41.5t-11 96.5l158 460q25 71 62.5 104t105.5 33q69 0 105 -32.5t62 -105.5l22 -68q74 -232 90 -275q55 -142 112 -154q6 -1 12 -1q58 0 58 68q0 20 -5 42q-6 26 -6 39q0 41 30.5 68
t74.5 27q64 0 95 -60zM293 280h113q-20 76 -35 143l-17 60h-2z" />
    <glyph glyph-name="Agrave.fina" horiz-adv-x="1052" 
d="M204 873q-39 32 -39 79q0 38 25.5 65.5t65.5 27.5q45 0 80 -45l64 -81q24 -26 24 -62q0 -33 -23 -55.5t-56 -22.5q-25 0 -58 24zM1005 276q26 -50 26 -122q0 -117 -72 -188t-201 -71q-110 0 -180 55.5t-117 163.5h-217l-10 -34q-11 -42 -34.5 -64.5t-69.5 -22.5
q-60 0 -90 41.5t-11 96.5l158 460q25 71 62.5 104t105.5 33q69 0 105 -32.5t62 -105.5l22 -68q74 -232 90 -275q55 -142 112 -154q6 -1 12 -1q58 0 58 68q0 20 -5 42q-6 26 -6 39q0 41 30.5 68t74.5 27q64 0 95 -60zM293 280h113q-20 76 -35 143l-17 60h-2z" />
    <glyph glyph-name="Amacron.fina" horiz-adv-x="1052" 
d="M234 822q-31 0 -53.5 23t-22.5 55q0 31 22.5 53.5t53.5 22.5h250q31 0 53.5 -23t22.5 -54t-22.5 -54t-53.5 -23h-250zM1005 276q26 -50 26 -122q0 -117 -72 -188t-201 -71q-110 0 -180 55.5t-117 163.5h-217l-10 -34q-11 -42 -34.5 -64.5t-69.5 -22.5q-60 0 -90 41.5
t-11 96.5l158 460q25 71 62.5 104t105.5 33q69 0 105 -32.5t62 -105.5l22 -68q74 -232 90 -275q55 -142 112 -154q6 -1 12 -1q58 0 58 68q0 20 -5 42q-6 26 -6 39q0 41 30.5 68t74.5 27q64 0 95 -60zM293 280h113q-20 76 -35 143l-17 60h-2z" />
    <glyph glyph-name="Aogonek.fina" horiz-adv-x="1052" 
d="M856 -92q-54 -42 -54 -96q0 -40 35 -40q4 0 11 0.5t12 0.5q23 0 38 -17.5t15 -46.5q0 -32 -24 -51q-31 -23 -85 -23q-72 0 -116 42.5t-44 114.5q0 63 32 112q-138 33 -215 210h-217l-10 -34q-11 -42 -34.5 -64.5t-69.5 -22.5q-60 0 -90 41.5t-11 96.5l158 460
q25 71 62.5 104t105.5 33q69 0 105 -32.5t62 -105.5l22 -68q74 -232 90 -275q55 -142 112 -154q6 -1 12 -1q58 0 58 68q0 20 -5 42q-6 26 -6 39q0 41 30.5 68t74.5 27q64 0 95 -60q26 -50 26 -122q0 -92 -45.5 -157t-129.5 -89zM293 280h113q-20 76 -35 143l-17 60h-2z" />
    <glyph glyph-name="Aring.fina" horiz-adv-x="1052" 
d="M351 761q-60 0 -99 34t-39 94t39 94t99 34q61 0 100 -34t39 -94t-39 -94t-100 -34zM351 923q-27 0 -27 -34t27 -34q28 0 28 34t-28 34zM1005 276q26 -50 26 -122q0 -117 -72 -188t-201 -71q-110 0 -180 55.5t-117 163.5h-217l-10 -34q-11 -42 -34.5 -64.5t-69.5 -22.5
q-60 0 -90 41.5t-11 96.5l158 460q25 71 62.5 104t105.5 33q69 0 105 -32.5t62 -105.5l22 -68q74 -232 90 -275q55 -142 112 -154q6 -1 12 -1q58 0 58 68q0 20 -5 42q-6 26 -6 39q0 41 30.5 68t74.5 27q64 0 95 -60zM293 280h113q-20 76 -35 143l-17 60h-2z" />
    <glyph glyph-name="H.fina" horiz-adv-x="1108" 
d="M1088 139q0 -117 -72 -188t-199 -71q-293 0 -303 366v12h-230v-155q0 -51 -28.5 -80.5t-80.5 -29.5t-81 29.5t-29 80.5v512q0 51 29 80.5t81 29.5t80.5 -29.5t28.5 -80.5v-151h230l1 151q0 51 28.5 80.5t81.5 29.5q52 0 80.5 -29.5t28.5 -80.5v-360q0 -91 16.5 -135
t60.5 -44q60 0 60 70q0 17 -4 37q-7 23 -7 39q0 42 29.5 69t77.5 27q60 0 93 -57q28 -50 28 -122z" />
    <glyph glyph-name="K.fina" horiz-adv-x="1072" 
d="M1049 178q0 -126 -76.5 -204.5t-209.5 -78.5q-304 0 -408 364h-72v-156q0 -51 -28 -80.5t-80 -29.5q-53 0 -81.5 29.5t-28.5 80.5v514q0 51 29 81t81 30t80 -30t28 -81v-153h78l118 206q16 31 37 44.5t58 13.5q46 0 78.5 -30.5t32.5 -74.5q0 -29 -12 -50l-137 -224
q49 -134 103 -195.5t120 -61.5q35 0 54 26.5t19 68.5q0 22 -5 42q-7 35 -7 45q0 43 29.5 69t75.5 26q33 0 59 -18t39 -48q26 -51 26 -125z" />
    <glyph glyph-name="uni0136.fina" horiz-adv-x="1072" 
d="M1049 178q0 -126 -76.5 -204.5t-209.5 -78.5q-304 0 -408 364h-72v-156q0 -51 -28 -80.5t-80 -29.5q-53 0 -81.5 29.5t-28.5 80.5v514q0 51 29 81t81 30t80 -30t28 -81v-153h78l118 206q16 31 37 44.5t58 13.5q46 0 78.5 -30.5t32.5 -74.5q0 -29 -12 -50l-137 -224
q49 -134 103 -195.5t120 -61.5q35 0 54 26.5t19 68.5q0 22 -5 42q-7 35 -7 45q0 43 29.5 69t75.5 26q33 0 59 -18t39 -48q26 -51 26 -125zM345 -329q-40 0 -59 24t-14 60q8 84 9 121q2 36 24.5 59t60.5 23q42 0 65.5 -27t19.5 -66q-8 -71 -34 -145q-20 -49 -72 -49z" />
    <glyph glyph-name="N.fina" horiz-adv-x="1099" 
d="M1080 588q0 -72 -28 -122q-34 -57 -93 -57q-48 0 -78 27t-30 70q0 8 7 38q5 25 5 38q0 69 -61 69q-44 0 -60.5 -44.5t-16.5 -135.5v-363q0 -55 -29.5 -85t-81.5 -30q-43 0 -74.5 26t-84.5 98l-170 231h-2l1 -245q0 -51 -28.5 -80.5t-80.5 -29.5t-81 29.5t-29 80.5v510
q0 55 29 85t80 30q40 0 65.5 -22t73.5 -88l192 -262h2l-1 125q10 367 303 367q127 0 199 -71t72 -189z" />
    <glyph glyph-name="Nacute.fina" horiz-adv-x="1099" 
d="M319 919l64 81q35 45 80 45q40 0 65.5 -27.5t25.5 -65.5q0 -47 -39 -79l-83 -70q-33 -24 -58 -24q-33 0 -56 22.5t-23 55.5q0 36 24 62zM1080 588q0 -72 -28 -122q-34 -57 -93 -57q-48 0 -78 27t-30 70q0 8 7 38q5 25 5 38q0 69 -61 69q-44 0 -60.5 -44.5t-16.5 -135.5
v-363q0 -55 -29.5 -85t-81.5 -30q-43 0 -74.5 26t-84.5 98l-170 231h-2l1 -245q0 -51 -28.5 -80.5t-80.5 -29.5t-81 29.5t-29 80.5v510q0 55 29 85t80 30q40 0 65.5 -22t73.5 -88l192 -262h2l-1 125q10 367 303 367q127 0 199 -71t72 -189z" />
    <glyph glyph-name="Ncaron.fina" horiz-adv-x="1099" 
d="M375 774q-53 0 -129 68l-44 38q-34 31 -34 67q0 32 21.5 53.5t52.5 21.5q25 0 47 -19l85 -74h2l86 74q22 19 47 19q31 0 52 -21t21 -54q0 -35 -34 -67l-43 -38q-76 -68 -130 -68zM1080 588q0 -72 -28 -122q-34 -57 -93 -57q-48 0 -78 27t-30 70q0 8 7 38q5 25 5 38
q0 69 -61 69q-44 0 -60.5 -44.5t-16.5 -135.5v-363q0 -55 -29.5 -85t-81.5 -30q-43 0 -74.5 26t-84.5 98l-170 231h-2l1 -245q0 -51 -28.5 -80.5t-80.5 -29.5t-81 29.5t-29 80.5v510q0 55 29 85t80 30q40 0 65.5 -22t73.5 -88l192 -262h2l-1 125q10 367 303 367
q127 0 199 -71t72 -189z" />
    <glyph glyph-name="uni0145.fina" horiz-adv-x="1099" 
d="M1080 588q0 -72 -28 -122q-34 -57 -93 -57q-48 0 -78 27t-30 70q0 8 7 38q5 25 5 38q0 69 -61 69q-44 0 -60.5 -44.5t-16.5 -135.5v-363q0 -55 -29.5 -85t-81.5 -30q-43 0 -74.5 26t-84.5 98l-170 231h-2l1 -245q0 -51 -28.5 -80.5t-80.5 -29.5t-81 29.5t-29 80.5v510
q0 55 29 85t80 30q40 0 65.5 -22t73.5 -88l192 -262h2l-1 125q10 367 303 367q127 0 199 -71t72 -189zM386 -343q-40 0 -58.5 24t-14.5 60q7 62 10 122q1 35 23.5 58.5t60.5 23.5q43 0 66 -27.5t19 -66.5q-8 -70 -34 -144q-18 -50 -72 -50z" />
    <glyph glyph-name="Ntilde.fina" horiz-adv-x="1099" 
d="M285 983q52 0 98 -22t61 -22q9 0 15.5 3t10 5.5t10 10t9.5 10.5q20 20 49 20q33 0 50.5 -24.5t17.5 -59.5q0 -47 -35 -85t-95 -38q-51 0 -101.5 23.5t-70.5 23.5q-7 0 -12.5 -1.5t-8.5 -2.5t-7 -5l-5 -5t-5 -8l-5 -6q-18 -24 -52 -24q-32 0 -50 22.5t-18 54.5
q0 55 41 92.5t103 37.5zM1080 588q0 -72 -28 -122q-34 -57 -93 -57q-48 0 -78 27t-30 70q0 8 7 38q5 25 5 38q0 69 -61 69q-44 0 -60.5 -44.5t-16.5 -135.5v-363q0 -55 -29.5 -85t-81.5 -30q-43 0 -74.5 26t-84.5 98l-170 231h-2l1 -245q0 -51 -28.5 -80.5t-80.5 -29.5
t-81 29.5t-29 80.5v510q0 55 29 85t80 30q40 0 65.5 -22t73.5 -88l192 -262h2l-1 125q10 367 303 367q127 0 199 -71t72 -189z" />
    <glyph glyph-name="R.fina" horiz-adv-x="1027" 
d="M1005 178q0 -126 -77 -204.5t-210 -78.5q-127 0 -222 80t-151 235h-61v-107q0 -51 -28.5 -80.5t-80.5 -29.5t-81 29.5t-29 80.5v511q0 56 29.5 85.5t85.5 29.5l169 -1q311 -2 311 -259q0 -131 -109 -214q38 -81 77.5 -122t86.5 -41q34 0 53.5 26.5t19.5 68.5q0 18 -6 42
q-7 35 -7 45q0 43 29.5 69t75.5 26q33 0 59 -18t40 -48q26 -53 26 -125zM284 553v-176h64q95 0 95 88t-101 88h-58z" />
    <glyph glyph-name="Racute.fina" horiz-adv-x="1027" 
d="M294 919l64 81q34 44 80 44q40 0 65.5 -27t25.5 -66q0 -47 -39 -79l-83 -70q-33 -24 -58 -24q-33 0 -56 22.5t-23 56.5q0 35 24 62zM1005 178q0 -126 -77 -204.5t-210 -78.5q-127 0 -222 80t-151 235h-61v-107q0 -51 -28.5 -80.5t-80.5 -29.5t-81 29.5t-29 80.5v511
q0 56 29.5 85.5t85.5 29.5l169 -1q311 -2 311 -259q0 -131 -109 -214q38 -81 77.5 -122t86.5 -41q34 0 53.5 26.5t19.5 68.5q0 18 -6 42q-7 35 -7 45q0 43 29.5 69t75.5 26q33 0 59 -18t40 -48q26 -53 26 -125zM284 553v-176h64q95 0 95 88t-101 88h-58z" />
    <glyph glyph-name="Rcaron.fina" horiz-adv-x="1027" 
d="M350 773q-53 0 -129 68l-44 39q-34 29 -34 67q0 32 21.5 53t52.5 21q25 0 47 -19l85 -73h2l86 73q22 19 47 19q31 0 52 -21t21 -53q0 -36 -34 -67l-43 -39q-78 -68 -130 -68zM1005 178q0 -126 -77 -204.5t-210 -78.5q-127 0 -222 80t-151 235h-61v-107q0 -51 -28.5 -80.5
t-80.5 -29.5t-81 29.5t-29 80.5v511q0 56 29.5 85.5t85.5 29.5l169 -1q311 -2 311 -259q0 -131 -109 -214q38 -81 77.5 -122t86.5 -41q34 0 53.5 26.5t19.5 68.5q0 18 -6 42q-7 35 -7 45q0 43 29.5 69t75.5 26q33 0 59 -18t40 -48q26 -53 26 -125zM284 553v-176h64
q95 0 95 88t-101 88h-58z" />
    <glyph glyph-name="uni0156.fina" horiz-adv-x="1027" 
d="M1005 178q0 -126 -77 -204.5t-210 -78.5q-127 0 -222 80t-151 235h-61v-107q0 -51 -28.5 -80.5t-80.5 -29.5t-81 29.5t-29 80.5v511q0 56 29.5 85.5t85.5 29.5l169 -1q311 -2 311 -259q0 -131 -109 -214q38 -81 77.5 -122t86.5 -41q34 0 53.5 26.5t19.5 68.5q0 18 -6 42
q-7 35 -7 45q0 43 29.5 69t75.5 26q33 0 59 -18t40 -48q26 -53 26 -125zM284 553v-176h64q95 0 95 88t-101 88h-58zM317 -343q-40 0 -59 24t-14 60q8 86 9 122q2 35 24.5 58.5t60.5 23.5q43 0 66 -27.5t19 -66.5q-8 -70 -34 -144q-19 -50 -72 -50z" />
    <glyph glyph-name="A.init" horiz-adv-x="1052" 
d="M1024 131q19 -55 -10.5 -96.5t-90.5 -41.5q-46 0 -69 22t-35 65l-10 34h-218q-47 -108 -116 -163.5t-177 -55.5q-131 0 -204 72.5t-73 190.5q0 84 31 129q35 49 98 49q45 0 72.5 -25t27.5 -66q0 -12 -6 -38q-6 -20 -6 -43q0 -72 60 -72q56 0 110 129q24 57 98 291
q1 5 3 10l23 68q25 72 61.5 105t104.5 33q69 0 106 -33t62 -104zM647 280h114l-59 203h-2l-18 -60q-15 -67 -35 -143z" />
    <glyph glyph-name="Aacute.init" horiz-adv-x="1052" 
d="M697 771q-33 0 -56 22.5t-23 55.5q0 36 24 62l64 81q35 45 80 45q40 0 65.5 -27.5t25.5 -65.5q0 -47 -39 -79l-83 -70q-33 -24 -58 -24zM1024 131q19 -55 -10.5 -96.5t-90.5 -41.5q-46 0 -69 22t-35 65l-10 34h-218q-47 -108 -116 -163.5t-177 -55.5q-131 0 -204 72.5
t-73 190.5q0 84 31 129q35 49 98 49q45 0 72.5 -25t27.5 -66q0 -12 -6 -38q-6 -20 -6 -43q0 -72 60 -72q56 0 110 129q24 57 98 291q1 5 3 10l23 68q25 72 61.5 105t104.5 33q69 0 106 -33t62 -104zM647 280h114l-59 203h-2l-18 -60q-15 -67 -35 -143z" />
    <glyph glyph-name="Abreve.init" horiz-adv-x="1052" 
d="M698 767q-93 0 -147.5 45t-54.5 111q0 35 21.5 55.5t53.5 20.5q52 0 72 -51q17 -45 55 -45q22 0 34 11.5t21 36.5q18 48 71 48q33 0 54 -20t21 -56q0 -67 -54.5 -111.5t-146.5 -44.5zM1024 131q19 -55 -10.5 -96.5t-90.5 -41.5q-46 0 -69 22t-35 65l-10 34h-218
q-47 -108 -116 -163.5t-177 -55.5q-131 0 -204 72.5t-73 190.5q0 84 31 129q35 49 98 49q45 0 72.5 -25t27.5 -66q0 -12 -6 -38q-6 -20 -6 -43q0 -72 60 -72q56 0 110 129q24 57 98 291q1 5 3 10l23 68q25 72 61.5 105t104.5 33q69 0 106 -33t62 -104zM647 280h114l-59 203
h-2l-18 -60q-15 -67 -35 -143z" />
    <glyph glyph-name="Acircumflex.init" horiz-adv-x="1052" 
d="M565 763q-31 0 -52 21t-21 53q0 36 34 68l43 38q27 22 43 34t40.5 23t46.5 11q52 0 130 -68l43 -38q34 -31 34 -68q0 -32 -21.5 -53t-51.5 -21q-25 0 -48 19l-85 71h-2l-85 -71q-23 -19 -48 -19zM1024 131q19 -55 -10.5 -96.5t-90.5 -41.5q-46 0 -69 22t-35 65l-10 34
h-218q-47 -108 -116 -163.5t-177 -55.5q-131 0 -204 72.5t-73 190.5q0 84 31 129q35 49 98 49q45 0 72.5 -25t27.5 -66q0 -12 -6 -38q-6 -20 -6 -43q0 -72 60 -72q56 0 110 129q24 57 98 291q1 5 3 10l23 68q25 72 61.5 105t104.5 33q69 0 106 -33t62 -104zM647 280h114
l-59 203h-2l-18 -60q-15 -67 -35 -143z" />
    <glyph glyph-name="Adieresis.init" horiz-adv-x="1052" 
d="M571 783q-54 0 -83 29t-29 74q0 43 30 73.5t82 30.5q51 0 80.5 -30.5t29.5 -73.5q0 -45 -28.5 -74t-81.5 -29zM833 783q-54 0 -83 29t-29 74q0 43 30 73.5t82 30.5q51 0 80.5 -30.5t29.5 -73.5q0 -45 -28.5 -74t-81.5 -29zM1024 131q19 -55 -10.5 -96.5t-90.5 -41.5
q-46 0 -69 22t-35 65l-10 34h-218q-47 -108 -116 -163.5t-177 -55.5q-131 0 -204 72.5t-73 190.5q0 84 31 129q35 49 98 49q45 0 72.5 -25t27.5 -66q0 -12 -6 -38q-6 -20 -6 -43q0 -72 60 -72q56 0 110 129q24 57 98 291q1 5 3 10l23 68q25 72 61.5 105t104.5 33
q69 0 106 -33t62 -104zM647 280h114l-59 203h-2l-18 -60q-15 -67 -35 -143z" />
    <glyph glyph-name="Agrave.init" horiz-adv-x="1052" 
d="M552 865q-39 32 -39 79q0 38 25.5 65.5t64.5 27.5q46 0 81 -45l64 -81q23 -25 23 -62q0 -33 -22.5 -55.5t-56.5 -22.5q-26 0 -57 24zM1024 131q19 -55 -10.5 -96.5t-90.5 -41.5q-46 0 -69 22t-35 65l-10 34h-218q-47 -108 -116 -163.5t-177 -55.5q-131 0 -204 72.5
t-73 190.5q0 84 31 129q35 49 98 49q45 0 72.5 -25t27.5 -66q0 -12 -6 -38q-6 -20 -6 -43q0 -72 60 -72q56 0 110 129q24 57 98 291q1 5 3 10l23 68q25 72 61.5 105t104.5 33q69 0 106 -33t62 -104zM647 280h114l-59 203h-2l-18 -60q-15 -67 -35 -143z" />
    <glyph glyph-name="Amacron.init" horiz-adv-x="1052" 
d="M581 814q-31 0 -53.5 23t-22.5 55q0 31 22.5 53.5t53.5 22.5h250q31 0 53.5 -22.5t22.5 -54.5t-22.5 -54.5t-53.5 -22.5h-250zM1024 131q19 -55 -10.5 -96.5t-90.5 -41.5q-46 0 -69 22t-35 65l-10 34h-218q-47 -108 -116 -163.5t-177 -55.5q-131 0 -204 72.5t-73 190.5
q0 84 31 129q35 49 98 49q45 0 72.5 -25t27.5 -66q0 -12 -6 -38q-6 -20 -6 -43q0 -72 60 -72q56 0 110 129q24 57 98 291q1 5 3 10l23 68q25 72 61.5 105t104.5 33q69 0 106 -33t62 -104zM647 280h114l-59 203h-2l-18 -60q-15 -67 -35 -143z" />
    <glyph glyph-name="Aogonek.init" horiz-adv-x="1052" 
d="M993 -124q23 0 38 -17.5t15 -46.5q0 -32 -24 -51q-31 -23 -85 -23q-72 0 -116 42.5t-44 113.5q0 85 57 146q-9 19 -15 40l-10 34h-218q-47 -108 -116 -163.5t-177 -55.5q-131 0 -204 72.5t-73 190.5q0 84 31 129q35 49 98 49q45 0 72.5 -25t27.5 -66q0 -12 -6 -38
q-6 -20 -6 -43q0 -72 60 -72q56 0 110 129q24 57 98 291q1 5 3 10l23 68q25 72 61.5 105t104.5 33q69 0 106 -33t62 -104l158 -460q12 -35 4 -66t-34 -50l-2 -2q-57 -42 -57 -98q0 -41 35 -41q4 0 11 1t12 1zM647 280h114l-59 203h-2l-18 -60q-15 -67 -35 -143z" />
    <glyph glyph-name="Aring.init" horiz-adv-x="1052" 
d="M699 753q-61 0 -100 34t-39 94t39 94t100 34t100 -34t39 -94t-39 -94t-100 -34zM699 915q-27 0 -27 -34t27 -34q28 0 28 34t-28 34zM1024 131q19 -55 -10.5 -96.5t-90.5 -41.5q-46 0 -69 22t-35 65l-10 34h-218q-47 -108 -116 -163.5t-177 -55.5q-131 0 -204 72.5
t-73 190.5q0 84 31 129q35 49 98 49q45 0 72.5 -25t27.5 -66q0 -12 -6 -38q-6 -20 -6 -43q0 -72 60 -72q56 0 110 129q24 57 98 291q1 5 3 10l23 68q25 72 61.5 105t104.5 33q69 0 106 -33t62 -104zM647 280h114l-59 203h-2l-18 -60q-15 -67 -35 -143z" />
    <glyph glyph-name="Atilde.init" horiz-adv-x="1052" 
d="M532 768q-32 0 -50 22t-18 54q0 55 41 92.5t103 37.5q52 0 98 -21.5t61 -21.5q9 0 15.5 3t10 5.5t10 10t9.5 10.5q20 20 49 20q33 0 50.5 -24.5t17.5 -59.5q0 -47 -35 -85t-95 -38q-51 0 -101.5 23.5t-70.5 23.5q-7 0 -12.5 -1.5t-8.5 -2.5t-7 -5l-5 -5t-6 -8l-4 -6
q-18 -24 -52 -24zM1024 131q19 -55 -10.5 -96.5t-90.5 -41.5q-46 0 -69 22t-35 65l-10 34h-218q-47 -108 -116 -163.5t-177 -55.5q-131 0 -204 72.5t-73 190.5q0 84 31 129q35 49 98 49q45 0 72.5 -25t27.5 -66q0 -12 -6 -38q-6 -20 -6 -43q0 -72 60 -72q56 0 110 129
q24 57 98 291q1 5 3 10l23 68q25 72 61.5 105t104.5 33q69 0 106 -33t62 -104zM647 280h114l-59 203h-2l-18 -60q-15 -67 -35 -143z" />
    <glyph glyph-name="H.init" horiz-adv-x="1108" 
d="M19 579q0 118 72 189t199 71q293 0 303 -365v-10h230v153q0 51 28.5 81t80.5 30t81 -30t29 -81v-514q0 -51 -28.5 -80.5t-81.5 -29.5q-52 0 -80.5 29.5t-28.5 80.5v155h-230v-155q0 -51 -29 -80.5t-82 -29.5q-52 0 -80 29.5t-28 80.5v360q0 91 -16.5 135t-60.5 44
q-30 0 -45.5 -18.5t-15.5 -51.5q0 -12 5 -37q7 -30 7 -39q0 -42 -29.5 -69t-77.5 -27q-60 0 -94 57q-28 53 -28 122z" />
    <glyph glyph-name="J.init" horiz-adv-x="657" 
d="M20 152q0 73 28 122q33 57 93 57q48 0 77.5 -26.5t29.5 -69.5q0 -17 -7 -38q-4 -20 -4 -38q0 -69 60 -69q45 0 61.5 44.5t16.5 134.5v350q0 47 29.5 78t80.5 31q57 0 83.5 -30t26.5 -79v-360q0 -183 -78 -274.5t-226 -91.5q-127 0 -199 71t-72 188z" />
    <glyph glyph-name="M.init" horiz-adv-x="1293" 
d="M20 147q0 82 32 130q33 49 98 49q45 0 72.5 -25t27.5 -66q0 -7 -7 -40q-6 -24 -6 -41q0 -62 55 -62q24 0 43.5 26t34.5 73.5t26.5 106.5t22.5 133t20 145v3q20 149 132 149q53 0 83 -28t58 -104l99 -290h2l136 298q31 68 64 96t83 28q64 0 98.5 -42.5t34.5 -112.5v-478
q0 -47 -26 -74.5t-75 -27.5q-47 0 -73.5 27.5t-26.5 74.5v263h-2l-106 -246q-29 -69 -49 -94t-58 -25q-40 0 -60 25t-47 93l-97 247h-2q-32 -463 -315 -463q-128 0 -200 69t-72 183z" />
    <glyph glyph-name="N.init" horiz-adv-x="1100" 
d="M20 152q0 73 28 122q33 57 93 57q48 0 77.5 -26.5t29.5 -69.5q0 -17 -7 -38q-4 -20 -4 -38q0 -69 60 -69q45 0 61.5 44.5t16.5 134.5v344q0 55 29 85t80 30q40 0 65 -22t73 -88l192 -262h2l-1 261q0 51 29 81t82 30q52 0 80.5 -30t28.5 -81v-509q0 -55 -29.5 -85
t-81.5 -30q-43 0 -74.5 26t-85.5 98l-169 231h-2l1 -93q0 -362 -303 -362q-127 0 -199 71t-72 188z" />
    <glyph glyph-name="Nacute.init" horiz-adv-x="1100" 
d="M636 919l64 81q35 45 81 45q40 0 65 -27t25 -66q0 -48 -39 -79l-83 -70q-31 -24 -57 -24q-34 0 -56.5 22.5t-22.5 55.5q0 37 23 62zM20 152q0 73 28 122q33 57 93 57q48 0 77.5 -26.5t29.5 -69.5q0 -17 -7 -38q-4 -20 -4 -38q0 -69 60 -69q45 0 61.5 44.5t16.5 134.5v344
q0 55 29 85t80 30q40 0 65 -22t73 -88l192 -262h2l-1 261q0 51 29 81t82 30q52 0 80.5 -30t28.5 -81v-509q0 -55 -29.5 -85t-81.5 -30q-43 0 -74.5 26t-85.5 98l-169 231h-2l1 -93q0 -362 -303 -362q-127 0 -199 71t-72 188z" />
    <glyph glyph-name="Ncaron.init" horiz-adv-x="1100" 
d="M693 774q-52 0 -130 68l-44 38q-33 30 -33 67q0 33 21 54t52 21q25 0 47 -19l86 -74h2l85 74q22 19 48 19q30 0 51.5 -21.5t21.5 -53.5q0 -35 -34 -67l-43 -38q-76 -68 -130 -68zM20 152q0 73 28 122q33 57 93 57q48 0 77.5 -26.5t29.5 -69.5q0 -17 -7 -38q-4 -20 -4 -38
q0 -69 60 -69q45 0 61.5 44.5t16.5 134.5v344q0 55 29 85t80 30q40 0 65 -22t73 -88l192 -262h2l-1 261q0 51 29 81t82 30q52 0 80.5 -30t28.5 -81v-509q0 -55 -29.5 -85t-81.5 -30q-43 0 -74.5 26t-85.5 98l-169 231h-2l1 -93q0 -362 -303 -362q-127 0 -199 71t-72 188z
" />
    <glyph glyph-name="uni0145.init" horiz-adv-x="1100" 
d="M20 152q0 73 28 122q33 57 93 57q48 0 77.5 -26.5t29.5 -69.5q0 -17 -7 -38q-4 -20 -4 -38q0 -69 60 -69q45 0 61.5 44.5t16.5 134.5v344q0 55 29 85t80 30q40 0 65 -22t73 -88l192 -262h2l-1 261q0 51 29 81t82 30q52 0 80.5 -30t28.5 -81v-509q0 -55 -29.5 -85
t-81.5 -30q-43 0 -74.5 26t-85.5 98l-169 231h-2l1 -93q0 -362 -303 -362q-127 0 -199 71t-72 188zM659 -343q-40 0 -59 24t-14 60q7 71 9 122q1 35 24 58.5t61 23.5q42 0 65.5 -27.5t19.5 -66.5q-8 -72 -35 -144q-18 -50 -71 -50z" />
    <glyph glyph-name="Ntilde.init" horiz-adv-x="1100" 
d="M602 983q53 0 99 -22t60 -22q9 0 16 3t10 5.5t9.5 10t9.5 10.5q20 20 49 20q33 0 50.5 -24.5t17.5 -59.5q0 -48 -34.5 -85.5t-95.5 -37.5q-51 0 -101 23.5t-71 23.5q-7 0 -13 -1t-11 -5t-6.5 -5.5t-6.5 -8.5t-6 -8q-18 -24 -52 -24q-32 0 -50 22.5t-18 54.5q0 55 41 92.5
t103 37.5zM20 152q0 73 28 122q33 57 93 57q48 0 77.5 -26.5t29.5 -69.5q0 -17 -7 -38q-4 -20 -4 -38q0 -69 60 -69q45 0 61.5 44.5t16.5 134.5v344q0 55 29 85t80 30q40 0 65 -22t73 -88l192 -262h2l-1 261q0 51 29 81t82 30q52 0 80.5 -30t28.5 -81v-509q0 -55 -29.5 -85
t-81.5 -30q-43 0 -74.5 26t-85.5 98l-169 231h-2l1 -93q0 -362 -303 -362q-127 0 -199 71t-72 188z" />
    <glyph glyph-name="T.init" horiz-adv-x="973" 
d="M290 382q14 0 40 6q22 6 37 6q42 0 64.5 -26.5t22.5 -70.5q0 -65 -65 -96q-42 -23 -108 -23q-116 0 -186 70t-70 187q0 140 92 216.5t266 76.5h479q47 0 74.5 -28t27.5 -75t-27.5 -74.5t-74.5 -27.5h-89l-1 -420q0 -51 -28.5 -80.5t-80.5 -29.5q-53 0 -81.5 29.5
t-28.5 80.5l-1 420h-155q-87 0 -128.5 -18t-41.5 -63q0 -27 16 -43.5t47 -16.5z" />
    <glyph glyph-name="Tcaron.init" horiz-adv-x="973" 
d="M662 774q-53 0 -129 68l-44 38q-34 31 -34 67q0 32 21.5 53.5t52.5 21.5q25 0 47 -19l85 -74h2l86 74q22 19 47 19q30 0 51.5 -21t21.5 -54q0 -35 -34 -67l-43 -38q-76 -68 -130 -68zM290 382q14 0 40 6q22 6 37 6q42 0 64.5 -26.5t22.5 -70.5q0 -65 -65 -96
q-42 -23 -108 -23q-116 0 -186 70t-70 187q0 140 92 216.5t266 76.5h479q47 0 74.5 -28t27.5 -75t-27.5 -74.5t-74.5 -27.5h-89l-1 -420q0 -51 -28.5 -80.5t-80.5 -29.5q-53 0 -81.5 29.5t-28.5 80.5l-1 420h-155q-87 0 -128.5 -18t-41.5 -63q0 -27 16 -43.5t47 -16.5z" />
    <glyph glyph-name="uni0162.init" horiz-adv-x="973" 
d="M862 728q47 0 74.5 -28t27.5 -75t-27.5 -74.5t-74.5 -27.5h-89l-1 -420q0 -63 -41 -92l-11 -28q4 -1 10.5 -2.5t22.5 -9t28.5 -18.5t23 -32.5t10.5 -48.5q0 -52 -41.5 -87.5t-118.5 -35.5q-54 0 -86 22q-32 20 -32 52q0 25 14.5 40t34.5 15q10 0 23.5 -4.5t19.5 -4.5
q27 0 27 26t-34 26q-23 0 -32 10.5t-1 38.5l11 38q-47 27 -47 95l-1 420h-155q-87 0 -128.5 -18t-41.5 -63q0 -27 16 -43.5t47 -16.5q14 0 40 6q22 6 37 6q42 0 64.5 -26.5t22.5 -70.5q0 -65 -65 -96q-42 -23 -108 -23q-116 0 -186 70t-70 187q0 140 92 216.5t266 76.5h479z
" />
    <glyph glyph-name="uni021A.init" horiz-adv-x="973" 
d="M290 382q14 0 40 6q22 6 37 6q42 0 64.5 -26.5t22.5 -70.5q0 -65 -65 -96q-42 -23 -108 -23q-116 0 -186 70t-70 187q0 140 92 216.5t266 76.5h479q47 0 74.5 -28t27.5 -75t-27.5 -74.5t-74.5 -27.5h-89l-1 -420q0 -51 -28.5 -80.5t-80.5 -29.5q-53 0 -81.5 29.5
t-28.5 80.5l-1 420h-155q-87 0 -128.5 -18t-41.5 -63q0 -27 16 -43.5t47 -16.5zM635 -318q-41 0 -59.5 23.5t-14.5 59.5q7 62 10 122q1 35 23.5 58.5t60.5 23.5q43 0 66.5 -27.5t19.5 -65.5q-9 -72 -35 -145q-18 -49 -71 -49z" />
    <glyph glyph-name="U.init" horiz-adv-x="1087" 
d="M19 591q0 118 72 189t199 71q291 0 300 -363v-176q0 -132 111 -132t111 132v305q0 51 29 81t81 30t80.5 -30t28.5 -81v-277q0 -356 -330 -356q-164 0 -247 90.5t-83 265.5v138q0 89 -16 132.5t-59 43.5q-60 0 -60 -69q0 -18 4 -38q7 -23 7 -38q0 -43 -29.5 -70t-77.5 -27
q-59 0 -93 57q-28 50 -28 122z" />
    <glyph glyph-name="Uacute.init" horiz-adv-x="1087" 
d="M649 906l65 81q34 44 80 44q40 0 65.5 -27t25.5 -66q0 -47 -39 -79l-83 -69q-33 -24 -58 -24q-34 0 -56.5 22.5t-22.5 55.5q0 36 23 62zM19 591q0 118 72 189t199 71q291 0 300 -363v-176q0 -132 111 -132t111 132v305q0 51 29 81t81 30t80.5 -30t28.5 -81v-277
q0 -356 -330 -356q-164 0 -247 90.5t-83 265.5v138q0 89 -16 132.5t-59 43.5q-60 0 -60 -69q0 -18 4 -38q7 -23 7 -38q0 -43 -29.5 -70t-77.5 -27q-59 0 -93 57q-28 50 -28 122z" />
    <glyph glyph-name="Ucircumflex.init" horiz-adv-x="1087" 
d="M607 758q-31 0 -52 21t-21 53q0 36 34 67l43 39q26 22 42 33.5t40.5 22.5t46.5 11q53 0 130 -67l44 -39q33 -30 33 -67q0 -32 -21 -53t-52 -21q-24 0 -47 19l-86 71h-2l-85 -71q-23 -19 -47 -19zM19 591q0 118 72 189t199 71q291 0 300 -363v-176q0 -132 111 -132
t111 132v305q0 51 29 81t81 30t80.5 -30t28.5 -81v-277q0 -356 -330 -356q-164 0 -247 90.5t-83 265.5v138q0 89 -16 132.5t-59 43.5q-60 0 -60 -69q0 -18 4 -38q7 -23 7 -38q0 -43 -29.5 -70t-77.5 -27q-59 0 -93 57q-28 50 -28 122z" />
    <glyph glyph-name="Udieresis.init" horiz-adv-x="1087" 
d="M612 777q-53 0 -82.5 29t-29.5 75q0 43 30 73.5t82 30.5q51 0 80.5 -30.5t29.5 -73.5q0 -46 -28.5 -75t-81.5 -29zM874 777q-53 0 -82.5 29t-29.5 75q0 43 30 73.5t82 30.5q51 0 80.5 -30.5t29.5 -73.5q0 -46 -28.5 -75t-81.5 -29zM19 591q0 118 72 189t199 71
q291 0 300 -363v-176q0 -132 111 -132t111 132v305q0 51 29 81t81 30t80.5 -30t28.5 -81v-277q0 -356 -330 -356q-164 0 -247 90.5t-83 265.5v138q0 89 -16 132.5t-59 43.5q-60 0 -60 -69q0 -18 4 -38q7 -23 7 -38q0 -43 -29.5 -70t-77.5 -27q-59 0 -93 57q-28 50 -28 122z
" />
    <glyph glyph-name="Ugrave.init" horiz-adv-x="1087" 
d="M725 987l64 -81q24 -26 24 -62q0 -33 -22.5 -55.5t-56.5 -22.5q-25 0 -58 24l-83 69q-39 32 -39 79q0 39 25.5 66t65.5 27q46 0 80 -44zM19 591q0 118 72 189t199 71q291 0 300 -363v-176q0 -132 111 -132t111 132v305q0 51 29 81t81 30t80.5 -30t28.5 -81v-277
q0 -356 -330 -356q-164 0 -247 90.5t-83 265.5v138q0 89 -16 132.5t-59 43.5q-60 0 -60 -69q0 -18 4 -38q7 -23 7 -38q0 -43 -29.5 -70t-77.5 -27q-59 0 -93 57q-28 50 -28 122z" />
    <glyph glyph-name="Uhungarumlaut.init" horiz-adv-x="1087" 
d="M621 751q-36 0 -62 25t-26 62q0 28 16 57l48 82q28 50 79 50q40 0 71 -28.5t31 -68.5q0 -30 -20 -57l-56 -76q-33 -46 -81 -46zM866 751q-36 0 -62 25t-26 62q0 28 16 57l48 82q28 50 79 50q40 0 71 -28.5t31 -68.5q0 -30 -20 -57l-56 -76q-33 -46 -81 -46zM19 591
q0 118 72 189t199 71q291 0 300 -363v-176q0 -132 111 -132t111 132v305q0 51 29 81t81 30t80.5 -30t28.5 -81v-277q0 -356 -330 -356q-164 0 -247 90.5t-83 265.5v138q0 89 -16 132.5t-59 43.5q-60 0 -60 -69q0 -18 4 -38q7 -23 7 -38q0 -43 -29.5 -70t-77.5 -27
q-59 0 -93 57q-28 50 -28 122z" />
    <glyph glyph-name="Umacron.init" horiz-adv-x="1087" 
d="M846 809h-250q-31 0 -53.5 23t-22.5 55q0 31 22.5 53.5t53.5 22.5h250q31 0 53.5 -23t22.5 -55q0 -31 -22.5 -53.5t-53.5 -22.5zM19 591q0 118 72 189t199 71q291 0 300 -363v-176q0 -132 111 -132t111 132v305q0 51 29 81t81 30t80.5 -30t28.5 -81v-277
q0 -356 -330 -356q-164 0 -247 90.5t-83 265.5v138q0 89 -16 132.5t-59 43.5q-60 0 -60 -69q0 -18 4 -38q7 -23 7 -38q0 -43 -29.5 -70t-77.5 -27q-59 0 -93 57q-28 50 -28 122z" />
    <glyph glyph-name="Uogonek.init" horiz-adv-x="1087" 
d="M922 728q52 0 80.5 -30t28.5 -81v-277q0 -305 -242 -349q-1 0 -3 -2q-57 -42 -57 -98q0 -41 35 -41q4 0 11 1t12 1q23 0 38 -17.5t15 -46.5q0 -32 -24 -51q-31 -23 -85 -23q-72 0 -116 42.5t-44 113.5q0 68 38 122q-238 48 -238 348v138q0 89 -16 132.5t-59 43.5
q-60 0 -60 -69q0 -18 4 -38q7 -23 7 -38q0 -43 -29.5 -70t-77.5 -27q-59 0 -93 57q-28 50 -28 122q0 118 72 189t199 71q291 0 300 -363v-176q0 -132 111 -132t111 132v305q0 51 29 81t81 30z" />
    <glyph glyph-name="Uring.init" horiz-adv-x="1087" 
d="M718 748q-61 0 -100 34t-39 94t39 94t100 34t100 -34t39 -94t-39 -94t-100 -34zM718 842q28 0 28 34q0 33 -28 33q-27 0 -27 -33q0 -34 27 -34zM19 591q0 118 72 189t199 71q291 0 300 -363v-176q0 -132 111 -132t111 132v305q0 51 29 81t81 30t80.5 -30t28.5 -81v-277
q0 -356 -330 -356q-164 0 -247 90.5t-83 265.5v138q0 89 -16 132.5t-59 43.5q-60 0 -60 -69q0 -18 4 -38q7 -23 7 -38q0 -43 -29.5 -70t-77.5 -27q-59 0 -93 57q-28 50 -28 122z" />
    <glyph glyph-name="Utilde.init" horiz-adv-x="1087" 
d="M649 969q53 0 99 -22t60 -22q9 0 16 3t10 5.5t9.5 10t9.5 10.5q18 20 49 20q33 0 50.5 -24t17.5 -60q0 -47 -34.5 -85t-95.5 -38q-50 0 -101 23.5t-71 23.5q-8 0 -13.5 -1t-10.5 -5t-6.5 -5t-6.5 -8t-6 -8q-18 -24 -52 -24q-32 0 -50 22t-18 54q0 55 41 92.5t103 37.5z
M19 591q0 118 72 189t199 71q291 0 300 -363v-176q0 -132 111 -132t111 132v305q0 51 29 81t81 30t80.5 -30t28.5 -81v-277q0 -356 -330 -356q-164 0 -247 90.5t-83 265.5v138q0 89 -16 132.5t-59 43.5q-60 0 -60 -69q0 -18 4 -38q7 -23 7 -38q0 -43 -29.5 -70t-77.5 -27
q-59 0 -93 57q-28 50 -28 122z" />
    <glyph glyph-name="V.init" horiz-adv-x="1076" 
d="M20 577q0 114 71 185.5t197 71.5q48 0 88.5 -11t72 -28.5t59 -49.5t47.5 -64.5t40.5 -83t35.5 -95.5t34 -111l44 -167h2l133 418q13 42 35.5 64t67.5 22q61 0 90.5 -41.5t9.5 -96.5l-168 -456q-27 -74 -64 -107.5t-105 -33.5q-66 0 -103 31.5t-63 100.5l-74 230
q-59 170 -92.5 226.5t-82.5 56.5q-60 0 -60 -68q0 -26 10 -49q5 -17 5 -32q0 -44 -28 -70t-74 -26q-63 0 -96 54q-32 52 -32 130z" />
    <glyph glyph-name="W.init" horiz-adv-x="1404" 
d="M20 577q0 114 71 185.5t197 71.5q65 0 115.5 -18.5t87.5 -51.5t67 -88.5t51.5 -118.5t44.5 -153l30 -106h2l76 316q15 62 45 88t82 26q47 0 75 -26.5t43 -87.5l76 -316h2l82 333q13 53 36 75t70 22q60 0 90 -38t13 -94l-143 -447q-27 -89 -57 -122.5t-90 -33.5
q-61 0 -91 37t-50 118l-60 239h-2l-61 -241q-23 -80 -53 -116.5t-87 -36.5q-60 0 -90 32.5t-56 116.5l-75 235q-41 140 -77 200.5t-89 60.5q-60 0 -60 -68q0 -26 10 -49q5 -17 5 -32q0 -43 -28.5 -69.5t-73.5 -26.5q-63 0 -93 51q-35 54 -35 133z" />
    <glyph glyph-name="Wacute.init" horiz-adv-x="1404" 
d="M827 919l64 81q35 45 80 45q40 0 65.5 -27.5t25.5 -65.5q0 -47 -39 -79l-83 -70q-32 -24 -57 -24q-34 0 -57 22.5t-23 55.5q0 36 24 62zM20 577q0 114 71 185.5t197 71.5q65 0 115.5 -18.5t87.5 -51.5t67 -88.5t51.5 -118.5t44.5 -153l30 -106h2l76 316q15 62 45 88
t82 26q47 0 75 -26.5t43 -87.5l76 -316h2l82 333q13 53 36 75t70 22q60 0 90 -38t13 -94l-143 -447q-27 -89 -57 -122.5t-90 -33.5q-61 0 -91 37t-50 118l-60 239h-2l-61 -241q-23 -80 -53 -116.5t-87 -36.5q-60 0 -90 32.5t-56 116.5l-75 235q-41 140 -77 200.5t-89 60.5
q-60 0 -60 -68q0 -26 10 -49q5 -17 5 -32q0 -43 -28.5 -69.5t-73.5 -26.5q-63 0 -93 51q-35 54 -35 133z" />
    <glyph glyph-name="Wcircumflex.init" horiz-adv-x="1404" 
d="M750 771q-30 0 -51.5 21t-21.5 53q0 36 34 68l43 38q27 22 43 34t40.5 23t46.5 11q52 0 130 -68l44 -38q33 -30 33 -68q0 -32 -21 -53t-52 -21q-25 0 -47 19l-86 71h-2l-85 -71q-23 -19 -48 -19zM20 577q0 114 71 185.5t197 71.5q65 0 115.5 -18.5t87.5 -51.5t67 -88.5
t51.5 -118.5t44.5 -153l30 -106h2l76 316q15 62 45 88t82 26q47 0 75 -26.5t43 -87.5l76 -316h2l82 333q13 53 36 75t70 22q60 0 90 -38t13 -94l-143 -447q-27 -89 -57 -122.5t-90 -33.5q-61 0 -91 37t-50 118l-60 239h-2l-61 -241q-23 -80 -53 -116.5t-87 -36.5
q-60 0 -90 32.5t-56 116.5l-75 235q-41 140 -77 200.5t-89 60.5q-60 0 -60 -68q0 -26 10 -49q5 -17 5 -32q0 -43 -28.5 -69.5t-73.5 -26.5q-63 0 -93 51q-35 54 -35 133z" />
    <glyph glyph-name="Wdieresis.init" horiz-adv-x="1404" 
d="M756 791q-54 0 -83 29t-29 75q0 43 30 73t82 30q51 0 80.5 -30t29.5 -73q0 -46 -28.5 -75t-81.5 -29zM1018 791q-54 0 -83 29t-29 75q0 43 30 73t82 30q51 0 80.5 -30t29.5 -73q0 -46 -28.5 -75t-81.5 -29zM20 577q0 114 71 185.5t197 71.5q65 0 115.5 -18.5t87.5 -51.5
t67 -88.5t51.5 -118.5t44.5 -153l30 -106h2l76 316q15 62 45 88t82 26q47 0 75 -26.5t43 -87.5l76 -316h2l82 333q13 53 36 75t70 22q60 0 90 -38t13 -94l-143 -447q-27 -89 -57 -122.5t-90 -33.5q-61 0 -91 37t-50 118l-60 239h-2l-61 -241q-23 -80 -53 -116.5t-87 -36.5
q-60 0 -90 32.5t-56 116.5l-75 235q-41 140 -77 200.5t-89 60.5q-60 0 -60 -68q0 -26 10 -49q5 -17 5 -32q0 -43 -28.5 -69.5t-73.5 -26.5q-63 0 -93 51q-35 54 -35 133z" />
    <glyph glyph-name="Wgrave.init" horiz-adv-x="1404" 
d="M869 1000l64 -81q24 -26 24 -62q0 -33 -23 -55.5t-57 -22.5q-25 0 -57 24l-83 70q-39 32 -39 79q0 38 25.5 65.5t65.5 27.5q45 0 80 -45zM20 577q0 114 71 185.5t197 71.5q65 0 115.5 -18.5t87.5 -51.5t67 -88.5t51.5 -118.5t44.5 -153l30 -106h2l76 316q15 62 45 88
t82 26q47 0 75 -26.5t43 -87.5l76 -316h2l82 333q13 53 36 75t70 22q60 0 90 -38t13 -94l-143 -447q-27 -89 -57 -122.5t-90 -33.5q-61 0 -91 37t-50 118l-60 239h-2l-61 -241q-23 -80 -53 -116.5t-87 -36.5q-60 0 -90 32.5t-56 116.5l-75 235q-41 140 -77 200.5t-89 60.5
q-60 0 -60 -68q0 -26 10 -49q5 -17 5 -32q0 -43 -28.5 -69.5t-73.5 -26.5q-63 0 -93 51q-35 54 -35 133z" />
    <glyph glyph-name="i.loclTRK" horiz-adv-x="315" 
d="M158 581q-56 0 -90.5 32t-34.5 87t34.5 86.5t90.5 31.5t89.5 -31.5t33.5 -86.5t-33.5 -87t-89.5 -32zM158 -7q-53 0 -81.5 29.5t-28.5 80.5v304q0 51 29 81t81 30t80.5 -30t28.5 -81v-304q0 -51 -28.5 -80.5t-80.5 -29.5z" />
    <glyph glyph-name="a.fina" horiz-adv-x="887" 
d="M888 2q0 -113 -67 -180.5t-191 -67.5q-136 0 -200.5 83.5t-65.5 213.5v13h-2q-61 -80 -167 -80q-83 0 -128 40t-45 115q0 82 57 123t144 41q71 0 122 -26q0 45 -25.5 60t-74.5 15q-25 0 -69 -8q-25 -5 -42 -5q-32 0 -50 20t-18 54q0 61 71 90q59 23 147 23q65 0 113 -17
t75.5 -42.5t44.5 -63.5t22.5 -73t5.5 -78v-179q0 -137 80 -137q65 0 65 73q0 22 -7 45q-6 26 -6 41q0 40 27 63.5t70 23.5q61 0 88 -58q26 -51 26 -122zM272 124q26 0 47.5 18t25.5 45q-27 17 -61 17q-26 0 -42.5 -11.5t-16.5 -30.5q0 -38 47 -38z" />
    <glyph glyph-name="aacute.fina" horiz-adv-x="887" 
d="M246 712l65 81q34 44 80 44q40 0 65.5 -27t25.5 -66q0 -46 -39 -78l-83 -70q-33 -24 -58 -24q-34 0 -56.5 22.5t-22.5 55.5q0 36 23 62zM888 2q0 -113 -67 -180.5t-191 -67.5q-136 0 -200.5 83.5t-65.5 213.5v13h-2q-61 -80 -167 -80q-83 0 -128 40t-45 115q0 82 57 123
t144 41q71 0 122 -26q0 45 -25.5 60t-74.5 15q-25 0 -69 -8q-25 -5 -42 -5q-32 0 -50 20t-18 54q0 61 71 90q59 23 147 23q65 0 113 -17t75.5 -42.5t44.5 -63.5t22.5 -73t5.5 -78v-179q0 -137 80 -137q65 0 65 73q0 22 -7 45q-6 26 -6 41q0 40 27 63.5t70 23.5q61 0 88 -58
q26 -51 26 -122zM272 124q26 0 47.5 18t25.5 45q-27 17 -61 17q-26 0 -42.5 -11.5t-16.5 -30.5q0 -38 47 -38z" />
    <glyph glyph-name="abreve.fina" horiz-adv-x="887" 
d="M303 703q22 0 33.5 12t21.5 36q18 48 71 48q33 0 54 -20t21 -56q0 -66 -54.5 -111t-146.5 -45q-93 0 -147.5 45t-54.5 111q0 36 21.5 56t53.5 20q53 0 72 -50q16 -46 55 -46zM888 2q0 -113 -67 -180.5t-191 -67.5q-136 0 -200.5 83.5t-65.5 213.5v13h-2q-61 -80 -167 -80
q-83 0 -128 40t-45 115q0 82 57 123t144 41q71 0 122 -26q0 45 -25.5 60t-74.5 15q-25 0 -69 -8q-25 -5 -42 -5q-32 0 -50 20t-18 54q0 61 71 90q59 23 147 23q65 0 113 -17t75.5 -42.5t44.5 -63.5t22.5 -73t5.5 -78v-179q0 -137 80 -137q65 0 65 73q0 22 -7 45q-6 26 -6 41
q0 40 27 63.5t70 23.5q61 0 88 -58q26 -51 26 -122zM272 124q26 0 47.5 18t25.5 45q-27 17 -61 17q-26 0 -42.5 -11.5t-16.5 -30.5q0 -38 47 -38z" />
    <glyph glyph-name="acircumflex.fina" horiz-adv-x="887" 
d="M170 564q-31 0 -52 21t-21 53q0 36 34 67l43 39q26 22 42 33.5t41 22.5t47 11q53 0 130 -67l43 -39q34 -29 34 -67q0 -32 -21.5 -53t-51.5 -21q-25 0 -48 19l-85 71h-2l-86 -71q-22 -19 -47 -19zM888 2q0 -113 -67 -180.5t-191 -67.5q-136 0 -200.5 83.5t-65.5 213.5v13
h-2q-61 -80 -167 -80q-83 0 -128 40t-45 115q0 82 57 123t144 41q71 0 122 -26q0 45 -25.5 60t-74.5 15q-25 0 -69 -8q-25 -5 -42 -5q-32 0 -50 20t-18 54q0 61 71 90q59 23 147 23q65 0 113 -17t75.5 -42.5t44.5 -63.5t22.5 -73t5.5 -78v-179q0 -137 80 -137q65 0 65 73
q0 22 -7 45q-6 26 -6 41q0 40 27 63.5t70 23.5q61 0 88 -58q26 -51 26 -122zM272 124q26 0 47.5 18t25.5 45q-27 17 -61 17q-26 0 -42.5 -11.5t-16.5 -30.5q0 -38 47 -38z" />
    <glyph glyph-name="adieresis.fina" horiz-adv-x="887" 
d="M176 583q-54 0 -83.5 29t-29.5 75q0 43 30.5 73.5t82.5 30.5q50 0 80 -30.5t30 -73.5q0 -46 -29 -75t-81 -29zM438 583q-54 0 -83.5 29t-29.5 75q0 43 30.5 73.5t82.5 30.5q51 0 80 -30t29 -74q0 -46 -28.5 -75t-80.5 -29zM888 2q0 -113 -67 -180.5t-191 -67.5
q-136 0 -200.5 83.5t-65.5 213.5v13h-2q-61 -80 -167 -80q-83 0 -128 40t-45 115q0 82 57 123t144 41q71 0 122 -26q0 45 -25.5 60t-74.5 15q-25 0 -69 -8q-25 -5 -42 -5q-32 0 -50 20t-18 54q0 61 71 90q59 23 147 23q65 0 113 -17t75.5 -42.5t44.5 -63.5t22.5 -73t5.5 -78
v-179q0 -137 80 -137q65 0 65 73q0 22 -7 45q-6 26 -6 41q0 40 27 63.5t70 23.5q61 0 88 -58q26 -51 26 -122zM272 124q26 0 47.5 18t25.5 45q-27 17 -61 17q-26 0 -42.5 -11.5t-16.5 -30.5q0 -38 47 -38z" />
    <glyph glyph-name="agrave.fina" horiz-adv-x="887" 
d="M289 793l64 -81q23 -26 23 -62q0 -33 -22.5 -55.5t-56.5 -22.5q-25 0 -57 24l-83 70q-39 31 -39 78q0 39 25 66t65 27q47 0 81 -44zM888 2q0 -113 -67 -180.5t-191 -67.5q-136 0 -200.5 83.5t-65.5 213.5v13h-2q-61 -80 -167 -80q-83 0 -128 40t-45 115q0 82 57 123
t144 41q71 0 122 -26q0 45 -25.5 60t-74.5 15q-25 0 -69 -8q-25 -5 -42 -5q-32 0 -50 20t-18 54q0 61 71 90q59 23 147 23q65 0 113 -17t75.5 -42.5t44.5 -63.5t22.5 -73t5.5 -78v-179q0 -137 80 -137q65 0 65 73q0 22 -7 45q-6 26 -6 41q0 40 27 63.5t70 23.5q61 0 88 -58
q26 -51 26 -122zM272 124q26 0 47.5 18t25.5 45q-27 17 -61 17q-26 0 -42.5 -11.5t-16.5 -30.5q0 -38 47 -38z" />
    <glyph glyph-name="amacron.fina" horiz-adv-x="887" 
d="M436 615h-250q-31 0 -53.5 23t-22.5 55q0 31 22.5 53.5t53.5 22.5h250q31 0 53.5 -23t22.5 -55q0 -31 -22.5 -53.5t-53.5 -22.5zM888 2q0 -113 -67 -180.5t-191 -67.5q-136 0 -200.5 83.5t-65.5 213.5v13h-2q-61 -80 -167 -80q-83 0 -128 40t-45 115q0 82 57 123t144 41
q71 0 122 -26q0 45 -25.5 60t-74.5 15q-25 0 -69 -8q-25 -5 -42 -5q-32 0 -50 20t-18 54q0 61 71 90q59 23 147 23q65 0 113 -17t75.5 -42.5t44.5 -63.5t22.5 -73t5.5 -78v-179q0 -137 80 -137q65 0 65 73q0 22 -7 45q-6 26 -6 41q0 40 27 63.5t70 23.5q61 0 88 -58
q26 -51 26 -122zM272 124q26 0 47.5 18t25.5 45q-27 17 -61 17q-26 0 -42.5 -11.5t-16.5 -30.5q0 -38 47 -38z" />
    <glyph glyph-name="aogonek.fina" horiz-adv-x="887" 
d="M742 -228q-54 -41 -54 -96q0 -41 35 -41q4 0 11 1t11 1q23 0 38.5 -17.5t15.5 -46.5q0 -32 -25 -51q-31 -23 -84 -23q-72 0 -116 42.5t-44 114.5q0 59 28 105q-99 22 -146 100.5t-48 189.5v13h-2q-61 -80 -167 -80q-83 0 -128 40t-45 115q0 82 57 123t144 41
q71 0 122 -26q0 45 -25.5 60t-74.5 15q-25 0 -69 -8q-25 -5 -42 -5q-32 0 -50 20t-18 54q0 61 71 90q59 23 147 23q65 0 113 -17t75.5 -42.5t44.5 -63.5t22.5 -73t5.5 -78v-179q0 -137 80 -137q65 0 65 73q0 22 -7 45q-6 26 -6 41q0 40 27 63.5t70 23.5q61 0 88 -58
q26 -51 26 -122q0 -83 -37.5 -143t-108.5 -87zM272 124q26 0 47.5 18t25.5 45q-27 17 -61 17q-26 0 -42.5 -11.5t-16.5 -30.5q0 -38 47 -38z" />
    <glyph glyph-name="aring.fina" horiz-adv-x="887" 
d="M304 554q-61 0 -100 34t-39 94t39 94t100 34t100 -34t39 -94t-39 -94t-100 -34zM304 648q28 0 28 34q0 33 -28 33q-27 0 -27 -33q0 -34 27 -34zM888 2q0 -113 -67 -180.5t-191 -67.5q-136 0 -200.5 83.5t-65.5 213.5v13h-2q-61 -80 -167 -80q-83 0 -128 40t-45 115
q0 82 57 123t144 41q71 0 122 -26q0 45 -25.5 60t-74.5 15q-25 0 -69 -8q-25 -5 -42 -5q-32 0 -50 20t-18 54q0 61 71 90q59 23 147 23q65 0 113 -17t75.5 -42.5t44.5 -63.5t22.5 -73t5.5 -78v-179q0 -137 80 -137q65 0 65 73q0 22 -7 45q-6 26 -6 41q0 40 27 63.5t70 23.5
q61 0 88 -58q26 -51 26 -122zM272 124q26 0 47.5 18t25.5 45q-27 17 -61 17q-26 0 -42.5 -11.5t-16.5 -30.5q0 -38 47 -38z" />
    <glyph glyph-name="atilde.fina" horiz-adv-x="887" 
d="M212 775q53 0 99 -22t60 -22q7 0 12.5 1.5t10 5t7.5 6.5t7.5 8.5t7.5 8.5q21 19 50 19q33 0 50.5 -24t17.5 -60q0 -47 -35 -85t-96 -38q-50 0 -100.5 23.5t-71.5 23.5q-6 0 -11.5 -1.5t-8.5 -2.5t-7 -4.5t-5.5 -5t-5.5 -7t-5 -6.5q-16 -24 -52 -24q-32 0 -49.5 22
t-17.5 54q0 55 40.5 92.5t102.5 37.5zM888 2q0 -113 -67 -180.5t-191 -67.5q-136 0 -200.5 83.5t-65.5 213.5v13h-2q-61 -80 -167 -80q-83 0 -128 40t-45 115q0 82 57 123t144 41q71 0 122 -26q0 45 -25.5 60t-74.5 15q-25 0 -69 -8q-25 -5 -42 -5q-32 0 -50 20t-18 54
q0 61 71 90q59 23 147 23q65 0 113 -17t75.5 -42.5t44.5 -63.5t22.5 -73t5.5 -78v-179q0 -137 80 -137q65 0 65 73q0 22 -7 45q-6 26 -6 41q0 40 27 63.5t70 23.5q61 0 88 -58q26 -51 26 -122zM272 124q26 0 47.5 18t25.5 45q-27 17 -61 17q-26 0 -42.5 -11.5t-16.5 -30.5
q0 -38 47 -38z" />
    <glyph glyph-name="d.fina" horiz-adv-x="934" 
d="M933 2q0 -113 -67 -180.5t-191 -67.5q-70 0 -122.5 24t-82.5 66t-45 93.5t-15 113.5v13h-2q-47 -80 -149 -80q-108 0 -168 75t-60 198q0 121 59.5 195t164.5 74q37 0 68.5 -12.5t45.5 -30.5h2l1 163q0 51 28.5 80.5t81.5 29.5q52 0 80.5 -29.5t28.5 -80.5v-573
q0 -137 79 -137q65 0 65 73q0 14 -5 44q-8 26 -8 42q0 40 27.5 63.5t69.5 23.5q61 0 88 -58q26 -48 26 -122zM319 166q64 0 63 89q0 88 -63 88q-30 0 -47 -23.5t-17 -64.5t17 -65t47 -24z" />
    <glyph glyph-name="dcaron.fina" horiz-adv-x="936" 
d="M933 2q0 -113 -67 -180.5t-191 -67.5q-70 0 -122.5 24t-82.5 66t-45 93.5t-15 113.5v13h-2q-47 -80 -149 -80q-108 0 -168 75t-60 198q0 121 59.5 195t164.5 74q37 0 68.5 -12.5t45.5 -30.5h2l1 163q0 51 28.5 80.5t81.5 29.5q52 0 80.5 -29.5t28.5 -80.5v-573
q0 -137 79 -137q65 0 65 73q0 14 -5 44q-8 26 -8 42q0 40 27.5 63.5t69.5 23.5q61 0 88 -58q26 -48 26 -122zM718 469q-41 0 -59.5 23.5t-14.5 60.5q7 60 10 121q1 36 23.5 59t60.5 23q43 0 66.5 -27t19.5 -66q-9 -71 -35 -144q-18 -50 -71 -50zM319 166q64 0 63 89
q0 88 -63 88q-30 0 -47 -23.5t-17 -64.5t17 -65t47 -24z" />
    <glyph glyph-name="dcroat.fina" horiz-adv-x="934" 
d="M907 124q26 -48 26 -122q0 -113 -67 -180.5t-191 -67.5q-70 0 -122.5 24t-82.5 66t-45 93.5t-15 113.5v13h-2q-47 -80 -149 -80q-108 0 -168 75t-60 198q0 121 59.5 195t164.5 74q37 0 68.5 -12.5t45.5 -30.5h2l1 87h-65q-28 0 -48.5 20.5t-20.5 48.5q0 29 20.5 49
t48.5 20h80q27 48 95 48q67 0 94 -48h4q29 0 49 -20t20 -49q0 -25 -16.5 -44.5t-41.5 -23.5v-498q0 -137 79 -137q65 0 65 73q0 14 -5 44q-8 26 -8 42q0 40 27.5 63.5t69.5 23.5q61 0 88 -58zM319 166q64 0 63 89q0 88 -63 88q-30 0 -47 -23.5t-17 -64.5t17 -65t47 -24z" />
    <glyph glyph-name="h.fina" horiz-adv-x="933" 
d="M934 1q0 -113 -66.5 -180t-188.5 -67q-158 0 -229 98t-71 303v109q0 77 -51 77q-29 0 -44 -21.5t-14 -54.5l-1 -162q0 -51 -28.5 -80.5t-80.5 -29.5q-53 0 -81.5 29.5t-28.5 80.5v543q0 51 28.5 80.5t81.5 29.5q52 0 80.5 -29.5t28.5 -80.5l1 -165h2q14 19 51 32t73 13
q101 0 151.5 -64t50.5 -204v-172q0 -73 17 -111.5t59 -38.5q29 0 45.5 19t16.5 53q0 24 -6 42q-7 33 -7 44q0 40 27 63.5t70 23.5q29 0 52.5 -16t35.5 -42q26 -51 26 -122z" />
    <glyph glyph-name="hbar.fina" horiz-adv-x="933" 
d="M908 123q26 -51 26 -122q0 -113 -66.5 -180t-188.5 -67q-158 0 -229 98t-71 303v109q0 77 -51 77q-29 0 -44 -21.5t-14 -54.5l-1 -162q0 -51 -28.5 -80.5t-80.5 -29.5q-53 0 -81.5 29.5t-28.5 80.5v469q-23 5 -38 24t-15 43q0 29 19.5 48.5t48.5 20.5q27 48 95 48
q67 0 94 -48h85q28 0 48.5 -20t20.5 -49q0 -28 -20.5 -48.5t-48.5 -20.5h-70l1 -89h2q14 19 51 32t73 13q101 0 151.5 -64t50.5 -204v-172q0 -73 17 -111.5t59 -38.5q29 0 45.5 19t16.5 53q0 24 -6 42q-7 33 -7 44q0 40 27 63.5t70 23.5q29 0 52.5 -16t35.5 -42z" />
    <glyph glyph-name="k.fina" horiz-adv-x="956" 
d="M937 145q0 -114 -68.5 -190.5t-200.5 -76.5q-139 0 -223 73t-143 221h-32v-67q0 -52 -28.5 -82t-81.5 -30t-82 30t-29 82l1 541q0 51 29 80.5t82 29.5q52 0 80.5 -29.5t28.5 -80.5v-306h36l64 113q16 33 36 49t59 16q44 0 73 -29.5t29 -69.5q0 -23 -11 -43l-73 -123
q36 -92 75.5 -139.5t95.5 -47.5q38 0 58.5 21.5t20.5 61.5q0 11 -9 51q-5 17 -5 38q0 41 28 65.5t71 24.5q64 0 93 -65q26 -45 26 -118z" />
    <glyph glyph-name="uni0137.fina" horiz-adv-x="956" 
d="M937 145q0 -114 -68.5 -190.5t-200.5 -76.5q-139 0 -223 73t-143 221h-32v-67q0 -52 -28.5 -82t-81.5 -30t-82 30t-29 82l1 541q0 51 29 80.5t82 29.5q52 0 80.5 -29.5t28.5 -80.5v-306h36l64 113q16 33 36 49t59 16q44 0 73 -29.5t29 -69.5q0 -23 -11 -43l-73 -123
q36 -92 75.5 -139.5t95.5 -47.5q38 0 58.5 21.5t20.5 61.5q0 11 -9 51q-5 17 -5 38q0 41 28 65.5t71 24.5q64 0 93 -65q26 -45 26 -118zM277 -329q-40 0 -59 24t-14 60q7 68 9 121q1 36 23.5 59t60.5 23q43 0 66.5 -27t19.5 -66q-8 -73 -35 -145q-18 -49 -71 -49z" />
    <glyph glyph-name="m.fina" horiz-adv-x="1246" 
d="M1247 1q0 -112 -66.5 -179.5t-183.5 -67.5q-162 0 -233 97.5t-71 303.5v101q0 76 -49 76q-54 0 -54 -75v-154q0 -51 -28 -80.5t-80 -29.5q-53 0 -82 29.5t-29 80.5v153q0 76 -47 76q-29 0 -42.5 -20.5t-12.5 -54.5l-1 -154q0 -51 -28.5 -80.5t-80.5 -29.5q-53 0 -82 29.5
t-29 80.5v327q0 40 23.5 64t65.5 24q40 0 63.5 -22t25.5 -59v-7h2q18 45 63.5 70.5t99.5 25.5t98 -25t62 -71h2q21 47 67 71.5t99 24.5q193 0 193 -268v-172q0 -74 16.5 -112t58.5 -38q29 0 45.5 19t16.5 53q0 22 -5 42q-8 28 -8 44q0 40 27.5 63.5t69.5 23.5q61 0 88 -58
q26 -48 26 -122z" />
    <glyph glyph-name="n.fina" horiz-adv-x="932" 
d="M932 1q0 -112 -66.5 -179.5t-183.5 -67.5q-162 0 -233 97.5t-71 303.5v101q0 77 -51 77q-29 0 -44 -21.5t-14 -54.5l-1 -154q0 -51 -28.5 -80.5t-80.5 -29.5q-53 0 -82 29.5t-29 80.5v327q0 40 23.5 64t65.5 24q41 0 64.5 -21.5t24.5 -59.5v-7h2q18 46 66 71t101 25
q101 0 151.5 -64t50.5 -204v-172q0 -74 16 -112t58 -38q29 0 46 19t17 53q0 26 -6 42q-7 33 -7 44q0 40 27 63.5t70 23.5q29 0 52.5 -16t35.5 -42q26 -51 26 -122z" />
    <glyph glyph-name="nacute.fina" horiz-adv-x="932" 
d="M270 711l65 81q34 44 80 44q40 0 65 -27t25 -66q0 -48 -39 -79l-83 -70q-31 -24 -57 -24q-34 0 -56.5 22.5t-22.5 56.5q0 36 23 62zM932 1q0 -112 -66.5 -179.5t-183.5 -67.5q-162 0 -233 97.5t-71 303.5v101q0 77 -51 77q-29 0 -44 -21.5t-14 -54.5l-1 -154
q0 -51 -28.5 -80.5t-80.5 -29.5q-53 0 -82 29.5t-29 80.5v327q0 40 23.5 64t65.5 24q41 0 64.5 -21.5t24.5 -59.5v-7h2q18 46 66 71t101 25q101 0 151.5 -64t50.5 -204v-172q0 -74 16 -112t58 -38q29 0 46 19t17 53q0 26 -6 42q-7 33 -7 44q0 40 27 63.5t70 23.5
q29 0 52.5 -16t35.5 -42q26 -51 26 -122z" />
    <glyph glyph-name="ncaron.fina" horiz-adv-x="932" 
d="M327 565q-52 0 -130 68l-44 39q-33 28 -33 67q0 32 21 53t52 21q26 0 48 -19l85 -73h2l85 73q22 19 48 19q31 0 52 -21t21 -53q0 -36 -34 -67l-43 -39q-78 -68 -130 -68zM932 1q0 -112 -66.5 -179.5t-183.5 -67.5q-162 0 -233 97.5t-71 303.5v101q0 77 -51 77
q-29 0 -44 -21.5t-14 -54.5l-1 -154q0 -51 -28.5 -80.5t-80.5 -29.5q-53 0 -82 29.5t-29 80.5v327q0 40 23.5 64t65.5 24q41 0 64.5 -21.5t24.5 -59.5v-7h2q18 46 66 71t101 25q101 0 151.5 -64t50.5 -204v-172q0 -74 16 -112t58 -38q29 0 46 19t17 53q0 26 -6 42
q-7 33 -7 44q0 40 27 63.5t70 23.5q29 0 52.5 -16t35.5 -42q26 -51 26 -122z" />
    <glyph glyph-name="uni0146.fina" horiz-adv-x="932" 
d="M932 1q0 -112 -66.5 -179.5t-183.5 -67.5q-162 0 -233 97.5t-71 303.5v101q0 77 -51 77q-29 0 -44 -21.5t-14 -54.5l-1 -154q0 -51 -28.5 -80.5t-80.5 -29.5q-53 0 -82 29.5t-29 80.5v327q0 40 23.5 64t65.5 24q41 0 64.5 -21.5t24.5 -59.5v-7h2q18 46 66 71t101 25
q101 0 151.5 -64t50.5 -204v-172q0 -74 16 -112t58 -38q29 0 46 19t17 53q0 26 -6 42q-7 33 -7 44q0 40 27 63.5t70 23.5q29 0 52.5 -16t35.5 -42q26 -51 26 -122zM236 -329q-40 0 -59 24t-14 60q7 68 9 121q2 36 24.5 59t60.5 23q42 0 65.5 -27t19.5 -66q-8 -71 -34 -145
q-20 -49 -72 -49z" />
    <glyph glyph-name="ntilde.fina" horiz-adv-x="932" 
d="M236 774q53 0 99 -22t60 -22q7 0 12.5 1.5t10 4.5t7.5 6t7.5 8.5t7.5 8.5q20 20 50 20q33 0 50 -24.5t17 -59.5q0 -47 -34.5 -85t-95.5 -38q-51 0 -101 23.5t-71 23.5q-5 0 -9.5 -0.5t-8.5 -2.5t-6.5 -3t-5.5 -4.5t-4 -5t-4.5 -6.5t-4.5 -6q-15 -23 -52 -23q-32 0 -50 22
t-18 54q0 55 41 92.5t103 37.5zM932 1q0 -112 -66.5 -179.5t-183.5 -67.5q-162 0 -233 97.5t-71 303.5v101q0 77 -51 77q-29 0 -44 -21.5t-14 -54.5l-1 -154q0 -51 -28.5 -80.5t-80.5 -29.5q-53 0 -82 29.5t-29 80.5v327q0 40 23.5 64t65.5 24q41 0 64.5 -21.5t24.5 -59.5
v-7h2q18 46 66 71t101 25q101 0 151.5 -64t50.5 -204v-172q0 -74 16 -112t58 -38q29 0 46 19t17 53q0 26 -6 42q-7 33 -7 44q0 40 27 63.5t70 23.5q29 0 52.5 -16t35.5 -42q26 -51 26 -122z" />
    <glyph glyph-name="t.fina" horiz-adv-x="658" 
d="M628 132q27 -49 27 -125q0 -112 -67.5 -180t-189.5 -68q-297 0 -297 371v208q-38 1 -61 24.5t-23 62.5q0 40 23.5 63t62.5 23h9q1 1 1 2q11 52 41 84t74 32q92 0 92 -101v-17h64q40 0 63 -23t23 -63t-23 -63.5t-63 -23.5h-64v-253q0 -73 15.5 -108.5t56.5 -35.5
q59 0 59 73q0 17 -7 47t-7 42q0 41 28 65t72 24q64 0 91 -60z" />
    <glyph glyph-name="tbar.fina" horiz-adv-x="662" 
d="M632 132q27 -51 27 -125q0 -112 -68 -180t-189 -68q-298 0 -298 371v113h-32q-22 0 -37 14t-15 38q0 25 15 38t37 13h32v38h-19q-29 0 -46 17t-17 47t17 46.5t46 16.5h31q1 1 1 2q11 52 40.5 84t73.5 32q93 0 93 -101v-17h60q29 0 46.5 -16t17.5 -47q0 -30 -17.5 -47
t-46.5 -17h-60v-38h72q22 0 37 -14t15 -37q0 -25 -15 -38.5t-37 -13.5h-72v-158q0 -73 15.5 -108.5t56.5 -35.5q58 0 58 73q0 21 -6 47q-7 23 -7 42q0 41 28 65t72 24q64 0 91 -60z" />
    <glyph glyph-name="tcaron.fina" horiz-adv-x="658" 
d="M432 552q-40 0 -59 24t-14 60q8 84 9 121q2 36 24.5 59t60.5 23q43 0 66 -27t19 -66q-8 -71 -34 -145q-20 -49 -72 -49zM628 132q27 -49 27 -125q0 -112 -67.5 -180t-189.5 -68q-297 0 -297 371v208q-38 1 -61 24.5t-23 62.5q0 40 23.5 63t62.5 23h9q1 1 1 2q11 52 41 84
t74 32q92 0 92 -101v-17h64q40 0 63 -23t23 -63t-23 -63.5t-63 -23.5h-64v-253q0 -73 15.5 -108.5t56.5 -35.5q59 0 59 73q0 17 -7 47t-7 42q0 41 28 65t72 24q64 0 91 -60z" />
    <glyph glyph-name="uni0163.fina" horiz-adv-x="658" 
d="M655 7q0 -95 -49.5 -159.5t-140.5 -82.5l-10 -27q4 -1 10.5 -2.5t23 -9t29 -18.5t23 -32.5t10.5 -48.5q0 -52 -41.5 -87.5t-118.5 -35.5q-53 0 -87 22q-31 20 -31 52q0 25 14 40t35 15q10 0 23 -4.5t19 -4.5q27 0 27 26t-34 26q-22 0 -31 10.5t-2 38.5l11 39
q-234 35 -234 366v208q-38 1 -61 24.5t-23 62.5q0 40 23.5 63t62.5 23h9q1 1 1 2q11 52 41 84t74 32q92 0 92 -101v-17h64q40 0 63 -23t23 -63t-23 -63.5t-63 -23.5h-64v-253q0 -73 15.5 -108.5t56.5 -35.5q59 0 59 73q0 17 -7 47t-7 42q0 41 28 65t72 24q64 0 91 -60
q27 -49 27 -125z" />
    <glyph glyph-name="uni021B.fina" horiz-adv-x="658" 
d="M628 132q27 -49 27 -125q0 -112 -67.5 -180t-189.5 -68q-297 0 -297 371v208q-38 1 -61 24.5t-23 62.5q0 40 23.5 63t62.5 23h9q1 1 1 2q11 52 41 84t74 32q92 0 92 -101v-17h64q40 0 63 -23t23 -63t-23 -63.5t-63 -23.5h-64v-253q0 -73 15.5 -108.5t56.5 -35.5
q59 0 59 73q0 17 -7 47t-7 42q0 41 28 65t72 24q64 0 91 -60zM386 -276q43 0 66 -27.5t19 -66.5q-8 -70 -34 -144q-18 -50 -72 -50q-40 0 -58.5 24t-14.5 60q7 62 10 122q1 35 23.5 58.5t60.5 23.5z" />
    <glyph glyph-name="u.fina" horiz-adv-x="931" 
d="M931 2q0 -112 -66.5 -180t-185.5 -68q-70 0 -122.5 23.5t-83 65t-45.5 93t-15 113.5v31h-2q-18 -46 -65.5 -71t-100.5 -25q-101 0 -151.5 64t-50.5 204v155q0 51 29 81t81 30t80.5 -30t28.5 -81v-153q0 -77 51 -77q29 0 44 21t15 55l1 154q0 51 29 81t81 30t80.5 -30
t28.5 -81v-341q0 -130 77 -130q31 0 47.5 19.5t16.5 53.5q0 7 -6 43q-7 25 -7 43q0 40 27 63.5t69 23.5q63 0 88 -58q27 -50 27 -122z" />
    <glyph glyph-name="uacute.fina" horiz-adv-x="931" 
d="M263 710l64 82q34 44 80 44q40 0 65.5 -27.5t25.5 -65.5q0 -47 -39 -79l-83 -70q-33 -24 -58 -24q-33 0 -56 22.5t-23 56.5q0 35 24 61zM931 2q0 -112 -66.5 -180t-185.5 -68q-70 0 -122.5 23.5t-83 65t-45.5 93t-15 113.5v31h-2q-18 -46 -65.5 -71t-100.5 -25
q-101 0 -151.5 64t-50.5 204v155q0 51 29 81t81 30t80.5 -30t28.5 -81v-153q0 -77 51 -77q29 0 44 21t15 55l1 154q0 51 29 81t81 30t80.5 -30t28.5 -81v-341q0 -130 77 -130q31 0 47.5 19.5t16.5 53.5q0 7 -6 43q-7 25 -7 43q0 40 27 63.5t69 23.5q63 0 88 -58
q27 -50 27 -122z" />
    <glyph glyph-name="ucircumflex.fina" horiz-adv-x="931" 
d="M186 562q-31 0 -52 21t-21 54q0 35 34 67l43 38q27 22 43 34t40.5 23t46.5 11q52 0 130 -68l44 -38q33 -30 33 -67q0 -33 -21 -54t-52 -21q-25 0 -48 19l-85 71h-2l-85 -71q-23 -19 -48 -19zM931 2q0 -112 -66.5 -180t-185.5 -68q-70 0 -122.5 23.5t-83 65t-45.5 93
t-15 113.5v31h-2q-18 -46 -65.5 -71t-100.5 -25q-101 0 -151.5 64t-50.5 204v155q0 51 29 81t81 30t80.5 -30t28.5 -81v-153q0 -77 51 -77q29 0 44 21t15 55l1 154q0 51 29 81t81 30t80.5 -30t28.5 -81v-341q0 -130 77 -130q31 0 47.5 19.5t16.5 53.5q0 7 -6 43q-7 25 -7 43
q0 40 27 63.5t69 23.5q63 0 88 -58q27 -50 27 -122z" />
    </font>
</defs>
</svg>
