<?xml version="1.0" standalone="no"?>
<!DOCTYPE svg PUBLIC "-//W3C//DTD SVG 1.1//EN" "http://www.w3.org/Graphics/SVG/1.1/DTD/svg11.dtd" >
<svg xmlns="http://www.w3.org/2000/svg" xmlns:xlink="http://www.w3.org/1999/xlink" version="1.1">
<metadata>
Created by FontForge 20170731 at Wed Nov  7 09:37:36 2018
 By Aleksey,,,
Copyright (c) 2018 by Sofia Mohr. All rights reserved.
</metadata>
<defs>
<font id="MohrRounded-Bold" horiz-adv-x="637" >
  <font-face 
    font-family="MohrRounded-Bold"
    font-weight="400"
    font-stretch="normal"
    units-per-em="1000"
    panose-1="0 0 8 0 0 0 0 0 0 0"
    ascent="772"
    descent="-228"
    x-height="514"
    cap-height="728"
    bbox="-524 -547 1409.03 1065"
    underline-thickness="50"
    underline-position="-200"
    unicode-range="U+0020-FB02"
  />
<missing-glyph horiz-adv-x="530" 
d="M50 730h430v-730h-430v730zM115 695l150 -287l150 287h-300zM243 365l-153 292v-584zM288 365l152 -292v584zM265 322l-150 -287h300z" />
    <glyph glyph-name="fi" unicode="fi" horiz-adv-x="650" 
d="M517 507q36 0 55 -20.5t19 -54.5v-346q0 -42 -23 -68t-66 -26t-67 26.5t-24 67.5v272h-124v-272q0 -41 -23 -67.5t-66 -26.5q-44 0 -67.5 26t-23.5 68l-2 272h-3q-32 0 -53 21t-21 54q0 32 21 53t53 21h3q9 145 82.5 204t194.5 59q116 0 173 -51q29 -24 29 -57t-18.5 -50
t-45.5 -17q-24 0 -64 14.5t-78 14.5q-82 0 -90 -117h229z" />
    <glyph glyph-name="fl" unicode="fl" horiz-adv-x="654" 
d="M504 759q43 0 66 -26t23 -68v-579q0 -42 -23 -68t-66 -26t-67 26.5t-24 67.5v536q-26 11 -46 11q-80 0 -80 -107v-19h18q33 0 53 -21t20 -54t-20 -53.5t-53 -20.5h-18v-272q0 -41 -23 -67.5t-66 -26.5q-44 0 -67.5 26t-23.5 68l-2 272h-2q-33 0 -53.5 21t-20.5 53
q0 33 20.5 54t53.5 21h1v27q0 65 19 113t52 73.5t71 37.5t82 12q75 0 118 -29q25 18 58 18z" />
    <glyph glyph-name="f_f" unicode="ff" horiz-adv-x="735" 
d="M640 619q-23 0 -36 -16t-12 -45l3 -51h50q35 0 56.5 -19t21.5 -55t-21.5 -55.5t-56.5 -19.5h-47v-272q0 -42 -23.5 -68t-66.5 -26t-66.5 26t-23.5 68l-1 272h-130v-275q0 -39 -25 -64.5t-65 -25.5t-65 25t-25 64l-2 276q-34 0 -55.5 19.5t-21.5 55.5t21 55t55 19v27
q0 65 19 113t52 73.5t71 37.5t82 12q40 0 85.5 -11.5t70.5 -30.5q51 42 137 42q88 0 125 -39q23 -22 23 -59q0 -30 -18 -48.5t-43 -18.5q-17 0 -35.5 7t-32.5 7zM417 507v66q0 23 5 50q-34 10 -55 10q-80 0 -80 -107v-19h130z" />
    <glyph glyph-name="f_f_i" unicode="ffi" horiz-adv-x="956" 
d="M823 507q36 0 54.5 -20.5t18.5 -54.5v-346q0 -42 -23 -68t-66 -26t-67 26.5t-24 67.5v272h-124v-272q0 -42 -23 -68t-66 -26t-67 26.5t-24 67.5l-2 272h-123l-1 -272q0 -42 -23 -68t-66 -26t-67 26.5t-24 67.5v272h-4q-32 0 -53 21t-21 54q0 32 21 53t53 21h4v10
q0 71 19.5 122.5t54.5 79t75 39.5t89 12q113 0 166 -45q65 45 177 45q117 0 174 -51q29 -26 29 -57q0 -33 -18.5 -50t-46.5 -17q-24 0 -64 14.5t-77 14.5q-83 0 -91 -117h230zM287 507h123q4 65 23 115q-40 11 -62 11q-84 0 -84 -107v-19z" />
    <glyph glyph-name="f_f_l" unicode="ffl" horiz-adv-x="956" 
d="M805 759q43 0 66 -26t23 -68v-579q0 -42 -23 -68t-66 -26t-67 26.5t-24 67.5v537q-30 10 -46 10q-79 0 -79 -107v-19h18q32 0 52 -21t20 -54q0 -32 -20 -53t-52 -21h-18l-1 -272q0 -42 -23 -68t-66 -26t-67 26.5t-24 67.5l-2 272h-119l-1 -272q0 -42 -23 -68t-66 -26
t-67 26.5t-24 67.5v272h-4q-32 0 -53 21t-21 54q0 32 21 53t53 21h4v27q0 65 19 112.5t51.5 73.5t70 38t80.5 12q105 0 157 -44q58 44 145 44q75 0 118 -29q25 18 58 18zM405 507v27q0 49 11 90q-29 9 -50 9q-79 0 -79 -107v-19h118z" />
    <glyph glyph-name="f_t" unicode="ft" horiz-adv-x="757" 
d="M681 154q24 0 40 -18t16 -49q0 -36 -21 -60q-35 -43 -118 -43q-91 0 -136 56t-45 145v173h-125v-272q0 -42 -23.5 -68t-66.5 -26t-66.5 26t-23.5 68l-1 272h-13q-34 0 -55.5 19.5t-21.5 55.5t21 55t56 19h13v63q0 88 51.5 144t149.5 56q72 0 109 -34q29 -24 29 -64
q0 -28 -16.5 -47.5t-41.5 -19.5q-16 0 -34 7t-32 7q-21 0 -33 -15t-11 -42l5 -55h139q3 17 9 34q25 86 89 86q73 0 73 -81v-39h54q32 0 52.5 -21t20.5 -53q0 -33 -20.5 -54t-52.5 -21h-54v-153q0 -30 6.5 -46t27.5 -16q10 0 24.5 5.5t25.5 5.5z" />
    <glyph glyph-name="t_t" unicode="tt" horiz-adv-x="762" 
d="M686 154q24 0 40 -18t16 -49q0 -37 -20 -60q-35 -43 -120 -43q-93 0 -138.5 56t-45.5 145v173h-136v-171q0 -28 5 -39.5t22 -11.5q7 0 19 3t21 3q21 0 34 -17.5t13 -42.5q0 -34 -22 -61q-33 -38 -98 -38q-90 0 -132.5 55t-42.5 151v169h-11q-32 0 -52.5 21t-20.5 54
q0 32 20.5 53t52.5 21h20q3 17 9 34q25 86 89 86q74 0 74 -81v-39h144q5 21 10 34q25 86 89 86q73 0 73 -81v-39h57q32 0 53 -21t21 -53q0 -33 -21 -54t-53 -21h-57v-153q0 -30 7 -46t30 -16q10 0 25 5.5t26 5.5z" />
    <glyph glyph-name=".notdef" horiz-adv-x="530" 
d="M50 730h430v-730h-430v730zM115 695l150 -287l150 287h-300zM243 365l-153 292v-584zM288 365l152 -292v584zM265 322l-150 -287h300z" />
    <glyph glyph-name=".null" horiz-adv-x="0" 
 />
    <glyph glyph-name="nonmarkingreturn" horiz-adv-x="333" 
 />
    <glyph glyph-name="space" unicode=" " horiz-adv-x="237" 
 />
    <glyph glyph-name="exclam" unicode="!" horiz-adv-x="329" 
d="M164 245q-41 0 -63 24t-24 69l-6 284q-1 48 24 77t70 29q44 0 69 -29.5t23 -76.5l-6 -284q-2 -45 -24 -69t-63 -24zM164 -16q-50 0 -80 28t-30 75q0 45 30.5 74t79.5 29q50 0 80.5 -28.5t30.5 -74.5q0 -47 -30 -75t-81 -28z" />
    <glyph glyph-name="quotedbl" unicode="&#x22;" horiz-adv-x="465" 
d="M124 427q-59 0 -65 61l-12 160q-2 35 17.5 58.5t58.5 23.5q42 0 61 -23t16 -59l-12 -161q-5 -60 -64 -60zM341 427q-59 0 -65 61l-12 160q-3 35 17 58.5t59 23.5q42 0 61 -23t16 -59l-12 -161q-5 -60 -64 -60z" />
    <glyph glyph-name="numbersign" unicode="#" horiz-adv-x="822" 
d="M716 420h-61l-29 -115h23q33 0 54 -19t21 -55q0 -35 -21 -55.5t-54 -20.5h-61l-27 -106q-16 -57 -74 -57q-43 0 -63.5 27t-9.5 68l17 68h-151l-27 -105q-14 -58 -74 -58q-43 0 -64 27.5t-10 68.5l17 67h-15q-32 0 -53.5 19.5t-21.5 55.5q0 33 21.5 54t53.5 21h54l30 115
h-17q-32 0 -53.5 20t-21.5 55q0 33 21.5 54t53.5 21h55l26 100q16 58 78 58q39 0 59.5 -28t10.5 -67l-16 -63h150l26 101q16 57 78 57q39 0 59 -27.5t10 -66.5l-16 -64h22q33 0 54 -19.5t21 -55.5q0 -34 -21.5 -54.5t-53.5 -20.5zM470 305l29 115h-151l-29 -115h151z" />
    <glyph glyph-name="dollar" unicode="$" horiz-adv-x="557" 
d="M518 254q0 -63 -41.5 -107.5t-127.5 -58.5v-47q0 -26 -19 -45t-46 -19q-28 0 -46.5 18.5t-18.5 45.5v45q-95 12 -139 43q-42 29 -42 72q0 28 17 45t46 16q21 0 73 -23.5t95 -23.5q66 0 66 33q0 19 -21 28.5t-70 20.5q-2 0 -3 0.5t-3 1t-3 0.5q-85 22 -133.5 60.5
t-48.5 110.5q0 61 43.5 102t122.5 54v51q0 27 18.5 45.5t46.5 18.5q27 0 46 -19t19 -45v-51q62 -10 104 -35q45 -27 45 -65q0 -35 -25 -51t-62 -9q-8 2 -52 17t-71 15q-28 0 -41.5 -6t-13.5 -24q0 -10 4.5 -16.5t18.5 -12t24 -8t36 -8.5q12 -3 18 -4q31 -7 50.5 -12.5
t47.5 -18.5t44.5 -29t29 -43.5t12.5 -61.5z" />
    <glyph glyph-name="percent" unicode="%" horiz-adv-x="938" 
d="M340 21q-19 -29 -52 -29q-24 0 -41.5 17.5t-17.5 42.5q0 17 9 31l377 616q17 29 52 29q25 0 42 -17.5t17 -42.5q0 -17 -8 -31zM210 366q-80 0 -130.5 50t-50.5 127q0 76 49.5 126.5t131.5 50.5q79 0 129.5 -50.5t50.5 -126.5t-50 -126.5t-130 -50.5zM210 479q50 0 50 64
q0 65 -50 65q-51 0 -51 -65q0 -64 51 -64zM730 -15q-80 0 -130.5 50.5t-50.5 126.5t50 126.5t131 50.5q80 0 130 -50.5t50 -126.5t-50 -126.5t-130 -50.5zM730 98q50 0 50 64q0 65 -50 65q-51 0 -51 -65q0 -64 51 -64z" />
    <glyph glyph-name="ampersand" unicode="&#x26;" horiz-adv-x="723" 
d="M661 108q23 -22 23 -51q0 -32 -21.5 -52t-55.5 -20q-28 0 -69 39l-14 14q-89 -53 -213 -53q-131 0 -202.5 56t-71.5 153q0 117 138 196q-51 72 -51 164q0 80 62 130.5t169 50.5q94 0 155 -49t61 -122q0 -72 -44.5 -118t-124.5 -87l108 -105q6 27 6 59q0 37 19 60t57 23
t57 -23t19 -60q0 -96 -42 -171zM354 607q-72 0 -72 -63q0 -38 34 -87q52 24 76.5 45t24.5 50q0 26 -18 40.5t-45 14.5zM332 116q48 0 90 21l-156 152q-54 -36 -54 -86q0 -87 120 -87z" />
    <glyph glyph-name="quotesingle" unicode="'" horiz-adv-x="248" 
d="M124 427q-59 0 -65 61l-12 160q-2 35 17.5 58.5t58.5 23.5q42 0 61 -23t16 -59l-12 -161q-5 -60 -64 -60z" />
    <glyph glyph-name="parenleft" unicode="(" horiz-adv-x="361" 
d="M42 295q0 257 131 436q23 33 64 33q34 0 58.5 -21t24.5 -54q0 -19 -10 -39q-95 -173 -95 -351q0 -182 101 -378q10 -20 10 -39q0 -32 -24.5 -54t-62.5 -22q-42 0 -66 37q-131 196 -131 452z" />
    <glyph glyph-name="parenright" unicode=")" horiz-adv-x="361" 
d="M121 -194q-38 0 -62 22t-24 54q0 19 10 39q101 196 101 378q0 178 -95 351q-10 17 -10 39q0 33 24.5 54t58.5 21q41 0 64 -33q131 -179 131 -436q0 -256 -131 -452q-24 -37 -67 -37z" />
    <glyph glyph-name="asterisk" unicode="*" horiz-adv-x="468" 
d="M107 326q-42 30 -5 85q24 34 38 52q-29 10 -58 23q-59 26 -43 73q16 45 78 30q22 -5 59 -17q0 23 2 63q5 65 56 65q49 0 54 -64q2 -42 2 -64q17 6 63 20q63 14 78 -32q14 -46 -42 -72q-27 -13 -62 -25q30 -40 34 -46q39 -59 -2 -89q-44 -33 -89 24l-37 48
q-7 -10 -21 -27.5t-19 -23.5q-44 -53 -86 -23z" />
    <glyph glyph-name="plus" unicode="+" horiz-adv-x="515" 
d="M329 509v-77h79q31 0 51 -20t20 -51q0 -32 -20 -52t-51 -20h-79v-77q0 -31 -20 -51.5t-51 -20.5q-32 0 -52 20t-20 52v77h-79q-31 0 -51.5 20t-20.5 52q0 31 20.5 51t51.5 20h79v77q0 31 20.5 51t51.5 20t51 -20t20 -51z" />
    <glyph glyph-name="comma" unicode="," horiz-adv-x="244" 
d="M99 -206q-34 0 -53 23t-14 56q9 81 10 153q2 34 23 56t57 22q39 0 61 -25.5t19 -61.5q-10 -102 -38 -176q-17 -47 -65 -47z" />
    <glyph glyph-name="hyphen" unicode="-" horiz-adv-x="487" 
d="M360 189h-234q-32 0 -53 19t-21 56q0 36 21 54.5t53 18.5h234q33 0 54 -18.5t21 -54.5q0 -37 -21 -56t-54 -19z" />
    <glyph glyph-name="period" unicode="." horiz-adv-x="304" 
d="M152 -17q-50 0 -80 28.5t-30 75.5q0 45 30.5 73.5t79.5 28.5q50 0 80.5 -28.5t30.5 -73.5q0 -48 -30 -76t-81 -28z" />
    <glyph glyph-name="slash" unicode="/" horiz-adv-x="471" 
d="M92 -215q-37 0 -56.5 25.5t-8.5 59.5l296 848q15 41 56 41q38 0 56.5 -27t7.5 -61l-295 -844q-16 -42 -56 -42z" />
    <glyph glyph-name="zero" unicode="0" horiz-adv-x="778" 
d="M390 -15q-70 0 -132 24t-109.5 69.5t-75 117.5t-27.5 163q0 88 28 160t75.5 118.5t109.5 72t130 25.5q142 0 242 -101.5t100 -274.5q0 -179 -97.5 -276.5t-243.5 -97.5zM389 150q66 0 109 51.5t43 157.5q0 108 -44 159.5t-108 51.5t-108 -51.5t-44 -159.5
q0 -106 43 -157.5t109 -51.5z" />
    <glyph glyph-name="one" unicode="1" horiz-adv-x="434" 
d="M171 506l-48 -17q-12 -5 -28 -5q-38 0 -60.5 24.5t-22.5 61.5q0 60 57 80l169 61q24 9 47 9q32 0 50.5 -18.5t18.5 -53.5v-560q0 -43 -23 -69.5t-67 -26.5q-45 0 -69 26.5t-24 69.5v418z" />
    <glyph glyph-name="two" unicode="2" horiz-adv-x="652" 
d="M577 497q0 -82 -61 -174.5t-157 -169.5v-2h176q37 0 60.5 -22.5t23.5 -58.5q0 -34 -23 -56t-59 -22h-411q-41 0 -61.5 21.5t-20.5 54.5q0 9 1 16.5t4.5 15t5.5 13t8.5 12.5t9 10.5t11.5 10.5t12 9.5t14 11t14 10.5q114 76 186 158.5t72 147.5q0 39 -20.5 62.5t-75.5 23.5
q-44 -1 -96.5 -28t-78.5 -27q-32 0 -51.5 23t-19.5 54q0 45 44 78q84 67 224 67q138 0 203.5 -64t65.5 -175z" />
    <glyph glyph-name="three" unicode="3" horiz-adv-x="620" 
d="M299 -15q-131 0 -206 51q-49 31 -49 80q0 31 20 54t52 23q25 0 69.5 -20.5t84.5 -21.5q102 0 102 74q0 41 -29 56.5t-84 15.5h-65q-29 0 -48.5 20t-19.5 49q0 31 20 51t50 20h64q95 0 95 71q0 35 -21 48.5t-64 13.5q-39 -1 -84.5 -21.5t-69.5 -20.5q-32 0 -51.5 23
t-19.5 54q0 49 48 79q73 52 209 52q113 0 182.5 -51.5t69.5 -146.5q0 -55 -32.5 -100t-82.5 -64v-2q59 -15 96.5 -63.5t37.5 -112.5q0 -101 -74.5 -156t-199.5 -55z" />
    <glyph glyph-name="four" unicode="4" horiz-adv-x="638" 
d="M550 283q33 0 54.5 -21.5t21.5 -54.5q0 -34 -21.5 -55.5t-54.5 -21.5h-1v-44q0 -41 -25.5 -67t-66.5 -26q-42 0 -68 26t-26 67v44h-258q-46 0 -69 24.5t-21.5 60t22.5 73.5l218 401q26 46 72 46q35 0 62 -24t27 -58q0 -23 -13 -46l-183 -324h146l3 36q6 40 31 68t63 28
q40 0 63 -27.5t23 -73.5v-31h1z" />
    <glyph glyph-name="five" unicode="5" horiz-adv-x="628" 
d="M262 321q-27 0 -70.5 -7t-63.5 -7q-67 0 -60 82l21 208q8 78 38.5 104.5t105.5 26.5h257q34 0 56 -22t22 -58t-21 -57.5t-56 -21.5h-240l-13 -114q37 6 86 6q113 0 186 -57t73 -169q0 -122 -80.5 -186t-211.5 -64q-137 0 -211 55q-43 31 -43 76q0 31 20 54t52 23
q25 0 72 -20.5t86 -21.5q121 0 121 93q0 77 -126 77z" />
    <glyph glyph-name="six" unicode="6" horiz-adv-x="655" 
d="M395 489q-51 0 -83 -14h-2l86 134q17 25 17 50q0 33 -24 54.5t-63 21.5q-34 0 -52 -13t-35 -39l-108 -167q-44 -67 -66.5 -128.5t-22.5 -135.5q0 -114 78.5 -190t214.5 -76t214 78t78 186q0 111 -66 175t-166 64zM334 363q51 0 82 -32.5t31 -80.5q0 -50 -29.5 -84
t-82.5 -34t-83 32.5t-30 85.5q0 56 32 84.5t80 28.5z" />
    <glyph glyph-name="seven" unicode="7" horiz-adv-x="563" 
d="M211 -13q-40 0 -64 23t-24 56q0 21 12 45l209 451l-251 -2q-36 0 -58.5 23t-22.5 61q0 40 22.5 62t59.5 22h357q43 0 67.5 -25.5t24.5 -70.5q0 -30 -13 -56l-236 -525q-14 -33 -32 -48.5t-51 -15.5z" />
    <glyph glyph-name="eight" unicode="8" horiz-adv-x="686" 
d="M344 -15q-139 0 -219.5 59t-80.5 161q0 70 39 116t101 67v2q-47 20 -78.5 61t-31.5 97q0 86 72.5 136.5t196.5 50.5t196.5 -49.5t72.5 -136.5q0 -56 -31 -97t-81 -62v-2q62 -19 101.5 -64t39.5 -119q0 -102 -80 -161t-217 -59zM343 454q45 0 66.5 24t21.5 57
q0 29 -21 51.5t-67 22.5q-43 0 -65 -21t-21 -54q2 -80 86 -80zM342 120q50 0 78.5 28t28.5 71q0 45 -29 72t-77 27q-47 0 -76.5 -25.5t-29.5 -74.5q0 -46 27.5 -72t77.5 -26z" />
    <glyph glyph-name="nine" unicode="9" horiz-adv-x="655" 
d="M260 232q51 0 83 14h2l-86 -134q-17 -26 -17 -50q0 -33 24.5 -54.5t62.5 -21.5q34 0 52 13t35 39l108 167q44 67 66.5 128.5t22.5 135.5q0 114 -78 190t-214 76t-214.5 -78t-78.5 -186q0 -111 66 -175t166 -64zM322 358q-51 0 -82.5 32.5t-31.5 80.5q0 50 29.5 84
t83.5 34q52 0 82 -32.5t30 -85.5q0 -56 -32 -84.5t-79 -28.5z" />
    <glyph glyph-name="colon" unicode=":" horiz-adv-x="330" 
d="M165 314q-51 0 -80.5 28t-29.5 75q0 45 30 73.5t80 28.5t80 -28.5t30 -73.5q0 -47 -29.5 -75t-80.5 -28zM165 -17q-51 0 -80.5 28.5t-29.5 75.5q0 45 30 73.5t80 28.5t80 -28.5t30 -73.5q0 -48 -29.5 -76t-80.5 -28z" />
    <glyph glyph-name="semicolon" unicode=";" horiz-adv-x="318" 
d="M160 314q-51 0 -80.5 28t-29.5 75q0 45 30 73.5t80 28.5t80 -28.5t30 -73.5q0 -47 -29.5 -75t-80.5 -28zM135 -204q-35 0 -53.5 22.5t-15.5 54.5q9 74 11 153q1 34 23 56t57 22q37 0 60 -26t19 -61q-8 -100 -37 -176q-17 -45 -64 -45z" />
    <glyph glyph-name="less" unicode="&#x3c;" horiz-adv-x="511" 
d="M379 130q-15 0 -28 5l-214 88q-91 38 -91 135q0 53 22.5 84t68.5 50l214 88q13 5 28 5q30 0 51.5 -20.5t21.5 -51.5q0 -50 -49 -68l-223 -86v-2l224 -87q48 -18 48 -67q0 -31 -21.5 -52t-51.5 -21z" />
    <glyph glyph-name="equal" unicode="=" horiz-adv-x="538" 
d="M407 404h-276q-29 0 -48.5 19t-19.5 48q0 30 19.5 49.5t48.5 19.5h276q29 0 48.5 -19.5t19.5 -48.5q0 -30 -19.5 -49t-48.5 -19zM407 180h-276q-29 0 -48.5 19t-19.5 49q0 29 19.5 48.5t48.5 19.5h276q29 0 48.5 -19.5t19.5 -48.5q0 -30 -19.5 -49t-48.5 -19z" />
    <glyph glyph-name="greater" unicode="&#x3e;" horiz-adv-x="511" 
d="M132 130q-30 0 -51.5 21t-21.5 52q0 49 48 67l224 87v2l-223 86q-49 18 -49 68q0 31 21.5 51.5t51.5 20.5q15 0 28 -5l214 -88q46 -19 68.5 -50t22.5 -84q0 -97 -91 -135l-214 -88q-13 -5 -28 -5z" />
    <glyph glyph-name="question" unicode="?" horiz-adv-x="544" 
d="M511 553q0 -78 -52 -125.5t-121 -66.5v-35q0 -39 -23.5 -63.5t-66.5 -24.5t-66.5 24t-23.5 60v45q0 65 77 92q31 12 46 19t29.5 22t14.5 35q0 24 -15.5 37.5t-58.5 13.5q-47 0 -88 -19t-64 -19q-32 0 -51.5 21.5t-19.5 51.5q0 47 59 79q66 35 164 35q260 0 260 -182z
M249 -17q-51 0 -81 28.5t-30 75.5q0 45 30.5 73.5t80.5 28.5t80 -28.5t30 -73.5q0 -48 -29.5 -76t-80.5 -28z" />
    <glyph glyph-name="at" unicode="@" horiz-adv-x="1045" 
d="M546 741q119 0 209.5 -36t143 -97.5t78.5 -137t26 -161.5q0 -141 -64.5 -211.5t-170.5 -70.5q-65 0 -101.5 24t-49.5 53h-2q-50 -71 -142 -71q-90 0 -139 61t-49 162q0 97 49 158.5t135 61.5q112 0 144 -79h2v3q0 38 15 56t48 18q30 0 46 -18t16 -47v-183q0 -35 11.5 -49
t33.5 -14q32 0 55 38.5t23 103.5q0 140 -74.5 222.5t-242.5 82.5q-171 0 -270.5 -95.5t-99.5 -260.5q0 -168 98.5 -257t267.5 -89q36 0 81 10t58 10q25 0 40.5 -15t15.5 -41q0 -45 -45 -68q-51 -27 -150 -27q-239 0 -372 129t-133 348q0 214 138 350.5t371 136.5zM592 256
q0 96 -77 96q-35 0 -55.5 -27.5t-20.5 -70.5q0 -44 20.5 -71t55.5 -27t56 25.5t21 74.5z" />
    <glyph glyph-name="A" unicode="A" horiz-adv-x="703" 
d="M671 107q16 -45 -7.5 -80t-75.5 -35q-36 0 -54.5 18.5t-31.5 57.5l-23 69h-254l-23 -69q-13 -39 -31.5 -57.5t-54.5 -18.5q-52 0 -75.5 35t-7.5 80l171 478q28 77 58.5 110t89.5 33t89 -32.5t58 -111.5zM273 283h157l-78 231h-2z" />
    <glyph glyph-name="B" unicode="B" horiz-adv-x="680" 
d="M342 0h-171q-94 0 -94 94v532q0 94 94 94h175q267 1 267 -193q0 -55 -27 -96t-75 -61v-2q128 -46 128 -167q0 -108 -75 -154.5t-222 -46.5zM249 580v-152h100q87 0 87 76t-94 76h-93zM249 302v-163h101q54 0 82 17.5t28 63.5q0 45 -27 63.5t-78 18.5h-106z" />
    <glyph glyph-name="C" unicode="C" horiz-adv-x="656" 
d="M433 -17q-176 0 -284 104t-108 272q0 171 106.5 273.5t285.5 102.5q93 0 148 -33q46 -29 46 -75q0 -35 -20 -57t-53 -22q-18 0 -55 10t-64 10q-92 0 -150 -55.5t-58 -153.5t59.5 -153.5t148.5 -55.5q31 0 67 10.5t56 10.5q31 0 50 -22t19 -53q0 -51 -49 -80
q-53 -33 -145 -33z" />
    <glyph glyph-name="D" unicode="D" horiz-adv-x="774" 
d="M346 -8h-175q-46 0 -70 24.5t-24 69.5v548q0 94 94 94h175q186 0 286 -98t100 -270q0 -173 -100 -270.5t-286 -97.5zM257 570v-420h93q95 0 145.5 54t50.5 156q0 103 -51 156.5t-145 53.5h-93z" />
    <glyph glyph-name="E" unicode="E" horiz-adv-x="592" 
d="M477 -8h-306q-46 0 -70 24.5t-24 69.5v548q0 94 94 94h303q33 0 53.5 -20t20.5 -55q0 -34 -19.5 -53.5t-52.5 -19.5h-221l1 -144h188q34 0 54.5 -21t20.5 -56t-20.5 -55t-53.5 -20h-189l1 -143h219q33 0 53.5 -20t20.5 -55q0 -34 -20 -54t-53 -20z" />
    <glyph glyph-name="F" unicode="F" horiz-adv-x="574" 
d="M168 -8q-44 0 -67.5 26t-23.5 68v548q0 94 94 94h307q31 0 52.5 -22t21.5 -54q0 -33 -20.5 -54t-52.5 -21h-224l1 -171h191q33 0 54.5 -21.5t21.5 -55.5q0 -32 -21 -53.5t-54 -21.5h-192l1 -168q0 -41 -23 -67.5t-66 -26.5z" />
    <glyph glyph-name="G" unicode="G" horiz-adv-x="719" 
d="M432 -17q-176 0 -283 101t-107 276t107 275t287 100q114 0 173 -33q48 -28 48 -76q0 -35 -20.5 -56.5t-52.5 -21.5q-14 0 -54 9.5t-80 10.5q-100 0 -161 -54t-61 -156q0 -101 58 -156.5t153 -55.5q36 0 63 10v148q0 38 22 62t62 24t61 -24t21 -62v-192q0 -69 -61 -100
q-61 -29 -175 -29z" />
    <glyph glyph-name="H" unicode="H" horiz-adv-x="802" 
d="M168 -8q-44 0 -67.5 26t-23.5 68v549q0 42 23.5 67.5t67.5 25.5q43 0 66 -26t23 -67l1 -192h287v192q0 41 23.5 67t67.5 26q43 0 66 -25.5t23 -67.5v-549q0 -42 -23 -68t-66 -26t-67 26.5t-24 67.5v192h-288v-192q0 -41 -23 -67.5t-66 -26.5z" />
    <glyph glyph-name="I" unicode="I" horiz-adv-x="334" 
d="M168 -8q-44 0 -67.5 26t-23.5 68v549q0 42 23.5 67.5t67.5 25.5q43 0 66 -26t23 -67v-549q0 -41 -23 -67.5t-66 -26.5z" />
    <glyph glyph-name="J" unicode="J" horiz-adv-x="488" 
d="M194 -16q-86 0 -137 34q-44 29 -44 79q0 31 19 52t51 21q16 0 43.5 -9.5t53.5 -9.5q32 0 44.5 34t12.5 114v340q0 40 25 65t65 25t65 -25t25 -65v-350q0 -155 -51.5 -230t-171.5 -75z" />
    <glyph glyph-name="K" unicode="K" horiz-adv-x="710" 
d="M167 -8q-43 0 -66.5 26t-23.5 68v549q0 41 23.5 67t66.5 26t66.5 -26t23.5 -67v-187h98l145 235q14 23 30.5 34t45.5 11q38 0 64.5 -26t26.5 -61q0 -28 -12 -45l-153 -230l161 -240q13 -21 13 -45q0 -36 -28 -62.5t-66 -26.5q-28 0 -45 11.5t-31 35.5l-154 238h-95v-191
q0 -42 -23.5 -68t-66.5 -26z" />
    <glyph glyph-name="L" unicode="L" horiz-adv-x="542" 
d="M447 -8h-276q-46 0 -70 24.5t-24 69.5v552q0 39 25.5 64.5t65.5 25.5q39 0 64 -25t25 -64l1 -481h188q37 0 59.5 -22.5t22.5 -61.5q0 -38 -22.5 -60t-58.5 -22z" />
    <glyph glyph-name="M" unicode="M" horiz-adv-x="949" 
d="M159 -8q-40 0 -61.5 24t-21.5 63v516q0 61 27.5 97t80.5 36q48 0 78.5 -27t60.5 -96l151 -358h2l151 359q30 69 59.5 95.5t76.5 26.5q54 0 82 -36t28 -97v-516q0 -39 -21 -63t-61 -24t-61 24t-21 63v343h-2l-133 -314q-26 -62 -47.5 -89t-51.5 -27q-31 0 -52.5 27
t-47.5 89l-133 314h-2v-343q0 -39 -20.5 -63t-60.5 -24z" />
    <glyph glyph-name="N" unicode="N" horiz-adv-x="793" 
d="M168 -8q-44 0 -67.5 26t-23.5 68v540q0 49 24 75.5t65 26.5q36 0 60.5 -20.5t69.5 -83.5l240 -337h2l-2 348q0 41 23.5 67t67.5 26q43 0 66 -25.5t23 -67.5v-541q0 -49 -24 -75.5t-67 -26.5q-39 0 -70 27t-88 106l-210 295h-2l2 -334q0 -41 -23 -67.5t-66 -26.5z" />
    <glyph glyph-name="O" unicode="O" horiz-adv-x="837" 
d="M419 -16q-174 0 -275.5 105.5t-101.5 269.5t102 270t275 106t275 -106t102 -270q0 -165 -101 -270t-276 -105zM419 146q90 0 140 56.5t50 156.5q0 101 -51 158t-141 57q-87 0 -138 -57.5t-51 -157.5q0 -99 51.5 -156t139.5 -57z" />
    <glyph glyph-name="P" unicode="P" horiz-adv-x="665" 
d="M168 -8q-44 0 -67.5 26t-23.5 68v548q0 94 94 94h158q149 0 227.5 -69.5t78.5 -195.5q0 -128 -78.5 -195.5t-224.5 -67.5h-75v-114q0 -41 -23 -67.5t-66 -26.5zM257 577v-226h73q129 0 129 112q0 55 -31.5 84.5t-93.5 29.5h-77z" />
    <glyph glyph-name="Q" unicode="Q" horiz-adv-x="842" 
d="M800 359q0 -142 -77 -241.5t-214 -125.5q0 -42 10 -59t37 -17q14 0 35 7t39 7q29 0 46 -19t17 -47q3 -50 -45 -81q-43 -27 -105 -27q-199 0 -209 236q-138 25 -215.5 125t-77.5 242q0 164 103 270t277 106q173 0 276 -106t103 -270zM421 146q91 0 142 56.5t51 156.5
q0 101 -52.5 158t-142.5 57q-88 0 -140 -57t-52 -158q0 -99 52.5 -156t141.5 -57z" />
    <glyph glyph-name="R" unicode="R" horiz-adv-x="694" 
d="M168 -8q-44 0 -67.5 26t-23.5 68v548q0 46 24 70.5t70 23.5h180q143 0 220.5 -61.5t77.5 -187.5q0 -148 -120 -216l81 -129q22 -35 22 -64q0 -32 -27.5 -55t-68.5 -23q-27 0 -45.5 16t-37.5 48l-107 175h-89v-145q0 -41 -23 -67.5t-66 -26.5zM257 579v-203h108
q52 0 80 26t28 75q0 52 -33 77t-89 25h-94z" />
    <glyph glyph-name="S" unicode="S" horiz-adv-x="646" 
d="M608 216q0 -111 -77.5 -172t-208.5 -61q-138 0 -222 53q-58 35 -58 84q0 36 22 56.5t58 20.5q22 0 83 -27.5t110 -27.5t72.5 19t23.5 46q0 10 -4 19t-13.5 16.5t-18 13t-25.5 12t-27.5 10l-31.5 10.5t-31 10q-49 16 -82.5 32.5t-65 42t-47 63.5t-15.5 88q0 96 74 153.5
t205 57.5q138 0 209 -48q43 -30 43 -73q0 -36 -21 -57t-57 -21q-28 0 -80 21.5t-91 21.5q-40 0 -62.5 -15.5t-22.5 -41.5q0 -23 20.5 -37t62.5 -28q6 -2 17 -5q129 -40 175 -70q86 -56 86 -166z" />
    <glyph glyph-name="T" unicode="T" horiz-adv-x="668" 
d="M335 -8q-44 0 -67.5 26t-23.5 68l-1 476h-151q-36 0 -58.5 23t-22.5 59q0 37 23 60.5t60 23.5h480q37 0 60 -23.5t23 -60.5q0 -36 -23 -59t-59 -23h-150l-1 -476q0 -41 -23 -67.5t-66 -26.5z" />
    <glyph glyph-name="U" unicode="U" horiz-adv-x="777" 
d="M388 -17q-158 0 -238.5 86.5t-80.5 245.5v320q0 41 23.5 67t66.5 26t66.5 -26t23.5 -67v-336q0 -154 139 -154q71 0 106 40.5t35 113.5v336q0 41 23.5 67t66.5 26t66.5 -26t23.5 -67v-320q0 -160 -81 -246t-240 -86z" />
    <glyph glyph-name="V" unicode="V" horiz-adv-x="737" 
d="M371 -8q-57 0 -88.5 34t-65.5 119l-189 468q-16 45 7.5 80t75.5 35q37 0 55.5 -18.5t30.5 -55.5l172 -474h2l166 474q13 38 31 56t54 18q53 0 76.5 -35t6.5 -80l-183 -471q-31 -82 -63 -116t-88 -34z" />
    <glyph glyph-name="W" unicode="W" horiz-adv-x="1047" 
d="M315 -7q-53 0 -81.5 31.5t-53.5 115.5l-147 476q-14 46 10 79t75 33q40 0 59 -17.5t29 -58.5l109 -430h2l93 386q17 69 44 94.5t73 25.5q44 0 70 -26t42 -93l93 -387h2l108 430q11 42 30 59t58 17q49 0 74.5 -33t11.5 -79l-147 -471q-27 -88 -55.5 -120.5t-79.5 -32.5
q-55 0 -83.5 34t-49.5 119l-76 304h-2l-76 -306q-21 -81 -50.5 -115.5t-81.5 -34.5z" />
    <glyph glyph-name="X" unicode="X" horiz-adv-x="677" 
d="M115 -7q-36 0 -62 24.5t-26 57.5q0 26 13 45l192 251l-177 232q-13 18 -13 43q0 34 24.5 57.5t59.5 23.5q24 0 41.5 -12.5t39.5 -41.5l130 -176h2l128 176q41 54 82 54q35 0 60.5 -23.5t25.5 -57.5q0 -24 -15 -43l-176 -232l191 -251q15 -22 15 -44q0 -33 -26.5 -58
t-62.5 -25q-23 0 -40 12t-39 41l-143 195h-2l-145 -195q-22 -30 -38 -41.5t-39 -11.5z" />
    <glyph glyph-name="Y" unicode="Y" horiz-adv-x="654" 
d="M328 -8q-45 0 -69 27t-24 69v180l-193 325q-15 25 -15 53q0 35 24.5 58.5t62.5 23.5q30 0 47.5 -12.5t36.5 -49.5l128 -230h2l126 231q19 35 36.5 48t46.5 13q39 0 63 -23t24 -58q0 -27 -14 -53l-190 -326v-180q0 -42 -24 -69t-68 -27z" />
    <glyph glyph-name="Z" unicode="Z" horiz-adv-x="696" 
d="M586 -8h-470q-39 0 -64 26t-25 63q0 32 21 58l353 429h-275q-37 0 -60 21t-23 59t23 59t60 21h440q42 0 66.5 -25t24.5 -65q0 -32 -23 -60l-355 -425h306q37 0 60.5 -21t23.5 -60q0 -38 -23 -59t-60 -21z" />
    <glyph glyph-name="bracketleft" unicode="[" horiz-adv-x="402" 
d="M293 -185h-125q-45 0 -69.5 24.5t-24.5 70.5v755q0 46 24.5 70.5t69.5 24.5h125q39 0 62 -21.5t23 -62.5t-23 -62.5t-62 -21.5h-55v-609h55q39 0 62 -21.5t23 -62.5t-23 -62.5t-62 -21.5z" />
    <glyph glyph-name="backslash" unicode="\" horiz-adv-x="471" 
d="M379 -215q-40 0 -56 42l-295 844q-11 34 7.5 61t56.5 27q41 0 56 -41l296 -848q11 -34 -8.5 -59.5t-56.5 -25.5z" />
    <glyph glyph-name="bracketright" unicode="]" horiz-adv-x="402" 
d="M234 -185h-125q-39 0 -62 21.5t-23 62.5t23 62.5t62 21.5h55v609h-55q-39 0 -62 21.5t-23 62.5q0 42 23 63t62 21h125q45 0 69.5 -24.5t24.5 -70.5v-755q0 -46 -24.5 -70.5t-69.5 -24.5z" />
    <glyph glyph-name="asciicircum" unicode="^" horiz-adv-x="548" 
d="M51 423l88 215q38 90 135 90q53 0 84 -22t50 -68l88 -215q6 -12 6 -27q0 -31 -21 -52t-52 -21q-50 0 -68 48l-85 224h-2l-87 -225q-19 -47 -68 -47q-31 0 -51.5 21t-20.5 51q0 17 4 28z" />
    <glyph glyph-name="underscore" unicode="_" horiz-adv-x="616" 
d="M503 -165h-390q-33 0 -53.5 19t-20.5 56q0 36 21 55t53 19h390q32 0 53 -19.5t21 -55.5t-21 -55t-53 -19z" />
    <glyph glyph-name="grave" unicode="`" horiz-adv-x="600" 
d="M267 765l69 -89q20 -23 20 -56q0 -31 -20.5 -50.5t-49.5 -19.5q-22 0 -53 24l-86 73q-37 30 -37 74q0 37 24 61t59 24q41 0 74 -41z" />
    <glyph glyph-name="a" unicode="a" horiz-adv-x="604" 
d="M208 -17q-87 0 -134 40.5t-47 117.5q0 80 57 123.5t144 43.5q74 0 131 -30q0 53 -30 72.5t-85 19.5q-15 0 -70 -10q-37 -7 -42 -7q-30 0 -46.5 17.5t-16.5 48.5q0 55 64 80q54 23 141 23q63 0 110 -16.5t73.5 -42.5t43 -64.5t22 -75.5t5.5 -84v-43q0 -28 4 -37t18 -19
q36 -27 36 -68q0 -40 -26.5 -64.5t-72.5 -24.5q-48 0 -76 27t-33 54h-2q-65 -81 -168 -81zM262 109q35 0 64 23t33 55q-33 21 -78 21q-36 0 -57.5 -14t-21.5 -38q0 -47 60 -47z" />
    <glyph glyph-name="b" unicode="b" horiz-adv-x="640" 
d="M375 -17q-55 0 -100.5 23t-64.5 65h-2v-11q-1 -29 -20 -48.5t-54 -19.5t-53.5 21t-18.5 54v598q0 42 23.5 68t66.5 26t66 -26t23 -68l1 -190h2q18 20 56 33.5t75 13.5q106 0 167 -74.5t61 -190.5q0 -117 -61.5 -195.5t-166.5 -78.5zM325 140q43 0 68.5 30t25.5 83
t-25.5 83t-68.5 30q-44 0 -68.5 -29t-24.5 -84q0 -113 93 -113z" />
    <glyph glyph-name="c" unicode="c" horiz-adv-x="522" 
d="M310 -16q-129 0 -201.5 75t-72.5 194q0 122 76.5 195.5t204.5 73.5q88 0 135 -31q41 -28 41 -74q0 -28 -18 -47.5t-48 -19.5q-19 0 -48 10.5t-56 10.5q-51 0 -80 -33.5t-29 -85.5q0 -51 29 -84.5t80 -33.5q27 0 56 10.5t48 10.5q30 0 48 -19.5t18 -46.5q0 -47 -44 -74
q-47 -31 -139 -31z" />
    <glyph glyph-name="d" unicode="d" horiz-adv-x="664" 
d="M273 -17q-107 0 -171.5 75t-64.5 194q0 123 62.5 196.5t171.5 73.5q41 0 75 -13.5t50 -33.5h2v190q0 41 24 67.5t67 26.5t66 -26t23 -68v-458q0 -43 22 -67q36 -31 36 -67q0 -39 -26 -64.5t-74 -25.5t-75.5 26.5t-32.5 53.5h-2q-46 -80 -153 -80zM316 140q44 0 68 28.5
t24 84.5q0 55 -24.5 83.5t-68.5 28.5q-43 0 -68 -30t-25 -83q0 -52 25.5 -82t68.5 -30z" />
    <glyph glyph-name="e" unicode="e" horiz-adv-x="580" 
d="M332 -17q-144 0 -220 73.5t-76 199.5q0 118 74 192t190 74q117 0 180.5 -65t63.5 -166q0 -43 -20 -63.5t-68 -20.5h-242q0 -30 31 -52t93 -22q30 0 66 10t54 10q30 0 48 -19t18 -46q0 -47 -44 -73q-50 -32 -148 -32zM211 303h166q1 3 1 12q0 29 -20 49.5t-60 20.5
q-37 0 -62 -23t-25 -59z" />
    <glyph glyph-name="f" unicode="f" horiz-adv-x="429" 
d="M334 619q-23 0 -36.5 -16t-12.5 -45l4 -51h50q35 0 56 -19t21 -55t-21.5 -55.5t-55.5 -19.5h-47v-272q0 -42 -23.5 -68t-66.5 -26t-66.5 26t-23.5 68l-1 272h-13q-34 0 -55.5 19.5t-21.5 55.5t21 55t56 19h13v66q0 87 52.5 142t151.5 55q88 0 125 -39q23 -22 23 -59
q0 -30 -18 -48.5t-43 -18.5q-17 0 -35.5 7t-32.5 7z" />
    <glyph glyph-name="g" unicode="g" horiz-adv-x="639" 
d="M291 -233q-120 0 -174 42q-33 27 -33 67q0 31 19 50.5t53 19.5q23 0 61.5 -15t69.5 -15q53 0 85.5 26.5t32.5 75.5v23h-2q-42 -49 -125 -49q-112 0 -176.5 72.5t-64.5 189.5q0 120 63 194t174 74q50 0 93 -23t63 -64h2v9q1 30 20 50t53 20q35 0 54 -21t19 -54l-1 -366
q0 -146 -66.5 -226t-219.5 -80zM315 141q45 0 70 28.5t25 84.5q0 55 -25 83.5t-69 28.5q-43 0 -68.5 -30t-25.5 -83t25 -82.5t68 -29.5z" />
    <glyph glyph-name="h" unicode="h" horiz-adv-x="639" 
d="M152 -8q-43 0 -67 26.5t-24 67.5v579q0 41 24 67.5t67 26.5t66 -26t23 -68v-191h2q18 21 56.5 34.5t77.5 13.5q208 0 208 -261v-175q0 -42 -23.5 -68t-66.5 -26t-66.5 26t-23.5 68v172q0 106 -75 106q-42 0 -65 -28t-23 -76l-1 -174q0 -42 -23 -68t-66 -26z" />
    <glyph glyph-name="i" unicode="i" horiz-adv-x="298" 
d="M149 572q-51 0 -82 29t-31 79t31 78.5t82 28.5q50 0 81 -28.5t31 -78.5t-30.5 -79t-81.5 -29zM150 -8q-43 0 -67 26.5t-24 67.5v335q0 41 23.5 67t67.5 26q43 0 66 -25.5t23 -67.5v-335q0 -42 -23 -68t-66 -26z" />
    <glyph glyph-name="j" unicode="j" horiz-adv-x="311" 
d="M160 572q-51 0 -82 29t-31 79t31 78.5t82 28.5q50 0 80.5 -28.5t30.5 -78.5t-30 -79t-81 -29zM62 -230q-76 0 -114 38q-28 28 -28 65q0 31 17.5 50t44.5 19q11 0 26.5 -6t25.5 -6q22 0 28.5 16.5t6.5 53.5l1 421q0 41 23.5 67t66.5 26t66 -25.5t23 -67.5l1 -430
q0 -44 -9.5 -81.5t-30 -70t-58.5 -51t-90 -18.5z" />
    <glyph glyph-name="k" unicode="k" horiz-adv-x="578" 
d="M152 -8q-44 0 -67.5 26t-23.5 68l1 579q0 42 23.5 68t66.5 26t66 -26t23 -68l1 -336h47l88 138q14 24 30 35.5t45 11.5q35 0 59.5 -24.5t24.5 -57.5q0 -20 -12 -41l-93 -135l99 -134q13 -23 13 -45q0 -35 -25 -60t-62 -25q-30 0 -46.5 12t-30.5 37l-97 143h-40v-98
q0 -42 -23.5 -68t-66.5 -26z" />
    <glyph glyph-name="l" unicode="l" horiz-adv-x="302" 
d="M152 -8q-43 0 -67 26.5t-24 67.5v579q0 41 24 67.5t67 26.5t66 -26t23 -68v-579q0 -42 -23 -68t-66 -26z" />
    <glyph glyph-name="m" unicode="m" horiz-adv-x="953" 
d="M150 -8q-43 0 -66.5 26t-23.5 68v353q0 34 18.5 54.5t53.5 20.5q34 0 53.5 -20t20.5 -51v-13h2q20 41 63.5 66.5t97.5 25.5q53 0 96 -23.5t65 -68.5h2q21 42 66.5 67t94.5 25q97 0 151.5 -65.5t54.5 -195.5v-175q0 -42 -23.5 -68t-66.5 -26t-66.5 26t-23.5 68v168
q0 107 -72 107q-37 0 -57.5 -28.5t-19.5 -76.5v-170q0 -42 -23.5 -68t-66.5 -26t-66.5 26t-23.5 68v168q0 47 -16.5 77t-52.5 30q-39 0 -60 -28.5t-21 -76.5l-1 -170q0 -42 -23 -68t-66 -26z" />
    <glyph glyph-name="n" unicode="n" 
d="M150 -8q-43 0 -66.5 26t-23.5 68v353q0 34 18.5 54.5t53.5 20.5q34 0 53.5 -19.5t20.5 -51.5v-13h2q20 42 67 67t100 25q208 0 208 -259v-177q0 -42 -23 -68t-66 -26t-67 26.5t-24 67.5v170q0 106 -75 106q-42 0 -65 -29t-23 -77l-1 -170q0 -42 -23 -68t-66 -26z" />
    <glyph glyph-name="o" unicode="o" horiz-adv-x="634" 
d="M317 -17q-130 0 -205.5 74t-75.5 196q0 124 76 196.5t205 72.5q128 0 204.5 -72.5t76.5 -196.5q0 -122 -75.5 -196t-205.5 -74zM317 137q46 0 73 31t27 85q0 53 -27.5 84t-73.5 31q-45 0 -72.5 -30t-27.5 -85t28 -85.5t73 -30.5z" />
    <glyph glyph-name="p" unicode="p" horiz-adv-x="640" 
d="M152 -215q-43 0 -66.5 26t-23.5 67l1 561q0 34 18.5 54.5t53.5 20.5q34 0 53 -17.5t21 -46.5v-8h2q24 39 66.5 59.5t89.5 20.5q115 0 175.5 -74.5t60.5 -191.5q0 -122 -63 -197.5t-171 -75.5q-39 0 -73.5 13t-51.5 34h-2v-152q0 -41 -23.5 -67t-66.5 -26zM325 140
q43 0 68.5 30t25.5 83q0 52 -25.5 82t-68.5 30q-93 0 -92 -113q0 -55 24 -83.5t68 -28.5z" />
    <glyph glyph-name="q" unicode="q" horiz-adv-x="640" 
d="M488 -215q-43 0 -66 25.5t-23 67.5v152h-2q-18 -21 -52.5 -34t-72.5 -13q-108 0 -171.5 75.5t-63.5 197.5q0 117 62 191.5t174 74.5q52 0 93.5 -22t63.5 -60h2v8q2 30 20.5 48t52.5 18q35 0 54 -21t19 -54l1 -561q0 -41 -23.5 -67t-67.5 -26zM315 140q44 0 68.5 28.5
t24.5 83.5q0 56 -24 84.5t-68 28.5q-43 0 -68.5 -30t-25.5 -82q0 -53 25 -83t68 -30z" />
    <glyph glyph-name="r" unicode="r" horiz-adv-x="418" 
d="M150 -8q-43 0 -66.5 26t-23.5 68v353q0 34 18.5 54.5t53.5 20.5t54 -16.5t20 -45.5v-8h2q43 78 124 78q36 0 56 -22.5t20 -53.5q0 -32 -20 -56t-59 -24q-90 0 -90 -101v-179q0 -42 -23 -68t-66 -26z" />
    <glyph glyph-name="s" unicode="s" horiz-adv-x="532" 
d="M267 -17q-128 0 -194 46q-41 28 -41 71q0 28 17 45t45 17q21 0 70.5 -23.5t90.5 -23.5q60 0 60 31q0 24 -48 38q-10 3 -35 9q-6 2 -10 3q-82 20 -129 58t-47 109q0 72 59.5 115.5t162.5 43.5t166 -39q45 -27 45 -65q0 -34 -24.5 -50.5t-61.5 -9.5q-9 2 -50.5 16.5
t-67.5 14.5q-25 0 -37 -5.5t-12 -22.5q0 -18 19 -26.5t65 -18.5q2 0 3.5 -0.5l3 -1t3.5 -0.5q29 -7 48 -12.5t46 -18t43 -28.5t28 -42.5t12 -60.5q0 -74 -56.5 -121.5t-173.5 -47.5z" />
    <glyph glyph-name="t" unicode="t" horiz-adv-x="447" 
d="M371 154q23 0 39 -18t16 -49q0 -36 -19 -60q-35 -43 -121 -43q-93 0 -138.5 56t-45.5 145v173h-13q-32 0 -53 21t-21 54q0 32 21 53t53 21h22q3 17 9 34q25 86 89 86q73 0 73 -81v-39h58q32 0 52.5 -21t20.5 -53q0 -33 -20.5 -54t-52.5 -21h-58v-153q0 -30 7 -46t30 -16
q11 0 25.5 5.5t26.5 5.5z" />
    <glyph glyph-name="u" unicode="u" 
d="M262 -17q-208 0 -208 262v176q0 41 23.5 67t66.5 26t66.5 -26t23.5 -67v-169q0 -108 75 -108q41 0 64.5 29t22.5 77l1 171q0 41 23.5 67t66.5 26t66.5 -26t23.5 -67v-354q0 -33 -19 -54t-54 -21q-34 0 -53.5 20t-20.5 51v14h-2q-20 -42 -66.5 -68t-99.5 -26z" />
    <glyph glyph-name="v" unicode="v" horiz-adv-x="585" 
d="M299 -8h-9q-58 0 -90 32.5t-62 113.5l-106 260q-18 46 8.5 81t79.5 35q33 0 48.5 -18.5t28.5 -60.5l95 -272h2l95 272q12 42 31.5 60.5t55.5 18.5q51 0 72.5 -33.5t4.5 -81.5l-105 -257q-31 -84 -63 -117t-86 -33z" />
    <glyph glyph-name="w" unicode="w" horiz-adv-x="839" 
d="M250 -8h-5q-54 0 -82 31.5t-46 96.5l-84 281q-14 50 8.5 81.5t74.5 31.5q61 0 77 -77l64 -250h2l55 218q14 59 38 84t69 25h5q43 -1 64 -25t35 -84l56 -218h2l63 250q9 39 27.5 58t55.5 19q49 0 70.5 -31.5t7.5 -81.5l-84 -281q-20 -64 -47.5 -95.5t-79.5 -32.5h-6
q-51 0 -78.5 31t-43.5 94l-48 172h-2l-46 -172q-16 -60 -44.5 -92.5t-77.5 -32.5z" />
    <glyph glyph-name="x" unicode="x" horiz-adv-x="559" 
d="M118 -8q-34 0 -59 23.5t-25 55.5q0 24 14 42l115 142l-111 138q-12 16 -12 40q0 33 25.5 57t58.5 24q25 0 40 -11t33 -34l80 -105h2l77 102q14 18 20.5 25t21.5 15t35 8q34 0 60 -24t26 -57q0 -24 -12 -39l-108 -139l112 -142q13 -17 13 -42q0 -32 -25.5 -55.5
t-60.5 -23.5q-22 0 -36.5 10t-31.5 32l-89 110h-2l-91 -110q-34 -42 -70 -42z" />
    <glyph glyph-name="y" unicode="y" horiz-adv-x="572" 
d="M149 -230q-41 0 -66 13q-44 24 -44 74q0 30 19 48.5t49 18.5h16q30 0 47 13t27 43l-162 414q-18 44 7.5 82t76.5 38q38 0 56 -19.5t27 -54.5l87 -305h3l80 293q8 39 27.5 62.5t60.5 23.5q53 0 75 -34.5t3 -84.5l-146 -388q-50 -133 -105.5 -185t-137.5 -52z" />
    <glyph glyph-name="z" unicode="z" horiz-adv-x="546" 
d="M441 -8h-334q-38 0 -57.5 21.5t-19.5 56.5q0 27 21 51l205 246h-140q-34 0 -55 19t-21 55q0 35 21 54t55 19h310q37 0 59.5 -20t22.5 -56q0 -29 -22 -53l-209 -246h164q34 0 55 -19t21 -54q0 -36 -21 -55t-55 -19z" />
    <glyph glyph-name="braceleft" unicode="{" horiz-adv-x="412" 
d="M26 287q0 46 33 79q5 5 13 11.5t11.5 9.5t8.5 8t7 9.5t4.5 11.5t3 15.5t0.5 20.5v75q0 241 194 241q42 0 65 -19.5t23 -52.5q0 -18 -5 -31t-15.5 -21t-18.5 -12t-22 -9q-35 -10 -47.5 -34.5t-12.5 -99.5v-61q0 -36 -10 -64t-24.5 -41.5t-29 -22t-24.5 -10.5l-10 -2v-2
q4 0 10.5 -1.5t23.5 -10.5t30 -22.5t23.5 -41t10.5 -63.5v-64q0 -51 6.5 -78t18 -37t35.5 -17q16 -6 22.5 -8.5t18 -10.5t16 -20.5t4.5 -30.5q0 -36 -22.5 -55.5t-65.5 -19.5q-95 0 -144.5 60.5t-49.5 180.5v75q0 14 -1.5 24.5t-3.5 17t-7.5 13.5t-8.5 10.5t-13 12t-16 13.5
q-31 31 -31 74z" />
    <glyph glyph-name="bar" unicode="|" horiz-adv-x="313" 
d="M74 -133v777q0 36 23.5 59.5t59.5 23.5t59 -23.5t23 -59.5v-777q0 -36 -23 -59t-59 -23t-59.5 23t-23.5 59z" />
    <glyph glyph-name="braceright" unicode="}" horiz-adv-x="412" 
d="M386 287q0 -43 -31 -74q-6 -5 -16 -13.5t-13 -12t-8.5 -10.5t-7.5 -13.5t-3.5 -17t-1.5 -24.5v-75q0 -120 -49.5 -180.5t-144.5 -60.5q-43 0 -65.5 19.5t-22.5 55.5q0 18 4.5 30.5t16 20.5t18 10.5t22.5 8.5q24 7 35.5 17t18 37t6.5 78v64q0 36 10 63.5t24.5 41.5t29 22
t24.5 10l10 2v2q-4 0 -10.5 1.5t-23.5 10.5t-30 22.5t-23.5 41.5t-10.5 64v61q0 75 -12.5 99.5t-47.5 34.5q-14 5 -22 9t-18.5 12t-15.5 21t-5 31q0 33 23 52.5t65 19.5q194 0 194 -241v-75q0 -16 1 -26.5t7 -19.5l8 -12t15 -13.5t17 -14.5q33 -33 33 -79z" />
    <glyph glyph-name="asciitilde" unicode="~" horiz-adv-x="596" 
d="M397 405q11 0 18 4.5t14.5 16.5t9.5 15q16 18 44 18q29 0 45.5 -22t16.5 -55q0 -46 -31.5 -82.5t-88.5 -36.5q-51 0 -119.5 29t-97.5 29q-9 0 -15 -1.5t-10.5 -6t-7 -7.5t-6.5 -10t-5 -9q-14 -26 -48 -26q-29 0 -45.5 20t-16.5 49q0 53 37.5 89.5t98.5 36.5
q64 0 128 -25.5t79 -25.5z" />
    <glyph glyph-name="exclamdown" unicode="&#xa1;" horiz-adv-x="315" 
d="M158 512q50 0 80 -28t30 -75q0 -45 -30.5 -73.5t-79.5 -28.5q-51 0 -81 28.5t-30 73.5q0 47 30 75t81 28zM158 216q38 0 61.5 -24.5t24.5 -68.5l7 -247q1 -47 -24.5 -76.5t-68.5 -29.5t-68.5 29t-24.5 76l5 248q1 43 25 68t63 25z" />
    <glyph glyph-name="cent" unicode="&#xa2;" horiz-adv-x="540" 
d="M432 258q30 0 48 -19.5t18 -46.5q0 -47 -44 -74q-25 -17 -69 -25v-38q0 -27 -18.5 -46t-45.5 -19t-46 19.5t-19 45.5v37q-102 17 -158.5 88.5t-56.5 175.5q0 105 57.5 175t157.5 88v37q0 26 19 45.5t46 19.5t45.5 -19t18.5 -46v-36q43 -6 72 -26q41 -28 41 -74
q0 -27 -18 -46.5t-48 -19.5q-19 0 -48 10.5t-56 10.5q-51 0 -80 -34t-29 -85q0 -52 29 -85.5t80 -33.5q27 0 56 10.5t48 10.5z" />
    <glyph glyph-name="sterling" unicode="&#xa3;" horiz-adv-x="569" 
d="M460 215q30 0 48.5 -19t18.5 -50q0 -30 -18.5 -50t-48.5 -20h-309q-77 0 -77 66q0 8 2 16t3.5 13t7.5 14.5t7.5 12t10 14t9.5 12.5q21 32 28 69h-39q-26 0 -45 18.5t-19 45.5t18.5 46t45.5 19h45q6 130 60 180t149 50q67 0 108 -26q35 -24 35 -64q0 -31 -18 -50.5
t-47 -19.5q-19 0 -38 7q-20 8 -38 8q-28 0 -39 -20.5t-13 -64.5h75q26 0 45 -19t19 -46t-19 -45.5t-45 -18.5h-79q-5 -46 -21 -78h178z" />
    <glyph glyph-name="currency" unicode="&#xa4;" horiz-adv-x="641" 
d="M557 209q27 -26 27 -53q0 -24 -19.5 -44t-43.5 -20q-26 0 -54 26l-33 34q-51 -23 -114 -23t-114 23l-31 -32q-27 -27 -55 -27q-24 0 -43 20t-19 43q0 26 26 54l28 27q-28 53 -28 117q0 68 29 118l-30 30q-26 28 -26 54q0 24 20 43.5t44 19.5q27 0 53 -27l35 -36
q48 21 111 21q64 0 114 -24l34 35q27 27 54 27q25 0 44 -20.5t19 -43.5q0 -27 -26 -53l-32 -31q27 -48 27 -113q0 -63 -27 -115zM320 249q40 0 64.5 29.5t24.5 75.5q0 47 -24 75.5t-65 28.5q-40 0 -64.5 -26t-24.5 -77t24 -78.5t65 -27.5z" />
    <glyph glyph-name="yen" unicode="&#xa5;" horiz-adv-x="534" 
d="M493 576q0 -22 -12 -45l-115 -212h29q26 0 45.5 -19t19.5 -46t-19.5 -46t-45.5 -19h-42v-35q0 -37 -24 -61t-62 -24q-37 0 -61.5 24t-24.5 61v35h-44q-26 0 -45 19t-19 46t19 46t45 19h31l-115 212q-12 26 -12 45q0 30 22.5 51t55.5 21q53 0 73 -53l74 -161h2l74 161
q21 53 74 53q33 0 55 -21t22 -51z" />
    <glyph glyph-name="brokenbar" unicode="&#xa6;" horiz-adv-x="313" 
d="M239 644v-244q0 -35 -23 -58.5t-59 -23.5t-59.5 23.5t-23.5 58.5v244q0 36 23.5 59.5t59.5 23.5t59 -23.5t23 -59.5zM239 95v-228q0 -36 -23 -59t-59 -23t-59.5 23t-23.5 59v228q0 36 23.5 59t59.5 23t59 -23t23 -59z" />
    <glyph glyph-name="section" unicode="&#xa7;" horiz-adv-x="610" 
d="M508 186q53 -48 53 -129q0 -88 -62.5 -140t-184.5 -52q-144 0 -221 53q-38 28 -38 66q0 31 18 49t47 18q19 0 46 -14t64 -28t81 -14q93 0 93 64q0 14 -6 24t-23 18t-29 12.5t-42 12.5l-45 12q-49 15 -79.5 27.5t-65 34.5t-51 54.5t-16.5 76.5q0 88 64 141q-41 46 -41 117
q0 89 62 135t175 46q47 0 99.5 -11t82.5 -31q43 -27 43 -65q0 -33 -24 -49.5t-61 -9.5q-3 0 -60.5 18.5t-96.5 18.5q-29 0 -49 -14t-20 -38q0 -8 2 -15.5t4.5 -12.5t9.5 -9.5t11 -7t14.5 -6.5t16 -5.5t19.5 -5t20 -5.5q10 -3 35 -9.5t39.5 -10.5t39 -13.5t40 -18t34 -23.5
t29 -32t18 -40.5t7.5 -51.5q0 -74 -52 -137zM207 352q0 -36 30 -53.5t103 -36.5q6 -2 51 -14q16 28 16 51q0 7 -1 13t-2.5 10.5t-5.5 9t-6.5 7.5t-8.5 6t-9.5 5t-12.5 5l-13.5 4.5t-16 4.5t-16.5 5q-65 21 -93 33q-15 -26 -15 -50z" />
    <glyph glyph-name="dieresis" unicode="&#xa8;" horiz-adv-x="599" 
d="M178 555q-47 0 -74.5 26.5t-27.5 69.5q0 41 28 68t74 27q45 0 72 -27t27 -68q0 -43 -26.5 -69.5t-72.5 -26.5zM423 555q-47 0 -74.5 26.5t-27.5 69.5q0 41 28 68t74 27q45 0 72 -27t27 -68q0 -43 -26.5 -69.5t-72.5 -26.5z" />
    <glyph glyph-name="copyright" unicode="&#xa9;" horiz-adv-x="884" 
d="M444 -40q-188 0 -294.5 106t-106.5 279q0 170 109 279.5t290 109.5q180 0 289.5 -109.5t109.5 -279.5q0 -174 -105 -279.5t-292 -105.5zM444 82q131 0 201 69t70 194q0 120 -74.5 193.5t-198.5 73.5q-125 0 -198.5 -73t-73.5 -194q0 -124 71.5 -193.5t202.5 -69.5z
M444 142q-97 0 -152 56.5t-55 146.5q0 92 58 148t154 56q69 0 103 -24q30 -19 30 -55q0 -21 -13 -35t-36 -14q-14 0 -36.5 7.5t-43.5 7.5q-39 0 -61 -25.5t-22 -65.5q0 -39 22 -64.5t61 -25.5q21 0 43.5 7.5t36.5 7.5q23 0 36 -14t13 -35q0 -37 -32 -55q-37 -24 -106 -24z
" />
    <glyph glyph-name="ordfeminine" unicode="&#xaa;" horiz-adv-x="580" 
d="M38 514q0 -101 49 -162t139 -61q88 0 137 71h2q6 -25 29.5 -48t62.5 -23q38 0 62 21t24 56q0 36 -27 60q-11 12 -14 22.5t-3 38.5v170q0 31 -17 50t-49 19t-50 -17.5t-18 -45.5v-15h-2q-32 84 -140 84q-87 0 -136 -61.5t-49 -158.5zM268 414q-35 0 -55.5 27t-20.5 71
q0 43 20.5 70.5t55.5 27.5q77 0 77 -96q0 -49 -21 -74.5t-56 -25.5z" />
    <glyph glyph-name="guillemotleft" unicode="&#xab;" horiz-adv-x="543" 
d="M50 301l64 119q21 46 63 46q33 0 56.5 -18.5t23.5 -50.5q0 -22 -9 -40l-54 -103l54 -104q9 -18 9 -40q0 -32 -23.5 -50.5t-56.5 -18.5q-42 0 -63 46l-64 119q-13 28 -13 48q0 21 13 47zM286 301l64 119q23 46 63 46q33 0 57 -18.5t24 -50.5q0 -20 -10 -40l-54 -103
l54 -104q10 -20 10 -40q0 -32 -24 -50.5t-57 -18.5q-40 0 -63 46l-64 119q-13 28 -13 48q0 21 13 47z" />
    <glyph glyph-name="registered" unicode="&#xae;" horiz-adv-x="884" 
d="M444 -40q-188 0 -294.5 106t-106.5 279q0 170 109 279.5t290 109.5q180 0 289.5 -109.5t109.5 -279.5q0 -174 -105 -279.5t-292 -105.5zM444 82q131 0 201 69t70 194q0 120 -74.5 193.5t-198.5 73.5q-125 0 -198.5 -73t-73.5 -194q0 -124 71.5 -193.5t202.5 -69.5z
M288 209v240q0 89 89 89h72q167 0 167 -131q0 -76 -59 -115l34 -56q8 -14 8 -29q0 -24 -15.5 -39.5t-42.5 -15.5q-30 0 -49 30l-53 91h-36v-64q0 -25 -14 -41t-43 -16q-30 0 -44 16t-14 41zM403 437v-72h43q44 0 44 37q0 35 -45 35h-42z" />
    <glyph glyph-name="macron" unicode="&#xaf;" horiz-adv-x="600" 
d="M390 585h-247q-29 0 -49 20.5t-20 50.5q0 29 20.5 49.5t48.5 20.5h247q29 0 49.5 -21t20.5 -51q0 -29 -20.5 -49t-49.5 -20z" />
    <glyph glyph-name="degree" unicode="&#xb0;" horiz-adv-x="440" 
d="M220 385q-81 0 -133.5 49.5t-52.5 124.5t51.5 124t134.5 49q81 0 133 -49t52 -124q0 -73 -52 -123.5t-133 -50.5zM220 497q24 0 37.5 16.5t13.5 45.5q0 30 -13.5 46.5t-37.5 16.5q-51 0 -51 -63q0 -62 51 -62z" />
    <glyph glyph-name="plusminus" unicode="&#xb1;" horiz-adv-x="517" 
d="M259 631q32 0 51.5 -17.5t19.5 -49.5v-28h60q31 0 51 -19t20 -52q0 -34 -20 -53t-51 -19h-60v-28q0 -32 -19.5 -49.5t-51.5 -17.5t-52 17.5t-20 48.5v29h-59q-31 0 -51 19t-20 53q0 33 20 52t51 19h59v29q0 31 20 48.5t52 17.5zM132 239h253q35 0 52.5 -19t17.5 -51
q0 -33 -17.5 -52t-52.5 -19h-253q-35 0 -53 19t-18 51t18 51.5t53 19.5z" />
    <glyph glyph-name="acute" unicode="&#xb4;" horiz-adv-x="405" 
d="M84 676l69 89q33 41 74 41q35 0 59 -24t24 -61q0 -44 -37 -74l-86 -73q-31 -24 -52 -24q-29 0 -50 19.5t-21 50.5q0 33 20 56z" />
    <glyph glyph-name="paragraph" unicode="&#xb6;" horiz-adv-x="705" 
d="M555 728q29 0 47 -20t18 -47v-739q0 -28 -15.5 -47t-45.5 -19q-31 0 -46.5 18.5t-15.5 47.5v668h-97v-658q0 -33 -18 -54.5t-53 -21.5t-53 22t-18 54v299q-110 0 -169.5 67t-59.5 181q0 111 61.5 179t167.5 70h4h290h2h1z" />
    <glyph glyph-name="periodcentered" unicode="&#xb7;" horiz-adv-x="314" 
d="M157 148q-51 0 -81 28t-30 75q0 45 30.5 73.5t80.5 28.5t80 -28.5t30 -73.5q0 -47 -29.5 -75t-80.5 -28z" />
    <glyph glyph-name="cedilla" unicode="&#xb8;" horiz-adv-x="600" 
d="M204 -293q-48 0 -80 19q-33 18 -33 52q0 25 14.5 39t33.5 14q10 0 24 -5.5t22 -5.5q32 0 32 31q0 29 -42 29q-23 0 -32 9.5t-3 38.5l11 39q8 29 21.5 40t42.5 11q26 0 44 -11.5t11 -32.5l-10 -31q4 -1 10.5 -2t23 -9t29.5 -19t23.5 -33t10.5 -50q0 -51 -39.5 -87
t-113.5 -36z" />
    <glyph glyph-name="ordmasculine" unicode="&#xba;" horiz-adv-x="535" 
d="M268 292q-108 0 -170.5 60t-62.5 161q0 103 63 162.5t170 59.5q106 0 169 -60t63 -162q0 -101 -62.5 -161t-169.5 -60zM268 421q37 0 59 24t22 68t-22.5 68.5t-60.5 24.5q-36 0 -58 -25t-22 -68q0 -44 23 -68t59 -24z" />
    <glyph glyph-name="guillemotright" unicode="&#xbb;" horiz-adv-x="543" 
d="M193 420l63 -119q13 -23 13 -47q0 -23 -13 -48l-63 -119q-23 -46 -63 -46q-33 0 -57 18.5t-24 50.5q0 20 10 40l54 104l-54 103q-10 20 -10 40q0 32 24 50.5t57 18.5q40 0 63 -46zM429 420l64 -119q13 -26 13 -47q0 -20 -13 -48l-64 -119q-23 -46 -63 -46q-33 0 -57 19
t-24 50q0 20 10 40l54 104l-54 103q-10 20 -10 40q0 31 24 50t57 19q40 0 63 -46z" />
    <glyph glyph-name="onequarter" unicode="&#xbc;" horiz-adv-x="897" 
d="M615 671q0 -13 -6 -29l-267 -620q-17 -38 -58 -38q-28 0 -46.5 18.5t-18.5 44.5q0 13 6 27l268 623q17 38 58 38q27 0 45.5 -18.5t18.5 -45.5zM267 402q0 -32 -18 -52.5t-51 -20.5q-34 0 -52.5 20.5t-18.5 52.5v158q-23 -9 -37 -9q-30 0 -47 19t-17 49q0 45 45 61l116 43
q17 5 29 5q23 0 37 -14t14 -36v-276zM872 112q0 -21 -12.5 -36t-31.5 -17q-1 -29 -20.5 -48t-47.5 -19q-30 0 -49 18.5t-21 47.5h-144q-31 0 -46 15.5t-15 41.5t14 52l107 205q21 36 52 36t50 -17t19 -43q0 -14 -9 -32l-84 -152h67l4 16q17 66 65 66q27 0 42.5 -19t15.5 -50
v-14q19 -2 31.5 -16.5t12.5 -34.5z" />
    <glyph glyph-name="onehalf" unicode="&#xbd;" horiz-adv-x="891" 
d="M276 -16q-28 0 -46.5 18.5t-18.5 44.5q0 13 6 27l268 623q17 38 59 38q27 0 45 -18.5t18 -45.5q0 -16 -6 -29l-267 -620q-17 -38 -58 -38zM197 329q-34 0 -52.5 20.5t-18.5 52.5v158q-23 -9 -37 -9q-30 0 -47 19t-17 49q0 45 45 61l116 43q17 5 29 5q23 0 37 -14t14 -36
v-276q0 -32 -18 -52.5t-51 -20.5zM658 281q-20 0 -43 -17q-25 -17 -44 -17q-24 0 -38 16.5t-14 38.5q0 36 34 62q50 38 132 38q77 0 116 -33.5t39 -89.5q0 -96 -114 -169v-2h70q27 0 43 -15t16 -41q0 -24 -16 -39t-42 -15h-226q-27 0 -40.5 14t-13.5 36q0 15 8 28.5t16 20.5
t29 23q114 88 115 130q0 31 -27 31z" />
    <glyph glyph-name="threequarters" unicode="&#xbe;" horiz-adv-x="984" 
d="M701 671q0 -13 -6 -29l-267 -620q-17 -38 -58 -38q-28 0 -46.5 18.5t-18.5 44.5q0 13 6 27l268 623q17 38 58 38q27 0 45.5 -18.5t18.5 -45.5zM376 433q0 -56 -44.5 -87.5t-130.5 -31.5t-135 34q-25 20 -25 45q0 18 11.5 31.5t30.5 13.5q18 0 41.5 -10.5t44.5 -11.5
q13 0 20.5 1.5t14.5 9t7 22.5q0 37 -61 37h-24q-16 0 -26 10.5t-10 28.5q0 38 37 38h27q51 0 51 35q0 34 -38 34q-21 -1 -43.5 -11.5t-40.5 -10.5q-19 0 -30.5 13.5t-11.5 32.5q0 26 25 44q49 34 135 34q169 0 169 -110q0 -27 -18.5 -53.5t-48.5 -38.5v-3q34 -10 53.5 -35.5
t19.5 -60.5zM959 112q0 -21 -12.5 -36t-31.5 -17q-1 -29 -20.5 -48t-47.5 -19q-29 0 -48 18.5t-21 47.5h-144q-31 0 -46.5 16t-15.5 41q0 24 15 52l107 205q19 36 52 36q30 0 49.5 -17t19.5 -43q0 -12 -10 -32l-84 -152h67l4 16q17 66 65 66q27 0 42.5 -19t15.5 -50v-14
q19 -2 31.5 -16.5t12.5 -34.5z" />
    <glyph glyph-name="questiondown" unicode="&#xbf;" horiz-adv-x="537" 
d="M292 521q50 0 80 -28t30 -75q0 -45 -30.5 -73.5t-79.5 -28.5q-51 0 -81 28.5t-30 73.5q0 47 30 75t81 28zM29 -49q0 78 52.5 126t121.5 66v35q0 39 23 64t66 25t67 -24.5t24 -60.5v-44q0 -36 -19.5 -57t-57.5 -36q-32 -12 -47 -19t-29.5 -22t-14.5 -35q0 -24 15.5 -37.5
t58.5 -13.5q47 0 88 19t64 19q33 0 52.5 -21.5t19.5 -51.5q0 -47 -60 -79q-68 -35 -163 -35q-261 0 -261 182z" />
    <glyph glyph-name="Agrave" unicode="&#xc0;" horiz-adv-x="703" 
d="M208 871q-37 30 -37 74q0 36 24 60.5t60 24.5q40 0 73 -42l69 -89q20 -22 20 -56q0 -31 -20.5 -50.5t-49.5 -19.5q-22 0 -53 24zM671 107q16 -45 -7.5 -80t-75.5 -35q-36 0 -54.5 18.5t-31.5 57.5l-23 69h-254l-23 -69q-13 -39 -31.5 -57.5t-54.5 -18.5q-52 0 -75.5 35
t-7.5 80l171 478q28 77 58.5 110t89.5 33t89 -32.5t58 -111.5zM273 283h157l-78 231h-2z" />
    <glyph glyph-name="Aacute" unicode="&#xc1;" horiz-adv-x="703" 
d="M348 773q-29 0 -50 19.5t-21 50.5q0 34 20 56l69 89q33 42 74 42q35 0 59 -24.5t24 -60.5q0 -44 -37 -74l-86 -74q-31 -24 -52 -24zM671 107q16 -45 -7.5 -80t-75.5 -35q-36 0 -54.5 18.5t-31.5 57.5l-23 69h-254l-23 -69q-13 -39 -31.5 -57.5t-54.5 -18.5
q-52 0 -75.5 35t-7.5 80l171 478q28 77 58.5 110t89.5 33t89 -32.5t58 -111.5zM273 283h157l-78 231h-2z" />
    <glyph glyph-name="Acircumflex" unicode="&#xc2;" horiz-adv-x="703" 
d="M226 761q-29 0 -48 20t-19 50q0 31 31 60l40 36q74 64 122 64t122 -64l41 -36q30 -25 30 -60q0 -30 -19.5 -50t-47.5 -20q-23 0 -44 18l-81 71h-2l-81 -71q-21 -18 -44 -18zM671 107q16 -45 -7.5 -80t-75.5 -35q-36 0 -54.5 18.5t-31.5 57.5l-23 69h-254l-23 -69
q-13 -39 -31.5 -57.5t-54.5 -18.5q-52 0 -75.5 35t-7.5 80l171 478q28 77 58.5 110t89.5 33t89 -32.5t58 -111.5zM273 283h157l-78 231h-2z" />
    <glyph glyph-name="Atilde" unicode="&#xc3;" horiz-adv-x="703" 
d="M189 767q-29 0 -45.5 20t-16.5 49q0 53 37.5 90t98.5 37q41 0 73.5 -12.5t53.5 -25t35 -12.5q9 0 15.5 3.5t9.5 7t8.5 11.5t8.5 12q19 19 46 19q30 0 46 -22.5t16 -54.5q0 -46 -32.5 -83t-89.5 -37q-47 0 -100 28t-72 28q-9 0 -15 -1.5t-11 -6t-7 -7t-6 -9.5t-5 -9
q-13 -25 -48 -25zM671 107q16 -45 -7.5 -80t-75.5 -35q-36 0 -54.5 18.5t-31.5 57.5l-23 69h-254l-23 -69q-13 -39 -31.5 -57.5t-54.5 -18.5q-52 0 -75.5 35t-7.5 80l171 478q28 77 58.5 110t89.5 33t89 -32.5t58 -111.5zM273 283h157l-78 231h-2z" />
    <glyph glyph-name="Adieresis" unicode="&#xc4;" horiz-adv-x="703" 
d="M234 779q-47 0 -74.5 26.5t-27.5 69.5q0 41 28 67.5t74 26.5q45 0 72 -26.5t27 -67.5q0 -43 -26.5 -69.5t-72.5 -26.5zM479 779q-47 0 -74.5 26.5t-27.5 69.5q0 41 28 67.5t74 26.5t72.5 -26.5t26.5 -67.5q0 -43 -26.5 -69.5t-72.5 -26.5zM671 107q16 -45 -7.5 -80
t-75.5 -35q-36 0 -54.5 18.5t-31.5 57.5l-23 69h-254l-23 -69q-13 -39 -31.5 -57.5t-54.5 -18.5q-52 0 -75.5 35t-7.5 80l171 478q28 77 58.5 110t89.5 33t89 -32.5t58 -111.5zM273 283h157l-78 231h-2z" />
    <glyph glyph-name="Aring" unicode="&#xc5;" horiz-adv-x="703" 
d="M352 759q-57 0 -94.5 32.5t-37.5 90.5t37.5 91t94.5 33t95 -32.5t38 -91.5q0 -58 -38 -90.5t-95 -32.5zM352 915q-29 0 -29 -33t29 -33q30 0 30 33t-30 33zM671 107q16 -45 -7.5 -80t-75.5 -35q-36 0 -54.5 18.5t-31.5 57.5l-23 69h-254l-23 -69q-13 -39 -31.5 -57.5
t-54.5 -18.5q-52 0 -75.5 35t-7.5 80l171 478q28 77 58.5 110t89.5 33t89 -32.5t58 -111.5zM273 283h157l-78 231h-2z" />
    <glyph glyph-name="AE" unicode="&#xc6;" horiz-adv-x="947" 
d="M831 141q32 0 53 -20.5t21 -54.5t-20 -54t-53 -20h-306q-46 0 -70 24.5t-24 69.5v51h-200l-48 -95q-13 -25 -30.5 -37.5t-50.5 -12.5q-55 0 -78 41.5t-2 84.5l264 510q28 58 54 79t72 21h416q33 0 53.5 -20t20.5 -55q0 -34 -20 -53.5t-52 -19.5h-221l1 -144h188
q33 0 54 -21t21 -56t-20.5 -55t-53.5 -20h-189l1 -143h219zM306 283h126v246h-2z" />
    <glyph glyph-name="Ccedilla" unicode="&#xc7;" horiz-adv-x="656" 
d="M558 171q31 0 50 -22t19 -53q0 -51 -49 -80q-49 -30 -127 -33l-6 -19q4 -1 10.5 -2t23 -9t29.5 -19t23.5 -33t10.5 -50q0 -51 -39.5 -87t-114.5 -36q-46 0 -79 19q-34 20 -34 52q0 25 14.5 39t33.5 14q11 0 25 -5.5t22 -5.5q32 0 32 31q0 29 -42 29q-23 0 -32.5 10
t-2.5 39l11 38l1 4q-136 27 -216 125.5t-80 241.5q0 171 106.5 273.5t285.5 102.5q93 0 148 -33q46 -29 46 -75q0 -35 -20 -57t-53 -22q-18 0 -55 10t-64 10q-92 0 -150 -55.5t-58 -153.5t59.5 -153.5t148.5 -55.5q31 0 67 10.5t56 10.5z" />
    <glyph glyph-name="Egrave" unicode="&#xc8;" horiz-adv-x="592" 
d="M293 988l69 -89q20 -22 20 -56q0 -31 -20.5 -50.5t-49.5 -19.5q-22 0 -53 24l-86 74q-37 30 -37 74q0 36 24 60.5t60 24.5q40 0 73 -42zM477 -8h-306q-46 0 -70 24.5t-24 69.5v548q0 94 94 94h303q33 0 53.5 -20t20.5 -55q0 -34 -19.5 -53.5t-52.5 -19.5h-221l1 -144h188
q34 0 54.5 -21t20.5 -56t-20.5 -55t-53.5 -20h-189l1 -143h219q33 0 53.5 -20t20.5 -55q0 -34 -20 -54t-53 -20z" />
    <glyph glyph-name="Eacute" unicode="&#xc9;" horiz-adv-x="592" 
d="M262 899l69 89q33 42 74 42q35 0 59 -24.5t24 -60.5q0 -44 -37 -74l-86 -74q-31 -24 -52 -24q-29 0 -50 19.5t-21 50.5q0 34 20 56zM477 -8h-306q-46 0 -70 24.5t-24 69.5v548q0 94 94 94h303q33 0 53.5 -20t20.5 -55q0 -34 -19.5 -53.5t-52.5 -19.5h-221l1 -144h188
q34 0 54.5 -21t20.5 -56t-20.5 -55t-53.5 -20h-189l1 -143h219q33 0 53.5 -20t20.5 -55q0 -34 -20 -54t-53 -20z" />
    <glyph glyph-name="Ecircumflex" unicode="&#xca;" horiz-adv-x="592" 
d="M191 761q-29 0 -48 20t-19 50q0 31 31 60l40 36q74 64 122 64t122 -64l41 -36q30 -25 30 -60q0 -30 -19.5 -50t-47.5 -20q-23 0 -44 18l-81 71h-2l-81 -71q-21 -18 -44 -18zM477 -8h-306q-46 0 -70 24.5t-24 69.5v548q0 94 94 94h303q33 0 53.5 -20t20.5 -55
q0 -34 -19.5 -53.5t-52.5 -19.5h-221l1 -144h188q34 0 54.5 -21t20.5 -56t-20.5 -55t-53.5 -20h-189l1 -143h219q33 0 53.5 -20t20.5 -55q0 -34 -20 -54t-53 -20z" />
    <glyph glyph-name="Edieresis" unicode="&#xcb;" horiz-adv-x="592" 
d="M199 779q-47 0 -74.5 26.5t-27.5 69.5q0 41 28 67.5t74 26.5q45 0 72 -26.5t27 -67.5q0 -43 -26.5 -69.5t-72.5 -26.5zM444 779q-47 0 -74.5 26.5t-27.5 69.5q0 41 28 67.5t74 26.5t72.5 -26.5t26.5 -67.5q0 -43 -26.5 -69.5t-72.5 -26.5zM477 -8h-306q-46 0 -70 24.5
t-24 69.5v548q0 94 94 94h303q33 0 53.5 -20t20.5 -55q0 -34 -19.5 -53.5t-52.5 -19.5h-221l1 -144h188q34 0 54.5 -21t20.5 -56t-20.5 -55t-53.5 -20h-189l1 -143h219q33 0 53.5 -20t20.5 -55q0 -34 -20 -54t-53 -20z" />
    <glyph glyph-name="Igrave" unicode="&#xcc;" horiz-adv-x="334" 
d="M146 988l68 -89q21 -23 21 -56q0 -31 -21 -50.5t-50 -19.5q-22 0 -52 24l-86 74q-37 30 -37 74q0 36 24 60.5t59 24.5q41 0 74 -42zM168 -8q-44 0 -67.5 26t-23.5 68v549q0 42 23.5 67.5t67.5 25.5q43 0 66 -26t23 -67v-549q0 -41 -23 -67.5t-66 -26.5z" />
    <glyph glyph-name="Iacute" unicode="&#xcd;" horiz-adv-x="334" 
d="M115 899l69 89q33 42 73 42q35 0 59.5 -24.5t24.5 -60.5q0 -42 -37 -74l-86 -74q-31 -24 -53 -24q-29 0 -50 19.5t-21 50.5q0 33 21 56zM168 -8q-44 0 -67.5 26t-23.5 68v549q0 42 23.5 67.5t67.5 25.5q43 0 66 -26t23 -67v-549q0 -41 -23 -67.5t-66 -26.5z" />
    <glyph glyph-name="Icircumflex" unicode="&#xce;" horiz-adv-x="334" 
d="M43 761q-28 0 -47.5 20t-19.5 50q0 31 31 60l40 36q74 64 123 64q48 0 122 -64l41 -36q30 -25 30 -60q0 -30 -19.5 -50t-47.5 -20q-24 0 -45 18l-80 71h-2l-81 -71q-21 -18 -45 -18zM168 -8q-44 0 -67.5 26t-23.5 68v549q0 42 23.5 67.5t67.5 25.5q43 0 66 -26t23 -67
v-549q0 -41 -23 -67.5t-66 -26.5z" />
    <glyph glyph-name="Idieresis" unicode="&#xcf;" horiz-adv-x="334" 
d="M52 779q-47 0 -74.5 26.5t-27.5 69.5q0 41 28 67.5t74 26.5q45 0 72 -26.5t27 -67.5q0 -43 -26.5 -69.5t-72.5 -26.5zM297 779q-47 0 -74.5 26.5t-27.5 69.5q0 41 28 67.5t74 26.5q45 0 72 -26.5t27 -67.5q0 -43 -26.5 -69.5t-72.5 -26.5zM168 -8q-44 0 -67.5 26
t-23.5 68v549q0 42 23.5 67.5t67.5 25.5q43 0 66 -26t23 -67v-549q0 -41 -23 -67.5t-66 -26.5z" />
    <glyph glyph-name="Eth" unicode="&#xd0;" horiz-adv-x="803" 
d="M375 728q186 0 286 -98t100 -270q0 -173 -100 -270.5t-286 -97.5h-175q-46 0 -70 24.5t-24 69.5v200h-11q-35 0 -54.5 19.5t-19.5 54.5q0 34 19.5 53.5t54.5 19.5h11v201q0 94 94 94h175zM379 150q95 0 145.5 54t50.5 156q0 103 -51 156.5t-145 53.5h-93v-137h49
q35 0 54.5 -19.5t19.5 -53.5q0 -35 -19.5 -54.5t-54.5 -19.5h-49v-136h93z" />
    <glyph glyph-name="Ntilde" unicode="&#xd1;" horiz-adv-x="793" 
d="M310 963q40 0 72.5 -12.5t54 -25t35.5 -12.5q9 0 15.5 3.5t9.5 7t8.5 11.5t8.5 12q19 19 46 19q30 0 46 -22.5t16 -54.5q0 -46 -32.5 -83t-89.5 -37q-47 0 -100 28t-72 28q-7 0 -13 -1.5t-9.5 -3t-7.5 -6.5t-5 -6t-5 -8t-4 -8q-13 -25 -48 -25q-29 0 -45.5 20t-16.5 49
q0 53 37.5 90t98.5 37zM168 -8q-44 0 -67.5 26t-23.5 68v540q0 49 24 75.5t65 26.5q36 0 60.5 -20.5t69.5 -83.5l240 -337h2l-2 348q0 41 23.5 67t67.5 26q43 0 66 -25.5t23 -67.5v-541q0 -49 -24 -75.5t-67 -26.5q-39 0 -70 27t-88 106l-210 295h-2l2 -334q0 -41 -23 -67.5
t-66 -26.5z" />
    <glyph glyph-name="Ograve" unicode="&#xd2;" horiz-adv-x="837" 
d="M395 1003l69 -89q20 -22 20 -56q0 -31 -21 -50.5t-50 -19.5q-22 0 -52 24l-86 74q-37 30 -37 74q0 36 24 60.5t59 24.5q41 0 74 -42zM419 -16q-174 0 -275.5 105.5t-101.5 269.5t102 270t275 106t275 -106t102 -270q0 -165 -101 -270t-276 -105zM419 146q90 0 140 56.5
t50 156.5q0 101 -51 158t-141 57q-87 0 -138 -57.5t-51 -157.5q0 -99 51.5 -156t139.5 -57z" />
    <glyph glyph-name="Oacute" unicode="&#xd3;" horiz-adv-x="837" 
d="M364 914l69 89q33 42 73 42q36 0 60 -24.5t24 -60.5q0 -44 -37 -74l-86 -74q-31 -24 -53 -24q-29 0 -50 19.5t-21 50.5q0 33 21 56zM419 -16q-174 0 -275.5 105.5t-101.5 269.5t102 270t275 106t275 -106t102 -270q0 -165 -101 -270t-276 -105zM419 146q90 0 140 56.5
t50 156.5q0 101 -51 158t-141 57q-87 0 -138 -57.5t-51 -157.5q0 -99 51.5 -156t139.5 -57z" />
    <glyph glyph-name="Ocircumflex" unicode="&#xd4;" horiz-adv-x="837" 
d="M292 776q-28 0 -47 20t-19 50q0 31 31 60l39 36q74 64 123 64q48 0 122 -64l41 -36q30 -25 30 -60q0 -30 -19.5 -50t-47.5 -20q-23 0 -45 18l-80 71h-2l-81 -71q-21 -18 -45 -18zM419 -16q-174 0 -275.5 105.5t-101.5 269.5t102 270t275 106t275 -106t102 -270
q0 -165 -101 -270t-276 -105zM419 146q90 0 140 56.5t50 156.5q0 101 -51 158t-141 57q-87 0 -138 -57.5t-51 -157.5q0 -99 51.5 -156t139.5 -57z" />
    <glyph glyph-name="Otilde" unicode="&#xd5;" horiz-adv-x="837" 
d="M330 978q40 0 72.5 -12.5t54 -25t35.5 -12.5q8 0 15 3.5t10 7t8.5 11.5t8.5 12q19 19 46 19q30 0 46 -22.5t16 -54.5q0 -46 -32.5 -83t-89.5 -37q-48 0 -100.5 28t-71.5 28q-7 0 -13 -1.5t-9.5 -3t-7.5 -6.5t-5 -6t-5 -8t-4 -8q-13 -25 -48 -25q-29 0 -45.5 20t-16.5 49
q0 53 37.5 90t98.5 37zM419 -16q-174 0 -275.5 105.5t-101.5 269.5t102 270t275 106t275 -106t102 -270q0 -165 -101 -270t-276 -105zM419 146q90 0 140 56.5t50 156.5q0 101 -51 158t-141 57q-87 0 -138 -57.5t-51 -157.5q0 -99 51.5 -156t139.5 -57z" />
    <glyph glyph-name="Odieresis" unicode="&#xd6;" horiz-adv-x="837" 
d="M301 794q-47 0 -74.5 26.5t-27.5 69.5q0 41 28 67.5t74 26.5q45 0 72 -26.5t27 -67.5q0 -43 -26.5 -69.5t-72.5 -26.5zM546 794q-47 0 -74.5 26.5t-27.5 69.5q0 41 28 67.5t74 26.5q45 0 72 -26.5t27 -67.5q0 -43 -26.5 -69.5t-72.5 -26.5zM419 -16q-174 0 -275.5 105.5
t-101.5 269.5t102 270t275 106t275 -106t102 -270q0 -165 -101 -270t-276 -105zM419 146q90 0 140 56.5t50 156.5q0 101 -51 158t-141 57q-87 0 -138 -57.5t-51 -157.5q0 -99 51.5 -156t139.5 -57z" />
    <glyph glyph-name="multiply" unicode="&#xd7;" horiz-adv-x="487" 
d="M128 173q-30 0 -51.5 21t-21.5 50q0 30 21 51l66 66l-65 65q-21 23 -21 51q0 30 21.5 51t50.5 21q31 0 51 -22l65 -65l66 66q21 21 51 21q29 0 50 -21t21 -51q0 -31 -21 -50l-66 -66l66 -65q20 -22 20 -51q0 -30 -21 -51t-51 -21q-29 0 -50 21l-65 65l-66 -65
q-20 -21 -50 -21z" />
    <glyph glyph-name="Oslash" unicode="&#xd8;" horiz-adv-x="870" 
d="M842 670q0 -34 -28 -62l-52 -51q49 -87 49 -198q0 -165 -101 -270t-275 -105q-114 0 -203 49l-46 -46q-29 -28 -62 -28q-35 0 -62.5 27.5t-27.5 64.5q0 35 28 63l45 44q-50 86 -50 201q0 164 102 270t275 106q115 0 205 -52l51 50q27 27 61 27q36 0 63.5 -28t27.5 -62z
M434 146q90 0 140.5 56.5t50.5 156.5q0 101 -51.5 158t-140.5 57q-88 0 -139 -57t-51 -158q0 -99 51.5 -156t139.5 -57z" />
    <glyph glyph-name="Ugrave" unicode="&#xd9;" horiz-adv-x="777" 
d="M365 988l68 -89q21 -23 21 -56q0 -31 -21 -50.5t-50 -19.5q-22 0 -53 24l-86 74q-37 32 -37 74q0 36 24.5 60.5t59.5 24.5q41 0 74 -42zM388 -17q-158 0 -238.5 86.5t-80.5 245.5v320q0 41 23.5 67t66.5 26t66.5 -26t23.5 -67v-336q0 -154 139 -154q71 0 106 40.5
t35 113.5v336q0 41 23.5 67t66.5 26t66.5 -26t23.5 -67v-320q0 -160 -81 -246t-240 -86z" />
    <glyph glyph-name="Uacute" unicode="&#xda;" horiz-adv-x="777" 
d="M334 899l69 89q32 42 73 42q35 0 59.5 -24.5t24.5 -60.5q0 -42 -37 -74l-86 -74q-31 -24 -53 -24q-29 0 -50 19.5t-21 50.5q0 33 21 56zM388 -17q-158 0 -238.5 86.5t-80.5 245.5v320q0 41 23.5 67t66.5 26t66.5 -26t23.5 -67v-336q0 -154 139 -154q71 0 106 40.5
t35 113.5v336q0 41 23.5 67t66.5 26t66.5 -26t23.5 -67v-320q0 -160 -81 -246t-240 -86z" />
    <glyph glyph-name="Ucircumflex" unicode="&#xdb;" horiz-adv-x="777" 
d="M262 761q-28 0 -47.5 20t-19.5 50q0 31 31 60l40 36q74 64 122 64q49 0 123 -64l41 -36q29 -25 29 -60q0 -30 -19 -50t-47 -20q-24 0 -45 18l-81 71h-2l-80 -71q-23 -18 -45 -18zM388 -17q-158 0 -238.5 86.5t-80.5 245.5v320q0 41 23.5 67t66.5 26t66.5 -26t23.5 -67
v-336q0 -154 139 -154q71 0 106 40.5t35 113.5v336q0 41 23.5 67t66.5 26t66.5 -26t23.5 -67v-320q0 -160 -81 -246t-240 -86z" />
    <glyph glyph-name="Udieresis" unicode="&#xdc;" horiz-adv-x="777" 
d="M271 779q-47 0 -74.5 26.5t-27.5 69.5q0 41 28 67.5t74 26.5q45 0 72 -26.5t27 -67.5q0 -43 -26.5 -69.5t-72.5 -26.5zM516 779q-47 0 -74.5 26.5t-27.5 69.5q0 41 28 67.5t74 26.5q45 0 72 -26.5t27 -67.5q0 -43 -26.5 -69.5t-72.5 -26.5zM388 -17q-158 0 -238.5 86.5
t-80.5 245.5v320q0 41 23.5 67t66.5 26t66.5 -26t23.5 -67v-336q0 -154 139 -154q71 0 106 40.5t35 113.5v336q0 41 23.5 67t66.5 26t66.5 -26t23.5 -67v-320q0 -160 -81 -246t-240 -86z" />
    <glyph glyph-name="Yacute" unicode="&#xdd;" horiz-adv-x="654" 
d="M271 909l69 89q33 41 74 41q35 0 59 -24t24 -61q0 -44 -37 -74l-86 -73q-31 -24 -52 -24q-29 0 -50 19.5t-21 50.5q0 33 20 56zM328 -8q-45 0 -69 27t-24 69v180l-193 325q-15 25 -15 53q0 35 24.5 58.5t62.5 23.5q30 0 47.5 -12.5t36.5 -49.5l128 -230h2l126 231
q19 35 36.5 48t46.5 13q39 0 63 -23t24 -58q0 -27 -14 -53l-190 -326v-180q0 -42 -24 -69t-68 -27z" />
    <glyph glyph-name="Thorn" unicode="&#xde;" horiz-adv-x="684" 
d="M645 360q0 -126 -74.5 -193t-221.5 -67h-93q0 -5 -0.5 -14t-0.5 -14q-4 -36 -26 -58t-61 -22q-44 0 -67.5 26t-23.5 68v549q0 42 23.5 67.5t67.5 25.5q39 0 61 -22t26 -58q0 -5 0.5 -13.5t0.5 -13.5h93q150 0 223 -68t73 -193zM463 360q0 48 -29 75t-87 27h-90v-204h90
q116 0 116 102z" />
    <glyph glyph-name="germandbls" unicode="&#xdf;" horiz-adv-x="688" 
d="M61 86v431q0 125 71 189t199 64q120 0 184.5 -56.5t64.5 -138.5q0 -48 -29 -100.5t-29 -75.5q0 -19 13.5 -35t33 -31.5t39 -34.5t33 -52t13.5 -76q0 -86 -56.5 -135.5t-156.5 -49.5q-63 0 -100 18q-50 27 -50 77q0 33 17 51.5t48 18.5q6 0 26.5 -3.5t36.5 -3.5
q29 0 42.5 13t13.5 42q0 23 -21.5 44.5t-46.5 37t-46.5 45t-21.5 66.5q0 36 32 87t32 77q0 28 -20 44t-55 16q-87 0 -87 -104v-425q0 -42 -23 -68t-66 -26t-67 26.5t-24 67.5z" />
    <glyph glyph-name="agrave" unicode="&#xe0;" horiz-adv-x="604" 
d="M270 790l69 -89q21 -23 21 -56q0 -31 -21 -50.5t-50 -19.5q-22 0 -53 24l-86 73q-37 32 -37 75q0 36 24.5 60.5t59.5 24.5q40 0 73 -42zM208 -17q-87 0 -134 40.5t-47 117.5q0 80 57 123.5t144 43.5q74 0 131 -30q0 53 -30 72.5t-85 19.5q-15 0 -70 -10q-37 -7 -42 -7
q-30 0 -46.5 17.5t-16.5 48.5q0 55 64 80q54 23 141 23q63 0 110 -16.5t73.5 -42.5t43 -64.5t22 -75.5t5.5 -84v-43q0 -28 4 -37t18 -19q36 -27 36 -68q0 -40 -26.5 -64.5t-72.5 -24.5q-48 0 -76 27t-33 54h-2q-65 -81 -168 -81zM262 109q35 0 64 23t33 55q-33 21 -78 21
q-36 0 -57.5 -14t-21.5 -38q0 -47 60 -47z" />
    <glyph glyph-name="aacute" unicode="&#xe1;" horiz-adv-x="604" 
d="M240 701l68 89q33 42 74 42q35 0 59 -24.5t24 -60.5q0 -45 -37 -75l-86 -73q-30 -24 -52 -24q-29 0 -50 19.5t-21 50.5q0 33 21 56zM208 -17q-87 0 -134 40.5t-47 117.5q0 80 57 123.5t144 43.5q74 0 131 -30q0 53 -30 72.5t-85 19.5q-15 0 -70 -10q-37 -7 -42 -7
q-30 0 -46.5 17.5t-16.5 48.5q0 55 64 80q54 23 141 23q63 0 110 -16.5t73.5 -42.5t43 -64.5t22 -75.5t5.5 -84v-43q0 -28 4 -37t18 -19q36 -27 36 -68q0 -40 -26.5 -64.5t-72.5 -24.5q-48 0 -76 27t-33 54h-2q-65 -81 -168 -81zM262 109q35 0 64 23t33 55q-33 21 -78 21
q-36 0 -57.5 -14t-21.5 -38q0 -47 60 -47z" />
    <glyph glyph-name="acircumflex" unicode="&#xe2;" horiz-adv-x="604" 
d="M168 563q-28 0 -47.5 20t-19.5 50q0 31 31 60l40 36q74 64 122 64t122 -64l42 -36q29 -26 29 -60q0 -30 -19 -50t-48 -20q-23 0 -44 18l-81 71h-2l-80 -71q-23 -18 -45 -18zM208 -17q-87 0 -134 40.5t-47 117.5q0 80 57 123.5t144 43.5q74 0 131 -30q0 53 -30 72.5
t-85 19.5q-15 0 -70 -10q-37 -7 -42 -7q-30 0 -46.5 17.5t-16.5 48.5q0 55 64 80q54 23 141 23q63 0 110 -16.5t73.5 -42.5t43 -64.5t22 -75.5t5.5 -84v-43q0 -28 4 -37t18 -19q36 -27 36 -68q0 -40 -26.5 -64.5t-72.5 -24.5q-48 0 -76 27t-33 54h-2q-65 -81 -168 -81z
M262 109q35 0 64 23t33 55q-33 21 -78 21q-36 0 -57.5 -14t-21.5 -38q0 -47 60 -47z" />
    <glyph glyph-name="atilde" unicode="&#xe3;" horiz-adv-x="604" 
d="M206 765q40 0 72.5 -12.5t54 -25t35.5 -12.5q11 0 17 3.5t14.5 15t10.5 14.5q16 20 45 20q30 0 46 -22.5t16 -54.5q0 -46 -32 -83t-89 -37q-48 0 -101 28t-71 28q-7 0 -13.5 -1.5t-10 -3t-7 -6t-5 -6.5t-4.5 -8l-4 -8q-15 -25 -48 -25q-30 0 -46.5 20t-16.5 49
q0 53 38 90t99 37zM208 -17q-87 0 -134 40.5t-47 117.5q0 80 57 123.5t144 43.5q74 0 131 -30q0 53 -30 72.5t-85 19.5q-15 0 -70 -10q-37 -7 -42 -7q-30 0 -46.5 17.5t-16.5 48.5q0 55 64 80q54 23 141 23q63 0 110 -16.5t73.5 -42.5t43 -64.5t22 -75.5t5.5 -84v-43
q0 -28 4 -37t18 -19q36 -27 36 -68q0 -40 -26.5 -64.5t-72.5 -24.5q-48 0 -76 27t-33 54h-2q-65 -81 -168 -81zM262 109q35 0 64 23t33 55q-33 21 -78 21q-36 0 -57.5 -14t-21.5 -38q0 -47 60 -47z" />
    <glyph glyph-name="adieresis" unicode="&#xe4;" horiz-adv-x="604" 
d="M176 581q-47 0 -74 26.5t-27 69.5q0 41 27.5 67.5t73.5 26.5q45 0 72 -26.5t27 -67.5q0 -43 -26 -69.5t-73 -26.5zM421 581q-47 0 -74 26.5t-27 69.5q0 41 27.5 67.5t73.5 26.5t73 -26.5t27 -67.5q0 -43 -26.5 -69.5t-73.5 -26.5zM208 -17q-87 0 -134 40.5t-47 117.5
q0 80 57 123.5t144 43.5q74 0 131 -30q0 53 -30 72.5t-85 19.5q-15 0 -70 -10q-37 -7 -42 -7q-30 0 -46.5 17.5t-16.5 48.5q0 55 64 80q54 23 141 23q63 0 110 -16.5t73.5 -42.5t43 -64.5t22 -75.5t5.5 -84v-43q0 -28 4 -37t18 -19q36 -27 36 -68q0 -40 -26.5 -64.5
t-72.5 -24.5q-48 0 -76 27t-33 54h-2q-65 -81 -168 -81zM262 109q35 0 64 23t33 55q-33 21 -78 21q-36 0 -57.5 -14t-21.5 -38q0 -47 60 -47z" />
    <glyph glyph-name="aring" unicode="&#xe5;" horiz-adv-x="604" 
d="M294 561q-57 0 -94 32.5t-37 90.5q0 59 37 91.5t94 32.5t95 -32.5t38 -91.5q0 -58 -38 -90.5t-95 -32.5zM294 651q30 0 30 33t-30 33q-29 0 -29 -33t29 -33zM208 -17q-87 0 -134 40.5t-47 117.5q0 80 57 123.5t144 43.5q74 0 131 -30q0 53 -30 72.5t-85 19.5
q-15 0 -70 -10q-37 -7 -42 -7q-30 0 -46.5 17.5t-16.5 48.5q0 55 64 80q54 23 141 23q63 0 110 -16.5t73.5 -42.5t43 -64.5t22 -75.5t5.5 -84v-43q0 -28 4 -37t18 -19q36 -27 36 -68q0 -40 -26.5 -64.5t-72.5 -24.5q-48 0 -76 27t-33 54h-2q-65 -81 -168 -81zM262 109
q35 0 64 23t33 55q-33 21 -78 21q-36 0 -57.5 -14t-21.5 -38q0 -47 60 -47z" />
    <glyph glyph-name="ae" unicode="&#xe6;" horiz-adv-x="906" 
d="M870 291q0 -43 -19.5 -63.5t-67.5 -20.5h-243q0 -30 31 -52t93 -22q31 0 66.5 10t53.5 10q30 0 48 -19t18 -46q0 -48 -43 -73q-51 -32 -148 -32q-155 0 -232 85q-30 -33 -86 -58.5t-120 -25.5q-90 0 -142 40.5t-52 116.5q0 80 57 123.5t144 43.5q74 0 131 -30
q0 53 -30 72.5t-85 19.5q-15 0 -70 -10q-37 -7 -42 -7q-30 0 -46.5 17.5t-16.5 48.5q0 55 64 80q54 23 141 23q122 0 180 -58q71 58 172 58q118 0 181 -65t63 -166zM703 303q1 3 1 12q0 30 -20 50t-60 20q-37 0 -62 -23t-25 -59h166zM262 109q35 0 64 23t33 55
q-33 21 -78 21q-36 0 -57.5 -14t-21.5 -38q0 -47 60 -47z" />
    <glyph glyph-name="ccedilla" unicode="&#xe7;" horiz-adv-x="522" 
d="M427 155q30 0 48 -19.5t18 -46.5q0 -47 -44 -74q-31 -20 -84 -28l-5 -16q4 -1 10.5 -2t23 -9t29.5 -19t23.5 -33t10.5 -50q0 -51 -39.5 -87t-114.5 -36q-48 0 -79 19q-34 19 -34 52q0 25 14.5 39t33.5 14q11 0 25.5 -5.5t21.5 -5.5q31 0 31 31q0 29 -41 29
q-23 0 -32.5 10t-2.5 38l9 33q-101 17 -157 88.5t-56 175.5q0 122 76.5 195.5t204.5 73.5q88 0 135 -31q41 -28 41 -74q0 -28 -18 -47.5t-48 -19.5q-19 0 -48 10.5t-56 10.5q-51 0 -80 -33.5t-29 -85.5q0 -51 29 -84.5t80 -33.5q27 0 56 10.5t48 10.5z" />
    <glyph glyph-name="egrave" unicode="&#xe8;" horiz-adv-x="580" 
d="M276 790l69 -89q21 -23 21 -56q0 -31 -21 -50.5t-50 -19.5q-22 0 -53 24l-86 73q-37 30 -37 75q0 36 24 60.5t60 24.5q40 0 73 -42zM332 -17q-144 0 -220 73.5t-76 199.5q0 118 74 192t190 74q117 0 180.5 -65t63.5 -166q0 -43 -20 -63.5t-68 -20.5h-242q0 -30 31 -52
t93 -22q30 0 66 10t54 10q30 0 48 -19t18 -46q0 -47 -44 -73q-50 -32 -148 -32zM211 303h166q1 3 1 12q0 29 -20 49.5t-60 20.5q-37 0 -62 -23t-25 -59z" />
    <glyph glyph-name="eacute" unicode="&#xe9;" horiz-adv-x="580" 
d="M245 701l69 89q33 42 74 42q35 0 59 -24.5t24 -60.5q0 -45 -37 -75l-86 -73q-31 -24 -52 -24q-29 0 -50 19.5t-21 50.5q0 34 20 56zM332 -17q-144 0 -220 73.5t-76 199.5q0 118 74 192t190 74q117 0 180.5 -65t63.5 -166q0 -43 -20 -63.5t-68 -20.5h-242q0 -30 31 -52
t93 -22q30 0 66 10t54 10q30 0 48 -19t18 -46q0 -47 -44 -73q-50 -32 -148 -32zM211 303h166q1 3 1 12q0 29 -20 49.5t-60 20.5q-37 0 -62 -23t-25 -59z" />
    <glyph glyph-name="ecircumflex" unicode="&#xea;" horiz-adv-x="580" 
d="M174 563q-29 0 -48 20t-19 50q0 31 31 60l40 36q74 64 122 64t122 -64l41 -36q30 -27 30 -60q0 -30 -19.5 -50t-47.5 -20q-23 0 -44 18l-81 71h-2l-81 -71q-21 -18 -44 -18zM332 -17q-144 0 -220 73.5t-76 199.5q0 118 74 192t190 74q117 0 180.5 -65t63.5 -166
q0 -43 -20 -63.5t-68 -20.5h-242q0 -30 31 -52t93 -22q30 0 66 10t54 10q30 0 48 -19t18 -46q0 -47 -44 -73q-50 -32 -148 -32zM211 303h166q1 3 1 12q0 29 -20 49.5t-60 20.5q-37 0 -62 -23t-25 -59z" />
    <glyph glyph-name="edieresis" unicode="&#xeb;" horiz-adv-x="580" 
d="M182 581q-47 0 -74.5 26.5t-27.5 69.5q0 41 28 67.5t74 26.5q45 0 72 -26.5t27 -67.5q0 -43 -26.5 -69.5t-72.5 -26.5zM427 581q-47 0 -74.5 26.5t-27.5 69.5q0 41 28 67.5t74 26.5q45 0 72 -26.5t27 -67.5q0 -43 -26.5 -69.5t-72.5 -26.5zM332 -17q-144 0 -220 73.5
t-76 199.5q0 118 74 192t190 74q117 0 180.5 -65t63.5 -166q0 -43 -20 -63.5t-68 -20.5h-242q0 -30 31 -52t93 -22q30 0 66 10t54 10q30 0 48 -19t18 -46q0 -47 -44 -73q-50 -32 -148 -32zM211 303h166q1 3 1 12q0 29 -20 49.5t-60 20.5q-37 0 -62 -23t-25 -59z" />
    <glyph glyph-name="igrave" unicode="&#xec;" horiz-adv-x="298" 
d="M126 781l69 -89q20 -22 20 -56q0 -30 -20.5 -49.5t-49.5 -19.5q-22 0 -53 24l-86 73q-37 30 -37 74q0 36 24 60.5t59 24.5q41 0 74 -42zM150 -8q-43 0 -67 26.5t-24 67.5v335q0 41 23.5 67t67.5 26q43 0 66 -25.5t23 -67.5v-335q0 -42 -23 -68t-66 -26z" />
    <glyph glyph-name="iacute" unicode="&#xed;" horiz-adv-x="298" 
d="M95 692l69 89q33 42 74 42q35 0 59 -24.5t24 -60.5q0 -44 -37 -74l-86 -73q-31 -24 -53 -24q-29 0 -49.5 19.5t-20.5 49.5q0 34 20 56zM150 -8q-43 0 -67 26.5t-24 67.5v335q0 41 23.5 67t67.5 26q43 0 66 -25.5t23 -67.5v-335q0 -42 -23 -68t-66 -26z" />
    <glyph glyph-name="icircumflex" unicode="&#xee;" horiz-adv-x="298" 
d="M24 555q-29 0 -48 19.5t-19 49.5q0 31 31 60l40 36q74 64 122 64q50 0 122 -64l41 -36q30 -26 30 -60q0 -30 -19.5 -49.5t-47.5 -19.5q-24 0 -45 18l-80 70h-2l-81 -70q-19 -18 -44 -18zM150 -8q-43 0 -67 26.5t-24 67.5v335q0 41 23.5 67t67.5 26q43 0 66 -25.5
t23 -67.5v-335q0 -42 -23 -68t-66 -26z" />
    <glyph glyph-name="idieresis" unicode="&#xef;" horiz-adv-x="298" 
d="M32 572q-47 0 -74.5 26.5t-27.5 69.5q0 41 28 68t74 27q45 0 72 -27t27 -68q0 -43 -26.5 -69.5t-72.5 -26.5zM277 572q-47 0 -74.5 26.5t-27.5 69.5q0 41 28 68t74 27q45 0 72 -26.5t27 -68.5q0 -43 -26.5 -69.5t-72.5 -26.5zM150 -8q-43 0 -67 26.5t-24 67.5v335
q0 41 23.5 67t67.5 26q43 0 66 -25.5t23 -67.5v-335q0 -42 -23 -68t-66 -26z" />
    <glyph glyph-name="eth" unicode="&#xf0;" horiz-adv-x="645" 
d="M413 699q91 -59 139 -160t48 -234q0 -148 -76 -234t-206 -86t-205.5 73t-75.5 195q0 114 67.5 182t164.5 68q45 0 82.5 -15t50.5 -27t21 -22h2q1 90 -94 147l-19 -26q-25 -35 -65 -28q-35 7 -51.5 37.5t7.5 67.5l2 3q-42 19 -42 57q0 34 21 54t52 18q30 -2 55 -10l18 25
q25 36 60 28q37 -7 54.5 -37.5t-5.5 -67.5zM318 139q46 0 73 30t27 84q0 52 -27 83t-74 31q-45 0 -72.5 -29.5t-27.5 -84.5t28 -84.5t73 -29.5z" />
    <glyph glyph-name="ntilde" unicode="&#xf1;" 
d="M239 763q40 0 72.5 -12.5t54 -25t35.5 -12.5q11 0 17.5 4t14 15.5t10.5 14.5q17 19 45 19q31 0 47 -22t16 -55q0 -46 -32.5 -83t-89.5 -37q-48 0 -100.5 28t-71.5 28q-9 0 -15.5 -1.5t-11 -6l-6.5 -6.5t-6 -9.5t-5 -8.5q-16 -26 -48 -26q-29 0 -45.5 20t-16.5 49
q0 53 37.5 90t98.5 37zM150 -8q-43 0 -66.5 26t-23.5 68v353q0 34 18.5 54.5t53.5 20.5q34 0 53.5 -19.5t20.5 -51.5v-13h2q20 42 67 67t100 25q208 0 208 -259v-177q0 -42 -23 -68t-66 -26t-67 26.5t-24 67.5v170q0 106 -75 106q-42 0 -65 -29t-23 -77l-1 -170
q0 -42 -23 -68t-66 -26z" />
    <glyph glyph-name="ograve" unicode="&#xf2;" horiz-adv-x="634" 
d="M293 789l69 -89q21 -23 21 -56q0 -31 -21 -50.5t-50 -19.5q-22 0 -53 24l-86 73q-37 30 -37 75q0 36 24 60.5t60 24.5q40 0 73 -42zM317 -17q-130 0 -205.5 74t-75.5 196q0 124 76 196.5t205 72.5q128 0 204.5 -72.5t76.5 -196.5q0 -122 -75.5 -196t-205.5 -74zM317 137
q46 0 73 31t27 85q0 53 -27.5 84t-73.5 31q-45 0 -72.5 -30t-27.5 -85t28 -85.5t73 -30.5z" />
    <glyph glyph-name="oacute" unicode="&#xf3;" horiz-adv-x="634" 
d="M262 700l69 89q33 42 74 42q35 0 59 -24.5t24 -60.5q0 -45 -37 -75l-86 -73q-30 -24 -52 -24q-29 0 -50 19.5t-21 50.5q0 34 20 56zM317 -17q-130 0 -205.5 74t-75.5 196q0 124 76 196.5t205 72.5q128 0 204.5 -72.5t76.5 -196.5q0 -122 -75.5 -196t-205.5 -74zM317 137
q46 0 73 31t27 85q0 53 -27.5 84t-73.5 31q-45 0 -72.5 -30t-27.5 -85t28 -85.5t73 -30.5z" />
    <glyph glyph-name="ocircumflex" unicode="&#xf4;" horiz-adv-x="634" 
d="M191 562q-28 0 -47.5 20t-19.5 50q0 31 31 60l40 36q74 64 122 64t122 -64l42 -36q29 -27 29 -60q0 -30 -19 -50t-48 -20q-23 0 -44 18l-81 71h-2l-81 -71q-21 -18 -44 -18zM317 -17q-130 0 -205.5 74t-75.5 196q0 124 76 196.5t205 72.5q128 0 204.5 -72.5t76.5 -196.5
q0 -122 -75.5 -196t-205.5 -74zM317 137q46 0 73 31t27 85q0 53 -27.5 84t-73.5 31q-45 0 -72.5 -30t-27.5 -85t28 -85.5t73 -30.5z" />
    <glyph glyph-name="otilde" unicode="&#xf5;" horiz-adv-x="634" 
d="M228 764q41 0 73.5 -12.5t54 -25t34.5 -12.5q9 0 15.5 3.5t9.5 7t8.5 11t8.5 11.5q18 20 46 20q30 0 46 -22.5t16 -54.5q0 -46 -32.5 -83t-89.5 -37q-47 0 -100 28t-72 28q-9 0 -15 -1.5t-11 -6t-7 -7t-6 -9.5t-5 -9q-13 -25 -48 -25q-29 0 -45.5 20t-16.5 49
q0 53 37.5 90t98.5 37zM317 -17q-130 0 -205.5 74t-75.5 196q0 124 76 196.5t205 72.5q128 0 204.5 -72.5t76.5 -196.5q0 -122 -75.5 -196t-205.5 -74zM317 137q46 0 73 31t27 85q0 53 -27.5 84t-73.5 31q-45 0 -72.5 -30t-27.5 -85t28 -85.5t73 -30.5z" />
    <glyph glyph-name="odieresis" unicode="&#xf6;" horiz-adv-x="634" 
d="M199 580q-47 0 -74.5 26.5t-27.5 69.5q0 41 28 67.5t74 26.5q45 0 72 -26.5t27 -67.5q0 -43 -26.5 -69.5t-72.5 -26.5zM444 580q-47 0 -74.5 26.5t-27.5 69.5q0 41 28 67.5t74 26.5q45 0 72 -26.5t27 -67.5q0 -43 -26.5 -69.5t-72.5 -26.5zM317 -17q-130 0 -205.5 74
t-75.5 196q0 124 76 196.5t205 72.5q128 0 204.5 -72.5t76.5 -196.5q0 -122 -75.5 -196t-205.5 -74zM317 137q46 0 73 31t27 85q0 53 -27.5 84t-73.5 31q-45 0 -72.5 -30t-27.5 -85t28 -85.5t73 -30.5z" />
    <glyph glyph-name="divide" unicode="&#xf7;" horiz-adv-x="491" 
d="M245 479q-47 0 -75 26.5t-28 70.5q0 42 28.5 69t74.5 27t74.5 -27t28.5 -69q0 -44 -27.5 -70.5t-75.5 -26.5zM391 294h-290q-30 0 -48 18.5t-18 47.5q0 30 18 48.5t48 18.5h290q31 0 49 -18.5t18 -48.5q0 -29 -18 -47.5t-49 -18.5zM245 48q-46 0 -74.5 27.5t-28.5 69.5
q0 44 28 69.5t75 25.5t75 -25.5t28 -69.5q0 -43 -28 -70t-75 -27z" />
    <glyph glyph-name="oslash" unicode="&#xf8;" horiz-adv-x="645" 
d="M586 411l-16 -16q34 -62 34 -142q0 -122 -75.5 -196t-205.5 -74q-79 0 -140 29l-20 -20q-38 -36 -83 -16t-45 68q0 30 23 52l17 16q-34 62 -34 141q0 124 76 196.5t206 72.5q76 0 137 -28l22 22q38 34 82.5 13.5t44.5 -67.5q0 -29 -23 -51zM323 137q46 0 73 31t27 85
q0 53 -27.5 84t-74.5 31q-45 0 -72 -30t-27 -85t28 -85.5t73 -30.5z" />
    <glyph glyph-name="ugrave" unicode="&#xf9;" 
d="M298 781l69 -89q20 -22 20 -56q0 -30 -21 -49.5t-50 -19.5q-22 0 -52 24l-86 73q-37 30 -37 74q0 36 24 60.5t59 24.5q41 0 74 -42zM262 -17q-208 0 -208 262v176q0 41 23.5 67t66.5 26t66.5 -26t23.5 -67v-169q0 -108 75 -108q41 0 64.5 29t22.5 77l1 171q0 41 23.5 67
t66.5 26t66.5 -26t23.5 -67v-354q0 -33 -19 -54t-54 -21q-34 0 -53.5 20t-20.5 51v14h-2q-20 -42 -66.5 -68t-99.5 -26z" />
    <glyph glyph-name="uacute" unicode="&#xfa;" 
d="M254 692l68 89q33 42 74 42q35 0 59 -24.5t24 -60.5q0 -43 -36 -74l-87 -73q-30 -24 -52 -24q-29 0 -50 19.5t-21 49.5q0 33 21 56zM262 -17q-208 0 -208 262v176q0 41 23.5 67t66.5 26t66.5 -26t23.5 -67v-169q0 -108 75 -108q41 0 64.5 29t22.5 77l1 171q0 41 23.5 67
t66.5 26t66.5 -26t23.5 -67v-354q0 -33 -19 -54t-54 -21q-34 0 -53.5 20t-20.5 51v14h-2q-20 -42 -66.5 -68t-99.5 -26z" />
    <glyph glyph-name="ucircumflex" unicode="&#xfb;" 
d="M182 555q-28 0 -47.5 19.5t-19.5 49.5q0 31 31 60l40 36q74 64 122 64q52 0 122 -64l42 -36q29 -25 29 -60q0 -30 -19 -49.5t-48 -19.5q-25 0 -44 18l-81 70h-2l-80 -70q-21 -18 -45 -18zM262 -17q-208 0 -208 262v176q0 41 23.5 67t66.5 26t66.5 -26t23.5 -67v-169
q0 -108 75 -108q41 0 64.5 29t22.5 77l1 171q0 41 23.5 67t66.5 26t66.5 -26t23.5 -67v-354q0 -33 -19 -54t-54 -21q-34 0 -53.5 20t-20.5 51v14h-2q-20 -42 -66.5 -68t-99.5 -26z" />
    <glyph glyph-name="udieresis" unicode="&#xfc;" 
d="M197 572q-47 0 -74.5 26.5t-27.5 69.5q0 41 28 68t74 27q45 0 72 -27t27 -68q0 -43 -26.5 -69.5t-72.5 -26.5zM442 572q-47 0 -74.5 26.5t-27.5 69.5q0 41 28 68t74 27t72.5 -26.5t26.5 -68.5q0 -43 -26.5 -69.5t-72.5 -26.5zM262 -17q-208 0 -208 262v176q0 41 23.5 67
t66.5 26t66.5 -26t23.5 -67v-169q0 -108 75 -108q41 0 64.5 29t22.5 77l1 171q0 41 23.5 67t66.5 26t66.5 -26t23.5 -67v-354q0 -33 -19 -54t-54 -21q-34 0 -53.5 20t-20.5 51v14h-2q-20 -42 -66.5 -68t-99.5 -26z" />
    <glyph glyph-name="yacute" unicode="&#xfd;" horiz-adv-x="572" 
d="M233 686l69 89q33 42 73 42q36 0 60 -24.5t24 -60.5q0 -45 -37 -75l-86 -73q-31 -24 -53 -24q-29 0 -50 19.5t-21 50.5q0 33 21 56zM149 -230q-41 0 -66 13q-44 24 -44 74q0 30 19 48.5t49 18.5h16q30 0 47 13t27 43l-162 414q-18 44 7.5 82t76.5 38q38 0 56 -19.5
t27 -54.5l87 -305h3l80 293q8 39 27.5 62.5t60.5 23.5q53 0 75 -34.5t3 -84.5l-146 -388q-50 -133 -105.5 -185t-137.5 -52z" />
    <glyph glyph-name="thorn" unicode="&#xfe;" horiz-adv-x="642" 
d="M154 -215q-43 0 -66.5 26t-23.5 67v787q0 42 23.5 68t66.5 26t66 -26t23 -68l1 -186h2q39 46 122 46q105 0 171 -75t66 -194q0 -117 -64.5 -194.5t-169.5 -77.5q-39 0 -73.5 12.5t-52.5 33.5h-2v-152q0 -42 -23 -67.5t-66 -25.5zM327 369q-44 0 -68.5 -30.5t-23.5 -86.5
q0 -56 24.5 -85.5t67.5 -29.5q42 0 68 31.5t26 84.5t-25.5 84.5t-68.5 31.5z" />
    <glyph glyph-name="ydieresis" unicode="&#xff;" horiz-adv-x="572" 
d="M170 566q-47 0 -74.5 26.5t-27.5 69.5q0 41 28 67.5t74 26.5q45 0 72 -26.5t27 -67.5q0 -43 -26.5 -69.5t-72.5 -26.5zM415 566q-47 0 -74.5 26.5t-27.5 69.5q0 41 28 67.5t74 26.5q45 0 72 -26.5t27 -67.5q0 -43 -26.5 -69.5t-72.5 -26.5zM149 -230q-41 0 -66 13
q-44 24 -44 74q0 30 19 48.5t49 18.5h16q30 0 47 13t27 43l-162 414q-18 44 7.5 82t76.5 38q38 0 56 -19.5t27 -54.5l87 -305h3l80 293q8 39 27.5 62.5t60.5 23.5q53 0 75 -34.5t3 -84.5l-146 -388q-50 -133 -105.5 -185t-137.5 -52z" />
    <glyph glyph-name="Amacron" unicode="&#x100;" horiz-adv-x="703" 
d="M235 808q-29 0 -49.5 21t-20.5 50t20.5 49.5t49.5 20.5h247q28 0 48.5 -21t20.5 -50t-20.5 -49.5t-48.5 -20.5h-247zM671 107q16 -45 -7.5 -80t-75.5 -35q-36 0 -54.5 18.5t-31.5 57.5l-23 69h-254l-23 -69q-13 -39 -31.5 -57.5t-54.5 -18.5q-52 0 -75.5 35t-7.5 80
l171 478q28 77 58.5 110t89.5 33t89 -32.5t58 -111.5zM273 283h157l-78 231h-2z" />
    <glyph glyph-name="amacron" unicode="&#x101;" horiz-adv-x="604" 
d="M424 610h-247q-29 0 -49.5 21t-20.5 50t20.5 49.5t49.5 20.5h247q29 0 49.5 -21t20.5 -50q0 -28 -21 -49t-49 -21zM208 -17q-87 0 -134 40.5t-47 117.5q0 80 57 123.5t144 43.5q74 0 131 -30q0 53 -30 72.5t-85 19.5q-15 0 -70 -10q-37 -7 -42 -7q-30 0 -46.5 17.5
t-16.5 48.5q0 55 64 80q54 23 141 23q63 0 110 -16.5t73.5 -42.5t43 -64.5t22 -75.5t5.5 -84v-43q0 -28 4 -37t18 -19q36 -27 36 -68q0 -40 -26.5 -64.5t-72.5 -24.5q-48 0 -76 27t-33 54h-2q-65 -81 -168 -81zM262 109q35 0 64 23t33 55q-33 21 -78 21q-36 0 -57.5 -14
t-21.5 -38q0 -47 60 -47z" />
    <glyph glyph-name="Abreve" unicode="&#x102;" horiz-adv-x="703" 
d="M351 766q-83 0 -136 41.5t-53 105.5q0 31 19.5 51.5t49.5 20.5q50 0 67 -48q15 -44 53 -44q40 0 53 45q16 47 67 47q31 0 50 -20.5t19 -51.5q0 -65 -53.5 -106t-135.5 -41zM671 107q16 -45 -7.5 -80t-75.5 -35q-36 0 -54.5 18.5t-31.5 57.5l-23 69h-254l-23 -69
q-13 -39 -31.5 -57.5t-54.5 -18.5q-52 0 -75.5 35t-7.5 80l171 478q28 77 58.5 110t89.5 33t89 -32.5t58 -111.5zM273 283h157l-78 231h-2z" />
    <glyph glyph-name="abreve" unicode="&#x103;" horiz-adv-x="604" 
d="M293 695q40 0 53 45q16 47 67 47q31 0 50 -20.5t19 -51.5q0 -65 -53.5 -106t-135.5 -41q-83 0 -136 41.5t-53 105.5q0 31 19.5 51.5t49.5 20.5q51 0 67 -49q15 -43 53 -43zM208 -17q-87 0 -134 40.5t-47 117.5q0 80 57 123.5t144 43.5q74 0 131 -30q0 53 -30 72.5
t-85 19.5q-15 0 -70 -10q-37 -7 -42 -7q-30 0 -46.5 17.5t-16.5 48.5q0 55 64 80q54 23 141 23q63 0 110 -16.5t73.5 -42.5t43 -64.5t22 -75.5t5.5 -84v-43q0 -28 4 -37t18 -19q36 -27 36 -68q0 -40 -26.5 -64.5t-72.5 -24.5q-48 0 -76 27t-33 54h-2q-65 -81 -168 -81z
M262 109q35 0 64 23t33 55q-33 21 -78 21q-36 0 -57.5 -14t-21.5 -38q0 -47 60 -47z" />
    <glyph glyph-name="Aogonek" unicode="&#x104;" horiz-adv-x="703" 
d="M641 -144q22 0 37 -16t15 -42q0 -30 -25 -47q-28 -17 -72 -17q-66 0 -110 38.5t-44 112.5q0 90 72 153q-3 6 -12 30l-23 69h-254l-23 -69q-13 -39 -31.5 -57.5t-54.5 -18.5q-52 0 -75.5 35t-7.5 80l171 478q28 77 58.5 110t89.5 33t89 -32.5t58 -111.5l172 -477
q11 -29 3.5 -56t-30.5 -43q-65 -50 -65 -110q0 -43 42 -43q3 0 10 0.5t10 0.5zM273 283h157l-78 231h-2z" />
    <glyph glyph-name="aogonek" unicode="&#x105;" horiz-adv-x="604" 
d="M548 -151q22 0 37 -16t15 -42q0 -30 -25 -47q-27 -18 -72 -18q-66 0 -110 39t-44 112q0 79 56 139q-23 25 -27 48h-2q-65 -81 -168 -81q-87 0 -134 40.5t-47 117.5q0 80 57 123.5t144 43.5q74 0 131 -30q0 53 -30 72.5t-85 19.5q-15 0 -70 -10q-37 -7 -42 -7
q-30 0 -46.5 17.5t-16.5 48.5q0 55 64 80q54 23 141 23q63 0 110 -16.5t73.5 -42.5t43 -64.5t22 -75.5t5.5 -84v-43q0 -28 4 -37t18 -19q36 -27 36 -68q0 -52 -40 -75q-60 -48 -60 -107q0 -42 42 -42q4 0 10 0.5t10 0.5zM262 109q35 0 64 23t33 55q-33 21 -78 21
q-36 0 -57.5 -14t-21.5 -38q0 -47 60 -47z" />
    <glyph glyph-name="Cacute" unicode="&#x106;" horiz-adv-x="656" 
d="M335 909l69 89q33 42 73 42q36 0 60 -24.5t24 -60.5q0 -44 -37 -74l-86 -73q-31 -24 -53 -24q-29 0 -49.5 19t-20.5 50q0 34 20 56zM433 -17q-176 0 -284 104t-108 272q0 171 106.5 273.5t285.5 102.5q93 0 148 -33q46 -29 46 -75q0 -35 -20 -57t-53 -22q-18 0 -55 10
t-64 10q-92 0 -150 -55.5t-58 -153.5t59.5 -153.5t148.5 -55.5q31 0 67 10.5t56 10.5q31 0 50 -22t19 -53q0 -51 -49 -80q-53 -33 -145 -33z" />
    <glyph glyph-name="cacute" unicode="&#x107;" horiz-adv-x="522" 
d="M249 700l69 89q33 42 73 42q35 0 59.5 -24.5t24.5 -60.5q0 -44 -37 -74l-86 -73q-31 -24 -53 -24q-29 0 -50 19.5t-21 49.5q0 33 21 56zM310 -16q-129 0 -201.5 75t-72.5 194q0 122 76.5 195.5t204.5 73.5q88 0 135 -31q41 -28 41 -74q0 -28 -18 -47.5t-48 -19.5
q-19 0 -48 10.5t-56 10.5q-51 0 -80 -33.5t-29 -85.5q0 -51 29 -84.5t80 -33.5q27 0 56 10.5t48 10.5q30 0 48 -19.5t18 -46.5q0 -47 -44 -74q-47 -31 -139 -31z" />
    <glyph glyph-name="Cdotaccent" unicode="&#x10a;" horiz-adv-x="656" 
d="M405 794q-50 0 -81.5 29t-31.5 79q0 49 31.5 78t81.5 29q51 0 81.5 -28.5t30.5 -78.5t-30.5 -79t-81.5 -29zM433 -17q-176 0 -284 104t-108 272q0 171 106.5 273.5t285.5 102.5q93 0 148 -33q46 -29 46 -75q0 -35 -20 -57t-53 -22q-18 0 -55 10t-64 10q-92 0 -150 -55.5
t-58 -153.5t59.5 -153.5t148.5 -55.5q31 0 67 10.5t56 10.5q31 0 50 -22t19 -53q0 -51 -49 -80q-53 -33 -145 -33z" />
    <glyph glyph-name="cdotaccent" unicode="&#x10b;" horiz-adv-x="522" 
d="M303 580q-51 0 -82 29.5t-31 78.5q0 50 31 79t82 29q50 0 80.5 -29t30.5 -79q0 -49 -30.5 -78.5t-80.5 -29.5zM310 -16q-129 0 -201.5 75t-72.5 194q0 122 76.5 195.5t204.5 73.5q88 0 135 -31q41 -28 41 -74q0 -28 -18 -47.5t-48 -19.5q-19 0 -48 10.5t-56 10.5
q-51 0 -80 -33.5t-29 -85.5q0 -51 29 -84.5t80 -33.5q27 0 56 10.5t48 10.5q30 0 48 -19.5t18 -46.5q0 -47 -44 -74q-47 -31 -139 -31z" />
    <glyph glyph-name="Ccaron" unicode="&#x10c;" horiz-adv-x="656" 
d="M406 776q-50 0 -122 64l-42 36q-29 26 -29 60q0 30 19 50t48 20q23 0 44 -18l81 -72h2l80 72q21 18 45 18q28 0 47.5 -20t19.5 -50q0 -31 -31 -60l-40 -36q-72 -64 -122 -64zM433 -17q-176 0 -284 104t-108 272q0 171 106.5 273.5t285.5 102.5q93 0 148 -33
q46 -29 46 -75q0 -35 -20 -57t-53 -22q-18 0 -55 10t-64 10q-92 0 -150 -55.5t-58 -153.5t59.5 -153.5t148.5 -55.5q31 0 67 10.5t56 10.5q31 0 50 -22t19 -53q0 -51 -49 -80q-53 -33 -145 -33z" />
    <glyph glyph-name="ccaron" unicode="&#x10d;" horiz-adv-x="522" 
d="M303 563q-49 0 -122 63l-41 36q-30 27 -30 60q0 30 19.5 50t47.5 20q26 0 45 -18l80 -72h2l81 72q19 18 44 18q29 0 48 -20t19 -50q0 -31 -31 -60l-40 -36q-69 -63 -122 -63zM310 -16q-129 0 -201.5 75t-72.5 194q0 122 76.5 195.5t204.5 73.5q88 0 135 -31
q41 -28 41 -74q0 -28 -18 -47.5t-48 -19.5q-19 0 -48 10.5t-56 10.5q-51 0 -80 -33.5t-29 -85.5q0 -51 29 -84.5t80 -33.5q27 0 56 10.5t48 10.5q30 0 48 -19.5t18 -46.5q0 -47 -44 -74q-47 -31 -139 -31z" />
    <glyph glyph-name="Dcaron" unicode="&#x10e;" horiz-adv-x="774" 
d="M360 761q-50 0 -122 64l-41 36q-30 27 -30 60q0 30 19.5 50t47.5 20q24 0 45 -18l80 -72h2l81 72q21 18 44 18q29 0 48 -20t19 -50q0 -31 -31 -60l-40 -36q-72 -64 -122 -64zM346 -8h-175q-46 0 -70 24.5t-24 69.5v548q0 94 94 94h175q186 0 286 -98t100 -270
q0 -173 -100 -270.5t-286 -97.5zM257 570v-420h93q95 0 145.5 54t50.5 156q0 103 -51 156.5t-145 53.5h-93z" />
    <glyph glyph-name="dcaron" unicode="&#x10f;" horiz-adv-x="740" 
d="M273 -17q-107 0 -171.5 75t-64.5 194q0 123 62.5 196.5t171.5 73.5q41 0 75 -13.5t50 -33.5h2v190q0 41 24 67.5t67 26.5t66 -26t23 -68v-458q0 -43 22 -67q36 -31 36 -67q0 -39 -26 -64.5t-74 -25.5t-75.5 26.5t-32.5 53.5h-2q-46 -80 -153 -80zM699 485q-31 0 -49 20.5
t-13 51.5q8 87 9 131q1 30 21.5 50.5t53.5 20.5q37 0 57 -23.5t17 -56.5q-6 -79 -33 -152q-17 -42 -63 -42zM316 140q44 0 68 28.5t24 84.5q0 55 -24.5 83.5t-68.5 28.5q-43 0 -68 -30t-25 -83q0 -52 25.5 -82t68.5 -30z" />
    <glyph glyph-name="Dcroat" unicode="&#x110;" horiz-adv-x="803" 
d="M375 728q186 0 286 -98t100 -270q0 -173 -100 -270.5t-286 -97.5h-175q-46 0 -70 24.5t-24 69.5v200h-11q-35 0 -54.5 19.5t-19.5 54.5q0 34 19.5 53.5t54.5 19.5h11v201q0 94 94 94h175zM379 150q95 0 145.5 54t50.5 156q0 103 -51 156.5t-145 53.5h-93v-137h49
q35 0 54.5 -19.5t19.5 -53.5q0 -35 -19.5 -54.5t-54.5 -19.5h-49v-136h93z" />
    <glyph glyph-name="dcroat" unicode="&#x111;" horiz-adv-x="664" 
d="M610 571h-32v-364q0 -43 22 -67q36 -31 36 -67q0 -39 -26 -64.5t-74 -25.5t-75.5 26.5t-32.5 53.5h-2q-46 -80 -153 -80t-171.5 75t-64.5 194q0 123 62.5 196.5t171.5 73.5q41 0 75 -13.5t50 -33.5h2v96h-60q-24 0 -40.5 15.5t-16.5 40.5q0 26 16.5 41.5t40.5 15.5h61
q5 34 28.5 54.5t61.5 20.5t60 -20.5t28 -54.5h33q24 0 40.5 -15.5t16.5 -41.5q0 -25 -16.5 -40.5t-40.5 -15.5zM316 140q44 0 68 28.5t24 84.5q0 55 -24.5 83.5t-68.5 28.5q-43 0 -68 -30t-25 -83q0 -52 25.5 -82t68.5 -30z" />
    <glyph glyph-name="Emacron" unicode="&#x112;" horiz-adv-x="592" 
d="M447 808h-247q-29 0 -49.5 21t-20.5 50t21 49.5t49 20.5h247q28 0 48.5 -21t20.5 -50t-20.5 -49.5t-48.5 -20.5zM477 -8h-306q-46 0 -70 24.5t-24 69.5v548q0 94 94 94h303q33 0 53.5 -20t20.5 -55q0 -34 -19.5 -53.5t-52.5 -19.5h-221l1 -144h188q34 0 54.5 -21
t20.5 -56t-20.5 -55t-53.5 -20h-189l1 -143h219q33 0 53.5 -20t20.5 -55q0 -34 -20 -54t-53 -20z" />
    <glyph glyph-name="emacron" unicode="&#x113;" horiz-adv-x="580" 
d="M430 610h-247q-29 0 -49.5 21t-20.5 50t20.5 49.5t49.5 20.5h247q28 0 48.5 -21t20.5 -50t-20.5 -49.5t-48.5 -20.5zM332 -17q-144 0 -220 73.5t-76 199.5q0 118 74 192t190 74q117 0 180.5 -65t63.5 -166q0 -43 -20 -63.5t-68 -20.5h-242q0 -30 31 -52t93 -22
q30 0 66 10t54 10q30 0 48 -19t18 -46q0 -47 -44 -73q-50 -32 -148 -32zM211 303h166q1 3 1 12q0 29 -20 49.5t-60 20.5q-37 0 -62 -23t-25 -59z" />
    <glyph glyph-name="Edotaccent" unicode="&#x116;" horiz-adv-x="592" 
d="M316 779q-51 0 -82 29t-31 79t31 78.5t82 28.5q50 0 81 -28.5t31 -78.5t-30.5 -79t-81.5 -29zM477 -8h-306q-46 0 -70 24.5t-24 69.5v548q0 94 94 94h303q33 0 53.5 -20t20.5 -55q0 -34 -19.5 -53.5t-52.5 -19.5h-221l1 -144h188q34 0 54.5 -21t20.5 -56t-20.5 -55
t-53.5 -20h-189l1 -143h219q33 0 53.5 -20t20.5 -55q0 -34 -20 -54t-53 -20z" />
    <glyph glyph-name="edotaccent" unicode="&#x117;" horiz-adv-x="580" 
d="M299 581q-51 0 -82 29t-31 79t31 78.5t82 28.5q50 0 81 -28.5t31 -78.5t-30.5 -79t-81.5 -29zM332 -17q-144 0 -220 73.5t-76 199.5q0 118 74 192t190 74q117 0 180.5 -65t63.5 -166q0 -43 -20 -63.5t-68 -20.5h-242q0 -30 31 -52t93 -22q30 0 66 10t54 10q30 0 48 -19
t18 -46q0 -47 -44 -73q-50 -32 -148 -32zM211 303h166q1 3 1 12q0 29 -20 49.5t-60 20.5q-37 0 -62 -23t-25 -59z" />
    <glyph glyph-name="Eogonek" unicode="&#x118;" horiz-adv-x="592" 
d="M510 -151q23 0 38 -16t15 -42q0 -31 -26 -47q-26 -18 -71 -18q-66 0 -110 39t-44 113q0 63 36 114h-177q-46 0 -70 24.5t-24 69.5v548q0 94 94 94h303q33 0 53.5 -20t20.5 -55q0 -34 -19.5 -53.5t-52.5 -19.5h-221l1 -144h188q34 0 54.5 -21t20.5 -56t-20.5 -55
t-53.5 -20h-189l1 -143h219q33 0 53.5 -20t20.5 -55q0 -51 -40 -67q-61 -48 -61 -109q0 -42 42 -42q4 0 10 0.5t9 0.5z" />
    <glyph glyph-name="eogonek" unicode="&#x119;" horiz-adv-x="580" 
d="M481 -135q23 0 38 -16t15 -42q0 -29 -26 -47q-26 -17 -71 -17q-66 0 -110 38.5t-44 112.5q0 50 21 90q-131 7 -199.5 80t-68.5 192q0 118 74 192t190 74q117 0 180.5 -65t63.5 -166q0 -43 -20 -63.5t-68 -20.5h-242q0 -30 31 -52t93 -22q30 0 66 10t54 10q30 0 48 -19
t18 -46q0 -41 -33 -65q-1 -3 -4 -4q-67 -50 -67 -112q0 -43 42 -43q4 0 10 0.5t9 0.5zM298 385q-37 0 -62 -23t-25 -59h166q1 3 1 12q0 29 -20 49.5t-60 20.5z" />
    <glyph glyph-name="Ecaron" unicode="&#x11a;" horiz-adv-x="592" 
d="M317 761q-49 0 -123 64l-41 36q-29 26 -29 60q0 30 19 50t47 20q24 0 45 -18l81 -72h2l80 72q21 18 45 18q28 0 47.5 -20t19.5 -50q0 -31 -31 -60l-40 -36q-72 -64 -122 -64zM477 -8h-306q-46 0 -70 24.5t-24 69.5v548q0 94 94 94h303q33 0 53.5 -20t20.5 -55
q0 -34 -19.5 -53.5t-52.5 -19.5h-221l1 -144h188q34 0 54.5 -21t20.5 -56t-20.5 -55t-53.5 -20h-189l1 -143h219q33 0 53.5 -20t20.5 -55q0 -34 -20 -54t-53 -20z" />
    <glyph glyph-name="ecaron" unicode="&#x11b;" horiz-adv-x="580" 
d="M300 563q-49 0 -123 64l-41 36q-29 25 -29 60q0 30 19 50t47 20q24 0 45 -18l81 -72h2l80 72q21 18 45 18q28 0 47.5 -20t19.5 -50q0 -31 -31 -60l-40 -36q-72 -64 -122 -64zM332 -17q-144 0 -220 73.5t-76 199.5q0 118 74 192t190 74q117 0 180.5 -65t63.5 -166
q0 -43 -20 -63.5t-68 -20.5h-242q0 -30 31 -52t93 -22q30 0 66 10t54 10q30 0 48 -19t18 -46q0 -47 -44 -73q-50 -32 -148 -32zM211 303h166q1 3 1 12q0 29 -20 49.5t-60 20.5q-37 0 -62 -23t-25 -59z" />
    <glyph glyph-name="Gbreve" unicode="&#x11e;" horiz-adv-x="719" 
d="M428 908q40 0 53 45q16 47 67 47q31 0 50 -20.5t19 -51.5q0 -65 -53.5 -106t-135.5 -41q-83 0 -136 41.5t-53 105.5q0 31 19.5 51.5t49.5 20.5q50 0 67 -48q15 -44 53 -44zM432 -17q-176 0 -283 101t-107 276t107 275t287 100q114 0 173 -33q48 -28 48 -76
q0 -35 -20.5 -56.5t-52.5 -21.5q-14 0 -54 9.5t-80 10.5q-100 0 -161 -54t-61 -156q0 -101 58 -156.5t153 -55.5q36 0 63 10v148q0 38 22 62t62 24t61 -24t21 -62v-192q0 -69 -61 -100q-61 -29 -175 -29z" />
    <glyph glyph-name="gbreve" unicode="&#x11f;" horiz-adv-x="639" 
d="M308 686q39 0 53 45q16 47 67 47q31 0 50 -20t19 -52q0 -64 -53.5 -105.5t-135.5 -41.5q-83 0 -136 41.5t-53 105.5q0 31 19.5 51.5t49.5 20.5q50 0 67 -48q15 -44 53 -44zM291 -233q-120 0 -174 42q-33 27 -33 67q0 31 19 50.5t53 19.5q23 0 61.5 -15t69.5 -15
q53 0 85.5 26.5t32.5 75.5v23h-2q-42 -49 -125 -49q-112 0 -176.5 72.5t-64.5 189.5q0 120 63 194t174 74q50 0 93 -23t63 -64h2v9q1 30 20 50t53 20q35 0 54 -21t19 -54l-1 -366q0 -146 -66.5 -226t-219.5 -80zM315 141q45 0 70 28.5t25 84.5q0 55 -25 83.5t-69 28.5
q-43 0 -68.5 -30t-25.5 -83t25 -82.5t68 -29.5z" />
    <glyph glyph-name="Gdotaccent" unicode="&#x120;" horiz-adv-x="719" 
d="M428 794q-51 0 -82 29t-31 79t31 78.5t82 28.5t81.5 -28.5t30.5 -78.5t-30.5 -79t-81.5 -29zM432 -17q-176 0 -283 101t-107 276t107 275t287 100q114 0 173 -33q48 -28 48 -76q0 -35 -20.5 -56.5t-52.5 -21.5q-14 0 -54 9.5t-80 10.5q-100 0 -161 -54t-61 -156
q0 -101 58 -156.5t153 -55.5q36 0 63 10v148q0 38 22 62t62 24t61 -24t21 -62v-192q0 -69 -61 -100q-61 -29 -175 -29z" />
    <glyph glyph-name="gdotaccent" unicode="&#x121;" horiz-adv-x="639" 
d="M308 572q-50 0 -81.5 29.5t-31.5 79.5q0 49 31.5 78t81.5 29q51 0 81.5 -28.5t30.5 -78.5t-30.5 -79.5t-81.5 -29.5zM291 -233q-120 0 -174 42q-33 27 -33 67q0 31 19 50.5t53 19.5q23 0 61.5 -15t69.5 -15q53 0 85.5 26.5t32.5 75.5v23h-2q-42 -49 -125 -49
q-112 0 -176.5 72.5t-64.5 189.5q0 120 63 194t174 74q50 0 93 -23t63 -64h2v9q1 30 20 50t53 20q35 0 54 -21t19 -54l-1 -366q0 -146 -66.5 -226t-219.5 -80zM315 141q45 0 70 28.5t25 84.5q0 55 -25 83.5t-69 28.5q-43 0 -68.5 -30t-25.5 -83t25 -82.5t68 -29.5z" />
    <glyph glyph-name="uni0122" unicode="&#x122;" horiz-adv-x="719" 
d="M432 -17q-176 0 -283 101t-107 276t107 275t287 100q114 0 173 -33q48 -28 48 -76q0 -35 -20.5 -56.5t-52.5 -21.5q-14 0 -54 9.5t-80 10.5q-100 0 -161 -54t-61 -156q0 -101 58 -156.5t153 -55.5q36 0 63 10v148q0 38 22 62t62 24t61 -24t21 -62v-192q0 -69 -61 -100
q-61 -29 -175 -29zM405 -329q-32 0 -49.5 20.5t-13.5 51.5q7 61 10 131q0 30 20.5 50.5t53.5 20.5q37 0 57.5 -23.5t17.5 -56.5q-7 -80 -34 -151q-15 -43 -62 -43z" />
    <glyph glyph-name="uni0123" unicode="&#x123;" horiz-adv-x="639" 
d="M336 834q32 0 49.5 -20.5t13.5 -51.5q-7 -58 -10 -130q0 -31 -20.5 -51t-53.5 -20q-37 0 -57.5 23t-17.5 56q7 80 34 152q16 42 62 42zM291 -233q-120 0 -174 42q-33 27 -33 67q0 31 19 50.5t53 19.5q23 0 61.5 -15t69.5 -15q53 0 85.5 26.5t32.5 75.5v23h-2
q-42 -49 -125 -49q-112 0 -176.5 72.5t-64.5 189.5q0 120 63 194t174 74q50 0 93 -23t63 -64h2v9q1 30 20 50t53 20q35 0 54 -21t19 -54l-1 -366q0 -146 -66.5 -226t-219.5 -80zM315 141q45 0 70 28.5t25 84.5q0 55 -25 83.5t-69 28.5q-43 0 -68.5 -30t-25.5 -83t25 -82.5
t68 -29.5z" />
    <glyph glyph-name="Hbar" unicode="&#x126;" horiz-adv-x="848" 
d="M762 647q28 0 48 -19t20 -46t-20 -45.5t-48 -18.5h-12v-432q0 -42 -23.5 -68t-66.5 -26t-66.5 26t-23.5 68v192h-289v-192q0 -42 -23 -68t-66 -26t-66.5 26t-23.5 68v432h-17q-28 0 -48 18.5t-20 45.5t20 46t48 19h18q3 37 26 59t63 22t62.5 -22t25.5 -59h291q3 37 26 59
t63 22t63 -22t26 -59h13zM569 443v75h-287v-75h287z" />
    <glyph glyph-name="hbar" unicode="&#x127;" horiz-adv-x="639" 
d="M377 522q208 0 208 -261v-175q0 -42 -23.5 -68t-66.5 -26t-66.5 26t-23.5 68v172q0 106 -75 106q-42 0 -65 -28t-23 -76l-1 -174q0 -42 -23 -68t-66 -26t-67 26.5t-24 67.5v485h-33q-24 0 -40.5 15.5t-16.5 40.5q0 26 16.5 41.5t40.5 15.5h34q5 34 28.5 54.5t61.5 20.5
t60 -20.5t28 -54.5h60q23 0 39.5 -16t16.5 -41t-16.5 -40.5t-39.5 -15.5h-59v-97h2q18 21 56.5 34.5t77.5 13.5z" />
    <glyph glyph-name="Itilde" unicode="&#x128;" horiz-adv-x="334" 
d="M81 963q40 0 72.5 -12.5t54 -25t35.5 -12.5q8 0 15 3.5t10 7t8.5 11.5t8.5 12q19 19 46 19q30 0 46 -22.5t16 -54.5q0 -46 -32.5 -83t-89.5 -37q-48 0 -100.5 28t-71.5 28q-7 0 -13.5 -1.5t-10 -3t-7 -6t-5 -6.5t-4.5 -8l-4 -8q-13 -25 -48 -25q-29 0 -45.5 20t-16.5 49
q0 53 37.5 90t98.5 37zM168 -8q-44 0 -67.5 26t-23.5 68v549q0 42 23.5 67.5t67.5 25.5q43 0 66 -26t23 -67v-549q0 -41 -23 -67.5t-66 -26.5z" />
    <glyph glyph-name="itilde" unicode="&#x129;" horiz-adv-x="298" 
d="M61 756q41 0 73.5 -12.5t53.5 -25t35 -12.5q9 0 15.5 3.5t9.5 7t8.5 11.5t8.5 12q19 19 46 19q30 0 46 -22.5t16 -54.5q0 -46 -32.5 -83t-89.5 -37q-47 0 -100 28t-72 28q-9 0 -15 -1.5t-10.5 -5.5t-7 -7t-6.5 -9.5t-5 -8.5q-14 -26 -48 -26q-29 0 -45.5 20t-16.5 49
q0 53 37.5 90t98.5 37zM150 -8q-43 0 -67 26.5t-24 67.5v335q0 41 23.5 67t67.5 26q43 0 66 -25.5t23 -67.5v-335q0 -42 -23 -68t-66 -26z" />
    <glyph glyph-name="Imacron" unicode="&#x12a;" horiz-adv-x="334" 
d="M299 808h-247q-29 0 -49.5 21t-20.5 50t21 49.5t49 20.5h247q29 0 49.5 -21t20.5 -50q0 -28 -20.5 -49t-49.5 -21zM168 -8q-44 0 -67.5 26t-23.5 68v549q0 42 23.5 67.5t67.5 25.5q43 0 66 -26t23 -67v-549q0 -41 -23 -67.5t-66 -26.5z" />
    <glyph glyph-name="imacron" unicode="&#x12b;" horiz-adv-x="298" 
d="M279 601h-246q-29 0 -49.5 21t-20.5 50q0 28 20.5 49t49.5 21h246q29 0 49.5 -21t20.5 -50t-20.5 -49.5t-49.5 -20.5zM150 -8q-43 0 -67 26.5t-24 67.5v335q0 41 23.5 67t67.5 26q43 0 66 -25.5t23 -67.5v-335q0 -42 -23 -68t-66 -26z" />
    <glyph glyph-name="Iogonek" unicode="&#x12e;" horiz-adv-x="336" 
d="M217 -146q23 0 38 -16t15 -42q0 -31 -26 -47q-26 -18 -71 -18q-66 0 -110 38.5t-44 112.5q0 90 72 153q-12 23 -12 51v549q0 41 23.5 67t67.5 26q43 0 66 -25.5t23 -67.5v-549q0 -60 -43 -84q-60 -48 -60 -107q0 -43 42 -43q4 0 10 1t9 1z" />
    <glyph glyph-name="iogonek" unicode="&#x12f;" horiz-adv-x="302" 
d="M153 572q-51 0 -82 29t-31 79t31 78.5t82 28.5q50 0 81 -28.5t31 -78.5t-30.5 -79t-81.5 -29zM197 -149q23 0 37.5 -16t14.5 -42q0 -31 -25 -47q-26 -18 -72 -18q-66 0 -110 38.5t-44 112.5q0 92 76 157q-11 22 -11 50v335q0 41 23.5 67t67.5 26q43 0 66 -25.5t23 -67.5
v-335q0 -62 -44 -84q-63 -50 -63 -110q0 -43 41 -43q3 0 10 1t10 1z" />
    <glyph glyph-name="Idotaccent" unicode="&#x130;" horiz-adv-x="334" 
d="M169 779q-51 0 -82 29t-31 79t31 78.5t82 28.5q50 0 80.5 -28.5t30.5 -78.5t-30 -79t-81 -29zM168 -8q-44 0 -67.5 26t-23.5 68v549q0 42 23.5 67.5t67.5 25.5q43 0 66 -26t23 -67v-549q0 -41 -23 -67.5t-66 -26.5z" />
    <glyph glyph-name="dotlessi" unicode="&#x131;" horiz-adv-x="298" 
d="M150 -8q-43 0 -67 26.5t-24 67.5v335q0 41 23.5 67t67.5 26q43 0 66 -25.5t23 -67.5v-335q0 -42 -23 -68t-66 -26z" />
    <glyph glyph-name="IJ" unicode="&#x132;" horiz-adv-x="838" 
d="M544 -16q-85 0 -136 34q-45 30 -45 79q0 31 19 52t52 21q15 0 43 -9.5t54 -9.5q32 0 44.5 34t12.5 114v340q0 40 25 65t65 25t65 -25t25 -65v-350q0 -155 -52 -230t-172 -75zM168 -8q-44 0 -67.5 26t-23.5 68v549q0 42 23.5 67.5t67.5 25.5q43 0 66 -26t23 -67v-549
q0 -41 -23 -67.5t-66 -26.5z" />
    <glyph glyph-name="ij" unicode="&#x133;" horiz-adv-x="597" 
d="M149 572q-51 0 -82 29t-31 79t31 78.5t82 28.5q50 0 81 -28.5t31 -78.5t-30.5 -79t-81.5 -29zM446 572q-51 0 -82 29t-31 79t31 78.5t82 28.5q50 0 80.5 -28.5t30.5 -78.5t-30 -79t-81 -29zM150 -8q-43 0 -67 26.5t-24 67.5v335q0 41 23.5 67t67.5 26q43 0 66 -25.5
t23 -67.5v-335q0 -42 -23 -68t-66 -26zM348 -230q-76 0 -114 38q-28 28 -28 65q0 31 17.5 50t44.5 19q11 0 26.5 -6t25.5 -6q22 0 28.5 16.5t6.5 53.5v421q0 41 23.5 67t66.5 26q44 0 67 -25.5t23 -67.5l1 -430q0 -44 -9.5 -81.5t-30 -70t-58.5 -51t-90 -18.5z" />
    <glyph glyph-name="uni0136" unicode="&#x136;" horiz-adv-x="710" 
d="M167 -8q-43 0 -66.5 26t-23.5 68v549q0 41 23.5 67t66.5 26t66.5 -26t23.5 -67v-187h98l145 235q14 23 30.5 34t45.5 11q38 0 64.5 -26t26.5 -61q0 -28 -12 -45l-153 -230l161 -240q13 -21 13 -45q0 -36 -28 -62.5t-66 -26.5q-28 0 -45 11.5t-31 35.5l-154 238h-95v-191
q0 -42 -23.5 -68t-66.5 -26zM351 -321q-32 0 -49.5 20.5t-13.5 51.5q7 61 10 131q0 30 20.5 50.5t53.5 20.5q37 0 57.5 -23.5t17.5 -56.5q-7 -79 -34 -151q-15 -43 -62 -43z" />
    <glyph glyph-name="uni0137" unicode="&#x137;" horiz-adv-x="578" 
d="M152 -8q-44 0 -67.5 26t-23.5 68l1 579q0 42 23.5 68t66.5 26t66 -26t23 -68l1 -336h47l88 138q14 24 30 35.5t45 11.5q35 0 59.5 -24.5t24.5 -57.5q0 -20 -12 -41l-93 -135l99 -134q13 -23 13 -45q0 -35 -25 -60t-62 -25q-30 0 -46.5 12t-30.5 37l-97 143h-40v-98
q0 -42 -23.5 -68t-66.5 -26zM269 -321q-32 0 -49.5 20.5t-13.5 51.5q9 76 10 131q1 30 21 50.5t53 20.5q38 0 58 -23.5t17 -56.5q-7 -77 -33 -151q-17 -43 -63 -43z" />
    <glyph glyph-name="kgreenlandic" unicode="&#x138;" horiz-adv-x="576" 
d="M150 -8q-44 0 -67.5 26t-23.5 68l1 335q0 42 23.5 68t66.5 26t66 -26t23 -68l1 -92h47l88 138q14 24 30 35.5t45 11.5q35 0 59.5 -24.5t24.5 -57.5q0 -20 -12 -41l-93 -135l99 -134q13 -23 13 -45q0 -35 -25 -60t-62 -25q-30 0 -46.5 12t-30.5 37l-97 143h-40v-98
q0 -42 -23.5 -68t-66.5 -26z" />
    <glyph glyph-name="Lacute" unicode="&#x139;" horiz-adv-x="542" 
d="M115 901l69 89q33 42 74 42q35 0 59 -24.5t24 -60.5q0 -44 -37 -74l-86 -74q-31 -24 -52 -24q-29 0 -50 19.5t-21 50.5q0 34 20 56zM447 -8h-276q-46 0 -70 24.5t-24 69.5v552q0 39 25.5 64.5t65.5 25.5q39 0 64 -25t25 -64l1 -481h188q37 0 59.5 -22.5t22.5 -61.5
q0 -38 -22.5 -60t-58.5 -22z" />
    <glyph glyph-name="lacute" unicode="&#x13a;" horiz-adv-x="302" 
d="M96 935l69 89q33 41 74 41q35 0 59 -24t24 -61q0 -44 -37 -74l-86 -73q-31 -24 -53 -24q-29 0 -49.5 19.5t-20.5 50.5q0 33 20 56zM152 -8q-43 0 -67 26.5t-24 67.5v579q0 41 24 67.5t67 26.5t66 -26t23 -68v-579q0 -42 -23 -68t-66 -26z" />
    <glyph glyph-name="uni013B" unicode="&#x13b;" horiz-adv-x="542" 
d="M447 -8h-276q-46 0 -70 24.5t-24 69.5v552q0 39 25.5 64.5t65.5 25.5q39 0 64 -25t25 -64l1 -481h188q37 0 59.5 -22.5t22.5 -61.5q0 -38 -22.5 -60t-58.5 -22zM278 -321q-32 0 -49.5 20.5t-13.5 51.5q7 61 10 131q0 30 20.5 50.5t53.5 20.5q37 0 57.5 -23.5t17.5 -56.5
q-7 -79 -34 -151q-15 -43 -62 -43z" />
    <glyph glyph-name="uni013C" unicode="&#x13c;" horiz-adv-x="302" 
d="M152 -8q-43 0 -67 26.5t-24 67.5v579q0 41 24 67.5t67 26.5t66 -26t23 -68v-579q0 -42 -23 -68t-66 -26zM125 -321q-32 0 -49.5 20.5t-13.5 51.5q9 76 10 131q1 30 21.5 50.5t53.5 20.5q37 0 57 -23.5t17 -56.5q-7 -77 -33 -151q-17 -43 -63 -43z" />
    <glyph glyph-name="Lcaron" unicode="&#x13d;" horiz-adv-x="570" 
d="M435 459q-32 0 -49.5 20.5t-13.5 51.5q9 76 10 131q1 30 21.5 50.5t53.5 20.5q37 0 57 -23.5t17 -56.5q-7 -79 -33 -152q-17 -42 -63 -42zM447 -8h-276q-46 0 -70 24.5t-24 69.5v552q0 39 25.5 64.5t65.5 25.5q39 0 64 -25t25 -64l1 -481h188q37 0 59.5 -22.5t22.5 -61.5
q0 -38 -22.5 -60t-58.5 -22z" />
    <glyph glyph-name="lcaron" unicode="&#x13e;" horiz-adv-x="403" 
d="M152 -8q-43 0 -67 26.5t-24 67.5v579q0 41 24 67.5t67 26.5t66 -26t23 -68v-579q0 -42 -23 -68t-66 -26zM351 485q-32 0 -49.5 20.5t-13.5 51.5q7 60 10 131q0 30 20.5 50.5t53.5 20.5q37 0 57.5 -23.5t17.5 -56.5q-7 -80 -34 -151q-15 -43 -62 -43z" />
    <glyph glyph-name="Ldot" unicode="&#x13f;" horiz-adv-x="594" 
d="M447 -8h-276q-46 0 -70 24.5t-24 69.5v552q0 39 25.5 64.5t65.5 25.5q39 0 64 -25t25 -64l1 -481h188q37 0 59.5 -22.5t22.5 -61.5q0 -38 -22.5 -60t-58.5 -22zM458 328q-49 0 -78.5 28t-29.5 75q0 46 30 74t78 28t77.5 -28t29.5 -74q0 -48 -29.5 -75.5t-77.5 -27.5z" />
    <glyph glyph-name="ldot" unicode="&#x140;" horiz-adv-x="468" 
d="M152 -8q-43 0 -67 26.5t-24 67.5v579q0 41 24 67.5t67 26.5t66 -26t23 -68v-579q0 -42 -23 -68t-66 -26zM382 276q-49 0 -78.5 27.5t-29.5 75.5q0 46 29.5 74t78.5 28q48 0 77.5 -28t29.5 -74q0 -48 -29 -75.5t-78 -27.5z" />
    <glyph glyph-name="Lslash" unicode="&#x141;" horiz-adv-x="627" 
d="M530 158q37 0 60 -22.5t23 -61.5q0 -38 -22.5 -60t-59.5 -22h-276q-45 0 -69.5 24.5t-24.5 69.5v182l-37 -16q-15 -8 -32 -8q-28 0 -47 19.5t-19 54.5q0 44 43 64l92 38v218q0 39 25.5 64.5t65.5 25.5q39 0 64 -25t25 -64l1 -143l53 22q17 7 31 7q28 0 47 -19.5t19 -52.5
q0 -46 -43 -64l-107 -45l1 -186h187z" />
    <glyph glyph-name="lslash" unicode="&#x142;" horiz-adv-x="452" 
d="M372 530q30 0 50 -20.5t20 -49.5q0 -43 -40 -64l-86 -42v-268q0 -42 -23 -68t-66 -26t-67 26.5t-24 67.5v179l-19 -9q-16 -7 -30 -7q-31 0 -51 20.5t-20 49.5q0 44 40 63l80 40v243q0 41 24 67.5t67 26.5t66 -26t23 -68v-154l24 12q18 7 32 7z" />
    <glyph glyph-name="Nacute" unicode="&#x143;" horiz-adv-x="793" 
d="M344 899l69 89q33 42 73 42q36 0 60 -24.5t24 -60.5q0 -44 -37 -74l-86 -74q-31 -24 -53 -24q-29 0 -49.5 19.5t-20.5 50.5q0 34 20 56zM168 -8q-44 0 -67.5 26t-23.5 68v540q0 49 24 75.5t65 26.5q36 0 60.5 -20.5t69.5 -83.5l240 -337h2l-2 348q0 41 23.5 67t67.5 26
q43 0 66 -25.5t23 -67.5v-541q0 -49 -24 -75.5t-67 -26.5q-39 0 -70 27t-88 106l-210 295h-2l2 -334q0 -41 -23 -67.5t-66 -26.5z" />
    <glyph glyph-name="nacute" unicode="&#x144;" 
d="M273 699l68 89q33 42 74 42q35 0 59.5 -24.5t24.5 -60.5q0 -42 -37 -74l-86 -73q-31 -24 -53 -24q-29 0 -50 19.5t-21 49.5q0 33 21 56zM150 -8q-43 0 -66.5 26t-23.5 68v353q0 34 18.5 54.5t53.5 20.5q34 0 53.5 -19.5t20.5 -51.5v-13h2q20 42 67 67t100 25
q208 0 208 -259v-177q0 -42 -23 -68t-66 -26t-67 26.5t-24 67.5v170q0 106 -75 106q-42 0 -65 -29t-23 -77l-1 -170q0 -42 -23 -68t-66 -26z" />
    <glyph glyph-name="uni0145" unicode="&#x145;" horiz-adv-x="793" 
d="M168 -8q-44 0 -67.5 26t-23.5 68v540q0 49 24 75.5t65 26.5q36 0 60.5 -20.5t69.5 -83.5l240 -337h2l-2 348q0 41 23.5 67t67.5 26q43 0 66 -25.5t23 -67.5v-541q0 -49 -24 -75.5t-67 -26.5q-39 0 -70 27t-88 106l-210 295h-2l2 -334q0 -41 -23 -67.5t-66 -26.5z
M369 -321q-32 0 -49.5 20.5t-13.5 51.5q7 61 10 131q0 30 20.5 50.5t53.5 20.5q37 0 57.5 -23.5t17.5 -56.5q-7 -79 -34 -151q-15 -43 -62 -43z" />
    <glyph glyph-name="uni0146" unicode="&#x146;" 
d="M150 -8q-43 0 -66.5 26t-23.5 68v353q0 34 18.5 54.5t53.5 20.5q34 0 53.5 -19.5t20.5 -51.5v-13h2q20 42 67 67t100 25q208 0 208 -259v-177q0 -42 -23 -68t-66 -26t-67 26.5t-24 67.5v170q0 106 -75 106q-42 0 -65 -29t-23 -77l-1 -170q0 -42 -23 -68t-66 -26z
M297 -321q-32 0 -49.5 20.5t-13.5 51.5q9 76 10 131q1 30 21 50.5t53 20.5q38 0 58 -23.5t17 -56.5q-7 -77 -33 -151q-17 -43 -63 -43z" />
    <glyph glyph-name="Ncaron" unicode="&#x147;" horiz-adv-x="793" 
d="M398 761q-48 0 -122 64l-41 36q-30 27 -30 60q0 30 19.5 50t47.5 20q24 0 45 -18l80 -72h2l81 72q21 18 45 18q28 0 47.5 -20t19.5 -50q0 -31 -31 -60l-40 -36q-72 -64 -123 -64zM168 -8q-44 0 -67.5 26t-23.5 68v540q0 49 24 75.5t65 26.5q36 0 60.5 -20.5t69.5 -83.5
l240 -337h2l-2 348q0 41 23.5 67t67.5 26q43 0 66 -25.5t23 -67.5v-541q0 -49 -24 -75.5t-67 -26.5q-39 0 -70 27t-88 106l-210 295h-2l2 -334q0 -41 -23 -67.5t-66 -26.5z" />
    <glyph glyph-name="ncaron" unicode="&#x148;" 
d="M327 562q-49 0 -122 63l-41 36q-30 27 -30 60q0 30 19.5 50t47.5 20q25 0 44 -18l81 -72h2l81 72q19 18 44 18q28 0 47.5 -20t19.5 -50q0 -31 -31 -60l-40 -36q-71 -63 -122 -63zM150 -8q-43 0 -66.5 26t-23.5 68v353q0 34 18.5 54.5t53.5 20.5q34 0 53.5 -19.5
t20.5 -51.5v-13h2q20 42 67 67t100 25q208 0 208 -259v-177q0 -42 -23 -68t-66 -26t-67 26.5t-24 67.5v170q0 106 -75 106q-42 0 -65 -29t-23 -77l-1 -170q0 -42 -23 -68t-66 -26z" />
    <glyph glyph-name="napostrophe" unicode="&#x149;" horiz-adv-x="729" 
d="M84 507q-32 0 -50 20.5t-13 51.5q8 87 9 131q1 30 21.5 50.5t53.5 20.5q37 0 57.5 -23.5t17.5 -56.5q-7 -79 -34 -151q-17 -43 -62 -43zM242 -8q-43 0 -66.5 26t-23.5 68v353q0 34 18.5 54.5t53.5 20.5t54 -19.5t20 -51.5v-13h2q20 42 67 67t101 25q207 0 207 -259v-177
q0 -42 -23 -68t-66 -26t-67 26.5t-24 67.5v170q0 106 -75 106q-41 0 -64.5 -29t-22.5 -77l-1 -170q0 -42 -23.5 -68t-66.5 -26z" />
    <glyph glyph-name="Eng" unicode="&#x14a;" horiz-adv-x="795" 
d="M77 86v540q0 49 24 75.5t65 26.5q36 0 60.5 -20.5t69.5 -83.5l240 -337h2l-2 348q0 41 23.5 67t67.5 26q43 0 66 -25.5t23 -67.5v-637q0 -228 -194 -228q-87 0 -132 32q-36 26 -36 69q0 28 17.5 47.5t47.5 19.5q16 0 38.5 -6.5t45.5 -6.5q27 0 40.5 15.5t13.5 39.5
q0 9 -3 17.5t-12 23t-16.5 25t-27 36.5t-31.5 43l-210 295h-2l2 -334q0 -41 -23 -67.5t-66 -26.5q-44 0 -67.5 26t-23.5 68z" />
    <glyph glyph-name="eng" unicode="&#x14b;" horiz-adv-x="640" 
d="M240 256l-1 -170q0 -42 -23 -68t-66 -26t-66.5 26t-23.5 68v353q0 34 18.5 54.5t53.5 20.5q34 0 53.5 -19.5t20.5 -51.5v-13h2q20 42 67 67t100 25q208 0 208 -259v-297q0 -96 -36.5 -146t-105.5 -50q-42 0 -69.5 24t-27.5 61q0 47 36 72q23 16 23 46v283q0 106 -75 106
q-42 0 -65 -29t-23 -77z" />
    <glyph glyph-name="Omacron" unicode="&#x14c;" horiz-adv-x="837" 
d="M548 823h-247q-29 0 -49.5 21t-20.5 50q0 28 20.5 49t49.5 21h247q29 0 49.5 -21t20.5 -50t-20.5 -49.5t-49.5 -20.5zM419 -16q-174 0 -275.5 105.5t-101.5 269.5t102 270t275 106t275 -106t102 -270q0 -165 -101 -270t-276 -105zM419 146q90 0 140 56.5t50 156.5
q0 101 -51 158t-141 57q-87 0 -138 -57.5t-51 -157.5q0 -99 51.5 -156t139.5 -57z" />
    <glyph glyph-name="omacron" unicode="&#x14d;" horiz-adv-x="634" 
d="M447 609h-247q-29 0 -49.5 21t-20.5 50q0 28 21 49t49 21h247q29 0 49.5 -21t20.5 -50t-20.5 -49.5t-49.5 -20.5zM317 -17q-130 0 -205.5 74t-75.5 196q0 124 76 196.5t205 72.5q128 0 204.5 -72.5t76.5 -196.5q0 -122 -75.5 -196t-205.5 -74zM317 137q46 0 73 31t27 85
q0 53 -27.5 84t-73.5 31q-45 0 -72.5 -30t-27.5 -85t28 -85.5t73 -30.5z" />
    <glyph glyph-name="Ohungarumlaut" unicode="&#x150;" horiz-adv-x="837" 
d="M315 769q-32 0 -55 23t-23 56q0 28 15 54l45 80q30 49 76 49q37 0 64.5 -26t27.5 -63q0 -30 -19 -55l-58 -76q-33 -42 -73 -42zM544 769q-32 0 -55 23t-23 56q0 28 15 54l45 80q30 49 76 49q37 0 64.5 -26t27.5 -63q0 -30 -19 -55l-58 -76q-33 -42 -73 -42zM419 -16
q-174 0 -275.5 105.5t-101.5 269.5t102 270t275 106t275 -106t102 -270q0 -165 -101 -270t-276 -105zM419 146q90 0 140 56.5t50 156.5q0 101 -51 158t-141 57q-87 0 -138 -57.5t-51 -157.5q0 -99 51.5 -156t139.5 -57z" />
    <glyph glyph-name="ohungarumlaut" unicode="&#x151;" horiz-adv-x="634" 
d="M214 555q-33 0 -56 23t-23 56q0 27 15 54l46 80q28 49 75 49q37 0 64.5 -26t27.5 -63q0 -30 -19 -55l-58 -76q-33 -42 -72 -42zM443 555q-33 0 -56 23t-23 56q0 27 15 54l46 80q28 49 75 49q37 0 64.5 -26t27.5 -63q0 -30 -19 -55l-57 -76q-34 -42 -73 -42zM317 -17
q-130 0 -205.5 74t-75.5 196q0 124 76 196.5t205 72.5q128 0 204.5 -72.5t76.5 -196.5q0 -122 -75.5 -196t-205.5 -74zM317 137q46 0 73 31t27 85q0 53 -27.5 84t-73.5 31q-45 0 -72.5 -30t-27.5 -85t28 -85.5t73 -30.5z" />
    <glyph glyph-name="OE" unicode="&#x152;" horiz-adv-x="1134" 
d="M1018 141q33 0 53.5 -20t20.5 -55q0 -34 -20 -54t-53 -20h-306q-62 0 -84 45q-89 -53 -210 -53q-174 0 -275.5 105.5t-101.5 269.5t102 270t275 106q118 0 209 -54q20 47 85 47h303q33 0 53.5 -20t20.5 -55q0 -34 -19.5 -53.5t-52.5 -19.5h-220v-144h188q34 0 54.5 -21
t20.5 -56t-20.5 -55t-53.5 -20h-189l1 -143h219zM419 146q90 0 140 56.5t50 156.5q0 101 -51 158t-141 57q-87 0 -138 -57.5t-51 -157.5q0 -99 51.5 -156t139.5 -57z" />
    <glyph glyph-name="oe" unicode="&#x153;" horiz-adv-x="969" 
d="M933 291q0 -43 -19.5 -63.5t-67.5 -20.5h-242q0 -30 31 -52t93 -22q30 0 66 10t54 10q30 0 47.5 -19t17.5 -46q0 -48 -43 -73q-50 -32 -148 -32q-134 0 -210 64q-75 -64 -195 -64q-130 0 -205.5 74t-75.5 196q0 124 76 196.5t205 72.5q120 0 194 -63q72 63 179 63
q117 0 180 -65t63 -166zM767 303v12q0 30 -20 50t-59 20q-37 0 -62.5 -23t-25.5 -59h167zM317 137q46 0 73 31t27 85q0 53 -27.5 84t-73.5 31q-45 0 -72.5 -30t-27.5 -85t28 -85.5t73 -30.5z" />
    <glyph glyph-name="Racute" unicode="&#x154;" horiz-adv-x="694" 
d="M294 898l69 89q33 41 73 41q36 0 60 -24t24 -61q0 -44 -37 -74l-86 -73q-31 -24 -53 -24q-29 0 -49.5 19.5t-20.5 50.5q0 33 20 56zM168 -8q-44 0 -67.5 26t-23.5 68v548q0 46 24 70.5t70 23.5h180q143 0 220.5 -61.5t77.5 -187.5q0 -148 -120 -216l81 -129
q22 -35 22 -64q0 -32 -27.5 -55t-68.5 -23q-27 0 -45.5 16t-37.5 48l-107 175h-89v-145q0 -41 -23 -67.5t-66 -26.5zM257 579v-203h108q52 0 80 26t28 75q0 52 -33 77t-89 25h-94z" />
    <glyph glyph-name="racute" unicode="&#x155;" horiz-adv-x="418" 
d="M166 686l69 89q33 42 73 42q35 0 59.5 -24.5t24.5 -60.5q0 -43 -37 -75l-86 -73q-31 -24 -53 -24q-29 0 -50 19.5t-21 50.5q0 33 21 56zM150 -8q-43 0 -66.5 26t-23.5 68v353q0 34 18.5 54.5t53.5 20.5t54 -16.5t20 -45.5v-8h2q43 78 124 78q36 0 56 -22.5t20 -53.5
q0 -32 -20 -56t-59 -24q-90 0 -90 -101v-179q0 -42 -23 -68t-66 -26z" />
    <glyph glyph-name="uni0156" unicode="&#x156;" horiz-adv-x="694" 
d="M168 -8q-44 0 -67.5 26t-23.5 68v548q0 46 24 70.5t70 23.5h180q143 0 220.5 -61.5t77.5 -187.5q0 -148 -120 -216l81 -129q22 -35 22 -64q0 -32 -27.5 -55t-68.5 -23q-27 0 -45.5 16t-37.5 48l-107 175h-89v-145q0 -41 -23 -67.5t-66 -26.5zM257 579v-203h108
q52 0 80 26t28 75q0 52 -33 77t-89 25h-94zM337 -321q-32 0 -49.5 20.5t-13.5 51.5q7 61 10 131q0 30 20.5 50.5t53.5 20.5q37 0 57.5 -23.5t17.5 -56.5q-7 -79 -34 -151q-15 -43 -62 -43z" />
    <glyph glyph-name="uni0157" unicode="&#x157;" horiz-adv-x="418" 
d="M150 -8q-43 0 -66.5 26t-23.5 68v353q0 34 18.5 54.5t53.5 20.5t54 -16.5t20 -45.5v-8h2q43 78 124 78q36 0 56 -22.5t20 -53.5q0 -32 -20 -56t-59 -24q-90 0 -90 -101v-179q0 -42 -23 -68t-66 -26zM123 -321q-32 0 -49.5 20.5t-13.5 51.5q7 61 10 131q0 30 20.5 50.5
t53.5 20.5q37 0 57.5 -23.5t17.5 -56.5q-7 -79 -34 -151q-15 -43 -62 -43z" />
    <glyph glyph-name="Rcaron" unicode="&#x158;" horiz-adv-x="694" 
d="M346 760q-50 0 -122 64l-41 36q-30 26 -30 60q0 30 19.5 49.5t47.5 19.5q26 0 45 -18l80 -71h2l81 71q19 18 45 18q28 0 47 -19.5t19 -49.5q0 -32 -30 -60l-40 -36q-72 -64 -123 -64zM168 -8q-44 0 -67.5 26t-23.5 68v548q0 46 24 70.5t70 23.5h180q143 0 220.5 -61.5
t77.5 -187.5q0 -148 -120 -216l81 -129q22 -35 22 -64q0 -32 -27.5 -55t-68.5 -23q-27 0 -45.5 16t-37.5 48l-107 175h-89v-145q0 -41 -23 -67.5t-66 -26.5zM257 579v-203h108q52 0 80 26t28 75q0 52 -33 77t-89 25h-94z" />
    <glyph glyph-name="rcaron" unicode="&#x159;" horiz-adv-x="418" 
d="M220 548q-50 0 -122 64l-41 36q-30 26 -30 60q0 30 19.5 50t47.5 20q24 0 45 -18l80 -72h2l81 72q21 18 44 18q29 0 48 -20t19 -50q0 -31 -31 -60l-40 -36q-72 -64 -122 -64zM150 -8q-43 0 -66.5 26t-23.5 68v353q0 34 18.5 54.5t53.5 20.5t54 -16.5t20 -45.5v-8h2
q43 78 124 78q36 0 56 -22.5t20 -53.5q0 -32 -20 -56t-59 -24q-90 0 -90 -101v-179q0 -42 -23 -68t-66 -26z" />
    <glyph glyph-name="Sacute" unicode="&#x15a;" horiz-adv-x="646" 
d="M267 920l69 89q33 42 73 42q35 0 59.5 -24.5t24.5 -60.5q0 -42 -37 -74l-86 -73q-31 -24 -53 -24q-29 0 -50 19.5t-21 49.5q0 33 21 56zM608 216q0 -111 -77.5 -172t-208.5 -61q-138 0 -222 53q-58 35 -58 84q0 36 22 56.5t58 20.5q22 0 83 -27.5t110 -27.5t72.5 19
t23.5 46q0 10 -4 19t-13.5 16.5t-18 13t-25.5 12t-27.5 10l-31.5 10.5t-31 10q-49 16 -82.5 32.5t-65 42t-47 63.5t-15.5 88q0 96 74 153.5t205 57.5q138 0 209 -48q43 -30 43 -73q0 -36 -21 -57t-57 -21q-28 0 -80 21.5t-91 21.5q-40 0 -62.5 -15.5t-22.5 -41.5
q0 -23 20.5 -37t62.5 -28q6 -2 17 -5q129 -40 175 -70q86 -56 86 -166z" />
    <glyph glyph-name="sacute" unicode="&#x15b;" horiz-adv-x="532" 
d="M217 701l68 89q33 42 74 42q35 0 59 -24.5t24 -60.5q0 -44 -36 -75l-87 -73q-30 -24 -52 -24q-29 0 -50 19.5t-21 50.5q0 33 21 56zM267 -17q-128 0 -194 46q-41 28 -41 71q0 28 17 45t45 17q21 0 70.5 -23.5t90.5 -23.5q60 0 60 31q0 24 -48 38q-10 3 -35 9q-6 2 -10 3
q-82 20 -129 58t-47 109q0 72 59.5 115.5t162.5 43.5t166 -39q45 -27 45 -65q0 -34 -24.5 -50.5t-61.5 -9.5q-9 2 -50.5 16.5t-67.5 14.5q-25 0 -37 -5.5t-12 -22.5q0 -18 19 -26.5t65 -18.5q2 0 3.5 -0.5l3 -1t3.5 -0.5q29 -7 48 -12.5t46 -18t43 -28.5t28 -42.5t12 -60.5
q0 -74 -56.5 -121.5t-173.5 -47.5z" />
    <glyph glyph-name="Scedilla" unicode="&#x15e;" horiz-adv-x="646" 
d="M608 216q0 -96 -58 -154.5t-160 -73.5l-6 -19q4 -1 10.5 -2t23 -9t29.5 -19t23.5 -33t10.5 -50q0 -51 -39.5 -87t-114.5 -36q-46 0 -79 19q-34 20 -34 52q0 25 14.5 39t33.5 14q10 0 24 -5.5t22 -5.5q32 0 32 31q0 29 -41 29q-23 0 -32.5 10t-2.5 39l9 30
q-107 10 -173 51q-58 35 -58 84q0 36 22 56.5t58 20.5q22 0 83 -27.5t110 -27.5t72.5 19t23.5 46q0 10 -4 19t-13.5 16.5t-18 13t-25.5 12t-27.5 10l-31.5 10.5t-31 10q-49 16 -82.5 32.5t-65 42t-47 63.5t-15.5 88q0 96 74 153.5t205 57.5q138 0 209 -48q43 -30 43 -73
q0 -36 -21 -57t-57 -21q-28 0 -80 21.5t-91 21.5q-40 0 -62.5 -15.5t-22.5 -41.5q0 -23 20.5 -37t62.5 -28q6 -2 17 -5q129 -40 175 -70q86 -56 86 -166z" />
    <glyph glyph-name="scedilla" unicode="&#x15f;" horiz-adv-x="532" 
d="M497 152q0 -63 -41 -107.5t-126 -57.5l-6 -19q4 -1 10.5 -2t23 -9t29.5 -19t23.5 -33t10.5 -50q0 -51 -39.5 -87t-114.5 -36q-46 0 -79 19q-34 20 -34 52q0 25 14.5 39t33.5 14q10 0 25 -5.5t22 -5.5q32 0 32 31q0 29 -42 29q-23 0 -32.5 10t-2.5 39l9 32q-89 8 -140 43
q-41 28 -41 71q0 28 17 45t45 17q21 0 70.5 -23.5t90.5 -23.5q60 0 60 31q0 24 -48 38q-10 3 -35 9q-6 2 -10 3q-82 20 -129 58t-47 109q0 72 59.5 115.5t162.5 43.5t166 -39q45 -27 45 -65q0 -34 -24.5 -50.5t-61.5 -9.5q-9 2 -50.5 16.5t-67.5 14.5q-25 0 -37 -5.5
t-12 -22.5q0 -18 19 -26.5t65 -18.5q2 0 3.5 -0.5l3 -1t3.5 -0.5q29 -7 48 -12.5t46 -18t43 -28.5t28 -42.5t12 -60.5z" />
    <glyph glyph-name="Scaron" unicode="&#x160;" horiz-adv-x="646" 
d="M321 783q-49 0 -122 63l-41 36q-30 27 -30 60q0 30 19.5 50t47.5 20q26 0 45 -18l80 -72h2l81 72q19 18 44 18q29 0 48 -20t19 -50q0 -31 -31 -60l-40 -36q-71 -63 -122 -63zM608 216q0 -111 -77.5 -172t-208.5 -61q-138 0 -222 53q-58 35 -58 84q0 36 22 56.5t58 20.5
q22 0 83 -27.5t110 -27.5t72.5 19t23.5 46q0 10 -4 19t-13.5 16.5t-18 13t-25.5 12t-27.5 10l-31.5 10.5t-31 10q-49 16 -82.5 32.5t-65 42t-47 63.5t-15.5 88q0 96 74 153.5t205 57.5q138 0 209 -48q43 -30 43 -73q0 -36 -21 -57t-57 -21q-28 0 -80 21.5t-91 21.5
q-40 0 -62.5 -15.5t-22.5 -41.5q0 -23 20.5 -37t62.5 -28q6 -2 17 -5q129 -40 175 -70q86 -56 86 -166z" />
    <glyph glyph-name="scaron" unicode="&#x161;" horiz-adv-x="532" 
d="M271 563q-50 0 -122 64l-42 36q-29 25 -29 60q0 30 19 50t48 20q23 0 44 -18l81 -72h2l81 72q19 18 44 18q28 0 47.5 -20t19.5 -50q0 -31 -31 -60l-40 -36q-72 -64 -122 -64zM267 -17q-128 0 -194 46q-41 28 -41 71q0 28 17 45t45 17q21 0 70.5 -23.5t90.5 -23.5
q60 0 60 31q0 24 -48 38q-10 3 -35 9q-6 2 -10 3q-82 20 -129 58t-47 109q0 72 59.5 115.5t162.5 43.5t166 -39q45 -27 45 -65q0 -34 -24.5 -50.5t-61.5 -9.5q-9 2 -50.5 16.5t-67.5 14.5q-25 0 -37 -5.5t-12 -22.5q0 -18 19 -26.5t65 -18.5q2 0 3.5 -0.5l3 -1t3.5 -0.5
q29 -7 48 -12.5t46 -18t43 -28.5t28 -42.5t12 -60.5q0 -74 -56.5 -121.5t-173.5 -47.5z" />
    <glyph glyph-name="uni0162" unicode="&#x162;" horiz-adv-x="668" 
d="M574 728q37 0 60 -23.5t23 -60.5q0 -36 -23 -59t-59 -23h-150l-1 -476q0 -54 -36 -79l-11 -34q4 -1 10.5 -2t23 -9t29.5 -19t23.5 -33t10.5 -50q0 -51 -39 -87t-114 -36q-48 0 -80 19q-33 18 -33 52q0 25 14.5 39t33.5 14q10 0 24 -5.5t22 -5.5q32 0 32 31q0 29 -42 29
q-23 0 -32 9.5t-3 38.5l12 41q1 3 2.5 7t1.5 6q-29 26 -29 74l-1 476h-151q-36 0 -58.5 23t-22.5 59q0 37 23 60.5t60 23.5h480z" />
    <glyph glyph-name="uni0163" unicode="&#x163;" horiz-adv-x="447" 
d="M371 154q23 0 39 -18t16 -49q0 -36 -19 -60q-30 -36 -96 -42l-7 -22q4 -1 10.5 -2.5t23 -9t29.5 -19t23.5 -33.5t10.5 -50q0 -51 -39.5 -86.5t-114.5 -35.5q-47 0 -79 18q-34 20 -34 52q0 25 14.5 39.5t33.5 14.5q10 0 24.5 -5.5t22.5 -5.5q31 0 31 30t-41 30
q-23 0 -32.5 9.5t-2.5 38.5l11 41q1 2 2.5 6t1.5 6q-97 44 -97 184v173h-13q-32 0 -53 21t-21 54q0 32 21 53t53 21h22q3 17 9 34q25 86 89 86q73 0 73 -81v-39h58q32 0 52.5 -21t20.5 -53q0 -33 -20.5 -54t-52.5 -21h-58v-153q0 -30 7 -46t30 -16q11 0 25.5 5.5t26.5 5.5z
" />
    <glyph glyph-name="Tcaron" unicode="&#x164;" horiz-adv-x="668" 
d="M334 761q-50 0 -122 64l-42 36q-29 26 -29 60q0 30 19 50t48 20q23 0 44 -18l81 -72h2l80 72q21 18 45 18q28 0 47.5 -20t19.5 -50q0 -31 -31 -60l-40 -36q-72 -64 -122 -64zM335 -8q-44 0 -67.5 26t-23.5 68l-1 476h-151q-36 0 -58.5 23t-22.5 59q0 37 23 60.5t60 23.5
h480q37 0 60 -23.5t23 -60.5q0 -36 -23 -59t-59 -23h-150l-1 -476q0 -41 -23 -67.5t-66 -26.5z" />
    <glyph glyph-name="tcaron" unicode="&#x165;" horiz-adv-x="447" 
d="M401 822q37 0 57 -23.5t17 -56.5q-6 -78 -33 -151q-17 -43 -63 -43q-31 0 -49 20.5t-13 51.5q8 87 9 131q1 30 21.5 50.5t53.5 20.5zM371 154q23 0 39 -18t16 -49q0 -36 -19 -60q-35 -43 -121 -43q-93 0 -138.5 56t-45.5 145v173h-13q-32 0 -53 21t-21 54q0 32 21 53
t53 21h22q3 17 9 34q25 86 89 86q73 0 73 -81v-39h58q32 0 52.5 -21t20.5 -53q0 -33 -20.5 -54t-52.5 -21h-58v-153q0 -30 7 -46t30 -16q11 0 25.5 5.5t26.5 5.5z" />
    <glyph glyph-name="Tbar" unicode="&#x166;" horiz-adv-x="681" 
d="M581 728q36 0 59 -23.5t23 -60.5q0 -36 -22.5 -59t-58.5 -23h-150v-170h68q30 0 50.5 -19.5t20.5 -51.5t-20.5 -51.5t-50.5 -19.5h-69v-164q0 -42 -23.5 -68t-66.5 -26t-66.5 26t-23.5 68l-1 164h-73q-30 0 -50.5 19.5t-20.5 51.5t20.5 51.5t50.5 19.5h73l-1 170h-150
q-36 0 -58.5 23t-22.5 59q0 37 23 60.5t59 23.5h481z" />
    <glyph glyph-name="tbar" unicode="&#x167;" horiz-adv-x="451" 
d="M371 154q23 0 39 -18t16 -49q0 -37 -20 -60q-35 -43 -118 -43q-91 0 -136 56t-45 145v52h-36q-21 0 -36 14.5t-15 36.5q0 23 14.5 37t36.5 14h36v42h-22q-28 0 -45.5 17t-17.5 46t17.5 46t45.5 17h30q5 21 10 34q25 86 89 86q73 0 73 -81v-39h65q27 0 44.5 -17t17.5 -46
t-17.5 -46t-44.5 -17h-65v-42h79q21 0 36 -14.5t15 -36.5t-15 -36.5t-36 -14.5h-79v-32q0 -30 6.5 -46t27.5 -16q10 0 24 5.5t26 5.5z" />
    <glyph glyph-name="Utilde" unicode="&#x168;" horiz-adv-x="777" 
d="M300 963q40 0 72.5 -12.5t54 -25t35.5 -12.5q11 0 17.5 4t14 15.5t10.5 14.5q17 19 45 19q31 0 47 -22.5t16 -54.5q0 -46 -32.5 -83t-89.5 -37q-48 0 -100.5 28t-71.5 28q-7 0 -13.5 -1.5t-10 -3t-7 -6t-5 -6.5t-4.5 -8l-4 -8q-15 -25 -48 -25q-29 0 -45.5 20t-16.5 49
q0 53 37.5 90t98.5 37zM388 -17q-158 0 -238.5 86.5t-80.5 245.5v320q0 41 23.5 67t66.5 26t66.5 -26t23.5 -67v-336q0 -154 139 -154q71 0 106 40.5t35 113.5v336q0 41 23.5 67t66.5 26t66.5 -26t23.5 -67v-320q0 -160 -81 -246t-240 -86z" />
    <glyph glyph-name="utilde" unicode="&#x169;" 
d="M234 756q40 0 72.5 -12.5t54 -25t35.5 -12.5q11 0 17.5 4t14 15.5t10.5 14.5q17 19 45 19q31 0 47 -22.5t16 -54.5q0 -46 -32.5 -83t-89.5 -37q-48 0 -100.5 28t-71.5 28q-9 0 -15.5 -1.5t-11 -6l-6.5 -6.5t-6 -9.5t-5 -8.5q-16 -26 -48 -26q-30 0 -46.5 20t-16.5 49
q0 53 38 90t99 37zM262 -17q-208 0 -208 262v176q0 41 23.5 67t66.5 26t66.5 -26t23.5 -67v-169q0 -108 75 -108q41 0 64.5 29t22.5 77l1 171q0 41 23.5 67t66.5 26t66.5 -26t23.5 -67v-354q0 -33 -19 -54t-54 -21q-34 0 -53.5 20t-20.5 51v14h-2q-20 -42 -66.5 -68
t-99.5 -26z" />
    <glyph glyph-name="Umacron" unicode="&#x16a;" horiz-adv-x="777" 
d="M518 808h-247q-29 0 -49.5 21t-20.5 50t20.5 49.5t49.5 20.5h247q29 0 49.5 -21t20.5 -50q0 -28 -21 -49t-49 -21zM388 -17q-158 0 -238.5 86.5t-80.5 245.5v320q0 41 23.5 67t66.5 26t66.5 -26t23.5 -67v-336q0 -154 139 -154q71 0 106 40.5t35 113.5v336q0 41 23.5 67
t66.5 26t66.5 -26t23.5 -67v-320q0 -160 -81 -246t-240 -86z" />
    <glyph glyph-name="umacron" unicode="&#x16b;" 
d="M445 601h-247q-29 0 -49.5 21t-20.5 50q0 28 21 49t49 21h247q28 0 48.5 -21t20.5 -50t-20.5 -49.5t-48.5 -20.5zM262 -17q-208 0 -208 262v176q0 41 23.5 67t66.5 26t66.5 -26t23.5 -67v-169q0 -108 75 -108q41 0 64.5 29t22.5 77l1 171q0 41 23.5 67t66.5 26t66.5 -26
t23.5 -67v-354q0 -33 -19 -54t-54 -21q-34 0 -53.5 20t-20.5 51v14h-2q-20 -42 -66.5 -68t-99.5 -26z" />
    <glyph glyph-name="Uring" unicode="&#x16e;" horiz-adv-x="777" 
d="M388 759q-57 0 -94 32.5t-37 90.5q0 59 37 91.5t94 32.5t95 -32.5t38 -91.5q0 -58 -38 -90.5t-95 -32.5zM388 849q30 0 30 33t-30 33q-29 0 -29 -33t29 -33zM388 -17q-158 0 -238.5 86.5t-80.5 245.5v320q0 41 23.5 67t66.5 26t66.5 -26t23.5 -67v-336q0 -154 139 -154
q71 0 106 40.5t35 113.5v336q0 41 23.5 67t66.5 26t66.5 -26t23.5 -67v-320q0 -160 -81 -246t-240 -86z" />
    <glyph glyph-name="uring" unicode="&#x16f;" 
d="M315 552q-57 0 -94.5 32.5t-37.5 91.5q0 58 37.5 90.5t94.5 32.5t95 -32.5t38 -90.5q0 -59 -37.5 -91.5t-95.5 -32.5zM315 643q30 0 30 33q0 32 -30 32q-13 0 -21 -8.5t-8 -23.5q0 -33 29 -33zM262 -17q-208 0 -208 262v176q0 41 23.5 67t66.5 26t66.5 -26t23.5 -67v-169
q0 -108 75 -108q41 0 64.5 29t22.5 77l1 171q0 41 23.5 67t66.5 26t66.5 -26t23.5 -67v-354q0 -33 -19 -54t-54 -21q-34 0 -53.5 20t-20.5 51v14h-2q-20 -42 -66.5 -68t-99.5 -26z" />
    <glyph glyph-name="Uhungarumlaut" unicode="&#x170;" horiz-adv-x="777" 
d="M285 754q-32 0 -55 23t-23 56q0 28 14 54l46 80q28 49 76 49q37 0 64.5 -26t27.5 -63q0 -28 -19 -55l-58 -76q-34 -42 -73 -42zM514 754q-32 0 -55 23t-23 56q0 29 15 54l45 80q28 49 76 49q37 0 64.5 -26t27.5 -63q0 -28 -19 -55l-58 -76q-34 -42 -73 -42zM388 -17
q-158 0 -238.5 86.5t-80.5 245.5v320q0 41 23.5 67t66.5 26t66.5 -26t23.5 -67v-336q0 -154 139 -154q71 0 106 40.5t35 113.5v336q0 41 23.5 67t66.5 26t66.5 -26t23.5 -67v-320q0 -160 -81 -246t-240 -86z" />
    <glyph glyph-name="uhungarumlaut" unicode="&#x171;" 
d="M205 548q-32 0 -55.5 22.5t-23.5 55.5q0 28 15 54l46 80q28 49 76 49q37 0 64 -26t27 -63q0 -30 -19 -55l-57 -76q-33 -41 -73 -41zM434 548q-32 0 -55.5 22.5t-23.5 55.5q0 28 15 54l46 80q28 49 76 49q37 0 64 -26t27 -63q0 -30 -19 -55l-57 -76q-33 -41 -73 -41z
M262 -17q-208 0 -208 262v176q0 41 23.5 67t66.5 26t66.5 -26t23.5 -67v-169q0 -108 75 -108q41 0 64.5 29t22.5 77l1 171q0 41 23.5 67t66.5 26t66.5 -26t23.5 -67v-354q0 -33 -19 -54t-54 -21q-34 0 -53.5 20t-20.5 51v14h-2q-20 -42 -66.5 -68t-99.5 -26z" />
    <glyph glyph-name="Uogonek" unicode="&#x172;" horiz-adv-x="777" 
d="M619 728q43 0 66.5 -26t23.5 -67v-320q0 -280 -235 -325l-6 -5q-67 -50 -67 -113q0 -42 42 -42q4 0 10 0.5t9 0.5q23 0 37.5 -16t14.5 -42q0 -31 -25 -47q-25 -18 -71 -18q-66 0 -110.5 39t-44.5 113q0 73 49 129q-121 20 -182 103.5t-61 222.5v320q0 41 23.5 67t66.5 26
t66.5 -26t23.5 -67v-336q0 -154 139 -154q71 0 106 40.5t35 113.5v336q0 41 23.5 67t66.5 26z" />
    <glyph glyph-name="uogonek" unicode="&#x173;" 
d="M543 -149q23 0 37.5 -15.5t14.5 -42.5q0 -31 -25 -47q-26 -17 -71 -17q-67 0 -111 38.5t-44 112.5q0 100 88 166q-2 12 -2 17v14h-2q-20 -42 -66.5 -68t-99.5 -26q-208 0 -208 262v176q0 41 23.5 67t66.5 26t66.5 -26t23.5 -67v-169q0 -108 75 -108q41 0 64.5 29t22.5 77
l1 171q0 41 23.5 67t66.5 26t66.5 -26t23.5 -67v-354q0 -40 -26 -60l-2 -2q-67 -50 -67 -112q0 -43 41 -43q3 0 10 0.5t10 0.5z" />
    <glyph glyph-name="Wcircumflex" unicode="&#x174;" horiz-adv-x="1047" 
d="M398 761q-28 0 -47.5 20t-19.5 50q0 31 31 60l40 36q74 64 122 64q49 0 123 -64l41 -36q29 -25 29 -60q0 -30 -19 -50t-47 -20q-24 0 -45 18l-81 71h-2l-80 -71q-23 -18 -45 -18zM315 -7q-53 0 -81.5 31.5t-53.5 115.5l-147 476q-14 46 10 79t75 33q40 0 59 -17.5
t29 -58.5l109 -430h2l93 386q17 69 44 94.5t73 25.5q44 0 70 -26t42 -93l93 -387h2l108 430q11 42 30 59t58 17q49 0 74.5 -33t11.5 -79l-147 -471q-27 -88 -55.5 -120.5t-79.5 -32.5q-55 0 -83.5 34t-49.5 119l-76 304h-2l-76 -306q-21 -81 -50.5 -115.5t-81.5 -34.5z" />
    <glyph glyph-name="wcircumflex" unicode="&#x175;" horiz-adv-x="839" 
d="M294 548q-28 0 -47.5 20t-19.5 50q0 31 31 60l40 36q74 64 122 64t122 -64l42 -36q29 -26 29 -60q0 -30 -19 -50t-48 -20q-23 0 -44 18l-81 71h-2l-81 -71q-21 -18 -44 -18zM250 -8h-5q-54 0 -82 31.5t-46 96.5l-84 281q-14 50 8.5 81.5t74.5 31.5q61 0 77 -77l64 -250h2
l55 218q14 59 38 84t69 25h5q43 -1 64 -25t35 -84l56 -218h2l63 250q9 39 27.5 58t55.5 19q49 0 70.5 -31.5t7.5 -81.5l-84 -281q-20 -64 -47.5 -95.5t-79.5 -32.5h-6q-51 0 -78.5 31t-43.5 94l-48 172h-2l-46 -172q-16 -60 -44.5 -92.5t-77.5 -32.5z" />
    <glyph glyph-name="Ycircumflex" unicode="&#x176;" horiz-adv-x="654" 
d="M200 771q-29 0 -48 20t-19 50q0 31 31 60l40 36q73 63 122 63t122 -63l41 -36q30 -27 30 -60q0 -30 -19.5 -50t-47.5 -20q-23 0 -44 18l-81 71h-2l-81 -71q-21 -18 -44 -18zM328 -8q-45 0 -69 27t-24 69v180l-193 325q-15 25 -15 53q0 35 24.5 58.5t62.5 23.5
q30 0 47.5 -12.5t36.5 -49.5l128 -230h2l126 231q19 35 36.5 48t46.5 13q39 0 63 -23t24 -58q0 -27 -14 -53l-190 -326v-180q0 -42 -24 -69t-68 -27z" />
    <glyph glyph-name="ycircumflex" unicode="&#x177;" horiz-adv-x="572" 
d="M161 548q-28 0 -47 20t-19 50q0 31 31 60l39 36q74 64 123 64q48 0 122 -64l41 -36q30 -27 30 -60q0 -30 -19.5 -50t-47.5 -20q-22 0 -45 18l-80 71h-2l-81 -71q-21 -18 -45 -18zM149 -230q-41 0 -66 13q-44 24 -44 74q0 30 19 48.5t49 18.5h16q30 0 47 13t27 43
l-162 414q-18 44 7.5 82t76.5 38q38 0 56 -19.5t27 -54.5l87 -305h3l80 293q8 39 27.5 62.5t60.5 23.5q53 0 75 -34.5t3 -84.5l-146 -388q-50 -133 -105.5 -185t-137.5 -52z" />
    <glyph glyph-name="Ydieresis" unicode="&#x178;" horiz-adv-x="654" 
d="M208 788q-47 0 -74.5 27t-27.5 70q0 41 28 67.5t74 26.5q45 0 72 -26.5t27 -67.5q0 -44 -26.5 -70.5t-72.5 -26.5zM453 788q-47 0 -74.5 27t-27.5 70q0 41 28 67.5t74 26.5q45 0 72 -26.5t27 -67.5q0 -44 -26.5 -70.5t-72.5 -26.5zM328 -8q-45 0 -69 27t-24 69v180
l-193 325q-15 25 -15 53q0 35 24.5 58.5t62.5 23.5q30 0 47.5 -12.5t36.5 -49.5l128 -230h2l126 231q19 35 36.5 48t46.5 13q39 0 63 -23t24 -58q0 -27 -14 -53l-190 -326v-180q0 -42 -24 -69t-68 -27z" />
    <glyph glyph-name="Zacute" unicode="&#x179;" horiz-adv-x="696" 
d="M280 902l69 89q33 42 74 42q35 0 59 -24.5t24 -60.5q0 -44 -37 -74l-86 -73q-31 -24 -52 -24q-29 0 -50 19.5t-21 49.5q0 34 20 56zM586 -8h-470q-39 0 -64 26t-25 63q0 32 21 58l353 429h-275q-37 0 -60 21t-23 59t23 59t60 21h440q42 0 66.5 -25t24.5 -65
q0 -32 -23 -60l-355 -425h306q37 0 60.5 -21t23.5 -60q0 -38 -23 -59t-60 -21z" />
    <glyph glyph-name="zacute" unicode="&#x17a;" horiz-adv-x="546" 
d="M216 686l69 89q33 42 73 42q35 0 59.5 -24.5t24.5 -60.5q0 -45 -37 -75l-86 -73q-31 -24 -53 -24q-29 0 -50 19.5t-21 50.5q0 33 21 56zM441 -8h-334q-38 0 -57.5 21.5t-19.5 56.5q0 27 21 51l205 246h-140q-34 0 -55 19t-21 55q0 35 21 54t55 19h310q37 0 59.5 -20
t22.5 -56q0 -29 -22 -53l-209 -246h164q34 0 55 -19t21 -54q0 -36 -21 -55t-55 -19z" />
    <glyph glyph-name="Zdotaccent" unicode="&#x17b;" horiz-adv-x="696" 
d="M344 782q-51 0 -82 29.5t-31 78.5q0 50 31 79t82 29q50 0 81 -29t31 -79q0 -49 -30.5 -78.5t-81.5 -29.5zM586 -8h-470q-39 0 -64 26t-25 63q0 32 21 58l353 429h-275q-37 0 -60 21t-23 59t23 59t60 21h440q42 0 66.5 -25t24.5 -65q0 -32 -23 -60l-355 -425h306
q37 0 60.5 -21t23.5 -60q0 -38 -23 -59t-60 -21z" />
    <glyph glyph-name="zdotaccent" unicode="&#x17c;" horiz-adv-x="546" 
d="M270 566q-51 0 -82 29t-31 79t31 78.5t82 28.5q50 0 80.5 -28.5t30.5 -78.5t-30 -79t-81 -29zM441 -8h-334q-38 0 -57.5 21.5t-19.5 56.5q0 27 21 51l205 246h-140q-34 0 -55 19t-21 55q0 35 21 54t55 19h310q37 0 59.5 -20t22.5 -56q0 -29 -22 -53l-209 -246h164
q34 0 55 -19t21 -54q0 -36 -21 -55t-55 -19z" />
    <glyph glyph-name="Zcaron" unicode="&#x17d;" horiz-adv-x="696" 
d="M351 765q-49 0 -122 63l-41 37q-30 25 -30 59q0 30 19.5 50t47.5 20q26 0 45 -18l80 -72h2l81 72q19 18 45 18q28 0 47 -20t19 -50q0 -31 -31 -59l-39 -37q-71 -63 -123 -63zM586 -8h-470q-39 0 -64 26t-25 63q0 32 21 58l353 429h-275q-37 0 -60 21t-23 59t23 59t60 21
h440q42 0 66.5 -25t24.5 -65q0 -32 -23 -60l-355 -425h306q37 0 60.5 -21t23.5 -60q0 -38 -23 -59t-60 -21z" />
    <glyph glyph-name="zcaron" unicode="&#x17e;" horiz-adv-x="546" 
d="M270 548q-50 0 -122 64l-41 36q-30 26 -30 60q0 30 19.5 50t47.5 20q24 0 45 -18l80 -72h2l81 72q21 18 44 18q29 0 48 -20t19 -50q0 -31 -31 -60l-40 -36q-72 -64 -122 -64zM441 -8h-334q-38 0 -57.5 21.5t-19.5 56.5q0 27 21 51l205 246h-140q-34 0 -55 19t-21 55
q0 35 21 54t55 19h310q37 0 59.5 -20t22.5 -56q0 -29 -22 -53l-209 -246h164q34 0 55 -19t21 -54q0 -36 -21 -55t-55 -19z" />
    <glyph glyph-name="uni01EA" unicode="&#x1ea;" horiz-adv-x="837" 
d="M502 -9q-67 -50 -67 -113q0 -43 42 -43q4 0 10.5 1t9.5 1q22 0 37 -16t15 -42q0 -30 -25 -47q-27 -18 -72 -18q-66 0 -110 38.5t-44 112.5q0 71 45 125q-141 23 -221 123.5t-80 245.5q0 164 102 270t275 106t275 -106t102 -270q0 -143 -78 -243.5t-216 -124.5zM228 359
q0 -99 51.5 -156t139.5 -57q90 0 140 56.5t50 156.5q0 101 -51 158t-141 57q-87 0 -138 -57.5t-51 -157.5z" />
    <glyph glyph-name="uni01EB" unicode="&#x1eb;" horiz-adv-x="634" 
d="M398 -8q-53 -47 -53 -102q0 -43 42 -43q4 0 10 1t9 1q23 0 38 -16t15 -42q0 -31 -26 -47q-25 -18 -71 -18q-66 0 -110 39t-44 112q0 63 35 113q-97 20 -152 89.5t-55 173.5q0 124 76 196.5t205 72.5q128 0 204.5 -72.5t76.5 -196.5q0 -102 -53 -171t-147 -90zM316 368
q-45 0 -72.5 -30t-27.5 -85t28 -85.5t73 -30.5q46 0 73 31t27 85q0 53 -27.5 84t-73.5 31z" />
    <glyph glyph-name="AEacute" unicode="&#x1fc;" horiz-adv-x="947" 
d="M565 773q-29 0 -49.5 19.5t-20.5 50.5q0 34 20 56l69 89q33 42 73 42q36 0 60 -24.5t24 -60.5q0 -44 -37 -74l-86 -74q-31 -24 -53 -24zM831 141q32 0 53 -20.5t21 -54.5t-20 -54t-53 -20h-306q-46 0 -70 24.5t-24 69.5v51h-200l-48 -95q-13 -25 -30.5 -37.5t-50.5 -12.5
q-55 0 -78 41.5t-2 84.5l264 510q28 58 54 79t72 21h416q33 0 53.5 -20t20.5 -55q0 -34 -20 -53.5t-52 -19.5h-221l1 -144h188q33 0 54 -21t21 -56t-20.5 -55t-53.5 -20h-189l1 -143h219zM306 283h126v246h-2z" />
    <glyph glyph-name="aeacute" unicode="&#x1fd;" horiz-adv-x="906" 
d="M443 572q-29 0 -50 19.5t-21 50.5q0 32 21 56l68 89q33 42 74 42q35 0 59.5 -24.5t24.5 -60.5q0 -43 -37 -75l-86 -73q-31 -24 -53 -24zM870 291q0 -43 -19.5 -63.5t-67.5 -20.5h-243q0 -30 31 -52t93 -22q31 0 66.5 10t53.5 10q30 0 48 -19t18 -46q0 -48 -43 -73
q-51 -32 -148 -32q-155 0 -232 85q-30 -33 -86 -58.5t-120 -25.5q-90 0 -142 40.5t-52 116.5q0 80 57 123.5t144 43.5q74 0 131 -30q0 53 -30 72.5t-85 19.5q-15 0 -70 -10q-37 -7 -42 -7q-30 0 -46.5 17.5t-16.5 48.5q0 55 64 80q54 23 141 23q122 0 180 -58q71 58 172 58
q118 0 181 -65t63 -166zM703 303q1 3 1 12q0 30 -20 50t-60 20q-37 0 -62 -23t-25 -59h166zM262 109q35 0 64 23t33 55q-33 21 -78 21q-36 0 -57.5 -14t-21.5 -38q0 -47 60 -47z" />
    <glyph glyph-name="Oslashacute" unicode="&#x1fe;" horiz-adv-x="866" 
d="M419 788q-29 0 -50 19.5t-21 50.5q0 33 21 56l69 89q33 42 73 42q36 0 60 -24.5t24 -60.5q0 -44 -37 -74l-86 -74q-31 -24 -53 -24zM842 670q0 -34 -28 -62l-52 -51q49 -87 49 -198q0 -165 -101 -270t-275 -105q-114 0 -203 49l-46 -46q-29 -28 -62 -28q-35 0 -62.5 27.5
t-27.5 64.5q0 35 28 63l45 44q-50 86 -50 201q0 164 102 270t275 106q115 0 205 -52l51 50q27 27 61 27q36 0 63.5 -28t27.5 -62zM434 146q90 0 140.5 56.5t50.5 156.5q0 101 -51.5 158t-140.5 57q-88 0 -139 -57t-51 -158q0 -99 51.5 -156t139.5 -57z" />
    <glyph glyph-name="oslashacute" unicode="&#x1ff;" horiz-adv-x="645" 
d="M318 581q-29 0 -50 19.5t-21 49.5q0 32 21 57l69 88q33 42 73 42q36 0 60 -24t24 -61q0 -44 -37 -74l-86 -73q-31 -24 -53 -24zM586 411l-16 -16q34 -62 34 -142q0 -122 -75.5 -196t-205.5 -74q-79 0 -140 29l-20 -20q-38 -36 -83 -16t-45 68q0 30 23 52l17 16
q-34 62 -34 141q0 124 76 196.5t206 72.5q76 0 137 -28l22 22q38 34 82.5 13.5t44.5 -67.5q0 -29 -23 -51zM323 137q46 0 73 31t27 85q0 53 -27.5 84t-74.5 31q-45 0 -72 -30t-27 -85t28 -85.5t73 -30.5z" />
    <glyph glyph-name="uni0218" unicode="&#x218;" horiz-adv-x="646" 
d="M608 216q0 -111 -77.5 -172t-208.5 -61q-138 0 -222 53q-58 35 -58 84q0 36 22 56.5t58 20.5q22 0 83 -27.5t110 -27.5t72.5 19t23.5 46q0 10 -4 19t-13.5 16.5t-18 13t-25.5 12t-27.5 10l-31.5 10.5t-31 10q-49 16 -82.5 32.5t-65 42t-47 63.5t-15.5 88q0 96 74 153.5
t205 57.5q138 0 209 -48q43 -30 43 -73q0 -36 -21 -57t-57 -21q-28 0 -80 21.5t-91 21.5q-40 0 -62.5 -15.5t-22.5 -41.5q0 -23 20.5 -37t62.5 -28q6 -2 17 -5q129 -40 175 -70q86 -56 86 -166zM299 -324q-31 0 -49 20t-14 52q9 74 10 130q1 31 21 51t54 20q37 0 57 -23
t17 -56q-7 -79 -33 -152q-16 -42 -63 -42z" />
    <glyph glyph-name="uni0219" unicode="&#x219;" horiz-adv-x="532" 
d="M267 -17q-128 0 -194 46q-41 28 -41 71q0 28 17 45t45 17q21 0 70.5 -23.5t90.5 -23.5q60 0 60 31q0 24 -48 38q-10 3 -35 9q-6 2 -10 3q-82 20 -129 58t-47 109q0 72 59.5 115.5t162.5 43.5t166 -39q45 -27 45 -65q0 -34 -24.5 -50.5t-61.5 -9.5q-9 2 -50.5 16.5
t-67.5 14.5q-25 0 -37 -5.5t-12 -22.5q0 -18 19 -26.5t65 -18.5q2 0 3.5 -0.5l3 -1t3.5 -0.5q29 -7 48 -12.5t46 -18t43 -28.5t28 -42.5t12 -60.5q0 -74 -56.5 -121.5t-173.5 -47.5zM240 -326q-32 0 -50 20.5t-13 52.5q8 84 9 130q1 31 21.5 51t53.5 20q37 0 57.5 -23.5
t17.5 -56.5q-7 -80 -34 -151q-17 -43 -62 -43z" />
    <glyph glyph-name="uni021A" unicode="&#x21a;" horiz-adv-x="668" 
d="M335 -8q-44 0 -67.5 26t-23.5 68l-1 476h-151q-36 0 -58.5 23t-22.5 59q0 37 23 60.5t60 23.5h480q37 0 60 -23.5t23 -60.5q0 -36 -23 -59t-59 -23h-150l-1 -476q0 -41 -23 -67.5t-66 -26.5zM306 -321q-32 0 -50 20.5t-13 51.5q8 87 9 131q1 30 21.5 50.5t53.5 20.5
q37 0 57.5 -23.5t17.5 -56.5q-7 -79 -34 -151q-17 -43 -62 -43z" />
    <glyph glyph-name="uni021B" unicode="&#x21b;" horiz-adv-x="447" 
d="M371 154q23 0 39 -18t16 -49q0 -36 -19 -60q-35 -43 -121 -43q-93 0 -138.5 56t-45.5 145v173h-13q-32 0 -53 21t-21 54q0 32 21 53t53 21h22q3 17 9 34q25 86 89 86q73 0 73 -81v-39h58q32 0 52.5 -21t20.5 -53q0 -33 -20.5 -54t-52.5 -21h-58v-153q0 -30 7 -46t30 -16
q11 0 25.5 5.5t26.5 5.5zM254 -46q37 0 57.5 -23.5t17.5 -56.5q-7 -79 -34 -151q-17 -43 -63 -43q-31 0 -49 20.5t-13 51.5q8 87 9 131q1 30 21.5 50.5t53.5 20.5z" />
    <glyph glyph-name="uni0237" unicode="&#x237;" horiz-adv-x="311" 
d="M62 -230q-76 0 -114 38q-28 28 -28 65q0 31 17.5 50t44.5 19q11 0 26.5 -6t25.5 -6q22 0 28.5 16.5t6.5 53.5l1 421q0 41 23.5 67t66.5 26t66 -25.5t23 -67.5l1 -430q0 -44 -9.5 -81.5t-30 -70t-58.5 -51t-90 -18.5z" />
    <glyph glyph-name="circumflex" unicode="&#x2c6;" horiz-adv-x="600" 
d="M168 586q-28 0 -47.5 20t-19.5 50q0 31 31 59l40 37q73 63 122 63q50 0 123 -63l41 -37q30 -25 30 -59q0 -30 -19.5 -50t-47.5 -20q-24 0 -45 18l-81 71h-2l-80 -71q-21 -18 -45 -18z" />
    <glyph glyph-name="caron" unicode="&#x2c7;" horiz-adv-x="600" 
d="M284 538q-49 0 -122 63l-41 37q-30 26 -30 60q0 30 19.5 49.5t47.5 19.5q26 0 45 -18l80 -71h2l81 71q19 18 45 18q28 0 47 -19.5t19 -49.5q0 -32 -31 -60l-39 -37q-73 -63 -123 -63z" />
    <glyph glyph-name="breve" unicode="&#x2d8;" horiz-adv-x="600" 
d="M273 669q37 0 53 45q16 47 66 47q32 0 51 -20t19 -52q0 -64 -53.5 -105.5t-135.5 -41.5q-83 0 -136.5 41.5t-53.5 105.5q0 32 19.5 52t50.5 20q49 0 66 -48q15 -44 54 -44z" />
    <glyph glyph-name="dotaccent" unicode="&#x2d9;" horiz-adv-x="600" 
d="M162 555q-51 0 -82.5 29.5t-31.5 79.5t31.5 78.5t82.5 28.5q50 0 80.5 -28.5t30.5 -78.5t-30.5 -79.5t-80.5 -29.5z" />
    <glyph glyph-name="ring" unicode="&#x2da;" horiz-adv-x="600" 
d="M205 536q-57 0 -94 32.5t-37 90.5q0 59 37 91.5t94 32.5t95 -32.5t38 -91.5q0 -58 -38 -90.5t-95 -32.5zM205 626q30 0 30 33q0 32 -30 32q-13 0 -21 -8.5t-8 -23.5q0 -33 29 -33z" />
    <glyph glyph-name="ogonek" unicode="&#x2db;" horiz-adv-x="600" 
d="M216 -294q-66 0 -110 38.5t-44 112.5q0 126 150 205q9 5 25 5q20 0 34.5 -13.5t14.5 -32.5q0 -24 -20 -38q-67 -50 -67 -113q0 -43 42 -43q4 0 10.5 1t9.5 1q22 0 37 -16t15 -42q0 -31 -26 -47q-25 -18 -71 -18z" />
    <glyph glyph-name="tilde" unicode="&#x2dc;" horiz-adv-x="510" 
d="M199 739q40 0 72.5 -12.5t54 -25t35.5 -12.5q8 0 15 3.5t10 7t8.5 11.5t8.5 12q15 19 45 19q31 0 47 -22t16 -55q0 -45 -32.5 -82.5t-89.5 -37.5q-48 0 -100.5 28t-71.5 28q-8 0 -14 -1.5t-9.5 -3t-7 -6t-4.5 -6t-4.5 -8t-4.5 -7.5q-15 -25 -48 -25q-30 0 -46 19.5
t-16 48.5q0 53 37.5 90t98.5 37z" />
    <glyph glyph-name="hungarumlaut" unicode="&#x2dd;" horiz-adv-x="600" 
d="M158 531q-32 0 -55.5 22.5t-23.5 56.5q0 27 15 54l46 79q28 50 75 50q37 0 64.5 -26.5t27.5 -63.5q0 -30 -19 -55l-57 -75q-33 -42 -73 -42zM387 531q-32 0 -55.5 22.5t-23.5 56.5q0 27 15 54l46 79q28 50 76 50q36 0 63.5 -26.5t27.5 -63.5q0 -30 -19 -55l-57 -75
q-33 -42 -73 -42z" />
    <glyph glyph-name="gravecomb" unicode="&#x300;" horiz-adv-x="0" 
d="M-168 765l69 -89q20 -23 20 -56q0 -31 -20.5 -50.5t-49.5 -19.5q-22 0 -53 24l-86 73q-37 30 -37 74q0 37 24 61t59 24q41 0 74 -41z" />
    <glyph glyph-name="acutecomb" unicode="&#x301;" horiz-adv-x="0" 
d="M-348 676l68 89q33 41 74 41q35 0 59 -24t24 -61q0 -43 -36 -74l-87 -73q-30 -24 -52 -24q-29 0 -50 19.5t-21 50.5q0 32 21 56z" />
    <glyph glyph-name="uni0302" unicode="&#x302;" horiz-adv-x="0" 
d="M-421 586q-28 0 -47.5 20t-19.5 50q0 31 31 59l40 37q73 63 122 63q50 0 123 -63l41 -37q30 -25 30 -59q0 -30 -19.5 -50t-47.5 -20q-24 0 -45 18l-81 71h-2l-80 -71q-21 -18 -45 -18z" />
    <glyph glyph-name="tildecomb" unicode="&#x303;" horiz-adv-x="0" 
d="M-365 739q40 0 72.5 -12.5t54 -25t35.5 -12.5q8 0 15 3.5t10 7t8.5 11.5t8.5 12q17 19 46 19q30 0 46 -22t16 -55q0 -45 -32.5 -82.5t-89.5 -37.5q-48 0 -100.5 28t-71.5 28q-8 0 -14 -1.5t-9.5 -3t-7 -6t-4.5 -6t-4.5 -8t-4.5 -7.5q-13 -25 -48 -25q-30 0 -46 19.5
t-16 48.5q0 53 37.5 90t98.5 37z" />
    <glyph glyph-name="uni0304" unicode="&#x304;" horiz-adv-x="0" 
d="M-132 585h-247q-29 0 -49 20.5t-20 50.5q0 29 20.5 49.5t48.5 20.5h247q29 0 49.5 -21t20.5 -51q0 -29 -20.5 -49t-49.5 -20z" />
    <glyph glyph-name="uni0306" unicode="&#x306;" horiz-adv-x="0" 
d="M-273 669q37 0 53 45q16 47 66 47q32 0 51 -20t19 -52q0 -64 -53.5 -105.5t-135.5 -41.5q-83 0 -136.5 41.5t-53.5 105.5q0 32 19.5 52t50.5 20q49 0 66 -48q15 -44 54 -44z" />
    <glyph glyph-name="uni0307" unicode="&#x307;" horiz-adv-x="0" 
d="M-162 555q-51 0 -82.5 29.5t-31.5 79.5t31.5 78.5t82.5 28.5q50 0 80.5 -28.5t30.5 -78.5t-30.5 -79.5t-80.5 -29.5z" />
    <glyph glyph-name="uni0308" unicode="&#x308;" horiz-adv-x="0" 
d="M-421 555q-47 0 -74.5 26.5t-27.5 69.5q0 41 28 68t74 27q45 0 72 -27t27 -68q0 -43 -26.5 -69.5t-72.5 -26.5zM-176 555q-47 0 -74.5 26.5t-27.5 69.5q0 41 28 68t74 27t72.5 -27t26.5 -68q0 -43 -26.5 -69.5t-72.5 -26.5z" />
    <glyph glyph-name="uni030A" unicode="&#x30a;" horiz-adv-x="0" 
d="M-207 536q-57 0 -94 32.5t-37 90.5q0 59 37 91.5t94 32.5t95 -32.5t38 -91.5q0 -58 -38 -90.5t-95 -32.5zM-207 626q30 0 30 33q0 32 -30 32q-13 0 -21 -8.5t-8 -23.5q0 -33 29 -33z" />
    <glyph glyph-name="uni030B" unicode="&#x30b;" horiz-adv-x="0" 
d="M-445 531q-32 0 -55.5 22.5t-23.5 56.5q0 27 15 54l46 79q28 50 75 50q37 0 64.5 -26.5t27.5 -63.5q0 -30 -19 -55l-57 -75q-33 -42 -73 -42zM-216 531q-32 0 -55.5 22.5t-23.5 56.5q0 27 15 54l46 79q28 50 76 50q36 0 63.5 -26.5t27.5 -63.5q0 -30 -19 -55l-57 -75
q-33 -42 -73 -42z" />
    <glyph glyph-name="uni030C" unicode="&#x30c;" horiz-adv-x="0" 
d="M-285 538q-49 0 -122 63l-41 37q-30 26 -30 60q0 30 19.5 49.5t47.5 19.5q26 0 45 -18l80 -71h2l81 71q19 18 45 18q28 0 47 -19.5t19 -49.5q0 -32 -31 -60l-39 -37q-73 -63 -123 -63z" />
    <glyph glyph-name="uni0326" unicode="&#x326;" horiz-adv-x="0" 
d="M-180 -176q-32 0 -49.5 20.5t-13.5 51.5q7 61 10 130q0 31 20.5 51t53.5 20q37 0 57.5 -23t17.5 -56q-7 -81 -34 -152q-16 -42 -62 -42z" />
    <glyph glyph-name="uni0327" unicode="&#x327;" horiz-adv-x="0" 
d="M-204 -293q-48 0 -80 19q-33 18 -33 52q0 25 14.5 39t33.5 14q10 0 24 -5.5t22 -5.5q32 0 32 31q0 29 -42 29q-23 0 -32 9.5t-3 38.5l11 39q8 29 21.5 40t42.5 11q26 0 44 -11.5t11 -32.5l-10 -31q4 -1 10.5 -2t23 -9t29.5 -19t23.5 -33t10.5 -50q0 -51 -39.5 -87
t-113.5 -36z" />
    <glyph glyph-name="uni0328" unicode="&#x328;" horiz-adv-x="0" 
d="M-177 -294q-66 0 -110 38.5t-44 112.5q0 126 150 205q9 5 25 5q20 0 34.5 -13.5t14.5 -32.5q0 -24 -20 -38q-67 -50 -67 -113q0 -43 42 -43q4 0 10 1t10 1q22 0 37 -16t15 -42q0 -31 -26 -47q-25 -18 -71 -18z" />
    <glyph glyph-name="Wgrave" unicode="&#x1e80;" horiz-adv-x="1047" 
d="M501 988l68 -89q21 -23 21 -56q0 -31 -21 -50.5t-50 -19.5q-22 0 -53 24l-86 74q-37 32 -37 74q0 36 24.5 60.5t59.5 24.5q41 0 74 -42zM315 -7q-53 0 -81.5 31.5t-53.5 115.5l-147 476q-14 46 10 79t75 33q40 0 59 -17.5t29 -58.5l109 -430h2l93 386q17 69 44 94.5
t73 25.5q44 0 70 -26t42 -93l93 -387h2l108 430q11 42 30 59t58 17q49 0 74.5 -33t11.5 -79l-147 -471q-27 -88 -55.5 -120.5t-79.5 -32.5q-55 0 -83.5 34t-49.5 119l-76 304h-2l-76 -306q-21 -81 -50.5 -115.5t-81.5 -34.5z" />
    <glyph glyph-name="wgrave" unicode="&#x1e81;" horiz-adv-x="839" 
d="M396 775l69 -89q21 -23 21 -56q0 -31 -21 -50.5t-50 -19.5q-22 0 -53 24l-86 73q-37 30 -37 75q0 36 24 60.5t60 24.5q40 0 73 -42zM250 -8h-5q-54 0 -82 31.5t-46 96.5l-84 281q-14 50 8.5 81.5t74.5 31.5q61 0 77 -77l64 -250h2l55 218q14 59 38 84t69 25h5
q43 -1 64 -25t35 -84l56 -218h2l63 250q9 39 27.5 58t55.5 19q49 0 70.5 -31.5t7.5 -81.5l-84 -281q-20 -64 -47.5 -95.5t-79.5 -32.5h-6q-51 0 -78.5 31t-43.5 94l-48 172h-2l-46 -172q-16 -60 -44.5 -92.5t-77.5 -32.5z" />
    <glyph glyph-name="Wacute" unicode="&#x1e82;" horiz-adv-x="1047" 
d="M470 899l69 89q32 42 73 42q35 0 59.5 -24.5t24.5 -60.5q0 -42 -37 -74l-86 -74q-31 -24 -53 -24q-29 0 -50 19.5t-21 50.5q0 33 21 56zM315 -7q-53 0 -81.5 31.5t-53.5 115.5l-147 476q-14 46 10 79t75 33q40 0 59 -17.5t29 -58.5l109 -430h2l93 386q17 69 44 94.5
t73 25.5q44 0 70 -26t42 -93l93 -387h2l108 430q11 42 30 59t58 17q49 0 74.5 -33t11.5 -79l-147 -471q-27 -88 -55.5 -120.5t-79.5 -32.5q-55 0 -83.5 34t-49.5 119l-76 304h-2l-76 -306q-21 -81 -50.5 -115.5t-81.5 -34.5z" />
    <glyph glyph-name="wacute" unicode="&#x1e83;" horiz-adv-x="839" 
d="M365 686l69 89q33 42 74 42q35 0 59 -24.5t24 -60.5q0 -45 -37 -75l-86 -73q-30 -24 -52 -24q-29 0 -50 19.5t-21 50.5q0 34 20 56zM250 -8h-5q-54 0 -82 31.5t-46 96.5l-84 281q-14 50 8.5 81.5t74.5 31.5q61 0 77 -77l64 -250h2l55 218q14 59 38 84t69 25h5
q43 -1 64 -25t35 -84l56 -218h2l63 250q9 39 27.5 58t55.5 19q49 0 70.5 -31.5t7.5 -81.5l-84 -281q-20 -64 -47.5 -95.5t-79.5 -32.5h-6q-51 0 -78.5 31t-43.5 94l-48 172h-2l-46 -172q-16 -60 -44.5 -92.5t-77.5 -32.5z" />
    <glyph glyph-name="Wdieresis" unicode="&#x1e84;" horiz-adv-x="1047" 
d="M407 779q-47 0 -74.5 26.5t-27.5 69.5q0 41 28 67.5t74 26.5q45 0 72 -26.5t27 -67.5q0 -43 -26.5 -69.5t-72.5 -26.5zM652 779q-47 0 -74.5 26.5t-27.5 69.5q0 41 28 67.5t74 26.5q45 0 72 -26.5t27 -67.5q0 -43 -26.5 -69.5t-72.5 -26.5zM315 -7q-53 0 -81.5 31.5
t-53.5 115.5l-147 476q-14 46 10 79t75 33q40 0 59 -17.5t29 -58.5l109 -430h2l93 386q17 69 44 94.5t73 25.5q44 0 70 -26t42 -93l93 -387h2l108 430q11 42 30 59t58 17q49 0 74.5 -33t11.5 -79l-147 -471q-27 -88 -55.5 -120.5t-79.5 -32.5q-55 0 -83.5 34t-49.5 119
l-76 304h-2l-76 -306q-21 -81 -50.5 -115.5t-81.5 -34.5z" />
    <glyph glyph-name="wdieresis" unicode="&#x1e85;" horiz-adv-x="839" 
d="M302 566q-47 0 -74.5 26.5t-27.5 69.5q0 41 28 67.5t74 26.5q45 0 72 -26.5t27 -67.5q0 -43 -26.5 -69.5t-72.5 -26.5zM547 566q-47 0 -74.5 26.5t-27.5 69.5q0 41 28 67.5t74 26.5q45 0 72 -26.5t27 -67.5q0 -43 -26.5 -69.5t-72.5 -26.5zM250 -8h-5q-54 0 -82 31.5
t-46 96.5l-84 281q-14 50 8.5 81.5t74.5 31.5q61 0 77 -77l64 -250h2l55 218q14 59 38 84t69 25h5q43 -1 64 -25t35 -84l56 -218h2l63 250q9 39 27.5 58t55.5 19q49 0 70.5 -31.5t7.5 -81.5l-84 -281q-20 -64 -47.5 -95.5t-79.5 -32.5h-6q-51 0 -78.5 31t-43.5 94l-48 172
h-2l-46 -172q-16 -60 -44.5 -92.5t-77.5 -32.5z" />
    <glyph glyph-name="uni1E9E" unicode="&#x1e9e;" horiz-adv-x="685" 
d="M72 85v397q0 120 76 186.5t190 66.5q117 0 181.5 -54t64.5 -144q0 -97 -67 -145v-2q59 -18 94.5 -66.5t35.5 -117.5q0 -107 -59 -164.5t-160 -57.5q-70 0 -111 25t-41 70q0 33 16 53t48 20q5 0 24.5 -3t34.5 -3q71 0 71 84q0 35 -22 58t-61 23l-20 -1q-33 0 -50 18.5
t-17 49.5q0 30 15 49.5t45 19.5l19 -1q21 0 31 20t10 46q0 34 -20 53t-55 19q-94 0 -94 -105v-394q0 -41 -23 -67t-66 -26t-66.5 26t-23.5 67z" />
    <glyph glyph-name="Ygrave" unicode="&#x1ef2;" horiz-adv-x="654" 
d="M302 998l69 -89q20 -23 20 -56q0 -31 -20.5 -50.5t-49.5 -19.5q-22 0 -53 24l-86 73q-37 30 -37 74q0 37 24 61t60 24q40 0 73 -41zM328 -8q-45 0 -69 27t-24 69v180l-193 325q-15 25 -15 53q0 35 24.5 58.5t62.5 23.5q30 0 47.5 -12.5t36.5 -49.5l128 -230h2l126 231
q19 35 36.5 48t46.5 13q39 0 63 -23t24 -58q0 -27 -14 -53l-190 -326v-180q0 -42 -24 -69t-68 -27z" />
    <glyph glyph-name="ygrave" unicode="&#x1ef3;" horiz-adv-x="572" 
d="M264 775l69 -89q20 -22 20 -56q0 -31 -21 -50.5t-50 -19.5q-22 0 -52 24l-86 73q-37 30 -37 75q0 36 24 60.5t59 24.5q41 0 74 -42zM149 -230q-41 0 -66 13q-44 24 -44 74q0 30 19 48.5t49 18.5h16q30 0 47 13t27 43l-162 414q-18 44 7.5 82t76.5 38q38 0 56 -19.5
t27 -54.5l87 -305h3l80 293q8 39 27.5 62.5t60.5 23.5q53 0 75 -34.5t3 -84.5l-146 -388q-50 -133 -105.5 -185t-137.5 -52z" />
    <glyph glyph-name="uni1EF8" unicode="&#x1ef8;" horiz-adv-x="654" 
d="M237 973q41 0 73.5 -12.5t53.5 -25.5t35 -13q9 0 15.5 3.5t9.5 7t8.5 11.5t8.5 12q18 20 46 20q30 0 46 -22.5t16 -55.5q0 -46 -32.5 -83t-89.5 -37q-47 0 -100 28.5t-72 28.5q-9 0 -15 -1.5t-11 -6t-7 -7t-6 -9.5t-5 -9q-13 -25 -48 -25q-30 0 -46 19.5t-16 49.5
q0 53 37.5 90t98.5 37zM328 -8q-45 0 -69 27t-24 69v180l-193 325q-15 25 -15 53q0 35 24.5 58.5t62.5 23.5q30 0 47.5 -12.5t36.5 -49.5l128 -230h2l126 231q19 35 36.5 48t46.5 13q39 0 63 -23t24 -58q0 -27 -14 -53l-190 -326v-180q0 -42 -24 -69t-68 -27z" />
    <glyph glyph-name="uni1EF9" unicode="&#x1ef9;" horiz-adv-x="572" 
d="M199 750q40 0 72.5 -12.5t54 -25t35.5 -12.5q8 0 15 3.5t10 6.5t8.5 11.5t8.5 11.5q18 20 46 20q30 0 46 -22.5t16 -54.5q0 -46 -32.5 -83t-89.5 -37q-48 0 -100.5 28t-71.5 28q-7 0 -13 -1.5t-9.5 -3t-7.5 -6.5t-5 -6t-5 -8t-4 -8q-13 -25 -48 -25q-29 0 -45.5 20
t-16.5 49q0 53 37.5 90t98.5 37zM149 -230q-41 0 -66 13q-44 24 -44 74q0 30 19 48.5t49 18.5h16q30 0 47 13t27 43l-162 414q-18 44 7.5 82t76.5 38q38 0 56 -19.5t27 -54.5l87 -305h3l80 293q8 39 27.5 62.5t60.5 23.5q53 0 75 -34.5t3 -84.5l-146 -388
q-50 -133 -105.5 -185t-137.5 -52z" />
    <glyph glyph-name="endash" unicode="&#x2013;" horiz-adv-x="642" 
d="M516 189h-390q-32 0 -53 19t-21 56q0 36 21 54.5t53 18.5h390q33 0 53.5 -18.5t20.5 -54.5q0 -37 -20.5 -56t-53.5 -19z" />
    <glyph glyph-name="emdash" unicode="&#x2014;" horiz-adv-x="911" 
d="M785 189h-659q-32 0 -53 19t-21 55t21 55t53 19h659q32 0 53 -19t21 -55t-21 -55t-53 -19z" />
    <glyph glyph-name="quoteleft" unicode="&#x2018;" horiz-adv-x="258" 
d="M122 428q-41 0 -62 25.5t-18 61.5q9 94 38 169q16 45 64 45q37 0 54.5 -22t13.5 -55q-9 -83 -10 -146q-2 -34 -22 -56t-58 -22z" />
    <glyph glyph-name="quoteright" unicode="&#x2019;" horiz-adv-x="257" 
d="M116 428q-37 0 -54.5 22t-13.5 55q9 83 10 146q2 34 22 56t58 22q41 0 62 -25.5t18 -61.5q-9 -94 -38 -170q-16 -44 -64 -44z" />
    <glyph glyph-name="quotesinglbase" unicode="&#x201a;" horiz-adv-x="244" 
d="M99 -206q-34 0 -53 23t-14 56q9 81 10 153q2 34 23 56t57 22q39 0 61 -25.5t19 -61.5q-10 -102 -38 -176q-17 -47 -65 -47z" />
    <glyph glyph-name="quotedblleft" unicode="&#x201c;" horiz-adv-x="481" 
d="M122 428q-41 0 -62 25.5t-18 61.5q9 94 38 169q16 45 64 45q37 0 54.5 -22t13.5 -55q-9 -83 -10 -146q-2 -34 -22 -56t-58 -22zM345 428q-41 0 -62 25.5t-18 61.5q9 94 38 169q16 45 64 45q37 0 54.5 -22t13.5 -55q-9 -83 -10 -146q-2 -34 -22 -56t-58 -22z" />
    <glyph glyph-name="quotedblright" unicode="&#x201d;" horiz-adv-x="480" 
d="M116 428q-37 0 -54.5 22t-13.5 55q9 83 10 146q2 34 22 56t58 22q41 0 62 -25.5t18 -61.5q-9 -94 -38 -170q-16 -44 -64 -44zM339 428q-37 0 -54.5 22t-13.5 55q9 83 10 146q2 34 22 56t58 22q41 0 62 -25.5t18 -61.5q-9 -94 -38 -170q-16 -44 -64 -44z" />
    <glyph glyph-name="quotedblbase" unicode="&#x201e;" horiz-adv-x="466" 
d="M99 -204q-37 0 -54.5 22t-13.5 55q8 60 11 147q1 34 21 55.5t59 21.5q40 0 61 -25t18 -62q-9 -91 -37 -169q-17 -45 -65 -45zM322 -204q-37 0 -54.5 22t-13.5 55q8 60 11 147q1 34 21 55.5t59 21.5q40 0 61 -25t18 -62q-9 -91 -37 -169q-17 -45 -65 -45z" />
    <glyph glyph-name="dagger" unicode="&#x2020;" horiz-adv-x="558" 
d="M279 -8q-37 0 -60 21.5t-23 61.5v348h-94q-37 0 -56.5 21.5t-19.5 54.5t19.5 54t56.5 21h94v72q0 39 23 60.5t60 21.5t59.5 -21.5t22.5 -60.5v-72h95q37 0 56 -21t19 -54t-19 -54.5t-56 -21.5h-95v-348q0 -40 -22.5 -61.5t-59.5 -21.5z" />
    <glyph glyph-name="daggerdbl" unicode="&#x2021;" horiz-adv-x="586" 
d="M294 -8q-38 0 -60.5 21.5t-22.5 61.5v72h-95q-35 0 -55 21.5t-20 53.5q0 33 20 54.5t55 21.5h95v125h-95q-37 0 -56 21.5t-19 54.5t19 54t56 21h95v72q0 40 22.5 61t60.5 21q37 0 59.5 -21.5t22.5 -60.5v-72h94q37 0 56.5 -21t19.5 -54t-19.5 -54.5t-56.5 -21.5h-94v-125
h94q35 0 55.5 -21.5t20.5 -54.5q0 -32 -20.5 -53.5t-55.5 -21.5h-94v-72q0 -40 -22.5 -61.5t-59.5 -21.5z" />
    <glyph glyph-name="bullet" unicode="&#x2022;" horiz-adv-x="418" 
d="M209 123q-63 0 -101 35t-38 93q0 55 38.5 90t100.5 35t100 -34.5t38 -90.5q0 -58 -37 -93t-101 -35z" />
    <glyph glyph-name="ellipsis" unicode="&#x2026;" horiz-adv-x="847" 
d="M152 -17q-50 0 -80 28.5t-30 75.5q0 45 30.5 73.5t79.5 28.5q50 0 80.5 -28.5t30.5 -73.5q0 -48 -30 -76t-81 -28zM423 -17q-50 0 -80 28.5t-30 75.5q0 45 30.5 73.5t79.5 28.5q50 0 80.5 -28.5t30.5 -73.5q0 -48 -30 -76t-81 -28zM695 -17q-51 0 -81 28.5t-30 75.5
q0 45 30.5 73.5t80.5 28.5t80 -28.5t30 -73.5q0 -47 -29.5 -75.5t-80.5 -28.5z" />
    <glyph glyph-name="perthousand" unicode="&#x2030;" horiz-adv-x="1382" 
d="M340 21q-19 -29 -52 -29q-24 0 -41.5 17.5t-17.5 42.5q0 17 9 31l377 616q17 29 52 29q25 0 42 -17.5t17 -42.5q0 -17 -8 -31zM211 366q-80 0 -131 50.5t-51 126.5t50 126.5t132 50.5q80 0 130.5 -50.5t50.5 -126.5t-50 -126.5t-131 -50.5zM211 479q50 0 50 64
q0 65 -50 65q-51 0 -51 -65q0 -64 51 -64zM735 -15q-80 0 -131 50.5t-51 126.5t50 126.5t132 50.5q80 0 130.5 -50.5t50.5 -126.5t-50 -126.5t-131 -50.5zM1173 -15q-80 0 -131 50.5t-51 126.5t50 126.5t132 50.5q80 0 130.5 -50.5t50.5 -126.5t-50.5 -126.5t-130.5 -50.5z
M735 98q24 0 37.5 17t13.5 47q0 31 -13.5 48t-37.5 17q-51 0 -51 -65q0 -64 51 -64zM1173 98q50 0 50 64q0 65 -50 65q-51 0 -51 -65q0 -64 51 -64z" />
    <glyph glyph-name="guilsinglleft" unicode="&#x2039;" horiz-adv-x="307" 
d="M50 301l64 119q21 46 63 46q33 0 56.5 -18.5t23.5 -50.5q0 -22 -9 -40l-54 -103l54 -104q9 -18 9 -40q0 -32 -23.5 -50.5t-56.5 -18.5q-42 0 -63 46l-64 119q-13 28 -13 48q0 21 13 47z" />
    <glyph glyph-name="guilsinglright" unicode="&#x203a;" horiz-adv-x="307" 
d="M193 420l63 -119q13 -23 13 -47q0 -23 -13 -48l-63 -119q-23 -46 -63 -46q-33 0 -57 18.5t-24 50.5q0 20 10 40l54 104l-54 103q-10 20 -10 40q0 32 24 50.5t57 18.5q40 0 63 -46z" />
    <glyph glyph-name="fraction" unicode="&#x2044;" horiz-adv-x="403" 
d="M126 22q-17 -38 -58 -38q-28 0 -46.5 18.5t-18.5 44.5q0 13 6 27l268 623q17 38 58 38q27 0 45.5 -18.5t18.5 -45.5q0 -13 -6 -29z" />
    <glyph glyph-name="Euro" unicode="&#x20ac;" horiz-adv-x="636" 
d="M401 648q91 0 135 -31q41 -28 41 -74q0 -27 -18 -46t-48 -19q-19 0 -49.5 10.5t-57.5 10.5q-76 0 -97 -76h97q26 0 45 -18.5t19 -45.5t-19 -46t-45 -19h-99q22 -77 99 -77q27 0 57.5 10.5t49.5 10.5q30 0 48 -18.5t18 -46.5q0 -48 -43 -73q-48 -31 -140 -31
q-114 0 -183.5 60t-85.5 165h-33q-27 0 -46 19t-19 46t19 45.5t46 18.5h33q18 107 91 166t185 59z" />
    <glyph glyph-name="trademark" unicode="&#x2122;" horiz-adv-x="1041" 
d="M157 318l-1 287h-70q-26 0 -42 16.5t-16 43.5q0 25 16 41.5t42 16.5h270q26 0 42 -16.5t16 -42.5t-16 -42.5t-42 -16.5h-70l-1 -287q0 -29 -16.5 -47t-46.5 -18q-31 0 -48 18t-17 47zM706 253q-43 0 -63 55l-75 193h-2v-185q0 -28 -16 -45.5t-45 -17.5q-30 0 -46 17.5
t-16 45.5v309q0 44 23 69.5t63 25.5q36 0 56 -21.5t36 -65.5l83 -209h2l83 209q17 45 37 66t56 21q39 0 62.5 -25.5t23.5 -69.5v-309q0 -28 -16 -45.5t-46 -17.5q-29 0 -45 17.5t-16 45.5v185h-2l-75 -193q-20 -55 -62 -55z" />
    <glyph glyph-name="minus" unicode="&#x2212;" horiz-adv-x="512" 
d="M383 292h-254q-32 0 -51 18t-19 53q0 34 19 52t51 18h254q31 0 50.5 -18t19.5 -52q0 -35 -19.5 -53t-50.5 -18z" />
    <glyph glyph-name="approxequal" unicode="&#x2248;" horiz-adv-x="619" 
d="M407 524q11 0 17.5 4.5t14.5 16.5l10 15q16 18 44 18q29 0 45.5 -22.5t16.5 -54.5q0 -46 -31.5 -82.5t-88.5 -36.5q-51 0 -119.5 29t-97.5 29q-9 0 -15 -1.5t-11 -6.5t-7 -7.5t-6 -10t-5 -8.5q-14 -26 -48 -26q-29 0 -45.5 20t-16.5 49q0 53 37.5 89.5t98.5 36.5
q63 0 127.5 -25.5t79.5 -25.5zM407 291q11 0 17.5 4.5t14.5 16.5l10 15q16 18 44 18q29 0 45.5 -22.5t16.5 -54.5q0 -45 -32 -82t-88 -37q-51 0 -119.5 29t-97.5 29q-7 0 -13 -1.5t-9.5 -3.5t-7.5 -6.5t-5 -6.5t-4.5 -8t-4.5 -8q-13 -25 -48 -25q-30 0 -46 19.5t-16 49.5
q0 52 37.5 88.5t98.5 36.5q63 0 127.5 -25.5t79.5 -25.5z" />
    <glyph glyph-name="notequal" unicode="&#x2260;" horiz-adv-x="538" 
d="M408 329q29 0 48.5 -19t19.5 -49q0 -29 -19.5 -48.5t-48.5 -19.5h-120l-17 -55q-6 -21 -23.5 -34.5t-40.5 -13.5q-35 0 -54.5 27t-9.5 60l5 16h-16q-29 0 -48.5 19.5t-19.5 49.5q0 29 19.5 48t48.5 19h57l19 61h-76q-29 0 -48.5 19.5t-19.5 49.5q0 29 19.5 48t48.5 19
h117l15 48q6 21 24 34.5t42 13.5q37 0 55.5 -28t9.5 -60l-3 -8h16q29 0 48.5 -19t19.5 -48q0 -30 -19.5 -49.5t-48.5 -19.5h-58l-19 -61h77z" />
    <glyph glyph-name="uniF8FF" unicode="&#xf8ff;" horiz-adv-x="1427" 
d="M741 540q-26 0 -44 18t-18 42q0 27 17.5 44t44.5 17q24 0 41.5 -17.5t17.5 -43.5q0 -24 -18 -42t-41 -18zM207 601q0 -8 3 -57.5t5 -116.5t2 -135h-117q0 157 8 309h99zM798 292h-116q0 109 2 146h-58l3 -66q2 -1 14 -1q16 0 20 2v-70q-15 -16 -69 -16q-80 0 -80 66
q0 11 2 47.5t2 37.5h-21v78l117 29l1 -17h173q10 -64 10 -236zM396 354q-11 -66 -72 -66q-91 0 -91 112q0 133 132 133q120 0 120 -116v-125h-80zM1068 430l3 -138h-111q0 26 1 56.5t1 36.5q0 28 -14 28q-9 0 -13 -4t-5 -9t-1 -15q0 -6 1 -36.5t1 -56.5h-110q0 169 9 236h79
q5 -52 5 -74q2 14 6.5 29t23.5 32.5t48 17.5q42 0 58 -24.5t18 -78.5zM1208 533q119 0 119 -121q0 -124 -121 -124q-120 0 -120 122q0 123 122 123zM361 368q23 0 23 28q0 26 -23 26q-21 0 -21 -26q0 -28 21 -28zM1206 368q24 0 24 28q0 26 -24 26q-21 0 -21 -26
q0 -28 21 -28zM422 147v117h101q12 -66 12 -138q0 -78 -33.5 -112t-117.5 -34q-60 0 -86 16v81q19 -13 69 -13q21 0 34 5.5t16 10t3 8.5q-12 -10 -48 -10q-89 0 -89 83v11h-54l3 -63q6 -4 16 -4q12 0 17 5v-71q-15 -15 -68 -15q-43 0 -60.5 16.5t-17.5 51.5q0 44 3 80h-18
v79l115 28l-1 -15h173v-117q0 -17 2.5 -22.5t12.5 -5.5q9 0 12.5 6t3.5 22zM642 187q18 82 79 82q35 0 56.5 -29.5t21.5 -82.5q0 -133 -135 -133q1 -16 1 -39h-115q0 134 10 279h76q6 -42 6 -77zM938 269q54 0 84 -30t30 -85q0 -23 -3 -35h-122q9 -17 48 -17q35 0 56 11v-73
q-25 -16 -77 -16q-139 0 -139 121q0 57 33 90.5t90 33.5zM922 136h40q2 27 -16 27q-24 0 -24 -27zM656 127q0 -12 5 -27q4 0 11 2t15.5 11t8.5 23q0 23 -21 23q-19 0 -19 -32zM1078 65q-10 0 -16.5 -6.5t-6.5 -16.5q0 -22 23 -22q24 0 24 22q0 23 -24 23zM1078 24
q-17 0 -17 18q0 19 17 19q18 0 18 -19q0 -18 -18 -18zM1082 31h6l-6 9q7 0 7 6q0 8 -10 8h-10v-23h5v9h4zM1084 46q0 -3 -4 -3h-6v6h6q4 0 4 -3z" />
    <glyph glyph-name="A.fina" horiz-adv-x="1067" 
d="M1014 279q26 -54 26 -128q0 -115 -67.5 -185.5t-192.5 -70.5q-112 0 -182.5 61t-121.5 181h-251l-23 -69q-13 -39 -31.5 -57.5t-54.5 -18.5q-51 0 -75.5 35.5t-7.5 79.5l171 478q28 77 58.5 110t89.5 33t89 -32.5t58 -111.5l33 -91q12 -35 32.5 -97.5t31.5 -94t29 -78.5
t32.5 -71t34 -49.5t41.5 -36t47 -10.5q42 0 63.5 25.5t21.5 71.5q0 23 -10 57q-11 37 -11 48q0 34 25 56t63 22q54 0 82 -57zM273 283h150l-41 138l-31 93h-2z" />
    <glyph glyph-name="Aacute.fina" horiz-adv-x="1067" 
d="M345 780q-29 0 -50 19.5t-21 50.5q0 32 21 56l69 89q33 41 73 41q36 0 60 -24t24 -61q0 -44 -37 -74l-86 -73q-31 -24 -53 -24zM1014 279q26 -54 26 -128q0 -115 -67.5 -185.5t-192.5 -70.5q-112 0 -182.5 61t-121.5 181h-251l-23 -69q-13 -39 -31.5 -57.5t-54.5 -18.5
q-51 0 -75.5 35.5t-7.5 79.5l171 478q28 77 58.5 110t89.5 33t89 -32.5t58 -111.5l33 -91q12 -35 32.5 -97.5t31.5 -94t29 -78.5t32.5 -71t34 -49.5t41.5 -36t47 -10.5q42 0 63.5 25.5t21.5 71.5q0 23 -10 57q-11 37 -11 48q0 34 25 56t63 22q54 0 82 -57zM273 283h150
l-41 138l-31 93h-2z" />
    <glyph glyph-name="Abreve.fina" horiz-adv-x="1067" 
d="M349 772q-83 0 -136 41.5t-53 105.5q0 32 19 52t50 20q49 0 66 -48q15 -44 54 -44q37 0 53 45q16 47 67 47q31 0 50 -20t19 -52q0 -64 -53.5 -105.5t-135.5 -41.5zM1014 279q26 -54 26 -128q0 -115 -67.5 -185.5t-192.5 -70.5q-112 0 -182.5 61t-121.5 181h-251l-23 -69
q-13 -39 -31.5 -57.5t-54.5 -18.5q-51 0 -75.5 35.5t-7.5 79.5l171 478q28 77 58.5 110t89.5 33t89 -32.5t58 -111.5l33 -91q12 -35 32.5 -97.5t31.5 -94t29 -78.5t32.5 -71t34 -49.5t41.5 -36t47 -10.5q42 0 63.5 25.5t21.5 71.5q0 23 -10 57q-11 37 -11 48q0 34 25 56
t63 22q54 0 82 -57zM273 283h150l-41 138l-31 93h-2z" />
    <glyph glyph-name="Acircumflex.fina" horiz-adv-x="1067" 
d="M223 768q-28 0 -47 20t-19 50q0 31 30 59l40 37q73 63 123 63q49 0 122 -63l41 -37q30 -26 30 -59q0 -30 -19.5 -50t-47.5 -20q-22 0 -45 18l-80 71h-2l-81 -71q-21 -18 -45 -18zM1014 279q26 -54 26 -128q0 -115 -67.5 -185.5t-192.5 -70.5q-112 0 -182.5 61t-121.5 181
h-251l-23 -69q-13 -39 -31.5 -57.5t-54.5 -18.5q-51 0 -75.5 35.5t-7.5 79.5l171 478q28 77 58.5 110t89.5 33t89 -32.5t58 -111.5l33 -91q12 -35 32.5 -97.5t31.5 -94t29 -78.5t32.5 -71t34 -49.5t41.5 -36t47 -10.5q42 0 63.5 25.5t21.5 71.5q0 23 -10 57q-11 37 -11 48
q0 34 25 56t63 22q54 0 82 -57zM273 283h150l-41 138l-31 93h-2z" />
    <glyph glyph-name="Adieresis.fina" horiz-adv-x="1067" 
d="M232 785q-47 0 -74.5 26.5t-27.5 69.5q0 41 28 68t74 27q45 0 72 -27t27 -68q0 -43 -26.5 -69.5t-72.5 -26.5zM477 785q-47 0 -74.5 26.5t-27.5 69.5q0 41 28 68t74 27q45 0 72 -27t27 -68q0 -43 -26.5 -69.5t-72.5 -26.5zM1014 279q26 -54 26 -128q0 -115 -67.5 -185.5
t-192.5 -70.5q-112 0 -182.5 61t-121.5 181h-251l-23 -69q-13 -39 -31.5 -57.5t-54.5 -18.5q-51 0 -75.5 35.5t-7.5 79.5l171 478q28 77 58.5 110t89.5 33t89 -32.5t58 -111.5l33 -91q12 -35 32.5 -97.5t31.5 -94t29 -78.5t32.5 -71t34 -49.5t41.5 -36t47 -10.5
q42 0 63.5 25.5t21.5 71.5q0 23 -10 57q-11 37 -11 48q0 34 25 56t63 22q54 0 82 -57zM273 283h150l-41 138l-31 93h-2z" />
    <glyph glyph-name="Agrave.fina" horiz-adv-x="1067" 
d="M206 877q-37 30 -37 74q0 37 24 61t59 24q41 0 74 -41l69 -89q20 -23 20 -56q0 -31 -21 -50.5t-50 -19.5q-22 0 -52 24zM1014 279q26 -54 26 -128q0 -115 -67.5 -185.5t-192.5 -70.5q-112 0 -182.5 61t-121.5 181h-251l-23 -69q-13 -39 -31.5 -57.5t-54.5 -18.5
q-51 0 -75.5 35.5t-7.5 79.5l171 478q28 77 58.5 110t89.5 33t89 -32.5t58 -111.5l33 -91q12 -35 32.5 -97.5t31.5 -94t29 -78.5t32.5 -71t34 -49.5t41.5 -36t47 -10.5q42 0 63.5 25.5t21.5 71.5q0 23 -10 57q-11 37 -11 48q0 34 25 56t63 22q54 0 82 -57zM273 283h150
l-41 138l-31 93h-2z" />
    <glyph glyph-name="Amacron.fina" horiz-adv-x="1067" 
d="M232 815q-29 0 -49.5 20.5t-20.5 50.5q0 28 21 49t49 21h247q29 0 49.5 -21t20.5 -51q0 -29 -20.5 -49t-49.5 -20h-247zM1014 279q26 -54 26 -128q0 -115 -67.5 -185.5t-192.5 -70.5q-112 0 -182.5 61t-121.5 181h-251l-23 -69q-13 -39 -31.5 -57.5t-54.5 -18.5
q-51 0 -75.5 35.5t-7.5 79.5l171 478q28 77 58.5 110t89.5 33t89 -32.5t58 -111.5l33 -91q12 -35 32.5 -97.5t31.5 -94t29 -78.5t32.5 -71t34 -49.5t41.5 -36t47 -10.5q42 0 63.5 25.5t21.5 71.5q0 23 -10 57q-11 37 -11 48q0 34 25 56t63 22q54 0 82 -57zM273 283h150
l-41 138l-31 93h-2z" />
    <glyph glyph-name="Aogonek.fina" horiz-adv-x="1067" 
d="M884 -89q-62 -48 -62 -109q0 -43 42 -43q4 0 10 1t9 1q23 0 38 -16t15 -42q0 -31 -26 -47q-26 -18 -71 -18q-66 0 -110 39t-44 112q0 62 34 111q-85 16 -142 75.5t-101 161.5h-251l-23 -69q-13 -39 -31.5 -57.5t-54.5 -18.5q-51 0 -75.5 35.5t-7.5 79.5l171 478
q28 77 58.5 110t89.5 33t89 -32.5t58 -111.5l33 -91q12 -35 32.5 -97.5t31.5 -94t29 -78.5t32.5 -71t34 -49.5t41.5 -36t47 -10.5q42 0 63.5 25.5t21.5 71.5q0 23 -10 57q-11 37 -11 48q0 34 25 56t63 22q54 0 82 -57q26 -54 26 -128q0 -87 -40 -150.5t-116 -89.5zM273 283
h150l-41 138l-31 93h-2z" />
    <glyph glyph-name="Aring.fina" horiz-adv-x="1067" 
d="M350 766q-57 0 -94.5 32t-37.5 91t37.5 91.5t94.5 32.5t95 -32.5t38 -91.5q0 -58 -38 -90.5t-95 -32.5zM350 921q-13 0 -21 -8.5t-8 -23.5q0 -33 29 -33q30 0 30 33q0 15 -8.5 23.5t-21.5 8.5zM1014 279q26 -54 26 -128q0 -115 -67.5 -185.5t-192.5 -70.5
q-112 0 -182.5 61t-121.5 181h-251l-23 -69q-13 -39 -31.5 -57.5t-54.5 -18.5q-51 0 -75.5 35.5t-7.5 79.5l171 478q28 77 58.5 110t89.5 33t89 -32.5t58 -111.5l33 -91q12 -35 32.5 -97.5t31.5 -94t29 -78.5t32.5 -71t34 -49.5t41.5 -36t47 -10.5q42 0 63.5 25.5t21.5 71.5
q0 23 -10 57q-11 37 -11 48q0 34 25 56t63 22q54 0 82 -57zM273 283h150l-41 138l-31 93h-2z" />
    <glyph glyph-name="H.fina" horiz-adv-x="1129" 
d="M1104 145q0 -117 -70 -187.5t-196 -70.5q-288 0 -293 368v23h-288v-192q0 -41 -23 -67.5t-66 -26.5q-44 0 -67.5 26t-23.5 68v543q0 42 23.5 68t67.5 26q43 0 66 -26.5t23 -67.5l1 -186h287v186q0 41 24 67.5t67 26.5t66 -26t23 -68v-370q0 -210 109 -210q41 0 65 26
t24 73q0 21 -7 49q-12 38 -12 47q0 35 24.5 57.5t64.5 22.5q51 0 83 -56q28 -54 28 -123z" />
    <glyph glyph-name="K.fina" horiz-adv-x="1068" 
d="M1041 169q0 -123 -72.5 -198.5t-201.5 -75.5q-154 0 -250.5 95t-164.5 287h-95v-191q0 -42 -23.5 -68t-66.5 -26t-66.5 26t-23.5 68v549q0 41 23.5 67t66.5 26t66.5 -26t23.5 -67v-187h98l145 235q14 23 30.5 34t45.5 11q38 0 64.5 -26t26.5 -61q0 -28 -12 -45l-157 -237
q66 -162 128.5 -232.5t139.5 -70.5q43 0 68.5 31.5t25.5 85.5q0 24 -8 52q-11 35 -11 47q0 37 25 59.5t62 22.5q53 0 82 -52q31 -55 31 -133z" />
    <glyph glyph-name="uni0136.fina" horiz-adv-x="1068" 
d="M1041 169q0 -123 -72.5 -198.5t-201.5 -75.5q-154 0 -250.5 95t-164.5 287h-95v-191q0 -42 -23.5 -68t-66.5 -26t-66.5 26t-23.5 68v549q0 41 23.5 67t66.5 26t66.5 -26t23.5 -67v-187h98l145 235q14 23 30.5 34t45.5 11q38 0 64.5 -26t26.5 -61q0 -28 -12 -45l-157 -237
q66 -162 128.5 -232.5t139.5 -70.5q43 0 68.5 31.5t25.5 85.5q0 24 -8 52q-11 35 -11 47q0 37 25 59.5t62 22.5q53 0 82 -52q31 -55 31 -133zM343 -321q-32 0 -49.5 20.5t-13.5 51.5q7 61 10 131q0 30 20.5 50.5t53.5 20.5q38 0 58 -23.5t17 -56.5q-7 -79 -34 -151
q-15 -43 -62 -43z" />
    <glyph glyph-name="N.fina" horiz-adv-x="1119" 
d="M1095 590q0 -69 -28 -123q-31 -56 -83 -56q-39 0 -63.5 22.5t-24.5 56.5q0 16 12 48q6 24 6 48q0 48 -23.5 74t-64.5 26q-110 0 -110 -211v-381q0 -49 -24 -75.5t-67 -26.5q-39 0 -70 27t-88 106l-210 295h-2l2 -334q0 -41 -23 -67.5t-66 -26.5q-44 0 -67.5 26t-23.5 68
v540q0 49 24 75.5t65 26.5q36 0 60.5 -20.5t69.5 -83.5l240 -337h2l-2 193q5 367 293 367q126 0 196 -70.5t70 -186.5z" />
    <glyph glyph-name="Nacute.fina" horiz-adv-x="1119" 
d="M339 906l69 89q33 41 74 41q35 0 59 -24t24 -61q0 -44 -37 -74l-86 -73q-30 -24 -52 -24q-29 0 -50 19.5t-21 50.5q0 33 20 56zM1095 590q0 -69 -28 -123q-31 -56 -83 -56q-39 0 -63.5 22.5t-24.5 56.5q0 16 12 48q6 24 6 48q0 48 -23.5 74t-64.5 26q-110 0 -110 -211
v-381q0 -49 -24 -75.5t-67 -26.5q-39 0 -70 27t-88 106l-210 295h-2l2 -334q0 -41 -23 -67.5t-66 -26.5q-44 0 -67.5 26t-23.5 68v540q0 49 24 75.5t65 26.5q36 0 60.5 -20.5t69.5 -83.5l240 -337h2l-2 193q5 367 293 367q126 0 196 -70.5t70 -186.5z" />
    <glyph glyph-name="Ncaron.fina" horiz-adv-x="1119" 
d="M394 768q-48 0 -123 63l-41 37q-29 25 -29 60q0 30 19 49.5t47 19.5q26 0 45 -18l81 -71h2l80 71q19 18 45 18q28 0 47.5 -19.5t19.5 -49.5q0 -32 -31 -60l-40 -37q-73 -63 -122 -63zM1095 590q0 -69 -28 -123q-31 -56 -83 -56q-39 0 -63.5 22.5t-24.5 56.5q0 16 12 48
q6 24 6 48q0 48 -23.5 74t-64.5 26q-110 0 -110 -211v-381q0 -49 -24 -75.5t-67 -26.5q-39 0 -70 27t-88 106l-210 295h-2l2 -334q0 -41 -23 -67.5t-66 -26.5q-44 0 -67.5 26t-23.5 68v540q0 49 24 75.5t65 26.5q36 0 60.5 -20.5t69.5 -83.5l240 -337h2l-2 193
q5 367 293 367q126 0 196 -70.5t70 -186.5z" />
    <glyph glyph-name="uni0145.fina" horiz-adv-x="1119" 
d="M1095 590q0 -69 -28 -123q-31 -56 -83 -56q-39 0 -63.5 22.5t-24.5 56.5q0 16 12 48q6 24 6 48q0 48 -23.5 74t-64.5 26q-110 0 -110 -211v-381q0 -49 -24 -75.5t-67 -26.5q-39 0 -70 27t-88 106l-210 295h-2l2 -334q0 -41 -23 -67.5t-66 -26.5q-44 0 -67.5 26t-23.5 68
v540q0 49 24 75.5t65 26.5q36 0 60.5 -20.5t69.5 -83.5l240 -337h2l-2 193q5 367 293 367q126 0 196 -70.5t70 -186.5zM383 -327q-32 0 -50 20t-13 52q8 84 9 130q1 31 21.5 51t53.5 20q37 0 57.5 -23t17.5 -56q-7 -81 -34 -152q-17 -42 -62 -42z" />
    <glyph glyph-name="Ntilde.fina" horiz-adv-x="1119" 
d="M305 969q41 0 73.5 -12.5t54 -25t34.5 -12.5q9 0 15.5 3.5t9.5 7t8.5 11.5t8.5 12q17 19 46 19q30 0 46 -22t16 -55q0 -46 -32.5 -83t-89.5 -37q-47 0 -100 28t-72 28q-9 0 -15 -1.5t-11 -6t-6.5 -6t-6 -9.5t-5.5 -9q-13 -25 -48 -25q-30 0 -46 19.5t-16 48.5
q0 53 37.5 90t98.5 37zM1095 590q0 -69 -28 -123q-31 -56 -83 -56q-39 0 -63.5 22.5t-24.5 56.5q0 16 12 48q6 24 6 48q0 48 -23.5 74t-64.5 26q-110 0 -110 -211v-381q0 -49 -24 -75.5t-67 -26.5q-39 0 -70 27t-88 106l-210 295h-2l2 -334q0 -41 -23 -67.5t-66 -26.5
q-44 0 -67.5 26t-23.5 68v540q0 49 24 75.5t65 26.5q36 0 60.5 -20.5t69.5 -83.5l240 -337h2l-2 193q5 367 293 367q126 0 196 -70.5t70 -186.5z" />
    <glyph glyph-name="R.fina" horiz-adv-x="1038" 
d="M1009 169q0 -123 -72.5 -198.5t-200.5 -75.5q-135 0 -227 84.5t-159 251.5h-93v-145q0 -41 -23 -67.5t-66 -26.5q-44 0 -67.5 26t-23.5 68v548q0 46 24 70.5t70 23.5h180q143 0 220.5 -61.5t77.5 -187.5q0 -146 -127 -217q51 -108 100.5 -157t111.5 -49q43 0 68.5 31.5
t25.5 85.5q0 27 -7 52q-11 35 -11 47q0 37 25 59.5t62 22.5q53 0 81 -52q31 -52 31 -133zM257 579v-203h108q52 0 80 26t28 75q0 52 -33 77t-89 25h-94z" />
    <glyph glyph-name="Racute.fina" horiz-adv-x="1038" 
d="M297 904l69 89q33 42 74 42q35 0 59 -24.5t24 -60.5q0 -44 -37 -74l-86 -73q-30 -24 -52 -24q-29 0 -50 19.5t-21 49.5q0 34 20 56zM1009 169q0 -123 -72.5 -198.5t-200.5 -75.5q-135 0 -227 84.5t-159 251.5h-93v-145q0 -41 -23 -67.5t-66 -26.5q-44 0 -67.5 26
t-23.5 68v548q0 46 24 70.5t70 23.5h180q143 0 220.5 -61.5t77.5 -187.5q0 -146 -127 -217q51 -108 100.5 -157t111.5 -49q43 0 68.5 31.5t25.5 85.5q0 27 -7 52q-11 35 -11 47q0 37 25 59.5t62 22.5q53 0 81 -52q31 -52 31 -133zM257 579v-203h108q52 0 80 26t28 75
q0 52 -33 77t-89 25h-94z" />
    <glyph glyph-name="Rcaron.fina" horiz-adv-x="1038" 
d="M352 767q-48 0 -123 63l-41 36q-29 26 -29 60q0 30 19 50t47 20q26 0 45 -18l81 -72h2l80 72q19 18 45 18q28 0 47.5 -20t19.5 -50q0 -31 -31 -60l-40 -36q-71 -63 -122 -63zM1009 169q0 -123 -72.5 -198.5t-200.5 -75.5q-135 0 -227 84.5t-159 251.5h-93v-145
q0 -41 -23 -67.5t-66 -26.5q-44 0 -67.5 26t-23.5 68v548q0 46 24 70.5t70 23.5h180q143 0 220.5 -61.5t77.5 -187.5q0 -146 -127 -217q51 -108 100.5 -157t111.5 -49q43 0 68.5 31.5t25.5 85.5q0 27 -7 52q-11 35 -11 47q0 37 25 59.5t62 22.5q53 0 81 -52q31 -52 31 -133z
M257 579v-203h108q52 0 80 26t28 75q0 52 -33 77t-89 25h-94z" />
    <glyph glyph-name="uni0156.fina" horiz-adv-x="1038" 
d="M1009 169q0 -123 -72.5 -198.5t-200.5 -75.5q-135 0 -227 84.5t-159 251.5h-93v-145q0 -41 -23 -67.5t-66 -26.5q-44 0 -67.5 26t-23.5 68v548q0 46 24 70.5t70 23.5h180q143 0 220.5 -61.5t77.5 -187.5q0 -146 -127 -217q51 -108 100.5 -157t111.5 -49q43 0 68.5 31.5
t25.5 85.5q0 27 -7 52q-11 35 -11 47q0 37 25 59.5t62 22.5q53 0 81 -52q31 -52 31 -133zM257 579v-203h108q52 0 80 26t28 75q0 52 -33 77t-89 25h-94zM323 -327q-32 0 -49.5 20t-13.5 52q7 58 10 130q0 31 20.5 51t53.5 20q37 0 57.5 -23t17.5 -56q-7 -81 -34 -152
q-16 -42 -62 -42z" />
    <glyph glyph-name="A.init" horiz-adv-x="1070" 
d="M1038 107q16 -46 -8.5 -80.5t-74.5 -34.5q-37 0 -55.5 19t-30.5 57l-23 69h-252q-51 -119 -120.5 -180.5t-177.5 -61.5q-128 0 -199 73t-71 191q0 85 35 136q31 43 83 43q38 0 60.5 -22t22.5 -56q0 -11 -12 -45q-8 -30 -8 -52q0 -107 89 -107q18 0 34.5 6.5t31.5 22
t27.5 31.5t26.5 44.5t24 52t24 62.5t23.5 66.5t25.5 74.5t26 77l32 91q29 79 59 111.5t89 32.5q58 0 89 -33t59 -110zM647 283h151l-77 231h-2l-30 -93z" />
    <glyph glyph-name="Aacute.init" horiz-adv-x="1070" 
d="M716 776q-29 0 -50 19.5t-21 50.5q0 33 20 56l69 89q33 41 74 41q35 0 59 -24t24 -61q0 -44 -37 -74l-86 -73q-30 -24 -52 -24zM1038 107q16 -46 -8.5 -80.5t-74.5 -34.5q-37 0 -55.5 19t-30.5 57l-23 69h-252q-51 -119 -120.5 -180.5t-177.5 -61.5q-128 0 -199 73
t-71 191q0 85 35 136q31 43 83 43q38 0 60.5 -22t22.5 -56q0 -11 -12 -45q-8 -30 -8 -52q0 -107 89 -107q18 0 34.5 6.5t31.5 22t27.5 31.5t26.5 44.5t24 52t24 62.5t23.5 66.5t25.5 74.5t26 77l32 91q29 79 59 111.5t89 32.5q58 0 89 -33t59 -110zM647 283h151l-77 231h-2
l-30 -93z" />
    <glyph glyph-name="Abreve.init" horiz-adv-x="1070" 
d="M719 768q-83 0 -136 41.5t-53 105.5q0 31 19.5 51.5t49.5 20.5q51 0 67 -48q15 -44 53 -44q39 0 53 45q16 47 67 47q31 0 50 -20t19 -52q0 -64 -53.5 -105.5t-135.5 -41.5zM1038 107q16 -46 -8.5 -80.5t-74.5 -34.5q-37 0 -55.5 19t-30.5 57l-23 69h-252
q-51 -119 -120.5 -180.5t-177.5 -61.5q-128 0 -199 73t-71 191q0 85 35 136q31 43 83 43q38 0 60.5 -22t22.5 -56q0 -11 -12 -45q-8 -30 -8 -52q0 -107 89 -107q18 0 34.5 6.5t31.5 22t27.5 31.5t26.5 44.5t24 52t24 62.5t23.5 66.5t25.5 74.5t26 77l32 91q29 79 59 111.5
t89 32.5q58 0 89 -33t59 -110zM647 283h151l-77 231h-2l-30 -93z" />
    <glyph glyph-name="Acircumflex.init" horiz-adv-x="1070" 
d="M594 764q-28 0 -47.5 20t-19.5 50q0 31 31 59l40 37q73 63 122 63t122 -63l42 -37q29 -25 29 -59q0 -30 -19 -50t-48 -20q-23 0 -44 18l-81 71h-2l-81 -71q-21 -18 -44 -18zM1038 107q16 -46 -8.5 -80.5t-74.5 -34.5q-37 0 -55.5 19t-30.5 57l-23 69h-252
q-51 -119 -120.5 -180.5t-177.5 -61.5q-128 0 -199 73t-71 191q0 85 35 136q31 43 83 43q38 0 60.5 -22t22.5 -56q0 -11 -12 -45q-8 -30 -8 -52q0 -107 89 -107q18 0 34.5 6.5t31.5 22t27.5 31.5t26.5 44.5t24 52t24 62.5t23.5 66.5t25.5 74.5t26 77l32 91q29 79 59 111.5
t89 32.5q58 0 89 -33t59 -110zM647 283h151l-77 231h-2l-30 -93z" />
    <glyph glyph-name="Adieresis.init" horiz-adv-x="1070" 
d="M602 781q-47 0 -74.5 27t-27.5 70q0 41 28 67.5t74 26.5q45 0 72 -26.5t27 -67.5q0 -44 -26.5 -70.5t-72.5 -26.5zM847 781q-47 0 -74.5 27t-27.5 70q0 41 28 67.5t74 26.5q45 0 72 -26.5t27 -67.5q0 -44 -26.5 -70.5t-72.5 -26.5zM1038 107q16 -46 -8.5 -80.5
t-74.5 -34.5q-37 0 -55.5 19t-30.5 57l-23 69h-252q-51 -119 -120.5 -180.5t-177.5 -61.5q-128 0 -199 73t-71 191q0 85 35 136q31 43 83 43q38 0 60.5 -22t22.5 -56q0 -11 -12 -45q-8 -30 -8 -52q0 -107 89 -107q18 0 34.5 6.5t31.5 22t27.5 31.5t26.5 44.5t24 52t24 62.5
t23.5 66.5t25.5 74.5t26 77l32 91q29 79 59 111.5t89 32.5q58 0 89 -33t59 -110zM647 283h151l-77 231h-2l-30 -93z" />
    <glyph glyph-name="Agrave.init" horiz-adv-x="1070" 
d="M576 873q-37 30 -37 74q0 37 24 61t60 24q40 0 73 -41l69 -89q21 -24 21 -56q0 -31 -21 -50.5t-50 -19.5q-22 0 -53 24zM1038 107q16 -46 -8.5 -80.5t-74.5 -34.5q-37 0 -55.5 19t-30.5 57l-23 69h-252q-51 -119 -120.5 -180.5t-177.5 -61.5q-128 0 -199 73t-71 191
q0 85 35 136q31 43 83 43q38 0 60.5 -22t22.5 -56q0 -11 -12 -45q-8 -30 -8 -52q0 -107 89 -107q18 0 34.5 6.5t31.5 22t27.5 31.5t26.5 44.5t24 52t24 62.5t23.5 66.5t25.5 74.5t26 77l32 91q29 79 59 111.5t89 32.5q58 0 89 -33t59 -110zM647 283h151l-77 231h-2l-30 -93z
" />
    <glyph glyph-name="Amacron.init" horiz-adv-x="1070" 
d="M603 811q-29 0 -49.5 21t-20.5 50q0 28 20.5 49t49.5 21h247q29 0 49.5 -21t20.5 -51q0 -28 -21 -48.5t-49 -20.5h-247zM1038 107q16 -46 -8.5 -80.5t-74.5 -34.5q-37 0 -55.5 19t-30.5 57l-23 69h-252q-51 -119 -120.5 -180.5t-177.5 -61.5q-128 0 -199 73t-71 191
q0 85 35 136q31 43 83 43q38 0 60.5 -22t22.5 -56q0 -11 -12 -45q-8 -30 -8 -52q0 -107 89 -107q18 0 34.5 6.5t31.5 22t27.5 31.5t26.5 44.5t24 52t24 62.5t23.5 66.5t25.5 74.5t26 77l32 91q29 79 59 111.5t89 32.5q58 0 89 -33t59 -110zM647 283h151l-77 231h-2l-30 -93z
" />
    <glyph glyph-name="Aogonek.init" horiz-adv-x="1070" 
d="M1008 -143q23 0 38 -16t15 -42q0 -31 -26 -47q-25 -18 -71 -18q-66 0 -110 39t-44 113q0 88 71 152q-7 14 -12 30l-23 69h-252q-51 -119 -120.5 -180.5t-177.5 -61.5q-128 0 -199 73t-71 191q0 85 35 136q31 43 83 43q38 0 60.5 -22t22.5 -56q0 -11 -12 -45
q-8 -30 -8 -52q0 -107 89 -107q18 0 34.5 6.5t31.5 22t27.5 31.5t26.5 44.5t24 52t24 62.5t23.5 66.5t25.5 74.5t26 77l32 91q29 79 59 111.5t89 32.5q58 0 89 -33t59 -110l171 -478q11 -32 2 -59.5t-33 -42.5q-60 -47 -60 -107q0 -42 42 -42q4 0 10 0.5t9 0.5zM647 283h151
l-77 231h-2l-30 -93z" />
    <glyph glyph-name="Aring.init" horiz-adv-x="1070" 
d="M720 762q-57 0 -94 32.5t-37 90.5q0 59 37 91.5t94 32.5t95 -32.5t38 -91.5q0 -58 -38 -90.5t-95 -32.5zM720 917q-13 0 -21 -8.5t-8 -23.5q0 -33 29 -33q30 0 30 33q0 32 -30 32zM1038 107q16 -46 -8.5 -80.5t-74.5 -34.5q-37 0 -55.5 19t-30.5 57l-23 69h-252
q-51 -119 -120.5 -180.5t-177.5 -61.5q-128 0 -199 73t-71 191q0 85 35 136q31 43 83 43q38 0 60.5 -22t22.5 -56q0 -11 -12 -45q-8 -30 -8 -52q0 -107 89 -107q18 0 34.5 6.5t31.5 22t27.5 31.5t26.5 44.5t24 52t24 62.5t23.5 66.5t25.5 74.5t26 77l32 91q29 79 59 111.5
t89 32.5q58 0 89 -33t59 -110zM647 283h151l-77 231h-2l-30 -93z" />
    <glyph glyph-name="Atilde.init" horiz-adv-x="1070" 
d="M557 770q-29 0 -45.5 19.5t-16.5 49.5q0 52 38 89.5t98 37.5q41 0 73.5 -13t54 -25.5t34.5 -12.5q9 0 15.5 3.5t9.5 7t8.5 11.5t8.5 12q17 19 46 19q30 0 46 -22t16 -55q0 -46 -32.5 -83t-89.5 -37q-47 0 -100 28t-72 28q-9 0 -15 -1.5t-11 -6t-6.5 -6t-6 -9.5t-5.5 -9
q-13 -25 -48 -25zM1038 107q16 -46 -8.5 -80.5t-74.5 -34.5q-37 0 -55.5 19t-30.5 57l-23 69h-252q-51 -119 -120.5 -180.5t-177.5 -61.5q-128 0 -199 73t-71 191q0 85 35 136q31 43 83 43q38 0 60.5 -22t22.5 -56q0 -11 -12 -45q-8 -30 -8 -52q0 -107 89 -107
q18 0 34.5 6.5t31.5 22t27.5 31.5t26.5 44.5t24 52t24 62.5t23.5 66.5t25.5 74.5t26 77l32 91q29 79 59 111.5t89 32.5q58 0 89 -33t59 -110zM647 283h151l-77 231h-2l-30 -93z" />
    <glyph glyph-name="H.init" horiz-adv-x="1129" 
d="M26 570q0 116 70 186.5t196 70.5q288 0 293 -367v-17h288v192q0 42 23 67.5t66 25.5q44 0 67.5 -26t23.5 -67v-549q0 -41 -24 -67.5t-67 -26.5t-66 26t-23 68l-1 192h-287l-1 -192q0 -42 -23.5 -68t-66.5 -26t-66.5 26t-23.5 68v370q0 210 -109 210q-41 0 -64.5 -26
t-23.5 -73q0 -25 6 -49q12 -32 12 -47q0 -35 -24.5 -57.5t-64.5 -22.5q-51 0 -82 56q-28 52 -28 123z" />
    <glyph glyph-name="J.init" horiz-adv-x="658" 
d="M25 152q0 67 28 123q32 56 83 56q40 0 64.5 -23t24.5 -57q0 -9 -1.5 -16.5t-5.5 -17t-5 -14.5q-7 -28 -7 -48q0 -47 24 -73.5t65 -26.5q109 0 109 212v371q0 39 24.5 64.5t67.5 25.5q89 0 89 -90v-377q0 -183 -74.5 -275t-219.5 -92q-126 0 -196 70.5t-70 187.5z" />
    <glyph glyph-name="M.init" horiz-adv-x="1301" 
d="M25 139q0 87 34 135q33 43 83 43q39 0 61 -21.5t22 -56.5q0 -9 -11 -46q-8 -22 -8 -51q0 -86 76 -86q17 0 31.5 7t27 23.5t23 34t20 48t16.5 55.5t14.5 67t12.5 71.5t11.5 79.5t10.5 81.5t10 85.5q8 55 36 87t76 32q46 0 72.5 -26t52.5 -100l123 -355h2l159 359
q30 69 59 95.5t74 26.5q55 0 83.5 -38t28.5 -99v-512q0 -39 -21 -63t-61 -24t-61 24t-21 63v343h-2l-139 -314q-29 -67 -47.5 -91.5t-52.5 -24.5q-36 0 -55.5 25t-44.5 91l-118 314h-2q-5 -67 -13 -125t-23 -120.5t-39 -111t-57 -88t-80.5 -61t-105.5 -21.5
q-121 0 -189 66.5t-68 177.5z" />
    <glyph glyph-name="N.init" horiz-adv-x="1120" 
d="M25 152q0 67 28 123q32 56 83 56q40 0 64.5 -23t24.5 -57q0 -9 -1.5 -16.5t-5.5 -17t-5 -14.5q-7 -28 -7 -48q0 -47 24 -73.5t65 -26.5q109 0 109 212v359q0 49 24 75.5t65 26.5q37 0 61.5 -20.5t69.5 -83.5l240 -337h2l-2 348q0 41 23.5 67t66.5 26t66 -25.5t23 -67.5
v-541q0 -49 -24 -75.5t-67 -26.5q-39 0 -70 27t-87 106l-211 295h-2l2 -161q0 -365 -293 -365q-126 0 -196 70.5t-70 187.5z" />
    <glyph glyph-name="Nacute.init" horiz-adv-x="1120" 
d="M668 906l69 89q33 41 73 41q36 0 60 -24t24 -61q0 -42 -37 -74l-86 -73q-31 -24 -53 -24q-29 0 -50 19.5t-21 50.5q0 32 21 56zM25 152q0 67 28 123q32 56 83 56q40 0 64.5 -23t24.5 -57q0 -9 -1.5 -16.5t-5.5 -17t-5 -14.5q-7 -28 -7 -48q0 -47 24 -73.5t65 -26.5
q109 0 109 212v359q0 49 24 75.5t65 26.5q37 0 61.5 -20.5t69.5 -83.5l240 -337h2l-2 348q0 41 23.5 67t66.5 26t66 -25.5t23 -67.5v-541q0 -49 -24 -75.5t-67 -26.5q-39 0 -70 27t-87 106l-211 295h-2l2 -161q0 -365 -293 -365q-126 0 -196 70.5t-70 187.5z" />
    <glyph glyph-name="Ncaron.init" horiz-adv-x="1120" 
d="M722 768q-49 0 -122 63l-41 37q-30 26 -30 60q0 30 19.5 49.5t47.5 19.5q26 0 45 -18l80 -71h2l81 71q19 18 44 18q29 0 48 -19.5t19 -49.5q0 -32 -31 -60l-40 -37q-73 -63 -122 -63zM25 152q0 67 28 123q32 56 83 56q40 0 64.5 -23t24.5 -57q0 -9 -1.5 -16.5t-5.5 -17
t-5 -14.5q-7 -28 -7 -48q0 -47 24 -73.5t65 -26.5q109 0 109 212v359q0 49 24 75.5t65 26.5q37 0 61.5 -20.5t69.5 -83.5l240 -337h2l-2 348q0 41 23.5 67t66.5 26t66 -25.5t23 -67.5v-541q0 -49 -24 -75.5t-67 -26.5q-39 0 -70 27t-87 106l-211 295h-2l2 -161
q0 -365 -293 -365q-126 0 -196 70.5t-70 187.5z" />
    <glyph glyph-name="uni0145.init" horiz-adv-x="1120" 
d="M25 152q0 67 28 123q32 56 83 56q40 0 64.5 -23t24.5 -57q0 -9 -1.5 -16.5t-5.5 -17t-5 -14.5q-7 -28 -7 -48q0 -47 24 -73.5t65 -26.5q109 0 109 212v359q0 49 24 75.5t65 26.5q37 0 61.5 -20.5t69.5 -83.5l240 -337h2l-2 348q0 41 23.5 67t66.5 26t66 -25.5t23 -67.5
v-541q0 -49 -24 -75.5t-67 -26.5q-39 0 -70 27t-87 106l-211 295h-2l2 -161q0 -365 -293 -365q-126 0 -196 70.5t-70 187.5zM678 -327q-32 0 -49.5 20t-13.5 52q9 74 10 130q1 31 21 51t53 20q38 0 58 -23t17 -56q-7 -79 -33 -152q-17 -42 -63 -42z" />
    <glyph glyph-name="Ntilde.init" horiz-adv-x="1120" 
d="M634 969q40 0 72.5 -12.5t54 -25t35.5 -12.5q8 0 15 3.5t10 7t8.5 11.5t8.5 12q17 19 46 19q30 0 46 -22t16 -55q0 -45 -32.5 -82.5t-89.5 -37.5q-48 0 -100.5 28t-71.5 28q-8 0 -14 -1.5t-9.5 -3t-7 -6t-4.5 -6t-4.5 -8t-4.5 -7.5q-13 -25 -48 -25q-30 0 -46 19.5
t-16 48.5q0 53 37.5 90t98.5 37zM25 152q0 67 28 123q32 56 83 56q40 0 64.5 -23t24.5 -57q0 -9 -1.5 -16.5t-5.5 -17t-5 -14.5q-7 -28 -7 -48q0 -47 24 -73.5t65 -26.5q109 0 109 212v359q0 49 24 75.5t65 26.5q37 0 61.5 -20.5t69.5 -83.5l240 -337h2l-2 348q0 41 23.5 67
t66.5 26t66 -25.5t23 -67.5v-541q0 -49 -24 -75.5t-67 -26.5q-39 0 -70 27t-87 106l-211 295h-2l2 -161q0 -365 -293 -365q-126 0 -196 70.5t-70 187.5z" />
    <glyph glyph-name="T.init" horiz-adv-x="947" 
d="M290 360q18 0 47 9q26 8 42 8q33 0 52 -21.5t19 -57.5q0 -50 -50 -78q-47 -25 -115 -25q-119 0 -187.5 67.5t-68.5 180.5q0 132 87.5 208.5t261.5 76.5h475q37 0 60 -23.5t23 -60.5q0 -36 -22.5 -59t-58.5 -23h-121l-1 -476q0 -41 -23 -67.5t-66 -26.5t-67 26.5t-24 67.5
l-1 476h-159q-189 0 -189 -115q0 -38 20.5 -62.5t65.5 -24.5z" />
    <glyph glyph-name="Tcaron.init" horiz-adv-x="947" 
d="M643 768q-48 0 -123 63l-41 37q-29 25 -29 60q0 30 19 49.5t47 19.5q26 0 45 -18l81 -71h2l80 71q19 18 45 18q28 0 47.5 -19.5t19.5 -49.5q0 -32 -31 -60l-40 -37q-73 -63 -122 -63zM290 360q18 0 47 9q26 8 42 8q33 0 52 -21.5t19 -57.5q0 -50 -50 -78
q-47 -25 -115 -25q-119 0 -187.5 67.5t-68.5 180.5q0 132 87.5 208.5t261.5 76.5h475q37 0 60 -23.5t23 -60.5q0 -36 -22.5 -59t-58.5 -23h-121l-1 -476q0 -41 -23 -67.5t-66 -26.5t-67 26.5t-24 67.5l-1 476h-159q-189 0 -189 -115q0 -38 20.5 -62.5t65.5 -24.5z" />
    <glyph glyph-name="uni0162.init" horiz-adv-x="947" 
d="M853 728q37 0 60 -23.5t23 -60.5q0 -36 -22.5 -59t-58.5 -23h-121l-1 -476q0 -52 -33 -77l-8 -25q4 -1 10.5 -2t23.5 -9t30 -19t23.5 -33t10.5 -50q0 -51 -39.5 -87t-114.5 -36q-45 0 -80 19q-33 20 -33 52q0 25 14 39t34 14q10 0 24 -5.5t22 -5.5q32 0 32 31
q0 29 -42 29q-23 0 -32 10t-3 39l11 38l1 1v2q-31 25 -31 75l-1 476h-159q-189 0 -189 -115q0 -38 20.5 -62.5t65.5 -24.5q18 0 47 9q26 8 42 8q33 0 52 -21.5t19 -57.5q0 -50 -50 -78q-47 -25 -115 -25q-119 0 -187.5 67.5t-68.5 180.5q0 132 87.5 208.5t261.5 76.5h475z
" />
    <glyph glyph-name="uni021A.init" horiz-adv-x="947" 
d="M290 360q18 0 47 9q26 8 42 8q33 0 52 -21.5t19 -57.5q0 -50 -50 -78q-47 -25 -115 -25q-119 0 -187.5 67.5t-68.5 180.5q0 132 87.5 208.5t261.5 76.5h475q37 0 60 -23.5t23 -60.5q0 -36 -22.5 -59t-58.5 -23h-121l-1 -476q0 -41 -23 -67.5t-66 -26.5t-67 26.5t-24 67.5
l-1 476h-159q-189 0 -189 -115q0 -38 20.5 -62.5t65.5 -24.5zM616 -310q-31 0 -49 20.5t-13 52.5q8 84 9 130q1 31 21 51t54 20q37 0 57 -23t17 -57q-6 -78 -33 -151q-17 -43 -63 -43z" />
    <glyph glyph-name="U.init" horiz-adv-x="1105" 
d="M24 592q0 116 70 186.5t196 70.5q143 0 213.5 -89t72.5 -271v-190q0 -73 34.5 -113.5t105.5 -40.5q140 0 140 154v336q0 41 23.5 67t67.5 26q43 0 66 -25.5t23 -67.5v-320q0 -161 -80.5 -246.5t-239.5 -85.5t-239.5 86.5t-80.5 245.5v168q0 205 -102 205q-41 0 -65 -26.5
t-24 -73.5q0 -20 7 -48q12 -38 12 -48q0 -34 -24.5 -56.5t-64.5 -22.5q-52 0 -83 56q-28 54 -28 123z" />
    <glyph glyph-name="Uacute.init" horiz-adv-x="1105" 
d="M665 899l68 89q33 42 74 42q35 0 59 -24.5t24 -60.5q0 -44 -37 -74l-86 -74q-30 -24 -52 -24q-29 0 -50 19.5t-21 50.5q0 33 21 56zM24 592q0 116 70 186.5t196 70.5q143 0 213.5 -89t72.5 -271v-190q0 -73 34.5 -113.5t105.5 -40.5q140 0 140 154v336q0 41 23.5 67
t67.5 26q43 0 66 -25.5t23 -67.5v-320q0 -161 -80.5 -246.5t-239.5 -85.5t-239.5 86.5t-80.5 245.5v168q0 205 -102 205q-41 0 -65 -26.5t-24 -73.5q0 -20 7 -48q12 -38 12 -48q0 -34 -24.5 -56.5t-64.5 -22.5q-52 0 -83 56q-28 54 -28 123z" />
    <glyph glyph-name="Ucircumflex.init" horiz-adv-x="1105" 
d="M609 761q-28 0 -47.5 20t-19.5 50q0 31 31 60l40 36q74 64 123 64q48 0 122 -64l41 -36q30 -25 30 -60q0 -30 -19.5 -50t-47.5 -20q-24 0 -45 18l-80 71h-2l-81 -71q-21 -18 -45 -18zM24 592q0 116 70 186.5t196 70.5q143 0 213.5 -89t72.5 -271v-190q0 -73 34.5 -113.5
t105.5 -40.5q140 0 140 154v336q0 41 23.5 67t67.5 26q43 0 66 -25.5t23 -67.5v-320q0 -161 -80.5 -246.5t-239.5 -85.5t-239.5 86.5t-80.5 245.5v168q0 205 -102 205q-41 0 -65 -26.5t-24 -73.5q0 -20 7 -48q12 -38 12 -48q0 -34 -24.5 -56.5t-64.5 -22.5q-52 0 -83 56
q-28 54 -28 123z" />
    <glyph glyph-name="Udieresis.init" horiz-adv-x="1105" 
d="M618 779q-47 0 -74.5 26.5t-27.5 69.5q0 41 28 67.5t74 26.5q45 0 72 -26.5t27 -67.5q0 -43 -26.5 -69.5t-72.5 -26.5zM863 779q-47 0 -74.5 26.5t-27.5 69.5q0 41 28 67.5t74 26.5q45 0 72 -26.5t27 -67.5q0 -43 -26.5 -69.5t-72.5 -26.5zM24 592q0 116 70 186.5
t196 70.5q143 0 213.5 -89t72.5 -271v-190q0 -73 34.5 -113.5t105.5 -40.5q140 0 140 154v336q0 41 23.5 67t67.5 26q43 0 66 -25.5t23 -67.5v-320q0 -161 -80.5 -246.5t-239.5 -85.5t-239.5 86.5t-80.5 245.5v168q0 205 -102 205q-41 0 -65 -26.5t-24 -73.5q0 -20 7 -48
q12 -38 12 -48q0 -34 -24.5 -56.5t-64.5 -22.5q-52 0 -83 56q-28 54 -28 123z" />
    <glyph glyph-name="Ugrave.init" horiz-adv-x="1105" 
d="M712 988l69 -89q20 -24 20 -56q0 -31 -21 -50.5t-50 -19.5q-22 0 -52 24l-86 74q-37 30 -37 74q0 36 24 60.5t59 24.5q41 0 74 -42zM24 592q0 116 70 186.5t196 70.5q143 0 213.5 -89t72.5 -271v-190q0 -73 34.5 -113.5t105.5 -40.5q140 0 140 154v336q0 41 23.5 67
t67.5 26q43 0 66 -25.5t23 -67.5v-320q0 -161 -80.5 -246.5t-239.5 -85.5t-239.5 86.5t-80.5 245.5v168q0 205 -102 205q-41 0 -65 -26.5t-24 -73.5q0 -20 7 -48q12 -38 12 -48q0 -34 -24.5 -56.5t-64.5 -22.5q-52 0 -83 56q-28 54 -28 123z" />
    <glyph glyph-name="Uhungarumlaut.init" horiz-adv-x="1105" 
d="M632 754q-32 0 -55 23t-23 56q0 29 15 54l45 80q30 49 76 49q37 0 64.5 -26t27.5 -63q0 -28 -19 -55l-58 -76q-34 -42 -73 -42zM861 754q-32 0 -55 23t-23 56q0 29 15 54l45 80q30 49 76 49q37 0 64.5 -26t27.5 -63q0 -28 -19 -55l-58 -76q-34 -42 -73 -42zM24 592
q0 116 70 186.5t196 70.5q143 0 213.5 -89t72.5 -271v-190q0 -73 34.5 -113.5t105.5 -40.5q140 0 140 154v336q0 41 23.5 67t67.5 26q43 0 66 -25.5t23 -67.5v-320q0 -161 -80.5 -246.5t-239.5 -85.5t-239.5 86.5t-80.5 245.5v168q0 205 -102 205q-41 0 -65 -26.5t-24 -73.5
q0 -20 7 -48q12 -38 12 -48q0 -34 -24.5 -56.5t-64.5 -22.5q-52 0 -83 56q-28 54 -28 123z" />
    <glyph glyph-name="Umacron.init" horiz-adv-x="1105" 
d="M852 808h-247q-29 0 -49.5 21t-20.5 50t20.5 49.5t49.5 20.5h247q29 0 49.5 -21t20.5 -50q0 -28 -21 -49t-49 -21zM24 592q0 116 70 186.5t196 70.5q143 0 213.5 -89t72.5 -271v-190q0 -73 34.5 -113.5t105.5 -40.5q140 0 140 154v336q0 41 23.5 67t67.5 26
q43 0 66 -25.5t23 -67.5v-320q0 -161 -80.5 -246.5t-239.5 -85.5t-239.5 86.5t-80.5 245.5v168q0 205 -102 205q-41 0 -65 -26.5t-24 -73.5q0 -20 7 -48q12 -38 12 -48q0 -34 -24.5 -56.5t-64.5 -22.5q-52 0 -83 56q-28 54 -28 123z" />
    <glyph glyph-name="Uogonek.init" horiz-adv-x="1105" 
d="M947 728q43 0 66 -25.5t23 -67.5v-320q0 -139 -60 -222t-179 -104h-1q-67 -50 -67 -113q0 -42 42 -42q4 0 10 0.5t9 0.5q23 0 38 -16t15 -42q0 -31 -26 -47q-25 -18 -71 -18q-66 0 -110 39t-44 113q0 71 45 125q-120 21 -180.5 104.5t-60.5 221.5v168q0 205 -102 205
q-41 0 -65 -26.5t-24 -73.5q0 -20 7 -48q12 -38 12 -48q0 -34 -24.5 -56.5t-64.5 -22.5q-52 0 -83 56q-28 54 -28 123q0 116 70 186.5t196 70.5q143 0 213.5 -89t72.5 -271v-190q0 -73 34.5 -113.5t105.5 -40.5q140 0 140 154v336q0 41 23.5 67t67.5 26z" />
    <glyph glyph-name="Uring.init" horiz-adv-x="1105" 
d="M720 759q-57 0 -94 32.5t-37 90.5q0 59 37 91.5t94 32.5t95 -32.5t38 -91.5q0 -58 -38 -90.5t-95 -32.5zM720 849q30 0 30 33t-30 33q-29 0 -29 -33t29 -33zM24 592q0 116 70 186.5t196 70.5q143 0 213.5 -89t72.5 -271v-190q0 -73 34.5 -113.5t105.5 -40.5
q140 0 140 154v336q0 41 23.5 67t67.5 26q43 0 66 -25.5t23 -67.5v-320q0 -161 -80.5 -246.5t-239.5 -85.5t-239.5 86.5t-80.5 245.5v168q0 205 -102 205q-41 0 -65 -26.5t-24 -73.5q0 -20 7 -48q12 -38 12 -48q0 -34 -24.5 -56.5t-64.5 -22.5q-52 0 -83 56q-28 54 -28 123z
" />
    <glyph glyph-name="Utilde.init" horiz-adv-x="1105" 
d="M647 963q40 0 72.5 -12.5t54 -25t35.5 -12.5q8 0 15 3.5t10 7t8.5 11.5t8.5 12q19 19 46 19q30 0 46 -22.5t16 -54.5q0 -46 -32.5 -83t-89.5 -37q-48 0 -100.5 28t-71.5 28q-7 0 -13 -1.5t-9.5 -3t-7.5 -6.5t-5 -6t-5 -8t-4 -8q-13 -25 -48 -25q-29 0 -45.5 20t-16.5 49
q0 53 37.5 90t98.5 37zM24 592q0 116 70 186.5t196 70.5q143 0 213.5 -89t72.5 -271v-190q0 -73 34.5 -113.5t105.5 -40.5q140 0 140 154v336q0 41 23.5 67t67.5 26q43 0 66 -25.5t23 -67.5v-320q0 -161 -80.5 -246.5t-239.5 -85.5t-239.5 86.5t-80.5 245.5v168
q0 205 -102 205q-41 0 -65 -26.5t-24 -73.5q0 -20 7 -48q12 -38 12 -48q0 -34 -24.5 -56.5t-64.5 -22.5q-52 0 -83 56q-28 54 -28 123z" />
    <glyph glyph-name="V.init" horiz-adv-x="1095" 
d="M25 575q0 110 68.5 182.5t193.5 72.5q148 0 235 -120q58 -81 125 -281l33 -99l47 -150h2l165 474q13 38 31.5 56t54.5 18q51 0 75.5 -34t7.5 -81l-183 -471q-32 -82 -63.5 -116t-87.5 -34q-55 0 -86 30.5t-60 102.5l-57 169q-89 242 -129 308t-107 66q-44 0 -65.5 -27.5
t-21.5 -68.5q0 -37 18 -70q7 -19 7 -33q0 -37 -23 -59.5t-62 -22.5q-48 0 -78 45q-40 56 -40 143z" />
    <glyph glyph-name="W.init" horiz-adv-x="1435" 
d="M25 575q0 110 68.5 182.5t193.5 72.5q79 0 135.5 -26.5t100.5 -89t77 -147.5t69 -221l34 -124h2l93 386q17 69 44 94.5t73 25.5q44 0 70 -26t42 -93l93 -387h2l108 430q11 42 30 59t58 17q50 0 75 -33t11 -79l-147 -471q-26 -88 -55 -120.5t-80 -32.5q-54 0 -83 34.5
t-50 118.5l-75 304h-2l-77 -306q-21 -81 -50 -115.5t-82 -34.5q-52 0 -80.5 31.5t-53.5 115.5l-59 183q-51 182 -98 263.5t-122 81.5q-44 0 -65.5 -27.5t-21.5 -68.5q0 -37 18 -70q7 -19 7 -33q0 -36 -24.5 -59t-60.5 -23q-48 0 -74 39q-44 66 -44 149z" />
    <glyph glyph-name="Wacute.init" horiz-adv-x="1435" 
d="M858 906l69 89q33 41 74 41q35 0 59 -24t24 -61q0 -44 -37 -74l-86 -73q-31 -24 -53 -24q-29 0 -49.5 19.5t-20.5 50.5q0 33 20 56zM25 575q0 110 68.5 182.5t193.5 72.5q79 0 135.5 -26.5t100.5 -89t77 -147.5t69 -221l34 -124h2l93 386q17 69 44 94.5t73 25.5
q44 0 70 -26t42 -93l93 -387h2l108 430q11 42 30 59t58 17q50 0 75 -33t11 -79l-147 -471q-26 -88 -55 -120.5t-80 -32.5q-54 0 -83 34.5t-50 118.5l-75 304h-2l-77 -306q-21 -81 -50 -115.5t-82 -34.5q-52 0 -80.5 31.5t-53.5 115.5l-59 183q-51 182 -98 263.5t-122 81.5
q-44 0 -65.5 -27.5t-21.5 -68.5q0 -37 18 -70q7 -19 7 -33q0 -36 -24.5 -59t-60.5 -23q-48 0 -74 39q-44 66 -44 149z" />
    <glyph glyph-name="Wcircumflex.init" horiz-adv-x="1435" 
d="M787 768q-29 0 -48 20t-19 50q0 31 31 59l40 37q73 63 122 63t122 -63l41 -37q30 -26 30 -59q0 -30 -19.5 -50t-47.5 -20q-23 0 -45 18l-80 71h-2l-81 -71q-21 -18 -44 -18zM25 575q0 110 68.5 182.5t193.5 72.5q79 0 135.5 -26.5t100.5 -89t77 -147.5t69 -221l34 -124h2
l93 386q17 69 44 94.5t73 25.5q44 0 70 -26t42 -93l93 -387h2l108 430q11 42 30 59t58 17q50 0 75 -33t11 -79l-147 -471q-26 -88 -55 -120.5t-80 -32.5q-54 0 -83 34.5t-50 118.5l-75 304h-2l-77 -306q-21 -81 -50 -115.5t-82 -34.5q-52 0 -80.5 31.5t-53.5 115.5l-59 183
q-51 182 -98 263.5t-122 81.5q-44 0 -65.5 -27.5t-21.5 -68.5q0 -37 18 -70q7 -19 7 -33q0 -36 -24.5 -59t-60.5 -23q-48 0 -74 39q-44 66 -44 149z" />
    <glyph glyph-name="Wdieresis.init" horiz-adv-x="1435" 
d="M795 785q-47 0 -74.5 26.5t-27.5 69.5q0 41 28 68t74 27q45 0 72 -27t27 -68q0 -43 -26.5 -69.5t-72.5 -26.5zM1040 785q-47 0 -74.5 26.5t-27.5 69.5q0 41 28 68t74 27t72.5 -27t26.5 -68q0 -43 -26.5 -69.5t-72.5 -26.5zM25 575q0 110 68.5 182.5t193.5 72.5
q79 0 135.5 -26.5t100.5 -89t77 -147.5t69 -221l34 -124h2l93 386q17 69 44 94.5t73 25.5q44 0 70 -26t42 -93l93 -387h2l108 430q11 42 30 59t58 17q50 0 75 -33t11 -79l-147 -471q-26 -88 -55 -120.5t-80 -32.5q-54 0 -83 34.5t-50 118.5l-75 304h-2l-77 -306
q-21 -81 -50 -115.5t-82 -34.5q-52 0 -80.5 31.5t-53.5 115.5l-59 183q-51 182 -98 263.5t-122 81.5q-44 0 -65.5 -27.5t-21.5 -68.5q0 -37 18 -70q7 -19 7 -33q0 -36 -24.5 -59t-60.5 -23q-48 0 -74 39q-44 66 -44 149z" />
    <glyph glyph-name="Wgrave.init" horiz-adv-x="1435" 
d="M889 995l69 -89q20 -23 20 -56q0 -31 -20.5 -50.5t-49.5 -19.5q-22 0 -53 24l-86 73q-37 30 -37 74q0 37 24 61t59 24q41 0 74 -41zM25 575q0 110 68.5 182.5t193.5 72.5q79 0 135.5 -26.5t100.5 -89t77 -147.5t69 -221l34 -124h2l93 386q17 69 44 94.5t73 25.5
q44 0 70 -26t42 -93l93 -387h2l108 430q11 42 30 59t58 17q50 0 75 -33t11 -79l-147 -471q-26 -88 -55 -120.5t-80 -32.5q-54 0 -83 34.5t-50 118.5l-75 304h-2l-77 -306q-21 -81 -50 -115.5t-82 -34.5q-52 0 -80.5 31.5t-53.5 115.5l-59 183q-51 182 -98 263.5t-122 81.5
q-44 0 -65.5 -27.5t-21.5 -68.5q0 -37 18 -70q7 -19 7 -33q0 -36 -24.5 -59t-60.5 -23q-48 0 -74 39q-44 66 -44 149z" />
    <glyph glyph-name="i.loclTRK" horiz-adv-x="298" 
d="M149 572q-51 0 -82 29t-31 79t31 78.5t82 28.5q50 0 81 -28.5t31 -78.5t-30.5 -79t-81.5 -29zM150 -8q-43 0 -67 26.5t-24 67.5v335q0 41 23.5 67t67.5 26q43 0 66 -25.5t23 -67.5v-335q0 -42 -23 -68t-66 -26z" />
    <glyph glyph-name="a.fina" horiz-adv-x="889" 
d="M884 -3q0 -110 -62 -176.5t-184 -66.5q-129 0 -194.5 83.5t-65.5 214.5v12h-2q-65 -81 -168 -81q-87 0 -134 40.5t-47 117.5q0 80 57 123.5t144 43.5q74 0 131 -30q0 53 -30 72.5t-85 19.5q-15 0 -70 -10q-37 -7 -42 -7q-30 0 -46.5 17.5t-16.5 48.5q0 55 64 80
q54 23 141 23q63 0 110 -16.5t73.5 -42.5t43 -64.5t22 -75.5t5.5 -84v-145q0 -186 104 -186q83 0 83 93q0 22 -9 56q-11 35 -11 47q0 34 23.5 54.5t59.5 20.5q47 0 72 -45q34 -50 34 -137zM262 109q35 0 64 23t33 55q-33 21 -78 21q-36 0 -57.5 -14t-21.5 -38q0 -47 60 -47z
" />
    <glyph glyph-name="aacute.fina" horiz-adv-x="889" 
d="M240 701l68 89q33 42 74 42q35 0 59 -24.5t24 -60.5q0 -45 -37 -75l-86 -73q-30 -24 -52 -24q-29 0 -50 19.5t-21 50.5q0 33 21 56zM884 -3q0 -110 -62 -176.5t-184 -66.5q-129 0 -194.5 83.5t-65.5 214.5v12h-2q-65 -81 -168 -81q-87 0 -134 40.5t-47 117.5
q0 80 57 123.5t144 43.5q74 0 131 -30q0 53 -30 72.5t-85 19.5q-15 0 -70 -10q-37 -7 -42 -7q-30 0 -46.5 17.5t-16.5 48.5q0 55 64 80q54 23 141 23q63 0 110 -16.5t73.5 -42.5t43 -64.5t22 -75.5t5.5 -84v-145q0 -186 104 -186q83 0 83 93q0 22 -9 56q-11 35 -11 47
q0 34 23.5 54.5t59.5 20.5q47 0 72 -45q34 -50 34 -137zM262 109q35 0 64 23t33 55q-33 21 -78 21q-36 0 -57.5 -14t-21.5 -38q0 -47 60 -47z" />
    <glyph glyph-name="abreve.fina" horiz-adv-x="889" 
d="M293 695q40 0 53 45q16 47 67 47q31 0 50 -20.5t19 -51.5q0 -65 -53.5 -106t-135.5 -41q-83 0 -136 41.5t-53 105.5q0 31 19.5 51.5t49.5 20.5q51 0 67 -49q15 -43 53 -43zM884 -3q0 -110 -62 -176.5t-184 -66.5q-129 0 -194.5 83.5t-65.5 214.5v12h-2q-65 -81 -168 -81
q-87 0 -134 40.5t-47 117.5q0 80 57 123.5t144 43.5q74 0 131 -30q0 53 -30 72.5t-85 19.5q-15 0 -70 -10q-37 -7 -42 -7q-30 0 -46.5 17.5t-16.5 48.5q0 55 64 80q54 23 141 23q63 0 110 -16.5t73.5 -42.5t43 -64.5t22 -75.5t5.5 -84v-145q0 -186 104 -186q83 0 83 93
q0 22 -9 56q-11 35 -11 47q0 34 23.5 54.5t59.5 20.5q47 0 72 -45q34 -50 34 -137zM262 109q35 0 64 23t33 55q-33 21 -78 21q-36 0 -57.5 -14t-21.5 -38q0 -47 60 -47z" />
    <glyph glyph-name="acircumflex.fina" horiz-adv-x="889" 
d="M168 563q-28 0 -47.5 20t-19.5 50q0 31 31 60l40 36q74 64 122 64t122 -64l42 -36q29 -26 29 -60q0 -30 -19 -50t-48 -20q-23 0 -44 18l-81 71h-2l-80 -71q-23 -18 -45 -18zM884 -3q0 -110 -62 -176.5t-184 -66.5q-129 0 -194.5 83.5t-65.5 214.5v12h-2q-65 -81 -168 -81
q-87 0 -134 40.5t-47 117.5q0 80 57 123.5t144 43.5q74 0 131 -30q0 53 -30 72.5t-85 19.5q-15 0 -70 -10q-37 -7 -42 -7q-30 0 -46.5 17.5t-16.5 48.5q0 55 64 80q54 23 141 23q63 0 110 -16.5t73.5 -42.5t43 -64.5t22 -75.5t5.5 -84v-145q0 -186 104 -186q83 0 83 93
q0 22 -9 56q-11 35 -11 47q0 34 23.5 54.5t59.5 20.5q47 0 72 -45q34 -50 34 -137zM262 109q35 0 64 23t33 55q-33 21 -78 21q-36 0 -57.5 -14t-21.5 -38q0 -47 60 -47z" />
    <glyph glyph-name="adieresis.fina" horiz-adv-x="889" 
d="M176 581q-47 0 -74 26.5t-27 69.5q0 41 27.5 67.5t73.5 26.5q45 0 72 -26.5t27 -67.5q0 -43 -26 -69.5t-73 -26.5zM421 581q-47 0 -74 26.5t-27 69.5q0 41 27.5 67.5t73.5 26.5t73 -26.5t27 -67.5q0 -43 -26.5 -69.5t-73.5 -26.5zM884 -3q0 -110 -62 -176.5t-184 -66.5
q-129 0 -194.5 83.5t-65.5 214.5v12h-2q-65 -81 -168 -81q-87 0 -134 40.5t-47 117.5q0 80 57 123.5t144 43.5q74 0 131 -30q0 53 -30 72.5t-85 19.5q-15 0 -70 -10q-37 -7 -42 -7q-30 0 -46.5 17.5t-16.5 48.5q0 55 64 80q54 23 141 23q63 0 110 -16.5t73.5 -42.5t43 -64.5
t22 -75.5t5.5 -84v-145q0 -186 104 -186q83 0 83 93q0 22 -9 56q-11 35 -11 47q0 34 23.5 54.5t59.5 20.5q47 0 72 -45q34 -50 34 -137zM262 109q35 0 64 23t33 55q-33 21 -78 21q-36 0 -57.5 -14t-21.5 -38q0 -47 60 -47z" />
    <glyph glyph-name="agrave.fina" horiz-adv-x="889" 
d="M270 790l69 -89q21 -23 21 -56q0 -31 -21 -50.5t-50 -19.5q-22 0 -53 24l-86 73q-37 32 -37 75q0 36 24.5 60.5t59.5 24.5q40 0 73 -42zM884 -3q0 -110 -62 -176.5t-184 -66.5q-129 0 -194.5 83.5t-65.5 214.5v12h-2q-65 -81 -168 -81q-87 0 -134 40.5t-47 117.5
q0 80 57 123.5t144 43.5q74 0 131 -30q0 53 -30 72.5t-85 19.5q-15 0 -70 -10q-37 -7 -42 -7q-30 0 -46.5 17.5t-16.5 48.5q0 55 64 80q54 23 141 23q63 0 110 -16.5t73.5 -42.5t43 -64.5t22 -75.5t5.5 -84v-145q0 -186 104 -186q83 0 83 93q0 22 -9 56q-11 35 -11 47
q0 34 23.5 54.5t59.5 20.5q47 0 72 -45q34 -50 34 -137zM262 109q35 0 64 23t33 55q-33 21 -78 21q-36 0 -57.5 -14t-21.5 -38q0 -47 60 -47z" />
    <glyph glyph-name="amacron.fina" horiz-adv-x="889" 
d="M424 610h-247q-29 0 -49.5 21t-20.5 50t20.5 49.5t49.5 20.5h247q29 0 49.5 -21t20.5 -50q0 -28 -21 -49t-49 -21zM884 -3q0 -110 -62 -176.5t-184 -66.5q-129 0 -194.5 83.5t-65.5 214.5v12h-2q-65 -81 -168 -81q-87 0 -134 40.5t-47 117.5q0 80 57 123.5t144 43.5
q74 0 131 -30q0 53 -30 72.5t-85 19.5q-15 0 -70 -10q-37 -7 -42 -7q-30 0 -46.5 17.5t-16.5 48.5q0 55 64 80q54 23 141 23q63 0 110 -16.5t73.5 -42.5t43 -64.5t22 -75.5t5.5 -84v-145q0 -186 104 -186q83 0 83 93q0 22 -9 56q-11 35 -11 47q0 34 23.5 54.5t59.5 20.5
q47 0 72 -45q34 -50 34 -137zM262 109q35 0 64 23t33 55q-33 21 -78 21q-36 0 -57.5 -14t-21.5 -38q0 -47 60 -47z" />
    <glyph glyph-name="aogonek.fina" horiz-adv-x="889" 
d="M742 -230q-67 -51 -67 -112q0 -18 10.5 -30t31.5 -12q3 0 10 0.5t10 0.5q23 0 37.5 -16t14.5 -42q0 -30 -25 -47q-25 -18 -72 -18q-66 0 -110 39t-44 112q0 65 37 115q-98 20 -147.5 99.5t-49.5 192.5v12h-2q-65 -81 -168 -81q-87 0 -134 40.5t-47 117.5q0 80 57 123.5
t144 43.5q74 0 131 -30q0 53 -30 72.5t-85 19.5q-15 0 -70 -10q-37 -7 -42 -7q-30 0 -46.5 17.5t-16.5 48.5q0 55 64 80q54 23 141 23q63 0 110 -16.5t73.5 -42.5t43 -64.5t22 -75.5t5.5 -84v-145q0 -186 104 -186q83 0 83 93q0 22 -9 56q-11 35 -11 47q0 34 23.5 54.5
t59.5 20.5q47 0 72 -45q34 -50 34 -137q0 -83 -35.5 -142.5t-106.5 -84.5zM262 109q35 0 64 23t33 55q-33 21 -78 21q-36 0 -57.5 -14t-21.5 -38q0 -47 60 -47z" />
    <glyph glyph-name="aring.fina" horiz-adv-x="889" 
d="M294 561q-57 0 -94 32.5t-37 90.5q0 59 37 91.5t94 32.5t95 -32.5t38 -91.5q0 -58 -38 -90.5t-95 -32.5zM294 651q30 0 30 33t-30 33q-29 0 -29 -33t29 -33zM884 -3q0 -110 -62 -176.5t-184 -66.5q-129 0 -194.5 83.5t-65.5 214.5v12h-2q-65 -81 -168 -81
q-87 0 -134 40.5t-47 117.5q0 80 57 123.5t144 43.5q74 0 131 -30q0 53 -30 72.5t-85 19.5q-15 0 -70 -10q-37 -7 -42 -7q-30 0 -46.5 17.5t-16.5 48.5q0 55 64 80q54 23 141 23q63 0 110 -16.5t73.5 -42.5t43 -64.5t22 -75.5t5.5 -84v-145q0 -186 104 -186q83 0 83 93
q0 22 -9 56q-11 35 -11 47q0 34 23.5 54.5t59.5 20.5q47 0 72 -45q34 -50 34 -137zM262 109q35 0 64 23t33 55q-33 21 -78 21q-36 0 -57.5 -14t-21.5 -38q0 -47 60 -47z" />
    <glyph glyph-name="atilde.fina" horiz-adv-x="889" 
d="M206 765q40 0 72.5 -12.5t54 -25t35.5 -12.5q11 0 17 3.5t14.5 15t10.5 14.5q16 20 45 20q30 0 46 -22.5t16 -54.5q0 -46 -32 -83t-89 -37q-48 0 -101 28t-71 28q-7 0 -13.5 -1.5t-10 -3t-7 -6t-5 -6.5t-4.5 -8l-4 -8q-15 -25 -48 -25q-30 0 -46.5 20t-16.5 49
q0 53 38 90t99 37zM884 -3q0 -110 -62 -176.5t-184 -66.5q-129 0 -194.5 83.5t-65.5 214.5v12h-2q-65 -81 -168 -81q-87 0 -134 40.5t-47 117.5q0 80 57 123.5t144 43.5q74 0 131 -30q0 53 -30 72.5t-85 19.5q-15 0 -70 -10q-37 -7 -42 -7q-30 0 -46.5 17.5t-16.5 48.5
q0 55 64 80q54 23 141 23q63 0 110 -16.5t73.5 -42.5t43 -64.5t22 -75.5t5.5 -84v-145q0 -186 104 -186q83 0 83 93q0 22 -9 56q-11 35 -11 47q0 34 23.5 54.5t59.5 20.5q47 0 72 -45q34 -50 34 -137zM262 109q35 0 64 23t33 55q-33 21 -78 21q-36 0 -57.5 -14t-21.5 -38
q0 -47 60 -47z" />
    <glyph glyph-name="d.fina" horiz-adv-x="940" 
d="M935 -3q0 -110 -62 -176.5t-184 -66.5q-130 0 -195.5 83.5t-65.5 214.5v11h-2q-46 -80 -153 -80t-171.5 75t-64.5 194q0 123 62.5 196.5t171.5 73.5q41 0 75 -13.5t50 -33.5h2v190q0 41 24 67.5t67 26.5t66 -26t23 -68v-571q0 -186 105 -186q83 0 83 93q0 26 -10 56
q-10 32 -10 47q0 34 23 54.5t60 20.5q47 0 72 -45q34 -52 34 -137zM316 140q44 0 68 28.5t24 84.5q0 55 -24.5 83.5t-68.5 28.5q-43 0 -68 -30t-25 -83q0 -52 25.5 -82t68.5 -30z" />
    <glyph glyph-name="dcaron.fina" horiz-adv-x="941" 
d="M935 -3q0 -110 -62 -176.5t-184 -66.5q-130 0 -195.5 83.5t-65.5 214.5v11h-2q-46 -80 -153 -80t-171.5 75t-64.5 194q0 123 62.5 196.5t171.5 73.5q41 0 75 -13.5t50 -33.5h2v190q0 41 24 67.5t67 26.5t66 -26t23 -68v-571q0 -186 105 -186q83 0 83 93q0 26 -10 56
q-10 32 -10 47q0 34 23 54.5t60 20.5q47 0 72 -45q34 -52 34 -137zM699 485q-31 0 -49 20.5t-13 51.5q8 87 9 131q1 30 21.5 50.5t53.5 20.5q37 0 57 -23.5t17 -56.5q-6 -79 -33 -152q-17 -42 -63 -42zM316 140q44 0 68 28.5t24 84.5q0 55 -24.5 83.5t-68.5 28.5
q-43 0 -68 -30t-25 -83q0 -52 25.5 -82t68.5 -30z" />
    <glyph glyph-name="dcroat.fina" horiz-adv-x="940" 
d="M901 134q34 -52 34 -137q0 -110 -62 -176.5t-184 -66.5q-130 0 -195.5 83.5t-65.5 214.5v11h-2q-46 -80 -153 -80t-171.5 75t-64.5 194q0 123 62.5 196.5t171.5 73.5q41 0 75 -13.5t50 -33.5h2v96h-71q-29 0 -48.5 19.5t-19.5 48.5q0 28 20 48t48 20h79q20 52 83 52
q62 0 82 -52q27 -1 46.5 -21t19.5 -47q0 -26 -17 -45t-42 -22v-478q0 -186 105 -186q83 0 83 93q0 26 -10 56q-10 32 -10 47q0 34 23 54.5t60 20.5q47 0 72 -45zM316 140q44 0 68 28.5t24 84.5q0 55 -24.5 83.5t-68.5 28.5q-43 0 -68 -30t-25 -83q0 -52 25.5 -82t68.5 -30z
" />
    <glyph glyph-name="h.fina" horiz-adv-x="937" 
d="M933 -6q0 -108 -62.5 -174t-180.5 -66q-82 0 -138 28t-88 85t-45.5 132.5t-13.5 180.5v78q0 106 -75 106q-42 0 -65 -28t-23 -76l-1 -174q0 -42 -23 -68t-66 -26t-67 26.5t-24 67.5v579q0 41 24 67.5t67 26.5t66 -26t23 -68v-191h2q18 21 56.5 34.5t77.5 13.5
q208 0 208 -261v-129q0 -52 4 -88.5t14 -69.5t30.5 -49.5t50.5 -16.5q37 0 58.5 23t21.5 67q0 22 -9 56q-11 28 -11 47q0 34 23.5 54.5t59.5 20.5q48 0 72 -45q34 -50 34 -137z" />
    <glyph glyph-name="hbar.fina" horiz-adv-x="937" 
d="M899 131q34 -50 34 -137q0 -108 -62.5 -174t-180.5 -66q-82 0 -138 28t-88 85t-45.5 132.5t-13.5 180.5v78q0 106 -75 106q-42 0 -65 -28t-23 -76l-1 -174q0 -42 -23 -68t-66 -26t-67 26.5t-24 67.5v487q-23 5 -38 23.5t-15 42.5q0 25 17.5 45t42.5 23q22 52 84 52
t82 -52h84q28 0 48 -20t20 -48q0 -29 -20 -48.5t-48 -19.5h-77v-97h2q18 21 56.5 34.5t77.5 13.5q208 0 208 -261v-129q0 -52 4 -88.5t14 -69.5t30.5 -49.5t50.5 -16.5q37 0 58.5 23t21.5 67q0 22 -9 56q-11 28 -11 47q0 34 23.5 54.5t59.5 20.5q48 0 72 -45z" />
    <glyph glyph-name="k.fina" horiz-adv-x="947" 
d="M921 141q0 -116 -66.5 -190.5t-194.5 -74.5q-140 0 -222.5 74t-155.5 234h-40v-98q0 -42 -23.5 -68t-66.5 -26q-44 0 -67.5 26t-23.5 68l1 579q0 42 23.5 68t66.5 26t66 -26t23 -68l1 -336h47l88 138q14 24 30 35.5t45 11.5q35 0 59.5 -24.5t24.5 -57.5q0 -20 -12 -41
l-93 -136q24 -53 42.5 -86.5t45 -68.5t58.5 -51.5t71 -16.5q101 0 101 111q0 21 -13 64q-6 22 -6 36q0 35 24 57t60 22q46 0 73 -46q34 -50 34 -135z" />
    <glyph glyph-name="uni0137.fina" horiz-adv-x="947" 
d="M921 141q0 -116 -66.5 -190.5t-194.5 -74.5q-140 0 -222.5 74t-155.5 234h-40v-98q0 -42 -23.5 -68t-66.5 -26q-44 0 -67.5 26t-23.5 68l1 579q0 42 23.5 68t66.5 26t66 -26t23 -68l1 -336h47l88 138q14 24 30 35.5t45 11.5q35 0 59.5 -24.5t24.5 -57.5q0 -20 -12 -41
l-93 -136q24 -53 42.5 -86.5t45 -68.5t58.5 -51.5t71 -16.5q101 0 101 111q0 21 -13 64q-6 22 -6 36q0 35 24 57t60 22q46 0 73 -46q34 -50 34 -135zM267 -321q-32 0 -49.5 20.5t-13.5 51.5q9 76 10 131q1 30 21.5 50.5t53.5 20.5q37 0 57 -23.5t17 -56.5q-7 -77 -33 -151
q-17 -43 -63 -43z" />
    <glyph glyph-name="m.fina" horiz-adv-x="1251" 
d="M1247 -6q0 -108 -62.5 -174t-178.5 -66q-161 0 -224 105.5t-63 320.5v74q0 107 -72 107q-37 0 -57.5 -28.5t-19.5 -76.5v-170q0 -42 -23.5 -68t-66.5 -26t-66.5 26t-23.5 68v168q0 47 -16.5 77t-52.5 30q-39 0 -60 -28.5t-21 -76.5l-1 -170q0 -42 -23 -68t-66 -26
t-66.5 26t-23.5 68v353q0 34 18.5 54.5t53.5 20.5q34 0 53.5 -20t20.5 -51v-13h2q20 41 63.5 66.5t97.5 25.5q53 0 96 -23.5t65 -68.5h2q21 42 66.5 67t94.5 25q97 0 151.5 -65.5t54.5 -195.5v-129q0 -108 20.5 -166t77.5 -58q38 0 59.5 22.5t21.5 67.5q0 26 -10 56t-10 47
q0 34 23 54.5t60 20.5q48 0 72 -45q34 -52 34 -137z" />
    <glyph glyph-name="n.fina" horiz-adv-x="935" 
d="M931 -6q0 -108 -62.5 -174t-178.5 -66q-161 0 -224 105.5t-63 320.5v76q0 106 -75 106q-42 0 -65 -29t-23 -77l-1 -170q0 -42 -23 -68t-66 -26t-66.5 26t-23.5 68v353q0 34 18.5 54.5t53.5 20.5q34 0 53.5 -19.5t20.5 -51.5v-13h2q20 42 67 67t100 25q208 0 208 -259
v-131q0 -52 4 -88.5t14 -69.5t30.5 -49.5t50.5 -16.5q37 0 58.5 23t21.5 67q0 22 -9 56q-11 29 -11 47q0 34 23.5 54.5t59.5 20.5q48 0 72 -45q34 -50 34 -137z" />
    <glyph glyph-name="nacute.fina" horiz-adv-x="935" 
d="M273 699l68 89q33 42 74 42q35 0 59.5 -24.5t24.5 -60.5q0 -42 -37 -74l-86 -73q-31 -24 -53 -24q-29 0 -50 19.5t-21 49.5q0 33 21 56zM931 -6q0 -108 -62.5 -174t-178.5 -66q-161 0 -224 105.5t-63 320.5v76q0 106 -75 106q-42 0 -65 -29t-23 -77l-1 -170
q0 -42 -23 -68t-66 -26t-66.5 26t-23.5 68v353q0 34 18.5 54.5t53.5 20.5q34 0 53.5 -19.5t20.5 -51.5v-13h2q20 42 67 67t100 25q208 0 208 -259v-131q0 -52 4 -88.5t14 -69.5t30.5 -49.5t50.5 -16.5q37 0 58.5 23t21.5 67q0 22 -9 56q-11 29 -11 47q0 34 23.5 54.5
t59.5 20.5q48 0 72 -45q34 -50 34 -137z" />
    <glyph glyph-name="ncaron.fina" horiz-adv-x="935" 
d="M327 562q-49 0 -122 63l-41 36q-30 27 -30 60q0 30 19.5 50t47.5 20q25 0 44 -18l81 -72h2l81 72q19 18 44 18q28 0 47.5 -20t19.5 -50q0 -31 -31 -60l-40 -36q-71 -63 -122 -63zM931 -6q0 -108 -62.5 -174t-178.5 -66q-161 0 -224 105.5t-63 320.5v76q0 106 -75 106
q-42 0 -65 -29t-23 -77l-1 -170q0 -42 -23 -68t-66 -26t-66.5 26t-23.5 68v353q0 34 18.5 54.5t53.5 20.5q34 0 53.5 -19.5t20.5 -51.5v-13h2q20 42 67 67t100 25q208 0 208 -259v-131q0 -52 4 -88.5t14 -69.5t30.5 -49.5t50.5 -16.5q37 0 58.5 23t21.5 67q0 22 -9 56
q-11 29 -11 47q0 34 23.5 54.5t59.5 20.5q48 0 72 -45q34 -50 34 -137z" />
    <glyph glyph-name="uni0146.fina" horiz-adv-x="935" 
d="M931 -6q0 -108 -62.5 -174t-178.5 -66q-161 0 -224 105.5t-63 320.5v76q0 106 -75 106q-42 0 -65 -29t-23 -77l-1 -170q0 -42 -23 -68t-66 -26t-66.5 26t-23.5 68v353q0 34 18.5 54.5t53.5 20.5q34 0 53.5 -19.5t20.5 -51.5v-13h2q20 42 67 67t100 25q208 0 208 -259
v-131q0 -52 4 -88.5t14 -69.5t30.5 -49.5t50.5 -16.5q37 0 58.5 23t21.5 67q0 22 -9 56q-11 29 -11 47q0 34 23.5 54.5t59.5 20.5q48 0 72 -45q34 -50 34 -137zM253 -321q-32 0 -49.5 20.5t-13.5 51.5q9 76 10 131q0 30 20.5 50.5t53.5 20.5q38 0 58 -23.5t17 -56.5
q-7 -79 -34 -151q-15 -43 -62 -43z" />
    <glyph glyph-name="ntilde.fina" horiz-adv-x="935" 
d="M239 763q40 0 72.5 -12.5t54 -25t35.5 -12.5q11 0 17.5 4t14 15.5t10.5 14.5q17 19 45 19q31 0 47 -22t16 -55q0 -46 -32.5 -83t-89.5 -37q-48 0 -100.5 28t-71.5 28q-9 0 -15.5 -1.5t-11 -6l-6.5 -6.5t-6 -9.5t-5 -8.5q-16 -26 -48 -26q-29 0 -45.5 20t-16.5 49
q0 53 37.5 90t98.5 37zM931 -6q0 -108 -62.5 -174t-178.5 -66q-161 0 -224 105.5t-63 320.5v76q0 106 -75 106q-42 0 -65 -29t-23 -77l-1 -170q0 -42 -23 -68t-66 -26t-66.5 26t-23.5 68v353q0 34 18.5 54.5t53.5 20.5q34 0 53.5 -19.5t20.5 -51.5v-13h2q20 42 67 67t100 25
q208 0 208 -259v-131q0 -52 4 -88.5t14 -69.5t30.5 -49.5t50.5 -16.5q37 0 58.5 23t21.5 67q0 22 -9 56q-11 29 -11 47q0 34 23.5 54.5t59.5 20.5q48 0 72 -45q34 -50 34 -137z" />
    <glyph glyph-name="t.fina" horiz-adv-x="644" 
d="M602 146q34 -53 34 -139q0 -110 -62 -176.5t-183 -66.5q-285 0 -285 386v208h-10q-33 0 -53.5 21t-20.5 54q0 32 20.5 53t53.5 21h19q5 21 10 34q25 86 88 86q74 0 74 -81v-39h66q32 0 53 -21t21 -53q0 -33 -21 -54t-53 -21h-66v-230q0 -103 20.5 -156.5t76.5 -53.5
q79 0 79 93q0 29 -9 58q-11 28 -11 46q0 35 24 56t61 21q48 0 74 -46z" />
    <glyph glyph-name="tbar.fina" horiz-adv-x="649" 
d="M607 146q34 -51 34 -139q0 -110 -62 -176.5t-183 -66.5q-148 0 -216 99t-68 287v87h-36q-22 0 -36.5 13.5t-14.5 37.5q0 26 14 38.5t37 12.5h36v42h-22q-28 0 -45.5 17t-17.5 46t17.5 46t45.5 17h30q5 21 10 34q25 86 89 86q73 0 73 -81v-39h65q28 0 45 -16t17 -47
t-17 -47t-45 -16h-65v-42h79q22 0 36.5 -13.5t14.5 -37.5q0 -23 -14.5 -37t-36.5 -14h-79v-109q0 -103 20.5 -156.5t76.5 -53.5q80 0 80 93q0 26 -10 58q-11 33 -11 46q0 35 24 56t61 21q48 0 74 -46z" />
    <glyph glyph-name="tcaron.fina" horiz-adv-x="644" 
d="M391 548q-32 0 -49.5 20.5t-13.5 51.5q7 60 10 131q0 30 20.5 50.5t53.5 20.5q37 0 57.5 -23.5t17.5 -56.5q-7 -80 -34 -151q-15 -43 -62 -43zM602 146q34 -53 34 -139q0 -110 -62 -176.5t-183 -66.5q-285 0 -285 386v208h-10q-33 0 -53.5 21t-20.5 54q0 32 20.5 53
t53.5 21h19q5 21 10 34q25 86 88 86q74 0 74 -81v-39h66q32 0 53 -21t21 -53q0 -33 -21 -54t-53 -21h-66v-230q0 -103 20.5 -156.5t76.5 -53.5q79 0 79 93q0 29 -9 58q-11 28 -11 46q0 35 24 56t61 21q48 0 74 -46z" />
    </font>
</defs>
</svg>
