<?xml version="1.0" standalone="no"?>
<!DOCTYPE svg PUBLIC "-//W3C//DTD SVG 1.1//EN" "http://www.w3.org/Graphics/SVG/1.1/DTD/svg11.dtd" >
<svg xmlns="http://www.w3.org/2000/svg" xmlns:xlink="http://www.w3.org/1999/xlink" version="1.1">
<metadata>
Created by FontForge 20170731 at Wed Nov  7 09:14:20 2018
 By Aleksey,,,
Copyright (c) 2018 by Sofia Mohr. All rights reserved.
</metadata>
<defs>
<font id="MohrRounded-Thin" horiz-adv-x="1171" >
  <font-face 
    font-family="MohrRounded-Thin"
    font-weight="400"
    font-stretch="normal"
    units-per-em="1000"
    panose-1="0 0 3 0 0 0 0 0 0 0"
    ascent="770"
    descent="-230"
    x-height="497"
    cap-height="728"
    bbox="-444 -469 1433.62 1031"
    underline-thickness="50"
    underline-position="-200"
    unicode-range="U+0020-FB02"
  />
<missing-glyph horiz-adv-x="530" 
d="M50 730h430v-730h-430v730zM115 695l150 -287l150 287h-300zM243 365l-153 292v-584zM288 365l152 -292v584zM265 322l-150 -287h300z" />
    <glyph glyph-name="fi" unicode="fi" horiz-adv-x="545" 
d="M425 490q14 0 14 -14v-461q0 -6 -4.5 -10.5t-10.5 -4.5t-10.5 4.5t-4.5 10.5v447h-264v-454q0 -15 -15 -15t-15 15v454h-57q-5 0 -9.5 4t-4.5 10t4.5 10t9.5 4h57v51q0 115 55.5 172t157.5 57q64 0 103 -28q8 -5 8 -14q0 -13 -14 -13q-5 0 -33.5 13.5t-66.5 13.5
q-86 0 -133 -49.5t-47 -151.5v-51h280z" />
    <glyph glyph-name="fl" unicode="fl" horiz-adv-x="517" 
d="M396 755q15 0 15 -15v-732q0 -15 -15 -15t-15 15v712q-37 22 -87 22q-78 0 -113.5 -50t-35.5 -161v-41h145q5 0 9.5 -4t4.5 -10t-4.5 -10t-9.5 -4h-145v-454q0 -15 -15 -15t-15 15v454h-57q-5 0 -9.5 4t-4.5 10t4.5 10t9.5 4h57v41q0 122 42.5 180.5t136.5 58.5
q50 0 90 -20q5 5 12 5z" />
    <glyph glyph-name="f_f" unicode="ff" horiz-adv-x="613" 
d="M651 742q8 -5 8 -14q0 -13 -14 -13q-5 0 -33.5 13.5t-66.5 13.5q-63 0 -100 -47.5t-37 -134.5v-70h175q5 0 9.5 -4t4.5 -10t-4.5 -10t-9.5 -4h-175v-454q0 -15 -15 -15t-15 15v454h-233v-454q0 -15 -15 -15t-15 15v454h-57q-5 0 -9.5 4t-4.5 10t4.5 10t9.5 4h57v51
q0 115 59 172t160 57q70 0 122 -26q38 26 92 26q64 0 103 -28zM378 560q0 108 54 164q-44 18 -98 18q-85 0 -137 -48t-52 -153v-51h233v70z" />
    <glyph glyph-name="f_f_i" unicode="ffi" horiz-adv-x="811" 
d="M691 490q14 0 14 -14v-461q0 -6 -4.5 -10.5t-10.5 -4.5t-10.5 4.5t-4.5 10.5v447h-264v-454q0 -15 -15 -15t-15 15v454h-236v-454q0 -15 -15 -15t-15 15v454h-57q-5 0 -9.5 4t-4.5 10t4.5 10t9.5 4h57v51q0 114 61 171.5t162 57.5q75 0 133 -30q49 30 123 30
q64 0 103 -28q8 -5 8 -14q0 -13 -14 -13q-5 0 -33.5 13.5t-66.5 13.5q-86 0 -133 -49.5t-47 -151.5v-51h280zM381 490v51q0 122 65 181q-45 20 -108 20q-86 0 -139.5 -48.5t-53.5 -152.5v-51h236z" />
    <glyph glyph-name="f_f_l" unicode="ffl" horiz-adv-x="779" 
d="M658 755q15 0 15 -15v-732q0 -15 -15 -15t-15 15v712q-37 22 -87 22q-78 0 -113.5 -50t-35.5 -161v-41h145q5 0 9.5 -4t4.5 -10t-4.5 -10t-9.5 -4h-145v-454q0 -15 -15 -15t-15 15v454h-232v-454q0 -15 -15 -15t-15 15v454h-57q-5 0 -9.5 4t-4.5 10t4.5 10t9.5 4h57v51
q0 115 59 172t160 57q67 0 122 -24q39 24 100 24q50 0 90 -20q5 5 12 5zM377 531q0 138 54 195q-46 16 -97 16q-85 0 -137 -48t-52 -153v-51h232v41z" />
    <glyph glyph-name="f_t" unicode="ft" horiz-adv-x="640" 
d="M611 39q14 0 14 -13q0 -10 -8 -15q-38 -27 -98 -27q-29 0 -52 8.5t-37.5 20t-24.5 33.5t-15 37.5t-7.5 46t-2.5 44.5v45v243h-235v-454q0 -15 -15 -15t-15 15v454h-57q-5 0 -9.5 4t-4.5 10t4.5 10t9.5 4h57v70q0 101 46 155.5t124 54.5q64 0 103 -28q8 -5 8 -14
q0 -13 -14 -13q-5 0 -33.5 13.5t-66.5 13.5q-63 0 -100 -47.5t-37 -134.5v-70h235q0 61 5 118q2 11 12 11q13 0 13 -12v-117h155q5 0 9.5 -4t4.5 -10t-4.5 -10t-9.5 -4h-155v-215v-21q0 -35 0.5 -52.5t3 -47.5t9.5 -46.5t18.5 -34t31 -25.5t46.5 -8q36 0 62 13.5t30 13.5z
" />
    <glyph glyph-name="t_t" unicode="tt" horiz-adv-x="671" 
d="M641 39q14 0 14 -13q0 -10 -8 -15q-41 -27 -101 -27q-35 0 -61 9.5t-41 30.5t-24 39t-12.5 52t-4 51t-0.5 53v243h-265v-215q0 -111 8 -146q20 -89 105 -89q27 0 48 9.5t26 9.5q12 0 12 -14q0 -8 -9 -14q-27 -19 -77 -19q-35 0 -61 9.5t-41 30.5t-24 39t-12.5 52t-4 51
t-0.5 53v243h-47q-5 0 -9.5 4t-4.5 10t4.5 10t9.5 4h47q0 61 5 118q2 11 12 11q13 0 13 -12v-117h265q0 76 5 118q2 11 12 11q13 0 13 -12v-117h171q5 0 9.5 -4t4.5 -10t-4.5 -10t-9.5 -4h-171v-215q0 -111 8 -146q20 -89 105 -89q38 0 64.5 13.5t30.5 13.5z" />
    <glyph glyph-name=".notdef" horiz-adv-x="530" 
d="M50 730h430v-730h-430v730zM115 695l150 -287l150 287h-300zM243 365l-153 292v-584zM288 365l152 -292v584zM265 322l-150 -287h300z" />
    <glyph glyph-name=".null" horiz-adv-x="0" 
 />
    <glyph glyph-name="nonmarkingreturn" horiz-adv-x="333" 
 />
    <glyph glyph-name="space" unicode=" " horiz-adv-x="280" 
 />
    <glyph glyph-name="exclam" unicode="!" horiz-adv-x="263" 
d="M131 214q-13 0 -13 13l-2 486q0 15 15 15t15 -15l-2 -486q0 -13 -13 -13zM131 -15q-16 0 -26.5 11t-10.5 29q0 17 10.5 27.5t26.5 10.5q17 0 28 -10.5t11 -27.5q0 -18 -11 -29t-28 -11z" />
    <glyph glyph-name="quotedbl" unicode="&#x22;" horiz-adv-x="354" 
d="M98 496q-12 0 -12 12l-3 198q0 15 15 15q16 0 16 -15l-4 -198q0 -12 -12 -12zM256 496q-12 0 -12 12l-3 198q0 15 15 15q16 0 16 -15l-4 -198q0 -12 -12 -12z" />
    <glyph glyph-name="numbersign" unicode="#" horiz-adv-x="781" 
d="M728 514q16 0 16 -16t-16 -16h-151l-58 -229h141q6 0 11 -4.5t5 -11.5t-5 -11.5t-11 -4.5h-149l-55 -217q-4 -11 -15 -11q-8 0 -12.5 5.5t-2.5 13.5l53 209h-266l-55 -217q-4 -11 -15 -11q-8 0 -12.5 5.5t-2.5 13.5l53 209h-129q-16 0 -16 16t16 16h137l58 229h-127
q-16 0 -16 16t16 16h135l51 203q4 11 15 11q9 0 13 -5.5t2 -13.5l-49 -195h266l51 203q4 11 15 11q9 0 13 -5.5t2 -13.5l-49 -195h143zM487 253l58 229h-266l-58 -229h266z" />
    <glyph glyph-name="dollar" unicode="$" horiz-adv-x="519" 
d="M473 235q0 -55 -49 -95.5t-150 -43.5v-113q0 -6 -4.5 -10.5t-10.5 -4.5t-10.5 4.5t-4.5 10.5v113q-58 2 -109 19.5t-72 35.5q-6 6 -6 13q0 8 7 12t16 -1q78 -51 178 -51q91 0 137.5 32.5t46.5 78.5q0 24 -10.5 43t-25 30.5t-42.5 21t-48.5 14.5t-58.5 12
q-92 17 -142.5 47t-50.5 93q0 59 47.5 92t132.5 37v111q0 6 4.5 10.5t10.5 4.5t10.5 -4.5t4.5 -10.5v-111q102 -3 151 -42q5 -4 5 -12q0 -12 -12 -12q-7 0 -25 9.5t-52 19t-77 9.5q-79 0 -124.5 -26t-45.5 -75t43.5 -72t129.5 -39q39 -7 64 -13t54.5 -18t47 -26.5t29 -38.5
t11.5 -54z" />
    <glyph glyph-name="percent" unicode="%" horiz-adv-x="858" 
d="M242 1q-5 -8 -12 -8q-6 0 -11 4t-5 10q0 5 3 9l432 703q5 9 13 9q16 0 16 -13q0 -3 -3 -9zM196 366q-70 0 -112.5 49.5t-42.5 128.5q0 76 42.5 126t112.5 50q69 0 111.5 -50t42.5 -126q0 -79 -42 -128.5t-112 -49.5zM196 394q58 0 91 42.5t33 107.5q0 62 -33 105t-91 43
q-59 0 -92 -42.5t-33 -105.5q0 -65 33 -107.5t92 -42.5zM664 -16q-70 0 -112.5 49.5t-42.5 128.5q0 76 42.5 126t112.5 50q69 0 111.5 -50t42.5 -126q0 -79 -42 -128.5t-112 -49.5zM664 12q58 0 91 42.5t33 107.5q0 62 -33 105t-91 43q-59 0 -92 -42.5t-33 -105.5
q0 -65 33 -107.5t92 -42.5z" />
    <glyph glyph-name="ampersand" unicode="&#x26;" horiz-adv-x="655" 
d="M616 10q5 -5 5 -11t-4.5 -10t-9.5 -4q-6 0 -11 5l-89 88q-85 -93 -223 -93q-96 0 -160.5 48.5t-64.5 134.5q0 69 39 117.5t113 93.5q-70 94 -70 192q0 69 48.5 116t138.5 47q75 0 116.5 -39t41.5 -101q0 -64 -53.5 -111.5t-148.5 -96.5l-30 -16q32 -36 53 -56l196 -193
q57 79 57 192q0 15 15 15t15 -15q0 -129 -65 -213zM171 563q0 -86 65 -170l33 18q44 23 70.5 39.5t57 40t45 49t14.5 54.5q0 51 -34.5 81.5t-93.5 30.5q-76 0 -116.5 -40t-40.5 -103zM284 13q126 0 202 86l-199 195q-41 41 -58 62q-69 -40 -104.5 -83.5t-35.5 -104.5
q0 -76 56.5 -115.5t138.5 -39.5z" />
    <glyph glyph-name="quotesingle" unicode="'" horiz-adv-x="196" 
d="M98 496q-12 0 -12 12l-3 198q0 15 15 15q16 0 16 -15l-4 -198q0 -12 -12 -12z" />
    <glyph glyph-name="parenleft" unicode="(" horiz-adv-x="302" 
d="M63 285q0 267 196 468q3 3 8 3q11 0 11 -11q0 -4 -3 -7q-184 -207 -184 -453q0 -127 45.5 -235t138.5 -212q3 -3 3 -7q0 -11 -11 -11q-5 0 -8 3q-196 201 -196 462z" />
    <glyph glyph-name="parenright" unicode=")" horiz-adv-x="302" 
d="M35 -180q-11 0 -11 11q0 4 3 7q93 104 138.5 212t45.5 235q0 246 -184 453q-3 3 -3 7q0 11 11 11q5 0 8 -3q196 -201 196 -468q0 -261 -196 -462q-3 -3 -8 -3z" />
    <glyph glyph-name="asterisk" unicode="*" horiz-adv-x="468" 
d="M122 374q-11 9 -1 23l87 115l-132 46q-17 6 -12 20t22 8l131 -46v142q0 18 15 18t15 -18v-142l136 46q17 6 22 -8t-12 -20l-136 -46l86 -114q10 -14 -1 -23q-12 -10 -23 5l-87 114l-87 -115q-11 -15 -23 -5z" />
    <glyph glyph-name="plus" unicode="+" horiz-adv-x="488" 
d="M259 528v-159h166q5 0 9.5 -4t4.5 -10t-4.5 -10t-9.5 -4h-166v-159q0 -6 -4.5 -10.5t-10.5 -4.5t-10.5 4.5t-4.5 10.5v159h-166q-5 0 -9.5 4t-4.5 10t4.5 10t9.5 4h166v159q0 6 4.5 10.5t10.5 4.5t10.5 -4.5t4.5 -10.5z" />
    <glyph glyph-name="comma" unicode="," horiz-adv-x="164" 
d="M56 -203q-6 0 -9.5 4.5t-2.5 11.5q22 104 25 198q0 15 15 15q16 0 16 -15q-2 -114 -32 -204q-4 -10 -12 -10z" />
    <glyph glyph-name="hyphen" unicode="-" horiz-adv-x="514" 
d="M416 230h-317q-5 0 -9.5 4t-4.5 10t4.5 10t9.5 4h317q5 0 9.5 -4t4.5 -10t-4.5 -10t-9.5 -4z" />
    <glyph glyph-name="period" unicode="." horiz-adv-x="234" 
d="M116 -15q-16 0 -26.5 11t-10.5 29q0 17 10.5 27.5t26.5 10.5q17 0 28 -10.5t11 -27.5q0 -18 -11 -29t-28 -11z" />
    <glyph glyph-name="slash" unicode="/" horiz-adv-x="434" 
d="M53 -215q-8 0 -12.5 6t-1.5 15l326 935q4 14 16 14q8 0 12.5 -5.5t1.5 -14.5l-326 -935q-5 -15 -16 -15z" />
    <glyph glyph-name="zero" unicode="0" horiz-adv-x="741" 
d="M371 -15q-57 0 -109 22t-96 65.5t-70 118t-26 169.5t26 169.5t70 118t96 65.5t109 22t109 -22t95.5 -65.5t69.5 -118t26 -169.5t-26 -169.5t-70 -118t-95.5 -65.5t-108.5 -22zM371 13q52 0 99 21t85.5 61.5t61.5 109t23 155.5q0 166 -79.5 256.5t-189.5 90.5t-190 -90.5
t-80 -256.5q0 -170 79.5 -258.5t190.5 -88.5z" />
    <glyph glyph-name="one" unicode="1" horiz-adv-x="348" 
d="M199 696l-152 -55q-5 -2 -10 -2q-14 0 -14 14q0 10 11 14l160 58q8 3 13 3q22 0 22 -25v-695q0 -15 -15 -15t-15 15v688z" />
    <glyph glyph-name="two" unicode="2" horiz-adv-x="564" 
d="M485 545q0 -66 -27 -132.5t-65.5 -118t-97 -107t-102.5 -90t-102 -75.5v-2l410 1q14 0 14 -14t-14 -14h-428q-24 0 -24 19q0 13 11 21q57 41 95.5 71t88.5 73t83 82t64 85.5t47 97t17 103.5q0 162 -184 162q-55 0 -101 -16.5t-72 -33.5t-31 -17q-14 0 -14 14q0 7 7 13
q28 23 84 45.5t127 22.5q103 0 158.5 -48.5t55.5 -141.5z" />
    <glyph glyph-name="three" unicode="3" horiz-adv-x="581" 
d="M273 -15q-65 0 -127.5 21.5t-85.5 40.5q-7 6 -7 13q0 14 14 14q5 0 32 -15t73.5 -30.5t100.5 -15.5q95 0 152.5 43.5t57.5 129.5q0 50 -21 87t-56.5 56.5t-76 28.5t-87.5 9h-83q-13 0 -13 14q0 13 13 13h83q83 0 148.5 48t65.5 123q0 142 -185 142q-55 0 -97.5 -12.5
t-65 -25t-27.5 -12.5q-14 0 -14 13q0 7 7 13q24 17 76.5 34.5t120.5 17.5q103 0 158.5 -43t55.5 -127q0 -72 -48.5 -119.5t-110.5 -61.5v-2q32 -4 62 -16t59.5 -33.5t47 -59.5t17.5 -87q0 -100 -66 -150.5t-173 -50.5z" />
    <glyph glyph-name="four" unicode="4" horiz-adv-x="609" 
d="M568 217q5 0 9.5 -4t4.5 -10t-4.5 -10t-9.5 -4h-103v-175q0 -6 -4.5 -10.5t-10.5 -4.5t-10.5 4.5t-4.5 10.5v175h-383q-19 0 -23 11t3 19l278 509q4 7 13 7q16 0 16 -15q0 -4 -2 -8l-275 -495h373v182q0 6 4.5 10.5t10.5 4.5t10.5 -4.5t4.5 -10.5v-182h103z" />
    <glyph glyph-name="five" unicode="5" horiz-adv-x="581" 
d="M275 395q-44 0 -97.5 -13t-54.5 -13q-17 0 -22 10.5t-2 39.5l30 288q2 21 19 21h321q14 0 14 -14t-14 -14h-312l-29 -299q81 22 147 22q251 0 251 -209q0 -114 -75.5 -171.5t-191.5 -57.5q-61 0 -120 21t-83 41q-7 6 -7 13q0 14 14 14q5 0 30.5 -15t70 -30.5t95.5 -15.5
q108 0 172.5 52.5t64.5 148.5q0 181 -221 181z" />
    <glyph glyph-name="six" unicode="6" horiz-adv-x="606" 
d="M311 490q-90 0 -145 -49h-2l175 272q3 5 3 9q0 13 -15 13q-7 0 -12 -8l-175 -272q-41 -59 -58.5 -108t-17.5 -110q0 -107 71 -179.5t176 -72.5q108 0 178 73t70 179q0 108 -69.5 180.5t-178.5 72.5zM311 462q94 0 156 -64.5t62 -160.5t-62 -160t-156 -64q-93 0 -155 64.5
t-62 159.5q0 111 62.5 168t154.5 57z" />
    <glyph glyph-name="seven" unicode="7" horiz-adv-x="508" 
d="M149 -15q-15 0 -15 13q0 7 4 16l312 686h-420q-14 0 -14 14t14 14h432q22 0 22 -20q0 -9 -4 -17l-315 -692q-6 -14 -16 -14z" />
    <glyph glyph-name="eight" unicode="8" horiz-adv-x="645" 
d="M326 -16q-127 0 -193.5 60t-66.5 156q0 79 48.5 130.5t120.5 65.5v2q-58 14 -95.5 59.5t-37.5 100.5q0 79 61 128t161 49q103 0 162 -47t59 -128q0 -59 -38 -103.5t-100 -58.5v-2q71 -12 121 -64t50 -134q0 -92 -66.5 -153t-185.5 -61zM321 410q87 0 140.5 43t53.5 107
q0 70 -50.5 108.5t-140.5 38.5q-89 0 -140.5 -40t-51.5 -107q0 -65 51 -107.5t138 -42.5zM321 12q107 0 167 52.5t60 133.5t-63 132.5t-161 51.5q-100 0 -164 -51.5t-64 -131.5q0 -83 59 -135t166 -52z" />
    <glyph glyph-name="nine" unicode="9" horiz-adv-x="606" 
d="M295 230q90 0 145 49h2l-175 -272q-3 -5 -3 -9q0 -13 15 -13q7 0 12 8l175 272q41 59 58.5 108t17.5 110q0 107 -71 179.5t-176 72.5q-108 0 -178 -73t-70 -179q0 -108 69.5 -180.5t178.5 -72.5zM295 258q-94 0 -156 64.5t-62 160.5t62 160t156 64q93 0 155 -64.5
t62 -159.5q0 -111 -62.5 -168t-154.5 -57z" />
    <glyph glyph-name="colon" unicode=":" horiz-adv-x="244" 
d="M121 427q-16 0 -26.5 11t-10.5 29q0 17 10.5 27.5t26.5 10.5q17 0 28 -10.5t11 -27.5q0 -18 -11 -29t-28 -11zM121 -15q-16 0 -26.5 11t-10.5 29q0 17 10.5 27.5t26.5 10.5q17 0 28 -10.5t11 -27.5q0 -18 -11 -29t-28 -11z" />
    <glyph glyph-name="semicolon" unicode=";" horiz-adv-x="257" 
d="M128 427q-16 0 -26.5 11t-10.5 29q0 17 10.5 27.5t26.5 10.5q17 0 28 -10.5t11 -27.5q0 -18 -11 -29t-28 -11zM101 -203q-6 0 -9.5 4.5t-2.5 11.5q22 104 25 198q0 15 15 15q16 0 16 -15q-2 -114 -32 -204q-4 -10 -12 -10z" />
    <glyph glyph-name="less" unicode="&#x3c;" horiz-adv-x="480" 
d="M375 154q-4 0 -8 2l-310 178q-12 7 -12 21t12 21l310 179q4 2 8 2q14 0 14 -15q0 -8 -7 -12l-301 -174v-2l301 -173q7 -3 7 -12q0 -15 -14 -15z" />
    <glyph glyph-name="equal" unicode="=" horiz-adv-x="541" 
d="M440 456h-339q-5 0 -9.5 4t-4.5 10t4.5 10t9.5 4h339q5 0 9.5 -4t4.5 -10t-4.5 -10t-9.5 -4zM440 235h-339q-5 0 -9.5 4t-4.5 10t4.5 10t9.5 4h339q5 0 9.5 -4t4.5 -10t-4.5 -10t-9.5 -4z" />
    <glyph glyph-name="greater" unicode="&#x3e;" horiz-adv-x="480" 
d="M105 154q-14 0 -14 15q0 9 7 12l301 173v2l-301 174q-7 4 -7 12q0 15 14 15q4 0 8 -2l310 -179q12 -7 12 -21t-12 -21l-310 -178q-4 -2 -8 -2z" />
    <glyph glyph-name="question" unicode="?" horiz-adv-x="482" 
d="M431 564q0 -44 -13.5 -79t-35 -57.5t-50.5 -38.5t-58 -23.5t-60 -10.5v-142q0 -15 -15 -15t-15 15v151q0 16 18 18q101 9 150 57t49 125q0 65 -45.5 104t-140.5 39q-44 0 -81.5 -10t-58.5 -20t-27 -10q-14 0 -14 14q0 7 7 13q21 14 71.5 27.5t102.5 13.5q96 0 156 -43
t60 -128zM199 -15q-16 0 -26.5 11t-10.5 29q0 17 10.5 27.5t26.5 10.5q17 0 28 -10.5t11 -27.5q0 -18 -11 -29t-28 -11z" />
    <glyph glyph-name="at" unicode="@" horiz-adv-x="1019" 
d="M540 734q83 0 152 -23.5t116 -63.5t80 -94t48.5 -113.5t15.5 -123.5q0 -140 -54.5 -214t-120.5 -74q-48 0 -76 28.5t-29 79.5h-4q-26 -51 -72.5 -77.5t-103.5 -26.5q-93 0 -149 60.5t-56 162.5q0 96 54.5 159t148.5 63q65 0 113 -28t70 -69h2v72q0 14 13 14q14 0 14 -14
v-302q0 -53 20 -72.5t55 -19.5q59 0 102 71t43 187q0 171 -102.5 280.5t-279.5 109.5q-204 0 -326 -121t-122 -331q0 -206 118 -324t320 -118q47 0 83.5 8.5t55.5 17t23 8.5q15 0 15 -13q0 -7 -7 -13q-20 -14 -68 -25t-102 -11q-222 0 -345 130.5t-123 339.5
q0 217 128.5 348.5t349.5 131.5zM673 260q0 90 -49 139.5t-133 49.5q-76 0 -125 -54.5t-49 -139.5q0 -86 48 -140.5t129 -54.5q80 0 129 56t50 144z" />
    <glyph glyph-name="A" unicode="A" horiz-adv-x="706" 
d="M668 14q4 -7 0 -14t-14 -7t-14 9l-97 236h-380l-97 -236q-4 -9 -14 -9t-14 6.5t0 14.5l285 689q7 15 13 20t17 5q14 0 20 -6t13 -25zM174 266h358l-178 433h-2z" />
    <glyph glyph-name="B" unicode="B" horiz-adv-x="675" 
d="M361 0h-227q-15 0 -15 15v690q0 15 15 15h203q241 0 241 -175q0 -66 -41 -117.5t-101 -61.5v-2q81 -13 126.5 -60.5t45.5 -115.5q0 -188 -247 -188zM149 692v-314h215q76 0 129.5 45t54.5 120q1 76 -55 112.5t-157 36.5h-187zM149 350v-322h208q221 0 221 162
q0 75 -63.5 117.5t-162.5 42.5h-203z" />
    <glyph glyph-name="C" unicode="C" horiz-adv-x="645" 
d="M436 -15q-162 0 -265.5 101t-103.5 276q0 169 104.5 271t264.5 102q96 0 162 -43q8 -5 8 -12q0 -8 -6.5 -12t-12.5 0q-61 39 -151 39q-150 0 -244 -95t-94 -250q0 -161 93.5 -255t244.5 -94q85 0 151 36q6 3 12 -1t6 -13q0 -7 -8 -12q-67 -38 -161 -38z" />
    <glyph glyph-name="D" unicode="D" horiz-adv-x="798" 
d="M353 -7h-219q-15 0 -15 15v705q0 15 15 15h219q181 0 279 -97t98 -271q0 -168 -98.5 -267t-278.5 -100zM149 700v-679h204q162 0 254.5 91t92.5 248q0 158 -90 249t-257 91h-204z" />
    <glyph glyph-name="E" unicode="E" horiz-adv-x="585" 
d="M516 -7h-382q-15 0 -15 15v705q0 15 15 15h382q14 0 14 -14t-14 -14h-367v-326h327q14 0 14 -14t-14 -14h-327v-325h367q14 0 14 -14t-14 -14z" />
    <glyph glyph-name="F" unicode="F" horiz-adv-x="561" 
d="M134 -7q-15 0 -15 15v705q0 15 15 15h382q14 0 14 -14t-14 -14h-367v-351h327q14 0 14 -14t-14 -14h-327v-313q0 -15 -15 -15z" />
    <glyph glyph-name="G" unicode="G" horiz-adv-x="737" 
d="M439 -15q-166 0 -269 102.5t-103 275.5q0 168 103.5 270.5t265.5 102.5q121 0 199 -43q8 -5 8 -12q0 -8 -6.5 -11.5t-12.5 -0.5q-73 39 -186 39q-151 0 -246 -93.5t-95 -251.5q0 -160 94 -255t249 -95q107 0 190 41v304q0 15 15 15t15 -15v-312q0 -14 -12 -18
q-96 -43 -209 -43z" />
    <glyph glyph-name="H" unicode="H" horiz-adv-x="813" 
d="M134 -7q-15 0 -15 15v705q0 15 15 15t15 -15v-339h515v339q0 15 15 15t15 -15v-705q0 -15 -15 -15t-15 15v338h-515v-338q0 -15 -15 -15z" />
    <glyph glyph-name="I" unicode="I" horiz-adv-x="268" 
d="M134 -7q-15 0 -15 15v705q0 15 15 15t15 -15v-705q0 -15 -15 -15z" />
    <glyph glyph-name="J" unicode="J" horiz-adv-x="436" 
d="M138 -15q-60 0 -98 27q-8 5 -8 15q0 13 14 13q4 0 30 -13.5t62 -13.5q157 0 157 211v481q0 6 4.5 10.5t10.5 4.5t10.5 -4.5t4.5 -10.5v-481q0 -106 -44 -172.5t-143 -66.5z" />
    <glyph glyph-name="K" unicode="K" horiz-adv-x="701" 
d="M134 -7q-15 0 -15 15v705q0 15 15 15t15 -15v-335h227l251 344q5 6 11 6t10.5 -4.5t4.5 -9.5q0 -4 -3 -9l-249 -341l271 -346q5 -8 5 -12q0 -13 -15 -13q-7 0 -13 8l-275 349h-225v-342q0 -15 -15 -15z" />
    <glyph glyph-name="L" unicode="L" horiz-adv-x="559" 
d="M506 -7h-372q-15 0 -15 15v705q0 15 15 15t15 -15v-692h357q14 0 14 -14t-14 -14z" />
    <glyph glyph-name="M" unicode="M" horiz-adv-x="928" 
d="M134 -7q-15 0 -15 15v690q0 30 29 30q23 0 32 -23l283 -685h2l283 685q7 13 13 18t19 5q29 0 29 -30v-690q0 -15 -15 -15t-15 15v686h-2l-279 -670q-13 -31 -34 -31q-20 0 -31 25l-282 676h-2v-686q0 -15 -15 -15z" />
    <glyph glyph-name="N" unicode="N" horiz-adv-x="815" 
d="M134 -7q-15 0 -15 15v699q0 21 22 21q11 0 28 -21l495 -669h2v675q0 15 15 15t15 -15v-699q0 -21 -22 -21q-12 0 -28 21l-495 669h-2v-675q0 -15 -15 -15z" />
    <glyph glyph-name="O" unicode="O" horiz-adv-x="850" 
d="M425 -15q-153 0 -255.5 101.5t-102.5 275.5q0 168 103.5 270.5t254.5 102.5q153 0 255.5 -102.5t102.5 -270.5q0 -175 -102 -276t-256 -101zM425 13q143 0 235 94.5t92 254.5q0 154 -92.5 249.5t-234.5 95.5q-141 0 -234 -96t-93 -249q0 -160 92.5 -254.5t234.5 -94.5z
" />
    <glyph glyph-name="P" unicode="P" horiz-adv-x="657" 
d="M134 -7q-15 0 -15 15v705q0 15 15 15h191q281 0 281 -237q0 -120 -67.5 -178.5t-213.5 -58.5h-176v-246q0 -15 -15 -15zM149 700v-418h177q132 0 191 50.5t59 158.5q0 104 -60 156.5t-190 52.5h-177z" />
    <glyph glyph-name="Q" unicode="Q" horiz-adv-x="833" 
d="M764 362q0 -171 -93.5 -271.5t-240.5 -105.5q-2 -98 29 -144.5t100 -46.5q24 0 42.5 5.5t21.5 5.5q11 0 11 -12q0 -9 -11 -15q-23 -12 -64 -12q-89 0 -125 56t-34 163q-146 6 -239 106.5t-93 270.5q0 169 99 271t249 102q151 0 249.5 -102t98.5 -271zM99 362
q0 -161 88 -255t229 -94q142 0 229.5 94t87.5 255q0 155 -88 250t-229 95q-140 0 -228.5 -95.5t-88.5 -249.5z" />
    <glyph glyph-name="R" unicode="R" horiz-adv-x="692" 
d="M134 -7q-15 0 -15 15v705q0 15 15 15h221q61 0 106 -9t83 -31.5t58 -66t20 -106.5q0 -93 -50.5 -149.5t-123.5 -62.5l165 -286q3 -6 3 -9q0 -6 -4.5 -10.5t-11.5 -4.5q-10 0 -14 7l-173 302h-264v-294q0 -15 -15 -15zM149 700v-370h277q66 0 116 51.5t50 133.5
q0 105 -61 145t-175 40h-207z" />
    <glyph glyph-name="S" unicode="S" horiz-adv-x="603" 
d="M543 170q0 -93 -67.5 -139t-177.5 -46q-126 0 -240 67q-9 7 -9 15q0 9 7.5 13t13.5 0q118 -67 226 -67q99 0 158 40t59 116q0 35 -12.5 63t-29.5 46.5t-49 35.5t-57.5 26.5t-68.5 23.5q-51 16 -81.5 29.5t-64 36t-49.5 55t-16 75.5q0 86 65.5 131t164.5 45
q67 0 122 -14.5t77 -30.5q6 -5 6 -12q0 -12 -13 -12q-4 0 -27.5 10.5t-67 20.5t-96.5 10q-88 0 -144.5 -38.5t-56.5 -109.5q0 -30 10.5 -54t26.5 -40t43.5 -31t51.5 -23.5t62 -20.5q45 -14 72 -24.5t62 -29.5t54 -40t32.5 -53.5t13.5 -73.5z" />
    <glyph glyph-name="T" unicode="T" horiz-adv-x="568" 
d="M284 -7q-15 0 -15 15v692h-227q-5 0 -9.5 4t-4.5 10t4.5 10t9.5 4h484q5 0 9.5 -4t4.5 -10t-4.5 -10t-9.5 -4h-227v-692q0 -15 -15 -15z" />
    <glyph glyph-name="U" unicode="U" horiz-adv-x="796" 
d="M398 -15q-141 0 -215.5 87t-74.5 231v410q0 15 15 15t15 -15v-409q0 -57 14 -107t43 -92.5t81 -67t122 -24.5t122 24.5t81 67t43 92t14 107.5v409q0 15 15 15t15 -15v-410q0 -144 -74.5 -231t-215.5 -87z" />
    <glyph glyph-name="V" unicode="V" horiz-adv-x="712" 
d="M356 -7q-12 0 -18 5t-13 20l-286 689q-4 8 0.5 14.5t14.5 6.5q9 0 13 -9l288 -697h2l288 697q4 9 13 9q11 0 14.5 -7t0.5 -14l-284 -683q-7 -19 -13 -25t-20 -6z" />
    <glyph glyph-name="W" unicode="W" horiz-adv-x="1060" 
d="M280 -7q-20 0 -26 20l-211 688q-2 7 2.5 13.5t12.5 6.5q12 0 15 -11l206 -684h2l223 684q5 18 26 18t26 -18l223 -684h2l206 684q3 11 15 11q8 0 12.5 -6.5t2.5 -13.5l-211 -688q-6 -20 -26 -20t-27 20l-222 680h-2l-222 -680q-7 -20 -27 -20z" />
    <glyph glyph-name="X" unicode="X" horiz-adv-x="654" 
d="M41 -7q-14 0 -14 13q0 5 4 10l275 354l-260 335q-3 5 -3 9q0 14 14 14q8 0 11 -5l259 -334h2l258 334q3 5 11 5q13 0 13 -13q0 -5 -3 -9l-260 -336l275 -354q3 -5 3 -10q0 -13 -13 -13q-8 0 -12 6l-274 351h-2l-273 -352q-5 -5 -11 -5z" />
    <glyph glyph-name="Y" unicode="Y" horiz-adv-x="666" 
d="M333 -7q-15 0 -15 15v284l-270 412q-3 5 -3 9q0 6 5 10.5t12 4.5q6 0 12 -9l258 -395h2l258 395q6 9 12 9q7 0 12 -4.5t5 -10.5q0 -4 -3 -9l-270 -412v-284q0 -15 -15 -15z" />
    <glyph glyph-name="Z" unicode="Z" horiz-adv-x="634" 
d="M588 -7h-540q-8 0 -13 5.5t-5 12.5t3 11l522 678h-490q-14 0 -14 14t14 14h512q7 0 12.5 -5t5.5 -13q0 -6 -3 -11l-523 -678h519q14 0 14 -14t-14 -14z" />
    <glyph glyph-name="bracketleft" unicode="[" horiz-adv-x="350" 
d="M312 -180h-182q-15 0 -15 15v905q0 15 15 15h182q5 0 9.5 -4t4.5 -10t-4.5 -10t-9.5 -4h-169v-879h169q5 0 9.5 -4t4.5 -10t-4.5 -10t-9.5 -4z" />
    <glyph glyph-name="backslash" unicode="\" horiz-adv-x="434" 
d="M381 -215q-11 0 -16 15l-326 935q-3 9 1.5 14.5t12.5 5.5q12 0 16 -14l326 -935q3 -9 -1.5 -15t-12.5 -6z" />
    <glyph glyph-name="bracketright" unicode="]" horiz-adv-x="350" 
d="M220 -180h-182q-5 0 -9.5 4t-4.5 10t4.5 10t9.5 4h168v879h-168q-5 0 -9.5 4t-4.5 10t4.5 10t9.5 4h182q15 0 15 -15v-905q0 -15 -15 -15z" />
    <glyph glyph-name="asciicircum" unicode="^" horiz-adv-x="583" 
d="M92 409l178 310q7 12 21 12t21 -12l179 -310q2 -4 2 -8q0 -14 -15 -14q-8 0 -12 7l-174 301h-2l-173 -301q-3 -7 -12 -7q-15 0 -15 14q0 4 2 8z" />
    <glyph glyph-name="underscore" unicode="_" horiz-adv-x="580" 
d="M518 -43h-455q-5 0 -9.5 4t-4.5 10t4.5 10t9.5 4h455q5 0 9.5 -4t4.5 -10t-4.5 -10t-9.5 -4z" />
    <glyph glyph-name="grave" unicode="`" horiz-adv-x="600" 
d="M122 742l153 -167q4 -4 4 -9q0 -13 -12 -13q-5 0 -9 4l-158 161q-5 5 -5 12q0 16 16 16q7 0 11 -4z" />
    <glyph glyph-name="a" unicode="a" horiz-adv-x="566" 
d="M213 -15q-80 0 -124.5 38t-44.5 107q0 73 55.5 114t138.5 41q100 0 196 -56q0 123 -37 185.5t-141 62.5q-76 0 -137 -24q-6 -2 -9 -2q-13 0 -13 14q0 10 13 15q64 25 148 25q116 0 161 -70.5t45 -206.5v-106q0 -54 8.5 -75.5t43.5 -34.5q10 -3 10 -13q0 -7 -5.5 -11.5
t-14.5 -2.5q-43 10 -57.5 42t-14.5 89h-2q-75 -131 -219 -131zM214 13q90 0 151.5 58t68.5 128q-96 58 -196 58q-72 0 -117.5 -33.5t-45.5 -92.5q0 -58 37 -88t102 -30z" />
    <glyph glyph-name="b" unicode="b" horiz-adv-x="639" 
d="M341 -15q-66 0 -122.5 36.5t-87.5 101.5h-2v-116q0 -14 -14 -14q-13 0 -13 14v733q0 15 15 15t15 -15v-356h4q27 51 78.5 86t128.5 35q104 0 169 -73.5t65 -186.5q0 -112 -65 -186t-171 -74zM339 13q94 0 150.5 65.5t56.5 166.5q0 103 -57 167.5t-147 64.5
q-96 0 -154 -61.5t-58 -163.5q1 -103 58.5 -171t150.5 -68z" />
    <glyph glyph-name="c" unicode="c" horiz-adv-x="519" 
d="M318 -15q-117 0 -186.5 71.5t-69.5 189.5q0 117 68 188.5t179 71.5q93 0 151 -48q7 -6 7 -13q0 -13 -15 -13q-6 0 -22.5 11.5t-47.5 23t-73 11.5q-95 0 -155.5 -64t-60.5 -168q0 -105 60 -169t165 -64q42 0 73 11.5t47.5 23t22.5 11.5q15 0 15 -13q0 -7 -7 -13
q-58 -48 -151 -48z" />
    <glyph glyph-name="d" unicode="d" horiz-adv-x="650" 
d="M298 -15q-106 0 -171 74t-65 186q0 113 65 187t169 74q76 0 128.5 -37t80.5 -89h2v360q0 15 15 15t15 -15v-618q0 -54 8.5 -75t43.5 -34q10 -3 10 -13q0 -7 -5.5 -11.5t-14.5 -2.5q-41 10 -56.5 40t-15.5 95h-2q-31 -65 -86 -100.5t-121 -35.5zM300 13q93 0 150.5 68
t58.5 171q0 100 -58.5 163t-153.5 63q-90 0 -147 -65t-57 -168q0 -101 56.5 -166.5t150.5 -65.5z" />
    <glyph glyph-name="e" unicode="e" horiz-adv-x="574" 
d="M319 -15q-120 0 -188 69.5t-68 193.5q0 117 65.5 187.5t167.5 70.5q107 0 164 -59t57 -163q0 -25 -4 -35.5t-18 -10.5h-402q0 -105 60.5 -165t165.5 -60q43 0 77 10.5t52.5 20.5t24.5 10q15 0 15 -13q0 -7 -7 -13q-20 -16 -66 -29.5t-96 -13.5zM93 266h392q1 7 1 27
q0 87 -50 136t-140 49q-89 0 -146 -62t-57 -150z" />
    <glyph glyph-name="f" unicode="f" horiz-adv-x="350" 
d="M388 742q8 -5 8 -14q0 -13 -14 -13q-5 0 -33.5 13.5t-66.5 13.5q-63 0 -100 -47.5t-37 -134.5v-70h175q5 0 9.5 -4t4.5 -10t-4.5 -10t-9.5 -4h-175v-454q0 -15 -15 -15t-15 15v454h-57q-5 0 -9.5 4t-4.5 10t4.5 10t9.5 4h57v70q0 101 46 155.5t124 54.5q64 0 103 -28z
" />
    <glyph glyph-name="g" unicode="g" horiz-adv-x="639" 
d="M285 -230q-103 0 -161 48q-7 6 -7 13q0 13 15 13q6 0 23 -11.5t50.5 -23t79.5 -11.5q222 0 222 275v30h-2q-27 -50 -79.5 -84t-129.5 -34q-104 0 -169 73.5t-65 186.5q0 112 65 186.5t171 74.5q67 0 123.5 -36t86.5 -101h2v114q0 14 13 14q14 0 14 -14v-410
q0 -303 -252 -303zM297 13q96 0 154.5 61.5t58.5 163.5q-1 103 -59 171.5t-151 68.5q-94 0 -150.5 -66t-56.5 -167q0 -103 57 -167.5t147 -64.5z" />
    <glyph glyph-name="h" unicode="h" horiz-adv-x="631" 
d="M117 -7q-15 0 -15 15v732q0 15 15 15t15 -15v-356h2q27 51 79.5 86.5t129.5 35.5q105 0 150 -59.5t45 -170.5v-268q0 -15 -15 -15t-15 15v265q0 100 -38 152.5t-128 52.5t-149.5 -57t-59.5 -148l-1 -265q0 -15 -15 -15z" />
    <glyph glyph-name="i" unicode="i" horiz-adv-x="242" 
d="M121 635q-18 0 -30 12t-12 30t12 29.5t30 11.5q19 0 30 -11t11 -30q0 -18 -11.5 -30t-29.5 -12zM121 -7q-15 0 -15 15v474q0 15 15 15t15 -15v-474q0 -15 -15 -15z" />
    <glyph glyph-name="j" unicode="j" horiz-adv-x="246" 
d="M126 635q-18 0 -30 12t-12 30t12 29.5t30 11.5q19 0 30 -11t11 -30q0 -18 -11.5 -30t-29.5 -12zM1 -230q-60 0 -98 27q-8 5 -8 15q0 13 14 13q4 0 30 -13.5t62 -13.5q20 0 36.5 5t27.5 14t19 21.5t13 28t8 33t3.5 36t1.5 38t0 38.5v21v449q0 15 15 15t15 -15v-477v-45
t-2.5 -44.5t-7.5 -46t-15 -37.5t-24.5 -33.5t-37.5 -20t-52 -8.5z" />
    <glyph glyph-name="k" unicode="k" horiz-adv-x="530" 
d="M117 -7q-15 0 -15 15v732q0 15 15 15t15 -15v-458h146l180 208q7 7 12 7q14 0 14 -13q0 -5 -3 -9l-179 -209l186 -246q6 -9 6 -14q0 -13 -14 -13q-7 0 -14 8l-191 253h-143v-246q0 -15 -15 -15z" />
    <glyph glyph-name="l" unicode="l" horiz-adv-x="242" 
d="M121 -7q-15 0 -15 15v732q0 15 15 15t15 -15v-732q0 -15 -15 -15z" />
    <glyph glyph-name="m" unicode="m" horiz-adv-x="1016" 
d="M117 -7q-15 0 -15 15v475q0 14 14 14q13 0 13 -14v-122h2q23 63 80.5 104t121.5 41q151 0 183 -145h2q23 64 82 104.5t128 40.5q105 0 150 -59.5t45 -170.5v-268q0 -15 -15 -15t-15 15v265q0 100 -38 152.5t-128 52.5q-83 0 -141 -61.5t-58 -155.5v-253q0 -15 -15 -15
t-15 15v265q0 205 -166 205q-83 0 -140.5 -63.5t-58.5 -157.5l-1 -249q0 -15 -15 -15z" />
    <glyph glyph-name="n" unicode="n" horiz-adv-x="631" 
d="M117 -7q-15 0 -15 15v475q0 14 14 14q13 0 13 -14v-122h2q23 64 82 104.5t130 40.5q105 0 150 -59.5t45 -170.5v-268q0 -15 -15 -15t-15 15v265q0 100 -38 152.5t-128 52.5q-89 0 -148.5 -63t-60.5 -158l-1 -249q0 -15 -15 -15z" />
    <glyph glyph-name="o" unicode="o" horiz-adv-x="625" 
d="M313 -15q-110 0 -180.5 71.5t-70.5 189.5t70.5 188.5t180.5 70.5t180 -70.5t70 -188.5t-70 -189.5t-180 -71.5zM315 13q96 0 156.5 64.5t60.5 168.5q0 106 -61 168.5t-160 62.5q-96 0 -157 -63t-61 -168q0 -104 61 -168.5t161 -64.5z" />
    <glyph glyph-name="p" unicode="p" horiz-adv-x="639" 
d="M117 -215q-15 0 -15 16v682q0 14 14 14q13 0 13 -14v-116h2q31 66 87.5 102.5t122.5 36.5q106 0 171 -74.5t65 -186.5q0 -113 -65 -186.5t-169 -73.5q-77 0 -129.5 34.5t-79.5 84.5h-2v-303q0 -16 -15 -16zM342 13q90 0 147 64.5t57 167.5q0 101 -56.5 167t-150.5 66
q-92 0 -150 -69.5t-59 -170.5q-1 -102 57.5 -163.5t154.5 -61.5z" />
    <glyph glyph-name="q" unicode="q" horiz-adv-x="639" 
d="M522 -216q-15 0 -15 16v304h-2q-27 -50 -79.5 -84.5t-129.5 -34.5q-104 0 -169 73.5t-65 186.5q0 112 65 186.5t171 74.5q66 0 122.5 -36.5t87.5 -102.5h2v116q0 14 13 14q14 0 14 -14v-683q0 -16 -15 -16zM297 13q96 0 154.5 61.5t57.5 163.5q-1 101 -59 170.5
t-150 69.5q-94 0 -150.5 -66t-56.5 -167q0 -103 57 -167.5t147 -64.5z" />
    <glyph glyph-name="r" unicode="r" horiz-adv-x="365" 
d="M117 -7q-15 0 -15 15v475q0 14 14 14q13 0 13 -14v-132h2q22 62 77 106.5t121 48.5q16 2 16 -14q0 -13 -14 -13q-83 -7 -140.5 -76.5t-57.5 -156.5l-1 -238q0 -15 -15 -15z" />
    <glyph glyph-name="s" unicode="s" horiz-adv-x="510" 
d="M252 -15q-60 0 -113 17.5t-75 36.5q-6 6 -6 13q0 8 7 12t16 -1q76 -50 172 -50q87 0 132 32t45 77q0 24 -10 42.5t-24.5 29.5t-41 21t-47.5 14.5t-56 11.5q-34 6 -58 12.5t-50 17.5t-41.5 25t-26 35t-10.5 47q0 62 51 94.5t142 32.5q51 0 93.5 -12.5t62.5 -28.5
q6 -5 6 -12q0 -12 -13 -12q-6 0 -24 9t-50 18.5t-74 9.5q-76 0 -120 -25.5t-44 -73.5q0 -25 12 -43.5t38 -30.5t51 -19t66 -15q37 -7 61.5 -13t53 -18t45 -26.5t28 -37.5t11.5 -53q0 -57 -51.5 -97t-157.5 -40z" />
    <glyph glyph-name="t" unicode="t" horiz-adv-x="381" 
d="M351 39q14 0 14 -13q0 -10 -8 -15q-41 -27 -101 -27q-35 0 -61 9.5t-41 30.5t-24 39t-12.5 52t-4 51t-0.5 53v243h-74q-5 0 -9.5 4t-4.5 10t4.5 10t9.5 4h74q0 76 5 118q2 11 12 11q13 0 13 -12v-117h171q5 0 9.5 -4t4.5 -10t-4.5 -10t-9.5 -4h-171v-215q0 -111 8 -146
q20 -89 105 -89q38 0 64.5 13.5t30.5 13.5z" />
    <glyph glyph-name="u" unicode="u" horiz-adv-x="631" 
d="M298 -15q-205 0 -205 229v268q0 15 15 15t15 -15v-265q0 -204 176 -204q88 0 143 62t56 158l1 249q0 15 15 15t15 -15v-475q0 -14 -14 -14q-15 0 -15 14v112h-2q-26 -64 -77.5 -99t-122.5 -35z" />
    <glyph glyph-name="v" unicode="v" horiz-adv-x="552" 
d="M279 -7h-5q-16 0 -28 24l-204 459q-3 8 1.5 14.5t14.5 6.5q6 0 12 -11l205 -467h2l203 464q6 14 16 14q8 0 12 -6t1 -14l-202 -459q-11 -25 -28 -25z" />
    <glyph glyph-name="w" unicode="w" horiz-adv-x="830" 
d="M233 -7h-1q-20 0 -29 27l-159 457q-2 7 1.5 13.5t12.5 6.5q12 0 15 -10l159 -468h2l151 454q8 24 30 24h1q22 0 30 -25l150 -453h2l159 468q3 10 15 10q9 0 12.5 -6.5t1.5 -13.5l-159 -457q-10 -27 -29 -27h-1q-22 0 -30 27l-151 451h-2l-151 -451q-8 -27 -30 -27z" />
    <glyph glyph-name="x" unicode="x" horiz-adv-x="505" 
d="M49 -7q-5 0 -9.5 4t-4.5 9q0 3 3 8l194 243l-181 218q-3 4 -3 9q0 13 13 13q5 0 10 -5l181 -213h2l178 213q4 5 10 5q13 0 13 -13q0 -5 -3 -9l-178 -216l193 -243q3 -4 3 -9q0 -14 -15 -14q-7 0 -11 5l-190 240h-2l-192 -240q-4 -5 -11 -5z" />
    <glyph glyph-name="y" unicode="y" horiz-adv-x="536" 
d="M100 -230q-17 0 -30 3q-11 3 -11 14q0 16 16 13q11 -2 25 -2q13 0 25 4t23 12.5t20 17t18.5 23.5t16 25.5t15 29t12.5 28t12 29t11 25.5l-208 484q-3 6 1.5 13.5t13.5 7.5t15 -13l194 -450h2l194 454q5 9 14 9q8 0 12.5 -6.5t1.5 -14.5l-206 -485q-19 -45 -29.5 -68.5
t-30 -58t-36 -51.5t-40.5 -30t-51 -13z" />
    <glyph glyph-name="z" unicode="z" horiz-adv-x="494" 
d="M442 -7h-389q-15 0 -15 16q0 7 10 20l357 440h-332q-14 0 -14 14t14 14h355q17 0 17 -17q0 -7 -4 -12l-363 -447h364q14 0 14 -14t-14 -14z" />
    <glyph glyph-name="braceleft" unicode="{" horiz-adv-x="316" 
d="M40 286q0 13 14 15q78 9 78 112v104q0 140 35 196t100 56q21 0 21 -14t-14 -14q-60 0 -87 -48.5t-27 -175.5v-104q0 -33 -7 -58t-17 -37t-19.5 -20t-16.5 -10l-7 -1v-2q3 0 7.5 -1.5t16 -9t20.5 -19.5t16 -37t7 -58v-105q0 -127 27 -175.5t87 -48.5q14 0 14 -14t-21 -14
q-65 0 -100 56t-35 196v105q0 102 -78 111q-14 2 -14 15z" />
    <glyph glyph-name="bar" unicode="|" horiz-adv-x="260" 
d="M115 -199v912q0 6 4.5 10.5t10.5 4.5t10.5 -4.5t4.5 -10.5v-912q0 -16 -15 -16t-15 16z" />
    <glyph glyph-name="braceright" unicode="}" horiz-adv-x="316" 
d="M276 286q0 -13 -14 -15q-78 -9 -78 -111v-105q0 -140 -35 -196t-100 -56q-21 0 -21 14t14 14q60 0 87 48.5t27 175.5v105q0 33 7 58t17 37t19.5 19.5t16.5 9.5l7 1v2q-3 0 -7.5 1.5t-16 9.5t-20.5 20t-16 37t-7 58v104q0 127 -27 175.5t-87 48.5q-14 0 -14 14t21 14
q65 0 100 -56t35 -196v-104q0 -103 78 -112q14 -2 14 -15z" />
    <glyph glyph-name="asciitilde" unicode="~" horiz-adv-x="608" 
d="M424 313q74 0 72 99q0 13 14 13q13 0 13 -13q0 -61 -25.5 -94t-70.5 -33q-31 0 -63 17t-55.5 38t-56 38t-63.5 17q-70 0 -70 -92q0 -13 -13 -13q-14 0 -14 13q0 52 21.5 86t71.5 34q46 0 90.5 -27.5t82 -55t66.5 -27.5z" />
    <glyph glyph-name="exclamdown" unicode="&#xa1;" horiz-adv-x="230" 
d="M115 505q16 0 26.5 -11t10.5 -29q0 -17 -10.5 -27.5t-26.5 -10.5q-17 0 -28 10.5t-11 27.5q0 18 11 29t28 11zM115 276q13 0 13 -13l2 -479q0 -6 -4.5 -10.5t-10.5 -4.5t-10.5 4.5t-4.5 10.5l2 479q0 13 13 13z" />
    <glyph glyph-name="cent" unicode="&#xa2;" horiz-adv-x="532" 
d="M462 162q15 0 15 -13q0 -7 -7 -13q-58 -48 -151 -48h-7v-101q0 -6 -4.5 -10.5t-10.5 -4.5t-10.5 4.5t-4.5 10.5v103q-101 11 -160 81t-59 178q0 110 59.5 179.5t159.5 79.5v98q0 6 4.5 10.5t10.5 4.5t10.5 -4.5t4.5 -10.5v-97q93 -1 149 -48q7 -6 7 -13q0 -13 -15 -13
q-6 0 -22.5 11.5t-47.5 23t-73 11.5q-95 0 -155.5 -64t-60.5 -168q0 -105 60 -169t165 -64q42 0 73 11.5t47.5 23t22.5 11.5z" />
    <glyph glyph-name="sterling" unicode="&#xa3;" horiz-adv-x="569" 
d="M479 120q14 0 14 -14t-14 -14h-357q-24 0 -24 21q0 10 11 19q39 34 54 83.5t18 125.5h-101q-14 0 -14 14t14 14h102v32q0 43 2.5 72t12.5 61t27.5 51t49 31.5t76.5 12.5q81 0 132 -30q8 -5 8 -12q0 -14 -13 -14q-2 0 -6 2q-46 26 -121 26q-39 0 -65.5 -11.5t-40.5 -27
t-21.5 -45t-9 -53t-1.5 -63.5v-32h178q14 0 14 -14t-14 -14h-179q-5 -165 -73 -221h341z" />
    <glyph glyph-name="currency" unicode="&#xa4;" horiz-adv-x="663" 
d="M574 128q5 -5 5 -11q0 -16 -16 -16q-6 0 -11 5l-74 74q-60 -54 -148 -54q-87 0 -145 53l-73 -73q-5 -5 -11 -5q-16 0 -16 16q0 6 5 11l73 73q-51 61 -51 147q0 88 52 146l-73 73q-5 5 -5 11t4.5 10.5t10.5 4.5t11 -5l73 -73q59 50 145 50q87 0 147 -52l75 75q5 5 11 5
t10.5 -4.5t4.5 -10.5t-5 -11l-74 -74l-1 -1q50 -58 50 -144q0 -85 -49 -145l1 -1zM330 154q81 0 134.5 56t53.5 138t-52 135.5t-136 53.5t-136 -54t-52 -135q0 -82 52.5 -138t135.5 -56z" />
    <glyph glyph-name="yen" unicode="&#xa5;" horiz-adv-x="551" 
d="M481 606q0 -3 -2 -7l-184 -290h148q5 0 9.5 -4t4.5 -10t-4.5 -10t-9.5 -4h-154v-92h154q5 0 9.5 -4t4.5 -10t-4.5 -10t-9.5 -4h-154v-70q0 -6 -4.5 -10.5t-10.5 -4.5t-10.5 4.5t-4.5 10.5v70h-148q-5 0 -9.5 4t-4.5 10t4.5 10t9.5 4h148v92h-148q-5 0 -9.5 4t-4.5 10
t4.5 10t9.5 4h142l-184 289q-2 4 -2 7q0 14 14 14q7 0 12 -6l178 -283h3l182 283q3 6 12 6q13 0 13 -13z" />
    <glyph glyph-name="brokenbar" unicode="&#xa6;" horiz-adv-x="260" 
d="M145 713v-371q0 -6 -4.5 -10.5t-10.5 -4.5t-10.5 4.5t-4.5 10.5v371q0 6 4.5 10.5t10.5 4.5t10.5 -4.5t4.5 -10.5zM145 163v-363q0 -6 -4.5 -10.5t-10.5 -4.5t-10.5 4.5t-4.5 10.5v363q0 6 4.5 10.5t10.5 4.5t10.5 -4.5t4.5 -10.5z" />
    <glyph glyph-name="section" unicode="&#xa7;" horiz-adv-x="597" 
d="M450 158q84 -49 84 -132q0 -72 -58 -116.5t-166 -44.5q-126 0 -240 67q-9 7 -9 15q0 9 7.5 13t13.5 0q118 -67 225 -67q94 0 145.5 38t51.5 95q0 80 -95 122q-22 9 -99 33q-128 39 -183 80t-55 112q0 83 93 134q-77 45 -77 127q0 136 208 136q67 0 122 -14.5t77 -30.5
q6 -5 6 -12q0 -12 -13 -12q-4 0 -27.5 10.5t-67 20.5t-96.5 10q-179 0 -179 -107q0 -17 2.5 -31.5t11 -27t14.5 -21.5t22 -18.5t24.5 -15t31 -13.5t33 -11.5t38.5 -12.5t40 -13q38 -12 55.5 -18.5t49 -22t46.5 -31.5t27.5 -42t12.5 -59q0 -83 -76 -140zM102 375
q0 -61 47 -94.5t170 -71.5q68 -21 103 -36q74 54 74 125q0 31 -11.5 54t-36.5 39t-47 25t-59 22q-3 1 -5 1.5t-5 1.5t-5 2q-98 33 -132 49q-34 -14 -63.5 -43.5t-29.5 -73.5z" />
    <glyph glyph-name="dieresis" unicode="&#xa8;" horiz-adv-x="541" 
d="M162 595q-18 0 -30 12t-12 30t12 29.5t30 11.5q19 0 30 -11t11 -30q0 -18 -11.5 -30t-29.5 -12zM380 595q-18 0 -30 12t-12 30t12 29.5t30 11.5q19 0 30 -11t11 -30q0 -18 -11.5 -30t-29.5 -12z" />
    <glyph glyph-name="copyright" unicode="&#xa9;" horiz-adv-x="889" 
d="M446 -40q-92 0 -166 32t-120 86t-70 122.5t-24 144.5q0 77 25 146.5t71.5 124t119.5 86.5t162 32q117 0 205 -55.5t131 -143t43 -190.5t-40 -188.5t-127.5 -141t-209.5 -55.5zM446 -12q157 0 252 98.5t95 258.5q0 157 -98 259t-251 102t-250.5 -101t-97.5 -260t96.5 -258
t253.5 -99zM443 132q-95 0 -152.5 58.5t-57.5 155.5q0 96 57 153.5t147 57.5q81 0 120 -30q7 -6 7 -13q0 -13 -15 -13q-5 0 -16.5 7t-36 14t-60.5 7q-74 0 -123.5 -49.5t-49.5 -133.5q0 -85 48.5 -135.5t130.5 -50.5q36 0 60.5 7t36 14t16.5 7q15 0 15 -13q0 -7 -7 -13
q-39 -30 -120 -30z" />
    <glyph glyph-name="ordfeminine" unicode="&#xaa;" horiz-adv-x="599" 
d="M63 512q0 -102 56 -162.5t149 -60.5q57 0 104.5 26.5t73.5 77.5h2q0 -86 72 -103q9 -2 14.5 2.5t5.5 11.5q0 10 -10 13q-35 13 -43.5 34t-8.5 75v288q0 14 -14 14q-13 0 -13 -14v-77h-2q-22 41 -70 69t-113 28q-94 0 -148.5 -63t-54.5 -159zM270 317q-81 0 -129 54.5
t-48 140.5q0 85 49 139.5t125 54.5q84 0 133 -49.5t49 -139.5q-1 -88 -50 -144t-129 -56z" />
    <glyph glyph-name="guillemotleft" unicode="&#xab;" horiz-adv-x="442" 
d="M65 263l86 162q6 10 14 10q14 0 14 -13q0 -4 -3 -10l-86 -161l86 -161q3 -6 3 -10q0 -13 -14 -13q-8 0 -14 10l-86 162q-3 6 -3 12t3 12zM253 263l86 162q6 10 14 10q14 0 14 -13q0 -4 -3 -10l-86 -161l86 -161q3 -6 3 -10q0 -13 -14 -13q-8 0 -14 10l-86 162q-3 6 -3 12
t3 12z" />
    <glyph glyph-name="registered" unicode="&#xae;" horiz-adv-x="889" 
d="M446 -40q-92 0 -166 32t-120 86t-70 122.5t-24 144.5q0 77 25 146.5t71.5 124t119.5 86.5t162 32q117 0 205 -55.5t131 -143t43 -190.5t-40 -188.5t-127.5 -141t-209.5 -55.5zM446 -12q157 0 252 98.5t95 258.5q0 157 -98 259t-251 102t-250.5 -101t-97.5 -260t96.5 -258
t253.5 -99zM314 156v377q0 15 15 15h130q67 0 107.5 -29t40.5 -89q0 -108 -109 -110l96 -157q2 -4 2 -8q0 -14 -15 -14q-7 0 -11 6l-106 171h-120v-162q0 -15 -15 -15t-15 15zM344 520v-174h143q52 0 71 22.5t19 61.5q0 90 -118 90h-115z" />
    <glyph glyph-name="macron" unicode="&#xaf;" horiz-adv-x="600" 
d="M430 612h-317q-5 0 -9.5 4t-4.5 10t4.5 10t9.5 4h317q5 0 9.5 -4t4.5 -10t-4.5 -10t-9.5 -4z" />
    <glyph glyph-name="degree" unicode="&#xb0;" horiz-adv-x="456" 
d="M228 392q-72 0 -119 48t-47 121q0 72 47 118.5t119 46.5t119 -46.5t47 -118.5q0 -73 -47 -121t-119 -48zM228 420q59 0 97.5 40t38.5 101q0 60 -38 98.5t-98 38.5t-98 -38.5t-38 -98.5q0 -61 38.5 -101t97.5 -40z" />
    <glyph glyph-name="plusminus" unicode="&#xb1;" horiz-adv-x="538" 
d="M269 583q6 0 10.5 -4.5t4.5 -10.5v-109h146q5 0 9.5 -4t4.5 -10t-4.5 -10t-9.5 -4h-146v-109q0 -6 -4.5 -10.5t-10.5 -4.5t-10.5 4.5t-4.5 10.5v109h-146q-5 0 -9.5 4t-4.5 10t4.5 10t9.5 4h146v109q0 6 4.5 10.5t10.5 4.5zM108 181h319q5 0 9.5 -4t4.5 -10t-4.5 -10
t-9.5 -4h-319q-5 0 -9.5 4t-4.5 10t4.5 10t9.5 4z" />
    <glyph glyph-name="acute" unicode="&#xb4;" horiz-adv-x="395" 
d="M79 575l153 167q4 4 11 4q16 0 16 -16q0 -7 -5 -12l-158 -161q-4 -4 -9 -4q-12 0 -12 13q0 5 4 9z" />
    <glyph glyph-name="paragraph" unicode="&#xb6;" horiz-adv-x="585" 
d="M451 728q6 0 10.5 -4.5t4.5 -10.5v-830q0 -15 -15 -15t-15 15v817h-142v-816q0 -15 -15 -15t-15 15v356q-105 0 -164.5 67.5t-59.5 173.5q0 118 61 182t176 65h174z" />
    <glyph glyph-name="periodcentered" unicode="&#xb7;" horiz-adv-x="244" 
d="M121 210q-16 0 -26.5 11t-10.5 29q0 17 10.5 27.5t26.5 10.5q17 0 28 -10.5t11 -27.5q0 -18 -11 -29t-28 -11z" />
    <glyph glyph-name="cedilla" unicode="&#xb8;" horiz-adv-x="600" 
d="M191 -245q-66 0 -111 36q-6 5 -6 13q0 14 15 14q5 0 17 -9t34.5 -17.5t50.5 -8.5q43 0 67.5 18t24.5 53q0 62 -99 67q-17 1 -12 20l14 50q3 10 14 10q19 0 14 -18l-11 -38q4 0 11.5 -1t26.5 -6.5t33.5 -14t26.5 -27t12 -42.5q0 -49 -33 -74t-89 -25z" />
    <glyph glyph-name="ordmasculine" unicode="&#xba;" horiz-adv-x="549" 
d="M275 293q-93 0 -153 61t-60 160q0 100 59.5 160t153.5 60t153 -60t59 -160q0 -99 -59.5 -160t-152.5 -61zM275 321q82 0 132 53.5t50 139.5t-50 139t-132 53t-132.5 -53t-50.5 -139t50.5 -139.5t132.5 -53.5z" />
    <glyph glyph-name="guillemotright" unicode="&#xbb;" horiz-adv-x="442" 
d="M103 425l86 -162q3 -6 3 -12t-3 -12l-86 -162q-6 -10 -14 -10q-14 0 -14 13q0 4 3 10l86 161l-86 161q-3 6 -3 10q0 13 14 13q8 0 14 -10zM291 425l86 -162q3 -6 3 -12t-3 -12l-86 -162q-6 -10 -14 -10q-14 0 -14 13q0 4 3 10l86 161l-86 161q-3 6 -3 10q0 13 14 13
q8 0 14 -10z" />
    <glyph glyph-name="onequarter" unicode="&#xbc;" horiz-adv-x="787" 
d="M527 721q0 -5 -3 -12l-301 -712q-5 -12 -15 -12q-15 0 -15 13q0 4 3 11l300 712q6 14 16 14q15 0 15 -14zM153 720q24 0 24 -28v-348q0 -15 -15 -15t-15 15v346l-94 -38q-8 -2 -14.5 1.5t-6.5 11.5q0 11 11 15l91 36q12 4 19 4zM740 118q5 0 9.5 -4t4.5 -10t-4.5 -10
t-9.5 -4h-41v-77q0 -14 -15 -14q-14 0 -14 14v77h-225q-8 0 -14 6t-6 14q0 4 2 10l140 266q3 7 13 7q14 0 14 -14q0 -3 -2 -7l-133 -254h211v93q0 14 15 14q14 0 14 -14v-93h41z" />
    <glyph glyph-name="onehalf" unicode="&#xbd;" horiz-adv-x="800" 
d="M207 -15q-15 0 -15 13q0 4 3 11l300 712q6 14 16 14q15 0 15 -14q0 -5 -3 -12l-301 -712q-5 -12 -15 -12zM162 329q-15 0 -15 15v346l-94 -38q-21 -6 -21 13q0 11 11 15l91 36q12 4 19 4q24 0 24 -28v-348q0 -15 -15 -15zM619 373q-22 0 -42.5 -5t-29.5 -9t-25 -14
l-17 -10q-9 -6 -15 -6q-15 0 -15 13q0 7 7 13q21 18 58.5 32t78.5 14q122 -6 122 -112q0 -35 -19.5 -72t-57 -74.5t-67 -62.5t-74.5 -59v-2l213 2q5 0 9.5 -4t4.5 -10t-4.5 -10t-9.5 -4h-238q-8 0 -13.5 6t-5.5 14q0 10 7 15q116 92 148 123q77 77 77 139q0 78 -92 83z" />
    <glyph glyph-name="threequarters" unicode="&#xbe;" horiz-adv-x="869" 
d="M331 427q0 -107 -136 -114q-86 0 -134 36q-7 6 -7 13q0 13 15 13q6 0 19 -8.5t40 -17t67 -8.5q106 5 106 85q0 50 -38.5 73t-90.5 23h-51q-5 0 -9.5 4t-4.5 10t4.5 10t9.5 4h51q48 0 85.5 21.5t37.5 70.5q0 71 -96 76q-35 0 -61 -8.5t-40 -17t-21 -8.5q-15 0 -15 13
q0 7 7 13q48 36 130 36q126 -6 126 -105q0 -40 -25 -68.5t-59 -35.5v-2q36 -8 63 -35t27 -73zM610 721q0 -5 -3 -12l-301 -712q-5 -12 -15 -12q-15 0 -15 13q0 4 3 11l300 712q6 14 16 14q15 0 15 -14zM823 118q5 0 9.5 -4t4.5 -10t-4.5 -10t-9.5 -4h-41v-77q0 -14 -15 -14
q-14 0 -14 14v77h-225q-8 0 -14 6t-6 14q0 4 2 10l140 266q4 7 13 7q14 0 14 -14q0 -3 -2 -7l-133 -254h211v93q0 14 15 14q14 0 14 -14v-93h41z" />
    <glyph glyph-name="questiondown" unicode="&#xbf;" horiz-adv-x="475" 
d="M279 519q16 0 26.5 -11t10.5 -29q0 -17 -10.5 -27.5t-26.5 -10.5q-17 0 -28 10.5t-11 27.5q0 18 11 29t28 11zM47 -60q0 44 13.5 79t35 57.5t50.5 38.5t58 23.5t60 10.5v142q0 15 15 15t15 -15v-151q0 -16 -18 -18q-101 -9 -150 -57t-49 -125q0 -65 45.5 -104t140.5 -39
q44 0 81.5 10t58.5 20t27 10q14 0 14 -14q0 -7 -7 -13q-21 -14 -71.5 -27.5t-102.5 -13.5q-96 0 -156 43t-60 128z" />
    <glyph glyph-name="Agrave" unicode="&#xc0;" horiz-adv-x="706" 
d="M357 807l-158 161q-5 5 -5 12q0 16 16 16q7 0 11 -4l153 -167q4 -4 4 -9q0 -13 -12 -13q-5 0 -9 4zM668 14q4 -7 0 -14t-14 -7t-14 9l-97 236h-380l-97 -236q-4 -9 -14 -9t-14 6.5t0 14.5l285 689q7 15 13 20t17 5q14 0 20 -6t13 -25zM174 266h358l-178 433h-2z" />
    <glyph glyph-name="Aacute" unicode="&#xc1;" horiz-adv-x="706" 
d="M303 803q-12 0 -12 13q0 5 4 9l153 167q4 4 11 4q16 0 16 -16q0 -7 -5 -12l-158 -161q-4 -4 -9 -4zM668 14q4 -7 0 -14t-14 -7t-14 9l-97 236h-380l-97 -236q-4 -9 -14 -9t-14 6.5t0 14.5l285 689q7 15 13 20t17 5q14 0 20 -6t13 -25zM174 266h358l-178 433h-2z" />
    <glyph glyph-name="Acircumflex" unicode="&#xc2;" horiz-adv-x="706" 
d="M208 790q-12 0 -12 12q0 5 7 14l92 110q31 36 44 46.5t24 10.5q16 0 79 -73l80 -96q6 -9 6 -13q0 -11 -13 -11q-5 0 -11 7l-141 154h-2l-143 -157q-4 -4 -10 -4zM668 14q4 -7 0 -14t-14 -7t-14 9l-97 236h-380l-97 -236q-4 -9 -14 -9t-14 6.5t0 14.5l285 689q7 15 13 20
t17 5q14 0 20 -6t13 -25zM174 266h358l-178 433h-2z" />
    <glyph glyph-name="Atilde" unicode="&#xc3;" horiz-adv-x="706" 
d="M179 816q-14 0 -14 13q0 51 21 85.5t68 34.5q29 0 56 -17t43.5 -38t38 -38t41.5 -17q34 0 52 25t17 74q0 13 14 13q13 0 13 -13q0 -61 -25 -94t-68 -33q-26 0 -51.5 17t-42 38t-39.5 38t-45 17q-66 0 -66 -92q0 -13 -13 -13zM668 14q4 -7 0 -14t-14 -7t-14 9l-97 236
h-380l-97 -236q-4 -9 -14 -9t-14 6.5t0 14.5l285 689q7 15 13 20t17 5q14 0 20 -6t13 -25zM174 266h358l-178 433h-2z" />
    <glyph glyph-name="Adieresis" unicode="&#xc4;" horiz-adv-x="706" 
d="M244 835q-18 0 -30 12t-12 30t12 29.5t30 11.5q19 0 30 -11t11 -30q0 -18 -11.5 -30t-29.5 -12zM462 835q-18 0 -30 12t-12 30t12 29.5t30 11.5q19 0 30 -11t11 -30q0 -18 -11.5 -30t-29.5 -12zM668 14q4 -7 0 -14t-14 -7t-14 9l-97 236h-380l-97 -236q-4 -9 -14 -9
t-14 6.5t0 14.5l285 689q7 15 13 20t17 5q14 0 20 -6t13 -25zM174 266h358l-178 433h-2z" />
    <glyph glyph-name="Aring" unicode="&#xc5;" horiz-adv-x="706" 
d="M354 796q-40 0 -65.5 26.5t-25.5 64.5q0 39 25 65t66 26q40 0 65.5 -26t25.5 -65q0 -38 -25.5 -64.5t-65.5 -26.5zM354 950q-27 0 -44 -18t-17 -45t17 -45t44 -18q26 0 43.5 18.5t17.5 44.5q0 27 -17 45t-44 18zM668 14q4 -7 0 -14t-14 -7t-14 9l-97 236h-380l-97 -236
q-4 -9 -14 -9t-14 6.5t0 14.5l285 689q7 15 13 20t17 5q14 0 20 -6t13 -25zM174 266h358l-178 433h-2z" />
    <glyph glyph-name="AE" unicode="&#xc6;" horiz-adv-x="938" 
d="M869 21q14 0 14 -14t-14 -14h-382q-15 0 -15 15v230h-293l-148 -234q-6 -11 -14 -11t-12.5 6t0.5 15l431 687q15 27 36 27h397q14 0 14 -14t-14 -14h-367v-326h327q14 0 14 -14t-14 -14h-327v-325h367zM196 266h276v434h-2z" />
    <glyph glyph-name="Ccedilla" unicode="&#xc7;" horiz-adv-x="645" 
d="M587 49q6 3 12 -1t6 -13q0 -7 -8 -12q-67 -38 -161 -38h-19l-11 -37q4 0 11.5 -1t26.5 -6.5t33.5 -14t26.5 -27t12 -42.5q0 -49 -33 -74t-89 -25q-66 0 -111 36q-6 5 -6 13q0 14 15 14q5 0 17 -8.5t34.5 -17.5t50.5 -9q43 0 67.5 18t24.5 53q0 61 -99 67q-17 1 -12 20
l12 44q-142 15 -231 114t-89 260q0 169 104.5 271t264.5 102q96 0 162 -43q8 -5 8 -12q0 -8 -6.5 -12t-12.5 0q-61 39 -151 39q-150 0 -244 -95t-94 -250q0 -161 93.5 -255t244.5 -94q85 0 151 36z" />
    <glyph glyph-name="Egrave" unicode="&#xc8;" horiz-adv-x="585" 
d="M195 992l153 -167q4 -4 4 -9q0 -13 -12 -13q-5 0 -9 4l-158 161q-5 5 -5 12q0 16 16 16q7 0 11 -4zM516 -7h-382q-15 0 -15 15v705q0 15 15 15h382q14 0 14 -14t-14 -14h-367v-326h327q14 0 14 -14t-14 -14h-327v-325h367q14 0 14 -14t-14 -14z" />
    <glyph glyph-name="Eacute" unicode="&#xc9;" horiz-adv-x="585" 
d="M269 825l153 167q4 4 11 4q16 0 16 -16q0 -7 -5 -12l-158 -161q-4 -4 -9 -4q-12 0 -12 13q0 5 4 9zM516 -7h-382q-15 0 -15 15v705q0 15 15 15h382q14 0 14 -14t-14 -14h-367v-326h327q14 0 14 -14t-14 -14h-327v-325h367q14 0 14 -14t-14 -14z" />
    <glyph glyph-name="Ecircumflex" unicode="&#xca;" horiz-adv-x="585" 
d="M182 790q-12 0 -12 12q0 5 7 14l92 110q31 36 44 46.5t24 10.5q16 0 79 -73l80 -96q6 -9 6 -13q0 -11 -13 -11q-5 0 -11 7l-141 154h-2l-143 -157q-4 -4 -10 -4zM516 -7h-382q-15 0 -15 15v705q0 15 15 15h382q14 0 14 -14t-14 -14h-367v-326h327q14 0 14 -14t-14 -14
h-327v-325h367q14 0 14 -14t-14 -14z" />
    <glyph glyph-name="Edieresis" unicode="&#xcb;" horiz-adv-x="585" 
d="M218 835q-18 0 -30 12t-12 30t12 29.5t30 11.5q19 0 30 -11t11 -30q0 -18 -11.5 -30t-29.5 -12zM436 835q-18 0 -30 12t-12 30t12 29.5t30 11.5q19 0 30 -11t11 -30q0 -18 -11.5 -30t-29.5 -12zM516 -7h-382q-15 0 -15 15v705q0 15 15 15h382q14 0 14 -14t-14 -14h-367
v-326h327q14 0 14 -14t-14 -14h-327v-325h367q14 0 14 -14t-14 -14z" />
    <glyph glyph-name="Igrave" unicode="&#xcc;" horiz-adv-x="268" 
d="M2 992l153 -167q4 -4 4 -9q0 -13 -12 -13q-5 0 -9 4l-158 161q-5 5 -5 12q0 16 16 16q7 0 11 -4zM134 -7q-15 0 -15 15v705q0 15 15 15t15 -15v-705q0 -15 -15 -15z" />
    <glyph glyph-name="Iacute" unicode="&#xcd;" horiz-adv-x="268" 
d="M76 825l153 167q4 4 11 4q16 0 16 -16q0 -7 -5 -12l-158 -161q-4 -4 -9 -4q-12 0 -12 13q0 5 4 9zM134 -7q-15 0 -15 15v705q0 15 15 15t15 -15v-705q0 -15 -15 -15z" />
    <glyph glyph-name="Icircumflex" unicode="&#xce;" horiz-adv-x="268" 
d="M-11 790q-12 0 -12 12q0 5 7 14l92 110q31 36 44 46.5t24 10.5q16 0 79 -73l80 -96q6 -9 6 -13q0 -11 -13 -11q-5 0 -11 7l-141 154h-2l-143 -157q-4 -4 -10 -4zM134 -7q-15 0 -15 15v705q0 15 15 15t15 -15v-705q0 -15 -15 -15z" />
    <glyph glyph-name="Idieresis" unicode="&#xcf;" horiz-adv-x="268" 
d="M25 835q-18 0 -30 12t-12 30t12 29.5t30 11.5q19 0 30 -11t11 -30q0 -18 -11.5 -30t-29.5 -12zM243 835q-18 0 -30 12t-12 30t12 29.5t30 11.5q19 0 30 -11t11 -30q0 -18 -11.5 -30t-29.5 -12zM134 -7q-15 0 -15 15v705q0 15 15 15t15 -15v-705q0 -15 -15 -15z" />
    <glyph glyph-name="Eth" unicode="&#xd0;" horiz-adv-x="804" 
d="M359 728q181 0 279 -97t98 -271q0 -168 -98.5 -267t-278.5 -100h-219q-15 0 -15 15v338h-60q-14 0 -14 14t14 14h60v339q0 15 15 15h219zM359 21q162 0 254.5 91t92.5 248q0 158 -90 249t-257 91h-204v-326h204q14 0 14 -14t-14 -14h-204v-325h204z" />
    <glyph glyph-name="Ntilde" unicode="&#xd1;" horiz-adv-x="815" 
d="M324 949q29 0 56 -17t43.5 -38t38 -38t41.5 -17q34 0 52 25t17 74q0 13 14 13q13 0 13 -13q0 -61 -25 -94t-68 -33q-26 0 -51.5 17t-42 38t-39.5 38t-45 17q-66 0 -66 -92q0 -13 -13 -13q-14 0 -14 13q0 51 21 85.5t68 34.5zM134 -7q-15 0 -15 15v699q0 21 22 21
q11 0 28 -21l495 -669h2v675q0 15 15 15t15 -15v-699q0 -21 -22 -21q-12 0 -28 21l-495 669h-2v-675q0 -15 -15 -15z" />
    <glyph glyph-name="Ograve" unicode="&#xd2;" horiz-adv-x="850" 
d="M293 1007l153 -167q4 -4 4 -9q0 -13 -12 -13q-5 0 -9 4l-158 161q-5 5 -5 12q0 16 16 16q7 0 11 -4zM425 -15q-153 0 -255.5 101.5t-102.5 275.5q0 168 103.5 270.5t254.5 102.5q153 0 255.5 -102.5t102.5 -270.5q0 -175 -102 -276t-256 -101zM425 13q143 0 235 94.5
t92 254.5q0 154 -92.5 249.5t-234.5 95.5q-141 0 -234 -96t-93 -249q0 -160 92.5 -254.5t234.5 -94.5z" />
    <glyph glyph-name="Oacute" unicode="&#xd3;" horiz-adv-x="850" 
d="M367 840l153 167q4 4 11 4q16 0 16 -16q0 -7 -5 -12l-158 -161q-4 -4 -9 -4q-12 0 -12 13q0 5 4 9zM425 -15q-153 0 -255.5 101.5t-102.5 275.5q0 168 103.5 270.5t254.5 102.5q153 0 255.5 -102.5t102.5 -270.5q0 -175 -102 -276t-256 -101zM425 13q143 0 235 94.5
t92 254.5q0 154 -92.5 249.5t-234.5 95.5q-141 0 -234 -96t-93 -249q0 -160 92.5 -254.5t234.5 -94.5z" />
    <glyph glyph-name="Ocircumflex" unicode="&#xd4;" horiz-adv-x="850" 
d="M280 805q-12 0 -12 12q0 5 7 14l92 110q31 36 44 46.5t24 10.5q16 0 79 -73l80 -96q6 -9 6 -13q0 -11 -13 -11q-5 0 -11 7l-141 154h-2l-143 -157q-4 -4 -10 -4zM425 -15q-153 0 -255.5 101.5t-102.5 275.5q0 168 103.5 270.5t254.5 102.5q153 0 255.5 -102.5
t102.5 -270.5q0 -175 -102 -276t-256 -101zM425 13q143 0 235 94.5t92 254.5q0 154 -92.5 249.5t-234.5 95.5q-141 0 -234 -96t-93 -249q0 -160 92.5 -254.5t234.5 -94.5z" />
    <glyph glyph-name="Otilde" unicode="&#xd5;" horiz-adv-x="850" 
d="M326 964q29 0 56 -17t43.5 -38t38 -38t41.5 -17q34 0 52 25t17 74q0 13 14 13q13 0 13 -13q0 -61 -25 -94t-68 -33q-26 0 -51.5 17t-42 38t-39.5 38t-45 17q-66 0 -66 -92q0 -13 -13 -13q-14 0 -14 13q0 51 21 85.5t68 34.5zM425 -15q-153 0 -255.5 101.5t-102.5 275.5
q0 168 103.5 270.5t254.5 102.5q153 0 255.5 -102.5t102.5 -270.5q0 -175 -102 -276t-256 -101zM425 13q143 0 235 94.5t92 254.5q0 154 -92.5 249.5t-234.5 95.5q-141 0 -234 -96t-93 -249q0 -160 92.5 -254.5t234.5 -94.5z" />
    <glyph glyph-name="Odieresis" unicode="&#xd6;" horiz-adv-x="850" 
d="M316 850q-18 0 -30 12t-12 30t12 29.5t30 11.5q19 0 30 -11t11 -30q0 -18 -11.5 -30t-29.5 -12zM534 850q-18 0 -30 12t-12 30t12 29.5t30 11.5q19 0 30 -11t11 -30q0 -18 -11.5 -30t-29.5 -12zM425 -15q-153 0 -255.5 101.5t-102.5 275.5q0 168 103.5 270.5t254.5 102.5
q153 0 255.5 -102.5t102.5 -270.5q0 -175 -102 -276t-256 -101zM425 13q143 0 235 94.5t92 254.5q0 154 -92.5 249.5t-234.5 95.5q-141 0 -234 -96t-93 -249q0 -160 92.5 -254.5t234.5 -94.5z" />
    <glyph glyph-name="multiply" unicode="&#xd7;" horiz-adv-x="486" 
d="M93 190q-6 0 -11 4.5t-5 10.5t6 12l137 137l-135 133q-4 4 -4 10q0 7 5 11.5t11 4.5t10 -4l135 -133l134 133q5 4 11 4q15 0 15 -15q0 -5 -5 -10l-134 -133l138 -138q5 -5 5 -11q0 -16 -16 -16q-6 0 -11 5l-137 138l-138 -138q-5 -5 -11 -5z" />
    <glyph glyph-name="Oslash" unicode="&#xd8;" horiz-adv-x="870" 
d="M817 720q0 -6 -5 -11l-101 -100q81 -100 81 -247q0 -175 -102 -276t-256 -101t-253 99l-94 -94q-5 -5 -10 -5q-6 0 -10.5 5t-4.5 11q0 5 5 10l95 94q-86 100 -86 257q0 168 103.5 270.5t254.5 102.5q156 0 258 -105l100 100q5 5 11 5q5 0 9.5 -5t4.5 -10zM107 362
q0 -143 76 -236l487 483q-90 98 -236 98q-141 0 -234 -96t-93 -249zM761 362q0 134 -72 225l-487 -483q91 -91 232 -91q143 0 235 94.5t92 254.5z" />
    <glyph glyph-name="Ugrave" unicode="&#xd9;" horiz-adv-x="796" 
d="M263 992l153 -167q4 -4 4 -9q0 -13 -12 -13q-5 0 -9 4l-158 161q-5 5 -5 12q0 16 16 16q7 0 11 -4zM398 -15q-141 0 -215.5 87t-74.5 231v410q0 15 15 15t15 -15v-409q0 -57 14 -107t43 -92.5t81 -67t122 -24.5t122 24.5t81 67t43 92t14 107.5v409q0 15 15 15t15 -15
v-410q0 -144 -74.5 -231t-215.5 -87z" />
    <glyph glyph-name="Uacute" unicode="&#xda;" horiz-adv-x="796" 
d="M337 825l153 167q4 4 11 4q16 0 16 -16q0 -7 -5 -12l-158 -161q-4 -4 -9 -4q-12 0 -12 13q0 5 4 9zM398 -15q-141 0 -215.5 87t-74.5 231v410q0 15 15 15t15 -15v-409q0 -57 14 -107t43 -92.5t81 -67t122 -24.5t122 24.5t81 67t43 92t14 107.5v409q0 15 15 15t15 -15
v-410q0 -144 -74.5 -231t-215.5 -87z" />
    <glyph glyph-name="Ucircumflex" unicode="&#xdb;" horiz-adv-x="796" 
d="M250 790q-12 0 -12 12q0 5 7 14l92 110q31 36 44 46.5t24 10.5q16 0 79 -73l80 -96q6 -9 6 -13q0 -11 -13 -11q-5 0 -11 7l-141 154h-2l-143 -157q-4 -4 -10 -4zM398 -15q-141 0 -215.5 87t-74.5 231v410q0 15 15 15t15 -15v-409q0 -57 14 -107t43 -92.5t81 -67
t122 -24.5t122 24.5t81 67t43 92t14 107.5v409q0 15 15 15t15 -15v-410q0 -144 -74.5 -231t-215.5 -87z" />
    <glyph glyph-name="Udieresis" unicode="&#xdc;" horiz-adv-x="796" 
d="M286 835q-18 0 -30 12t-12 30t12 29.5t30 11.5q19 0 30 -11t11 -30q0 -18 -11.5 -30t-29.5 -12zM504 835q-18 0 -30 12t-12 30t12 29.5t30 11.5q19 0 30 -11t11 -30q0 -18 -11.5 -30t-29.5 -12zM398 -15q-141 0 -215.5 87t-74.5 231v410q0 15 15 15t15 -15v-409
q0 -57 14 -107t43 -92.5t81 -67t122 -24.5t122 24.5t81 67t43 92t14 107.5v409q0 15 15 15t15 -15v-410q0 -144 -74.5 -231t-215.5 -87z" />
    <glyph glyph-name="Yacute" unicode="&#xdd;" horiz-adv-x="666" 
d="M275 836l153 167q4 4 11 4q16 0 16 -16q0 -7 -5 -12l-158 -161q-4 -4 -9 -4q-12 0 -12 13q0 5 4 9zM333 -7q-15 0 -15 15v284l-270 412q-3 5 -3 9q0 6 5 10.5t12 4.5q6 0 12 -9l258 -395h2l258 395q6 9 12 9q7 0 12 -4.5t5 -10.5q0 -4 -3 -9l-270 -412v-284
q0 -15 -15 -15z" />
    <glyph glyph-name="Thorn" unicode="&#xde;" horiz-adv-x="679" 
d="M616 360q0 -120 -67.5 -176t-213.5 -57h-186v-119q0 -15 -15 -15t-15 15v705q0 15 15 15t15 -15v-120h186q281 0 281 -233zM586 360q0 102 -60 153.5t-190 51.5h-187v-410h187q132 0 191 48.5t59 156.5z" />
    <glyph glyph-name="germandbls" unicode="&#xdf;" horiz-adv-x="619" 
d="M102 8v548q0 64 19.5 108.5t52.5 66.5t67 31t73 9q71 0 117 -30t46 -88q0 -30 -15 -57.5t-37 -49t-43.5 -42t-36.5 -44t-15 -47.5q0 -33 25 -58t61 -43t72.5 -38t61.5 -52.5t25 -76.5q0 -74 -55.5 -117t-164.5 -43q-100 0 -151 40q-7 6 -7 14q0 13 15 13q6 0 21 -10
t46 -19.5t76 -9.5q95 0 142.5 36.5t47.5 95.5q0 38 -25 66.5t-61 47t-72.5 38t-61.5 48.5t-25 68q0 27 15 53.5t37 48.5l43.5 43.5t36.5 46t15 48.5q0 90 -133 90q-182 0 -182 -187v-548q0 -15 -15 -15t-15 15z" />
    <glyph glyph-name="agrave" unicode="&#xe0;" horiz-adv-x="566" 
d="M136 777l153 -167q4 -4 4 -9q0 -13 -12 -13q-5 0 -9 4l-158 161q-5 5 -5 12q0 16 16 16q7 0 11 -4zM213 -15q-80 0 -124.5 38t-44.5 107q0 73 55.5 114t138.5 41q100 0 196 -56q0 123 -37 185.5t-141 62.5q-76 0 -137 -24q-6 -2 -9 -2q-13 0 -13 14q0 10 13 15
q64 25 148 25q116 0 161 -70.5t45 -206.5v-106q0 -54 8.5 -75.5t43.5 -34.5q10 -3 10 -13q0 -7 -5.5 -11.5t-14.5 -2.5q-43 10 -57.5 42t-14.5 89h-2q-75 -131 -219 -131zM214 13q90 0 151.5 58t68.5 128q-96 58 -196 58q-72 0 -117.5 -33.5t-45.5 -92.5q0 -58 37 -88
t102 -30z" />
    <glyph glyph-name="aacute" unicode="&#xe1;" horiz-adv-x="566" 
d="M210 610l153 167q4 4 11 4q16 0 16 -16q0 -7 -5 -12l-158 -161q-4 -4 -9 -4q-12 0 -12 13q0 5 4 9zM213 -15q-80 0 -124.5 38t-44.5 107q0 73 55.5 114t138.5 41q100 0 196 -56q0 123 -37 185.5t-141 62.5q-76 0 -137 -24q-6 -2 -9 -2q-13 0 -13 14q0 10 13 15
q64 25 148 25q116 0 161 -70.5t45 -206.5v-106q0 -54 8.5 -75.5t43.5 -34.5q10 -3 10 -13q0 -7 -5.5 -11.5t-14.5 -2.5q-43 10 -57.5 42t-14.5 89h-2q-75 -131 -219 -131zM214 13q90 0 151.5 58t68.5 128q-96 58 -196 58q-72 0 -117.5 -33.5t-45.5 -92.5q0 -58 37 -88
t102 -30z" />
    <glyph glyph-name="acircumflex" unicode="&#xe2;" horiz-adv-x="566" 
d="M123 575q-12 0 -12 12q0 5 7 14l92 110q31 36 44 46.5t24 10.5q16 0 79 -73l80 -96q6 -9 6 -13q0 -11 -13 -11q-5 0 -11 7l-141 154h-2l-143 -157q-4 -4 -10 -4zM213 -15q-80 0 -124.5 38t-44.5 107q0 73 55.5 114t138.5 41q100 0 196 -56q0 123 -37 185.5t-141 62.5
q-76 0 -137 -24q-6 -2 -9 -2q-13 0 -13 14q0 10 13 15q64 25 148 25q116 0 161 -70.5t45 -206.5v-106q0 -54 8.5 -75.5t43.5 -34.5q10 -3 10 -13q0 -7 -5.5 -11.5t-14.5 -2.5q-43 10 -57.5 42t-14.5 89h-2q-75 -131 -219 -131zM214 13q90 0 151.5 58t68.5 128
q-96 58 -196 58q-72 0 -117.5 -33.5t-45.5 -92.5q0 -58 37 -88t102 -30z" />
    <glyph glyph-name="atilde" unicode="&#xe3;" horiz-adv-x="566" 
d="M169 734q29 0 56 -17t43.5 -38t38 -38t41.5 -17q70 0 69 99q0 13 14 13q13 0 13 -13q0 -61 -25 -94t-68 -33q-26 0 -51.5 17t-42 38t-39.5 38t-45 17q-66 0 -66 -92q0 -13 -13 -13q-14 0 -14 13q0 51 21 85.5t68 34.5zM213 -15q-80 0 -124.5 38t-44.5 107q0 73 55.5 114
t138.5 41q100 0 196 -56q0 123 -37 185.5t-141 62.5q-76 0 -137 -24q-6 -2 -9 -2q-13 0 -13 14q0 10 13 15q64 25 148 25q116 0 161 -70.5t45 -206.5v-106q0 -54 8.5 -75.5t43.5 -34.5q10 -3 10 -13q0 -7 -5.5 -11.5t-14.5 -2.5q-43 10 -57.5 42t-14.5 89h-2
q-75 -131 -219 -131zM214 13q90 0 151.5 58t68.5 128q-96 58 -196 58q-72 0 -117.5 -33.5t-45.5 -92.5q0 -58 37 -88t102 -30z" />
    <glyph glyph-name="adieresis" unicode="&#xe4;" horiz-adv-x="566" 
d="M159 620q-18 0 -30 12t-12 30t12 29.5t30 11.5q19 0 30 -11t11 -30q0 -18 -11.5 -30t-29.5 -12zM377 620q-18 0 -30 12t-12 30t12 29.5t30 11.5q19 0 30 -11t11 -30q0 -18 -11.5 -30t-29.5 -12zM213 -15q-80 0 -124.5 38t-44.5 107q0 73 55.5 114t138.5 41q100 0 196 -56
q0 123 -37 185.5t-141 62.5q-76 0 -137 -24q-6 -2 -9 -2q-13 0 -13 14q0 10 13 15q64 25 148 25q116 0 161 -70.5t45 -206.5v-106q0 -54 8.5 -75.5t43.5 -34.5q10 -3 10 -13q0 -7 -5.5 -11.5t-14.5 -2.5q-43 10 -57.5 42t-14.5 89h-2q-75 -131 -219 -131zM214 13
q90 0 151.5 58t68.5 128q-96 58 -196 58q-72 0 -117.5 -33.5t-45.5 -92.5q0 -58 37 -88t102 -30z" />
    <glyph glyph-name="aring" unicode="&#xe5;" horiz-adv-x="566" 
d="M269 581q-40 0 -65.5 26.5t-25.5 64.5q0 39 25 65t66 26q40 0 65.5 -26t25.5 -65q0 -38 -25.5 -64.5t-65.5 -26.5zM269 609q26 0 43.5 18.5t17.5 44.5q0 27 -17 45t-44 18t-44 -18t-17 -45t17 -45t44 -18zM213 -15q-80 0 -124.5 38t-44.5 107q0 73 55.5 114t138.5 41
q100 0 196 -56q0 123 -37 185.5t-141 62.5q-76 0 -137 -24q-6 -2 -9 -2q-13 0 -13 14q0 10 13 15q64 25 148 25q116 0 161 -70.5t45 -206.5v-106q0 -54 8.5 -75.5t43.5 -34.5q10 -3 10 -13q0 -7 -5.5 -11.5t-14.5 -2.5q-43 10 -57.5 42t-14.5 89h-2q-75 -131 -219 -131z
M214 13q90 0 151.5 58t68.5 128q-96 58 -196 58q-72 0 -117.5 -33.5t-45.5 -92.5q0 -58 37 -88t102 -30z" />
    <glyph glyph-name="ae" unicode="&#xe6;" horiz-adv-x="946" 
d="M668 506q107 0 164 -59t57 -163q0 -25 -4 -35.5t-18 -10.5h-402q0 -105 60.5 -165t165.5 -60q43 0 77 10.5t52.5 20.5t24.5 10q15 0 15 -13q0 -7 -7 -13q-20 -16 -66 -29.5t-96 -13.5q-93 0 -155.5 42t-86.5 120q-23 -68 -86 -115t-150 -47q-80 0 -124.5 38t-44.5 107
q0 73 55.5 114t138.5 41q100 0 196 -56q0 123 -37 185.5t-141 62.5q-76 0 -137 -24q-6 -2 -9 -2q-13 0 -13 14q0 10 13 15q64 25 148 25q85 0 131 -38.5t63 -112.5q25 72 82.5 112t133.5 40zM857 266q1 7 1 27q0 87 -50 136t-140 49q-89 0 -146 -62t-57 -150h392zM214 13
q90 0 151.5 58t68.5 128q-96 58 -196 58q-72 0 -117.5 -33.5t-45.5 -92.5q0 -58 37 -88t102 -30z" />
    <glyph glyph-name="ccedilla" unicode="&#xe7;" horiz-adv-x="519" 
d="M461 59q15 0 15 -13q0 -7 -7 -13q-53 -44 -140 -48l-11 -37q4 0 11.5 -1t26.5 -6.5t33.5 -14t26.5 -27t12 -42.5q0 -49 -33 -74t-89 -25q-66 0 -111 36q-6 5 -6 13q0 14 15 14q5 0 17 -8.5t34.5 -17.5t50.5 -9q43 0 67.5 18t24.5 53q0 61 -99 67q-17 1 -12 20l12 42
q-109 6 -173 76.5t-64 183.5q0 117 68 188.5t179 71.5q93 0 151 -48q7 -6 7 -13q0 -13 -15 -13q-6 0 -22.5 11.5t-47.5 23t-73 11.5q-95 0 -155.5 -64t-60.5 -168q0 -105 60 -169t165 -64q42 0 73 11.5t47.5 23t22.5 11.5z" />
    <glyph glyph-name="egrave" unicode="&#xe8;" horiz-adv-x="574" 
d="M164 777l153 -167q4 -4 4 -9q0 -13 -12 -13q-5 0 -9 4l-158 161q-5 5 -5 12q0 16 16 16q7 0 11 -4zM319 -15q-120 0 -188 69.5t-68 193.5q0 117 65.5 187.5t167.5 70.5q107 0 164 -59t57 -163q0 -25 -4 -35.5t-18 -10.5h-402q0 -105 60.5 -165t165.5 -60q43 0 77 10.5
t52.5 20.5t24.5 10q15 0 15 -13q0 -7 -7 -13q-20 -16 -66 -29.5t-96 -13.5zM93 266h392q1 7 1 27q0 87 -50 136t-140 49q-89 0 -146 -62t-57 -150z" />
    <glyph glyph-name="eacute" unicode="&#xe9;" horiz-adv-x="574" 
d="M238 610l153 167q4 4 11 4q16 0 16 -16q0 -7 -5 -12l-158 -161q-4 -4 -9 -4q-12 0 -12 13q0 5 4 9zM319 -15q-120 0 -188 69.5t-68 193.5q0 117 65.5 187.5t167.5 70.5q107 0 164 -59t57 -163q0 -25 -4 -35.5t-18 -10.5h-402q0 -105 60.5 -165t165.5 -60q43 0 77 10.5
t52.5 20.5t24.5 10q15 0 15 -13q0 -7 -7 -13q-20 -16 -66 -29.5t-96 -13.5zM93 266h392q1 7 1 27q0 87 -50 136t-140 49q-89 0 -146 -62t-57 -150z" />
    <glyph glyph-name="ecircumflex" unicode="&#xea;" horiz-adv-x="574" 
d="M151 575q-12 0 -12 12q0 5 7 14l92 110q31 36 44 46.5t24 10.5q16 0 79 -73l80 -96q6 -9 6 -13q0 -11 -13 -11q-5 0 -11 7l-141 154h-2l-143 -157q-4 -4 -10 -4zM319 -15q-120 0 -188 69.5t-68 193.5q0 117 65.5 187.5t167.5 70.5q107 0 164 -59t57 -163q0 -25 -4 -35.5
t-18 -10.5h-402q0 -105 60.5 -165t165.5 -60q43 0 77 10.5t52.5 20.5t24.5 10q15 0 15 -13q0 -7 -7 -13q-20 -16 -66 -29.5t-96 -13.5zM93 266h392q1 7 1 27q0 87 -50 136t-140 49q-89 0 -146 -62t-57 -150z" />
    <glyph glyph-name="edieresis" unicode="&#xeb;" horiz-adv-x="574" 
d="M187 620q-18 0 -30 12t-12 30t12 29.5t30 11.5q19 0 30 -11t11 -30q0 -18 -11.5 -30t-29.5 -12zM405 620q-18 0 -30 12t-12 30t12 29.5t30 11.5q19 0 30 -11t11 -30q0 -18 -11.5 -30t-29.5 -12zM319 -15q-120 0 -188 69.5t-68 193.5q0 117 65.5 187.5t167.5 70.5
q107 0 164 -59t57 -163q0 -25 -4 -35.5t-18 -10.5h-402q0 -105 60.5 -165t165.5 -60q43 0 77 10.5t52.5 20.5t24.5 10q15 0 15 -13q0 -7 -7 -13q-20 -16 -66 -29.5t-96 -13.5zM93 266h392q1 7 1 27q0 87 -50 136t-140 49q-89 0 -146 -62t-57 -150z" />
    <glyph glyph-name="igrave" unicode="&#xec;" horiz-adv-x="242" 
d="M-11 792l153 -167q4 -4 4 -9q0 -13 -12 -13q-5 0 -9 4l-158 161q-5 5 -5 12q0 16 16 16q7 0 11 -4zM121 -7q-15 0 -15 15v474q0 15 15 15t15 -15v-474q0 -15 -15 -15z" />
    <glyph glyph-name="iacute" unicode="&#xed;" horiz-adv-x="242" 
d="M63 625l153 167q4 4 11 4q16 0 16 -16q0 -7 -5 -12l-158 -161q-4 -4 -9 -4q-12 0 -12 13q0 5 4 9zM121 -7q-15 0 -15 15v474q0 15 15 15t15 -15v-474q0 -15 -15 -15z" />
    <glyph glyph-name="icircumflex" unicode="&#xee;" horiz-adv-x="242" 
d="M-24 590q-12 0 -12 12q0 5 7 14l92 110q31 36 44 46.5t24 10.5q16 0 79 -73l80 -96q6 -9 6 -13q0 -11 -13 -11q-5 0 -11 7l-141 154h-2l-143 -157q-4 -4 -10 -4zM121 -7q-15 0 -15 15v474q0 15 15 15t15 -15v-474q0 -15 -15 -15z" />
    <glyph glyph-name="idieresis" unicode="&#xef;" horiz-adv-x="242" 
d="M12 635q-18 0 -30 12t-12 30t12 29.5t30 11.5q19 0 30 -11t11 -30q0 -18 -11.5 -30t-29.5 -12zM230 635q-18 0 -30 12t-12 30t12 29.5t30 11.5q19 0 30 -11t11 -30q0 -18 -11.5 -30t-29.5 -12zM121 -7q-15 0 -15 15v474q0 15 15 15t15 -15v-474q0 -15 -15 -15z" />
    <glyph glyph-name="eth" unicode="&#xf0;" horiz-adv-x="645" 
d="M452 654q59 -60 87 -145t28 -215q0 -143 -68.5 -226t-185.5 -83q-110 0 -180.5 71.5t-70.5 189.5q0 114 69.5 186.5t176.5 72.5q43 0 81.5 -13.5t63 -33t43 -39t26.5 -33.5l8 -13h2q0 153 -98 258q-21 22 -52 44l-72 -99q-6 -8 -16 -6q-7 2 -10 8t2 14l71 99
q-33 18 -100 37q-15 4 -15 14q0 8 4.5 12.5t11.5 3.5q64 -14 116 -44l52 72q6 9 16 7q7 -2 10 -9.5t-2 -15.5l-51 -70q27 -18 53 -44zM315 13q93 0 155 69t62 169q0 98 -66 162t-156 64q-95 0 -156 -64.5t-61 -166.5q0 -104 61 -168.5t161 -64.5z" />
    <glyph glyph-name="ntilde" unicode="&#xf1;" horiz-adv-x="631" 
d="M232 734q29 0 56 -17t43.5 -38t38 -38t41.5 -17q34 0 52 25t17 74q0 13 14 13q13 0 13 -13q0 -61 -25 -94t-68 -33q-26 0 -51.5 17t-42 38t-39.5 38t-45 17q-66 0 -66 -92q0 -13 -13 -13q-14 0 -14 13q0 51 21 85.5t68 34.5zM117 -7q-15 0 -15 15v475q0 14 14 14
q13 0 13 -14v-122h2q23 64 82 104.5t130 40.5q105 0 150 -59.5t45 -170.5v-268q0 -15 -15 -15t-15 15v265q0 100 -38 152.5t-128 52.5q-89 0 -148.5 -63t-60.5 -158l-1 -249q0 -15 -15 -15z" />
    <glyph glyph-name="ograve" unicode="&#xf2;" horiz-adv-x="625" 
d="M181 777l153 -167q4 -4 4 -9q0 -13 -12 -13q-5 0 -9 4l-158 161q-5 5 -5 12q0 16 16 16q7 0 11 -4zM313 -15q-110 0 -180.5 71.5t-70.5 189.5t70.5 188.5t180.5 70.5t180 -70.5t70 -188.5t-70 -189.5t-180 -71.5zM315 13q96 0 156.5 64.5t60.5 168.5q0 106 -61 168.5
t-160 62.5q-96 0 -157 -63t-61 -168q0 -104 61 -168.5t161 -64.5z" />
    <glyph glyph-name="oacute" unicode="&#xf3;" horiz-adv-x="625" 
d="M255 610l153 167q4 4 11 4q16 0 16 -16q0 -7 -5 -12l-158 -161q-4 -4 -9 -4q-12 0 -12 13q0 5 4 9zM313 -15q-110 0 -180.5 71.5t-70.5 189.5t70.5 188.5t180.5 70.5t180 -70.5t70 -188.5t-70 -189.5t-180 -71.5zM315 13q96 0 156.5 64.5t60.5 168.5q0 106 -61 168.5
t-160 62.5q-96 0 -157 -63t-61 -168q0 -104 61 -168.5t161 -64.5z" />
    <glyph glyph-name="ocircumflex" unicode="&#xf4;" horiz-adv-x="625" 
d="M168 575q-12 0 -12 12q0 5 7 14l92 110q31 36 44 46.5t24 10.5q16 0 79 -73l80 -96q6 -9 6 -13q0 -11 -13 -11q-5 0 -11 7l-141 154h-2l-143 -157q-4 -4 -10 -4zM313 -15q-110 0 -180.5 71.5t-70.5 189.5t70.5 188.5t180.5 70.5t180 -70.5t70 -188.5t-70 -189.5
t-180 -71.5zM315 13q96 0 156.5 64.5t60.5 168.5q0 106 -61 168.5t-160 62.5q-96 0 -157 -63t-61 -168q0 -104 61 -168.5t161 -64.5z" />
    <glyph glyph-name="otilde" unicode="&#xf5;" horiz-adv-x="625" 
d="M214 734q29 0 56 -17t43.5 -38t38 -38t41.5 -17q34 0 52 25t17 74q0 13 14 13q13 0 13 -13q0 -61 -25 -94t-68 -33q-26 0 -51.5 17t-42 38t-39.5 38t-45 17q-66 0 -66 -92q0 -13 -13 -13q-14 0 -14 13q0 51 21 85.5t68 34.5zM313 -15q-110 0 -180.5 71.5t-70.5 189.5
t70.5 188.5t180.5 70.5t180 -70.5t70 -188.5t-70 -189.5t-180 -71.5zM315 13q96 0 156.5 64.5t60.5 168.5q0 106 -61 168.5t-160 62.5q-96 0 -157 -63t-61 -168q0 -104 61 -168.5t161 -64.5z" />
    <glyph glyph-name="odieresis" unicode="&#xf6;" horiz-adv-x="625" 
d="M204 620q-18 0 -30 12t-12 30t12 29.5t30 11.5q19 0 30 -11t11 -30q0 -18 -11.5 -30t-29.5 -12zM422 620q-18 0 -30 12t-12 30t12 29.5t30 11.5q19 0 30 -11t11 -30q0 -18 -11.5 -30t-29.5 -12zM313 -15q-110 0 -180.5 71.5t-70.5 189.5t70.5 188.5t180.5 70.5t180 -70.5
t70 -188.5t-70 -189.5t-180 -71.5zM315 13q96 0 156.5 64.5t60.5 168.5q0 106 -61 168.5t-160 62.5q-96 0 -157 -63t-61 -168q0 -104 61 -168.5t161 -64.5z" />
    <glyph glyph-name="divide" unicode="&#xf7;" horiz-adv-x="595" 
d="M295 542q-16 0 -26.5 11t-10.5 29q0 17 10.5 27.5t26.5 10.5q17 0 28 -10.5t11 -27.5q0 -18 -11 -29t-28 -11zM487 348h-379q-14 0 -14 14t14 14h379q14 0 14 -14t-14 -14zM295 110q-16 0 -26.5 11t-10.5 29q0 17 10.5 27.5t26.5 10.5q17 0 28 -10.5t11 -27.5
q0 -18 -11 -29t-28 -11z" />
    <glyph glyph-name="oslash" unicode="&#xf8;" horiz-adv-x="642" 
d="M591 492q0 -7 -5 -12l-67 -67q51 -69 51 -167q0 -118 -70 -189.5t-180 -71.5q-103 0 -171 62l-57 -57q-8 -7 -17 -3.5t-9 12.5q0 7 5 12l58 57q-60 71 -60 178q0 118 70.5 188.5t180.5 70.5t179 -69l66 65q7 7 16.5 3.5t9.5 -12.5zM100 246q0 -94 50 -156l328 325
q-60 62 -160 62q-96 0 -157 -63t-61 -168zM539 246q0 87 -42 146l-326 -324q60 -55 151 -55q96 0 156.5 64.5t60.5 168.5z" />
    <glyph glyph-name="ugrave" unicode="&#xf9;" horiz-adv-x="631" 
d="M177 762l153 -167q4 -4 4 -9q0 -13 -12 -13q-5 0 -9 4l-158 161q-5 5 -5 12q0 16 16 16q7 0 11 -4zM298 -15q-205 0 -205 229v268q0 15 15 15t15 -15v-265q0 -204 176 -204q88 0 143 62t56 158l1 249q0 15 15 15t15 -15v-475q0 -14 -14 -14q-15 0 -15 14v112h-2
q-26 -64 -77.5 -99t-122.5 -35z" />
    <glyph glyph-name="uacute" unicode="&#xfa;" horiz-adv-x="631" 
d="M251 595l153 167q4 4 11 4q16 0 16 -16q0 -7 -5 -12l-158 -161q-4 -4 -9 -4q-12 0 -12 13q0 5 4 9zM298 -15q-205 0 -205 229v268q0 15 15 15t15 -15v-265q0 -204 176 -204q88 0 143 62t56 158l1 249q0 15 15 15t15 -15v-475q0 -14 -14 -14q-15 0 -15 14v112h-2
q-26 -64 -77.5 -99t-122.5 -35z" />
    <glyph glyph-name="ucircumflex" unicode="&#xfb;" horiz-adv-x="631" 
d="M164 560q-12 0 -12 12q0 5 7 14l92 110q31 36 44 46.5t24 10.5q16 0 79 -73l80 -96q6 -9 6 -13q0 -11 -13 -11q-5 0 -11 7l-141 154h-2l-143 -157q-4 -4 -10 -4zM298 -15q-205 0 -205 229v268q0 15 15 15t15 -15v-265q0 -204 176 -204q88 0 143 62t56 158l1 249
q0 15 15 15t15 -15v-475q0 -14 -14 -14q-15 0 -15 14v112h-2q-26 -64 -77.5 -99t-122.5 -35z" />
    <glyph glyph-name="udieresis" unicode="&#xfc;" horiz-adv-x="631" 
d="M200 605q-18 0 -30 12t-12 30t12 29.5t30 11.5q19 0 30 -11t11 -30q0 -18 -11.5 -30t-29.5 -12zM418 605q-18 0 -30 12t-12 30t12 29.5t30 11.5q19 0 30 -11t11 -30q0 -18 -11.5 -30t-29.5 -12zM298 -15q-205 0 -205 229v268q0 15 15 15t15 -15v-265q0 -204 176 -204
q88 0 143 62t56 158l1 249q0 15 15 15t15 -15v-475q0 -14 -14 -14q-15 0 -15 14v112h-2q-26 -64 -77.5 -99t-122.5 -35z" />
    <glyph glyph-name="yacute" unicode="&#xfd;" horiz-adv-x="536" 
d="M209 595l153 167q4 4 11 4q16 0 16 -16q0 -7 -5 -12l-158 -161q-4 -4 -9 -4q-12 0 -12 13q0 5 4 9zM100 -230q-17 0 -30 3q-11 3 -11 14q0 16 16 13q11 -2 25 -2q13 0 25 4t23 12.5t20 17t18.5 23.5t16 25.5t15 29t12.5 28t12 29t11 25.5l-208 484q-3 6 1.5 13.5
t13.5 7.5t15 -13l194 -450h2l194 454q5 9 14 9q8 0 12.5 -6.5t1.5 -14.5l-206 -485q-19 -45 -29.5 -68.5t-30 -58t-36 -51.5t-40.5 -30t-51 -13z" />
    <glyph glyph-name="thorn" unicode="&#xfe;" horiz-adv-x="639" 
d="M117 -215q-15 0 -15 16v938q0 16 15 16t15 -16v-352h2q64 119 207 119q106 0 171 -74.5t65 -186.5q0 -113 -65 -186.5t-169 -73.5q-77 0 -129.5 34.5t-79.5 84.5h-2v-303q0 -16 -15 -16zM342 478q-99 0 -156 -61.5t-56 -171.5q-1 -109 56.5 -170.5t155.5 -61.5
q90 0 147 64.5t57 167.5q0 101 -55.5 167t-148.5 66z" />
    <glyph glyph-name="ydieresis" unicode="&#xff;" horiz-adv-x="536" 
d="M158 605q-18 0 -30 12t-12 30t12 29.5t30 11.5q19 0 30 -11t11 -30q0 -18 -11.5 -30t-29.5 -12zM376 605q-18 0 -30 12t-12 30t12 29.5t30 11.5q19 0 30 -11t11 -30q0 -18 -11.5 -30t-29.5 -12zM100 -230q-17 0 -30 3q-11 3 -11 14q0 16 16 13q11 -2 25 -2q13 0 25 4
t23 12.5t20 17t18.5 23.5t16 25.5t15 29t12.5 28t12 29t11 25.5l-208 484q-3 6 1.5 13.5t13.5 7.5t15 -13l194 -450h2l194 454q5 9 14 9q8 0 12.5 -6.5t1.5 -14.5l-206 -485q-19 -45 -29.5 -68.5t-30 -58t-36 -51.5t-40.5 -30t-51 -13z" />
    <glyph glyph-name="Amacron" unicode="&#x100;" horiz-adv-x="706" 
d="M194 862q-5 0 -9.5 4t-4.5 10t4.5 10t9.5 4h317q5 0 9.5 -4t4.5 -10t-4.5 -10t-9.5 -4h-317zM668 14q4 -7 0 -14t-14 -7t-14 9l-97 236h-380l-97 -236q-4 -9 -14 -9t-14 6.5t0 14.5l285 689q7 15 13 20t17 5q14 0 20 -6t13 -25zM174 266h358l-178 433h-2z" />
    <glyph glyph-name="amacron" unicode="&#x101;" horiz-adv-x="566" 
d="M426 647h-317q-5 0 -9.5 4t-4.5 10t4.5 10t9.5 4h317q5 0 9.5 -4t4.5 -10t-4.5 -10t-9.5 -4zM213 -15q-80 0 -124.5 38t-44.5 107q0 73 55.5 114t138.5 41q100 0 196 -56q0 123 -37 185.5t-141 62.5q-76 0 -137 -24q-6 -2 -9 -2q-13 0 -13 14q0 10 13 15q64 25 148 25
q116 0 161 -70.5t45 -206.5v-106q0 -54 8.5 -75.5t43.5 -34.5q10 -3 10 -13q0 -7 -5.5 -11.5t-14.5 -2.5q-43 10 -57.5 42t-14.5 89h-2q-75 -131 -219 -131zM214 13q90 0 151.5 58t68.5 128q-96 58 -196 58q-72 0 -117.5 -33.5t-45.5 -92.5q0 -58 37 -88t102 -30z" />
    <glyph glyph-name="Abreve" unicode="&#x102;" horiz-adv-x="706" 
d="M353 801q-70 0 -113.5 44t-48.5 118q0 5 4 9.5t10 4.5q13 0 13 -12q4 -64 40 -99t95 -35q58 0 93.5 35t39.5 99q0 12 13 12q6 0 10 -4.5t4 -9.5q-5 -74 -48 -118t-112 -44zM668 14q4 -7 0 -14t-14 -7t-14 9l-97 236h-380l-97 -236q-4 -9 -14 -9t-14 6.5t0 14.5l285 689
q7 15 13 20t17 5q14 0 20 -6t13 -25zM174 266h358l-178 433h-2z" />
    <glyph glyph-name="abreve" unicode="&#x103;" horiz-adv-x="566" 
d="M268 616q58 0 93.5 35t39.5 99q0 12 13 12q6 0 10 -4.5t4 -9.5q-5 -74 -48 -118t-112 -44q-70 0 -113.5 44t-48.5 118q0 5 4 9.5t10 4.5q13 0 13 -12q4 -64 40 -99t95 -35zM213 -15q-80 0 -124.5 38t-44.5 107q0 73 55.5 114t138.5 41q100 0 196 -56q0 123 -37 185.5
t-141 62.5q-76 0 -137 -24q-6 -2 -9 -2q-13 0 -13 14q0 10 13 15q64 25 148 25q116 0 161 -70.5t45 -206.5v-106q0 -54 8.5 -75.5t43.5 -34.5q10 -3 10 -13q0 -7 -5.5 -11.5t-14.5 -2.5q-43 10 -57.5 42t-14.5 89h-2q-75 -131 -219 -131zM214 13q90 0 151.5 58t68.5 128
q-96 58 -196 58q-72 0 -117.5 -33.5t-45.5 -92.5q0 -58 37 -88t102 -30z" />
    <glyph glyph-name="Aogonek" unicode="&#x104;" horiz-adv-x="706" 
d="M671 -215q15 2 15 -14q0 -7 -9 -12q-11 -4 -33 -4q-48 0 -79 29.5t-31 75.5q0 90 102 152l-93 226h-380l-97 -236q-4 -9 -14 -9t-14 6.5t0 14.5l285 689q7 15 13 20t17 5q14 0 20 -6t13 -25l282 -683q8 -17 -9 -20q-97 -52 -97 -132q0 -37 22.5 -58t59.5 -21q9 0 27 2z
M174 266h358l-178 433h-2z" />
    <glyph glyph-name="aogonek" unicode="&#x105;" horiz-adv-x="566" 
d="M527 -224q15 2 15 -14q0 -8 -9 -12q-11 -4 -33 -4q-48 0 -79 29.5t-31 75.5q0 83 90 144q-46 25 -46 121h-2q-75 -131 -219 -131q-80 0 -124.5 38t-44.5 107q0 73 55.5 114t138.5 41q100 0 196 -56q0 123 -37 185.5t-141 62.5q-76 0 -137 -24q-6 -2 -9 -2q-13 0 -13 14
q0 10 13 15q64 25 148 25q116 0 161 -70.5t45 -206.5v-106q0 -54 8.5 -75.5t43.5 -34.5q10 -3 10 -13q0 -11 -10 -14q-36 -18 -67 -51t-31 -81q0 -37 22.5 -58t59.5 -21q9 0 27 2zM214 13q90 0 151.5 58t68.5 128q-96 58 -196 58q-72 0 -117.5 -33.5t-45.5 -92.5
q0 -58 37 -88t102 -30z" />
    <glyph glyph-name="Cacute" unicode="&#x106;" horiz-adv-x="645" 
d="M338 840l153 167q4 4 11 4q16 0 16 -16q0 -7 -5 -12l-158 -161q-4 -4 -9 -4q-12 0 -12 13q0 5 4 9zM436 -15q-162 0 -265.5 101t-103.5 276q0 169 104.5 271t264.5 102q96 0 162 -43q8 -5 8 -12q0 -8 -6.5 -12t-12.5 0q-61 39 -151 39q-150 0 -244 -95t-94 -250
q0 -161 93.5 -255t244.5 -94q85 0 151 36q6 3 12 -1t6 -13q0 -7 -8 -12q-67 -38 -161 -38z" />
    <glyph glyph-name="cacute" unicode="&#x107;" horiz-adv-x="519" 
d="M244 610l153 167q4 4 11 4q16 0 16 -16q0 -7 -5 -12l-158 -161q-4 -4 -9 -4q-12 0 -12 13q0 5 4 9zM318 -15q-117 0 -186.5 71.5t-69.5 189.5q0 117 68 188.5t179 71.5q93 0 151 -48q7 -6 7 -13q0 -13 -15 -13q-6 0 -22.5 11.5t-47.5 23t-73 11.5q-95 0 -155.5 -64
t-60.5 -168q0 -105 60 -169t165 -64q42 0 73 11.5t47.5 23t22.5 11.5q15 0 15 -13q0 -7 -7 -13q-58 -48 -151 -48z" />
    <glyph glyph-name="Cdotaccent" unicode="&#x10a;" horiz-adv-x="645" 
d="M396 850q-18 0 -30 12t-12 30t12 29.5t30 11.5q19 0 30 -11t11 -30q0 -18 -11.5 -30t-29.5 -12zM436 -15q-162 0 -265.5 101t-103.5 276q0 169 104.5 271t264.5 102q96 0 162 -43q8 -5 8 -12q0 -8 -6.5 -12t-12.5 0q-61 39 -151 39q-150 0 -244 -95t-94 -250
q0 -161 93.5 -255t244.5 -94q85 0 151 36q6 3 12 -1t6 -13q0 -7 -8 -12q-67 -38 -161 -38z" />
    <glyph glyph-name="cdotaccent" unicode="&#x10b;" horiz-adv-x="519" 
d="M302 620q-18 0 -30 12t-12 30t12 29.5t30 11.5q19 0 30 -11t11 -30q0 -18 -11.5 -30t-29.5 -12zM318 -15q-117 0 -186.5 71.5t-69.5 189.5q0 117 68 188.5t179 71.5q93 0 151 -48q7 -6 7 -13q0 -13 -15 -13q-6 0 -22.5 11.5t-47.5 23t-73 11.5q-95 0 -155.5 -64
t-60.5 -168q0 -105 60 -169t165 -64q42 0 73 11.5t47.5 23t22.5 11.5q15 0 15 -13q0 -7 -7 -13q-58 -48 -151 -48z" />
    <glyph glyph-name="Ccaron" unicode="&#x10c;" horiz-adv-x="645" 
d="M404 804q-16 0 -79 73l-80 96q-6 9 -6 13q0 11 13 11q5 0 11 -7l141 -154h2l143 157q4 4 10 4q12 0 12 -12q0 -5 -7 -14l-92 -110q-31 -36 -44 -46.5t-24 -10.5zM436 -15q-162 0 -265.5 101t-103.5 276q0 169 104.5 271t264.5 102q96 0 162 -43q8 -5 8 -12q0 -8 -6.5 -12
t-12.5 0q-61 39 -151 39q-150 0 -244 -95t-94 -250q0 -161 93.5 -255t244.5 -94q85 0 151 36q6 3 12 -1t6 -13q0 -7 -8 -12q-67 -38 -161 -38z" />
    <glyph glyph-name="ccaron" unicode="&#x10d;" horiz-adv-x="519" 
d="M310 574q-16 0 -79 73l-80 96q-6 9 -6 13q0 11 13 11q5 0 11 -7l141 -154h2l143 157q4 4 10 4q12 0 12 -12q0 -5 -7 -14l-92 -110q-31 -36 -44 -46.5t-24 -10.5zM318 -15q-117 0 -186.5 71.5t-69.5 189.5q0 117 68 188.5t179 71.5q93 0 151 -48q7 -6 7 -13q0 -13 -15 -13
q-6 0 -22.5 11.5t-47.5 23t-73 11.5q-95 0 -155.5 -64t-60.5 -168q0 -105 60 -169t165 -64q42 0 73 11.5t47.5 23t22.5 11.5q15 0 15 -13q0 -7 -7 -13q-58 -48 -151 -48z" />
    <glyph glyph-name="Dcaron" unicode="&#x10e;" horiz-adv-x="798" 
d="M371 789q-16 0 -79 73l-80 96q-6 9 -6 13q0 11 13 11q5 0 11 -7l141 -154h2l143 157q4 4 10 4q12 0 12 -12q0 -5 -7 -14l-92 -110q-31 -36 -44 -46.5t-24 -10.5zM353 -7h-219q-15 0 -15 15v705q0 15 15 15h219q181 0 279 -97t98 -271q0 -168 -98.5 -267t-278.5 -100z
M149 700v-679h204q162 0 254.5 91t92.5 248q0 158 -90 249t-257 91h-204z" />
    <glyph glyph-name="dcaron" unicode="&#x10f;" horiz-adv-x="650" 
d="M298 -15q-106 0 -171 74t-65 186q0 113 65 187t169 74q76 0 128.5 -37t80.5 -89h2v360q0 15 15 15t15 -15v-618q0 -54 8.5 -75t43.5 -34q10 -3 10 -13q0 -7 -5.5 -11.5t-14.5 -2.5q-41 10 -56.5 40t-15.5 95h-2q-31 -65 -86 -100.5t-121 -35.5zM628 543q-5 0 -9 4.5
t-3 9.5q17 88 19 183q0 6 4.5 10.5t10.5 4.5q7 0 11.5 -4.5t4.5 -10.5q0 -105 -26 -189q-2 -8 -12 -8zM300 13q93 0 150.5 68t58.5 171q0 100 -58.5 163t-153.5 63q-90 0 -147 -65t-57 -168q0 -101 56.5 -166.5t150.5 -65.5z" />
    <glyph glyph-name="Dcroat" unicode="&#x110;" horiz-adv-x="804" 
d="M359 728q181 0 279 -97t98 -271q0 -168 -98.5 -267t-278.5 -100h-219q-15 0 -15 15v338h-60q-14 0 -14 14t14 14h60v339q0 15 15 15h219zM359 21q162 0 254.5 91t92.5 248q0 158 -90 249t-257 91h-204v-326h204q14 0 14 -14t-14 -14h-204v-325h204z" />
    <glyph glyph-name="dcroat" unicode="&#x111;" horiz-adv-x="650" 
d="M624 645q14 0 14 -14t-14 -14h-87v-495q0 -54 8.5 -75t43.5 -34q10 -3 10 -13q0 -7 -5.5 -11.5t-14.5 -2.5q-41 10 -56.5 40t-15.5 95h-2q-31 -65 -86 -100.5t-121 -35.5q-106 0 -171 74t-65 186q0 113 65 187t169 74q76 0 128.5 -37t80.5 -89h2v237h-136q-14 0 -14 14
t14 14h136v95q0 15 15 15t15 -15v-95h87zM300 13q93 0 150.5 68t58.5 171q0 100 -58.5 163t-153.5 63q-90 0 -147 -65t-57 -168q0 -101 56.5 -166.5t150.5 -65.5z" />
    <glyph glyph-name="Emacron" unicode="&#x112;" horiz-adv-x="585" 
d="M485 862h-317q-5 0 -9.5 4t-4.5 10t4.5 10t9.5 4h317q5 0 9.5 -4t4.5 -10t-4.5 -10t-9.5 -4zM516 -7h-382q-15 0 -15 15v705q0 15 15 15h382q14 0 14 -14t-14 -14h-367v-326h327q14 0 14 -14t-14 -14h-327v-325h367q14 0 14 -14t-14 -14z" />
    <glyph glyph-name="emacron" unicode="&#x113;" horiz-adv-x="574" 
d="M454 647h-317q-5 0 -9.5 4t-4.5 10t4.5 10t9.5 4h317q5 0 9.5 -4t4.5 -10t-4.5 -10t-9.5 -4zM319 -15q-120 0 -188 69.5t-68 193.5q0 117 65.5 187.5t167.5 70.5q107 0 164 -59t57 -163q0 -25 -4 -35.5t-18 -10.5h-402q0 -105 60.5 -165t165.5 -60q43 0 77 10.5
t52.5 20.5t24.5 10q15 0 15 -13q0 -7 -7 -13q-20 -16 -66 -29.5t-96 -13.5zM93 266h392q1 7 1 27q0 87 -50 136t-140 49q-89 0 -146 -62t-57 -150z" />
    <glyph glyph-name="Edotaccent" unicode="&#x116;" horiz-adv-x="585" 
d="M327 835q-18 0 -30 12t-12 30t12 29.5t30 11.5q19 0 30 -11t11 -30q0 -18 -11.5 -30t-29.5 -12zM516 -7h-382q-15 0 -15 15v705q0 15 15 15h382q14 0 14 -14t-14 -14h-367v-326h327q14 0 14 -14t-14 -14h-327v-325h367q14 0 14 -14t-14 -14z" />
    <glyph glyph-name="edotaccent" unicode="&#x117;" horiz-adv-x="574" 
d="M296 620q-18 0 -30 12t-12 30t12 29.5t30 11.5q19 0 30 -11t11 -30q0 -18 -11.5 -30t-29.5 -12zM319 -15q-120 0 -188 69.5t-68 193.5q0 117 65.5 187.5t167.5 70.5q107 0 164 -59t57 -163q0 -25 -4 -35.5t-18 -10.5h-402q0 -105 60.5 -165t165.5 -60q43 0 77 10.5
t52.5 20.5t24.5 10q15 0 15 -13q0 -7 -7 -13q-20 -16 -66 -29.5t-96 -13.5zM93 266h392q1 7 1 27q0 87 -50 136t-140 49q-89 0 -146 -62t-57 -150z" />
    <glyph glyph-name="Eogonek" unicode="&#x118;" horiz-adv-x="585" 
d="M530 -216q15 2 15 -14q0 -8 -9 -12q-11 -4 -33 -4q-48 0 -79 29.5t-31 75.5q0 75 76 134h-335q-15 0 -15 15v705q0 15 15 15h382q14 0 14 -14t-14 -14h-367v-326h327q14 0 14 -14t-14 -14h-327v-325h367q14 0 14 -14q0 -11 -10 -13q-99 -51 -99 -133q0 -37 22.5 -58
t59.5 -21q9 0 27 2z" />
    <glyph glyph-name="eogonek" unicode="&#x119;" horiz-adv-x="574" 
d="M296 506q107 0 164 -59t57 -163q0 -25 -4 -35.5t-18 -10.5h-402q0 -105 60.5 -165t165.5 -60q43 0 77 10.5t52.5 20.5t24.5 10q15 0 15 -13q0 -7 -7 -13q-16 -13 -51 -25q-87 -49 -87 -126q0 -37 22.5 -58t59.5 -21q9 0 27 2q15 2 15 -14q0 -8 -9 -12q-11 -4 -33 -4
q-48 0 -79 29.5t-31 75.5q0 63 52 113q-23 -3 -48 -3q-120 0 -188 69.5t-68 193.5q0 117 65.5 187.5t167.5 70.5zM485 266q1 7 1 27q0 87 -50 136t-140 49q-89 0 -146 -62t-57 -150h392z" />
    <glyph glyph-name="Ecaron" unicode="&#x11a;" horiz-adv-x="585" 
d="M335 789q-16 0 -79 73l-80 96q-6 9 -6 13q0 11 13 11q5 0 11 -7l141 -154h2l143 157q4 4 10 4q12 0 12 -12q0 -5 -7 -14l-92 -110q-31 -36 -44 -46.5t-24 -10.5zM516 -7h-382q-15 0 -15 15v705q0 15 15 15h382q14 0 14 -14t-14 -14h-367v-326h327q14 0 14 -14t-14 -14
h-327v-325h367q14 0 14 -14t-14 -14z" />
    <glyph glyph-name="ecaron" unicode="&#x11b;" horiz-adv-x="574" 
d="M304 574q-16 0 -79 73l-80 96q-6 9 -6 13q0 11 13 11q5 0 11 -7l141 -154h2l143 157q4 4 10 4q12 0 12 -12q0 -5 -7 -14l-92 -110q-31 -36 -44 -46.5t-24 -10.5zM319 -15q-120 0 -188 69.5t-68 193.5q0 117 65.5 187.5t167.5 70.5q107 0 164 -59t57 -163q0 -25 -4 -35.5
t-18 -10.5h-402q0 -105 60.5 -165t165.5 -60q43 0 77 10.5t52.5 20.5t24.5 10q15 0 15 -13q0 -7 -7 -13q-20 -16 -66 -29.5t-96 -13.5zM93 266h392q1 7 1 27q0 87 -50 136t-140 49q-89 0 -146 -62t-57 -150z" />
    <glyph glyph-name="Gbreve" unicode="&#x11e;" horiz-adv-x="737" 
d="M432 846q58 0 93.5 35t39.5 99q0 12 13 12q6 0 10 -4.5t4 -9.5q-5 -74 -48 -118t-112 -44q-70 0 -113.5 44t-48.5 118q0 5 4 9.5t10 4.5q13 0 13 -12q4 -64 40 -99t95 -35zM439 -15q-166 0 -269 102.5t-103 275.5q0 168 103.5 270.5t265.5 102.5q121 0 199 -43
q8 -5 8 -12q0 -8 -6.5 -11.5t-12.5 -0.5q-73 39 -186 39q-151 0 -246 -93.5t-95 -251.5q0 -160 94 -255t249 -95q107 0 190 41v304q0 15 15 15t15 -15v-312q0 -14 -12 -18q-96 -43 -209 -43z" />
    <glyph glyph-name="gbreve" unicode="&#x11f;" horiz-adv-x="639" 
d="M302 601q58 0 93.5 35t39.5 99q0 12 13 12q6 0 10 -4.5t4 -9.5q-5 -74 -48 -118t-112 -44q-70 0 -113.5 44t-48.5 118q0 5 4 9.5t10 4.5q13 0 13 -12q4 -64 40 -99t95 -35zM285 -230q-103 0 -161 48q-7 6 -7 13q0 13 15 13q6 0 23 -11.5t50.5 -23t79.5 -11.5
q222 0 222 275v30h-2q-27 -50 -79.5 -84t-129.5 -34q-104 0 -169 73.5t-65 186.5q0 112 65 186.5t171 74.5q67 0 123.5 -36t86.5 -101h2v114q0 14 13 14q14 0 14 -14v-410q0 -303 -252 -303zM297 13q96 0 154.5 61.5t58.5 163.5q-1 103 -59 171.5t-151 68.5
q-94 0 -150.5 -66t-56.5 -167q0 -103 57 -167.5t147 -64.5z" />
    <glyph glyph-name="Gdotaccent" unicode="&#x120;" horiz-adv-x="737" 
d="M432 850q-18 0 -30 12t-12 30t12 29.5t30 11.5q19 0 30 -11t11 -30q0 -18 -11.5 -30t-29.5 -12zM439 -15q-166 0 -269 102.5t-103 275.5q0 168 103.5 270.5t265.5 102.5q121 0 199 -43q8 -5 8 -12q0 -8 -6.5 -11.5t-12.5 -0.5q-73 39 -186 39q-151 0 -246 -93.5
t-95 -251.5q0 -160 94 -255t249 -95q107 0 190 41v304q0 15 15 15t15 -15v-312q0 -14 -12 -18q-96 -43 -209 -43z" />
    <glyph glyph-name="gdotaccent" unicode="&#x121;" horiz-adv-x="639" 
d="M302 605q-18 0 -30 12t-12 30t12 29.5t30 11.5q19 0 30 -11t11 -30q0 -18 -11.5 -30t-29.5 -12zM285 -230q-103 0 -161 48q-7 6 -7 13q0 13 15 13q6 0 23 -11.5t50.5 -23t79.5 -11.5q222 0 222 275v30h-2q-27 -50 -79.5 -84t-129.5 -34q-104 0 -169 73.5t-65 186.5
q0 112 65 186.5t171 74.5q67 0 123.5 -36t86.5 -101h2v114q0 14 13 14q14 0 14 -14v-410q0 -303 -252 -303zM297 13q96 0 154.5 61.5t58.5 163.5q-1 103 -59 171.5t-151 68.5q-94 0 -150.5 -66t-56.5 -167q0 -103 57 -167.5t147 -64.5z" />
    <glyph glyph-name="uni0122" unicode="&#x122;" horiz-adv-x="737" 
d="M439 -15q-166 0 -269 102.5t-103 275.5q0 168 103.5 270.5t265.5 102.5q121 0 199 -43q8 -5 8 -12q0 -8 -6.5 -11.5t-12.5 -0.5q-73 39 -186 39q-151 0 -246 -93.5t-95 -251.5q0 -160 94 -255t249 -95q107 0 190 41v304q0 15 15 15t15 -15v-312q0 -14 -12 -18
q-96 -43 -209 -43zM417 -262q-5 0 -9 4.5t-3 9.5q17 88 19 183q0 6 4.5 10.5t10.5 4.5q7 0 11.5 -4.5t4.5 -10.5q0 -105 -26 -189q-2 -8 -12 -8z" />
    <glyph glyph-name="uni0123" unicode="&#x123;" horiz-adv-x="639" 
d="M324 746q5 0 9 -4.5t3 -9.5q-17 -88 -19 -183q0 -6 -4.5 -10.5t-10.5 -4.5q-7 0 -11.5 4.5t-4.5 10.5q0 105 26 189q2 8 12 8zM285 -230q-103 0 -161 48q-7 6 -7 13q0 13 15 13q6 0 23 -11.5t50.5 -23t79.5 -11.5q222 0 222 275v30h-2q-27 -50 -79.5 -84t-129.5 -34
q-104 0 -169 73.5t-65 186.5q0 112 65 186.5t171 74.5q67 0 123.5 -36t86.5 -101h2v114q0 14 13 14q14 0 14 -14v-410q0 -303 -252 -303zM297 13q96 0 154.5 61.5t58.5 163.5q-1 103 -59 171.5t-151 68.5q-94 0 -150.5 -66t-56.5 -167q0 -103 57 -167.5t147 -64.5z" />
    <glyph glyph-name="Hbar" unicode="&#x126;" horiz-adv-x="813" 
d="M734 598q5 0 9.5 -4t4.5 -10t-4.5 -10t-9.5 -4h-40v-562q0 -15 -15 -15t-15 15v338h-515v-338q0 -15 -15 -15t-15 15v562h-40q-5 0 -9.5 4t-4.5 10t4.5 10t9.5 4h40v115q0 15 15 15t15 -15v-115h515v115q0 15 15 15t15 -15v-115h40zM664 374v196h-515v-196h515z" />
    <glyph glyph-name="hbar" unicode="&#x127;" horiz-adv-x="631" 
d="M343 506q105 0 150 -59.5t45 -170.5v-268q0 -15 -15 -15t-15 15v265q0 100 -38 152.5t-128 52.5t-149.5 -57t-59.5 -148l-1 -265q0 -15 -15 -15t-15 15v609h-84q-14 0 -14 14t14 14h84v95q0 15 15 15t15 -15v-95h139q14 0 14 -14t-14 -14h-139v-233h2q27 51 79.5 86.5
t129.5 35.5z" />
    <glyph glyph-name="Itilde" unicode="&#x128;" horiz-adv-x="268" 
d="M35 949q29 0 56 -17t43.5 -38t38 -38t41.5 -17q70 0 69 99q0 13 14 13q13 0 13 -13q0 -61 -25 -94t-68 -33q-26 0 -51.5 17t-42 38t-39.5 38t-45 17q-66 0 -66 -92q0 -13 -13 -13q-14 0 -14 13q0 51 21 85.5t68 34.5zM134 -7q-15 0 -15 15v705q0 15 15 15t15 -15v-705
q0 -15 -15 -15z" />
    <glyph glyph-name="itilde" unicode="&#x129;" horiz-adv-x="242" 
d="M22 749q29 0 56 -17t43.5 -38t38 -38t41.5 -17q34 0 52 25t17 74q0 13 14 13q13 0 13 -13q0 -61 -25 -94t-68 -33q-26 0 -51.5 17t-42 38t-39.5 38t-45 17q-66 0 -66 -92q0 -13 -13 -13q-14 0 -14 13q0 51 21 85.5t68 34.5zM121 -7q-15 0 -15 15v474q0 15 15 15t15 -15
v-474q0 -15 -15 -15z" />
    <glyph glyph-name="Imacron" unicode="&#x12a;" horiz-adv-x="268" 
d="M292 862h-317q-5 0 -9.5 4t-4.5 10t4.5 10t9.5 4h317q5 0 9.5 -4t4.5 -10t-4.5 -10t-9.5 -4zM134 -7q-15 0 -15 15v705q0 15 15 15t15 -15v-705q0 -15 -15 -15z" />
    <glyph glyph-name="imacron" unicode="&#x12b;" horiz-adv-x="242" 
d="M279 662h-317q-5 0 -9.5 4t-4.5 10t4.5 10t9.5 4h317q5 0 9.5 -4t4.5 -10t-4.5 -10t-9.5 -4zM121 -7q-15 0 -15 15v474q0 15 15 15t15 -15v-474q0 -15 -15 -15z" />
    <glyph glyph-name="Iogonek" unicode="&#x12e;" horiz-adv-x="270" 
d="M151 -216q15 2 15 -14q0 -8 -9 -12q-11 -4 -33 -4q-48 0 -79 29.5t-31 75.5q0 94 107 155v699q0 15 15 15t15 -15v-705q0 -11 -9 -14q-21 -10 -40.5 -24.5t-39.5 -44.5t-20 -64q0 -37 22.5 -58t59.5 -21q9 0 27 2z" />
    <glyph glyph-name="iogonek" unicode="&#x12f;" horiz-adv-x="243" 
d="M122 635q-18 0 -30 12t-12 30t12 29.5t30 11.5q19 0 30 -11t11 -30q0 -18 -11.5 -30t-29.5 -12zM137 -216q15 2 15 -14q0 -8 -9 -12q-11 -4 -33 -4q-48 0 -79 29.5t-31 75.5q0 94 107 155v468q0 15 15 15t15 -15v-474q0 -11 -9 -14q-21 -10 -40.5 -24.5t-39.5 -44.5
t-20 -64q0 -37 22.5 -58t59.5 -21q9 0 27 2z" />
    <glyph glyph-name="Idotaccent" unicode="&#x130;" horiz-adv-x="268" 
d="M134 835q-18 0 -30 12t-12 30t12 29.5t30 11.5q19 0 30 -11t11 -30q0 -18 -11.5 -30t-29.5 -12zM134 -7q-15 0 -15 15v705q0 15 15 15t15 -15v-705q0 -15 -15 -15z" />
    <glyph glyph-name="dotlessi" unicode="&#x131;" horiz-adv-x="242" 
d="M121 -7q-15 0 -15 15v474q0 15 15 15t15 -15v-474q0 -15 -15 -15z" />
    <glyph glyph-name="IJ" unicode="&#x132;" horiz-adv-x="704" 
d="M134 -7q-15 0 -15 15v705q0 15 15 15t15 -15v-705q0 -15 -15 -15zM406 -15q-60 0 -98 27q-8 5 -8 15q0 13 14 13q4 0 30 -13.5t62 -13.5q157 0 157 211v481q0 6 4.5 10.5t10.5 4.5t10.5 -4.5t4.5 -10.5v-481q0 -106 -44 -172.5t-143 -66.5z" />
    <glyph glyph-name="ij" unicode="&#x133;" horiz-adv-x="480" 
d="M121 635q-18 0 -30 12t-12 30t12 29.5t30 11.5q19 0 30 -11t11 -30q0 -18 -11.5 -30t-29.5 -12zM360 635q-18 0 -30 12t-12 30t12 29.5t30 11.5q19 0 30 -11t11 -30q0 -18 -11.5 -30t-29.5 -12zM121 -7q-15 0 -15 15v474q0 15 15 15t15 -15v-474q0 -15 -15 -15zM235 -230
q-60 0 -98 27q-8 5 -8 15q0 13 14 13q4 0 30 -13.5t62 -13.5q20 0 36.5 5t27.5 14t19 21.5t13 28t8 33t3.5 36t1.5 38t0 38.5v21v449q0 15 15 15t15 -15v-477v-45t-2.5 -44.5t-7.5 -46t-15 -37.5t-24.5 -33.5t-37.5 -20t-52 -8.5z" />
    <glyph glyph-name="uni0136" unicode="&#x136;" horiz-adv-x="701" 
d="M134 -7q-15 0 -15 15v705q0 15 15 15t15 -15v-335h227l251 344q5 6 11 6t10.5 -4.5t4.5 -9.5q0 -4 -3 -9l-249 -341l271 -346q5 -8 5 -12q0 -13 -15 -13q-7 0 -13 8l-275 349h-225v-342q0 -15 -15 -15zM333 -256q-5 0 -9 4.5t-3 9.5q17 88 19 183q0 6 4.5 10.5t10.5 4.5
q7 0 11.5 -4.5t4.5 -10.5q0 -105 -26 -189q-2 -8 -12 -8z" />
    <glyph glyph-name="uni0137" unicode="&#x137;" horiz-adv-x="530" 
d="M117 -7q-15 0 -15 15v732q0 15 15 15t15 -15v-458h146l180 208q7 7 12 7q14 0 14 -13q0 -5 -3 -9l-179 -209l186 -246q6 -9 6 -14q0 -13 -14 -13q-7 0 -14 8l-191 253h-143v-246q0 -15 -15 -15zM253 -256q-5 0 -9 4.5t-3 9.5q17 88 19 183q0 6 4.5 10.5t10.5 4.5
q7 0 11.5 -4.5t4.5 -10.5q0 -105 -26 -189q-2 -8 -12 -8z" />
    <glyph glyph-name="kgreenlandic" unicode="&#x138;" horiz-adv-x="530" 
d="M117 -7q-15 0 -15 15v474q0 15 15 15t15 -15v-200h146l180 208q7 7 12 7q14 0 14 -13q0 -5 -3 -9l-179 -209l186 -246q6 -9 6 -14q0 -13 -14 -13q-7 0 -14 8l-191 253h-143v-246q0 -15 -15 -15z" />
    <glyph glyph-name="Lacute" unicode="&#x139;" horiz-adv-x="559" 
d="M75 825l153 167q4 4 11 4q16 0 16 -16q0 -7 -5 -12l-158 -161q-4 -4 -9 -4q-12 0 -12 13q0 5 4 9zM506 -7h-372q-15 0 -15 15v705q0 15 15 15t15 -15v-692h357q14 0 14 -14t-14 -14z" />
    <glyph glyph-name="lacute" unicode="&#x13a;" horiz-adv-x="242" 
d="M63 860l153 167q4 4 11 4q16 0 16 -16q0 -7 -5 -12l-158 -161q-4 -4 -9 -4q-12 0 -12 13q0 5 4 9zM121 -7q-15 0 -15 15v732q0 15 15 15t15 -15v-732q0 -15 -15 -15z" />
    <glyph glyph-name="uni013B" unicode="&#x13b;" horiz-adv-x="559" 
d="M506 -7h-372q-15 0 -15 15v705q0 15 15 15t15 -15v-692h357q14 0 14 -14t-14 -14zM300 -256q-5 0 -9 4.5t-3 9.5q17 88 19 183q0 6 4.5 10.5t10.5 4.5q7 0 11.5 -4.5t4.5 -10.5q0 -105 -26 -189q-2 -8 -12 -8z" />
    <glyph glyph-name="uni013C" unicode="&#x13c;" horiz-adv-x="242" 
d="M121 -7q-15 0 -15 15v732q0 15 15 15t15 -15v-732q0 -15 -15 -15zM99 -256q-5 0 -9 4.5t-3 9.5q17 88 19 183q0 6 4.5 10.5t10.5 4.5q7 0 11.5 -4.5t4.5 -10.5q0 -105 -26 -189q-2 -8 -12 -8z" />
    <glyph glyph-name="Lcaron" unicode="&#x13d;" horiz-adv-x="566" 
d="M506 -7h-372q-15 0 -15 15v705q0 15 15 15t15 -15v-692h357q14 0 14 -14t-14 -14zM443 516q-5 0 -9 4.5t-3 9.5q17 88 19 183q0 6 4.5 10.5t10.5 4.5q7 0 11.5 -4.5t4.5 -10.5q0 -105 -26 -189q-2 -8 -12 -8z" />
    <glyph glyph-name="lcaron" unicode="&#x13e;" horiz-adv-x="242" 
d="M121 -7q-15 0 -15 15v732q0 15 15 15t15 -15v-732q0 -15 -15 -15zM218 543q-5 0 -9 4.5t-3 9.5q17 88 19 183q0 6 4.5 10.5t10.5 4.5q7 0 11.5 -4.5t4.5 -10.5q0 -105 -26 -189q-2 -8 -12 -8z" />
    <glyph glyph-name="Ldot" unicode="&#x13f;" horiz-adv-x="563" 
d="M506 -7h-372q-15 0 -15 15v705q0 15 15 15t15 -15v-692h357q14 0 14 -14t-14 -14zM417 332q-18 0 -30 12t-12 30t12 29.5t30 11.5q19 0 30 -11t11 -30q0 -18 -11.5 -30t-29.5 -12z" />
    <glyph glyph-name="ldot" unicode="&#x140;" horiz-adv-x="242" 
d="M121 -7q-15 0 -15 15v732q0 15 15 15t15 -15v-732q0 -15 -15 -15zM231 336q-18 0 -30 12t-12 30t12 29.5t30 11.5q19 0 30 -11t11 -30q0 -18 -11.5 -30t-29.5 -12z" />
    <glyph glyph-name="Lslash" unicode="&#x141;" horiz-adv-x="602" 
d="M548 21q14 0 14 -14t-14 -14h-372q-15 0 -15 15v320l-113 -48q-4 -2 -7 -2q-6 0 -9.5 5.5t-3.5 10.5q0 8 8 12l125 54v353q0 15 15 15t15 -15v-340l179 77q4 2 7 2q6 0 10 -5.5t4 -10.5q0 -10 -9 -14l-191 -81v-320h357z" />
    <glyph glyph-name="lslash" unicode="&#x142;" horiz-adv-x="318" 
d="M275 453q13 0 13 -16q0 -8 -8 -12l-104 -51v-366q0 -15 -15 -15t-15 15v351l-93 -45q-6 -2 -7 -2q-14 0 -14 16q0 7 8 12l106 52v348q0 15 15 15t15 -15v-333l91 44q6 2 8 2z" />
    <glyph glyph-name="Nacute" unicode="&#x143;" horiz-adv-x="815" 
d="M365 825l153 167q4 4 11 4q16 0 16 -16q0 -7 -5 -12l-158 -161q-4 -4 -9 -4q-12 0 -12 13q0 5 4 9zM134 -7q-15 0 -15 15v699q0 21 22 21q11 0 28 -21l495 -669h2v675q0 15 15 15t15 -15v-699q0 -21 -22 -21q-12 0 -28 21l-495 669h-2v-675q0 -15 -15 -15z" />
    <glyph glyph-name="nacute" unicode="&#x144;" horiz-adv-x="631" 
d="M273 610l153 167q4 4 11 4q16 0 16 -16q0 -7 -5 -12l-158 -161q-4 -4 -9 -4q-12 0 -12 13q0 5 4 9zM117 -7q-15 0 -15 15v475q0 14 14 14q13 0 13 -14v-122h2q23 64 82 104.5t130 40.5q105 0 150 -59.5t45 -170.5v-268q0 -15 -15 -15t-15 15v265q0 100 -38 152.5
t-128 52.5q-89 0 -148.5 -63t-60.5 -158l-1 -249q0 -15 -15 -15z" />
    <glyph glyph-name="uni0145" unicode="&#x145;" horiz-adv-x="815" 
d="M134 -7q-15 0 -15 15v699q0 21 22 21q11 0 28 -21l495 -669h2v675q0 15 15 15t15 -15v-699q0 -21 -22 -21q-12 0 -28 21l-495 669h-2v-675q0 -15 -15 -15zM371 -256q-5 0 -9 4.5t-3 9.5q17 88 19 183q0 6 4.5 10.5t10.5 4.5q7 0 11.5 -4.5t4.5 -10.5q0 -105 -26 -189
q-2 -8 -12 -8z" />
    <glyph glyph-name="uni0146" unicode="&#x146;" horiz-adv-x="631" 
d="M117 -7q-15 0 -15 15v475q0 14 14 14q13 0 13 -14v-122h2q23 64 82 104.5t130 40.5q105 0 150 -59.5t45 -170.5v-268q0 -15 -15 -15t-15 15v265q0 100 -38 152.5t-128 52.5q-89 0 -148.5 -63t-60.5 -158l-1 -249q0 -15 -15 -15zM298 -255q-5 0 -9 4.5t-3 9.5
q17 88 19 183q0 6 4.5 10.5t10.5 4.5q7 0 11.5 -4.5t4.5 -10.5q0 -105 -26 -189q-2 -8 -12 -8z" />
    <glyph glyph-name="Ncaron" unicode="&#x147;" horiz-adv-x="815" 
d="M431 789q-16 0 -79 73l-80 96q-6 9 -6 13q0 11 13 11q5 0 11 -7l141 -154h2l143 157q4 4 10 4q12 0 12 -12q0 -5 -7 -14l-92 -110q-31 -36 -44 -46.5t-24 -10.5zM134 -7q-15 0 -15 15v699q0 21 22 21q11 0 28 -21l495 -669h2v675q0 15 15 15t15 -15v-699q0 -21 -22 -21
q-12 0 -28 21l-495 669h-2v-675q0 -15 -15 -15z" />
    <glyph glyph-name="ncaron" unicode="&#x148;" horiz-adv-x="631" 
d="M339 574q-16 0 -79 73l-80 96q-6 9 -6 13q0 11 13 11q5 0 11 -7l141 -154h2l143 157q4 4 10 4q12 0 12 -12q0 -5 -7 -14l-92 -110q-31 -36 -44 -46.5t-24 -10.5zM117 -7q-15 0 -15 15v475q0 14 14 14q13 0 13 -14v-122h2q23 64 82 104.5t130 40.5q105 0 150 -59.5
t45 -170.5v-268q0 -15 -15 -15t-15 15v265q0 100 -38 152.5t-128 52.5q-89 0 -148.5 -63t-60.5 -158l-1 -249q0 -15 -15 -15z" />
    <glyph glyph-name="napostrophe" unicode="&#x149;" horiz-adv-x="683" 
d="M59 524q-5 0 -9 4.5t-3 9.5q17 88 19 183q0 6 4.5 10.5t10.5 4.5q7 0 11.5 -4.5t4.5 -10.5q0 -105 -26 -189q-2 -8 -12 -8zM169 -7q-15 0 -15 15v475q0 14 14 14q13 0 13 -14v-122h2q23 64 82 104.5t130 40.5q105 0 150 -59.5t45 -170.5v-268q0 -15 -15 -15t-15 15v265
q0 100 -38 152.5t-128 52.5q-89 0 -148.5 -63t-60.5 -158l-1 -249q0 -15 -15 -15z" />
    <glyph glyph-name="Eng" unicode="&#x14a;" horiz-adv-x="815" 
d="M119 8v699q0 21 22 21q11 0 28 -21l495 -669h2v675q0 15 15 15t15 -15v-748q0 -37 -1.5 -59.5t-8.5 -51.5t-20.5 -45t-39.5 -27.5t-63 -11.5q-60 0 -98 27q-8 5 -8 15q0 13 14 13q4 0 30 -13.5t62 -13.5q25 0 43 5.5t29 18t17.5 25t9.5 36.5t3.5 41t0.5 49q0 13 -20 41
l-495 669h-2v-675q0 -15 -15 -15t-15 15z" />
    <glyph glyph-name="eng" unicode="&#x14b;" horiz-adv-x="631" 
d="M133 257l-1 -249q0 -15 -15 -15t-15 15v475q0 14 14 14q13 0 13 -14v-122h2q23 64 82 104.5t130 40.5q105 0 150 -59.5t45 -170.5v-359q0 -67 -17 -98t-55 -48q-9 -3 -14.5 2t-5.5 13q0 9 10 13q52 24 52 110v364q0 100 -38 152.5t-128 52.5q-89 0 -148.5 -63t-60.5 -158
z" />
    <glyph glyph-name="Omacron" unicode="&#x14c;" horiz-adv-x="850" 
d="M583 877h-317q-5 0 -9.5 4t-4.5 10t4.5 10t9.5 4h317q5 0 9.5 -4t4.5 -10t-4.5 -10t-9.5 -4zM425 -15q-153 0 -255.5 101.5t-102.5 275.5q0 168 103.5 270.5t254.5 102.5q153 0 255.5 -102.5t102.5 -270.5q0 -175 -102 -276t-256 -101zM425 13q143 0 235 94.5t92 254.5
q0 154 -92.5 249.5t-234.5 95.5q-141 0 -234 -96t-93 -249q0 -160 92.5 -254.5t234.5 -94.5z" />
    <glyph glyph-name="omacron" unicode="&#x14d;" horiz-adv-x="625" 
d="M471 647h-317q-5 0 -9.5 4t-4.5 10t4.5 10t9.5 4h317q5 0 9.5 -4t4.5 -10t-4.5 -10t-9.5 -4zM313 -15q-110 0 -180.5 71.5t-70.5 189.5t70.5 188.5t180.5 70.5t180 -70.5t70 -188.5t-70 -189.5t-180 -71.5zM315 13q96 0 156.5 64.5t60.5 168.5q0 106 -61 168.5t-160 62.5
q-96 0 -157 -63t-61 -168q0 -104 61 -168.5t161 -64.5z" />
    <glyph glyph-name="Ohungarumlaut" unicode="&#x150;" horiz-adv-x="850" 
d="M337 805q-5 0 -9 3.5t-4 8.5q0 6 4 14l82 161q4 10 14 10q19 0 19 -16q0 -4 -3 -10l-86 -155q-8 -16 -17 -16zM523 805q-5 0 -9 3.5t-4 8.5q0 6 4 14l82 161q4 10 14 10q19 0 19 -16q0 -4 -3 -10l-86 -155q-8 -16 -17 -16zM425 -15q-153 0 -255.5 101.5t-102.5 275.5
q0 168 103.5 270.5t254.5 102.5q153 0 255.5 -102.5t102.5 -270.5q0 -175 -102 -276t-256 -101zM425 13q143 0 235 94.5t92 254.5q0 154 -92.5 249.5t-234.5 95.5q-141 0 -234 -96t-93 -249q0 -160 92.5 -254.5t234.5 -94.5z" />
    <glyph glyph-name="ohungarumlaut" unicode="&#x151;" horiz-adv-x="625" 
d="M225 575q-5 0 -9 3.5t-4 8.5q0 6 4 14l82 161q4 10 14 10q19 0 19 -16q0 -4 -3 -10l-86 -155q-8 -16 -17 -16zM411 575q-5 0 -9 3.5t-4 8.5q0 6 4 14l82 161q4 10 14 10q19 0 19 -16q0 -4 -3 -10l-86 -155q-8 -16 -17 -16zM313 -15q-110 0 -180.5 71.5t-70.5 189.5
t70.5 188.5t180.5 70.5t180 -70.5t70 -188.5t-70 -189.5t-180 -71.5zM315 13q96 0 156.5 64.5t60.5 168.5q0 106 -61 168.5t-160 62.5q-96 0 -157 -63t-61 -168q0 -104 61 -168.5t161 -64.5z" />
    <glyph glyph-name="OE" unicode="&#x152;" horiz-adv-x="1220" 
d="M1151 21q14 0 14 -14t-14 -14h-382q-15 0 -15 15v192q-41 -103 -128.5 -159t-200.5 -56q-153 0 -255.5 101.5t-102.5 275.5q0 168 103.5 270.5t254.5 102.5q112 0 200 -57t129 -158v193q0 15 15 15h382q14 0 14 -14t-14 -14h-367v-326h327q14 0 14 -14t-14 -14h-327v-325
h367zM425 13q143 0 235 94.5t92 254.5q0 154 -92.5 249.5t-234.5 95.5q-141 0 -234 -96t-93 -249q0 -160 92.5 -254.5t234.5 -94.5z" />
    <glyph glyph-name="oe" unicode="&#x153;" horiz-adv-x="1045" 
d="M767 506q107 0 164 -59t57 -163q0 -25 -4 -35.5t-18 -10.5h-402q0 -105 60.5 -165t165.5 -60q43 0 77 10.5t52.5 20.5t24.5 10q15 0 15 -13q0 -7 -7 -13q-20 -16 -66 -29.5t-96 -13.5q-93 0 -155.5 42.5t-86.5 120.5q-25 -76 -88 -119.5t-147 -43.5q-110 0 -180.5 71.5
t-70.5 189.5t70.5 188.5t180.5 70.5q84 0 147 -42.5t88 -118.5q23 76 81.5 119t137.5 43zM956 266q1 7 1 27q0 87 -50 136t-140 49q-89 0 -146 -62t-57 -150h392zM315 13q96 0 156.5 64.5t60.5 168.5q0 106 -61 168.5t-160 62.5q-96 0 -157 -63t-61 -168q0 -104 61 -168.5
t161 -64.5z" />
    <glyph glyph-name="Racute" unicode="&#x154;" horiz-adv-x="692" 
d="M287 825l153 167q4 4 11 4q16 0 16 -16q0 -7 -5 -12l-158 -161q-4 -4 -9 -4q-12 0 -12 13q0 5 4 9zM134 -7q-15 0 -15 15v705q0 15 15 15h221q61 0 106 -9t83 -31.5t58 -66t20 -106.5q0 -93 -50.5 -149.5t-123.5 -62.5l165 -286q3 -6 3 -9q0 -6 -4.5 -10.5t-11.5 -4.5
q-10 0 -14 7l-173 302h-264v-294q0 -15 -15 -15zM149 700v-370h277q66 0 116 51.5t50 133.5q0 105 -61 145t-175 40h-207z" />
    <glyph glyph-name="racute" unicode="&#x155;" horiz-adv-x="365" 
d="M166 595l153 167q4 4 11 4q16 0 16 -16q0 -7 -5 -12l-158 -161q-4 -4 -9 -4q-12 0 -12 13q0 5 4 9zM117 -7q-15 0 -15 15v475q0 14 14 14q13 0 13 -14v-132h2q22 62 77 106.5t121 48.5q16 2 16 -14q0 -13 -14 -13q-83 -7 -140.5 -76.5t-57.5 -156.5l-1 -238
q0 -15 -15 -15z" />
    <glyph glyph-name="uni0156" unicode="&#x156;" horiz-adv-x="692" 
d="M134 -7q-15 0 -15 15v705q0 15 15 15h221q61 0 106 -9t83 -31.5t58 -66t20 -106.5q0 -93 -50.5 -149.5t-123.5 -62.5l165 -286q3 -6 3 -9q0 -6 -4.5 -10.5t-11.5 -4.5q-10 0 -14 7l-173 302h-264v-294q0 -15 -15 -15zM149 700v-370h277q66 0 116 51.5t50 133.5
q0 105 -61 145t-175 40h-207zM326 -256q-5 0 -9 4.5t-3 9.5q17 88 19 183q0 6 4.5 10.5t10.5 4.5q7 0 11.5 -4.5t4.5 -10.5q0 -105 -26 -189q-2 -8 -12 -8z" />
    <glyph glyph-name="uni0157" unicode="&#x157;" horiz-adv-x="365" 
d="M117 -7q-15 0 -15 15v475q0 14 14 14q13 0 13 -14v-132h2q22 62 77 106.5t121 48.5q16 2 16 -14q0 -13 -14 -13q-83 -7 -140.5 -76.5t-57.5 -156.5l-1 -238q0 -15 -15 -15zM95 -256q-5 0 -9 4.5t-3 9.5q17 88 19 183q0 6 4.5 10.5t10.5 4.5q7 0 11.5 -4.5t4.5 -10.5
q0 -105 -26 -189q-2 -8 -12 -8z" />
    <glyph glyph-name="Rcaron" unicode="&#x158;" horiz-adv-x="692" 
d="M351 789q-16 0 -79 73l-80 96q-6 9 -6 13q0 11 13 11q5 0 11 -7l141 -154h2l143 157q4 4 10 4q12 0 12 -12q0 -5 -7 -14l-92 -110q-31 -36 -44 -46.5t-24 -10.5zM134 -7q-15 0 -15 15v705q0 15 15 15h221q61 0 106 -9t83 -31.5t58 -66t20 -106.5q0 -93 -50.5 -149.5
t-123.5 -62.5l165 -286q3 -6 3 -9q0 -6 -4.5 -10.5t-11.5 -4.5q-10 0 -14 7l-173 302h-264v-294q0 -15 -15 -15zM149 700v-370h277q66 0 116 51.5t50 133.5q0 105 -61 145t-175 40h-207z" />
    <glyph glyph-name="rcaron" unicode="&#x159;" horiz-adv-x="365" 
d="M232 559q-16 0 -79 73l-80 96q-6 9 -6 13q0 11 13 11q5 0 11 -7l141 -154h2l143 157q4 4 10 4q12 0 12 -12q0 -5 -7 -14l-92 -110q-31 -36 -44 -46.5t-24 -10.5zM117 -7q-15 0 -15 15v475q0 14 14 14q13 0 13 -14v-132h2q22 62 77 106.5t121 48.5q16 2 16 -14
q0 -13 -14 -13q-83 -7 -140.5 -76.5t-57.5 -156.5l-1 -238q0 -15 -15 -15z" />
    <glyph glyph-name="Sacute" unicode="&#x15a;" horiz-adv-x="603" 
d="M247 840l153 167q4 4 11 4q16 0 16 -16q0 -7 -5 -12l-158 -161q-4 -4 -9 -4q-12 0 -12 13q0 5 4 9zM543 170q0 -93 -67.5 -139t-177.5 -46q-126 0 -240 67q-9 7 -9 15q0 9 7.5 13t13.5 0q118 -67 226 -67q99 0 158 40t59 116q0 35 -12.5 63t-29.5 46.5t-49 35.5
t-57.5 26.5t-68.5 23.5q-51 16 -81.5 29.5t-64 36t-49.5 55t-16 75.5q0 86 65.5 131t164.5 45q67 0 122 -14.5t77 -30.5q6 -5 6 -12q0 -12 -13 -12q-4 0 -27.5 10.5t-67 20.5t-96.5 10q-88 0 -144.5 -38.5t-56.5 -109.5q0 -30 10.5 -54t26.5 -40t43.5 -31t51.5 -23.5
t62 -20.5q45 -14 72 -24.5t62 -29.5t54 -40t32.5 -53.5t13.5 -73.5z" />
    <glyph glyph-name="sacute" unicode="&#x15b;" horiz-adv-x="510" 
d="M198 610l153 167q4 4 11 4q16 0 16 -16q0 -7 -5 -12l-158 -161q-4 -4 -9 -4q-12 0 -12 13q0 5 4 9zM252 -15q-60 0 -113 17.5t-75 36.5q-6 6 -6 13q0 8 7 12t16 -1q76 -50 172 -50q87 0 132 32t45 77q0 24 -10 42.5t-24.5 29.5t-41 21t-47.5 14.5t-56 11.5
q-34 6 -58 12.5t-50 17.5t-41.5 25t-26 35t-10.5 47q0 62 51 94.5t142 32.5q51 0 93.5 -12.5t62.5 -28.5q6 -5 6 -12q0 -12 -13 -12q-6 0 -24 9t-50 18.5t-74 9.5q-76 0 -120 -25.5t-44 -73.5q0 -25 12 -43.5t38 -30.5t51 -19t66 -15q37 -7 61.5 -13t53 -18t45 -26.5
t28 -37.5t11.5 -53q0 -57 -51.5 -97t-157.5 -40z" />
    <glyph glyph-name="Scedilla" unicode="&#x15e;" horiz-adv-x="603" 
d="M543 170q0 -91 -65 -137t-171 -48l-11 -37q4 0 11.5 -1t26.5 -6.5t33.5 -14t26.5 -27t12 -42.5q0 -49 -33 -74t-89 -25q-66 0 -111 36q-6 5 -6 13q0 14 15 14q5 0 17 -8.5t34.5 -17.5t50.5 -9q43 0 67.5 18t24.5 53q0 61 -99 67q-17 1 -12 20l12 42q-116 5 -219 66
q-9 7 -9 15q0 9 7.5 13t13.5 0q118 -67 226 -67q99 0 158 40t59 116q0 35 -12.5 63t-29.5 46.5t-49 35.5t-57.5 26.5t-68.5 23.5q-51 16 -81.5 29.5t-64 36t-49.5 55t-16 75.5q0 86 65.5 131t164.5 45q67 0 122 -14.5t77 -30.5q6 -5 6 -12q0 -12 -13 -12q-4 0 -27.5 10.5
t-67 20.5t-96.5 10q-88 0 -144.5 -38.5t-56.5 -109.5q0 -30 10.5 -54t26.5 -40t43.5 -31t51.5 -23.5t62 -20.5q45 -14 72 -24.5t62 -29.5t54 -40t32.5 -53.5t13.5 -73.5z" />
    <glyph glyph-name="scedilla" unicode="&#x15f;" horiz-adv-x="510" 
d="M461 122q0 -56 -49.5 -96t-153.5 -41l-10 -36q4 0 11.5 -1t26.5 -6.5t33.5 -14t26.5 -27t12 -42.5q0 -49 -33 -74t-89 -25q-66 0 -111 36q-6 5 -6 13q0 14 15 14q5 0 17 -9t34.5 -17.5t50.5 -8.5q43 0 67.5 18t24.5 53q0 62 -99 67q-17 1 -12 20l11 41q-52 3 -98 20
t-66 33q-6 6 -6 13q0 8 7 12t16 -1q76 -50 172 -50q87 0 132 32t45 77q0 24 -10 42.5t-24.5 29.5t-41 21t-47.5 14.5t-56 11.5q-34 6 -58 12.5t-50 17.5t-41.5 25t-26 35t-10.5 47q0 62 51 94.5t142 32.5q51 0 93.5 -12.5t62.5 -28.5q6 -5 6 -12q0 -12 -13 -12q-6 0 -24 9
t-50 18.5t-74 9.5q-76 0 -120 -25.5t-44 -73.5q0 -25 12 -43.5t38 -30.5t51 -19t66 -15q37 -7 61.5 -13t53 -18t45 -26.5t28 -37.5t11.5 -53z" />
    <glyph glyph-name="Scaron" unicode="&#x160;" horiz-adv-x="603" 
d="M313 804q-16 0 -79 73l-80 96q-6 9 -6 13q0 11 13 11q5 0 11 -7l141 -154h2l143 157q4 4 10 4q12 0 12 -12q0 -5 -7 -14l-92 -110q-31 -36 -44 -46.5t-24 -10.5zM543 170q0 -93 -67.5 -139t-177.5 -46q-126 0 -240 67q-9 7 -9 15q0 9 7.5 13t13.5 0q118 -67 226 -67
q99 0 158 40t59 116q0 35 -12.5 63t-29.5 46.5t-49 35.5t-57.5 26.5t-68.5 23.5q-51 16 -81.5 29.5t-64 36t-49.5 55t-16 75.5q0 86 65.5 131t164.5 45q67 0 122 -14.5t77 -30.5q6 -5 6 -12q0 -12 -13 -12q-4 0 -27.5 10.5t-67 20.5t-96.5 10q-88 0 -144.5 -38.5
t-56.5 -109.5q0 -30 10.5 -54t26.5 -40t43.5 -31t51.5 -23.5t62 -20.5q45 -14 72 -24.5t62 -29.5t54 -40t32.5 -53.5t13.5 -73.5z" />
    <glyph glyph-name="scaron" unicode="&#x161;" horiz-adv-x="510" 
d="M264 574q-16 0 -79 73l-80 96q-6 9 -6 13q0 11 13 11q5 0 11 -7l141 -154h2l143 157q4 4 10 4q12 0 12 -12q0 -5 -7 -14l-92 -110q-31 -36 -44 -46.5t-24 -10.5zM252 -15q-60 0 -113 17.5t-75 36.5q-6 6 -6 13q0 8 7 12t16 -1q76 -50 172 -50q87 0 132 32t45 77
q0 24 -10 42.5t-24.5 29.5t-41 21t-47.5 14.5t-56 11.5q-34 6 -58 12.5t-50 17.5t-41.5 25t-26 35t-10.5 47q0 62 51 94.5t142 32.5q51 0 93.5 -12.5t62.5 -28.5q6 -5 6 -12q0 -12 -13 -12q-6 0 -24 9t-50 18.5t-74 9.5q-76 0 -120 -25.5t-44 -73.5q0 -25 12 -43.5t38 -30.5
t51 -19t66 -15q37 -7 61.5 -13t53 -18t45 -26.5t28 -37.5t11.5 -53q0 -57 -51.5 -97t-157.5 -40z" />
    <glyph glyph-name="uni0162" unicode="&#x162;" horiz-adv-x="568" 
d="M526 728q5 0 9.5 -4t4.5 -10t-4.5 -10t-9.5 -4h-227v-692q0 -4 -2 -8l-11 -39q4 0 11.5 -1t26.5 -6.5t33.5 -14t26.5 -27t12 -42.5q0 -49 -33 -74t-89 -25q-66 0 -111 36q-6 5 -6 13q0 14 15 14q5 0 17 -9t34.5 -17.5t50.5 -8.5q43 0 67.5 18t24.5 53q0 62 -99 67
q-17 1 -12 20l14 49v2v692h-227q-5 0 -9.5 4t-4.5 10t4.5 10t9.5 4h484z" />
    <glyph glyph-name="uni0163" unicode="&#x163;" horiz-adv-x="381" 
d="M351 39q14 0 14 -13q0 -10 -8 -15q-41 -27 -101 -27h-9l-10 -34q4 0 11.5 -1t26.5 -6.5t33.5 -14t26.5 -27t12 -42.5q0 -49 -33 -74t-89 -25q-66 0 -111 36q-6 4 -6 13q0 14 15 14q5 0 17 -8.5t34.5 -17.5t50.5 -9q43 0 67.5 18t24.5 53q0 61 -99 67q-17 1 -12 20l12 42
q-22 5 -39.5 16t-28.5 23t-18.5 33.5t-11 36t-5.5 42t-2 39.5v41v243h-74q-5 0 -9.5 4t-4.5 10t4.5 10t9.5 4h74q0 76 5 118q2 11 12 11q13 0 13 -12v-117h171q5 0 9.5 -4t4.5 -10t-4.5 -10t-9.5 -4h-171v-215q0 -111 8 -146q20 -89 105 -89q38 0 64.5 13.5t30.5 13.5z" />
    <glyph glyph-name="Tcaron" unicode="&#x164;" horiz-adv-x="568" 
d="M292 789q-16 0 -79 73l-80 96q-6 9 -6 13q0 11 13 11q5 0 11 -7l141 -154h2l143 157q4 4 10 4q12 0 12 -12q0 -5 -7 -14l-92 -110q-31 -36 -44 -46.5t-24 -10.5zM284 -7q-15 0 -15 15v692h-227q-5 0 -9.5 4t-4.5 10t4.5 10t9.5 4h484q5 0 9.5 -4t4.5 -10t-4.5 -10
t-9.5 -4h-227v-692q0 -15 -15 -15z" />
    <glyph glyph-name="tcaron" unicode="&#x165;" horiz-adv-x="381" 
d="M284 543q-5 0 -9 4.5t-3 9.5q17 88 19 183q0 6 4.5 10.5t10.5 4.5q7 0 11.5 -4.5t4.5 -10.5q0 -105 -26 -189q-2 -8 -12 -8zM351 39q14 0 14 -13q0 -10 -8 -15q-41 -27 -101 -27q-35 0 -61 9.5t-41 30.5t-24 39t-12.5 52t-4 51t-0.5 53v243h-74q-5 0 -9.5 4t-4.5 10
t4.5 10t9.5 4h74q0 76 5 118q2 11 12 11q13 0 13 -12v-117h171q5 0 9.5 -4t4.5 -10t-4.5 -10t-9.5 -4h-171v-215q0 -111 8 -146q20 -89 105 -89q38 0 64.5 13.5t30.5 13.5z" />
    <glyph glyph-name="Tbar" unicode="&#x166;" horiz-adv-x="586" 
d="M535 728q5 0 9.5 -4t4.5 -10t-4.5 -10t-9.5 -4h-227v-316h143q14 0 14 -14t-14 -14h-143v-348q0 -15 -15 -15t-15 15v348h-145q-14 0 -14 14t14 14h145v316h-227q-5 0 -9.5 4t-4.5 10t4.5 10t9.5 4h484z" />
    <glyph glyph-name="tbar" unicode="&#x167;" horiz-adv-x="386" 
d="M349 39q14 0 14 -13q0 -10 -8 -15q-38 -27 -98 -27q-29 0 -52 8.5t-37.5 20t-24.5 33.5t-15 37.5t-7.5 46t-2.5 44.5v45v75h-67q-5 0 -9.5 4t-4.5 10t4.5 10t9.5 4h67v140h-71q-5 0 -9.5 4t-4.5 10t4.5 10t9.5 4h71q0 61 5 118q2 11 12 11q13 0 13 -12v-117h155
q5 0 9.5 -4t4.5 -10t-4.5 -10t-9.5 -4h-155v-140h152q5 0 9.5 -4t4.5 -10t-4.5 -10t-9.5 -4h-152v-47v-21q0 -35 0.5 -52.5t3 -47.5t9.5 -46.5t18.5 -34t31 -25.5t46.5 -8q36 0 62 13.5t30 13.5z" />
    <glyph glyph-name="Utilde" unicode="&#x168;" horiz-adv-x="796" 
d="M296 949q29 0 56 -17t43.5 -38t38 -38t41.5 -17q34 0 52 25t17 74q0 13 14 13q13 0 13 -13q0 -61 -25 -94t-68 -33q-26 0 -51.5 17t-42 38t-39.5 38t-45 17q-66 0 -66 -92q0 -13 -13 -13q-14 0 -14 13q0 51 21 85.5t68 34.5zM398 -15q-141 0 -215.5 87t-74.5 231v410
q0 15 15 15t15 -15v-409q0 -57 14 -107t43 -92.5t81 -67t122 -24.5t122 24.5t81 67t43 92t14 107.5v409q0 15 15 15t15 -15v-410q0 -144 -74.5 -231t-215.5 -87z" />
    <glyph glyph-name="utilde" unicode="&#x169;" horiz-adv-x="631" 
d="M210 719q29 0 56 -17t43.5 -38t38 -38t41.5 -17q34 0 52 25t17 74q0 13 14 13q13 0 13 -13q0 -61 -25 -94t-68 -33q-26 0 -51.5 17t-42 38t-39.5 38t-45 17q-66 0 -66 -92q0 -13 -13 -13q-14 0 -14 13q0 51 21 85.5t68 34.5zM298 -15q-205 0 -205 229v268q0 15 15 15
t15 -15v-265q0 -204 176 -204q88 0 143 62t56 158l1 249q0 15 15 15t15 -15v-475q0 -14 -14 -14q-15 0 -15 14v112h-2q-26 -64 -77.5 -99t-122.5 -35z" />
    <glyph glyph-name="Umacron" unicode="&#x16a;" horiz-adv-x="796" 
d="M553 862h-317q-5 0 -9.5 4t-4.5 10t4.5 10t9.5 4h317q5 0 9.5 -4t4.5 -10t-4.5 -10t-9.5 -4zM398 -15q-141 0 -215.5 87t-74.5 231v410q0 15 15 15t15 -15v-409q0 -57 14 -107t43 -92.5t81 -67t122 -24.5t122 24.5t81 67t43 92t14 107.5v409q0 15 15 15t15 -15v-410
q0 -144 -74.5 -231t-215.5 -87z" />
    <glyph glyph-name="umacron" unicode="&#x16b;" horiz-adv-x="631" 
d="M467 632h-317q-5 0 -9.5 4t-4.5 10t4.5 10t9.5 4h317q5 0 9.5 -4t4.5 -10t-4.5 -10t-9.5 -4zM298 -15q-205 0 -205 229v268q0 15 15 15t15 -15v-265q0 -204 176 -204q88 0 143 62t56 158l1 249q0 15 15 15t15 -15v-475q0 -14 -14 -14q-15 0 -15 14v112h-2
q-26 -64 -77.5 -99t-122.5 -35z" />
    <glyph glyph-name="Uring" unicode="&#x16e;" horiz-adv-x="796" 
d="M396 796q-40 0 -65.5 26.5t-25.5 64.5q0 39 25 65t66 26q40 0 65.5 -26t25.5 -65q0 -38 -25.5 -64.5t-65.5 -26.5zM396 824q26 0 43.5 18.5t17.5 44.5q0 27 -17 45t-44 18t-44 -18t-17 -45t17 -45t44 -18zM398 -15q-141 0 -215.5 87t-74.5 231v410q0 15 15 15t15 -15
v-409q0 -57 14 -107t43 -92.5t81 -67t122 -24.5t122 24.5t81 67t43 92t14 107.5v409q0 15 15 15t15 -15v-410q0 -144 -74.5 -231t-215.5 -87z" />
    <glyph glyph-name="uring" unicode="&#x16f;" horiz-adv-x="631" 
d="M310 566q-40 0 -65.5 26.5t-25.5 64.5q0 39 25 65t66 26q40 0 65.5 -26t25.5 -65q0 -38 -25.5 -64.5t-65.5 -26.5zM310 594q26 0 43.5 18.5t17.5 44.5q0 27 -17 45t-44 18t-44 -18t-17 -45t17 -45t44 -18zM298 -15q-205 0 -205 229v268q0 15 15 15t15 -15v-265
q0 -204 176 -204q88 0 143 62t56 158l1 249q0 15 15 15t15 -15v-475q0 -14 -14 -14q-15 0 -15 14v112h-2q-26 -64 -77.5 -99t-122.5 -35z" />
    <glyph glyph-name="Uhungarumlaut" unicode="&#x170;" horiz-adv-x="796" 
d="M307 790q-5 0 -9 3.5t-4 8.5q0 6 4 14l82 161q4 10 14 10q19 0 19 -16q0 -4 -3 -10l-86 -155q-8 -16 -17 -16zM493 790q-5 0 -9 3.5t-4 8.5q0 6 4 14l82 161q4 10 14 10q19 0 19 -16q0 -4 -3 -10l-86 -155q-8 -16 -17 -16zM398 -15q-141 0 -215.5 87t-74.5 231v410
q0 15 15 15t15 -15v-409q0 -57 14 -107t43 -92.5t81 -67t122 -24.5t122 24.5t81 67t43 92t14 107.5v409q0 15 15 15t15 -15v-410q0 -144 -74.5 -231t-215.5 -87z" />
    <glyph glyph-name="uhungarumlaut" unicode="&#x171;" horiz-adv-x="631" 
d="M221 560q-5 0 -9 3.5t-4 8.5q0 6 4 14l82 161q4 10 14 10q19 0 19 -16q0 -4 -3 -10l-86 -155q-8 -16 -17 -16zM407 560q-5 0 -9 3.5t-4 8.5q0 6 4 14l82 161q4 10 14 10q19 0 19 -16q0 -4 -3 -10l-86 -155q-8 -16 -17 -16zM298 -15q-205 0 -205 229v268q0 15 15 15
t15 -15v-265q0 -204 176 -204q88 0 143 62t56 158l1 249q0 15 15 15t15 -15v-475q0 -14 -14 -14q-15 0 -15 14v112h-2q-26 -64 -77.5 -99t-122.5 -35z" />
    <glyph glyph-name="Uogonek" unicode="&#x172;" horiz-adv-x="796" 
d="M673 728q15 0 15 -15v-410q0 -133 -63.5 -218t-183.5 -98q-36 -17 -66.5 -50.5t-30.5 -80.5q0 -37 22.5 -58t59.5 -21q9 0 27 2q15 2 15 -14q0 -7 -9 -12q-11 -4 -33 -4q-48 0 -79 29.5t-31 75.5q0 74 72 131q-136 4 -208 90t-72 228v410q0 15 15 15t15 -15v-409
q0 -57 14 -107t43 -92.5t81 -67t122 -24.5t122 24.5t81 67t43 92t14 107.5v409q0 15 15 15z" />
    <glyph glyph-name="uogonek" unicode="&#x173;" horiz-adv-x="631" 
d="M531 -215q15 2 15 -14q0 -7 -9 -12q-11 -4 -33 -4q-48 0 -79 29.5t-31 75.5q0 93 106 154v105h-2q-26 -64 -77.5 -99t-122.5 -35q-205 0 -205 229v268q0 15 15 15t15 -15v-265q0 -204 176 -204q88 0 143 62t56 158l1 249q0 15 15 15t15 -15v-475q0 -11 -10 -13
q-97 -52 -97 -132q0 -37 22.5 -58t59.5 -21q9 0 27 2z" />
    <glyph glyph-name="Wcircumflex" unicode="&#x174;" horiz-adv-x="1060" 
d="M385 790q-12 0 -12 12q0 5 7 14l92 110q31 36 44 46.5t24 10.5q16 0 79 -73l80 -96q6 -9 6 -13q0 -11 -13 -11q-5 0 -11 7l-141 154h-2l-143 -157q-4 -4 -10 -4zM280 -7q-20 0 -26 20l-211 688q-2 7 2.5 13.5t12.5 6.5q12 0 15 -11l206 -684h2l223 684q5 18 26 18t26 -18
l223 -684h2l206 684q3 11 15 11q8 0 12.5 -6.5t2.5 -13.5l-211 -688q-6 -20 -26 -20t-27 20l-222 680h-2l-222 -680q-7 -20 -27 -20z" />
    <glyph glyph-name="wcircumflex" unicode="&#x175;" horiz-adv-x="830" 
d="M270 560q-12 0 -12 12q0 5 7 14l92 110q31 36 44 46.5t24 10.5q16 0 79 -73l80 -96q6 -9 6 -13q0 -11 -13 -11q-5 0 -11 7l-141 154h-2l-143 -157q-4 -4 -10 -4zM233 -7h-1q-20 0 -29 27l-159 457q-2 7 1.5 13.5t12.5 6.5q12 0 15 -10l159 -468h2l151 454q8 24 30 24h1
q22 0 30 -25l150 -453h2l159 468q3 10 15 10q9 0 12.5 -6.5t1.5 -13.5l-159 -457q-10 -27 -29 -27h-1q-22 0 -30 27l-151 451h-2l-151 -451q-8 -27 -30 -27z" />
    <glyph glyph-name="Ycircumflex" unicode="&#x176;" horiz-adv-x="666" 
d="M182 801q-12 0 -12 12q0 5 7 14l92 110q31 36 44 46.5t24 10.5q16 0 79 -73l80 -96q6 -9 6 -13q0 -11 -13 -11q-5 0 -11 7l-141 154h-2l-143 -157q-4 -4 -10 -4zM333 -7q-15 0 -15 15v284l-270 412q-3 5 -3 9q0 6 5 10.5t12 4.5q6 0 12 -9l258 -395h2l258 395q6 9 12 9
q7 0 12 -4.5t5 -10.5q0 -4 -3 -9l-270 -412v-284q0 -15 -15 -15z" />
    <glyph glyph-name="ycircumflex" unicode="&#x177;" horiz-adv-x="536" 
d="M122 560q-12 0 -12 12q0 5 7 14l92 110q31 36 44 46.5t24 10.5q16 0 79 -73l80 -96q6 -9 6 -13q0 -11 -13 -11q-5 0 -11 7l-141 154h-2l-143 -157q-4 -4 -10 -4zM100 -230q-17 0 -30 3q-11 3 -11 14q0 16 16 13q11 -2 25 -2q13 0 25 4t23 12.5t20 17t18.5 23.5t16 25.5
t15 29t12.5 28t12 29t11 25.5l-208 484q-3 6 1.5 13.5t13.5 7.5t15 -13l194 -450h2l194 454q5 9 14 9q8 0 12.5 -6.5t1.5 -14.5l-206 -485q-19 -45 -29.5 -68.5t-30 -58t-36 -51.5t-40.5 -30t-51 -13z" />
    <glyph glyph-name="Ydieresis" unicode="&#x178;" horiz-adv-x="666" 
d="M224 846q-18 0 -30 12t-12 30t12 29.5t30 11.5q19 0 30 -11t11 -30q0 -18 -11.5 -30t-29.5 -12zM442 846q-18 0 -30 12t-12 30t12 29.5t30 11.5q19 0 30 -11t11 -30q0 -18 -11.5 -30t-29.5 -12zM333 -7q-15 0 -15 15v284l-270 412q-3 5 -3 9q0 6 5 10.5t12 4.5q6 0 12 -9
l258 -395h2l258 395q6 9 12 9q7 0 12 -4.5t5 -10.5q0 -4 -3 -9l-270 -412v-284q0 -15 -15 -15z" />
    <glyph glyph-name="Zacute" unicode="&#x179;" horiz-adv-x="634" 
d="M238 825l153 167q4 4 11 4q16 0 16 -16q0 -7 -5 -12l-158 -161q-4 -4 -9 -4q-12 0 -12 13q0 5 4 9zM588 -7h-540q-8 0 -13 5.5t-5 12.5t3 11l522 678h-490q-14 0 -14 14t14 14h512q7 0 12.5 -5t5.5 -13q0 -6 -3 -11l-523 -678h519q14 0 14 -14t-14 -14z" />
    <glyph glyph-name="zacute" unicode="&#x17a;" horiz-adv-x="494" 
d="M189 595l153 167q4 4 11 4q16 0 16 -16q0 -7 -5 -12l-158 -161q-4 -4 -9 -4q-12 0 -12 13q0 5 4 9zM442 -7h-389q-15 0 -15 16q0 7 10 20l357 440h-332q-14 0 -14 14t14 14h355q17 0 17 -17q0 -7 -4 -12l-363 -447h364q14 0 14 -14t-14 -14z" />
    <glyph glyph-name="Zdotaccent" unicode="&#x17b;" horiz-adv-x="634" 
d="M296 835q-18 0 -30 12t-12 30t12 29.5t30 11.5q19 0 30 -11t11 -30q0 -18 -11.5 -30t-29.5 -12zM588 -7h-540q-8 0 -13 5.5t-5 12.5t3 11l522 678h-490q-14 0 -14 14t14 14h512q7 0 12.5 -5t5.5 -13q0 -6 -3 -11l-523 -678h519q14 0 14 -14t-14 -14z" />
    <glyph glyph-name="zdotaccent" unicode="&#x17c;" horiz-adv-x="494" 
d="M247 605q-18 0 -30 12t-12 30t12 29.5t30 11.5q19 0 30 -11t11 -30q0 -18 -11.5 -30t-29.5 -12zM442 -7h-389q-15 0 -15 16q0 7 10 20l357 440h-332q-14 0 -14 14t14 14h355q17 0 17 -17q0 -7 -4 -12l-363 -447h364q14 0 14 -14t-14 -14z" />
    <glyph glyph-name="Zcaron" unicode="&#x17d;" horiz-adv-x="634" 
d="M304 789q-16 0 -79 73l-80 96q-6 9 -6 13q0 11 13 11q5 0 11 -7l141 -154h2l143 157q4 4 10 4q12 0 12 -12q0 -5 -7 -14l-92 -110q-31 -36 -44 -46.5t-24 -10.5zM588 -7h-540q-8 0 -13 5.5t-5 12.5t3 11l522 678h-490q-14 0 -14 14t14 14h512q7 0 12.5 -5t5.5 -13
q0 -6 -3 -11l-523 -678h519q14 0 14 -14t-14 -14z" />
    <glyph glyph-name="zcaron" unicode="&#x17e;" horiz-adv-x="494" 
d="M255 559q-16 0 -79 73l-80 96q-6 9 -6 13q0 11 13 11q5 0 11 -7l141 -154h2l143 157q4 4 10 4q12 0 12 -12q0 -5 -7 -14l-92 -110q-31 -36 -44 -46.5t-24 -10.5zM442 -7h-389q-15 0 -15 16q0 7 10 20l357 440h-332q-14 0 -14 14t14 14h355q17 0 17 -17q0 -7 -4 -12
l-363 -447h364q14 0 14 -14t-14 -14z" />
    <glyph glyph-name="uni01EA" unicode="&#x1ea;" horiz-adv-x="850" 
d="M475 -12q-21 -10 -40.5 -24.5t-39.5 -44.5t-20 -64q0 -37 22.5 -58t59.5 -21q9 0 27 2q15 2 15 -14q0 -8 -9 -12q-11 -4 -33 -4q-48 0 -79 29.5t-31 75.5q0 74 73 132q-151 2 -252 103t-101 274q0 168 103.5 270.5t254.5 102.5q153 0 255.5 -102.5t102.5 -270.5
q0 -159 -86.5 -258.5t-221.5 -115.5zM98 362q0 -160 92.5 -254.5t234.5 -94.5q143 0 235 94.5t92 254.5q0 154 -92.5 249.5t-234.5 95.5q-141 0 -234 -96t-93 -249z" />
    <glyph glyph-name="uni01EB" unicode="&#x1eb;" horiz-adv-x="625" 
d="M390 -5q-97 -49 -97 -131q0 -37 22.5 -58t59.5 -21q9 0 27 2q15 2 15 -14q0 -7 -9 -12q-11 -4 -33 -4q-48 0 -79 29.5t-31 75.5q0 70 63 123h-15q-110 0 -180.5 71.5t-70.5 189.5t70.5 188.5t180.5 70.5t180 -70.5t70 -188.5q0 -95 -47 -161.5t-126 -89.5zM93 246
q0 -104 61 -168.5t161 -64.5q96 0 156.5 64.5t60.5 168.5q0 106 -61 168.5t-160 62.5q-96 0 -157 -63t-61 -168z" />
    <glyph glyph-name="AEacute" unicode="&#x1fc;" horiz-adv-x="938" 
d="M552 803q-12 0 -12 13q0 5 4 9l153 167q4 4 11 4q16 0 16 -16q0 -7 -5 -12l-158 -161q-4 -4 -9 -4zM869 21q14 0 14 -14t-14 -14h-382q-15 0 -15 15v230h-293l-148 -234q-6 -11 -14 -11t-12.5 6t0.5 15l431 687q15 27 36 27h397q14 0 14 -14t-14 -14h-367v-326h327
q14 0 14 -14t-14 -14h-327v-325h367zM196 266h276v434h-2z" />
    <glyph glyph-name="aeacute" unicode="&#x1fd;" horiz-adv-x="946" 
d="M414 588q-12 0 -12 13q0 5 4 9l153 167q4 4 11 4q16 0 16 -16q0 -7 -5 -12l-158 -161q-4 -4 -9 -4zM668 506q107 0 164 -59t57 -163q0 -25 -4 -35.5t-18 -10.5h-402q0 -105 60.5 -165t165.5 -60q43 0 77 10.5t52.5 20.5t24.5 10q15 0 15 -13q0 -7 -7 -13
q-20 -16 -66 -29.5t-96 -13.5q-93 0 -155.5 42t-86.5 120q-23 -68 -86 -115t-150 -47q-80 0 -124.5 38t-44.5 107q0 73 55.5 114t138.5 41q100 0 196 -56q0 123 -37 185.5t-141 62.5q-76 0 -137 -24q-6 -2 -9 -2q-13 0 -13 14q0 10 13 15q64 25 148 25q85 0 131 -38.5
t63 -112.5q25 72 82.5 112t133.5 40zM857 266q1 7 1 27q0 87 -50 136t-140 49q-89 0 -146 -62t-57 -150h392zM214 13q90 0 151.5 58t68.5 128q-96 58 -196 58q-72 0 -117.5 -33.5t-45.5 -92.5q0 -58 37 -88t102 -30z" />
    <glyph glyph-name="Oslashacute" unicode="&#x1fe;" horiz-adv-x="870" 
d="M364 818q-12 0 -12 13q0 5 4 9l153 167q4 4 11 4q16 0 16 -16q0 -7 -5 -12l-158 -161q-4 -4 -9 -4zM817 720q0 -6 -5 -11l-101 -100q81 -100 81 -247q0 -175 -102 -276t-256 -101t-253 99l-94 -94q-5 -5 -10 -5q-6 0 -10.5 5t-4.5 11q0 5 5 10l95 94q-86 100 -86 257
q0 168 103.5 270.5t254.5 102.5q156 0 258 -105l100 100q5 5 11 5q5 0 9.5 -5t4.5 -10zM107 362q0 -143 76 -236l487 483q-90 98 -236 98q-141 0 -234 -96t-93 -249zM761 362q0 134 -72 225l-487 -483q91 -91 232 -91q143 0 235 94.5t92 254.5z" />
    <glyph glyph-name="oslashacute" unicode="&#x1ff;" horiz-adv-x="642" 
d="M277 588q-12 0 -12 13q0 5 4 9l153 167q4 4 11 4q16 0 16 -16q0 -7 -5 -12l-158 -161q-4 -4 -9 -4zM591 492q0 -7 -5 -12l-67 -67q51 -69 51 -167q0 -118 -70 -189.5t-180 -71.5q-103 0 -171 62l-57 -57q-8 -7 -17 -3.5t-9 12.5q0 7 5 12l58 57q-60 71 -60 178
q0 118 70.5 188.5t180.5 70.5t179 -69l66 65q7 7 16.5 3.5t9.5 -12.5zM100 246q0 -94 50 -156l328 325q-60 62 -160 62q-96 0 -157 -63t-61 -168zM539 246q0 87 -42 146l-326 -324q60 -55 151 -55q96 0 156.5 64.5t60.5 168.5z" />
    <glyph glyph-name="uni0218" unicode="&#x218;" horiz-adv-x="603" 
d="M543 170q0 -93 -67.5 -139t-177.5 -46q-126 0 -240 67q-9 7 -9 15q0 9 7.5 13t13.5 0q118 -67 226 -67q99 0 158 40t59 116q0 35 -12.5 63t-29.5 46.5t-49 35.5t-57.5 26.5t-68.5 23.5q-51 16 -81.5 29.5t-64 36t-49.5 55t-16 75.5q0 86 65.5 131t164.5 45
q67 0 122 -14.5t77 -30.5q6 -5 6 -12q0 -12 -13 -12q-4 0 -27.5 10.5t-67 20.5t-96.5 10q-88 0 -144.5 -38.5t-56.5 -109.5q0 -30 10.5 -54t26.5 -40t43.5 -31t51.5 -23.5t62 -20.5q45 -14 72 -24.5t62 -29.5t54 -40t32.5 -53.5t13.5 -73.5zM276 -253q-5 0 -9 4.5t-3 9.5
q17 88 19 183q0 6 4.5 10.5t10.5 4.5q7 0 11.5 -4.5t4.5 -10.5q0 -105 -26 -189q-2 -8 -12 -8z" />
    <glyph glyph-name="uni0219" unicode="&#x219;" horiz-adv-x="510" 
d="M252 -15q-60 0 -113 17.5t-75 36.5q-6 6 -6 13q0 8 7 12t16 -1q76 -50 172 -50q87 0 132 32t45 77q0 24 -10 42.5t-24.5 29.5t-41 21t-47.5 14.5t-56 11.5q-34 6 -58 12.5t-50 17.5t-41.5 25t-26 35t-10.5 47q0 62 51 94.5t142 32.5q51 0 93.5 -12.5t62.5 -28.5
q6 -5 6 -12q0 -12 -13 -12q-6 0 -24 9t-50 18.5t-74 9.5q-76 0 -120 -25.5t-44 -73.5q0 -25 12 -43.5t38 -30.5t51 -19t66 -15q37 -7 61.5 -13t53 -18t45 -26.5t28 -37.5t11.5 -53q0 -57 -51.5 -97t-157.5 -40zM228 -252q-5 0 -9 4.5t-3 9.5q17 88 19 183q0 6 4.5 10.5
t10.5 4.5q7 0 11.5 -4.5t4.5 -10.5q0 -105 -26 -189q-2 -8 -12 -8z" />
    <glyph glyph-name="uni021A" unicode="&#x21a;" horiz-adv-x="568" 
d="M284 -7q-15 0 -15 15v692h-227q-5 0 -9.5 4t-4.5 10t4.5 10t9.5 4h484q5 0 9.5 -4t4.5 -10t-4.5 -10t-9.5 -4h-227v-692q0 -15 -15 -15zM262 -240q-5 0 -9 4.5t-3 9.5q17 88 19 183q0 6 4.5 10.5t10.5 4.5q7 0 11.5 -4.5t4.5 -10.5q0 -105 -26 -189q-2 -8 -12 -8z" />
    <glyph glyph-name="uni021B" unicode="&#x21b;" horiz-adv-x="381" 
d="M351 39q14 0 14 -13q0 -10 -8 -15q-41 -27 -101 -27q-35 0 -61 9.5t-41 30.5t-24 39t-12.5 52t-4 51t-0.5 53v243h-74q-5 0 -9.5 4t-4.5 10t4.5 10t9.5 4h74q0 76 5 118q2 11 12 11q13 0 13 -12v-117h171q5 0 9.5 -4t4.5 -10t-4.5 -10t-9.5 -4h-171v-215q0 -111 8 -146
q20 -89 105 -89q38 0 64.5 13.5t30.5 13.5zM227 -43q7 0 11.5 -4.5t4.5 -10.5q0 -105 -26 -189q-2 -8 -12 -8q-5 0 -9 4.5t-3 9.5q17 88 19 183q0 6 4.5 10.5t10.5 4.5z" />
    <glyph glyph-name="uni0237" unicode="&#x237;" horiz-adv-x="246" 
d="M1 -230q-60 0 -98 27q-8 5 -8 15q0 13 14 13q4 0 30 -13.5t62 -13.5q20 0 36.5 5t27.5 14t19 21.5t13 28t8 33t3.5 36t1.5 38t0 38.5v21v449q0 15 15 15t15 -15v-477v-45t-2.5 -44.5t-7.5 -46t-15 -37.5t-24.5 -33.5t-37.5 -20t-52 -8.5z" />
    <glyph glyph-name="circumflex" unicode="&#x2c6;" horiz-adv-x="600" 
d="M113 540q-12 0 -12 12q0 5 7 14l92 110q31 36 44 46.5t24 10.5q16 0 79 -73l80 -96q6 -9 6 -13q0 -11 -13 -11q-5 0 -11 7l-141 154h-2l-143 -157q-4 -4 -10 -4z" />
    <glyph glyph-name="caron" unicode="&#x2c7;" horiz-adv-x="600" 
d="M266 539q-16 0 -79 73l-80 96q-6 9 -6 13q0 11 13 11q5 0 11 -7l141 -154h2l143 157q4 4 10 4q12 0 12 -12q0 -5 -7 -14l-92 -110q-31 -36 -44 -46.5t-24 -10.5z" />
    <glyph glyph-name="breve" unicode="&#x2d8;" horiz-adv-x="600" 
d="M250 581q58 0 93.5 35t39.5 99q0 12 13 12q6 0 10 -4.5t4 -9.5q-5 -74 -48 -118t-112 -44q-70 0 -113.5 44t-48.5 118q0 5 4 9.5t10 4.5q13 0 13 -12q4 -64 40 -99t95 -35z" />
    <glyph glyph-name="dotaccent" unicode="&#x2d9;" horiz-adv-x="600" 
d="M142 585q-18 0 -30 12t-12 30t12 29.5t30 11.5q19 0 30 -11t11 -30q0 -18 -11.5 -30t-29.5 -12z" />
    <glyph glyph-name="ring" unicode="&#x2da;" horiz-adv-x="600" 
d="M213 546q-40 0 -65.5 26.5t-25.5 64.5q0 39 25 65t66 26q40 0 65.5 -26t25.5 -65q0 -38 -25.5 -64.5t-65.5 -26.5zM213 574q26 0 43.5 18.5t17.5 44.5q0 27 -17 45t-44 18t-44 -18t-17 -45t17 -45t44 -18z" />
    <glyph glyph-name="ogonek" unicode="&#x2db;" horiz-adv-x="600" 
d="M206 -246q-48 0 -79 29.5t-31 75.5q0 32 13 60.5t34 48t36.5 30.5t31.5 20q4 3 11 1q9 -4 9 -13q0 -8 -7 -12q-21 -10 -40.5 -24.5t-39.5 -44.5t-20 -64q0 -37 22.5 -58t59.5 -21q9 0 27 2q15 2 15 -14q0 -8 -9 -12q-11 -4 -33 -4z" />
    <glyph glyph-name="tilde" unicode="&#x2dc;" horiz-adv-x="474" 
d="M194 699q29 0 56 -17t43.5 -38t38 -38t41.5 -17q34 0 52 25t17 74q0 13 14 13q13 0 13 -13q0 -61 -25 -94t-68 -33q-26 0 -51.5 17t-42 38t-39.5 38t-45 17q-66 0 -66 -92q0 -13 -13 -13q-14 0 -14 13q0 51 21 85.5t68 34.5z" />
    <glyph glyph-name="hungarumlaut" unicode="&#x2dd;" horiz-adv-x="600" 
d="M123 540q-5 0 -9 3.5t-4 8.5q0 6 4 14l82 161q4 10 14 10q19 0 19 -16q0 -4 -3 -10l-86 -155q-8 -16 -17 -16zM309 540q-5 0 -9 3.5t-4 8.5q0 6 4 14l82 161q4 10 14 10q19 0 19 -16q0 -4 -3 -10l-86 -155q-8 -16 -17 -16z" />
    <glyph glyph-name="gravecomb" unicode="&#x300;" horiz-adv-x="0" 
d="M-247 742l153 -167q4 -4 4 -9q0 -13 -12 -13q-5 0 -9 4l-158 161q-5 5 -5 12q0 16 16 16q7 0 11 -4z" />
    <glyph glyph-name="acutecomb" unicode="&#x301;" horiz-adv-x="0" 
d="M-290 575l153 167q4 4 11 4q16 0 16 -16q0 -7 -5 -12l-158 -161q-4 -4 -9 -4q-12 0 -12 13q0 5 4 9z" />
    <glyph glyph-name="uni0302" unicode="&#x302;" horiz-adv-x="0" 
d="M-421 540q-12 0 -12 12q0 5 7 14l92 110q31 36 44 46.5t24 10.5q16 0 79 -73l80 -96q6 -9 6 -13q0 -11 -13 -11q-5 0 -11 7l-141 154h-2l-143 -157q-4 -4 -10 -4z" />
    <glyph glyph-name="tildecomb" unicode="&#x303;" horiz-adv-x="0" 
d="M-325 699q29 0 56 -17t43.5 -38t38 -38t41.5 -17q70 0 69 99q0 13 14 13q13 0 13 -13q0 -61 -25 -94t-68 -33q-26 0 -51.5 17t-42 38t-39.5 38t-45 17q-66 0 -66 -92q0 -13 -13 -13q-14 0 -14 13q0 51 21 85.5t68 34.5z" />
    <glyph glyph-name="uni0304" unicode="&#x304;" horiz-adv-x="0" 
d="M-113 612h-317q-5 0 -9.5 4t-4.5 10t4.5 10t9.5 4h317q5 0 9.5 -4t4.5 -10t-4.5 -10t-9.5 -4z" />
    <glyph glyph-name="uni0306" unicode="&#x306;" horiz-adv-x="0" 
d="M-250 581q58 0 93.5 35t39.5 99q0 12 13 12q6 0 10 -4.5t4 -9.5q-5 -74 -48 -118t-112 -44q-70 0 -113.5 44t-48.5 118q0 5 4 9.5t10 4.5q13 0 13 -12q4 -64 40 -99t95 -35z" />
    <glyph glyph-name="uni0307" unicode="&#x307;" horiz-adv-x="0" 
d="M-141 585q-18 0 -30 12t-12 30t12 29.5t30 11.5q19 0 30 -11t11 -30q0 -18 -11.5 -30t-29.5 -12z" />
    <glyph glyph-name="uni0308" unicode="&#x308;" horiz-adv-x="0" 
d="M-379 595q-18 0 -30 12t-12 30t12 29.5t30 11.5q19 0 30 -11t11 -30q0 -18 -11.5 -30t-29.5 -12zM-161 595q-18 0 -30 12t-12 30t12 29.5t30 11.5q19 0 30 -11t11 -30q0 -18 -11.5 -30t-29.5 -12z" />
    <glyph glyph-name="uni030A" unicode="&#x30a;" horiz-adv-x="0" 
d="M-210 546q-40 0 -65.5 26.5t-25.5 64.5q0 39 25 65t66 26q40 0 65.5 -26t25.5 -65q0 -38 -25.5 -64.5t-65.5 -26.5zM-210 574q26 0 43.5 18.5t17.5 44.5q0 27 -17 45t-44 18t-44 -18t-17 -45t17 -45t44 -18z" />
    <glyph glyph-name="uni030B" unicode="&#x30b;" horiz-adv-x="0" 
d="M-390 540q-5 0 -9 3.5t-4 8.5q0 6 4 14l82 161q4 10 14 10q19 0 19 -16q0 -4 -3 -10l-86 -155q-8 -16 -17 -16zM-204 540q-5 0 -9 3.5t-4 8.5q0 6 4 14l82 161q4 10 14 10q19 0 19 -16q0 -4 -3 -10l-86 -155q-8 -16 -17 -16z" />
    <glyph glyph-name="uni030C" unicode="&#x30c;" horiz-adv-x="0" 
d="M-268 539q-16 0 -79 73l-80 96q-6 9 -6 13q0 11 13 11q5 0 11 -7l141 -154h2l143 157q4 4 10 4q12 0 12 -12q0 -5 -7 -14l-92 -110q-31 -36 -44 -46.5t-24 -10.5z" />
    <glyph glyph-name="uni0326" unicode="&#x326;" horiz-adv-x="0" 
d="M-138 -186q-5 0 -9 4.5t-3 9.5q17 88 19 183q0 6 4.5 10.5t10.5 4.5q7 0 11.5 -4.5t4.5 -10.5q0 -105 -26 -189q-2 -8 -12 -8z" />
    <glyph glyph-name="uni0327" unicode="&#x327;" horiz-adv-x="0" 
d="M-219 -245q-66 0 -111 36q-6 5 -6 13q0 14 15 14q5 0 17 -9t34.5 -17.5t50.5 -8.5q43 0 67.5 18t24.5 53q0 62 -99 67q-17 1 -12 20l14 50q3 10 14 10q19 0 14 -18l-11 -38q4 0 11.5 -1t26.5 -6.5t33.5 -14t26.5 -27t12 -42.5q0 -49 -33 -74t-89 -25z" />
    <glyph glyph-name="uni0328" unicode="&#x328;" horiz-adv-x="0" 
d="M-177 -246q-48 0 -79 29.5t-31 75.5q0 32 13 60.5t34 48t36.5 30.5t31.5 20q4 3 11 1q9 -4 9 -13q0 -8 -7 -12q-21 -10 -40.5 -24.5t-39.5 -44.5t-20 -64q0 -37 22.5 -58t59.5 -21q9 0 27 2q15 2 15 -14q0 -8 -9 -12q-11 -4 -33 -4z" />
    <glyph glyph-name="Wgrave" unicode="&#x1e80;" horiz-adv-x="1060" 
d="M398 992l153 -167q4 -4 4 -9q0 -13 -12 -13q-5 0 -9 4l-158 161q-5 5 -5 12q0 16 16 16q7 0 11 -4zM280 -7q-20 0 -26 20l-211 688q-2 7 2.5 13.5t12.5 6.5q12 0 15 -11l206 -684h2l223 684q5 18 26 18t26 -18l223 -684h2l206 684q3 11 15 11q8 0 12.5 -6.5t2.5 -13.5
l-211 -688q-6 -20 -26 -20t-27 20l-222 680h-2l-222 -680q-7 -20 -27 -20z" />
    <glyph glyph-name="wgrave" unicode="&#x1e81;" horiz-adv-x="830" 
d="M283 762l153 -167q4 -4 4 -9q0 -13 -12 -13q-5 0 -9 4l-158 161q-5 5 -5 12q0 16 16 16q7 0 11 -4zM233 -7h-1q-20 0 -29 27l-159 457q-2 7 1.5 13.5t12.5 6.5q12 0 15 -10l159 -468h2l151 454q8 24 30 24h1q22 0 30 -25l150 -453h2l159 468q3 10 15 10q9 0 12.5 -6.5
t1.5 -13.5l-159 -457q-10 -27 -29 -27h-1q-22 0 -30 27l-151 451h-2l-151 -451q-8 -27 -30 -27z" />
    <glyph glyph-name="Wacute" unicode="&#x1e82;" horiz-adv-x="1060" 
d="M472 825l153 167q4 4 11 4q16 0 16 -16q0 -7 -5 -12l-158 -161q-4 -4 -9 -4q-12 0 -12 13q0 5 4 9zM280 -7q-20 0 -26 20l-211 688q-2 7 2.5 13.5t12.5 6.5q12 0 15 -11l206 -684h2l223 684q5 18 26 18t26 -18l223 -684h2l206 684q3 11 15 11q8 0 12.5 -6.5t2.5 -13.5
l-211 -688q-6 -20 -26 -20t-27 20l-222 680h-2l-222 -680q-7 -20 -27 -20z" />
    <glyph glyph-name="wacute" unicode="&#x1e83;" horiz-adv-x="830" 
d="M357 595l153 167q4 4 11 4q16 0 16 -16q0 -7 -5 -12l-158 -161q-4 -4 -9 -4q-12 0 -12 13q0 5 4 9zM233 -7h-1q-20 0 -29 27l-159 457q-2 7 1.5 13.5t12.5 6.5q12 0 15 -10l159 -468h2l151 454q8 24 30 24h1q22 0 30 -25l150 -453h2l159 468q3 10 15 10q9 0 12.5 -6.5
t1.5 -13.5l-159 -457q-10 -27 -29 -27h-1q-22 0 -30 27l-151 451h-2l-151 -451q-8 -27 -30 -27z" />
    <glyph glyph-name="Wdieresis" unicode="&#x1e84;" horiz-adv-x="1060" 
d="M421 835q-18 0 -30 12t-12 30t12 29.5t30 11.5q19 0 30 -11t11 -30q0 -18 -11.5 -30t-29.5 -12zM639 835q-18 0 -30 12t-12 30t12 29.5t30 11.5q19 0 30 -11t11 -30q0 -18 -11.5 -30t-29.5 -12zM280 -7q-20 0 -26 20l-211 688q-2 7 2.5 13.5t12.5 6.5q12 0 15 -11
l206 -684h2l223 684q5 18 26 18t26 -18l223 -684h2l206 684q3 11 15 11q8 0 12.5 -6.5t2.5 -13.5l-211 -688q-6 -20 -26 -20t-27 20l-222 680h-2l-222 -680q-7 -20 -27 -20z" />
    <glyph glyph-name="wdieresis" unicode="&#x1e85;" horiz-adv-x="830" 
d="M306 605q-18 0 -30 12t-12 30t12 29.5t30 11.5q19 0 30 -11t11 -30q0 -18 -11.5 -30t-29.5 -12zM524 605q-18 0 -30 12t-12 30t12 29.5t30 11.5q19 0 30 -11t11 -30q0 -18 -11.5 -30t-29.5 -12zM233 -7h-1q-20 0 -29 27l-159 457q-2 7 1.5 13.5t12.5 6.5q12 0 15 -10
l159 -468h2l151 454q8 24 30 24h1q22 0 30 -25l150 -453h2l159 468q3 10 15 10q9 0 12.5 -6.5t1.5 -13.5l-159 -457q-10 -27 -29 -27h-1q-22 0 -30 27l-151 451h-2l-151 -451q-8 -27 -30 -27z" />
    <glyph glyph-name="uni1E9E" unicode="&#x1e9e;" horiz-adv-x="678" 
d="M111 8v493q0 112 64.5 173t172.5 61q89 0 149 -52t60 -132q0 -56 -30.5 -104t-76.5 -60v-2q59 -5 112 -54.5t53 -134.5q0 -103 -63 -157t-170 -54q-53 0 -97.5 10.5t-63.5 25.5q-7 6 -7 14q0 14 15 14q6 0 22.5 -9t49.5 -18t80 -9q91 0 147.5 45.5t56.5 136.5
q0 83 -55.5 128t-146.5 45h-10q-15 0 -15 14t15 14h10q65 0 104.5 46t39.5 109q0 68 -50.5 112t-128.5 44q-94 0 -150.5 -54t-56.5 -152v-493q0 -15 -15 -15t-15 15z" />
    <glyph glyph-name="Ygrave" unicode="&#x1ef2;" horiz-adv-x="666" 
d="M201 1003l153 -167q4 -4 4 -9q0 -13 -12 -13q-5 0 -9 4l-158 161q-5 5 -5 12q0 16 16 16q7 0 11 -4zM333 -7q-15 0 -15 15v284l-270 412q-3 5 -3 9q0 6 5 10.5t12 4.5q6 0 12 -9l258 -395h2l258 395q6 9 12 9q7 0 12 -4.5t5 -10.5q0 -4 -3 -9l-270 -412v-284
q0 -15 -15 -15z" />
    <glyph glyph-name="ygrave" unicode="&#x1ef3;" horiz-adv-x="536" 
d="M135 762l153 -167q4 -4 4 -9q0 -13 -12 -13q-5 0 -9 4l-158 161q-5 5 -5 12q0 16 16 16q7 0 11 -4zM100 -230q-17 0 -30 3q-11 3 -11 14q0 16 16 13q11 -2 25 -2q13 0 25 4t23 12.5t20 17t18.5 23.5t16 25.5t15 29t12.5 28t12 29t11 25.5l-208 484q-3 6 1.5 13.5
t13.5 7.5t15 -13l194 -450h2l194 454q5 9 14 9q8 0 12.5 -6.5t1.5 -14.5l-206 -485q-19 -45 -29.5 -68.5t-30 -58t-36 -51.5t-40.5 -30t-51 -13z" />
    <glyph glyph-name="uni1EF8" unicode="&#x1ef8;" horiz-adv-x="666" 
d="M234 960q29 0 56 -17t43.5 -38t38 -38t41.5 -17q34 0 52 25t17 74q0 13 14 13q13 0 13 -13q0 -61 -25 -94t-68 -33q-26 0 -51.5 17t-42 38t-39.5 38t-45 17q-66 0 -66 -92q0 -13 -13 -13q-14 0 -14 13q0 51 21 85.5t68 34.5zM333 -7q-15 0 -15 15v284l-270 412q-3 5 -3 9
q0 6 5 10.5t12 4.5q6 0 12 -9l258 -395h2l258 395q6 9 12 9q7 0 12 -4.5t5 -10.5q0 -4 -3 -9l-270 -412v-284q0 -15 -15 -15z" />
    <glyph glyph-name="uni1EF9" unicode="&#x1ef9;" horiz-adv-x="536" 
d="M168 719q29 0 56 -17t43.5 -38t38 -38t41.5 -17q34 0 52 25t17 74q0 13 14 13q13 0 13 -13q0 -61 -25 -94t-68 -33q-26 0 -51.5 17t-42 38t-39.5 38t-45 17q-66 0 -66 -92q0 -13 -13 -13q-14 0 -14 13q0 51 21 85.5t68 34.5zM100 -230q-17 0 -30 3q-11 3 -11 14
q0 16 16 13q11 -2 25 -2q13 0 25 4t23 12.5t20 17t18.5 23.5t16 25.5t15 29t12.5 28t12 29t11 25.5l-208 484q-3 6 1.5 13.5t13.5 7.5t15 -13l194 -450h2l194 454q5 9 14 9q8 0 12.5 -6.5t1.5 -14.5l-206 -485q-19 -45 -29.5 -68.5t-30 -58t-36 -51.5t-40.5 -30t-51 -13z
" />
    <glyph glyph-name="endash" unicode="&#x2013;" horiz-adv-x="652" 
d="M554 230h-455q-5 0 -9.5 4t-4.5 10t4.5 10t9.5 4h455q5 0 9.5 -4t4.5 -10t-4.5 -10t-9.5 -4z" />
    <glyph glyph-name="emdash" unicode="&#x2014;" horiz-adv-x="915" 
d="M817 230h-718q-5 0 -9.5 4t-4.5 10t4.5 10t9.5 4h718q5 0 9.5 -4t4.5 -10t-4.5 -10t-9.5 -4z" />
    <glyph glyph-name="quoteleft" unicode="&#x2018;" horiz-adv-x="203" 
d="M94 494q-7 0 -11.5 4.5t-4.5 10.5q2 114 32 204q4 8 12 8q6 0 9.5 -4t2.5 -10q-22 -104 -25 -198q0 -6 -4.5 -10.5t-10.5 -4.5z" />
    <glyph glyph-name="quoteright" unicode="&#x2019;" horiz-adv-x="202" 
d="M87 494q-6 0 -9.5 4t-2.5 10q22 104 25 198q0 6 4.5 10.5t10.5 4.5q7 0 11.5 -4.5t4.5 -10.5q-2 -114 -32 -204q-4 -8 -12 -8z" />
    <glyph glyph-name="quotesinglbase" unicode="&#x201a;" horiz-adv-x="164" 
d="M56 -203q-6 0 -9.5 4.5t-2.5 11.5q22 104 25 198q0 15 15 15q16 0 16 -15q-2 -114 -32 -204q-4 -10 -12 -10z" />
    <glyph glyph-name="quotedblleft" unicode="&#x201c;" horiz-adv-x="373" 
d="M94 494q-7 0 -11.5 4.5t-4.5 10.5q2 114 32 204q4 8 12 8q6 0 9.5 -4t2.5 -10q-22 -104 -25 -198q0 -6 -4.5 -10.5t-10.5 -4.5zM264 494q-7 0 -11.5 4.5t-4.5 10.5q2 114 32 204q4 8 12 8q6 0 9.5 -4t2.5 -10q-22 -104 -25 -198q0 -6 -4.5 -10.5t-10.5 -4.5z" />
    <glyph glyph-name="quotedblright" unicode="&#x201d;" horiz-adv-x="372" 
d="M87 494q-6 0 -9.5 4t-2.5 10q22 104 25 198q0 6 4.5 10.5t10.5 4.5q7 0 11.5 -4.5t4.5 -10.5q-2 -114 -32 -204q-4 -8 -12 -8zM257 494q-6 0 -9.5 4t-2.5 10q22 104 25 198q0 6 4.5 10.5t10.5 4.5q7 0 11.5 -4.5t4.5 -10.5q-2 -114 -32 -204q-4 -8 -12 -8z" />
    <glyph glyph-name="quotedblbase" unicode="&#x201e;" horiz-adv-x="334" 
d="M56 -201q-6 0 -9.5 4t-2.5 10q22 104 25 198q0 6 4.5 10.5t10.5 4.5q7 0 11.5 -4.5t4.5 -10.5q-2 -114 -32 -204q-4 -8 -12 -8zM226 -201q-6 0 -9.5 4t-2.5 10q22 104 25 198q0 6 4.5 10.5t10.5 4.5q7 0 11.5 -4.5t4.5 -10.5q-2 -114 -32 -204q-4 -8 -12 -8z" />
    <glyph glyph-name="dagger" unicode="&#x2020;" horiz-adv-x="522" 
d="M261 -7q-6 0 -10.5 4.5t-4.5 10.5v475h-199q-5 0 -9.5 4t-4.5 10t4.5 10t9.5 4h199v202q0 6 4.5 10.5t10.5 4.5t10.5 -4.5t4.5 -10.5v-202h199q5 0 9.5 -4t4.5 -10t-4.5 -10t-9.5 -4h-199v-475q0 -6 -4.5 -10.5t-10.5 -4.5z" />
    <glyph glyph-name="daggerdbl" unicode="&#x2021;" horiz-adv-x="576" 
d="M288 -7q-6 0 -10.5 4.5t-4.5 10.5v201h-199q-5 0 -9.5 4t-4.5 10t4.5 10t9.5 4h199v246h-199q-5 0 -9.5 4t-4.5 10t4.5 10t9.5 4h199v202q0 6 4.5 10.5t10.5 4.5t10.5 -4.5t4.5 -10.5v-202h199q5 0 9.5 -4t4.5 -10t-4.5 -10t-9.5 -4h-199v-246h199q5 0 9.5 -4t4.5 -10
t-4.5 -10t-9.5 -4h-199v-201q0 -6 -4.5 -10.5t-10.5 -4.5z" />
    <glyph glyph-name="bullet" unicode="&#x2022;" horiz-adv-x="311" 
d="M154 199q-20 0 -33.5 14t-13.5 37q0 22 13.5 35.5t33.5 13.5q22 0 36 -13.5t14 -35.5q0 -24 -14 -37.5t-36 -13.5z" />
    <glyph glyph-name="ellipsis" unicode="&#x2026;" horiz-adv-x="765" 
d="M647 -14q-16 0 -26.5 11t-10.5 29q0 17 10.5 27.5t26.5 10.5q17 0 28 -10.5t11 -27.5q0 -18 -11 -29t-28 -11zM116 -15q-16 0 -26.5 11t-10.5 29q0 17 10.5 27.5t26.5 10.5q17 0 28 -10.5t11 -27.5q0 -18 -11 -29t-28 -11zM390 -15q-16 0 -26.5 11t-10.5 29
q0 17 10.5 27.5t26.5 10.5q17 0 28 -10.5t11 -27.5q0 -18 -11 -29t-28 -11z" />
    <glyph glyph-name="perthousand" unicode="&#x2030;" horiz-adv-x="1282" 
d="M242 1q-5 -8 -12 -8q-6 0 -11 4t-5 10q0 5 3 9l432 703q5 9 13 9q16 0 16 -13q0 -3 -3 -9zM197 366q-72 0 -114.5 49.5t-42.5 128.5q0 76 43 126t114 50q70 0 113.5 -50t43.5 -126q0 -79 -43 -128.5t-114 -49.5zM197 394q60 0 93.5 42.5t33.5 107.5q0 62 -34 105t-93 43
q-60 0 -93.5 -42.5t-33.5 -105.5q0 -66 33.5 -108t93.5 -42zM672 -16q-71 0 -113.5 49.5t-42.5 128.5q0 76 42.5 126t113.5 50t114 -50t43 -126q0 -79 -43 -128.5t-114 -49.5zM1086 -16q-71 0 -114 49.5t-43 128.5q0 76 43 126t114 50t114 -50t43 -126q0 -79 -43 -128.5
t-114 -49.5zM672 12q60 0 93.5 42t33.5 108q0 62 -33.5 105t-93.5 43t-93.5 -42.5t-33.5 -105.5q0 -65 33.5 -107.5t93.5 -42.5zM1086 12q60 0 93.5 42t33.5 108q0 62 -33.5 105t-93.5 43t-93.5 -42.5t-33.5 -105.5q0 -65 33.5 -107.5t93.5 -42.5z" />
    <glyph glyph-name="guilsinglleft" unicode="&#x2039;" horiz-adv-x="254" 
d="M65 263l86 162q6 10 14 10q14 0 14 -13q0 -4 -3 -10l-86 -161l86 -161q3 -6 3 -10q0 -13 -14 -13q-8 0 -14 10l-86 162q-3 6 -3 12t3 12z" />
    <glyph glyph-name="guilsinglright" unicode="&#x203a;" horiz-adv-x="254" 
d="M103 425l86 -162q3 -6 3 -12t-3 -12l-86 -162q-6 -10 -14 -10q-14 0 -14 13q0 4 3 10l86 161l-86 161q-3 6 -3 10q0 13 14 13q8 0 14 -10z" />
    <glyph glyph-name="fraction" unicode="&#x2044;" horiz-adv-x="357" 
d="M41 -3q-5 -12 -15 -12q-15 0 -15 13q0 4 3 11l300 712q6 14 16 14q15 0 15 -14q0 -5 -3 -12z" />
    <glyph glyph-name="Euro" unicode="&#x20ac;" horiz-adv-x="633" 
d="M546 162q15 0 15 -13q0 -7 -7 -13q-58 -48 -151 -48q-98 0 -163 51.5t-85 143.5h-84q-5 0 -9.5 4t-4.5 10t4.5 10t9.5 4h79q-3 23 -3 48q0 27 3 52h-79q-5 0 -9.5 4t-4.5 10t4.5 10t9.5 4h85q20 89 83 139.5t155 50.5q93 0 151 -48q7 -6 7 -13q0 -13 -15 -13
q-6 0 -22.5 11.5t-47.5 23t-73 11.5q-77 0 -132 -43t-74 -119h237q5 0 9.5 -4t4.5 -10t-4.5 -10t-9.5 -4h-243q-4 -21 -4 -52q0 -25 3 -48h244q5 0 9.5 -4t4.5 -10t-4.5 -10t-9.5 -4h-239q18 -79 74.5 -123t142.5 -44q42 0 73 11.5t47.5 23t22.5 11.5z" />
    <glyph glyph-name="trademark" unicode="&#x2122;" horiz-adv-x="1071" 
d="M725 259q-18 0 -30 28l-183 407h-2v-421q0 -15 -15 -15t-15 15v425q0 30 29 30q20 0 31 -23l184 -419h2l184 419q11 23 31 23q29 0 29 -30v-425q0 -15 -15 -15t-15 15v421h-2l-183 -407q-12 -28 -30 -28zM183 273v419h-136q-5 0 -9.5 4t-4.5 10t4.5 10t9.5 4h301
q5 0 9.5 -4t4.5 -10t-4.5 -10t-9.5 -4h-135v-419q0 -15 -15 -15t-15 15z" />
    <glyph glyph-name="minus" unicode="&#x2212;" horiz-adv-x="521" 
d="M420 341h-319q-5 0 -9.5 4t-4.5 10t4.5 10t9.5 4h319q5 0 9.5 -4t4.5 -10t-4.5 -10t-9.5 -4z" />
    <glyph glyph-name="approxequal" unicode="&#x2248;" horiz-adv-x="609" 
d="M423 429q73 0 72 99q0 13 14 13q13 0 13 -13q0 -61 -25.5 -94t-70.5 -33q-31 0 -63 17t-55.5 38t-56 38t-63.5 17q-70 0 -70 -92q0 -13 -13 -13q-14 0 -14 13q0 52 21.5 86t71.5 34q46 0 90.5 -27.5t82 -55t66.5 -27.5zM423 200q73 0 72 99q0 13 14 13q13 0 13 -13
q0 -61 -25.5 -94t-70.5 -33q-31 0 -63 17t-55.5 38t-56 38t-63.5 17q-70 0 -70 -92q0 -13 -13 -13q-14 0 -14 13q0 52 21.5 86t71.5 34q46 0 90.5 -27.5t82 -55t66.5 -27.5z" />
    <glyph glyph-name="notequal" unicode="&#x2260;" horiz-adv-x="541" 
d="M434 273q5 0 9.5 -4t4.5 -10t-4.5 -10t-9.5 -4h-193l-42 -137q-3 -10 -14 -10q-8 0 -12.5 6t-2.5 13l39 128h-114q-5 0 -9.5 4t-4.5 10t4.5 10t9.5 4h123l53 173h-176q-5 0 -9.5 4t-4.5 10t4.5 10t9.5 4h184l40 129q3 11 15 11q8 0 12.5 -6.5t2.5 -13.5l-37 -120h122
q5 0 9.5 -4t4.5 -10t-4.5 -10t-9.5 -4h-131l-53 -173h184z" />
    <glyph glyph-name="uniF8FF" unicode="&#xf8ff;" horiz-adv-x="1427" 
d="M741 540q-26 0 -44 18t-18 42q0 27 17.5 44t44.5 17q24 0 41.5 -17.5t17.5 -43.5q0 -24 -18 -42t-41 -18zM207 601q0 -8 3 -57.5t5 -116.5t2 -135h-117q0 157 8 309h99zM798 292h-116q0 109 2 146h-58l3 -66q2 -1 14 -1q16 0 20 2v-70q-15 -16 -69 -16q-80 0 -80 66
q0 11 2 47.5t2 37.5h-21v78l117 29l1 -17h173q10 -64 10 -236zM396 354q-11 -66 -72 -66q-91 0 -91 112q0 133 132 133q120 0 120 -116v-125h-80zM1068 430l3 -138h-111q0 26 1 56.5t1 36.5q0 28 -14 28q-9 0 -13 -4t-5 -9t-1 -15q0 -6 1 -36.5t1 -56.5h-110q0 169 9 236h79
q5 -52 5 -74q2 14 6.5 29t23.5 32.5t48 17.5q42 0 58 -24.5t18 -78.5zM1208 533q119 0 119 -121q0 -124 -121 -124q-120 0 -120 122q0 123 122 123zM361 368q23 0 23 28q0 26 -23 26q-21 0 -21 -26q0 -28 21 -28zM1206 368q24 0 24 28q0 26 -24 26q-21 0 -21 -26
q0 -28 21 -28zM422 147v117h101q12 -66 12 -138q0 -78 -33.5 -112t-117.5 -34q-60 0 -86 16v81q19 -13 69 -13q21 0 34 5.5t16 10t3 8.5q-12 -10 -48 -10q-89 0 -89 83v11h-54l3 -63q6 -4 16 -4q12 0 17 5v-71q-15 -15 -68 -15q-43 0 -60.5 16.5t-17.5 51.5q0 44 3 80h-18
v79l115 28l-1 -15h173v-117q0 -17 2.5 -22.5t12.5 -5.5q9 0 12.5 6t3.5 22zM642 187q18 82 79 82q35 0 56.5 -29.5t21.5 -82.5q0 -133 -135 -133q1 -16 1 -39h-115q0 134 10 279h76q6 -42 6 -77zM938 269q54 0 84 -30t30 -85q0 -23 -3 -35h-122q9 -17 48 -17q35 0 56 11v-73
q-25 -16 -77 -16q-139 0 -139 121q0 57 33 90.5t90 33.5zM922 136h40q2 27 -16 27q-24 0 -24 -27zM656 127q0 -12 5 -27q4 0 11 2t15.5 11t8.5 23q0 23 -21 23q-19 0 -19 -32zM1078 65q-10 0 -16.5 -6.5t-6.5 -16.5q0 -22 23 -22q24 0 24 22q0 23 -24 23zM1078 24
q-17 0 -17 18q0 19 17 19q18 0 18 -19q0 -18 -18 -18zM1082 31h6l-6 9q7 0 7 6q0 8 -10 8h-10v-23h5v9h4zM1084 46q0 -3 -4 -3h-6v6h6q4 0 4 -3z" />
    <glyph glyph-name="A.fina" horiz-adv-x="1172" 
d="M1066 343q56 -95 56 -190q0 -119 -62.5 -183.5t-167.5 -64.5q-112 0 -188 79t-155 254h-386l-97 -236q-4 -9 -14 -9t-14 6.5t0 14.5l285 689q7 15 13 20t17 5q14 0 20 -6t13 -25l125 -300q36 -86 60.5 -140t55.5 -113t57.5 -93t59.5 -63.5t69 -42t79 -12.5q90 0 144.5 58
t54.5 162q0 89 -50 171q-4 7 -4 11q0 6 5.5 10.5t11.5 4.5q8 0 12 -7zM174 266h362l-52 122l-130 311h-2z" />
    <glyph glyph-name="Aacute.fina" horiz-adv-x="1172" 
d="M305 803q-12 0 -12 13q0 5 4 9l153 167q4 4 11 4q16 0 16 -16q0 -7 -5 -12l-158 -161q-4 -4 -9 -4zM1066 343q56 -95 56 -190q0 -119 -62.5 -183.5t-167.5 -64.5q-112 0 -188 79t-155 254h-386l-97 -236q-4 -9 -14 -9t-14 6.5t0 14.5l285 689q7 15 13 20t17 5q14 0 20 -6
t13 -25l125 -300q36 -86 60.5 -140t55.5 -113t57.5 -93t59.5 -63.5t69 -42t79 -12.5q90 0 144.5 58t54.5 162q0 89 -50 171q-4 7 -4 11q0 6 5.5 10.5t11.5 4.5q8 0 12 -7zM174 266h362l-52 122l-130 311h-2z" />
    <glyph glyph-name="Abreve.fina" horiz-adv-x="1172" 
d="M355 801q-70 0 -113.5 44t-48.5 118q0 5 4 9.5t10 4.5q13 0 13 -12q4 -64 40 -99t95 -35q58 0 93.5 35t39.5 99q0 12 13 12q6 0 10 -4.5t4 -9.5q-5 -74 -48 -118t-112 -44zM1066 343q56 -95 56 -190q0 -119 -62.5 -183.5t-167.5 -64.5q-112 0 -188 79t-155 254h-386
l-97 -236q-4 -9 -14 -9t-14 6.5t0 14.5l285 689q7 15 13 20t17 5q14 0 20 -6t13 -25l125 -300q36 -86 60.5 -140t55.5 -113t57.5 -93t59.5 -63.5t69 -42t79 -12.5q90 0 144.5 58t54.5 162q0 89 -50 171q-4 7 -4 11q0 6 5.5 10.5t11.5 4.5q8 0 12 -7zM174 266h362l-52 122
l-130 311h-2z" />
    <glyph glyph-name="Acircumflex.fina" horiz-adv-x="1172" 
d="M210 790q-12 0 -12 12q0 5 7 14l92 110q31 36 44 46.5t24 10.5q16 0 79 -73l80 -96q6 -9 6 -13q0 -11 -13 -11q-5 0 -11 7l-141 154h-2l-143 -157q-4 -4 -10 -4zM1066 343q56 -95 56 -190q0 -119 -62.5 -183.5t-167.5 -64.5q-112 0 -188 79t-155 254h-386l-97 -236
q-4 -9 -14 -9t-14 6.5t0 14.5l285 689q7 15 13 20t17 5q14 0 20 -6t13 -25l125 -300q36 -86 60.5 -140t55.5 -113t57.5 -93t59.5 -63.5t69 -42t79 -12.5q90 0 144.5 58t54.5 162q0 89 -50 171q-4 7 -4 11q0 6 5.5 10.5t11.5 4.5q8 0 12 -7zM174 266h362l-52 122l-130 311h-2
z" />
    <glyph glyph-name="Adieresis.fina" horiz-adv-x="1172" 
d="M246 835q-18 0 -30 12t-12 30t12 29.5t30 11.5q19 0 30 -11t11 -30q0 -18 -11.5 -30t-29.5 -12zM464 835q-18 0 -30 12t-12 30t12 29.5t30 11.5q19 0 30 -11t11 -30q0 -18 -11.5 -30t-29.5 -12zM1066 343q56 -95 56 -190q0 -119 -62.5 -183.5t-167.5 -64.5
q-112 0 -188 79t-155 254h-386l-97 -236q-4 -9 -14 -9t-14 6.5t0 14.5l285 689q7 15 13 20t17 5q14 0 20 -6t13 -25l125 -300q36 -86 60.5 -140t55.5 -113t57.5 -93t59.5 -63.5t69 -42t79 -12.5q90 0 144.5 58t54.5 162q0 89 -50 171q-4 7 -4 11q0 6 5.5 10.5t11.5 4.5
q8 0 12 -7zM174 266h362l-52 122l-130 311h-2z" />
    <glyph glyph-name="Agrave.fina" horiz-adv-x="1172" 
d="M359 807l-158 161q-5 5 -5 12q0 16 16 16q7 0 11 -4l153 -167q4 -4 4 -9q0 -13 -12 -13q-5 0 -9 4zM1066 343q56 -95 56 -190q0 -119 -62.5 -183.5t-167.5 -64.5q-112 0 -188 79t-155 254h-386l-97 -236q-4 -9 -14 -9t-14 6.5t0 14.5l285 689q7 15 13 20t17 5q14 0 20 -6
t13 -25l125 -300q36 -86 60.5 -140t55.5 -113t57.5 -93t59.5 -63.5t69 -42t79 -12.5q90 0 144.5 58t54.5 162q0 89 -50 171q-4 7 -4 11q0 6 5.5 10.5t11.5 4.5q8 0 12 -7zM174 266h362l-52 122l-130 311h-2z" />
    <glyph glyph-name="Amacron.fina" horiz-adv-x="1172" 
d="M196 862q-5 0 -9.5 4t-4.5 10t4.5 10t9.5 4h317q5 0 9.5 -4t4.5 -10t-4.5 -10t-9.5 -4h-317zM1066 343q56 -95 56 -190q0 -119 -62.5 -183.5t-167.5 -64.5q-112 0 -188 79t-155 254h-386l-97 -236q-4 -9 -14 -9t-14 6.5t0 14.5l285 689q7 15 13 20t17 5q14 0 20 -6
t13 -25l125 -300q36 -86 60.5 -140t55.5 -113t57.5 -93t59.5 -63.5t69 -42t79 -12.5q90 0 144.5 58t54.5 162q0 89 -50 171q-4 7 -4 11q0 6 5.5 10.5t11.5 4.5q8 0 12 -7zM174 266h362l-52 122l-130 311h-2z" />
    <glyph glyph-name="Aogonek.fina" horiz-adv-x="1172" 
d="M979 -81q-99 -51 -99 -133q0 -37 22.5 -58t59.5 -21q9 0 27 2q15 2 15 -14q0 -7 -9 -12q-11 -4 -33 -4q-48 0 -79 29.5t-31 75.5q0 69 61 122q-7 -1 -21 -1q-112 0 -188 79t-155 254h-386l-97 -236q-4 -9 -14 -9t-14 6.5t0 14.5l285 689q7 15 13 20t17 5q14 0 20 -6
t13 -25l125 -300q36 -86 60.5 -140t55.5 -113t57.5 -93t59.5 -63.5t69 -42t79 -12.5q90 0 144.5 58t54.5 162q0 89 -50 171q-4 7 -4 11q0 6 5.5 10.5t11.5 4.5q8 0 12 -7q56 -95 56 -190q0 -92 -37.5 -151.5t-105.5 -82.5zM174 266h362l-52 122l-130 311h-2z" />
    <glyph glyph-name="Aring.fina" horiz-adv-x="1172" 
d="M356 796q-40 0 -65.5 26.5t-25.5 64.5q0 39 25 65t66 26q40 0 65.5 -26t25.5 -65q0 -38 -25.5 -64.5t-65.5 -26.5zM356 950q-27 0 -44 -18t-17 -45t17 -45t44 -18q26 0 43.5 18.5t17.5 44.5q0 27 -17 45t-44 18zM1066 343q56 -95 56 -190q0 -119 -62.5 -183.5
t-167.5 -64.5q-112 0 -188 79t-155 254h-386l-97 -236q-4 -9 -14 -9t-14 6.5t0 14.5l285 689q7 15 13 20t17 5q14 0 20 -6t13 -25l125 -300q36 -86 60.5 -140t55.5 -113t57.5 -93t59.5 -63.5t69 -42t79 -12.5q90 0 144.5 58t54.5 162q0 89 -50 171q-4 7 -4 11q0 6 5.5 10.5
t11.5 4.5q8 0 12 -7zM174 266h362l-52 122l-130 311h-2z" />
    <glyph glyph-name="H.fina" horiz-adv-x="1182" 
d="M1136 126q0 -102 -62 -161.5t-158 -59.5q-252 0 -252 319v122h-515v-338q0 -15 -15 -15t-15 15v705q0 15 15 15t15 -15v-339h515v339q0 15 15 15t15 -15v-489q0 -291 222 -291q83 0 136 51.5t53 141.5q0 89 -50 171q-4 7 -4 11q0 6 5.5 10.5t11.5 4.5q8 0 12 -7
q56 -95 56 -190z" />
    <glyph glyph-name="K.fina" horiz-adv-x="1112" 
d="M1063 156q0 -116 -66.5 -183.5t-170.5 -67.5q-150 0 -251 102t-201 343h-225v-342q0 -15 -15 -15t-15 15v705q0 15 15 15t15 -15v-335h227l251 344q5 6 11 6t10.5 -4.5t4.5 -9.5q0 -4 -3 -9l-250 -342q96 -229 192 -329.5t234 -100.5q90 0 148 60.5t58 162.5
q0 89 -50 171q-4 7 -4 11q0 6 5.5 10.5t11.5 4.5q8 0 12 -7q56 -95 56 -190z" />
    <glyph glyph-name="uni0136.fina" horiz-adv-x="1112" 
d="M1063 156q0 -116 -66.5 -183.5t-170.5 -67.5q-150 0 -251 102t-201 343h-225v-342q0 -15 -15 -15t-15 15v705q0 15 15 15t15 -15v-335h227l251 344q5 6 11 6t10.5 -4.5t4.5 -9.5q0 -4 -3 -9l-250 -342q96 -229 192 -329.5t234 -100.5q90 0 148 60.5t58 162.5
q0 89 -50 171q-4 7 -4 11q0 6 5.5 10.5t11.5 4.5q8 0 12 -7q56 -95 56 -190zM333 -256q-5 0 -9 4.5t-3 9.5q17 88 19 183q0 6 4.5 10.5t10.5 4.5q7 0 11.5 -4.5t4.5 -10.5q0 -105 -26 -189q-2 -8 -12 -8z" />
    <glyph glyph-name="N.fina" horiz-adv-x="1185" 
d="M1138 593q0 -95 -56 -190q-4 -7 -12 -7q-6 0 -11.5 4.5t-5.5 10.5q0 4 4 11q50 82 50 171q0 90 -53.5 141.5t-137.5 51.5q-220 0 -220 -291v-481q0 -21 -22 -21q-12 0 -28 21l-495 669h-2v-675q0 -15 -15 -15t-15 15v699q0 21 22 21q11 0 28 -21l495 -669h2v457
q0 319 250 319q96 0 159 -59.5t63 -161.5z" />
    <glyph glyph-name="Nacute.fina" horiz-adv-x="1185" 
d="M365 825l153 167q4 4 11 4q16 0 16 -16q0 -7 -5 -12l-158 -161q-4 -4 -9 -4q-12 0 -12 13q0 5 4 9zM1138 593q0 -95 -56 -190q-4 -7 -12 -7q-6 0 -11.5 4.5t-5.5 10.5q0 4 4 11q50 82 50 171q0 90 -53.5 141.5t-137.5 51.5q-220 0 -220 -291v-481q0 -21 -22 -21
q-12 0 -28 21l-495 669h-2v-675q0 -15 -15 -15t-15 15v699q0 21 22 21q11 0 28 -21l495 -669h2v457q0 319 250 319q96 0 159 -59.5t63 -161.5z" />
    <glyph glyph-name="Ncaron.fina" horiz-adv-x="1185" 
d="M431 789q-16 0 -79 73l-80 96q-6 9 -6 13q0 11 13 11q5 0 11 -7l141 -154h2l143 157q4 4 10 4q12 0 12 -12q0 -5 -7 -14l-92 -110q-31 -36 -44 -46.5t-24 -10.5zM1138 593q0 -95 -56 -190q-4 -7 -12 -7q-6 0 -11.5 4.5t-5.5 10.5q0 4 4 11q50 82 50 171q0 90 -53.5 141.5
t-137.5 51.5q-220 0 -220 -291v-481q0 -21 -22 -21q-12 0 -28 21l-495 669h-2v-675q0 -15 -15 -15t-15 15v699q0 21 22 21q11 0 28 -21l495 -669h2v457q0 319 250 319q96 0 159 -59.5t63 -161.5z" />
    <glyph glyph-name="uni0145.fina" horiz-adv-x="1185" 
d="M1138 593q0 -95 -56 -190q-4 -7 -12 -7q-6 0 -11.5 4.5t-5.5 10.5q0 4 4 11q50 82 50 171q0 90 -53.5 141.5t-137.5 51.5q-220 0 -220 -291v-481q0 -21 -22 -21q-12 0 -28 21l-495 669h-2v-675q0 -15 -15 -15t-15 15v699q0 21 22 21q11 0 28 -21l495 -669h2v457
q0 319 250 319q96 0 159 -59.5t63 -161.5zM372 -256q-5 0 -9 4.5t-3 9.5q17 88 19 183q0 6 4.5 10.5t10.5 4.5q7 0 11.5 -4.5t4.5 -10.5q0 -105 -26 -189q-2 -8 -12 -8z" />
    <glyph glyph-name="Ntilde.fina" horiz-adv-x="1185" 
d="M324 949q29 0 56 -17t43.5 -38t38 -38t41.5 -17q34 0 52 25t17 74q0 13 14 13q13 0 13 -13q0 -61 -25 -94t-68 -33q-26 0 -51.5 17t-42 38t-39.5 38t-45 17q-66 0 -66 -92q0 -13 -13 -13q-14 0 -14 13q0 51 21 85.5t68 34.5zM1138 593q0 -95 -56 -190q-4 -7 -12 -7
q-6 0 -11.5 4.5t-5.5 10.5q0 4 4 11q50 82 50 171q0 90 -53.5 141.5t-137.5 51.5q-220 0 -220 -291v-481q0 -21 -22 -21q-12 0 -28 21l-495 669h-2v-675q0 -15 -15 -15t-15 15v699q0 21 22 21q11 0 28 -21l495 -669h2v457q0 319 250 319q96 0 159 -59.5t63 -161.5z" />
    <glyph glyph-name="R.fina" horiz-adv-x="1058" 
d="M1009 156q0 -116 -66.5 -183.5t-170.5 -67.5q-67 0 -120.5 26.5t-96 81.5t-75 122.5t-67.5 166.5h-264v-294q0 -15 -15 -15t-15 15v705q0 15 15 15h221q61 0 106 -9t83 -31.5t58 -66t20 -106.5q0 -92 -52 -149t-125 -63q31 -89 60 -150.5t68 -114.5t88.5 -79t110.5 -26
q90 0 148 60.5t58 162.5q0 89 -50 171q-4 7 -4 11q0 6 5.5 10.5t11.5 4.5q8 0 12 -7q56 -95 56 -190zM149 700v-370h277q66 0 116 51.5t50 133.5q0 105 -61 145t-175 40h-207z" />
    <glyph glyph-name="Racute.fina" horiz-adv-x="1058" 
d="M299 823l153 167q4 4 11 4q16 0 16 -16q0 -7 -5 -12l-158 -161q-4 -4 -9 -4q-12 0 -12 13q0 5 4 9zM1009 156q0 -116 -66.5 -183.5t-170.5 -67.5q-67 0 -120.5 26.5t-96 81.5t-75 122.5t-67.5 166.5h-264v-294q0 -15 -15 -15t-15 15v705q0 15 15 15h221q61 0 106 -9
t83 -31.5t58 -66t20 -106.5q0 -92 -52 -149t-125 -63q31 -89 60 -150.5t68 -114.5t88.5 -79t110.5 -26q90 0 148 60.5t58 162.5q0 89 -50 171q-4 7 -4 11q0 6 5.5 10.5t11.5 4.5q8 0 12 -7q56 -95 56 -190zM149 700v-370h277q66 0 116 51.5t50 133.5q0 105 -61 145t-175 40
h-207z" />
    <glyph glyph-name="Rcaron.fina" horiz-adv-x="1058" 
d="M365 787q-16 0 -79 73l-80 96q-6 9 -6 13q0 11 13 11q5 0 11 -7l141 -154h2l143 157q4 4 10 4q12 0 12 -12q0 -5 -7 -14l-92 -110q-31 -36 -44 -46.5t-24 -10.5zM1009 156q0 -116 -66.5 -183.5t-170.5 -67.5q-67 0 -120.5 26.5t-96 81.5t-75 122.5t-67.5 166.5h-264v-294
q0 -15 -15 -15t-15 15v705q0 15 15 15h221q61 0 106 -9t83 -31.5t58 -66t20 -106.5q0 -92 -52 -149t-125 -63q31 -89 60 -150.5t68 -114.5t88.5 -79t110.5 -26q90 0 148 60.5t58 162.5q0 89 -50 171q-4 7 -4 11q0 6 5.5 10.5t11.5 4.5q8 0 12 -7q56 -95 56 -190zM149 700
v-370h277q66 0 116 51.5t50 133.5q0 105 -61 145t-175 40h-207z" />
    <glyph glyph-name="uni0156.fina" horiz-adv-x="1058" 
d="M1009 156q0 -116 -66.5 -183.5t-170.5 -67.5q-67 0 -120.5 26.5t-96 81.5t-75 122.5t-67.5 166.5h-264v-294q0 -15 -15 -15t-15 15v705q0 15 15 15h221q61 0 106 -9t83 -31.5t58 -66t20 -106.5q0 -92 -52 -149t-125 -63q31 -89 60 -150.5t68 -114.5t88.5 -79t110.5 -26
q90 0 148 60.5t58 162.5q0 89 -50 171q-4 7 -4 11q0 6 5.5 10.5t11.5 4.5q8 0 12 -7q56 -95 56 -190zM149 700v-370h277q66 0 116 51.5t50 133.5q0 105 -61 145t-175 40h-207zM335 -256q-5 0 -9 4.5t-3 9.5q17 88 19 183q0 6 4.5 10.5t10.5 4.5q7 0 11.5 -4.5t4.5 -10.5
q0 -105 -26 -189q-2 -8 -12 -8z" />
    <glyph glyph-name="A.init" 
d="M1133 14q4 -8 0 -14.5t-14 -6.5t-14 9l-97 236h-386q-79 -175 -155 -254t-188 -79q-105 0 -167.5 64.5t-62.5 183.5q0 95 56 190q4 7 12 7q6 0 11.5 -4.5t5.5 -10.5q0 -4 -4 -11q-50 -82 -50 -171q0 -104 54.5 -162t144.5 -58q43 0 79 12.5t69 42t59.5 63.5t57.5 93
t55.5 113t60.5 140l125 300q7 19 13 25t20 6q11 0 17 -5t13 -20zM635 266h362l-178 433h-2l-130 -311z" />
    <glyph glyph-name="Aacute.init" 
d="M766 803q-12 0 -12 13q0 5 4 9l153 167q4 4 11 4q16 0 16 -16q0 -7 -5 -12l-158 -161q-4 -4 -9 -4zM1133 14q4 -8 0 -14.5t-14 -6.5t-14 9l-97 236h-386q-79 -175 -155 -254t-188 -79q-105 0 -167.5 64.5t-62.5 183.5q0 95 56 190q4 7 12 7q6 0 11.5 -4.5t5.5 -10.5
q0 -4 -4 -11q-50 -82 -50 -171q0 -104 54.5 -162t144.5 -58q43 0 79 12.5t69 42t59.5 63.5t57.5 93t55.5 113t60.5 140l125 300q7 19 13 25t20 6q11 0 17 -5t13 -20zM635 266h362l-178 433h-2l-130 -311z" />
    <glyph glyph-name="Abreve.init" 
d="M816 801q-70 0 -113.5 44t-48.5 118q0 5 4 9.5t10 4.5q13 0 13 -12q4 -64 40 -99t95 -35q58 0 93.5 35t39.5 99q0 12 13 12q6 0 10 -4.5t4 -9.5q-5 -74 -48 -118t-112 -44zM1133 14q4 -8 0 -14.5t-14 -6.5t-14 9l-97 236h-386q-79 -175 -155 -254t-188 -79
q-105 0 -167.5 64.5t-62.5 183.5q0 95 56 190q4 7 12 7q6 0 11.5 -4.5t5.5 -10.5q0 -4 -4 -11q-50 -82 -50 -171q0 -104 54.5 -162t144.5 -58q43 0 79 12.5t69 42t59.5 63.5t57.5 93t55.5 113t60.5 140l125 300q7 19 13 25t20 6q11 0 17 -5t13 -20zM635 266h362l-178 433h-2
l-130 -311z" />
    <glyph glyph-name="Acircumflex.init" 
d="M671 790q-12 0 -12 12q0 5 7 14l92 110q31 36 44 46.5t24 10.5q16 0 79 -73l80 -96q6 -9 6 -13q0 -11 -13 -11q-5 0 -11 7l-141 154h-2l-143 -157q-4 -4 -10 -4zM1133 14q4 -8 0 -14.5t-14 -6.5t-14 9l-97 236h-386q-79 -175 -155 -254t-188 -79q-105 0 -167.5 64.5
t-62.5 183.5q0 95 56 190q4 7 12 7q6 0 11.5 -4.5t5.5 -10.5q0 -4 -4 -11q-50 -82 -50 -171q0 -104 54.5 -162t144.5 -58q43 0 79 12.5t69 42t59.5 63.5t57.5 93t55.5 113t60.5 140l125 300q7 19 13 25t20 6q11 0 17 -5t13 -20zM635 266h362l-178 433h-2l-130 -311z" />
    <glyph glyph-name="Adieresis.init" 
d="M707 835q-18 0 -30 12t-12 30t12 29.5t30 11.5q19 0 30 -11t11 -30q0 -18 -11.5 -30t-29.5 -12zM925 835q-18 0 -30 12t-12 30t12 29.5t30 11.5q19 0 30 -11t11 -30q0 -18 -11.5 -30t-29.5 -12zM1133 14q4 -8 0 -14.5t-14 -6.5t-14 9l-97 236h-386q-79 -175 -155 -254
t-188 -79q-105 0 -167.5 64.5t-62.5 183.5q0 95 56 190q4 7 12 7q6 0 11.5 -4.5t5.5 -10.5q0 -4 -4 -11q-50 -82 -50 -171q0 -104 54.5 -162t144.5 -58q43 0 79 12.5t69 42t59.5 63.5t57.5 93t55.5 113t60.5 140l125 300q7 19 13 25t20 6q11 0 17 -5t13 -20zM635 266h362
l-178 433h-2l-130 -311z" />
    <glyph glyph-name="Agrave.init" 
d="M820 807l-158 161q-5 5 -5 12q0 16 16 16q7 0 11 -4l153 -167q4 -4 4 -9q0 -13 -12 -13q-5 0 -9 4zM1133 14q4 -8 0 -14.5t-14 -6.5t-14 9l-97 236h-386q-79 -175 -155 -254t-188 -79q-105 0 -167.5 64.5t-62.5 183.5q0 95 56 190q4 7 12 7q6 0 11.5 -4.5t5.5 -10.5
q0 -4 -4 -11q-50 -82 -50 -171q0 -104 54.5 -162t144.5 -58q43 0 79 12.5t69 42t59.5 63.5t57.5 93t55.5 113t60.5 140l125 300q7 19 13 25t20 6q11 0 17 -5t13 -20zM635 266h362l-178 433h-2l-130 -311z" />
    <glyph glyph-name="Amacron.init" 
d="M657 862q-5 0 -9.5 4t-4.5 10t4.5 10t9.5 4h317q5 0 9.5 -4t4.5 -10t-4.5 -10t-9.5 -4h-317zM1133 14q4 -8 0 -14.5t-14 -6.5t-14 9l-97 236h-386q-79 -175 -155 -254t-188 -79q-105 0 -167.5 64.5t-62.5 183.5q0 95 56 190q4 7 12 7q6 0 11.5 -4.5t5.5 -10.5
q0 -4 -4 -11q-50 -82 -50 -171q0 -104 54.5 -162t144.5 -58q43 0 79 12.5t69 42t59.5 63.5t57.5 93t55.5 113t60.5 140l125 300q7 19 13 25t20 6q11 0 17 -5t13 -20zM635 266h362l-178 433h-2l-130 -311z" />
    <glyph glyph-name="Aogonek.init" 
d="M1136 -215q15 2 15 -14q0 -7 -9 -12q-11 -4 -33 -4q-48 0 -79 29.5t-31 75.5q0 90 102 152l-93 226h-386q-79 -175 -155 -254t-188 -79q-105 0 -167.5 64.5t-62.5 183.5q0 95 56 190q4 7 12 7q6 0 11.5 -4.5t5.5 -10.5q0 -4 -4 -11q-50 -82 -50 -171q0 -104 54.5 -162
t144.5 -58q43 0 79 12.5t69 42t59.5 63.5t57.5 93t55.5 113t60.5 140l125 300q7 19 13 25t20 6q11 0 17 -5t13 -20l285 -689q7 -16 -9 -20q-97 -52 -97 -132q0 -37 22.5 -58t59.5 -21q9 0 27 2zM635 266h362l-178 433h-2l-130 -311z" />
    <glyph glyph-name="Aring.init" 
d="M817 796q-40 0 -65.5 26.5t-25.5 64.5q0 39 25 65t66 26q40 0 65.5 -26t25.5 -65q0 -38 -25.5 -64.5t-65.5 -26.5zM817 950q-27 0 -44 -18t-17 -45t17 -45t44 -18q26 0 43.5 18.5t17.5 44.5q0 27 -17 45t-44 18zM1133 14q4 -8 0 -14.5t-14 -6.5t-14 9l-97 236h-386
q-79 -175 -155 -254t-188 -79q-105 0 -167.5 64.5t-62.5 183.5q0 95 56 190q4 7 12 7q6 0 11.5 -4.5t5.5 -10.5q0 -4 -4 -11q-50 -82 -50 -171q0 -104 54.5 -162t144.5 -58q43 0 79 12.5t69 42t59.5 63.5t57.5 93t55.5 113t60.5 140l125 300q7 19 13 25t20 6q11 0 17 -5
t13 -20zM635 266h362l-178 433h-2l-130 -311z" />
    <glyph glyph-name="Atilde.init" 
d="M642 816q-14 0 -14 13q0 51 21 85.5t68 34.5q29 0 56 -17t43.5 -38t38 -38t41.5 -17q70 0 69 99q0 13 14 13q13 0 13 -13q0 -61 -25 -94t-68 -33q-26 0 -51.5 17t-42 38t-39.5 38t-45 17q-66 0 -66 -92q0 -13 -13 -13zM1133 14q4 -8 0 -14.5t-14 -6.5t-14 9l-97 236h-386
q-79 -175 -155 -254t-188 -79q-105 0 -167.5 64.5t-62.5 183.5q0 95 56 190q4 7 12 7q6 0 11.5 -4.5t5.5 -10.5q0 -4 -4 -11q-50 -82 -50 -171q0 -104 54.5 -162t144.5 -58q43 0 79 12.5t69 42t59.5 63.5t57.5 93t55.5 113t60.5 140l125 300q7 19 13 25t20 6q11 0 17 -5
t13 -20zM635 266h362l-178 433h-2l-130 -311z" />
    <glyph glyph-name="H.init" horiz-adv-x="1182" 
d="M46 595q0 101 65.5 161t161.5 60q124 0 184.5 -84.5t60.5 -234.5v-123h515v339q0 15 15 15t15 -15v-705q0 -15 -15 -15t-15 15v338h-515v-338q0 -15 -15 -15t-15 15v489q0 133 -51.5 212t-163.5 79q-84 0 -140 -52t-56 -141t50 -171q4 -7 4 -11q0 -6 -5.5 -10.5
t-11.5 -4.5q-8 0 -12 7q-56 95 -56 190z" />
    <glyph glyph-name="J.init" horiz-adv-x="629" 
d="M47 126q0 95 56 190q4 7 12 7q6 0 11.5 -4.5t5.5 -10.5q0 -4 -4 -11q-50 -82 -50 -171t55.5 -141t137.5 -52q112 0 163.5 79t51.5 212v489q0 15 15 15t15 -15v-489q0 -151 -59.5 -235t-182.5 -84q-96 0 -161.5 60t-65.5 161z" />
    <glyph glyph-name="M.init" horiz-adv-x="1299" 
d="M47 127q0 95 56 190q4 7 12 7q6 0 11.5 -4.5t5.5 -10.5q0 -4 -4 -11q-50 -82 -50 -171t49 -141t130 -52q128 0 186 167q45 126 67 439q3 41 9 128l2 26q0 34 28 34q24 0 32 -23l235 -685h2l301 685q11 23 32 23q29 0 29 -30v-690q0 -15 -15 -15t-15 15v686h-2l-297 -670
q-13 -31 -34 -31q-23 0 -31 25l-234 676h-2q-5 -111 -10.5 -189.5t-15.5 -166.5t-24 -148t-35.5 -117.5t-50 -91.5t-68 -54.5t-89.5 -20.5q-95 0 -152.5 59t-57.5 162z" />
    <glyph glyph-name="N.init" horiz-adv-x="1185" 
d="M47 126q0 95 56 190q4 7 12 7q6 0 11.5 -4.5t5.5 -10.5q0 -4 -4 -11q-50 -82 -50 -171t56 -141t140 -52q112 0 163.5 79t51.5 212v483q0 21 22 21q11 0 28 -21l495 -669h2v675q0 15 15 15t15 -15v-699q0 -21 -22 -21q-12 0 -28 21l-495 669h-2v-459q0 -150 -60.5 -234.5
t-184.5 -84.5q-96 0 -161.5 60t-65.5 161z" />
    <glyph glyph-name="Nacute.init" horiz-adv-x="1185" 
d="M725 825l153 167q4 4 11 4q16 0 16 -16q0 -7 -5 -12l-158 -161q-4 -4 -9 -4q-12 0 -12 13q0 5 4 9zM47 126q0 95 56 190q4 7 12 7q6 0 11.5 -4.5t5.5 -10.5q0 -4 -4 -11q-50 -82 -50 -171t56 -141t140 -52q112 0 163.5 79t51.5 212v483q0 21 22 21q11 0 28 -21l495 -669
h2v675q0 15 15 15t15 -15v-699q0 -21 -22 -21q-12 0 -28 21l-495 669h-2v-459q0 -150 -60.5 -234.5t-184.5 -84.5q-96 0 -161.5 60t-65.5 161z" />
    <glyph glyph-name="Ncaron.init" horiz-adv-x="1185" 
d="M791 789q-16 0 -79 73l-80 96q-6 9 -6 13q0 11 13 11q5 0 11 -7l141 -154h2l143 157q4 4 10 4q12 0 12 -12q0 -5 -7 -14l-92 -110q-31 -36 -44 -46.5t-24 -10.5zM47 126q0 95 56 190q4 7 12 7q6 0 11.5 -4.5t5.5 -10.5q0 -4 -4 -11q-50 -82 -50 -171t56 -141t140 -52
q112 0 163.5 79t51.5 212v483q0 21 22 21q11 0 28 -21l495 -669h2v675q0 15 15 15t15 -15v-699q0 -21 -22 -21q-12 0 -28 21l-495 669h-2v-459q0 -150 -60.5 -234.5t-184.5 -84.5q-96 0 -161.5 60t-65.5 161z" />
    <glyph glyph-name="uni0145.init" horiz-adv-x="1185" 
d="M47 126q0 95 56 190q4 7 12 7q6 0 11.5 -4.5t5.5 -10.5q0 -4 -4 -11q-50 -82 -50 -171t56 -141t140 -52q112 0 163.5 79t51.5 212v483q0 21 22 21q11 0 28 -21l495 -669h2v675q0 15 15 15t15 -15v-699q0 -21 -22 -21q-12 0 -28 21l-495 669h-2v-459q0 -150 -60.5 -234.5
t-184.5 -84.5q-96 0 -161.5 60t-65.5 161zM721 -256q-5 0 -9 4.5t-3 9.5q17 88 19 183q0 6 4.5 10.5t10.5 4.5q7 0 11.5 -4.5t4.5 -10.5q0 -105 -26 -189q-2 -8 -12 -8z" />
    <glyph glyph-name="Ntilde.init" horiz-adv-x="1185" 
d="M684 949q29 0 56 -17t43.5 -38t38 -38t41.5 -17q34 0 52 25t17 74q0 13 14 13q13 0 13 -13q0 -61 -25 -94t-68 -33q-26 0 -51.5 17t-42 38t-39.5 38t-45 17q-66 0 -66 -92q0 -13 -13 -13q-14 0 -14 13q0 51 21 85.5t68 34.5zM47 126q0 95 56 190q4 7 12 7q6 0 11.5 -4.5
t5.5 -10.5q0 -4 -4 -11q-50 -82 -50 -171t56 -141t140 -52q112 0 163.5 79t51.5 212v483q0 21 22 21q11 0 28 -21l495 -669h2v675q0 15 15 15t15 -15v-699q0 -21 -22 -21q-12 0 -28 21l-495 669h-2v-459q0 -150 -60.5 -234.5t-184.5 -84.5q-96 0 -161.5 60t-65.5 161z" />
    <glyph glyph-name="T.init" horiz-adv-x="877" 
d="M270 287q80 0 145 41q8 5 12 5q15 0 15 -17q0 -8 -8 -13q-73 -44 -164 -44q-101 0 -161 65.5t-60 161.5q0 123 83.5 182.5t234.5 59.5h468q5 0 9.5 -4t4.5 -10t-4.5 -10t-9.5 -4h-227v-692q0 -15 -15 -15t-15 15v692h-211q-133 0 -210 -51.5t-77 -163.5q0 -83 51 -140.5
t139 -57.5z" />
    <glyph glyph-name="Tcaron.init" horiz-adv-x="847" 
d="M591 789q-16 0 -79 73l-80 96q-6 9 -6 13q0 11 13 11q5 0 11 -7l141 -154h2l143 157q4 4 10 4q12 0 12 -12q0 -5 -7 -14l-92 -110q-31 -36 -44 -46.5t-24 -10.5zM270 287q80 0 145 41q8 5 12 5q15 0 15 -17q0 -8 -8 -13q-73 -44 -164 -44q-101 0 -161 65.5t-60 161.5
q0 123 83.5 182.5t234.5 59.5h468q5 0 9.5 -4t4.5 -10t-4.5 -10t-9.5 -4h-227v-692q0 -15 -15 -15t-15 15v692h-211q-133 0 -210 -51.5t-77 -163.5q0 -83 51 -140.5t139 -57.5z" />
    <glyph glyph-name="uni0162.init" horiz-adv-x="847" 
d="M835 728q5 0 9.5 -4t4.5 -10t-4.5 -10t-9.5 -4h-227v-692q0 -5 -1 -7l-11 -39q4 0 11.5 -1t26.5 -6.5t33.5 -14t26.5 -27t12 -42.5q0 -49 -33 -74t-89 -25q-66 0 -111 36q-6 4 -6 13q0 14 15 14q5 0 17 -8.5t34.5 -17.5t50.5 -9q43 0 67.5 18t24.5 53q0 61 -99 67
q-17 1 -12 20l13 47v3v692h-211q-133 0 -210 -51.5t-77 -163.5q0 -83 51 -140.5t139 -57.5q80 0 145 41q8 5 12 5q15 0 15 -17q0 -8 -8 -13q-73 -44 -164 -44q-101 0 -161 65.5t-60 161.5q0 123 83.5 182.5t234.5 59.5h468z" />
    <glyph glyph-name="uni021A.init" horiz-adv-x="847" 
d="M270 287q80 0 145 41q8 5 12 5q15 0 15 -17q0 -8 -8 -13q-73 -44 -164 -44q-101 0 -161 65.5t-60 161.5q0 123 83.5 182.5t234.5 59.5h468q5 0 9.5 -4t4.5 -10t-4.5 -10t-9.5 -4h-227v-692q0 -15 -15 -15t-15 15v692h-211q-133 0 -210 -51.5t-77 -163.5q0 -83 51 -140.5
t139 -57.5zM571 -239q-5 0 -9 4.5t-3 9.5q17 88 19 183q0 6 4.5 10.5t10.5 4.5q7 0 11.5 -4.5t4.5 -10.5q0 -105 -26 -189q-2 -8 -12 -8z" />
    <glyph glyph-name="U.init" 
d="M44 626q0 101 65.5 161t161.5 60q123 0 182.5 -84t59.5 -235v-224q0 -57 14 -107t43 -92.5t81 -67t122 -24.5t122 24.5t81 67t43 92t14 107.5v409q0 15 15 15t15 -15v-410q0 -144 -74.5 -231t-215.5 -87t-215.5 87t-74.5 231v225q0 133 -51.5 212t-163.5 79
q-83 0 -138 -52t-55 -141t50 -171q4 -7 4 -11q0 -6 -5.5 -10.5t-11.5 -4.5q-8 0 -12 7q-56 95 -56 190z" />
    <glyph glyph-name="Uacute.init" 
d="M712 825l153 167q4 4 11 4q16 0 16 -16q0 -7 -5 -12l-158 -161q-4 -4 -9 -4q-12 0 -12 13q0 5 4 9zM44 626q0 101 65.5 161t161.5 60q123 0 182.5 -84t59.5 -235v-224q0 -57 14 -107t43 -92.5t81 -67t122 -24.5t122 24.5t81 67t43 92t14 107.5v409q0 15 15 15t15 -15
v-410q0 -144 -74.5 -231t-215.5 -87t-215.5 87t-74.5 231v225q0 133 -51.5 212t-163.5 79q-83 0 -138 -52t-55 -141t50 -171q4 -7 4 -11q0 -6 -5.5 -10.5t-11.5 -4.5q-8 0 -12 7q-56 95 -56 190z" />
    <glyph glyph-name="Ucircumflex.init" 
d="M625 790q-12 0 -12 12q0 5 7 14l92 110q31 36 44 46.5t24 10.5q16 0 79 -73l80 -96q6 -9 6 -13q0 -11 -13 -11q-5 0 -11 7l-141 154h-2l-143 -157q-4 -4 -10 -4zM44 626q0 101 65.5 161t161.5 60q123 0 182.5 -84t59.5 -235v-224q0 -57 14 -107t43 -92.5t81 -67
t122 -24.5t122 24.5t81 67t43 92t14 107.5v409q0 15 15 15t15 -15v-410q0 -144 -74.5 -231t-215.5 -87t-215.5 87t-74.5 231v225q0 133 -51.5 212t-163.5 79q-83 0 -138 -52t-55 -141t50 -171q4 -7 4 -11q0 -6 -5.5 -10.5t-11.5 -4.5q-8 0 -12 7q-56 95 -56 190z" />
    <glyph glyph-name="Udieresis.init" 
d="M661 835q-18 0 -30 12t-12 30t12 29.5t30 11.5q19 0 30 -11t11 -30q0 -18 -11.5 -30t-29.5 -12zM879 835q-18 0 -30 12t-12 30t12 29.5t30 11.5q19 0 30 -11t11 -30q0 -18 -11.5 -30t-29.5 -12zM44 626q0 101 65.5 161t161.5 60q123 0 182.5 -84t59.5 -235v-224
q0 -57 14 -107t43 -92.5t81 -67t122 -24.5t122 24.5t81 67t43 92t14 107.5v409q0 15 15 15t15 -15v-410q0 -144 -74.5 -231t-215.5 -87t-215.5 87t-74.5 231v225q0 133 -51.5 212t-163.5 79q-83 0 -138 -52t-55 -141t50 -171q4 -7 4 -11q0 -6 -5.5 -10.5t-11.5 -4.5
q-8 0 -12 7q-56 95 -56 190z" />
    <glyph glyph-name="Ugrave.init" 
d="M638 992l153 -167q4 -4 4 -9q0 -13 -12 -13q-5 0 -9 4l-158 161q-5 5 -5 12q0 16 16 16q7 0 11 -4zM44 626q0 101 65.5 161t161.5 60q123 0 182.5 -84t59.5 -235v-224q0 -57 14 -107t43 -92.5t81 -67t122 -24.5t122 24.5t81 67t43 92t14 107.5v409q0 15 15 15t15 -15
v-410q0 -144 -74.5 -231t-215.5 -87t-215.5 87t-74.5 231v225q0 133 -51.5 212t-163.5 79q-83 0 -138 -52t-55 -141t50 -171q4 -7 4 -11q0 -6 -5.5 -10.5t-11.5 -4.5q-8 0 -12 7q-56 95 -56 190z" />
    <glyph glyph-name="Uhungarumlaut.init" 
d="M682 790q-5 0 -9 3.5t-4 8.5q0 6 4 14l82 161q4 10 14 10q19 0 19 -16q0 -4 -3 -10l-86 -155q-8 -16 -17 -16zM868 790q-5 0 -9 3.5t-4 8.5q0 6 4 14l82 161q4 10 14 10q19 0 19 -16q0 -4 -3 -10l-86 -155q-8 -16 -17 -16zM44 626q0 101 65.5 161t161.5 60
q123 0 182.5 -84t59.5 -235v-224q0 -57 14 -107t43 -92.5t81 -67t122 -24.5t122 24.5t81 67t43 92t14 107.5v409q0 15 15 15t15 -15v-410q0 -144 -74.5 -231t-215.5 -87t-215.5 87t-74.5 231v225q0 133 -51.5 212t-163.5 79q-83 0 -138 -52t-55 -141t50 -171q4 -7 4 -11
q0 -6 -5.5 -10.5t-11.5 -4.5q-8 0 -12 7q-56 95 -56 190z" />
    <glyph glyph-name="Umacron.init" 
d="M928 862h-317q-5 0 -9.5 4t-4.5 10t4.5 10t9.5 4h317q5 0 9.5 -4t4.5 -10t-4.5 -10t-9.5 -4zM44 626q0 101 65.5 161t161.5 60q123 0 182.5 -84t59.5 -235v-224q0 -57 14 -107t43 -92.5t81 -67t122 -24.5t122 24.5t81 67t43 92t14 107.5v409q0 15 15 15t15 -15v-410
q0 -144 -74.5 -231t-215.5 -87t-215.5 87t-74.5 231v225q0 133 -51.5 212t-163.5 79q-83 0 -138 -52t-55 -141t50 -171q4 -7 4 -11q0 -6 -5.5 -10.5t-11.5 -4.5q-8 0 -12 7q-56 95 -56 190z" />
    <glyph glyph-name="Uogonek.init" 
d="M1048 728q15 0 15 -15v-410q0 -132 -63 -216.5t-182 -98.5q-99 -51 -99 -133q0 -37 22.5 -58t59.5 -21q9 0 27 2q15 2 15 -14q0 -8 -9 -12q-11 -4 -33 -4q-48 0 -79 29.5t-31 75.5q0 74 73 132q-136 3 -208.5 89.5t-72.5 228.5v225q0 133 -51.5 212t-163.5 79
q-83 0 -138 -52t-55 -141t50 -171q4 -7 4 -11q0 -6 -5.5 -10.5t-11.5 -4.5q-8 0 -12 7q-56 95 -56 190q0 101 65.5 161t161.5 60q123 0 182.5 -84t59.5 -235v-224q0 -57 14 -107t43 -92.5t81 -67t122 -24.5t122 24.5t81 67t43 92t14 107.5v409q0 15 15 15z" />
    <glyph glyph-name="Uring.init" 
d="M771 796q-40 0 -65.5 26.5t-25.5 64.5q0 39 25 65t66 26q40 0 65.5 -26t25.5 -65q0 -38 -25.5 -64.5t-65.5 -26.5zM771 824q26 0 43.5 18.5t17.5 44.5q0 27 -17 45t-44 18t-44 -18t-17 -45t17 -45t44 -18zM44 626q0 101 65.5 161t161.5 60q123 0 182.5 -84t59.5 -235
v-224q0 -57 14 -107t43 -92.5t81 -67t122 -24.5t122 24.5t81 67t43 92t14 107.5v409q0 15 15 15t15 -15v-410q0 -144 -74.5 -231t-215.5 -87t-215.5 87t-74.5 231v225q0 133 -51.5 212t-163.5 79q-83 0 -138 -52t-55 -141t50 -171q4 -7 4 -11q0 -6 -5.5 -10.5t-11.5 -4.5
q-8 0 -12 7q-56 95 -56 190z" />
    <glyph glyph-name="Utilde.init" 
d="M671 949q29 0 56 -17t43.5 -38t38 -38t41.5 -17q70 0 69 99q0 13 14 13q13 0 13 -13q0 -61 -25 -94t-68 -33q-26 0 -51.5 17t-42 38t-39.5 38t-45 17q-66 0 -66 -92q0 -13 -13 -13q-14 0 -14 13q0 51 21 85.5t68 34.5zM44 626q0 101 65.5 161t161.5 60q123 0 182.5 -84
t59.5 -235v-224q0 -57 14 -107t43 -92.5t81 -67t122 -24.5t122 24.5t81 67t43 92t14 107.5v409q0 15 15 15t15 -15v-410q0 -144 -74.5 -231t-215.5 -87t-215.5 87t-74.5 231v225q0 133 -51.5 212t-163.5 79q-83 0 -138 -52t-55 -141t50 -171q4 -7 4 -11q0 -6 -5.5 -10.5
t-11.5 -4.5q-8 0 -12 7q-56 95 -56 190z" />
    <glyph glyph-name="V.init" horiz-adv-x="1142" 
d="M46 599q0 101 62.5 162.5t162.5 61.5q116 0 196 -102q58 -75 144 -279q8 -19 47 -112l127 -308h2l288 697q4 9 14 9t14 -7t0 -14l-284 -683q-7 -19 -13 -25t-20 -6q-12 0 -18 5t-13 20l-125 299q-98 232 -128 289q-69 133 -145 170q-41 19 -89 19q-86 0 -138.5 -54
t-52.5 -142q0 -89 50 -171q4 -7 4 -11q0 -6 -5.5 -10.5t-11.5 -4.5q-8 0 -12 7q-56 95 -56 190z" />
    <glyph glyph-name="W.init" horiz-adv-x="1476" 
d="M46 599q0 101 62.5 162.5t162.5 61.5q40 0 73 -11t58 -27.5t48 -49.5t39 -62.5t34.5 -81.5t30.5 -91.5t32 -107.5q18 -62 28 -95l81 -271h2l223 684q5 18 26 18t26 -18l223 -684h2l206 684q3 11 15 11q8 0 12.5 -6.5t2.5 -13.5l-211 -688q-6 -20 -26 -20t-27 20l-222 680
h-2l-222 -680q-7 -20 -27 -20t-26 20l-83 272q-10 34 -25.5 86.5t-24 82.5t-22.5 73t-24 68t-25 57.5t-28.5 50.5t-32 38t-38.5 30.5t-45 17t-54 6.5q-86 0 -138.5 -54t-52.5 -142q0 -89 50 -171q4 -7 4 -11q0 -6 -5.5 -10.5t-11.5 -4.5q-8 0 -12 7q-56 95 -56 190z" />
    <glyph glyph-name="Wacute.init" horiz-adv-x="1476" 
d="M888 825l153 167q4 4 11 4q16 0 16 -16q0 -7 -5 -12l-158 -161q-4 -4 -9 -4q-12 0 -12 13q0 5 4 9zM46 599q0 101 62.5 162.5t162.5 61.5q40 0 73 -11t58 -27.5t48 -49.5t39 -62.5t34.5 -81.5t30.5 -91.5t32 -107.5q18 -62 28 -95l81 -271h2l223 684q5 18 26 18t26 -18
l223 -684h2l206 684q3 11 15 11q8 0 12.5 -6.5t2.5 -13.5l-211 -688q-6 -20 -26 -20t-27 20l-222 680h-2l-222 -680q-7 -20 -27 -20t-26 20l-83 272q-10 34 -25.5 86.5t-24 82.5t-22.5 73t-24 68t-25 57.5t-28.5 50.5t-32 38t-38.5 30.5t-45 17t-54 6.5q-86 0 -138.5 -54
t-52.5 -142q0 -89 50 -171q4 -7 4 -11q0 -6 -5.5 -10.5t-11.5 -4.5q-8 0 -12 7q-56 95 -56 190z" />
    <glyph glyph-name="Wcircumflex.init" horiz-adv-x="1476" 
d="M801 790q-12 0 -12 12q0 5 7 14l92 110q31 36 44 46.5t24 10.5q16 0 79 -73l80 -96q6 -9 6 -13q0 -11 -13 -11q-5 0 -11 7l-141 154h-2l-143 -157q-4 -4 -10 -4zM46 599q0 101 62.5 162.5t162.5 61.5q40 0 73 -11t58 -27.5t48 -49.5t39 -62.5t34.5 -81.5t30.5 -91.5
t32 -107.5q18 -62 28 -95l81 -271h2l223 684q5 18 26 18t26 -18l223 -684h2l206 684q3 11 15 11q8 0 12.5 -6.5t2.5 -13.5l-211 -688q-6 -20 -26 -20t-27 20l-222 680h-2l-222 -680q-7 -20 -27 -20t-26 20l-83 272q-10 34 -25.5 86.5t-24 82.5t-22.5 73t-24 68t-25 57.5
t-28.5 50.5t-32 38t-38.5 30.5t-45 17t-54 6.5q-86 0 -138.5 -54t-52.5 -142q0 -89 50 -171q4 -7 4 -11q0 -6 -5.5 -10.5t-11.5 -4.5q-8 0 -12 7q-56 95 -56 190z" />
    <glyph glyph-name="Wdieresis.init" horiz-adv-x="1476" 
d="M837 835q-18 0 -30 12t-12 30t12 29.5t30 11.5q19 0 30 -11t11 -30q0 -18 -11.5 -30t-29.5 -12zM1055 835q-18 0 -30 12t-12 30t12 29.5t30 11.5q19 0 30 -11t11 -30q0 -18 -11.5 -30t-29.5 -12zM46 599q0 101 62.5 162.5t162.5 61.5q40 0 73 -11t58 -27.5t48 -49.5
t39 -62.5t34.5 -81.5t30.5 -91.5t32 -107.5q18 -62 28 -95l81 -271h2l223 684q5 18 26 18t26 -18l223 -684h2l206 684q3 11 15 11q8 0 12.5 -6.5t2.5 -13.5l-211 -688q-6 -20 -26 -20t-27 20l-222 680h-2l-222 -680q-7 -20 -27 -20t-26 20l-83 272q-10 34 -25.5 86.5
t-24 82.5t-22.5 73t-24 68t-25 57.5t-28.5 50.5t-32 38t-38.5 30.5t-45 17t-54 6.5q-86 0 -138.5 -54t-52.5 -142q0 -89 50 -171q4 -7 4 -11q0 -6 -5.5 -10.5t-11.5 -4.5q-8 0 -12 7q-56 95 -56 190z" />
    <glyph glyph-name="Wgrave.init" horiz-adv-x="1476" 
d="M814 992l153 -167q4 -4 4 -9q0 -13 -12 -13q-5 0 -9 4l-158 161q-5 5 -5 12q0 16 16 16q7 0 11 -4zM46 599q0 101 62.5 162.5t162.5 61.5q40 0 73 -11t58 -27.5t48 -49.5t39 -62.5t34.5 -81.5t30.5 -91.5t32 -107.5q18 -62 28 -95l81 -271h2l223 684q5 18 26 18t26 -18
l223 -684h2l206 684q3 11 15 11q8 0 12.5 -6.5t2.5 -13.5l-211 -688q-6 -20 -26 -20t-27 20l-222 680h-2l-222 -680q-7 -20 -27 -20t-26 20l-83 272q-10 34 -25.5 86.5t-24 82.5t-22.5 73t-24 68t-25 57.5t-28.5 50.5t-32 38t-38.5 30.5t-45 17t-54 6.5q-86 0 -138.5 -54
t-52.5 -142q0 -89 50 -171q4 -7 4 -11q0 -6 -5.5 -10.5t-11.5 -4.5q-8 0 -12 7q-56 95 -56 190z" />
    <glyph glyph-name="i.loclTRK" horiz-adv-x="242" 
d="M121 635q-18 0 -30 12t-12 30t12 29.5t30 11.5q19 0 30 -11t11 -30q0 -18 -11.5 -30t-29.5 -12zM121 -7q-15 0 -15 15v474q0 15 15 15t15 -15v-474q0 -15 -15 -15z" />
    <glyph glyph-name="a.fina" horiz-adv-x="921" 
d="M896 -23q0 -103 -60.5 -163t-159.5 -60q-121 0 -181.5 89t-60.5 237v36h-2q-75 -131 -219 -131q-80 0 -124.5 38t-44.5 107q0 73 55.5 114t138.5 41q100 0 196 -56q0 123 -37 185.5t-141 62.5q-76 0 -137 -24q-6 -2 -9 -2q-13 0 -13 14q0 10 13 15q64 25 148 25
q116 0 161 -70.5t45 -206.5v-149q0 -136 52 -216.5t161 -80.5q83 0 135.5 53.5t52.5 141.5q0 89 -50 171q-4 7 -4 11q0 6 5.5 10.5t11.5 4.5q8 0 12 -7q56 -95 56 -190zM214 13q90 0 151.5 58t68.5 128q-96 58 -196 58q-72 0 -117.5 -33.5t-45.5 -92.5q0 -58 37 -88t102 -30
z" />
    <glyph glyph-name="aacute.fina" horiz-adv-x="921" 
d="M210 610l153 167q4 4 11 4q16 0 16 -16q0 -7 -5 -12l-158 -161q-4 -4 -9 -4q-12 0 -12 13q0 5 4 9zM896 -23q0 -103 -60.5 -163t-159.5 -60q-121 0 -181.5 89t-60.5 237v36h-2q-75 -131 -219 -131q-80 0 -124.5 38t-44.5 107q0 73 55.5 114t138.5 41q100 0 196 -56
q0 123 -37 185.5t-141 62.5q-76 0 -137 -24q-6 -2 -9 -2q-13 0 -13 14q0 10 13 15q64 25 148 25q116 0 161 -70.5t45 -206.5v-149q0 -136 52 -216.5t161 -80.5q83 0 135.5 53.5t52.5 141.5q0 89 -50 171q-4 7 -4 11q0 6 5.5 10.5t11.5 4.5q8 0 12 -7q56 -95 56 -190zM214 13
q90 0 151.5 58t68.5 128q-96 58 -196 58q-72 0 -117.5 -33.5t-45.5 -92.5q0 -58 37 -88t102 -30z" />
    <glyph glyph-name="abreve.fina" horiz-adv-x="921" 
d="M268 616q58 0 93.5 35t39.5 99q0 12 13 12q6 0 10 -4.5t4 -9.5q-5 -74 -48 -118t-112 -44q-70 0 -113.5 44t-48.5 118q0 5 4 9.5t10 4.5q13 0 13 -12q4 -64 40 -99t95 -35zM896 -23q0 -103 -60.5 -163t-159.5 -60q-121 0 -181.5 89t-60.5 237v36h-2q-75 -131 -219 -131
q-80 0 -124.5 38t-44.5 107q0 73 55.5 114t138.5 41q100 0 196 -56q0 123 -37 185.5t-141 62.5q-76 0 -137 -24q-6 -2 -9 -2q-13 0 -13 14q0 10 13 15q64 25 148 25q116 0 161 -70.5t45 -206.5v-149q0 -136 52 -216.5t161 -80.5q83 0 135.5 53.5t52.5 141.5q0 89 -50 171
q-4 7 -4 11q0 6 5.5 10.5t11.5 4.5q8 0 12 -7q56 -95 56 -190zM214 13q90 0 151.5 58t68.5 128q-96 58 -196 58q-72 0 -117.5 -33.5t-45.5 -92.5q0 -58 37 -88t102 -30z" />
    <glyph glyph-name="acircumflex.fina" horiz-adv-x="921" 
d="M123 575q-12 0 -12 12q0 5 7 14l92 110q31 36 44 46.5t24 10.5q16 0 79 -73l80 -96q6 -9 6 -13q0 -11 -13 -11q-5 0 -11 7l-141 154h-2l-143 -157q-4 -4 -10 -4zM896 -23q0 -103 -60.5 -163t-159.5 -60q-121 0 -181.5 89t-60.5 237v36h-2q-75 -131 -219 -131
q-80 0 -124.5 38t-44.5 107q0 73 55.5 114t138.5 41q100 0 196 -56q0 123 -37 185.5t-141 62.5q-76 0 -137 -24q-6 -2 -9 -2q-13 0 -13 14q0 10 13 15q64 25 148 25q116 0 161 -70.5t45 -206.5v-149q0 -136 52 -216.5t161 -80.5q83 0 135.5 53.5t52.5 141.5q0 89 -50 171
q-4 7 -4 11q0 6 5.5 10.5t11.5 4.5q8 0 12 -7q56 -95 56 -190zM214 13q90 0 151.5 58t68.5 128q-96 58 -196 58q-72 0 -117.5 -33.5t-45.5 -92.5q0 -58 37 -88t102 -30z" />
    <glyph glyph-name="adieresis.fina" horiz-adv-x="921" 
d="M159 620q-18 0 -30 12t-12 30t12 29.5t30 11.5q19 0 30 -11t11 -30q0 -18 -11.5 -30t-29.5 -12zM377 620q-18 0 -30 12t-12 30t12 29.5t30 11.5q19 0 30 -11t11 -30q0 -18 -11.5 -30t-29.5 -12zM896 -23q0 -103 -60.5 -163t-159.5 -60q-121 0 -181.5 89t-60.5 237v36h-2
q-75 -131 -219 -131q-80 0 -124.5 38t-44.5 107q0 73 55.5 114t138.5 41q100 0 196 -56q0 123 -37 185.5t-141 62.5q-76 0 -137 -24q-6 -2 -9 -2q-13 0 -13 14q0 10 13 15q64 25 148 25q116 0 161 -70.5t45 -206.5v-149q0 -136 52 -216.5t161 -80.5q83 0 135.5 53.5
t52.5 141.5q0 89 -50 171q-4 7 -4 11q0 6 5.5 10.5t11.5 4.5q8 0 12 -7q56 -95 56 -190zM214 13q90 0 151.5 58t68.5 128q-96 58 -196 58q-72 0 -117.5 -33.5t-45.5 -92.5q0 -58 37 -88t102 -30z" />
    <glyph glyph-name="agrave.fina" horiz-adv-x="921" 
d="M136 777l153 -167q4 -4 4 -9q0 -13 -12 -13q-5 0 -9 4l-158 161q-5 5 -5 12q0 16 16 16q7 0 11 -4zM896 -23q0 -103 -60.5 -163t-159.5 -60q-121 0 -181.5 89t-60.5 237v36h-2q-75 -131 -219 -131q-80 0 -124.5 38t-44.5 107q0 73 55.5 114t138.5 41q100 0 196 -56
q0 123 -37 185.5t-141 62.5q-76 0 -137 -24q-6 -2 -9 -2q-13 0 -13 14q0 10 13 15q64 25 148 25q116 0 161 -70.5t45 -206.5v-149q0 -136 52 -216.5t161 -80.5q83 0 135.5 53.5t52.5 141.5q0 89 -50 171q-4 7 -4 11q0 6 5.5 10.5t11.5 4.5q8 0 12 -7q56 -95 56 -190zM214 13
q90 0 151.5 58t68.5 128q-96 58 -196 58q-72 0 -117.5 -33.5t-45.5 -92.5q0 -58 37 -88t102 -30z" />
    <glyph glyph-name="amacron.fina" horiz-adv-x="921" 
d="M426 647h-317q-5 0 -9.5 4t-4.5 10t4.5 10t9.5 4h317q5 0 9.5 -4t4.5 -10t-4.5 -10t-9.5 -4zM896 -23q0 -103 -60.5 -163t-159.5 -60q-121 0 -181.5 89t-60.5 237v36h-2q-75 -131 -219 -131q-80 0 -124.5 38t-44.5 107q0 73 55.5 114t138.5 41q100 0 196 -56
q0 123 -37 185.5t-141 62.5q-76 0 -137 -24q-6 -2 -9 -2q-13 0 -13 14q0 10 13 15q64 25 148 25q116 0 161 -70.5t45 -206.5v-149q0 -136 52 -216.5t161 -80.5q83 0 135.5 53.5t52.5 141.5q0 89 -50 171q-4 7 -4 11q0 6 5.5 10.5t11.5 4.5q8 0 12 -7q56 -95 56 -190zM214 13
q90 0 151.5 58t68.5 128q-96 58 -196 58q-72 0 -117.5 -33.5t-45.5 -92.5q0 -58 37 -88t102 -30z" />
    <glyph glyph-name="aogonek.fina" horiz-adv-x="921" 
d="M767 -230q-96 -49 -96 -131q0 -37 22.5 -58t59.5 -21q9 0 27 2q15 2 15 -14q0 -8 -9 -12q-11 -4 -33 -4q-48 0 -79 29.5t-31 75.5q0 67 57 118q-8 -1 -24 -1q-121 0 -181.5 89t-60.5 237v36h-2q-75 -131 -219 -131q-80 0 -124.5 38t-44.5 107q0 73 55.5 114t138.5 41
q100 0 196 -56q0 123 -37 185.5t-141 62.5q-76 0 -137 -24q-6 -2 -9 -2q-13 0 -13 14q0 10 13 15q64 25 148 25q116 0 161 -70.5t45 -206.5v-149q0 -136 52 -216.5t161 -80.5q83 0 135.5 53.5t52.5 141.5q0 89 -50 171q-4 7 -4 11q0 6 5.5 10.5t11.5 4.5q8 0 12 -7
q56 -95 56 -190q0 -77 -34.5 -130.5t-94.5 -76.5zM214 13q90 0 151.5 58t68.5 128q-96 58 -196 58q-72 0 -117.5 -33.5t-45.5 -92.5q0 -58 37 -88t102 -30z" />
    <glyph glyph-name="aring.fina" horiz-adv-x="921" 
d="M269 581q-40 0 -65.5 26.5t-25.5 64.5q0 39 25 65t66 26q40 0 65.5 -26t25.5 -65q0 -38 -25.5 -64.5t-65.5 -26.5zM269 609q26 0 43.5 18.5t17.5 44.5q0 27 -17 45t-44 18t-44 -18t-17 -45t17 -45t44 -18zM896 -23q0 -103 -60.5 -163t-159.5 -60q-121 0 -181.5 89
t-60.5 237v36h-2q-75 -131 -219 -131q-80 0 -124.5 38t-44.5 107q0 73 55.5 114t138.5 41q100 0 196 -56q0 123 -37 185.5t-141 62.5q-76 0 -137 -24q-6 -2 -9 -2q-13 0 -13 14q0 10 13 15q64 25 148 25q116 0 161 -70.5t45 -206.5v-149q0 -136 52 -216.5t161 -80.5
q83 0 135.5 53.5t52.5 141.5q0 89 -50 171q-4 7 -4 11q0 6 5.5 10.5t11.5 4.5q8 0 12 -7q56 -95 56 -190zM214 13q90 0 151.5 58t68.5 128q-96 58 -196 58q-72 0 -117.5 -33.5t-45.5 -92.5q0 -58 37 -88t102 -30z" />
    <glyph glyph-name="atilde.fina" horiz-adv-x="921" 
d="M169 734q29 0 56 -17t43.5 -38t38 -38t41.5 -17q70 0 69 99q0 13 14 13q13 0 13 -13q0 -61 -25 -94t-68 -33q-26 0 -51.5 17t-42 38t-39.5 38t-45 17q-66 0 -66 -92q0 -13 -13 -13q-14 0 -14 13q0 51 21 85.5t68 34.5zM896 -23q0 -103 -60.5 -163t-159.5 -60
q-121 0 -181.5 89t-60.5 237v36h-2q-75 -131 -219 -131q-80 0 -124.5 38t-44.5 107q0 73 55.5 114t138.5 41q100 0 196 -56q0 123 -37 185.5t-141 62.5q-76 0 -137 -24q-6 -2 -9 -2q-13 0 -13 14q0 10 13 15q64 25 148 25q116 0 161 -70.5t45 -206.5v-149q0 -136 52 -216.5
t161 -80.5q83 0 135.5 53.5t52.5 141.5q0 89 -50 171q-4 7 -4 11q0 6 5.5 10.5t11.5 4.5q8 0 12 -7q56 -95 56 -190zM214 13q90 0 151.5 58t68.5 128q-96 58 -196 58q-72 0 -117.5 -33.5t-45.5 -92.5q0 -58 37 -88t102 -30z" />
    <glyph glyph-name="d.fina" horiz-adv-x="995" 
d="M969 -23q0 -103 -60.5 -163t-159.5 -60q-121 0 -181.5 89t-60.5 237v41h-2q-31 -65 -86 -100.5t-121 -35.5q-106 0 -171 74t-65 186q0 113 65 187t169 74q76 0 128.5 -37t80.5 -89h2v360q0 15 15 15t15 -15v-661q0 -136 52 -216.5t161 -80.5q83 0 135.5 53.5t52.5 141.5
q0 89 -50 171q-4 7 -4 11q0 6 5.5 10.5t11.5 4.5q8 0 12 -7q56 -95 56 -190zM300 13q93 0 150.5 68t58.5 171q0 100 -58.5 163t-153.5 63q-90 0 -147 -65t-57 -168q0 -101 56.5 -166.5t150.5 -65.5z" />
    <glyph glyph-name="dcaron.fina" horiz-adv-x="995" 
d="M969 -23q0 -103 -60.5 -163t-159.5 -60q-121 0 -181.5 89t-60.5 237v41h-2q-31 -65 -86 -100.5t-121 -35.5q-106 0 -171 74t-65 186q0 113 65 187t169 74q76 0 128.5 -37t80.5 -89h2v360q0 15 15 15t15 -15v-661q0 -136 52 -216.5t161 -80.5q83 0 135.5 53.5t52.5 141.5
q0 89 -50 171q-4 7 -4 11q0 6 5.5 10.5t11.5 4.5q8 0 12 -7q56 -95 56 -190zM628 543q-5 0 -9 4.5t-3 9.5q17 88 19 183q0 6 4.5 10.5t10.5 4.5q7 0 11.5 -4.5t4.5 -10.5q0 -105 -26 -189q-2 -8 -12 -8zM300 13q93 0 150.5 68t58.5 171q0 100 -58.5 163t-153.5 63
q-90 0 -147 -65t-57 -168q0 -101 56.5 -166.5t150.5 -65.5z" />
    <glyph glyph-name="dcroat.fina" horiz-adv-x="995" 
d="M913 167q56 -95 56 -190q0 -103 -60.5 -163t-159.5 -60q-121 0 -181.5 89t-60.5 237v41h-2q-31 -65 -86 -100.5t-121 -35.5q-106 0 -171 74t-65 186q0 113 65 187t169 74q76 0 128.5 -37t80.5 -89h2v240h-176q-5 0 -9.5 4t-4.5 10t4.5 10t9.5 4h176v92q0 15 15 15t15 -15
v-92h47q5 0 9.5 -4t4.5 -10t-4.5 -10t-9.5 -4h-47v-541q0 -136 52 -216.5t161 -80.5q83 0 135.5 53.5t52.5 141.5q0 89 -50 171q-4 7 -4 11q0 6 5.5 10.5t11.5 4.5q8 0 12 -7zM300 13q93 0 150.5 68t58.5 171q0 100 -58.5 163t-153.5 63q-90 0 -147 -65t-57 -168
q0 -101 56.5 -166.5t150.5 -65.5z" />
    <glyph glyph-name="h.fina" horiz-adv-x="995" 
d="M970 -23q0 -103 -60.5 -163t-159.5 -60q-124 0 -183 88.5t-59 240.5v190q0 100 -38 152.5t-128 52.5t-149.5 -57t-59.5 -148l-1 -265q0 -15 -15 -15t-15 15v732q0 15 15 15t15 -15v-356h2q27 51 79.5 86.5t129.5 35.5q105 0 150 -59.5t45 -170.5v-184q0 -310 213 -310
q83 0 135.5 53.5t52.5 141.5q0 89 -50 171q-4 7 -4 11q0 6 5.5 10.5t11.5 4.5q8 0 12 -7q56 -95 56 -190z" />
    <glyph glyph-name="hbar.fina" horiz-adv-x="995" 
d="M914 167q56 -95 56 -190q0 -103 -60.5 -163t-159.5 -60q-124 0 -183 88.5t-59 240.5v190q0 100 -38 152.5t-128 52.5t-149.5 -57t-59.5 -148l-1 -265q0 -15 -15 -15t-15 15v612h-37q-5 0 -9.5 4t-4.5 10t4.5 10t9.5 4h37v92q0 15 15 15t15 -15v-92h186q5 0 9.5 -4
t4.5 -10t-4.5 -10t-9.5 -4h-186v-236h2q27 51 79.5 86.5t129.5 35.5q105 0 150 -59.5t45 -170.5v-184q0 -310 213 -310q83 0 135.5 53.5t52.5 141.5q0 89 -50 171q-4 7 -4 11q0 6 5.5 10.5t11.5 4.5q8 0 12 -7z" />
    <glyph glyph-name="k.fina" horiz-adv-x="950" 
d="M900 108q0 -109 -60 -167t-160 -58q-126 0 -219 89.5t-186 281.5h-143v-246q0 -15 -15 -15t-15 15v732q0 15 15 15t15 -15v-458h146l180 208q7 7 12 7q14 0 14 -13q0 -5 -3 -9l-179 -209q79 -173 170.5 -264t210.5 -91q84 0 135 51.5t51 145.5q0 89 -50 171q-4 7 -4 11
q0 6 5.5 10.5t11.5 4.5q8 0 12 -7q56 -95 56 -190z" />
    <glyph glyph-name="uni0137.fina" horiz-adv-x="950" 
d="M900 108q0 -109 -60 -167t-160 -58q-126 0 -219 89.5t-186 281.5h-143v-246q0 -15 -15 -15t-15 15v732q0 15 15 15t15 -15v-458h146l180 208q7 7 12 7q14 0 14 -13q0 -5 -3 -9l-179 -209q79 -173 170.5 -264t210.5 -91q84 0 135 51.5t51 145.5q0 89 -50 171q-4 7 -4 11
q0 6 5.5 10.5t11.5 4.5q8 0 12 -7q56 -95 56 -190zM253 -256q-5 0 -9 4.5t-3 9.5q17 88 19 183q0 6 4.5 10.5t10.5 4.5q7 0 11.5 -4.5t4.5 -10.5q0 -105 -26 -189q-2 -8 -12 -8z" />
    <glyph glyph-name="m.fina" horiz-adv-x="1380" 
d="M1355 -23q0 -103 -60.5 -163t-159.5 -60q-124 0 -183 88.5t-59 240.5v190q0 100 -38 152.5t-128 52.5q-83 0 -141 -61.5t-58 -155.5v-253q0 -15 -15 -15t-15 15v265q0 205 -166 205q-83 0 -140.5 -63.5t-58.5 -157.5l-1 -249q0 -15 -15 -15t-15 15v475q0 14 14 14
q13 0 13 -14v-122h2q23 63 80.5 104t121.5 41q151 0 183 -145h2q23 64 82 104.5t128 40.5q105 0 150 -59.5t45 -170.5v-184q0 -140 51 -225t164 -85q83 0 134.5 53t51.5 142t-50 171q-4 7 -4 11q0 6 5.5 10.5t11.5 4.5q8 0 12 -7q56 -95 56 -190z" />
    <glyph glyph-name="n.fina" horiz-adv-x="995" 
d="M970 -23q0 -103 -60.5 -163t-159.5 -60q-124 0 -183 88.5t-59 240.5v190q0 100 -38 152.5t-128 52.5q-89 0 -148.5 -63t-60.5 -158l-1 -249q0 -15 -15 -15t-15 15v475q0 14 14 14q13 0 13 -14v-122h2q23 64 82 104.5t130 40.5q105 0 150 -59.5t45 -170.5v-184
q0 -310 213 -310q83 0 135.5 53.5t52.5 141.5q0 89 -50 171q-4 7 -4 11q0 6 5.5 10.5t11.5 4.5q8 0 12 -7q56 -95 56 -190z" />
    <glyph glyph-name="nacute.fina" horiz-adv-x="995" 
d="M273 610l153 167q4 4 11 4q16 0 16 -16q0 -7 -5 -12l-158 -161q-4 -4 -9 -4q-12 0 -12 13q0 5 4 9zM970 -23q0 -103 -60.5 -163t-159.5 -60q-124 0 -183 88.5t-59 240.5v190q0 100 -38 152.5t-128 52.5q-89 0 -148.5 -63t-60.5 -158l-1 -249q0 -15 -15 -15t-15 15v475
q0 14 14 14q13 0 13 -14v-122h2q23 64 82 104.5t130 40.5q105 0 150 -59.5t45 -170.5v-184q0 -310 213 -310q83 0 135.5 53.5t52.5 141.5q0 89 -50 171q-4 7 -4 11q0 6 5.5 10.5t11.5 4.5q8 0 12 -7q56 -95 56 -190z" />
    <glyph glyph-name="ncaron.fina" horiz-adv-x="995" 
d="M339 574q-16 0 -79 73l-80 96q-6 9 -6 13q0 11 13 11q5 0 11 -7l141 -154h2l143 157q4 4 10 4q12 0 12 -12q0 -5 -7 -14l-92 -110q-31 -36 -44 -46.5t-24 -10.5zM970 -23q0 -103 -60.5 -163t-159.5 -60q-124 0 -183 88.5t-59 240.5v190q0 100 -38 152.5t-128 52.5
q-89 0 -148.5 -63t-60.5 -158l-1 -249q0 -15 -15 -15t-15 15v475q0 14 14 14q13 0 13 -14v-122h2q23 64 82 104.5t130 40.5q105 0 150 -59.5t45 -170.5v-184q0 -310 213 -310q83 0 135.5 53.5t52.5 141.5q0 89 -50 171q-4 7 -4 11q0 6 5.5 10.5t11.5 4.5q8 0 12 -7
q56 -95 56 -190z" />
    <glyph glyph-name="uni0146.fina" horiz-adv-x="995" 
d="M970 -23q0 -103 -60.5 -163t-159.5 -60q-124 0 -183 88.5t-59 240.5v190q0 100 -38 152.5t-128 52.5q-89 0 -148.5 -63t-60.5 -158l-1 -249q0 -15 -15 -15t-15 15v475q0 14 14 14q13 0 13 -14v-122h2q23 64 82 104.5t130 40.5q105 0 150 -59.5t45 -170.5v-184
q0 -310 213 -310q83 0 135.5 53.5t52.5 141.5q0 89 -50 171q-4 7 -4 11q0 6 5.5 10.5t11.5 4.5q8 0 12 -7q56 -95 56 -190zM291 -271q-5 0 -9 4.5t-3 9.5q17 88 19 183q0 6 4.5 10.5t10.5 4.5q7 0 11.5 -4.5t4.5 -10.5q0 -105 -26 -189q-2 -8 -12 -8z" />
    <glyph glyph-name="ntilde.fina" horiz-adv-x="995" 
d="M232 734q29 0 56 -17t43.5 -38t38 -38t41.5 -17q34 0 52 25t17 74q0 13 14 13q13 0 13 -13q0 -61 -25 -94t-68 -33q-26 0 -51.5 17t-42 38t-39.5 38t-45 17q-66 0 -66 -92q0 -13 -13 -13q-14 0 -14 13q0 51 21 85.5t68 34.5zM970 -23q0 -103 -60.5 -163t-159.5 -60
q-124 0 -183 88.5t-59 240.5v190q0 100 -38 152.5t-128 52.5q-89 0 -148.5 -63t-60.5 -158l-1 -249q0 -15 -15 -15t-15 15v475q0 14 14 14q13 0 13 -14v-122h2q23 64 82 104.5t130 40.5q105 0 150 -59.5t45 -170.5v-184q0 -310 213 -310q83 0 135.5 53.5t52.5 141.5
q0 89 -50 171q-4 7 -4 11q0 6 5.5 10.5t11.5 4.5q8 0 12 -7q56 -95 56 -190z" />
    <glyph glyph-name="t.fina" horiz-adv-x="615" 
d="M529 183q56 -95 56 -190q0 -103 -60.5 -163t-159.5 -60q-129 0 -187 87.5t-58 258.5v346h-71q-5 0 -9.5 4t-4.5 10t4.5 10t9.5 4h71q0 61 5 118q2 11 12 11q13 0 13 -12v-117h155q5 0 9.5 -4t4.5 -10t-4.5 -10t-9.5 -4h-155v-347q0 -156 51.5 -236.5t164.5 -80.5
q83 0 135.5 53.5t52.5 141.5q0 89 -50 171q-4 7 -4 11q0 6 5.5 10.5t11.5 4.5q8 0 12 -7z" />
    <glyph glyph-name="tbar.fina" horiz-adv-x="615" 
d="M529 167q56 -95 56 -190q0 -103 -61 -163t-159 -60q-242 0 -242 346v194h-67q-14 0 -14 14t14 14h67v140h-71q-14 0 -14 14t14 14h71q0 61 5 118q2 11 14 11q11 0 11 -12v-117h155q14 0 14 -14t-14 -14h-155v-140h152q14 0 14 -14t-14 -14h-152v-195q0 -156 51 -236.5
t164 -80.5q84 0 135 53t51 142t-50 171q-4 7 -4 11q0 6 5.5 10.5t11.5 4.5q8 0 12 -7z" />
    <glyph glyph-name="tcaron.fina" horiz-adv-x="615" 
d="M281 543q-5 0 -9 4.5t-3 9.5q17 88 19 183q0 6 4.5 10.5t10.5 4.5q7 0 11.5 -4.5t4.5 -10.5q0 -105 -26 -189q-2 -8 -12 -8zM529 183q56 -95 56 -190q0 -103 -60.5 -163t-159.5 -60q-129 0 -187 87.5t-58 258.5v346h-71q-5 0 -9.5 4t-4.5 10t4.5 10t9.5 4h71q0 61 5 118
q2 11 12 11q13 0 13 -12v-117h155q5 0 9.5 -4t4.5 -10t-4.5 -10t-9.5 -4h-155v-347q0 -156 51.5 -236.5t164.5 -80.5q83 0 135.5 53.5t52.5 141.5q0 89 -50 171q-4 7 -4 11q0 6 5.5 10.5t11.5 4.5q8 0 12 -7z" />
    <glyph glyph-name="uni0163.fina" horiz-adv-x="615" 
d="M585 -7q0 -102 -59 -161.5t-155 -61.5l-11 -37q4 0 11.5 -1t26.5 -6.5t33.5 -14t26.5 -27t12 -42.5q0 -49 -33 -74t-89 -25q-66 0 -111 36q-6 5 -6 13q0 14 15 14q5 0 17 -9t34.5 -17.5t50.5 -8.5q43 0 67.5 18t24.5 53q0 62 -99 67q-17 1 -12 20l12 42q-116 8 -168.5 95
t-52.5 250v346h-71q-5 0 -9.5 4t-4.5 10t4.5 10t9.5 4h71q0 61 5 118q2 11 12 11q13 0 13 -12v-117h155q5 0 9.5 -4t4.5 -10t-4.5 -10t-9.5 -4h-155v-347q0 -156 51.5 -236.5t164.5 -80.5q83 0 135.5 53.5t52.5 141.5q0 89 -50 171q-4 7 -4 11q0 6 5.5 10.5t11.5 4.5
q8 0 12 -7q56 -95 56 -190z" />
    <glyph glyph-name="uni021B.fina" horiz-adv-x="615" 
d="M529 183q56 -95 56 -190q0 -103 -60.5 -163t-159.5 -60q-129 0 -187 87.5t-58 258.5v346h-71q-5 0 -9.5 4t-4.5 10t4.5 10t9.5 4h71q0 61 5 118q2 11 12 11q13 0 13 -12v-117h155q5 0 9.5 -4t4.5 -10t-4.5 -10t-9.5 -4h-155v-347q0 -156 51.5 -236.5t164.5 -80.5
q83 0 135.5 53.5t52.5 141.5q0 89 -50 171q-4 7 -4 11q0 6 5.5 10.5t11.5 4.5q8 0 12 -7zM362 -256q7 0 11.5 -4.5t4.5 -10.5q0 -105 -26 -189q-2 -8 -12 -8q-5 0 -9 4.5t-3 9.5q17 88 19 183q0 6 4.5 10.5t10.5 4.5z" />
    <glyph glyph-name="u.fina" horiz-adv-x="986" 
d="M961 -23q0 -103 -60.5 -163t-159.5 -60q-124 0 -182.5 89t-58.5 241v40h-2q-23 -63 -80.5 -101t-129.5 -38q-105 0 -150 59t-45 170v268q0 15 15 15t15 -15v-265q0 -100 38 -152t128 -52q89 0 148.5 62.5t60.5 157.5l1 249q0 15 15 15t15 -15v-390q0 -140 51 -225
t164 -85q82 0 134 53.5t52 141.5q0 89 -50 171q-4 7 -4 11q0 6 5.5 10.5t11.5 4.5q8 0 12 -7q56 -95 56 -190z" />
    <glyph glyph-name="uacute.fina" horiz-adv-x="986" 
d="M256 595l153 167q4 4 11 4q16 0 16 -16q0 -7 -5 -12l-158 -161q-4 -4 -9 -4q-12 0 -12 13q0 5 4 9zM961 -23q0 -103 -60.5 -163t-159.5 -60q-124 0 -182.5 89t-58.5 241v40h-2q-23 -63 -80.5 -101t-129.5 -38q-105 0 -150 59t-45 170v268q0 15 15 15t15 -15v-265
q0 -100 38 -152t128 -52q89 0 148.5 62.5t60.5 157.5l1 249q0 15 15 15t15 -15v-390q0 -140 51 -225t164 -85q82 0 134 53.5t52 141.5q0 89 -50 171q-4 7 -4 11q0 6 5.5 10.5t11.5 4.5q8 0 12 -7q56 -95 56 -190z" />
    <glyph glyph-name="ucircumflex.fina" horiz-adv-x="986" 
d="M159 560q-12 0 -12 12q0 5 7 14l92 110q31 36 44 46.5t24 10.5q16 0 79 -73l80 -96q6 -9 6 -13q0 -11 -13 -11q-5 0 -11 7l-141 154h-2l-143 -157q-4 -4 -10 -4zM961 -23q0 -103 -60.5 -163t-159.5 -60q-124 0 -182.5 89t-58.5 241v40h-2q-23 -63 -80.5 -101t-129.5 -38
q-105 0 -150 59t-45 170v268q0 15 15 15t15 -15v-265q0 -100 38 -152t128 -52q89 0 148.5 62.5t60.5 157.5l1 249q0 15 15 15t15 -15v-390q0 -140 51 -225t164 -85q82 0 134 53.5t52 141.5q0 89 -50 171q-4 7 -4 11q0 6 5.5 10.5t11.5 4.5q8 0 12 -7q56 -95 56 -190z" />
    <glyph glyph-name="udieresis.fina" horiz-adv-x="986" 
d="M199 605q-18 0 -30 12t-12 30t12 29.5t30 11.5q19 0 30 -11t11 -30q0 -18 -11.5 -30t-29.5 -12zM417 605q-18 0 -30 12t-12 30t12 29.5t30 11.5q19 0 30 -11t11 -30q0 -18 -11.5 -30t-29.5 -12zM961 -23q0 -103 -60.5 -163t-159.5 -60q-124 0 -182.5 89t-58.5 241v40h-2
q-23 -63 -80.5 -101t-129.5 -38q-105 0 -150 59t-45 170v268q0 15 15 15t15 -15v-265q0 -100 38 -152t128 -52q89 0 148.5 62.5t60.5 157.5l1 249q0 15 15 15t15 -15v-390q0 -140 51 -225t164 -85q82 0 134 53.5t52 141.5q0 89 -50 171q-4 7 -4 11q0 6 5.5 10.5t11.5 4.5
q8 0 12 -7q56 -95 56 -190z" />
    <glyph glyph-name="ugrave.fina" horiz-adv-x="986" 
d="M182 762l153 -167q4 -4 4 -9q0 -13 -12 -13q-5 0 -9 4l-158 161q-5 5 -5 12q0 16 16 16q7 0 11 -4zM961 -23q0 -103 -60.5 -163t-159.5 -60q-124 0 -182.5 89t-58.5 241v40h-2q-23 -63 -80.5 -101t-129.5 -38q-105 0 -150 59t-45 170v268q0 15 15 15t15 -15v-265
q0 -100 38 -152t128 -52q89 0 148.5 62.5t60.5 157.5l1 249q0 15 15 15t15 -15v-390q0 -140 51 -225t164 -85q82 0 134 53.5t52 141.5q0 89 -50 171q-4 7 -4 11q0 6 5.5 10.5t11.5 4.5q8 0 12 -7q56 -95 56 -190z" />
    <glyph glyph-name="uhungarumlaut.fina" horiz-adv-x="986" 
d="M226 560q-5 0 -9 3.5t-4 8.5q0 6 4 14l82 161q4 10 14 10q19 0 19 -16q0 -4 -3 -10l-86 -155q-8 -16 -17 -16zM412 560q-5 0 -9 3.5t-4 8.5q0 6 4 14l82 161q4 10 14 10q19 0 19 -16q0 -4 -3 -10l-86 -155q-8 -16 -17 -16zM961 -23q0 -103 -60.5 -163t-159.5 -60
q-124 0 -182.5 89t-58.5 241v40h-2q-23 -63 -80.5 -101t-129.5 -38q-105 0 -150 59t-45 170v268q0 15 15 15t15 -15v-265q0 -100 38 -152t128 -52q89 0 148.5 62.5t60.5 157.5l1 249q0 15 15 15t15 -15v-390q0 -140 51 -225t164 -85q82 0 134 53.5t52 141.5q0 89 -50 171
q-4 7 -4 11q0 6 5.5 10.5t11.5 4.5q8 0 12 -7q56 -95 56 -190z" />
    <glyph glyph-name="umacron.fina" horiz-adv-x="986" 
d="M472 632h-317q-5 0 -9.5 4t-4.5 10t4.5 10t9.5 4h317q5 0 9.5 -4t4.5 -10t-4.5 -10t-9.5 -4zM961 -23q0 -103 -60.5 -163t-159.5 -60q-124 0 -182.5 89t-58.5 241v40h-2q-23 -63 -80.5 -101t-129.5 -38q-105 0 -150 59t-45 170v268q0 15 15 15t15 -15v-265
q0 -100 38 -152t128 -52q89 0 148.5 62.5t60.5 157.5l1 249q0 15 15 15t15 -15v-390q0 -140 51 -225t164 -85q82 0 134 53.5t52 141.5q0 89 -50 171q-4 7 -4 11q0 6 5.5 10.5t11.5 4.5q8 0 12 -7q56 -95 56 -190z" />
    <glyph glyph-name="uogonek.fina" horiz-adv-x="986" 
d="M828 -232q-95 -49 -95 -130q0 -37 22.5 -58t59.5 -21q9 0 27 2q15 2 15 -14q0 -7 -9 -12q-11 -4 -33 -4q-48 0 -79 29.5t-31 75.5q0 67 58 119q-7 -1 -22 -1q-124 0 -182.5 89t-58.5 241v40h-2q-23 -63 -80.5 -101t-129.5 -38q-105 0 -150 59t-45 170v268q0 15 15 15
t15 -15v-265q0 -100 38 -152t128 -52q89 0 148.5 62.5t60.5 157.5l1 249q0 15 15 15t15 -15v-390q0 -140 51 -225t164 -85q82 0 134 53.5t52 141.5q0 89 -50 171q-4 7 -4 11q0 6 5.5 10.5t11.5 4.5q8 0 12 -7q56 -95 56 -190q0 -77 -35.5 -131.5t-97.5 -77.5z" />
    <glyph glyph-name="uring.fina" horiz-adv-x="986" 
d="M315 566q-40 0 -65.5 26.5t-25.5 64.5q0 39 25 65t66 26q40 0 65.5 -26t25.5 -65q0 -38 -25.5 -64.5t-65.5 -26.5zM315 594q26 0 43.5 18.5t17.5 44.5q0 27 -17 45t-44 18t-44 -18t-17 -45t17 -45t44 -18zM961 -23q0 -103 -60.5 -163t-159.5 -60q-124 0 -182.5 89
t-58.5 241v40h-2q-23 -63 -80.5 -101t-129.5 -38q-105 0 -150 59t-45 170v268q0 15 15 15t15 -15v-265q0 -100 38 -152t128 -52q89 0 148.5 62.5t60.5 157.5l1 249q0 15 15 15t15 -15v-390q0 -140 51 -225t164 -85q82 0 134 53.5t52 141.5q0 89 -50 171q-4 7 -4 11
q0 6 5.5 10.5t11.5 4.5q8 0 12 -7q56 -95 56 -190z" />
    <glyph glyph-name="utilde.fina" horiz-adv-x="986" 
d="M215 719q29 0 56 -17t43.5 -38t38 -38t41.5 -17q70 0 69 99q0 13 14 13q13 0 13 -13q0 -61 -25 -94t-68 -33q-26 0 -51.5 17t-42 38t-39.5 38t-45 17q-66 0 -66 -92q0 -13 -13 -13q-14 0 -14 13q0 51 21 85.5t68 34.5zM961 -23q0 -103 -60.5 -163t-159.5 -60
q-124 0 -182.5 89t-58.5 241v40h-2q-23 -63 -80.5 -101t-129.5 -38q-105 0 -150 59t-45 170v268q0 15 15 15t15 -15v-265q0 -100 38 -152t128 -52q89 0 148.5 62.5t60.5 157.5l1 249q0 15 15 15t15 -15v-390q0 -140 51 -225t164 -85q82 0 134 53.5t52 141.5q0 89 -50 171
q-4 7 -4 11q0 6 5.5 10.5t11.5 4.5q8 0 12 -7q56 -95 56 -190z" />
    <glyph glyph-name="f.init" horiz-adv-x="699" 
d="M737 742q8 -5 8 -14q0 -13 -14 -13q-5 0 -33.5 13.5t-66.5 13.5q-63 0 -100 -47.5t-37 -134.5v-70h175q5 0 9.5 -4t4.5 -10t-4.5 -10t-9.5 -4h-175v-362q0 -346 -242 -346q-99 0 -163 58.5t-64 172.5q0 95 56 190q4 7 12 7q6 0 11.5 -4.5t5.5 -10.5q0 -4 -4 -11
q-50 -82 -50 -171q0 -102 54.5 -152.5t141.5 -50.5q212 0 212 318v362h-57q-5 0 -9.5 4t-4.5 10t4.5 10t9.5 4h57v70q0 101 46 155.5t124 54.5q64 0 103 -28z" />
    <glyph glyph-name="h.init" horiz-adv-x="920" 
d="M-31 632q0 96 59.5 154t161.5 58q231 0 231 -324v-136h2q27 51 79.5 86.5t129.5 35.5q105 0 150 -59.5t45 -170.5v-268q0 -15 -15 -15t-15 15v265q0 100 -38 152.5t-128 52.5t-149.5 -57t-59.5 -148l-1 -265q0 -15 -15 -15t-15 15v507q0 301 -201 301q-92 0 -141 -51
t-49 -133q0 -89 50 -171q4 -7 4 -11q0 -6 -5.5 -10.5t-11.5 -4.5q-8 0 -12 7q-56 95 -56 190z" />
    <glyph glyph-name="j.init" horiz-adv-x="594" 
d="M474 635q-18 0 -30 12t-12 30t12 29.5t30 11.5q19 0 30 -11t11 -30q0 -18 -11.5 -30t-29.5 -12zM57 -23q0 -89 51 -142t135 -53q215 0 215 317v377q0 6 4.5 10.5t10.5 4.5t10.5 -4.5t4.5 -10.5v-376q0 -346 -242 -346q-98 0 -159 60t-61 163q0 95 56 190q4 7 12 7
q6 0 11.5 -4.5t5.5 -10.5q0 -4 -4 -11q-50 -82 -50 -171z" />
    <glyph glyph-name="k.init" horiz-adv-x="819" 
d="M-31 632q0 96 59.5 154t161.5 58q231 0 231 -324v-238h146l180 208q7 7 12 7q14 0 14 -13q0 -5 -3 -9l-179 -209l186 -246q6 -9 6 -14q0 -13 -14 -13q-7 0 -14 8l-191 253h-143v-246q0 -15 -15 -15t-15 15v507q0 301 -201 301q-92 0 -141 -51t-49 -133q0 -89 50 -171
q4 -7 4 -11q0 -6 -5.5 -10.5t-11.5 -4.5q-8 0 -12 7q-56 95 -56 190z" />
    <glyph glyph-name="uni0137.init" horiz-adv-x="819" 
d="M-31 632q0 96 59.5 154t161.5 58q231 0 231 -324v-238h146l180 208q7 7 12 7q14 0 14 -13q0 -5 -3 -9l-179 -209l186 -246q6 -9 6 -14q0 -13 -14 -13q-7 0 -14 8l-191 253h-143v-246q0 -15 -15 -15t-15 15v507q0 301 -201 301q-92 0 -141 -51t-49 -133q0 -89 50 -171
q4 -7 4 -11q0 -6 -5.5 -10.5t-11.5 -4.5q-8 0 -12 7q-56 95 -56 190zM542 -256q-5 0 -9 4.5t-3 9.5q17 88 19 183q0 6 4.5 10.5t10.5 4.5q7 0 11.5 -4.5t4.5 -10.5q0 -105 -26 -189q-2 -8 -12 -8z" />
    <glyph glyph-name="m.init" horiz-adv-x="1372" 
d="M46 411q0 95 57.5 153.5t153.5 58.5q109 0 163.5 -71.5t61.5 -190.5h2q23 63 82 104t123 41q151 0 183 -145h2q23 64 82 104.5t128 40.5q105 0 150 -59.5t45 -170.5v-268q0 -15 -15 -15t-15 15v265q0 100 -38 152.5t-128 52.5q-83 0 -141 -61.5t-58 -155.5v-253
q0 -15 -15 -15t-15 15v265q0 205 -166 205q-83 0 -140.5 -63.5t-58.5 -157.5l-1 -249q0 -15 -15 -15t-15 15v270q0 73 -9 127t-31 99t-62 68t-99 23q-85 0 -132.5 -51t-47.5 -133q0 -89 50 -171q4 -7 4 -11q0 -6 -5.5 -10.5t-11.5 -4.5q-8 0 -12 7q-56 95 -56 190z" />
    <glyph glyph-name="n.init" horiz-adv-x="987" 
d="M46 411q0 95 57.5 153.5t153.5 58.5q109 0 163.5 -71.5t61.5 -190.5h2q23 64 83.5 104.5t131.5 40.5q105 0 150 -59.5t45 -170.5v-268q0 -15 -15 -15t-15 15v265q0 100 -38 152.5t-128 52.5q-89 0 -148.5 -63t-60.5 -158l-1 -249q0 -15 -15 -15t-15 15v270q0 73 -9 127
t-31 99t-62 68t-99 23q-85 0 -132.5 -51t-47.5 -133q0 -89 50 -171q4 -7 4 -11q0 -6 -5.5 -10.5t-11.5 -4.5q-8 0 -12 7q-56 95 -56 190z" />
    <glyph glyph-name="nacute.init" horiz-adv-x="987" 
d="M642 610l153 167q4 4 11 4q16 0 16 -16q0 -7 -5 -12l-158 -161q-4 -4 -9 -4q-12 0 -12 13q0 5 4 9zM46 411q0 95 57.5 153.5t153.5 58.5q109 0 163.5 -71.5t61.5 -190.5h2q23 64 83.5 104.5t131.5 40.5q105 0 150 -59.5t45 -170.5v-268q0 -15 -15 -15t-15 15v265
q0 100 -38 152.5t-128 52.5q-89 0 -148.5 -63t-60.5 -158l-1 -249q0 -15 -15 -15t-15 15v270q0 73 -9 127t-31 99t-62 68t-99 23q-85 0 -132.5 -51t-47.5 -133q0 -89 50 -171q4 -7 4 -11q0 -6 -5.5 -10.5t-11.5 -4.5q-8 0 -12 7q-56 95 -56 190z" />
    <glyph glyph-name="ncaron.init" horiz-adv-x="987" 
d="M708 574q-16 0 -79 73l-80 96q-6 9 -6 13q0 11 13 11q5 0 11 -7l141 -154h2l143 157q4 4 10 4q12 0 12 -12q0 -5 -7 -14l-92 -110q-31 -36 -44 -46.5t-24 -10.5zM46 411q0 95 57.5 153.5t153.5 58.5q109 0 163.5 -71.5t61.5 -190.5h2q23 64 83.5 104.5t131.5 40.5
q105 0 150 -59.5t45 -170.5v-268q0 -15 -15 -15t-15 15v265q0 100 -38 152.5t-128 52.5q-89 0 -148.5 -63t-60.5 -158l-1 -249q0 -15 -15 -15t-15 15v270q0 73 -9 127t-31 99t-62 68t-99 23q-85 0 -132.5 -51t-47.5 -133q0 -89 50 -171q4 -7 4 -11q0 -6 -5.5 -10.5
t-11.5 -4.5q-8 0 -12 7q-56 95 -56 190z" />
    <glyph glyph-name="uni0146.init" horiz-adv-x="987" 
d="M46 411q0 95 57.5 153.5t153.5 58.5q109 0 163.5 -71.5t61.5 -190.5h2q23 64 83.5 104.5t131.5 40.5q105 0 150 -59.5t45 -170.5v-268q0 -15 -15 -15t-15 15v265q0 100 -38 152.5t-128 52.5q-89 0 -148.5 -63t-60.5 -158l-1 -249q0 -15 -15 -15t-15 15v270q0 73 -9 127
t-31 99t-62 68t-99 23q-85 0 -132.5 -51t-47.5 -133q0 -89 50 -171q4 -7 4 -11q0 -6 -5.5 -10.5t-11.5 -4.5q-8 0 -12 7q-56 95 -56 190zM674 -271q-5 0 -9 4.5t-3 9.5q17 88 19 183q0 6 4.5 10.5t10.5 4.5q7 0 11.5 -4.5t4.5 -10.5q0 -105 -26 -189q-2 -8 -12 -8z" />
    <glyph glyph-name="ntilde.init" horiz-adv-x="987" 
d="M601 734q29 0 56 -17t43.5 -38t38 -38t41.5 -17q70 0 69 99q0 13 14 13q13 0 13 -13q0 -61 -25 -94t-68 -33q-26 0 -51.5 17t-42 38t-39.5 38t-45 17q-66 0 -66 -92q0 -13 -13 -13q-14 0 -14 13q0 51 21 85.5t68 34.5zM46 411q0 95 57.5 153.5t153.5 58.5
q109 0 163.5 -71.5t61.5 -190.5h2q23 64 83.5 104.5t131.5 40.5q105 0 150 -59.5t45 -170.5v-268q0 -15 -15 -15t-15 15v265q0 100 -38 152.5t-128 52.5q-89 0 -148.5 -63t-60.5 -158l-1 -249q0 -15 -15 -15t-15 15v270q0 73 -9 127t-31 99t-62 68t-99 23q-85 0 -132.5 -51
t-47.5 -133q0 -89 50 -171q4 -7 4 -11q0 -6 -5.5 -10.5t-11.5 -4.5q-8 0 -12 7q-56 95 -56 190z" />
    <glyph glyph-name="p.init" horiz-adv-x="1017" 
d="M48 400q0 103 61 163t159 60q103 0 164 -70t73 -189h2q31 68 88 105t124 37q106 0 171 -74.5t65 -186.5q0 -113 -65 -186.5t-169 -73.5q-77 0 -129.5 34.5t-79.5 84.5h-2v-304q0 -16 -15 -16t-15 16v478q0 156 -51.5 236.5t-163.5 80.5q-84 0 -135 -53t-51 -142t50 -171
q4 -7 4 -11q0 -6 -5.5 -10.5t-11.5 -4.5q-8 0 -12 7q-56 95 -56 190zM720 13q90 0 147 64.5t57 167.5q0 101 -56.5 167t-150.5 66q-92 0 -150 -69.5t-59 -170.5q-1 -102 57.5 -163.5t154.5 -61.5z" />
    <glyph glyph-name="y.init" horiz-adv-x="724" 
d="M-7 -108q0 95 56 190q4 7 12 7q6 0 11.5 -4.5t5.5 -10.5q0 -4 -4 -11q-50 -82 -50 -171q0 -90 45 -137.5t118 -47.5q24 0 47 7t42.5 21t36 29t32.5 38.5t26.5 40t23.5 43.5t18.5 40t15.5 37.5t12 28.5l-208 484q-3 6 1.5 13.5t13.5 7.5t15 -13l194 -450h2l194 454
q5 9 14 9q8 0 12.5 -6.5t1.5 -14.5l-206 -485q-55 -128 -86 -177q-86 -134 -201 -135q-86 0 -140.5 55t-54.5 158z" />
    <glyph glyph-name="yacute.init" horiz-adv-x="724" 
d="M404 595l153 167q4 4 11 4q16 0 16 -16q0 -7 -5 -12l-158 -161q-4 -4 -9 -4q-12 0 -12 13q0 5 4 9zM-7 -108q0 95 56 190q4 7 12 7q6 0 11.5 -4.5t5.5 -10.5q0 -4 -4 -11q-50 -82 -50 -171q0 -90 45 -137.5t118 -47.5q24 0 47 7t42.5 21t36 29t32.5 38.5t26.5 40
t23.5 43.5t18.5 40t15.5 37.5t12 28.5l-208 484q-3 6 1.5 13.5t13.5 7.5t15 -13l194 -450h2l194 454q5 9 14 9q8 0 12.5 -6.5t1.5 -14.5l-206 -485q-55 -128 -86 -177q-86 -134 -201 -135q-86 0 -140.5 55t-54.5 158z" />
    <glyph glyph-name="ycircumflex.init" horiz-adv-x="724" 
d="M317 560q-12 0 -12 12q0 5 7 14l92 110q31 36 44 46.5t24 10.5q16 0 79 -73l80 -96q6 -9 6 -13q0 -11 -13 -11q-5 0 -11 7l-141 154h-2l-143 -157q-4 -4 -10 -4zM-7 -108q0 95 56 190q4 7 12 7q6 0 11.5 -4.5t5.5 -10.5q0 -4 -4 -11q-50 -82 -50 -171q0 -90 45 -137.5
t118 -47.5q24 0 47 7t42.5 21t36 29t32.5 38.5t26.5 40t23.5 43.5t18.5 40t15.5 37.5t12 28.5l-208 484q-3 6 1.5 13.5t13.5 7.5t15 -13l194 -450h2l194 454q5 9 14 9q8 0 12.5 -6.5t1.5 -14.5l-206 -485q-55 -128 -86 -177q-86 -134 -201 -135q-86 0 -140.5 55t-54.5 158z
" />
    <glyph glyph-name="ydieresis.init" horiz-adv-x="724" 
d="M353 605q-18 0 -30 12t-12 30t12 29.5t30 11.5q19 0 30 -11t11 -30q0 -18 -11.5 -30t-29.5 -12zM571 605q-18 0 -30 12t-12 30t12 29.5t30 11.5q19 0 30 -11t11 -30q0 -18 -11.5 -30t-29.5 -12zM-7 -108q0 95 56 190q4 7 12 7q6 0 11.5 -4.5t5.5 -10.5q0 -4 -4 -11
q-50 -82 -50 -171q0 -90 45 -137.5t118 -47.5q24 0 47 7t42.5 21t36 29t32.5 38.5t26.5 40t23.5 43.5t18.5 40t15.5 37.5t12 28.5l-208 484q-3 6 1.5 13.5t13.5 7.5t15 -13l194 -450h2l194 454q5 9 14 9q8 0 12.5 -6.5t1.5 -14.5l-206 -485q-55 -128 -86 -177
q-86 -134 -201 -135q-86 0 -140.5 55t-54.5 158z" />
    <glyph glyph-name="ygrave.init" horiz-adv-x="724" 
d="M330 762l153 -167q4 -4 4 -9q0 -13 -12 -13q-5 0 -9 4l-158 161q-5 5 -5 12q0 16 16 16q7 0 11 -4zM-7 -108q0 95 56 190q4 7 12 7q6 0 11.5 -4.5t5.5 -10.5q0 -4 -4 -11q-50 -82 -50 -171q0 -90 45 -137.5t118 -47.5q24 0 47 7t42.5 21t36 29t32.5 38.5t26.5 40
t23.5 43.5t18.5 40t15.5 37.5t12 28.5l-208 484q-3 6 1.5 13.5t13.5 7.5t15 -13l194 -450h2l194 454q5 9 14 9q8 0 12.5 -6.5t1.5 -14.5l-206 -485q-55 -128 -86 -177q-86 -134 -201 -135q-86 0 -140.5 55t-54.5 158z" />
    <glyph glyph-name="uni1EF9.init" horiz-adv-x="724" 
d="M363 719q29 0 56 -17t43.5 -38t38 -38t41.5 -17q70 0 69 99q0 13 14 13q13 0 13 -13q0 -61 -25 -94t-68 -33q-26 0 -51.5 17t-42 38t-39.5 38t-45 17q-66 0 -66 -92q0 -13 -13 -13q-14 0 -14 13q0 51 21 85.5t68 34.5zM-7 -108q0 95 56 190q4 7 12 7q6 0 11.5 -4.5
t5.5 -10.5q0 -4 -4 -11q-50 -82 -50 -171q0 -90 45 -137.5t118 -47.5q24 0 47 7t42.5 21t36 29t32.5 38.5t26.5 40t23.5 43.5t18.5 40t15.5 37.5t12 28.5l-208 484q-3 6 1.5 13.5t13.5 7.5t15 -13l194 -450h2l194 454q5 9 14 9q8 0 12.5 -6.5t1.5 -14.5l-206 -485
q-55 -128 -86 -177q-86 -134 -201 -135q-86 0 -140.5 55t-54.5 158z" />
    <glyph glyph-name="y.ss01" horiz-adv-x="626" 
d="M282 -230q-103 0 -161 48q-7 6 -7 13q0 13 15 13q6 0 23 -11.5t50.5 -23t79.5 -11.5q108 0 160 57.5t52 157.5v90h-2q-63 -118 -204 -118q-105 0 -150 59t-45 170v268q0 6 4.5 10.5t10.5 4.5t10.5 -4.5t4.5 -10.5v-265q0 -100 38 -152t128 -52q91 0 147 59.5t57 160.5
l1 249q0 6 4.5 10.5t10.5 4.5t10.5 -4.5t4.5 -10.5v-469q0 -113 -59 -178t-183 -65z" />
    <glyph glyph-name="IJacute" horiz-adv-x="704" 
d="M76 815l153 167q4 4 11 4q16 0 16 -16q0 -7 -5 -12l-158 -161q-4 -4 -9 -4q-12 0 -12 13q0 5 4 9zM520 815l153 167q4 4 11 4q16 0 16 -16q0 -7 -5 -12l-158 -161q-4 -4 -9 -4q-12 0 -12 13q0 5 4 9zM134 -7q-15 0 -15 15v705q0 15 15 15t15 -15v-705q0 -15 -15 -15z
M406 -15q-60 0 -98 27q-8 5 -8 15q0 13 14 13q4 0 30 -13.5t62 -13.5q157 0 157 211v481q0 6 4.5 10.5t10.5 4.5t10.5 -4.5t4.5 -10.5v-481q0 -106 -44 -172.5t-143 -66.5z" />
    <glyph glyph-name="ijacute" horiz-adv-x="487" 
d="M77 583l153 167q4 4 11 4q16 0 16 -16q0 -7 -5 -12l-158 -161q-4 -4 -9 -4q-12 0 -12 13q0 5 4 9zM329 583l153 167q4 4 11 4q16 0 16 -16q0 -7 -5 -12l-158 -161q-4 -4 -9 -4q-12 0 -12 13q0 5 4 9zM121 -7q-15 0 -15 15v474q0 15 15 15t15 -15v-474q0 -15 -15 -15z
M242 -230q-60 0 -98 27q-8 5 -8 15q0 13 14 13q4 0 30 -13.5t62 -13.5q20 0 36.5 5t27.5 14t19 21.5t13 28t8 33t3.5 36t1.5 38t0 38.5v21v442q0 15 15 15t15 -15v-470v-45t-2.5 -44.5t-7.5 -46t-15 -37.5t-24.5 -33.5t-37.5 -20t-52 -8.5z" />
    </font>
</defs>
</svg>
