<?xml version="1.0" standalone="no"?>
<!DOCTYPE svg PUBLIC "-//W3C//DTD SVG 1.1//EN" "http://www.w3.org/Graphics/SVG/1.1/DTD/svg11.dtd" >
<svg xmlns="http://www.w3.org/2000/svg" xmlns:xlink="http://www.w3.org/1999/xlink" version="1.1">
<metadata>
Created by FontForge 20170731 at Wed Nov  7 09:31:56 2018
 By Aleksey,,,
Copyright (c) 2018 by Sofia Mohr. All rights reserved.
</metadata>
<defs>
<font id="MohrRounded-Medium" horiz-adv-x="633" >
  <font-face 
    font-family="MohrRounded-Medium"
    font-weight="400"
    font-stretch="normal"
    units-per-em="1000"
    panose-1="0 0 6 0 0 0 0 0 0 0"
    ascent="770"
    descent="-230"
    x-height="507"
    cap-height="728"
    bbox="-479 -515 1434.67 1055"
    underline-thickness="50"
    underline-position="-200"
    unicode-range="U+0020-FB02"
  />
<missing-glyph horiz-adv-x="530" 
d="M50 730h430v-730h-430v730zM115 695l150 -287l150 287h-300zM243 365l-153 292v-584zM288 365l152 -292v584zM265 322l-150 -287h300z" />
    <glyph glyph-name="fi" unicode="fi" horiz-adv-x="592" 
d="M463 500q49 0 49 -50v-395q0 -26 -14 -43.5t-42 -17.5t-42.5 17.5t-14.5 43.5v345h-178v-347q0 -26 -14 -43.5t-42 -17.5t-42.5 17.5t-14.5 43.5l-2 347h-18q-20 0 -34.5 14.5t-14.5 35.5q0 20 14.5 35t34.5 15h17q1 78 20.5 132.5t54.5 83.5t76 41.5t94 12.5
q91 0 140 -40q22 -18 22 -42t-13 -36t-33 -12q-17 0 -52 13t-71 13q-119 0 -122 -166h242z" />
    <glyph glyph-name="fl" unicode="fl" horiz-adv-x="588" 
d="M451 759q28 0 42 -17t14 -43v-646q0 -26 -14 -43.5t-42 -17.5t-42.5 17.5t-14.5 43.5v610q-34 10 -62 10q-55 0 -83 -35.5t-28 -116.5v-21h72q20 0 34.5 -15t14.5 -35q0 -21 -14.5 -35.5t-34.5 -14.5h-72v-347q0 -26 -14 -43.5t-42 -17.5t-42.5 17.5t-14.5 43.5l-2 347
h-17q-20 0 -34.5 14.5t-14.5 35.5q0 20 14.5 35t34.5 15h16v31q0 69 18 118t50 74t66.5 36t75.5 11q65 0 104 -19q14 8 32 8z" />
    <glyph glyph-name="f_f" unicode="ff" horiz-adv-x="673" 
d="M697 735q16 -17 16 -42q0 -21 -12.5 -33.5t-31.5 -12.5q-15 0 -38 9.5t-44 9.5q-35 0 -55 -25.5t-20 -70.5v-70h95q22 0 37 -12.5t15 -37.5q0 -24 -15 -37t-37 -13h-95v-347q0 -26 -14.5 -43.5t-42.5 -17.5t-42 17.5t-14 43.5l-1 347h-177v-350q0 -23 -16.5 -40
t-39.5 -17q-24 0 -40.5 16.5t-16.5 39.5l-2 351h-14q-23 0 -38 13t-15 37q0 25 15 37.5t38 12.5h13v34q0 68 19.5 117t53.5 73.5t70 35t78 10.5q34 0 76 -9.5t68 -23.5q46 33 114 33q76 0 113 -35zM398 500v74q0 48 15 87q-42 12 -70 12q-122 0 -122 -149v-24h177z" />
    <glyph glyph-name="f_f_i" unicode="ffi" horiz-adv-x="877" 
d="M748 500q50 0 50 -50v-395q0 -26 -14.5 -43.5t-42.5 -17.5q-27 0 -41.5 17.5t-14.5 43.5v345h-179v-347q0 -26 -14 -43.5t-42 -17.5t-42.5 17.5t-14.5 43.5l-2 347h-170v-347q0 -26 -14 -43.5t-42 -17.5t-42.5 17.5t-14.5 43.5v347h-20q-20 0 -34.5 14.5t-14.5 35.5
q0 20 14.5 35t34.5 15h20v34q0 69 19.5 117.5t53 73t69 35t76.5 10.5q92 0 149 -37l6 -4q57 41 154 41q91 0 140 -40q23 -18 23 -42q0 -23 -13.5 -35.5t-33.5 -12.5q-17 0 -52 13t-71 13q-119 0 -122 -166h242zM221 500h170q1 97 31 158q-43 15 -79 15q-122 0 -122 -149v-24
z" />
    <glyph glyph-name="f_f_l" unicode="ffl" horiz-adv-x="868" 
d="M731 759q28 0 42 -17t14 -43v-646q0 -26 -14 -43.5t-42 -17.5t-42.5 17.5t-14.5 43.5v610q-34 10 -62 10q-56 0 -83.5 -35t-27.5 -117v-21h72q20 0 34.5 -15t14.5 -35q0 -21 -14.5 -35.5t-34.5 -14.5h-72v-347q0 -26 -14 -43.5t-42 -17.5t-42.5 17.5t-14.5 43.5l-2 347
h-165v-347q0 -26 -14 -43.5t-42 -17.5t-42.5 17.5t-14.5 43.5v347h-20q-20 0 -34.5 14.5t-14.5 35.5q0 20 14.5 35t34.5 15h20v34q0 69 19 117.5t52.5 73t69 35t76.5 10.5q89 0 144 -34q50 34 126 34q63 0 104 -19q14 8 32 8zM385 500v31q0 79 23 130q-40 12 -66 12
q-121 0 -121 -149v-24h164z" />
    <glyph glyph-name="f_t" unicode="ft" horiz-adv-x="695" 
d="M634 107q16 0 28 -13t12 -33q0 -25 -15 -43q-31 -35 -103 -35q-85 0 -121.5 57.5t-36.5 145.5v214h-171v-347q0 -26 -14.5 -43.5t-42.5 -17.5t-42 17.5t-14 43.5l-1 347h-29q-23 0 -38 13t-15 37q0 25 15 37.5t38 12.5h29v74q0 87 48 141.5t138 54.5q76 0 113 -35
q16 -17 16 -42q0 -21 -13 -33.5t-32 -12.5q-15 0 -37 9.5t-44 9.5q-35 0 -55 -25.5t-20 -70.5v-70h174q5 46 16 79q17 44 51 44q43 0 43 -48v-75h92q20 0 34.5 -15t14.5 -35q0 -21 -14.5 -35.5t-34.5 -14.5h-92v-200q0 -27 1.5 -43t6.5 -34t17 -26t32 -8q18 0 36.5 9t29.5 9
z" />
    <glyph glyph-name="t_t" unicode="tt" horiz-adv-x="714" 
d="M652 107q17 0 28.5 -12.5t11.5 -33.5q0 -26 -14 -43q-32 -35 -106 -35q-61 0 -99 31t-50.5 73.5t-12.5 98.5v214h-192v-200q0 -29 1 -43.5t6 -33t17 -26.5t32 -8q14 0 31 6t27 6q16 0 28 -13t12 -34q0 -22 -17 -41q-30 -30 -88 -30q-61 0 -99 31t-50.5 73.5t-12.5 98.5
v214h-30q-20 0 -34.5 14.5t-14.5 35.5q0 20 14.5 35t34.5 15h33q3 43 15 79q19 44 51 44q44 0 44 -48v-75h194q5 46 16 79q17 44 51 44q22 0 33 -13.5t11 -34.5v-75h100q20 0 34.5 -15t14.5 -35q0 -21 -14.5 -35.5t-34.5 -14.5h-100v-200q0 -22 0.5 -35t4 -29.5t9.5 -25
t17.5 -15t28.5 -6.5q20 0 39 9t30 9z" />
    <glyph glyph-name=".notdef" horiz-adv-x="530" 
d="M50 730h430v-730h-430v730zM115 695l150 -287l150 287h-300zM243 365l-153 292v-584zM288 365l152 -292v584zM265 322l-150 -287h300z" />
    <glyph glyph-name=".null" horiz-adv-x="0" 
 />
    <glyph glyph-name="nonmarkingreturn" horiz-adv-x="333" 
 />
    <glyph glyph-name="space" unicode=" " horiz-adv-x="258" 
 />
    <glyph glyph-name="exclam" unicode="!" horiz-adv-x="304" 
d="M152 223q-26 0 -40.5 15t-14.5 39l-6 389q-1 26 16 44t45 18q27 0 44 -18t16 -43l-5 -390q-1 -24 -15.5 -39t-39.5 -15zM152 -16q-36 0 -58.5 22t-22.5 58t22.5 57t58.5 21t58 -21t22 -57q0 -37 -22 -58.5t-58 -21.5z" />
    <glyph glyph-name="quotedbl" unicode="&#x22;" horiz-adv-x="415" 
d="M114 457q-41 0 -43 41l-9 172q-1 24 12.5 39.5t39.5 15.5q55 0 53 -55l-9 -172q-4 -41 -44 -41zM300 457q-40 0 -44 41l-8 172q-1 24 12.5 39.5t39.5 15.5q55 0 53 -55l-9 -172q-4 -41 -44 -41z" />
    <glyph glyph-name="numbersign" unicode="#" horiz-adv-x="804" 
d="M720 549q22 0 36.5 -13t14.5 -38q0 -24 -14.5 -37.5t-36.5 -13.5h-98l-42 -161h73q22 0 36.5 -13t14.5 -37t-14 -38t-37 -14h-99l-39 -154q-9 -38 -50 -38q-30 0 -43.5 17.5t-5.5 46.5l33 128h-194l-39 -153q-11 -39 -50 -39q-30 0 -44 18t-6 47l32 127h-62
q-22 0 -36.5 13t-14.5 38q0 23 14.5 37t36.5 14h88l41 161h-62q-22 0 -36.5 13.5t-14.5 37.5q0 23 14.5 37t36.5 14h88l36 140q9 39 54 39q26 0 39.5 -18.5t6.5 -46.5l-29 -114h193l36 141q9 38 54 38q26 0 39.5 -18.5t6.5 -45.5l-29 -115h72zM474 286l41 161h-193l-41 -161
h193z" />
    <glyph glyph-name="dollar" unicode="$" horiz-adv-x="537" 
d="M493 251q0 -60 -41 -104t-131 -55v-68q0 -19 -13.5 -32.5t-33.5 -13.5q-19 0 -32.5 13.5t-13.5 32.5v66q-102 8 -153 46q-29 23 -29 54q0 20 12.5 31t33.5 10q10 -2 69.5 -26t109.5 -24q110 0 110 60q0 18 -9 30t-32 21t-39 13.5t-54 12.5q-40 9 -68.5 19t-57.5 28
t-44.5 47t-15.5 67q0 60 44 98.5t123 48.5v69q0 19 13.5 32.5t32.5 13.5q20 0 33.5 -13.5t13.5 -32.5v-70q65 -7 108 -34q34 -19 34 -47t-20 -38.5t-49 -2.5q-7 2 -28.5 11t-46.5 15.5t-52 6.5q-94 0 -94 -54q0 -21 18.5 -35t40.5 -20t68 -16q2 0 3.5 -0.5l3 -1t3.5 -0.5
q41 -9 67 -17.5t56 -26t45 -46t15 -68.5z" />
    <glyph glyph-name="percent" unicode="%" horiz-adv-x="906" 
d="M300 12q-13 -20 -35 -20q-17 0 -28.5 12t-11.5 29q0 13 6 20l401 655q12 20 35 20q17 0 28.5 -11.5t11.5 -28.5q0 -12 -6 -21zM203 366q-76 0 -122.5 50t-46.5 127q0 76 46.5 126.5t122.5 50.5q75 0 121.5 -50.5t46.5 -126.5q0 -77 -46.5 -127t-121.5 -50zM203 449
q35 0 55 25t20 69q0 43 -20 68.5t-55 25.5t-55.5 -25t-20.5 -69t20.5 -69t55.5 -25zM706 -15q-76 0 -123 49.5t-47 127.5q0 76 47 126.5t123 50.5q75 0 121.5 -50.5t46.5 -126.5q0 -77 -46.5 -127t-121.5 -50zM706 68q34 0 54.5 25t20.5 69q0 43 -20.5 68.5t-54.5 25.5
q-36 0 -56.5 -25t-20.5 -69t21 -69t56 -25z" />
    <glyph glyph-name="ampersand" unicode="&#x26;" horiz-adv-x="699" 
d="M643 69q15 -14 15 -35q0 -22 -14.5 -36t-35.5 -14q-19 0 -52 30l-37 37q-85 -67 -219 -67q-121 0 -187 53t-66 146q0 67 38.5 114.5t107.5 87.5q-61 81 -61 176q0 75 55.5 124.5t155.5 49.5q86 0 139 -45t53 -114q0 -72 -48.5 -120t-138.5 -95l5 -5l156 -154
q22 52 22 117q0 60 52 60q28 0 41 -17t13 -43q0 -113 -50 -194zM342 643q-104 0 -104 -91q0 -56 47 -120q73 36 109 67t36 71q0 34 -24 53.5t-64 19.5zM314 77q78 0 134 44l-188 188l-3 3q-47 -26 -70.5 -53.5t-23.5 -70.5q0 -111 151 -111z" />
    <glyph glyph-name="quotesingle" unicode="'" horiz-adv-x="229" 
d="M114 457q-41 0 -43 41l-9 172q-1 24 12.5 39.5t39.5 15.5q55 0 53 -55l-9 -172q-4 -41 -44 -41z" />
    <glyph glyph-name="parenleft" unicode="(" horiz-adv-x="339" 
d="M51 289q0 262 160 454q14 17 38 17q20 0 35.5 -14t15.5 -33q0 -14 -7 -26q-128 -189 -128 -395q0 -211 131 -409q7 -10 7 -25q0 -20 -16 -34.5t-37 -14.5q-26 0 -39 20q-160 199 -160 460z" />
    <glyph glyph-name="parenright" unicode=")" horiz-adv-x="339" 
d="M89 -191q-21 0 -37 14.5t-16 34.5q0 15 6 25q132 197 132 409q0 207 -129 395q-6 11 -6 26q0 19 15.5 33t35.5 14q25 0 37 -17q160 -190 160 -454q0 -260 -159 -460q-13 -20 -39 -20z" />
    <glyph glyph-name="asterisk" unicode="*" horiz-adv-x="489" 
d="M116 322q-35 24 1 71l58 76l-87 30q-54 20 -40 58q13 39 68 20l86 -28v93q0 58 42 58q41 0 41 -58v-93l90 30q57 19 69 -21q11 -39 -42 -59l-89 -30l55 -74q33 -47 3 -71q-33 -27 -69 21l-59 76l-59 -77q-33 -47 -68 -22z" />
    <glyph glyph-name="plus" unicode="+" horiz-adv-x="492" 
d="M296 513v-104h105q20 0 34.5 -14.5t14.5 -35.5q0 -20 -14.5 -35t-34.5 -15h-105v-104q0 -20 -15 -35t-35 -15q-21 0 -35.5 15t-14.5 35v104h-105q-20 0 -34.5 15t-14.5 35q0 21 14.5 35.5t34.5 14.5h105v104q0 20 14.5 35t35.5 15q20 0 35 -15t15 -35z" />
    <glyph glyph-name="comma" unicode="," horiz-adv-x="219" 
d="M85 -202q-20 0 -33.5 15.5t-10.5 38.5q14 96 15 172q1 23 15.5 38t38.5 15q26 0 41.5 -17t13.5 -41q-6 -105 -36 -188q-11 -33 -44 -33z" />
    <glyph glyph-name="hyphen" unicode="-" horiz-adv-x="511" 
d="M394 210h-277q-21 0 -35 12.5t-14 37.5t14 37t35 12h277q49 0 49 -49q0 -25 -13.5 -37.5t-35.5 -12.5z" />
    <glyph glyph-name="period" unicode="." horiz-adv-x="277" 
d="M138 -15q-36 0 -58 22t-22 58t22 56.5t58 20.5t58.5 -20.5t22.5 -56.5t-22.5 -58t-58.5 -22z" />
    <glyph glyph-name="slash" unicode="/" horiz-adv-x="452" 
d="M73 -214q-24 0 -36.5 17.5t-6.5 39.5l310 888q9 28 38 28q25 0 38 -18t5 -38l-309 -888q-11 -29 -39 -29z" />
    <glyph glyph-name="zero" unicode="0" horiz-adv-x="763" 
d="M383 -15q-65 0 -122.5 23t-103.5 67.5t-73 118t-27 165.5q0 91 27 164.5t73 118.5t103.5 69t121.5 24q63 0 120.5 -24t103.5 -69t73 -118.5t27 -164.5q0 -181 -94 -277.5t-229 -96.5zM382 91q86 0 145 67t59 201q0 133 -59.5 201.5t-144.5 68.5t-144.5 -68.5
t-59.5 -201.5q0 -134 59 -201t145 -67z" />
    <glyph glyph-name="one" unicode="1" horiz-adv-x="396" 
d="M183 582l-90 -32q-10 -4 -21 -4q-25 0 -39.5 16.5t-14.5 41.5q0 39 38 53l165 60q17 5 28 5q23 0 37 -13.5t14 -35.5v-618q0 -27 -15 -45t-43 -18q-29 0 -44 18t-15 45v527z" />
    <glyph glyph-name="two" unicode="2" horiz-adv-x="623" 
d="M542 510q0 -101 -80.5 -212.5t-195.5 -198.5v-2h268q22 0 37 -15.5t15 -37.5q0 -21 -14.5 -36.5t-35.5 -15.5h-431q-28 0 -42.5 14.5t-14.5 37.5t13 38t37 31q144 93 234 196.5t91 200.5q0 57 -31 89t-107 32q-45 -1 -83 -16.5t-64.5 -30.5t-44.5 -15q-22 0 -34.5 14.5
t-12.5 33.5q0 31 29 51q36 28 93.5 48t123.5 20q250 0 250 -226z" />
    <glyph glyph-name="three" unicode="3" horiz-adv-x="610" 
d="M291 -15q-65 0 -122 17t-91 44q-29 20 -29 51q0 19 12.5 33.5t34.5 14.5q18 0 43 -13.5t61 -27t81 -14.5q147 0 147 117q0 115 -165 115h-72q-20 0 -34.5 15t-14.5 35q0 21 15 36t36 15h67q62 0 104.5 28.5t42.5 84.5q0 50 -31 72.5t-95 22.5q-59 -2 -112 -27.5
t-70 -25.5q-21 0 -34 15t-13 34q0 28 29 51q33 25 90 41.5t124 16.5q105 0 170.5 -48t65.5 -141q0 -63 -38.5 -108t-90.5 -61v-2q63 -12 107 -60t44 -121q0 -100 -72 -155t-190 -55z" />
    <glyph glyph-name="four" unicode="4" horiz-adv-x="613" 
d="M545 256q20 0 34.5 -14.5t14.5 -34.5q0 -21 -14.5 -35.5t-34.5 -14.5h-31v-103q0 -25 -17.5 -42t-42.5 -17t-42.5 17t-17.5 42v103h-311q-45 0 -57.5 34t9.5 71l243 445q15 28 46 28q23 0 40 -16t17 -39q0 -13 -7 -27l-221 -397h241v93q0 25 17.5 42.5t42.5 17.5
t42.5 -17.5t17.5 -42.5v-93h31z" />
    <glyph glyph-name="five" unicode="5" horiz-adv-x="613" 
d="M269 344q-30 0 -78.5 -8t-62.5 -8q-53 0 -46 69l23 231q6 57 29 78.5t74 21.5h282q21 0 36 -15t15 -39q0 -22 -14 -36.5t-35 -14.5h-284l-19 -186q57 11 111 11q123 0 192 -57.5t69 -165.5q0 -119 -77 -179.5t-203 -60.5q-64 0 -120.5 17t-90.5 44q-29 21 -29 51
q0 19 13 33.5t34 14.5q18 0 42.5 -13.5t60.5 -27t80 -14.5q171 0 171 136q0 118 -173 118z" />
    <glyph glyph-name="six" unicode="6" horiz-adv-x="634" 
d="M355 490q-66 0 -103 -25h-2l123 191q9 15 9 31q0 20 -15.5 34t-39.5 14q-21 0 -31.5 -8t-20.5 -26l-141 -217q-82 -121 -82 -238q0 -111 74.5 -185.5t197.5 -74.5q124 0 198.5 75.5t74.5 182.5q0 110 -68 178t-174 68zM323 400q71 0 115 -44t44 -112t-43.5 -113
t-114.5 -45q-70 0 -113.5 44.5t-43.5 113.5q0 77 45 116.5t111 39.5z" />
    <glyph glyph-name="seven" unicode="7" horiz-adv-x="536" 
d="M181 -16q-24 0 -39 14.5t-15 34.5q0 16 10 37l261 555l-334 -2q-21 0 -35 14.5t-14 37.5q0 26 14 39.5t36 13.5h386q30 0 47 -18t17 -48q0 -18 -9 -40l-275 -598q-18 -40 -50 -40z" />
    <glyph glyph-name="eight" unicode="8" horiz-adv-x="673" 
d="M338 -15q-134 0 -209 59t-75 159q0 76 42.5 123t108.5 66v2q-50 18 -84.5 60t-34.5 99q0 83 67.5 132.5t183.5 49.5q117 0 184 -48.5t67 -132.5q0 -59 -34 -100.5t-88 -59.5v-2q65 -17 108.5 -64t43.5 -126q0 -98 -74.5 -157.5t-205.5 -59.5zM336 435q65 0 98.5 32
t33.5 77q0 42 -33 71t-98 29q-63 0 -97 -28.5t-33 -72.5q1 -47 33 -77.5t96 -30.5zM335 76q75 0 117.5 38.5t42.5 95.5q0 59 -44.5 96.5t-113.5 37.5t-114 -36t-45 -98q0 -60 41 -97t116 -37z" />
    <glyph glyph-name="nine" unicode="9" horiz-adv-x="635" 
d="M279 231q66 0 103 24h2l-123 -190q-9 -15 -9 -31q0 -20 15.5 -34t39.5 -14q21 0 31.5 8t20.5 25l141 218q41 60 61.5 115t20.5 123q0 111 -74.5 185.5t-197.5 74.5q-124 0 -198.5 -76t-74.5 -183q0 -109 68 -177t174 -68zM310 320q-70 0 -114 44.5t-44 111.5
q0 68 43.5 113.5t114.5 45.5q70 0 113.5 -44.5t43.5 -114.5q0 -77 -45 -116.5t-112 -39.5z" />
    <glyph glyph-name="colon" unicode=":" horiz-adv-x="300" 
d="M150 357q-36 0 -58.5 22t-22.5 58t22.5 57t58.5 21t58.5 -21t22.5 -57t-22.5 -58t-58.5 -22zM150 -15q-36 0 -58.5 22t-22.5 58q0 35 22.5 56t58.5 21t58.5 -21t22.5 -56q0 -36 -22.5 -58t-58.5 -22z" />
    <glyph glyph-name="semicolon" unicode=";" horiz-adv-x="295" 
d="M148 357q-36 0 -58.5 22t-22.5 58t22.5 57t58.5 21t58.5 -21t22.5 -57t-22.5 -58t-58.5 -22zM122 -199q-20 0 -33.5 15t-11.5 36q13 83 15 172q1 23 16.5 38t38.5 15t39.5 -17.5t14.5 -40.5q-7 -110 -36 -188q-12 -30 -43 -30z" />
    <glyph glyph-name="less" unicode="&#x3c;" horiz-adv-x="501" 
d="M379 143q-12 0 -21 3l-246 116q-62 27 -62 94q0 69 62 95l246 116q12 4 20 4q22 0 36.5 -15t14.5 -36q0 -33 -32 -47l-256 -115v-2l256 -116q14 -5 23 -18.5t9 -28.5q0 -21 -14.5 -35.5t-35.5 -14.5z" />
    <glyph glyph-name="equal" unicode="=" horiz-adv-x="541" 
d="M416 427h-291q-20 0 -35 14.5t-15 34.5q0 21 15 35.5t35 14.5h291q20 0 35 -14.5t15 -34.5q0 -21 -15 -35.5t-35 -14.5zM416 194h-291q-20 0 -35 14.5t-15 35.5q0 20 15 34.5t35 14.5h291q20 0 35 -14.5t15 -34.5q0 -21 -15 -35.5t-35 -14.5z" />
    <glyph glyph-name="greater" unicode="&#x3e;" horiz-adv-x="501" 
d="M123 143q-21 0 -35.5 14.5t-14.5 35.5q0 35 31 47l256 116v2l-255 115q-32 14 -32 47q0 21 14.5 36t35.5 15q8 0 20 -4l246 -116q62 -26 62 -95q0 -67 -62 -94l-246 -116q-9 -3 -20 -3z" />
    <glyph glyph-name="question" unicode="?" horiz-adv-x="515" 
d="M476 554q0 -46 -18.5 -83.5t-49 -60.5t-61.5 -37.5t-65 -21.5v-67q0 -26 -14.5 -43.5t-42.5 -17.5t-42 17.5t-14 43.5v80q0 31 15 48t49 27q127 28 127 112q0 85 -121 85q-56 0 -101 -20t-60 -20q-21 0 -34 14.5t-13 33.5q0 34 44 57q65 35 160 35q241 0 241 -182z
M226 -15q-36 0 -58 22t-22 58t22 56.5t58 20.5t58.5 -20.5t22.5 -56.5q0 -37 -22 -58.5t-59 -21.5z" />
    <glyph glyph-name="at" unicode="@" horiz-adv-x="1040" 
d="M545 741q113 0 200.5 -36t138.5 -97.5t77 -135.5t26 -156q0 -147 -61.5 -218t-151.5 -71q-105 0 -131 88h-3q-53 -82 -157 -82q-91 0 -143 60.5t-52 162.5q0 96 51 158t141 62q58 0 100 -21.5t61 -61.5h2v22q0 57 42 57q21 0 32 -13t11 -33v-228q0 -42 14.5 -58.5
t41.5 -16.5q44 0 75 51.5t31 138.5q0 151 -87 245t-258 94q-183 0 -292.5 -107t-109.5 -291t107 -286t289 -102q47 0 96 14t56 14q19 0 29.5 -10.5t10.5 -27.5q0 -32 -34 -51q-52 -28 -158 -28q-231 0 -361 130.5t-130 346.5q0 217 134 352t363 135zM629 258q0 66 -33 101
t-90 35q-52 0 -85 -39t-33 -101t32.5 -101t87.5 -39q54 0 87.5 39t33.5 105z" />
    <glyph glyph-name="A" unicode="A" horiz-adv-x="699" 
d="M663 66q11 -29 -4.5 -51.5t-47.5 -22.5q-22 0 -33.5 11.5t-21.5 38.5l-53 139q-2 -1 -7 -1h-299h-2l-52 -138q-9 -26 -20.5 -38t-33.5 -12q-33 0 -48 22t-4 52l210 547q24 65 44 90t59 25q21 0 35.5 -6t27 -24t20 -34.5t21.5 -53.5zM233 281h232l-115 303h-2z" />
    <glyph glyph-name="B" unicode="B" horiz-adv-x="675" 
d="M343 0h-188q-59 0 -59 58v604q0 58 59 58h186q252 0 252 -182q0 -61 -31.5 -106t-83.5 -61v-2q66 -18 105.5 -61t39.5 -110q0 -108 -74 -153t-206 -45zM206 623v-208h148q58 0 92.5 26t34.5 80q0 102 -141 102h-134zM206 318v-221h145q79 0 119 24t40 86q0 111 -155 111
h-149z" />
    <glyph glyph-name="C" unicode="C" horiz-adv-x="648" 
d="M437 -16q-171 0 -278 104.5t-107 271.5q0 169 105 272t280 103q88 0 146 -34q31 -18 31 -47q0 -24 -14 -38t-37 -13q-11 2 -35.5 9.5t-46.5 11.5t-46 4q-120 0 -193 -72.5t-73 -195.5q0 -125 74.5 -197.5t191.5 -72.5q36 0 79.5 12t53.5 13q20 1 32.5 -13t12.5 -34
q0 -32 -33 -52q-54 -32 -143 -32z" />
    <glyph glyph-name="D" unicode="D" horiz-adv-x="782" 
d="M346 -8h-191q-59 0 -59 59v619q0 58 59 58h191q183 0 282.5 -97.5t99.5 -270.5q0 -172 -99.5 -269.5t-282.5 -98.5zM209 627v-533h137q128 0 197 69t69 197t-68 197.5t-198 69.5h-137z" />
    <glyph glyph-name="E" unicode="E" horiz-adv-x="586" 
d="M487 -8h-332q-59 0 -59 59v619q0 58 59 58h329q22 0 36.5 -14t14.5 -37t-14 -36.5t-35 -13.5h-278v-216h244q22 0 36.5 -14t14.5 -38q0 -23 -14 -36.5t-35 -13.5h-246l1 -215h277q22 0 36.5 -14.5t14.5 -37.5t-14 -36.5t-36 -13.5z" />
    <glyph glyph-name="F" unicode="F" horiz-adv-x="562" 
d="M153 -8q-28 0 -42.5 17.5t-14.5 43.5v617q0 58 59 58h329q21 0 36 -15t15 -36t-14 -35.5t-35 -14.5h-278v-245h244q21 0 36 -15t15 -36t-14 -35.5t-35 -14.5h-246l1 -228q0 -26 -14 -43.5t-42 -17.5z" />
    <glyph glyph-name="G" unicode="G" horiz-adv-x="729" 
d="M436 -16q-172 0 -277 101.5t-105 275.5q0 172 105 273t281 101q119 0 183 -34q32 -18 32 -48q0 -24 -14 -37.5t-35 -12.5q-8 2 -38 10t-58 12t-62 4q-122 0 -200 -71t-78 -197t74 -198.5t198 -72.5q61 0 109 21v220q0 26 14.5 43t42.5 17t42 -17t14 -43v-246
q0 -49 -49 -72q-70 -29 -179 -29z" />
    <glyph glyph-name="H" unicode="H" horiz-adv-x="807" 
d="M153 -8q-28 0 -42.5 17.5t-14.5 43.5v614q0 26 14.5 43.5t42.5 17.5t42 -17.5t14 -43.5l1 -256h387l1 256q0 26 14.5 43.5t42.5 17.5t42 -17.5t14 -43.5v-614q0 -26 -14 -43.5t-42 -17.5t-42.5 17.5t-14.5 43.5v256h-389v-256q0 -26 -14 -43.5t-42 -17.5z" />
    <glyph glyph-name="I" unicode="I" horiz-adv-x="305" 
d="M153 -8q-28 0 -42.5 17.5t-14.5 43.5v614q0 26 14.5 43.5t42.5 17.5t42 -17.5t14 -43.5v-614q0 -26 -14 -43.5t-42 -17.5z" />
    <glyph glyph-name="J" unicode="J" horiz-adv-x="463" 
d="M175 -16q-76 0 -123 30q-32 22 -32 53q0 18 12.5 31t34.5 13q15 0 45.5 -12.5t62.5 -12.5q85 0 85 153v430q0 23 16.5 39.5t39.5 16.5t40 -16.5t17 -39.5v-435q0 -124 -47.5 -187t-150.5 -63z" />
    <glyph glyph-name="K" unicode="K" horiz-adv-x="699" 
d="M153 -8q-28 0 -42.5 17.5t-14.5 43.5v614q0 26 14.5 43.5t42.5 17.5t42 -17.5t14 -43.5v-248h147l192 282q17 27 46 27q24 0 40 -17t16 -39q0 -20 -9 -32l-195 -272l211 -288q10 -13 10 -31q0 -23 -17.5 -40t-40.5 -17q-27 0 -45 27l-209 290h-146v-256q0 -26 -14 -43.5
t-42 -17.5z" />
    <glyph glyph-name="L" unicode="L" horiz-adv-x="544" 
d="M471 -8h-316q-59 0 -59 59v620q0 23 16.5 40t40.5 17q23 0 39.5 -16.5t16.5 -39.5l2 -578h259q22 0 36.5 -14.5t14.5 -37.5t-14 -36.5t-36 -13.5z" />
    <glyph glyph-name="M" unicode="M" horiz-adv-x="938" 
d="M147 -8q-26 0 -39 16.5t-13 40.5v583q0 43 18.5 69.5t56.5 26.5q33 0 54.5 -20t44.5 -76l199 -486h2l202 488q22 55 43.5 74.5t54.5 19.5q36 0 54.5 -27t18.5 -69v-583q0 -24 -13 -40.5t-39 -16.5q-25 0 -38 16.5t-13 40.5v490h-2l-192 -456q-21 -48 -37.5 -69.5
t-39.5 -21.5t-39.5 21t-36.5 69l-193 457h-2v-490q0 -24 -13 -40.5t-38 -16.5z" />
    <glyph glyph-name="N" unicode="N" horiz-adv-x="801" 
d="M153 -8q-28 0 -42.5 17.5t-14.5 43.5v603q0 35 15.5 53.5t41.5 18.5q27 0 46 -15.5t52 -62.5l341 -476h2l-2 493q0 26 14.5 43.5t42.5 17.5t42 -17.5t14 -43.5v-603q0 -35 -16 -53.5t-44 -18.5q-27 0 -51 21.5t-71 88.5l-314 438h-2l2 -487q0 -26 -14 -43.5t-42 -17.5z
" />
    <glyph glyph-name="O" unicode="O" horiz-adv-x="843" 
d="M421 -16q-166 0 -267 106t-101 270q0 165 101 270t267 105q167 0 268 -105t101 -270t-101 -270.5t-268 -105.5zM421 86q117 0 184.5 74t67.5 200q0 124 -68 199t-185 75q-115 0 -183 -75t-68 -199q0 -126 69 -200t183 -74z" />
    <glyph glyph-name="P" unicode="P" horiz-adv-x="657" 
d="M153 -8q-28 0 -42.5 17.5t-14.5 43.5v617q0 58 59 58h164q149 0 224 -66t75 -185q0 -249 -295 -249h-114v-175q0 -26 -14 -43.5t-42 -17.5zM209 630v-305h116q181 0 181 152q0 72 -43.5 112.5t-134.5 40.5h-119z" />
    <glyph glyph-name="Q" unicode="Q" horiz-adv-x="838" 
d="M785 360q0 -150 -83.5 -252t-226.5 -121q-1 -61 15.5 -86t55.5 -25q14 0 33 6t32 6q38 0 40 -41q1 -34 -32 -57q-34 -21 -78 -21q-174 0 -178 218q-142 19 -226 121.5t-84 251.5q0 165 100 270t266 105t266 -105t100 -270zM419 86q117 0 183 73.5t66 200.5q0 124 -67 199
t-184 75q-114 0 -180.5 -75t-66.5 -199q0 -126 67.5 -200t181.5 -74z" />
    <glyph glyph-name="R" unicode="R" horiz-adv-x="690" 
d="M153 -8q-28 0 -42.5 17.5t-14.5 43.5v617q0 58 59 58h199q131 0 205.5 -55.5t74.5 -176.5q0 -86 -40 -141.5t-103 -75.5l112 -187q17 -26 17 -48t-19 -37t-42 -15q-28 0 -56 46l-137 227h-157v-212q0 -26 -14 -43.5t-42 -17.5zM209 630v-268h183q60 0 96.5 37t36.5 97
q0 68 -45 101t-121 33h-150z" />
    <glyph glyph-name="S" unicode="S" horiz-adv-x="627" 
d="M580 201q0 -103 -75 -160.5t-194 -57.5q-129 0 -221 55q-41 26 -41 58q0 25 16 38t41 12q11 -2 80.5 -30t122.5 -28q72 0 109.5 29.5t37.5 73.5q0 21 -11 39t-24 29.5t-41.5 24.5t-46 19t-55.5 19l-18 6q-101 34 -150 80t-49 131q0 89 71 142.5t195 53.5q131 0 197 -45
q30 -21 30 -51q0 -23 -14.5 -35.5t-39.5 -12.5q-16 0 -71.5 21.5t-108.5 21.5q-62 0 -98.5 -25t-36.5 -68q0 -39 30 -61.5t90 -42.5q40 -12 59 -18.5t51.5 -18t48.5 -20.5t38.5 -23t33.5 -28.5t23 -33.5t16.5 -42.5t4.5 -51.5z" />
    <glyph glyph-name="T" unicode="T" 
d="M317 -8q-28 0 -42.5 17.5t-14.5 43.5l-1 574h-192q-21 0 -35 14.5t-14 35.5t15 36t35 15h497q20 0 35.5 -15t15.5 -36t-14.5 -35.5t-35.5 -14.5h-191l-2 -574q0 -26 -14 -43.5t-42 -17.5z" />
    <glyph glyph-name="U" unicode="U" horiz-adv-x="786" 
d="M393 -16q-151 0 -228 83t-77 226v374q0 26 14.5 43.5t42.5 17.5t42 -17.5t14 -43.5v-375q0 -95 47 -151t145 -56t145 56t47 151v375q0 26 14.5 43.5t42.5 17.5t42 -17.5t14 -43.5v-374q0 -142 -77 -225.5t-228 -83.5z" />
    <glyph glyph-name="V" unicode="V" horiz-adv-x="733" 
d="M369 -8q-38 0 -58 26t-52 100l-227 536q-11 30 4.5 52t48.5 22q22 0 33 -11.5t21 -37.5l228 -573h2l221 573q9 26 20.5 37.5t33.5 11.5q33 0 48.5 -22.5t4.5 -51.5l-220 -537q-29 -72 -49.5 -98.5t-58.5 -26.5z" />
    <glyph glyph-name="W" unicode="W" horiz-adv-x="1054" 
d="M303 -7q-37 0 -59 23.5t-40 88.5l-166 547q-8 29 7.5 51.5t47.5 22.5q44 0 56 -43l152 -565h2l139 513q14 57 33 77t53 20t53 -20t32 -76l140 -514h2l152 565q7 24 19.5 33.5t35.5 9.5q32 0 48 -22.5t8 -51.5l-167 -546q-20 -67 -42 -90.5t-56 -23.5q-39 0 -61 25t-38 91
l-125 448h-2l-126 -449q-16 -65 -38 -89.5t-60 -24.5z" />
    <glyph glyph-name="X" unicode="X" horiz-adv-x="666" 
d="M84 -7q-22 0 -38 15.5t-16 38.5q0 19 9 31l224 294l-207 270q-9 14 -9 31q0 23 15.5 38.5t37.5 15.5q29 0 47 -25l185 -246h2l184 246q18 25 48 25q22 0 38 -15.5t16 -38.5q0 -15 -11 -31l-207 -270l224 -294q10 -13 10 -30q0 -23 -16 -39t-39 -16q-28 0 -47 26l-200 269
h-2l-201 -270q-18 -25 -47 -25z" />
    <glyph glyph-name="Y" unicode="Y" horiz-adv-x="654" 
d="M328 -8q-28 0 -42.5 17.5t-14.5 43.5v229l-227 363q-8 12 -8 27q0 23 17 39.5t40 16.5q17 0 27 -6.5t22 -24.5l184 -302h2l183 303q20 30 49 30q23 0 39.5 -16t16.5 -39q0 -15 -7 -26l-225 -365v-229q0 -26 -14 -43.5t-42 -17.5z" />
    <glyph glyph-name="Z" unicode="Z" horiz-adv-x="677" 
d="M592 -8h-503q-24 0 -41 17.5t-17 41.5q0 21 13 37l436 539h-378q-23 0 -39 13t-16 37q0 25 16 38t39 13h476q25 0 41.5 -16t16.5 -42q0 -20 -14 -38l-436 -538h406q23 0 39 -13t16 -38q0 -24 -16 -37.5t-39 -13.5z" />
    <glyph glyph-name="bracketleft" unicode="[" horiz-adv-x="383" 
d="M304 -180h-153q-58 0 -58 58v819q0 58 58 58h153q23 0 38.5 -13.5t15.5 -40.5q0 -26 -15.5 -39.5t-38.5 -13.5h-102v-721h102q23 0 38.5 -13.5t15.5 -39.5q0 -27 -15.5 -40.5t-38.5 -13.5z" />
    <glyph glyph-name="backslash" unicode="\" horiz-adv-x="452" 
d="M380 -214q-29 0 -39 29l-310 888q-7 20 5.5 38t37.5 18q29 0 38 -28l310 -888q7 -22 -5.5 -39.5t-36.5 -17.5z" />
    <glyph glyph-name="bracketright" unicode="]" horiz-adv-x="384" 
d="M232 -180h-152q-23 0 -38.5 13.5t-15.5 40.5q0 26 15.5 39.5t38.5 13.5h101v721h-101q-23 0 -38.5 13.5t-15.5 39.5q0 27 15.5 40.5t38.5 13.5h152q59 0 59 -58v-819q0 -58 -59 -58z" />
    <glyph glyph-name="asciicircum" unicode="^" horiz-adv-x="549" 
d="M64 421l116 246q25 62 94 62q68 0 95 -62l115 -246q5 -10 5 -20q0 -21 -15 -36t-36 -15q-35 0 -47 32l-115 256h-2l-117 -256q-12 -32 -46 -32q-21 0 -35.5 14.5t-14.5 35.5q0 12 3 21z" />
    <glyph glyph-name="underscore" unicode="_" horiz-adv-x="612" 
d="M514 -116h-416q-22 0 -35.5 12.5t-13.5 37.5t13.5 37.5t35.5 12.5h416q21 0 35 -12.5t14 -37.5t-14 -37.5t-35 -12.5z" />
    <glyph glyph-name="grave" unicode="`" horiz-adv-x="600" 
d="M217 754l94 -114q14 -18 14 -40t-15 -35t-34 -13q-16 0 -38 18l-107 99q-27 22 -27 54q0 27 18 44t43 17q28 0 52 -30z" />
    <glyph glyph-name="a" unicode="a" horiz-adv-x="584" 
d="M218 -16q-87 0 -135.5 40t-48.5 115q0 77 57.5 121.5t142.5 44.5t155 -40q0 76 -35.5 110.5t-107.5 34.5q-40 0 -89 -14q-28 -7 -33 -7q-45 0 -45 47q0 36 44 55q57 24 140 24q72 0 120.5 -22t73 -64.5t33.5 -89.5t9 -112v-62q0 -37 5 -50t25 -25q28 -21 28 -50
q0 -25 -16 -41t-48 -15q-40 2 -63 28.5t-28 64.5h-2q-67 -93 -182 -93zM243 73q55 0 98 36t48 80q-57 36 -122 36q-53 0 -84.5 -21t-31.5 -59q0 -72 92 -72z" />
    <glyph glyph-name="b" unicode="b" horiz-adv-x="639" 
d="M354 -16q-57 0 -106.5 25.5t-73.5 70.5h-2v-41q0 -19 -11.5 -33t-34.5 -14q-22 0 -34 14.5t-12 35.5v657q0 26 14.5 43t42.5 17t42 -17t14 -43v-254h2q23 30 67 50t93 20q107 0 171.5 -72.5t64.5 -190.5q0 -117 -64.5 -192.5t-172.5 -75.5zM330 87q66 0 105.5 44
t39.5 118q0 75 -40 118.5t-103 43.5q-68 0 -107 -42.5t-39 -117.5t38.5 -119.5t105.5 -44.5z" />
    <glyph glyph-name="c" unicode="c" horiz-adv-x="523" 
d="M311 -16q-121 0 -192.5 74t-71.5 192t72 191.5t197 73.5q91 0 140 -36q28 -21 28 -53q0 -19 -12.5 -32t-34.5 -13q-14 0 -49.5 15t-72.5 15q-70 0 -110.5 -45.5t-40.5 -116.5t40.5 -116.5t112.5 -45.5q38 0 73.5 15t48.5 15q22 0 34.5 -13t12.5 -32q0 -32 -30 -51
q-51 -37 -145 -37z" />
    <glyph glyph-name="d" unicode="d" horiz-adv-x="658" 
d="M288 -16q-106 0 -173 74t-67 189q0 121 65 194.5t175 73.5q103 0 155 -70h2v254q0 26 14.5 43t42.5 17t42 -17t14 -43v-522q0 -65 31 -86l6 -6t6 -6.5t4.5 -6t5 -7t3.5 -6.5t2.5 -8t0.5 -9q0 -25 -16 -42t-48 -16q-40 2 -63.5 28t-28.5 66h-2q-23 -45 -68 -69.5
t-103 -24.5zM309 87q67 0 105 44t38 120q0 74 -39 117t-106 43q-63 0 -103 -43.5t-40 -118.5q0 -74 39.5 -118t105.5 -44z" />
    <glyph glyph-name="e" unicode="e" horiz-adv-x="577" 
d="M330 -16q-136 0 -209 72t-73 196q0 118 69.5 190.5t179.5 72.5q111 0 172.5 -63.5t61.5 -168.5q0 -37 -14.5 -54t-49.5 -17h-303q0 -53 42.5 -89.5t122.5 -36.5q43 0 81.5 14.5t50.5 14.5q22 0 35 -13t13 -32q0 -31 -31 -52q-52 -34 -148 -34zM164 290h251q1 5 1 18
q0 49 -30.5 80t-90.5 31q-56 0 -93.5 -37.5t-37.5 -91.5z" />
    <glyph glyph-name="f" unicode="f" horiz-adv-x="388" 
d="M412 735q16 -17 16 -42q0 -21 -13 -33.5t-32 -12.5q-15 0 -37 9.5t-44 9.5q-35 0 -55 -25.5t-20 -70.5v-70h94q23 0 38 -12.5t15 -37.5q0 -24 -15 -37t-38 -13h-94v-347q0 -26 -14.5 -43.5t-42.5 -17.5t-42 17.5t-14 43.5l-1 347h-29q-23 0 -38 13t-15 37q0 25 15 37.5
t38 12.5h29v74q0 87 48 141.5t138 54.5q76 0 113 -35z" />
    <glyph glyph-name="g" unicode="g" horiz-adv-x="639" 
d="M289 -230q-50 0 -96 12.5t-68 29.5q-23 19 -23 47q0 21 13 33.5t36 12.5q16 0 57.5 -17.5t80.5 -17.5q70 0 113.5 38.5t43.5 121.5v24h-2q-53 -70 -152 -70q-111 0 -177.5 73t-66.5 192q0 117 65.5 191.5t178.5 74.5q55 0 102 -26t71 -72h2v40q0 21 11.5 35.5t34.5 14.5
q22 0 34 -14.5t12 -35.5l-1 -384q0 -146 -62 -224.5t-207 -78.5zM307 88q68 0 108 42.5t40 117.5t-39.5 119t-106.5 44q-66 0 -105.5 -44t-39.5 -118t40 -117.5t103 -43.5z" />
    <glyph glyph-name="h" unicode="h" horiz-adv-x="635" 
d="M137 -8q-28 0 -42.5 17.5t-14.5 43.5v646q0 26 14.5 43t42.5 17t42 -17t14 -43v-253h2q23 30 66 49.5t94 19.5q102 0 155 -63t53 -184v-215q0 -26 -14 -43.5t-42 -17.5t-42.5 17.5t-14.5 43.5v205q0 153 -116 153q-63 0 -101.5 -41t-38.5 -110l-1 -207q0 -26 -14 -43.5
t-42 -17.5z" />
    <glyph glyph-name="i" unicode="i" horiz-adv-x="272" 
d="M136 582q-38 0 -62 23.5t-24 60.5q0 38 23.5 60t62.5 22q38 0 61 -22t23 -60t-23 -61t-61 -23zM136 -8q-28 0 -42 17.5t-14 43.5v393q0 26 14 43.5t42 17.5t42.5 -17.5t14.5 -43.5v-393q0 -26 -14.5 -43.5t-42.5 -17.5z" />
    <glyph glyph-name="j" unicode="j" horiz-adv-x="282" 
d="M145 582q-38 0 -62 23.5t-24 60.5q0 38 24 60t62 22t61 -22t23 -60t-22.5 -61t-61.5 -23zM43 -230q-72 0 -103 35q-15 18 -15 42q0 21 12 33.5t29 12.5q11 0 29 -8.5t36 -8.5q20 0 32 8t17 26t6.5 34t1.5 43v459q0 26 14.5 43.5t42.5 17.5t42 -17.5t14 -43.5v-473
q0 -41 -7.5 -75t-24.5 -64t-49 -47t-77 -17z" />
    <glyph glyph-name="k" unicode="k" horiz-adv-x="549" 
d="M137 -8q-28 0 -42.5 17.5t-14.5 43.5v646q0 26 14.5 43t42.5 17t42 -17t14 -43v-390h81l130 173q20 25 44 25q22 0 37.5 -15.5t15.5 -36.5q0 -15 -10 -31l-131 -165l138 -180q11 -14 11 -33q0 -22 -15.5 -38t-37.5 -16q-28 0 -46 24l-144 194h-73v-157q0 -26 -14 -43.5
t-42 -17.5z" />
    <glyph glyph-name="l" unicode="l" horiz-adv-x="275" 
d="M138 -8q-28 0 -42.5 17.5t-14.5 43.5v646q0 26 14.5 43t42.5 17t42 -17t14 -43v-646q0 -26 -14 -43.5t-42 -17.5z" />
    <glyph glyph-name="m" unicode="m" horiz-adv-x="968" 
d="M135 -8q-28 0 -42.5 17.5t-14.5 43.5v404q0 21 12 35.5t35 14.5t34.5 -14.5t11.5 -35.5v-45h2q22 45 68.5 74t101.5 29q121 0 169 -103h2q22 44 69.5 73.5t100.5 29.5q101 0 156.5 -63.5t55.5 -183.5v-215q0 -26 -14 -43.5t-42 -17.5t-42.5 17.5t-14.5 43.5v205
q0 153 -113 153q-55 0 -90.5 -42t-35.5 -112v-204q0 -26 -14 -43.5t-42 -17.5t-42.5 17.5t-14.5 43.5v205q0 70 -26.5 111.5t-82.5 41.5q-58 0 -93.5 -42.5t-36.5 -112.5l-1 -203q0 -26 -14 -43.5t-42 -17.5z" />
    <glyph glyph-name="n" unicode="n" 
d="M135 -8q-28 0 -42.5 17.5t-14.5 43.5v404q0 21 12 35.5t35 14.5t34.5 -14.5t11.5 -35.5v-45h2q22 44 72 73.5t108 29.5q102 0 155.5 -62t53.5 -184v-216q0 -26 -14.5 -43.5t-42.5 -17.5t-42 17.5t-14 43.5v207q0 153 -117 153q-62 0 -100.5 -43t-39.5 -114l-1 -203
q0 -26 -14 -43.5t-42 -17.5z" />
    <glyph glyph-name="o" unicode="o" horiz-adv-x="632" 
d="M317 -16q-123 0 -196.5 72.5t-73.5 193.5t73.5 193t196.5 72q122 0 195 -72t73 -193t-73 -193.5t-195 -72.5zM317 85q69 0 110.5 44.5t41.5 120.5q0 75 -42 119t-112 44q-68 0 -109.5 -44t-41.5 -119t42.5 -120t110.5 -45z" />
    <glyph glyph-name="p" unicode="p" horiz-adv-x="640" 
d="M138 -215q-28 0 -42.5 17.5t-14.5 43.5v611q0 21 11.5 35.5t34.5 14.5t34.5 -12t11.5 -31v-40h2q28 43 74.5 67t98.5 24q116 0 180 -73.5t64 -190.5q0 -122 -67.5 -194.5t-176.5 -72.5q-102 0 -152 69h-2v-207q0 -27 -14 -44t-42 -17zM332 87q63 0 103 43.5t40 118.5
q0 74 -39.5 118t-104.5 44q-67 0 -105 -44.5t-39 -118.5q0 -75 39 -118t106 -43z" />
    <glyph glyph-name="q" unicode="q" horiz-adv-x="640" 
d="M502 -215q-28 0 -42 17t-14 44v206h-2q-52 -68 -152 -68q-108 0 -176 72.5t-68 194.5q0 117 65 190.5t179 73.5q57 0 102.5 -25t70.5 -67h2v38q0 46 46 46q22 0 34 -14.5t12 -35.5v-611q0 -26 -14.5 -43.5t-42.5 -17.5zM307 87q67 0 106.5 43t38.5 118q0 74 -38 118.5
t-105 44.5q-66 0 -105.5 -44t-39.5 -118q0 -75 40 -118.5t103 -43.5z" />
    <glyph glyph-name="r" unicode="r" horiz-adv-x="381" 
d="M135 -8q-28 0 -42.5 17.5t-14.5 43.5v404q0 21 12 35.5t35 14.5q46 0 46 -40v-44h2q21 39 59 65t81 27q26 0 39.5 -15t13.5 -37q0 -21 -13.5 -36.5t-39.5 -15.5q-55 -2 -88 -36.5t-33 -96.5l-1 -225q0 -26 -14 -43.5t-42 -17.5z" />
    <glyph glyph-name="s" unicode="s" horiz-adv-x="517" 
d="M258 -16q-123 0 -187 47q-29 21 -29 53q0 20 12.5 31t33.5 10q12 -2 68 -25.5t104 -23.5q103 0 103 58q0 22 -19 37t-42 22t-66 16q-38 8 -66 18.5t-56 28t-43 45.5t-15 66q0 68 54.5 108t150.5 40q92 0 152 -37q33 -19 33 -47q0 -29 -19.5 -39t-48.5 -2q-8 2 -29 11
t-44.5 15t-48.5 6q-88 0 -88 -52q0 -11 3.5 -19.5t13.5 -15t19 -11t27.5 -9.5t30.5 -8t37 -8q30 -7 50.5 -12.5t46.5 -18t41.5 -27.5t26.5 -40t11 -57q0 -69 -51 -114.5t-166 -45.5z" />
    <glyph glyph-name="t" unicode="t" horiz-adv-x="411" 
d="M350 107q16 0 28 -13t12 -33q0 -25 -15 -43q-31 -35 -106 -35q-61 0 -99 31t-50.5 73.5t-12.5 98.5v214h-39q-20 0 -35 14.5t-15 35.5q0 20 15 35t35 15h42q3 43 15 79q19 44 51 44q44 0 44 -48v-75h101q20 0 34.5 -15t14.5 -35q0 -21 -14.5 -35.5t-34.5 -14.5h-101v-200
q0 -28 1.5 -43.5t7 -33.5t18.5 -26t34 -8q19 0 38.5 9t30.5 9z" />
    <glyph glyph-name="u" unicode="u" 
d="M283 -16q-103 0 -157 62.5t-54 184.5v215q0 26 14 43.5t42 17.5t42.5 -17.5t14.5 -43.5v-205q0 -155 118 -155q62 0 99.5 43t38.5 114l1 203q0 26 14 43.5t42 17.5t42.5 -17.5t14.5 -43.5v-404q0 -21 -12.5 -35.5t-34.5 -14.5q-23 0 -35.5 14.5t-12.5 35.5v43h-2
q-22 -44 -70 -72.5t-105 -28.5z" />
    <glyph glyph-name="v" unicode="v" horiz-adv-x="576" 
d="M293 -8h-8q-40 0 -61.5 22t-42.5 79l-144 337q-12 31 5.5 54t51.5 23q20 0 30.5 -10t18.5 -33l144 -364h2l144 363q16 44 56 44q32 0 46.5 -22.5t3.5 -53.5l-142 -334q-23 -59 -45 -82t-59 -23z" />
    <glyph glyph-name="w" unicode="w" horiz-adv-x="841" 
d="M245 -8h-2q-37 0 -56.5 21t-34.5 68l-114 347q-11 33 5 56t51 23q40 0 52 -46l101 -338h2l91 299q13 48 31 66.5t50 18.5h5q30 -2 46 -20t29 -64l91 -300h2l101 338q12 46 52 46q37 0 52 -23t4 -56l-114 -347q-16 -45 -35.5 -66.5t-54.5 -22.5h-2q-38 0 -56 21t-32 68
l-88 286h-2l-87 -286q-14 -44 -32.5 -66.5t-54.5 -22.5z" />
    <glyph glyph-name="x" unicode="x" horiz-adv-x="537" 
d="M90 -8q-22 0 -37 15.5t-15 37.5q0 17 10 30l148 180l-140 169q-9 10 -9 29q0 22 15.5 38t37.5 16q26 0 46 -27l121 -147h2l117 147q22 27 48 27q22 0 38 -16t16 -39q0 -18 -9 -28l-136 -169l145 -180q9 -12 9 -30q0 -22 -15.5 -37.5t-37.5 -15.5q-25 0 -44 24l-131 160
h-2l-132 -160q-19 -24 -45 -24z" />
    <glyph glyph-name="y" unicode="y" horiz-adv-x="562" 
d="M132 -230q-30 0 -45 7q-32 14 -32 50q0 21 13.5 33.5t35.5 12.5q6 -1 16 -1q67 0 102 100l-182 454q-11 29 6 55t50 26q39 0 55 -50l132 -369h3l131 369q16 50 58 50q33 0 47 -23.5t2 -55.5l-171 -430q-49 -123 -99 -175.5t-122 -52.5z" />
    <glyph glyph-name="z" unicode="z" horiz-adv-x="526" 
d="M442 -8h-357q-25 0 -37.5 14t-12.5 37q0 18 14 34l268 333h-218q-22 0 -37 12.5t-15 35.5q0 24 15 36.5t37 12.5h330q22 0 36.5 -13t14.5 -38q0 -18 -13 -33l-271 -334h246q22 0 37 -12.5t15 -35.5t-15 -36t-37 -13z" />
    <glyph glyph-name="braceleft" unicode="{" horiz-adv-x="375" 
d="M33 286q0 32 24 50q5 3 18.5 12l16.5 11t11 10t9.5 15t3.5 18.5t2 27.5v91q0 129 44 188t130 59q55 0 55 -50q0 -39 -39 -48q-32 -5 -47.5 -17t-24.5 -48.5t-9 -107.5v-78q0 -34 -8.5 -60t-20.5 -39t-24.5 -21t-21.5 -10l-8 -2v-2q3 0 9 -1.5t20 -9.5t25 -21t20 -39.5
t9 -60.5v-78q0 -71 9 -107.5t24.5 -48.5t47.5 -17q39 -9 39 -48q0 -50 -55 -50q-86 0 -130 59t-44 188v91q0 16 -2 27.5t-3.5 18.5t-9.5 15t-11 10l-16.5 11t-18.5 12q-24 18 -24 50z" />
    <glyph glyph-name="bar" unicode="|" horiz-adv-x="303" 
d="M93 -156v824q0 24 17 41.5t41 17.5t41.5 -18t17.5 -42v-823q0 -25 -17 -42t-42 -17q-24 0 -41 17.5t-17 41.5z" />
    <glyph glyph-name="braceright" unicode="}" horiz-adv-x="375" 
d="M342 286q0 -30 -24 -50q-5 -3 -18.5 -12l-16.5 -11t-11 -10t-9.5 -15t-3.5 -18.5t-2 -27.5v-91q0 -129 -44 -188t-130 -59q-55 0 -55 50q0 39 39 48q32 5 47.5 17t24.5 48.5t9 107.5v78q0 34 8.5 60.5t20.5 39.5t24 21t21 10l8 1v2q-3 0 -8.5 1.5t-20 10t-25 21t-19.5 39
t-9 60.5v78q0 71 -9 107.5t-24.5 48.5t-47.5 17q-39 9 -39 48q0 50 55 50q86 0 130 -59t44 -188v-91q0 -16 2 -27.5t3.5 -18.5t9.5 -15t11 -10l16.5 -11t18.5 -12q24 -20 24 -50z" />
    <glyph glyph-name="asciitilde" unicode="~" horiz-adv-x="596" 
d="M403 376q21 0 31 13.5t17 40.5q11 18 35 18q21 0 33 -16t12 -40q0 -49 -29 -84t-80 -35q-49 0 -119.5 38t-99.5 38q-19 0 -30 -8.5t-14.5 -17t-7.5 -25.5q-7 -23 -35 -23q-22 0 -34 13.5t-12 35.5q0 51 31 87t88 36q36 0 70.5 -11t57 -24.5t46.5 -24.5t40 -11z" />
    <glyph glyph-name="exclamdown" unicode="&#xa1;" horiz-adv-x="283" 
d="M141 506q36 0 58.5 -22t22.5 -58t-22.5 -57t-58.5 -21t-58 21t-22 57q0 37 22 58.5t58 21.5zM141 231q23 0 39 -15.5t16 -38.5l6 -350q1 -25 -17 -43.5t-44 -18.5q-25 0 -43 18t-17 43l5 351q1 23 17 38.5t38 15.5z" />
    <glyph glyph-name="cent" unicode="&#xa2;" horiz-adv-x="539" 
d="M442 221q22 0 34.5 -13t12.5 -32q0 -33 -30 -52q-36 -24 -92 -32v-59q0 -19 -13.5 -32.5t-32.5 -13.5q-20 0 -33.5 13.5t-13.5 32.5v57q-104 13 -163.5 84.5t-59.5 178.5t59.5 178.5t163.5 84.5v54q0 19 13.5 33t33.5 14q19 0 32.5 -14t13.5 -33v-54q60 -9 92 -34
q28 -21 28 -52q0 -19 -12.5 -32t-34.5 -13q-14 0 -49.5 15t-72.5 15q-69 0 -110 -45.5t-41 -116.5t40.5 -116.5t112.5 -45.5q38 0 73.5 15t48.5 15z" />
    <glyph glyph-name="sterling" unicode="&#xa3;" horiz-adv-x="555" 
d="M454 180q20 0 34 -14.5t14 -35.5q0 -20 -14 -34.5t-34 -14.5h-308q-63 0 -63 50q0 6 1.5 12.5t3 11t6 11.5t6.5 9.5t8.5 10.5t7.5 10q36 43 41 113h-62q-18 0 -32 13.5t-14 32.5t14 32.5t32 13.5h63q0 137 49 191t139 54q68 0 110 -26q24 -18 24 -45q0 -23 -13.5 -36.5
t-35.5 -13.5q-15 0 -28 5q-26 13 -61 13q-48 0 -63.5 -33.5t-15.5 -108.5h115q18 0 32 -13.5t14 -32.5t-14 -32.5t-32 -13.5h-116q-7 -87 -40 -129h232z" />
    <glyph glyph-name="currency" unicode="&#xa4;" horiz-adv-x="653" 
d="M518 226l48 -47q18 -18 18 -38q0 -17 -14 -31.5t-31 -14.5q-19 0 -38 19l-47 47q-56 -34 -129 -34q-71 0 -127 32l-45 -45q-19 -19 -38 -19t-32 14.5t-13 31.5q0 20 18 38l44 44q-35 56 -35 127q0 75 37 129l-46 45q-18 20 -18 38q0 17 14 31.5t31 14.5q19 0 38 -19
l48 -48q55 30 124 30q73 0 126 -32l50 50q19 19 38 19q18 0 31.5 -15t13.5 -31q0 -18 -18 -38l-49 -48q35 -53 35 -126q0 -71 -34 -124zM325 207q58 0 95 40.5t37 102.5t-36 101.5t-96 39.5q-59 0 -95.5 -37.5t-36.5 -101.5q0 -65 36.5 -105t95.5 -40z" />
    <glyph glyph-name="yen" unicode="&#xa5;" horiz-adv-x="522" 
d="M471 588q0 -11 -7 -25l-145 -256h72q18 0 32 -13.5t14 -32.5q0 -20 -14 -33.5t-32 -13.5h-73v-88q0 -23 -17 -40t-40 -17q-24 0 -41 17t-17 40v88h-71q-18 0 -32 13.5t-14 33.5q0 19 14 32.5t32 13.5h70l-145 256q-6 12 -6 24q0 22 15 37t36 15q32 0 47 -29l110 -204h3
l111 204q15 29 47 29q21 0 36 -15t15 -36z" />
    <glyph glyph-name="brokenbar" unicode="&#xa6;" horiz-adv-x="303" 
d="M210 668v-294q0 -24 -17 -41t-42 -17q-24 0 -41 17.5t-17 40.5v294q0 24 17 41.5t41 17.5q25 0 42 -17.5t17 -41.5zM210 117v-274q0 -23 -17 -40.5t-42 -17.5q-24 0 -41 17.5t-17 40.5v274q0 24 17 41.5t41 17.5q25 0 42 -17.5t17 -41.5z" />
    <glyph glyph-name="section" unicode="&#xa7;" horiz-adv-x="604" 
d="M488 177q60 -50 60 -130q0 -84 -60.5 -133t-178.5 -49q-139 0 -224 58q-25 20 -25 45q0 21 12.5 33.5t33.5 11.5q10 -2 77 -31.5t125 -29.5q65 0 101.5 25t36.5 71q0 15 -4 27t-13.5 21.5t-18 16t-26.5 13.5t-28.5 10.5t-34.5 10.5t-35 10q-45 14 -73 23.5t-61 26.5
t-51 35.5t-30.5 46.5t-12.5 63q0 78 65 133q-47 45 -47 120q0 79 56.5 122t166.5 43q51 0 105 -12t83 -31t29 -44t-19.5 -35.5t-47.5 -2.5q-2 0 -33 11.5t-63.5 19t-65.5 7.5q-49 0 -80.5 -20t-31.5 -57q0 -13 3.5 -24t7 -19t14 -15.5t17 -12t23 -10.5t24 -8.5t29.5 -8.5
t31 -9q2 -1 33 -10t39 -11.5t35 -13t36.5 -18t28.5 -22t26.5 -29.5t14.5 -36.5t7 -46.5q0 -72 -56 -135zM163 362q0 -47 36.5 -70t129.5 -48q58 -16 79 -24q34 40 34 79q0 11 -1.5 20t-6 17t-8.5 13.5t-13 11t-14 8.5t-17.5 7.5t-18.5 6.5t-22 7t-22 7q-76 22 -118 41
q-38 -31 -38 -76z" />
    <glyph glyph-name="dieresis" unicode="&#xa8;" horiz-adv-x="577" 
d="M177 562q-35 0 -57 21t-22 55t22 54.5t57 20.5q34 0 55 -20.5t21 -54.5t-20.5 -55t-55.5 -21zM403 562q-35 0 -57 21t-22 55t22 54.5t57 20.5q34 0 55 -20.5t21 -54.5t-20.5 -55t-55.5 -21z" />
    <glyph glyph-name="copyright" unicode="&#xa9;" horiz-adv-x="887" 
d="M445 -40q-185 0 -288 109t-103 276q0 166 105.5 277.5t283.5 111.5t284 -111.5t106 -277.5q0 -168 -102 -276.5t-286 -108.5zM445 46q140 0 220 80.5t80 218.5q0 135 -83.5 219t-218.5 84t-218 -84t-83 -219q0 -138 81 -218.5t222 -80.5zM444 133q-95 0 -152.5 59.5
t-57.5 152.5q0 94 58.5 153t156.5 59q73 0 111 -27q22 -16 22 -42q0 -15 -10 -25.5t-27 -10.5q-11 0 -38 10.5t-59 10.5q-54 0 -87 -36t-33 -92q0 -57 32.5 -92.5t88.5 -35.5q31 0 59 10.5t38 10.5q18 0 28 -10.5t10 -25.5q0 -26 -24 -42q-39 -27 -116 -27z" />
    <glyph glyph-name="ordfeminine" unicode="&#xaa;" horiz-adv-x="591" 
d="M49 513q0 -102 52 -162.5t143 -60.5q102 0 155 82h2q5 -33 26 -56.5t56 -25.5q28 -1 43.5 14t15.5 39q0 26 -20 46q-18 13 -22 27t-4 55v208q0 20 -12 34.5t-35 14.5t-34.5 -14.5t-11.5 -34.5v-34h-2q-38 88 -159 88q-90 0 -141.5 -62t-51.5 -158zM269 371q-55 0 -87 39
t-32 101t33 101t85 39q57 0 89.5 -35t32.5 -101t-33.5 -105t-87.5 -39z" />
    <glyph glyph-name="guillemotleft" unicode="&#xab;" horiz-adv-x="499" 
d="M57 284l73 136q16 31 43 31q22 0 38 -12.5t16 -33.5q0 -12 -7 -28l-66 -126l66 -126q7 -16 7 -28q0 -21 -16 -33.5t-38 -12.5q-27 0 -43 31l-73 136q-9 18 -9 33q0 17 9 33zM268 284l73 136q16 31 44 31q22 0 37.5 -12.5t15.5 -33.5q0 -15 -6 -28l-67 -126l67 -126
q6 -14 6 -28q0 -21 -15.5 -33.5t-37.5 -12.5q-28 0 -44 31l-73 136q-8 19 -8 33q0 15 8 33z" />
    <glyph glyph-name="registered" unicode="&#xae;" horiz-adv-x="887" 
d="M445 -40q-185 0 -288 109t-103 276q0 166 105.5 277.5t283.5 111.5t284 -111.5t106 -277.5q0 -168 -102 -276.5t-286 -108.5zM445 46q140 0 220 80.5t80 218.5q0 135 -83.5 219t-218.5 84t-218 -84t-83 -219q0 -138 81 -218.5t222 -80.5zM295 188v294q0 31 17 48t46 17
h95q80 0 123 -33t43 -96q0 -90 -78 -118l56 -89q6 -11 6 -23q0 -19 -12.5 -31.5t-33.5 -12.5q-22 0 -37 22l-76 120h-60v-98q0 -44 -44 -44q-45 0 -45 44zM384 465v-104h75q59 0 59 52t-68 52h-66z" />
    <glyph glyph-name="macron" unicode="&#xaf;" horiz-adv-x="600" 
d="M403 586h-264q-20 0 -35 15t-15 37q0 21 15 35.5t35 14.5h264q21 0 36 -15t15 -36t-15.5 -36t-35.5 -15z" />
    <glyph glyph-name="degree" unicode="&#xb0;" horiz-adv-x="447" 
d="M224 388q-77 0 -127 49t-50 123q0 73 49.5 121.5t127.5 48.5q77 0 127 -48t50 -122q0 -73 -50 -122.5t-127 -49.5zM224 470q35 0 56.5 24t21.5 66t-21.5 65.5t-56.5 23.5q-36 0 -58 -23.5t-22 -65.5t22 -66t58 -24z" />
    <glyph glyph-name="plusminus" unicode="&#xb1;" horiz-adv-x="529" 
d="M265 613q22 0 36 -12.5t14 -36.5v-55h92q22 0 35.5 -12.5t13.5 -36.5q0 -25 -13.5 -37.5t-35.5 -12.5h-92v-55q0 -24 -14 -36.5t-36 -12.5t-36 12.5t-14 36.5v55h-92q-22 0 -36 12.5t-14 37.5q0 24 14 36.5t36 12.5h92v55q0 24 14 36.5t36 12.5zM123 216h283
q24 0 36.5 -14t12.5 -36t-12.5 -36t-36.5 -14h-283q-24 0 -37 14t-13 36t13 36t37 14z" />
    <glyph glyph-name="acute" unicode="&#xb4;" horiz-adv-x="382" 
d="M83 640l95 114q24 30 52 30q25 0 43 -17t18 -44q0 -31 -27 -54l-108 -99q-22 -18 -37 -18q-20 0 -35 13t-15 35t14 40z" />
    <glyph glyph-name="paragraph" unicode="&#xb6;" horiz-adv-x="662" 
d="M561 688v-4v-780q0 -19 -10 -31t-30 -12t-30.5 12.5t-10.5 30.5v732h-126v-723q0 -22 -12.5 -36.5t-36.5 -14.5q-23 0 -35.5 14.5t-12.5 36.5v322q-106 0 -165 67.5t-59 180.5q0 109 60.5 175.5t163.5 69.5h3h259q38 0 42 -40z" />
    <glyph glyph-name="periodcentered" unicode="&#xb7;" horiz-adv-x="287" 
d="M143 172q-36 0 -58 21.5t-22 57.5t22 57t58 21t58.5 -21t22.5 -57t-22.5 -57.5t-58.5 -21.5z" />
    <glyph glyph-name="cedilla" unicode="&#xb8;" horiz-adv-x="600" 
d="M209 -281q-48 0 -83 21q-28 14 -28 41q0 21 12 31.5t27 10.5q7 0 27 -9.5t37 -9.5q50 0 50 45q0 40 -61 42q-20 0 -28 8t-2 32l11 39q5 23 15.5 33t30.5 10q19 0 32.5 -10t7.5 -27l-9 -32q4 0 11 -1.5t24.5 -8.5t31 -17.5t24.5 -32t11 -49.5q0 -50 -36.5 -83t-104.5 -33z
" />
    <glyph glyph-name="ordmasculine" unicode="&#xba;" horiz-adv-x="545" 
d="M273 292q-103 0 -164.5 60.5t-61.5 160.5q0 102 61.5 162t164.5 60q102 0 163 -60t61 -162q0 -101 -61 -161t-163 -60zM273 380q56 0 90 35.5t34 97.5t-34.5 98t-91.5 36q-55 0 -89 -36.5t-34 -97.5q0 -62 35 -97.5t90 -35.5z" />
    <glyph glyph-name="guillemotright" unicode="&#xbb;" horiz-adv-x="499" 
d="M157 420l73 -136q9 -16 9 -33q0 -15 -9 -33l-73 -136q-16 -31 -43 -31q-22 0 -38 12.5t-16 33.5q0 12 7 28l66 126l-66 126q-7 16 -7 28q0 21 16 33.5t38 12.5q27 0 43 -31zM369 420l73 -136q9 -20 9 -33q0 -11 -9 -33l-73 -136q-16 -31 -44 -31q-22 0 -37.5 12.5
t-15.5 33.5q0 15 6 28l67 126l-67 126q-6 13 -6 28q0 21 15.5 33.5t37.5 12.5q28 0 44 -31z" />
    <glyph glyph-name="onequarter" unicode="&#xbc;" horiz-adv-x="831" 
d="M570 692q0 -10 -4 -18l-284 -664q-10 -26 -39 -26q-19 0 -31 12.5t-12 30.5q0 10 4 18l283 664q11 26 40 26q18 0 30.5 -12.5t12.5 -30.5zM228 379q0 -21 -11.5 -35.5t-34.5 -14.5q-22 0 -34.5 14.5t-12.5 35.5v235q-35 -15 -60 -20q-21 -1 -33.5 12.5t-12.5 34.5
q0 31 32 43l101 37q15 5 25 5q18 0 29.5 -11t11.5 -30v-306zM762 151q16 0 28 -11.5t12 -28.5q0 -18 -11.5 -30t-28.5 -12h-7v-29q0 -19 -13.5 -32.5t-32.5 -13.5t-32.5 13.5t-13.5 32.5v29h-177q-20 0 -31.5 11.5t-11.5 30.5q0 11 9 33l122 232q13 26 37 26q22 0 34.5 -12
t12.5 -30q0 -10 -6 -20l-100 -189h116l6 43q7 40 41 40q17 0 28.5 -12t11.5 -28v-43h7z" />
    <glyph glyph-name="onehalf" unicode="&#xbd;" horiz-adv-x="823" 
d="M234 -16q-18 0 -30 12.5t-12 30.5q0 10 4 18l283 664q11 26 39 26q19 0 31 -12.5t12 -30.5q0 -9 -3 -18l-284 -664q-12 -26 -40 -26zM181 329q-22 0 -34 14.5t-12 35.5v235q-36 -15 -61 -20q-21 -1 -33.5 12.5t-12.5 34.5q0 31 32 43l101 37q15 5 25 5q18 0 29.5 -11
t11.5 -30v-306q0 -21 -11.5 -35.5t-34.5 -14.5zM622 320q-30 0 -70 -25q-21 -16 -40 -16q-17 0 -27 11.5t-10 26.5q0 28 27 47q50 38 125 38q71 -1 106.5 -31.5t35.5 -85.5q0 -102 -147 -207v-2h120q17 0 28 -11.5t11 -28.5q0 -15 -11 -26.5t-27 -11.5h-230q-20 0 -31 10.5
t-11 28.5q0 11 6.5 21.5t12 14.5t21.5 17q47 38 73.5 60.5t55.5 59t29 62.5t-11.5 36.5t-35.5 11.5z" />
    <glyph glyph-name="threequarters" unicode="&#xbe;" horiz-adv-x="928" 
d="M355 430q0 -55 -40.5 -85t-118.5 -31q-83 0 -132 36q-18 16 -18 33q0 13 8 22.5t22 9.5q17 0 44.5 -14t61.5 -15q31 1 49 11.5t18 41.5q0 60 -89 60h-36q-11 0 -18 8.5t-7 21.5q0 14 7.5 22t18.5 8h37q81 0 81 55q0 30 -16.5 40t-43.5 11q-32 -1 -60 -15t-45 -14
q-14 0 -22 9.5t-8 22.5q0 17 18 32q48 37 131 37q153 -2 153 -108q0 -31 -21.5 -59t-52.5 -37v-3q34 -10 56.5 -36t22.5 -64zM665 692q0 -10 -4 -18l-283 -664q-12 -26 -40 -26q-18 0 -30 12.5t-12 30.5q0 10 4 18l283 664q11 26 39 26q19 0 31 -12.5t12 -30.5zM859 151
q17 0 28.5 -11.5t11.5 -28.5q0 -18 -11.5 -30t-28.5 -12h-7v-29q0 -19 -13.5 -32.5t-32.5 -13.5t-32.5 13.5t-13.5 32.5v29h-177q-21 0 -32 11.5t-11 30.5q0 11 9 33l122 232q13 26 37 26q22 0 34.5 -12t12.5 -30q0 -10 -6 -20l-100 -189h116l6 43q7 40 41 40q16 0 28 -12
t12 -28v-43h7z" />
    <glyph glyph-name="questiondown" unicode="&#xbf;" horiz-adv-x="508" 
d="M286 520q35 0 57.5 -22t22.5 -58q0 -35 -22.5 -56.5t-57.5 -21.5q-36 0 -58.5 21t-22.5 57q0 37 22 58.5t59 21.5zM36 -49q0 46 18.5 83.5t48.5 60.5t62 37t65 21v68q0 26 14 43.5t42 17.5t42.5 -17.5t14.5 -43.5v-80q0 -32 -15 -48.5t-49 -27.5q-127 -26 -127 -111
q0 -86 121 -86q56 0 101 20.5t60 20.5q21 0 34 -15t13 -34q0 -32 -44 -57q-66 -34 -160 -34q-241 0 -241 182z" />
    <glyph glyph-name="Agrave" unicode="&#xc0;" horiz-adv-x="699" 
d="M206 904q-27 23 -27 55q0 26 17.5 43.5t42.5 17.5q27 0 53 -30l94 -115q14 -17 14 -40q0 -21 -15 -34.5t-34 -13.5q-15 0 -38 19zM663 66q11 -29 -4.5 -51.5t-47.5 -22.5q-22 0 -33.5 11.5t-21.5 38.5l-53 139q-2 -1 -7 -1h-299h-2l-52 -138q-9 -26 -20.5 -38t-33.5 -12
q-33 0 -48 22t-4 52l210 547q24 65 44 90t59 25q21 0 35.5 -6t27 -24t20 -34.5t21.5 -53.5zM233 281h232l-115 303h-2z" />
    <glyph glyph-name="Aacute" unicode="&#xc1;" horiz-adv-x="699" 
d="M332 787q-19 0 -34.5 13.5t-15.5 34.5q0 23 14 40l95 115q25 30 52 30q25 0 43 -17.5t18 -43.5q0 -31 -27 -55l-108 -98q-23 -19 -37 -19zM663 66q11 -29 -4.5 -51.5t-47.5 -22.5q-22 0 -33.5 11.5t-21.5 38.5l-53 139q-2 -1 -7 -1h-299h-2l-52 -138q-9 -26 -20.5 -38
t-33.5 -12q-33 0 -48 22t-4 52l210 547q24 65 44 90t59 25q21 0 35.5 -6t27 -24t20 -34.5t21.5 -53.5zM233 281h232l-115 303h-2z" />
    <glyph glyph-name="Acircumflex" unicode="&#xc2;" horiz-adv-x="699" 
d="M224 772q-20 0 -34 14.5t-14 36.5q0 21 23 42l51 54q60 60 103 60q39 0 105 -64l50 -50q21 -18 21 -43q0 -21 -14 -35.5t-35 -14.5q-18 0 -33 14l-94 92h-2l-93 -93q-14 -13 -34 -13zM663 66q11 -29 -4.5 -51.5t-47.5 -22.5q-22 0 -33.5 11.5t-21.5 38.5l-53 139
q-2 -1 -7 -1h-299h-2l-52 -138q-9 -26 -20.5 -38t-33.5 -12q-33 0 -48 22t-4 52l210 547q24 65 44 90t59 25q21 0 35.5 -6t27 -24t20 -34.5t21.5 -53.5zM233 281h232l-115 303h-2z" />
    <glyph glyph-name="Atilde" unicode="&#xc3;" horiz-adv-x="699" 
d="M188 783q-22 0 -34 14t-12 35q0 51 31.5 87t87.5 36q40 0 73 -17.5t56.5 -35t38.5 -17.5q20 0 30 13.5t17 40.5q11 17 35 17q22 0 33.5 -15.5t11.5 -39.5q0 -49 -29 -84.5t-79 -35.5q-34 0 -67 19.5t-60 38.5t-47 19q-18 0 -29 -8.5t-14.5 -17.5t-6.5 -26
q-10 -23 -36 -23zM663 66q11 -29 -4.5 -51.5t-47.5 -22.5q-22 0 -33.5 11.5t-21.5 38.5l-53 139q-2 -1 -7 -1h-299h-2l-52 -138q-9 -26 -20.5 -38t-33.5 -12q-33 0 -48 22t-4 52l210 547q24 65 44 90t59 25q21 0 35.5 -6t27 -24t20 -34.5t21.5 -53.5zM233 281h232l-115 303
h-2z" />
    <glyph glyph-name="Adieresis" unicode="&#xc4;" horiz-adv-x="699" 
d="M242 795q-35 0 -57 21t-22 55t22 54t57 20q34 0 55 -20t21 -54q0 -35 -21 -55.5t-55 -20.5zM468 795q-35 0 -57 21t-22 55t22 54t57 20q34 0 55 -20t21 -54q0 -35 -21 -55.5t-55 -20.5zM663 66q11 -29 -4.5 -51.5t-47.5 -22.5q-22 0 -33.5 11.5t-21.5 38.5l-53 139
q-2 -1 -7 -1h-299h-2l-52 -138q-9 -26 -20.5 -38t-33.5 -12q-33 0 -48 22t-4 52l210 547q24 65 44 90t59 25q21 0 35.5 -6t27 -24t20 -34.5t21.5 -53.5zM233 281h232l-115 303h-2z" />
    <glyph glyph-name="Aring" unicode="&#xc5;" horiz-adv-x="699" 
d="M350 777q-50 0 -83 29.5t-33 81.5q0 53 33 82.5t83 29.5t84 -29.5t34 -82.5q0 -52 -34 -81.5t-84 -29.5zM350 928q-17 0 -28 -11t-11 -29t11 -29t28 -11t28.5 11t11.5 29t-11.5 29t-28.5 11zM663 66q11 -29 -4.5 -51.5t-47.5 -22.5q-22 0 -33.5 11.5t-21.5 38.5l-53 139
q-2 -1 -7 -1h-299h-2l-52 -138q-9 -26 -20.5 -38t-33.5 -12q-33 0 -48 22t-4 52l210 547q24 65 44 90t59 25q21 0 35.5 -6t27 -24t20 -34.5t21.5 -53.5zM233 281h232l-115 303h-2z" />
    <glyph glyph-name="AE" unicode="&#xc6;" horiz-adv-x="937" 
d="M837 94q21 0 35.5 -14t14.5 -38q0 -23 -14 -36.5t-35 -13.5h-333q-58 0 -58 59v129h-235l-92 -157q-18 -31 -52 -31q-36 0 -51 29.5t1 56.5l340 588q20 36 36 49t42 13h399q22 0 36.5 -14t14.5 -37t-14 -36.5t-35 -13.5h-278v-216h244q22 0 36.5 -14t14.5 -38
q0 -23 -14 -36.5t-35 -13.5h-246l1 -215h277zM271 281h176v299h-2z" />
    <glyph glyph-name="Ccedilla" unicode="&#xc7;" horiz-adv-x="648" 
d="M568 115q20 1 32.5 -13t12.5 -34q0 -32 -33 -52q-54 -32 -143 -32l-7 -24q4 0 11 -1.5t24.5 -9t30.5 -18t24 -32t11 -49.5q0 -50 -36.5 -83t-104.5 -33q-47 0 -82 21q-28 15 -28 42q0 20 11.5 31t26.5 11q8 0 28 -9.5t36 -9.5q51 0 51 44q0 42 -61 42q-21 1 -28.5 8.5
t-2.5 31.5l11 40v3l1 2q-137 25 -219 124.5t-82 244.5q0 169 105 272t280 103q88 0 146 -34q31 -18 31 -47q0 -24 -14 -38t-37 -13q-11 2 -35.5 9.5t-46.5 11.5t-46 4q-120 0 -193 -72.5t-73 -195.5q0 -125 74.5 -197.5t191.5 -72.5q36 0 79.5 12t53.5 13z" />
    <glyph glyph-name="Egrave" unicode="&#xc8;" horiz-adv-x="586" 
d="M258 990l94 -115q15 -17 15 -40q0 -21 -15.5 -34.5t-34.5 -13.5q-14 0 -37 19l-108 98q-27 24 -27 55q0 26 18 43.5t43 17.5q27 0 52 -30zM487 -8h-332q-59 0 -59 59v619q0 58 59 58h329q22 0 36.5 -14t14.5 -37t-14 -36.5t-35 -13.5h-278v-216h244q22 0 36.5 -14
t14.5 -38q0 -23 -14 -36.5t-35 -13.5h-246l1 -215h277q22 0 36.5 -14.5t14.5 -37.5t-14 -36.5t-36 -13.5z" />
    <glyph glyph-name="Eacute" unicode="&#xc9;" horiz-adv-x="586" 
d="M263 875l94 115q25 30 52 30q25 0 43 -17.5t18 -43.5q0 -32 -27 -55l-107 -98q-23 -19 -38 -19q-19 0 -34 13.5t-15 34.5q0 23 14 40zM487 -8h-332q-59 0 -59 59v619q0 58 59 58h329q22 0 36.5 -14t14.5 -37t-14 -36.5t-35 -13.5h-278v-216h244q22 0 36.5 -14t14.5 -38
q0 -23 -14 -36.5t-35 -13.5h-246l1 -215h277q22 0 36.5 -14.5t14.5 -37.5t-14 -36.5t-36 -13.5z" />
    <glyph glyph-name="Ecircumflex" unicode="&#xca;" horiz-adv-x="586" 
d="M191 772q-21 0 -34.5 14.5t-13.5 36.5q0 21 22 42l52 54q60 60 102 60q40 0 106 -64l50 -50q20 -19 20 -43q0 -21 -13.5 -35.5t-34.5 -14.5q-19 0 -34 14l-93 92h-2l-94 -93q-13 -13 -33 -13zM487 -8h-332q-59 0 -59 59v619q0 58 59 58h329q22 0 36.5 -14t14.5 -37
t-14 -36.5t-35 -13.5h-278v-216h244q22 0 36.5 -14t14.5 -38q0 -23 -14 -36.5t-35 -13.5h-246l1 -215h277q22 0 36.5 -14.5t14.5 -37.5t-14 -36.5t-36 -13.5z" />
    <glyph glyph-name="Edieresis" unicode="&#xcb;" horiz-adv-x="586" 
d="M208 795q-35 0 -56.5 21t-21.5 55t21.5 54t56.5 20q34 0 55.5 -20t21.5 -54q0 -35 -21 -55.5t-56 -20.5zM435 795q-35 0 -57 21t-22 55t21.5 54t57.5 20q34 0 55 -20t21 -54q0 -35 -20.5 -55.5t-55.5 -20.5zM487 -8h-332q-59 0 -59 59v619q0 58 59 58h329q22 0 36.5 -14
t14.5 -37t-14 -36.5t-35 -13.5h-278v-216h244q22 0 36.5 -14t14.5 -38q0 -23 -14 -36.5t-35 -13.5h-246l1 -215h277q22 0 36.5 -14.5t14.5 -37.5t-14 -36.5t-36 -13.5z" />
    <glyph glyph-name="Igrave" unicode="&#xcc;" horiz-adv-x="305" 
d="M96 990l94 -115q15 -19 15 -40t-15.5 -34.5t-34.5 -13.5q-15 0 -38 19l-107 98q-27 23 -27 55q0 26 18 43.5t43 17.5q26 0 52 -30zM153 -8q-28 0 -42.5 17.5t-14.5 43.5v614q0 26 14.5 43.5t42.5 17.5t42 -17.5t14 -43.5v-614q0 -26 -14 -43.5t-42 -17.5z" />
    <glyph glyph-name="Iacute" unicode="&#xcd;" horiz-adv-x="305" 
d="M101 875l94 115q25 30 52 30q25 0 43 -17.5t18 -43.5q0 -32 -27 -55l-107 -98q-23 -19 -38 -19q-19 0 -34 13.5t-15 34.5q0 23 14 40zM153 -8q-28 0 -42.5 17.5t-14.5 43.5v614q0 26 14.5 43.5t42.5 17.5t42 -17.5t14 -43.5v-614q0 -26 -14 -43.5t-42 -17.5z" />
    <glyph glyph-name="Icircumflex" unicode="&#xce;" horiz-adv-x="305" 
d="M29 772q-21 0 -34.5 14.5t-13.5 36.5q0 21 22 42l52 54q60 60 102 60q40 0 106 -64l50 -50q20 -19 20 -43q0 -21 -13.5 -35.5t-34.5 -14.5q-19 0 -34 14l-93 92h-2l-94 -93q-13 -13 -33 -13zM153 -8q-28 0 -42.5 17.5t-14.5 43.5v614q0 26 14.5 43.5t42.5 17.5t42 -17.5
t14 -43.5v-614q0 -26 -14 -43.5t-42 -17.5z" />
    <glyph glyph-name="Idieresis" unicode="&#xcf;" horiz-adv-x="305" 
d="M46 795q-35 0 -56.5 21t-21.5 55t21.5 54t56.5 20q34 0 55.5 -20t21.5 -54q0 -35 -21 -55.5t-56 -20.5zM272 795q-35 0 -56.5 21t-21.5 55t21.5 54t56.5 20q34 0 55.5 -20t21.5 -54q0 -35 -21 -55.5t-56 -20.5zM153 -8q-28 0 -42.5 17.5t-14.5 43.5v614q0 26 14.5 43.5
t42.5 17.5t42 -17.5t14 -43.5v-614q0 -26 -14 -43.5t-42 -17.5z" />
    <glyph glyph-name="Eth" unicode="&#xd0;" horiz-adv-x="792" 
d="M357 728q183 0 282 -97.5t99 -270.5q0 -172 -99 -269.5t-282 -98.5h-192q-58 0 -58 59v259h-27q-23 0 -36.5 13.5t-13.5 37.5q0 23 13.5 36.5t36.5 13.5h27v259q0 58 58 58h192zM357 94q127 0 196 69t69 197t-68 197.5t-197 69.5h-137v-216h110q24 0 37.5 -13.5
t13.5 -36.5q0 -24 -13.5 -37.5t-37.5 -13.5h-110v-216h137z" />
    <glyph glyph-name="Ntilde" unicode="&#xd1;" horiz-adv-x="801" 
d="M319 955q40 0 73 -17.5t56.5 -35t39.5 -17.5q20 0 29.5 13.5t17.5 40.5q9 17 34 17q22 0 33.5 -15.5t11.5 -39.5q0 -49 -28.5 -84.5t-79.5 -35.5q-34 0 -67 19.5t-60 38.5t-47 19q-14 0 -23 -4t-14.5 -13t-7.5 -15t-5 -20q-10 -23 -36 -23q-22 0 -34 14t-12 35
q0 51 31.5 87t87.5 36zM153 -8q-28 0 -42.5 17.5t-14.5 43.5v603q0 35 15.5 53.5t41.5 18.5q27 0 46 -15.5t52 -62.5l341 -476h2l-2 493q0 26 14.5 43.5t42.5 17.5t42 -17.5t14 -43.5v-603q0 -35 -16 -53.5t-44 -18.5q-27 0 -51 21.5t-71 88.5l-314 438h-2l2 -487
q0 -26 -14 -43.5t-42 -17.5z" />
    <glyph glyph-name="Ograve" unicode="&#xd2;" horiz-adv-x="843" 
d="M363 1005l94 -115q14 -18 14 -40q0 -21 -15 -34.5t-34 -13.5q-15 0 -38 19l-107 98q-27 23 -27 55q0 26 18 43.5t43 17.5q27 0 52 -30zM421 -16q-166 0 -267 106t-101 270q0 165 101 270t267 105q167 0 268 -105t101 -270t-101 -270.5t-268 -105.5zM421 86
q117 0 184.5 74t67.5 200q0 124 -68 199t-185 75q-115 0 -183 -75t-68 -199q0 -126 69 -200t183 -74z" />
    <glyph glyph-name="Oacute" unicode="&#xd3;" horiz-adv-x="843" 
d="M368 890l94 115q25 30 52 30q25 0 43 -17.5t18 -43.5q0 -32 -27 -55l-107 -98q-23 -19 -38 -19q-19 0 -34.5 13.5t-15.5 34.5t15 40zM421 -16q-166 0 -267 106t-101 270q0 165 101 270t267 105q167 0 268 -105t101 -270t-101 -270.5t-268 -105.5zM421 86q117 0 184.5 74
t67.5 200q0 124 -68 199t-185 75q-115 0 -183 -75t-68 -199q0 -126 69 -200t183 -74z" />
    <glyph glyph-name="Ocircumflex" unicode="&#xd4;" horiz-adv-x="843" 
d="M295 787q-20 0 -34 14.5t-14 36.5q0 21 23 42l51 54q62 60 103 60q39 0 105 -64l50 -50q21 -18 21 -43q0 -21 -14 -35.5t-34 -14.5q-19 0 -34 14l-93 92h-2l-94 -93q-14 -13 -34 -13zM421 -16q-166 0 -267 106t-101 270q0 165 101 270t267 105q167 0 268 -105t101 -270
t-101 -270.5t-268 -105.5zM421 86q117 0 184.5 74t67.5 200q0 124 -68 199t-185 75q-115 0 -183 -75t-68 -199q0 -126 69 -200t183 -74z" />
    <glyph glyph-name="Otilde" unicode="&#xd5;" horiz-adv-x="843" 
d="M332 970q40 0 73 -17.5t56.5 -35t39.5 -17.5q20 0 29.5 13.5t17.5 40.5q9 17 34 17q22 0 33.5 -15.5t11.5 -39.5q0 -49 -28.5 -84.5t-79.5 -35.5q-34 0 -67 19t-60 38.5t-47 19.5q-14 0 -23 -4t-14.5 -13t-7.5 -15t-5 -20q-10 -23 -36 -23q-22 0 -34 14t-12 35
q0 51 31.5 87t87.5 36zM421 -16q-166 0 -267 106t-101 270q0 165 101 270t267 105q167 0 268 -105t101 -270t-101 -270.5t-268 -105.5zM421 86q117 0 184.5 74t67.5 200q0 124 -68 199t-185 75q-115 0 -183 -75t-68 -199q0 -126 69 -200t183 -74z" />
    <glyph glyph-name="Odieresis" unicode="&#xd6;" horiz-adv-x="843" 
d="M313 810q-35 0 -57 21t-22 55t22 54t57 20q34 0 55 -20t21 -54t-20.5 -55t-55.5 -21zM539 810q-35 0 -57 21t-22 55t22 54t57 20q34 0 55 -20t21 -54t-20.5 -55t-55.5 -21zM421 -16q-166 0 -267 106t-101 270q0 165 101 270t267 105q167 0 268 -105t101 -270t-101 -270.5
t-268 -105.5zM421 86q117 0 184.5 74t67.5 200q0 124 -68 199t-185 75q-115 0 -183 -75t-68 -199q0 -126 69 -200t183 -74z" />
    <glyph glyph-name="multiply" unicode="&#xd7;" horiz-adv-x="484" 
d="M116 184q-21 0 -36 15t-15 35q0 21 15 36l91 90l-89 89q-14 12 -14 35q0 21 14.5 35.5t35.5 14.5q22 0 35 -15l89 -89l90 90q14 14 35 14q20 0 35 -14.5t15 -34.5t-15 -35l-90 -90l90 -90q15 -15 15 -35q0 -21 -14.5 -36t-36.5 -15q-18 0 -35 15l-89 90l-91 -90
q-13 -15 -35 -15z" />
    <glyph glyph-name="Oslash" unicode="&#xd8;" horiz-adv-x="869" 
d="M829 691q0 -19 -18 -39l-72 -71q62 -95 62 -221q0 -165 -101 -270.5t-267 -105.5q-131 0 -226 70l-66 -65q-19 -19 -39 -19q-21 0 -37 17.5t-16 40.5t17 40l65 64q-67 97 -67 228q0 165 101.5 270t267.5 105q137 0 233 -74l71 70q17 17 40 17q21 0 36.5 -17t15.5 -40z
M180 360q0 -86 33 -147l376 371q-66 50 -158 50q-115 0 -183 -75t-68 -199zM685 360q0 78 -29 139l-372 -369q63 -44 149 -44q117 0 184.5 74t67.5 200z" />
    <glyph glyph-name="Ugrave" unicode="&#xd9;" horiz-adv-x="786" 
d="M334 990l94 -115q14 -17 14 -40q0 -21 -15 -34.5t-34 -13.5q-15 0 -38 19l-107 98q-27 23 -27 55q0 26 17.5 43.5t42.5 17.5q27 0 53 -30zM393 -16q-151 0 -228 83t-77 226v374q0 26 14.5 43.5t42.5 17.5t42 -17.5t14 -43.5v-375q0 -95 47 -151t145 -56t145 56t47 151
v375q0 26 14.5 43.5t42.5 17.5t42 -17.5t14 -43.5v-374q0 -142 -77 -225.5t-228 -83.5z" />
    <glyph glyph-name="Uacute" unicode="&#xda;" horiz-adv-x="786" 
d="M338 875l95 115q26 30 52 30q25 0 43 -17.5t18 -43.5q0 -31 -27 -55l-108 -98q-23 -19 -37 -19q-19 0 -34.5 13.5t-15.5 34.5q0 23 14 40zM393 -16q-151 0 -228 83t-77 226v374q0 26 14.5 43.5t42.5 17.5t42 -17.5t14 -43.5v-375q0 -95 47 -151t145 -56t145 56t47 151
v375q0 26 14.5 43.5t42.5 17.5t42 -17.5t14 -43.5v-374q0 -142 -77 -225.5t-228 -83.5z" />
    <glyph glyph-name="Ucircumflex" unicode="&#xdb;" horiz-adv-x="786" 
d="M266 772q-20 0 -34 14.5t-14 36.5q0 21 23 42l51 54q60 60 103 60q39 0 105 -64l50 -50q21 -18 21 -43q0 -21 -14 -35.5t-35 -14.5q-18 0 -33 14l-94 92h-2l-93 -93q-14 -13 -34 -13zM393 -16q-151 0 -228 83t-77 226v374q0 26 14.5 43.5t42.5 17.5t42 -17.5t14 -43.5
v-375q0 -95 47 -151t145 -56t145 56t47 151v375q0 26 14.5 43.5t42.5 17.5t42 -17.5t14 -43.5v-374q0 -142 -77 -225.5t-228 -83.5z" />
    <glyph glyph-name="Udieresis" unicode="&#xdc;" horiz-adv-x="786" 
d="M284 795q-35 0 -57 21t-22 55t22 54t57 20q34 0 55 -20t21 -54q0 -35 -21 -55.5t-55 -20.5zM510 795q-35 0 -57 21t-22 55t22 54t57 20q34 0 55 -20t21 -54q0 -35 -21 -55.5t-55 -20.5zM393 -16q-151 0 -228 83t-77 226v374q0 26 14.5 43.5t42.5 17.5t42 -17.5t14 -43.5
v-375q0 -95 47 -151t145 -56t145 56t47 151v375q0 26 14.5 43.5t42.5 17.5t42 -17.5t14 -43.5v-374q0 -142 -77 -225.5t-228 -83.5z" />
    <glyph glyph-name="Yacute" unicode="&#xdd;" horiz-adv-x="654" 
d="M272 885l94 115q24 30 52 30q25 0 43 -17.5t18 -43.5q0 -32 -27 -55l-107 -98q-23 -19 -38 -19q-19 0 -34 13.5t-15 34.5q0 24 14 40zM328 -8q-28 0 -42.5 17.5t-14.5 43.5v229l-227 363q-8 12 -8 27q0 23 17 39.5t40 16.5q17 0 27 -6.5t22 -24.5l184 -302h2l183 303
q20 30 49 30q23 0 39.5 -16t16.5 -39q0 -15 -7 -26l-225 -365v-229q0 -26 -14 -43.5t-42 -17.5z" />
    <glyph glyph-name="Thorn" unicode="&#xde;" horiz-adv-x="678" 
d="M628 360q0 -246 -288 -246h-131v-61q0 -26 -14 -43.5t-42 -17.5t-42.5 17.5t-14.5 43.5v614q0 26 14.5 43.5t42.5 17.5t42 -17.5t14 -43.5v-60h131q288 0 288 -247zM513 360q0 145 -171 145h-133v-289h133q89 0 130 36t41 108z" />
    <glyph glyph-name="germandbls" unicode="&#xdf;" horiz-adv-x="654" 
d="M80 53v488q0 116 65.5 172.5t173.5 56.5q97 0 155 -46.5t58 -118.5q0 -41 -22 -76t-44 -64.5t-22 -55.5q0 -23 17.5 -42.5t42 -36t49.5 -37t42.5 -54.5t17.5 -79q0 -83 -56.5 -129t-155.5 -46q-70 0 -113 24q-33 17 -33 51q0 24 13 37.5t37 13.5q4 0 32 -8.5t59 -8.5
q52 0 76.5 20t24.5 62q0 25 -18 46.5t-43.5 38t-51.5 35t-44 46.5t-18 63q0 34 24 68t48 65t24 59q0 35 -27 53t-72 18q-126 0 -126 -127v-488q0 -26 -14 -43.5t-42 -17.5t-42.5 17.5t-14.5 43.5z" />
    <glyph glyph-name="agrave" unicode="&#xe0;" horiz-adv-x="584" 
d="M222 784l94 -115q14 -16 14 -39q0 -22 -15 -35.5t-34 -13.5q-15 0 -38 19l-107 99q-27 22 -27 54q0 27 18 44t43 17q28 0 52 -30zM218 -16q-87 0 -135.5 40t-48.5 115q0 77 57.5 121.5t142.5 44.5t155 -40q0 76 -35.5 110.5t-107.5 34.5q-40 0 -89 -14q-28 -7 -33 -7
q-45 0 -45 47q0 36 44 55q57 24 140 24q72 0 120.5 -22t73 -64.5t33.5 -89.5t9 -112v-62q0 -37 5 -50t25 -25q28 -21 28 -50q0 -25 -16 -41t-48 -15q-40 2 -63 28.5t-28 64.5h-2q-67 -93 -182 -93zM243 73q55 0 98 36t48 80q-57 36 -122 36q-53 0 -84.5 -21t-31.5 -59
q0 -72 92 -72z" />
    <glyph glyph-name="aacute" unicode="&#xe1;" horiz-adv-x="584" 
d="M227 669l94 115q24 30 52 30q25 0 43 -17t18 -44q0 -32 -27 -54l-107 -99q-23 -19 -38 -19q-19 0 -34 13.5t-15 35.5q0 23 14 39zM218 -16q-87 0 -135.5 40t-48.5 115q0 77 57.5 121.5t142.5 44.5t155 -40q0 76 -35.5 110.5t-107.5 34.5q-40 0 -89 -14q-28 -7 -33 -7
q-45 0 -45 47q0 36 44 55q57 24 140 24q72 0 120.5 -22t73 -64.5t33.5 -89.5t9 -112v-62q0 -37 5 -50t25 -25q28 -21 28 -50q0 -25 -16 -41t-48 -15q-40 2 -63 28.5t-28 64.5h-2q-67 -93 -182 -93zM243 73q55 0 98 36t48 80q-57 36 -122 36q-53 0 -84.5 -21t-31.5 -59
q0 -72 92 -72z" />
    <glyph glyph-name="acircumflex" unicode="&#xe2;" horiz-adv-x="584" 
d="M155 566q-21 0 -34.5 15t-13.5 36t22 43l52 54q59 59 102 59q41 0 106 -63l49 -51q21 -17 21 -42q0 -21 -14 -36t-34 -15q-19 0 -34 15l-93 92h-2l-94 -93q-15 -14 -33 -14zM218 -16q-87 0 -135.5 40t-48.5 115q0 77 57.5 121.5t142.5 44.5t155 -40q0 76 -35.5 110.5
t-107.5 34.5q-40 0 -89 -14q-28 -7 -33 -7q-45 0 -45 47q0 36 44 55q57 24 140 24q72 0 120.5 -22t73 -64.5t33.5 -89.5t9 -112v-62q0 -37 5 -50t25 -25q28 -21 28 -50q0 -25 -16 -41t-48 -15q-40 2 -63 28.5t-28 64.5h-2q-67 -93 -182 -93zM243 73q55 0 98 36t48 80
q-57 36 -122 36q-53 0 -84.5 -21t-31.5 -59q0 -72 92 -72z" />
    <glyph glyph-name="atilde" unicode="&#xe3;" horiz-adv-x="584" 
d="M191 749q40 0 73 -17.5t56.5 -35t39.5 -17.5q20 0 29.5 13.5t17.5 40.5q11 18 34 18q22 0 34 -16t12 -40q0 -49 -29 -84.5t-80 -35.5q-34 0 -67 19.5t-59.5 38.5t-46.5 19q-18 0 -29 -8.5t-14.5 -17t-7.5 -25.5q-7 -24 -36 -24q-22 0 -33.5 14t-11.5 35q0 51 31 87t87 36
zM218 -16q-87 0 -135.5 40t-48.5 115q0 77 57.5 121.5t142.5 44.5t155 -40q0 76 -35.5 110.5t-107.5 34.5q-40 0 -89 -14q-28 -7 -33 -7q-45 0 -45 47q0 36 44 55q57 24 140 24q72 0 120.5 -22t73 -64.5t33.5 -89.5t9 -112v-62q0 -37 5 -50t25 -25q28 -21 28 -50
q0 -25 -16 -41t-48 -15q-40 2 -63 28.5t-28 64.5h-2q-67 -93 -182 -93zM243 73q55 0 98 36t48 80q-57 36 -122 36q-53 0 -84.5 -21t-31.5 -59q0 -72 92 -72z" />
    <glyph glyph-name="adieresis" unicode="&#xe4;" horiz-adv-x="584" 
d="M172 589q-35 0 -57 21.5t-22 55.5q0 33 22 53.5t57 20.5q34 0 55 -20t21 -54q0 -35 -20.5 -56t-55.5 -21zM398 589q-35 0 -56.5 21.5t-21.5 55.5t21.5 54t56.5 20q34 0 55.5 -20.5t21.5 -53.5q0 -35 -21 -56t-56 -21zM218 -16q-87 0 -135.5 40t-48.5 115q0 77 57.5 121.5
t142.5 44.5t155 -40q0 76 -35.5 110.5t-107.5 34.5q-40 0 -89 -14q-28 -7 -33 -7q-45 0 -45 47q0 36 44 55q57 24 140 24q72 0 120.5 -22t73 -64.5t33.5 -89.5t9 -112v-62q0 -37 5 -50t25 -25q28 -21 28 -50q0 -25 -16 -41t-48 -15q-40 2 -63 28.5t-28 64.5h-2
q-67 -93 -182 -93zM243 73q55 0 98 36t48 80q-57 36 -122 36q-53 0 -84.5 -21t-31.5 -59q0 -72 92 -72z" />
    <glyph glyph-name="aring" unicode="&#xe5;" horiz-adv-x="584" 
d="M281 571q-50 0 -83 29.5t-33 82.5q0 52 33.5 82t82.5 30t83 -30t34 -82q0 -53 -33.5 -82.5t-83.5 -29.5zM281 643q17 0 28 11t11 29t-11 29t-28 11t-28 -11t-11 -29t11 -29t28 -11zM218 -16q-87 0 -135.5 40t-48.5 115q0 77 57.5 121.5t142.5 44.5t155 -40
q0 76 -35.5 110.5t-107.5 34.5q-40 0 -89 -14q-28 -7 -33 -7q-45 0 -45 47q0 36 44 55q57 24 140 24q72 0 120.5 -22t73 -64.5t33.5 -89.5t9 -112v-62q0 -37 5 -50t25 -25q28 -21 28 -50q0 -25 -16 -41t-48 -15q-40 2 -63 28.5t-28 64.5h-2q-67 -93 -182 -93zM243 73
q55 0 98 36t48 80q-57 36 -122 36q-53 0 -84.5 -21t-31.5 -59q0 -72 92 -72z" />
    <glyph glyph-name="ae" unicode="&#xe6;" horiz-adv-x="922" 
d="M876 283q0 -37 -14.5 -54t-49.5 -17h-303q0 -53 42.5 -89.5t122.5 -36.5q42 0 81 14.5t51 14.5q22 0 34.5 -13t12.5 -32q0 -31 -30 -52q-52 -34 -148 -34q-165 0 -237 104q-31 -46 -89.5 -75t-123.5 -29q-87 0 -139 40.5t-52 114.5q0 77 57.5 121.5t142.5 44.5t155 -40
q0 76 -35.5 110.5t-107.5 34.5q-40 0 -89 -14q-28 -7 -33 -7q-45 0 -45 47q0 36 44 55q57 24 140 24q135 0 191 -82q69 82 188 82q111 0 172.5 -63.5t61.5 -168.5zM760 290q1 5 1 18q0 49 -30.5 80t-90.5 31q-56 0 -94 -37.5t-38 -91.5h252zM243 73q55 0 98 36t48 80
q-57 36 -122 36q-53 0 -84.5 -21t-31.5 -59q0 -72 92 -72z" />
    <glyph glyph-name="ccedilla" unicode="&#xe7;" horiz-adv-x="523" 
d="M439 117q22 0 34.5 -13t12.5 -32q0 -32 -30 -51q-35 -25 -96 -34l-7 -20q4 0 11 -1.5t24.5 -8.5t31 -18t24.5 -32.5t11 -48.5q0 -50 -36.5 -83t-104.5 -33q-46 0 -82 20q-28 15 -28 42q0 20 11.5 31t26.5 11q8 0 28 -9.5t36 -9.5q51 0 51 45q0 40 -62 42q-20 0 -27.5 8
t-2.5 32l9 32q-105 12 -166 84t-61 180q0 118 72 191.5t197 73.5q91 0 140 -36q28 -21 28 -53q0 -19 -12.5 -32t-34.5 -13q-14 0 -49.5 15t-72.5 15q-70 0 -110.5 -45.5t-40.5 -116.5t40.5 -116.5t112.5 -45.5q38 0 73.5 15t48.5 15z" />
    <glyph glyph-name="egrave" unicode="&#xe8;" horiz-adv-x="577" 
d="M239 784l94 -115q14 -16 14 -39q0 -22 -15 -35.5t-34 -13.5q-15 0 -38 19l-107 99q-27 22 -27 54q0 27 18 44t43 17q28 0 52 -30zM330 -16q-136 0 -209 72t-73 196q0 118 69.5 190.5t179.5 72.5q111 0 172.5 -63.5t61.5 -168.5q0 -37 -14.5 -54t-49.5 -17h-303
q0 -53 42.5 -89.5t122.5 -36.5q43 0 81.5 14.5t50.5 14.5q22 0 35 -13t13 -32q0 -31 -31 -52q-52 -34 -148 -34zM164 290h251q1 5 1 18q0 49 -30.5 80t-90.5 31q-56 0 -93.5 -37.5t-37.5 -91.5z" />
    <glyph glyph-name="eacute" unicode="&#xe9;" horiz-adv-x="577" 
d="M244 669l94 115q24 30 52 30q25 0 43 -17t18 -44q0 -32 -27 -54l-107 -99q-23 -19 -38 -19q-19 0 -34 13.5t-15 35.5q0 23 14 39zM330 -16q-136 0 -209 72t-73 196q0 118 69.5 190.5t179.5 72.5q111 0 172.5 -63.5t61.5 -168.5q0 -37 -14.5 -54t-49.5 -17h-303
q0 -53 42.5 -89.5t122.5 -36.5q43 0 81.5 14.5t50.5 14.5q22 0 35 -13t13 -32q0 -31 -31 -52q-52 -34 -148 -34zM164 290h251q1 5 1 18q0 49 -30.5 80t-90.5 31q-56 0 -93.5 -37.5t-37.5 -91.5z" />
    <glyph glyph-name="ecircumflex" unicode="&#xea;" horiz-adv-x="577" 
d="M172 566q-21 0 -34.5 15t-13.5 36t22 43l52 54q59 59 102 59q41 0 106 -63l49 -51q21 -17 21 -42q0 -21 -14 -36t-34 -15q-19 0 -34 15l-93 92h-2l-94 -93q-15 -14 -33 -14zM330 -16q-136 0 -209 72t-73 196q0 118 69.5 190.5t179.5 72.5q111 0 172.5 -63.5t61.5 -168.5
q0 -37 -14.5 -54t-49.5 -17h-303q0 -53 42.5 -89.5t122.5 -36.5q43 0 81.5 14.5t50.5 14.5q22 0 35 -13t13 -32q0 -31 -31 -52q-52 -34 -148 -34zM164 290h251q1 5 1 18q0 49 -30.5 80t-90.5 31q-56 0 -93.5 -37.5t-37.5 -91.5z" />
    <glyph glyph-name="edieresis" unicode="&#xeb;" horiz-adv-x="577" 
d="M189 589q-35 0 -57 21.5t-22 55.5q0 33 22 53.5t57 20.5q34 0 55 -20t21 -54q0 -35 -20.5 -56t-55.5 -21zM415 589q-35 0 -56.5 21.5t-21.5 55.5t21.5 54t56.5 20q34 0 55.5 -20.5t21.5 -53.5q0 -35 -21 -56t-56 -21zM330 -16q-136 0 -209 72t-73 196q0 118 69.5 190.5
t179.5 72.5q111 0 172.5 -63.5t61.5 -168.5q0 -37 -14.5 -54t-49.5 -17h-303q0 -53 42.5 -89.5t122.5 -36.5q43 0 81.5 14.5t50.5 14.5q22 0 35 -13t13 -32q0 -31 -31 -52q-52 -34 -148 -34zM164 290h251q1 5 1 18q0 49 -30.5 80t-90.5 31q-56 0 -93.5 -37.5t-37.5 -91.5z
" />
    <glyph glyph-name="igrave" unicode="&#xec;" horiz-adv-x="272" 
d="M78 777l94 -115q14 -16 14 -39q0 -22 -15 -35.5t-34 -13.5q-15 0 -38 19l-107 99q-27 22 -27 54q0 27 18 44t43 17q28 0 52 -30zM136 -8q-28 0 -42 17.5t-14 43.5v393q0 26 14 43.5t42 17.5t42.5 -17.5t14.5 -43.5v-393q0 -26 -14.5 -43.5t-42.5 -17.5z" />
    <glyph glyph-name="iacute" unicode="&#xed;" horiz-adv-x="272" 
d="M83 662l94 115q24 30 52 30q25 0 43 -17t18 -44q0 -32 -27 -54l-107 -99q-23 -19 -38 -19q-19 0 -34 13.5t-15 35.5q0 23 14 39zM136 -8q-28 0 -42 17.5t-14 43.5v393q0 26 14 43.5t42 17.5t42.5 -17.5t14.5 -43.5v-393q0 -26 -14.5 -43.5t-42.5 -17.5z" />
    <glyph glyph-name="icircumflex" unicode="&#xee;" horiz-adv-x="272" 
d="M11 559q-21 0 -34.5 15t-13.5 36t22 43l52 54q59 59 102 59q41 0 106 -63l49 -51q21 -17 21 -42q0 -21 -14 -36t-34 -15q-19 0 -34 14l-93 93h-2l-94 -93q-15 -14 -33 -14zM136 -8q-28 0 -42 17.5t-14 43.5v393q0 26 14 43.5t42 17.5t42.5 -17.5t14.5 -43.5v-393
q0 -26 -14.5 -43.5t-42.5 -17.5z" />
    <glyph glyph-name="idieresis" unicode="&#xef;" horiz-adv-x="272" 
d="M28 582q-35 0 -57 21.5t-22 55.5q0 33 22 53.5t57 20.5q34 0 55 -20t21 -54q0 -35 -21 -56t-55 -21zM254 582q-35 0 -56.5 21.5t-21.5 55.5t21.5 54t56.5 20q34 0 55 -20t21 -54q0 -35 -20.5 -56t-55.5 -21zM136 -8q-28 0 -42 17.5t-14 43.5v393q0 26 14 43.5t42 17.5
t42.5 -17.5t14.5 -43.5v-393q0 -26 -14.5 -43.5t-42.5 -17.5z" />
    <glyph glyph-name="eth" unicode="&#xf0;" horiz-adv-x="646" 
d="M415 697q172 -117 172 -393q0 -147 -71 -233t-199 -86q-122 0 -195.5 72t-73.5 193q0 113 68 184t171 71q36 0 68 -9t51.5 -21.5t34 -25t20.5 -21.5l6 -9h2q0 121 -112 197l-3 2l-35 -49q-20 -27 -49 -22q-27 5 -40 28.5t5 51.5l27 37l-20 6q-40 12 -40 43q0 24 14.5 39
t35.5 14q31 -1 71 -17l28 39q20 28 47 23q28 -7 41.5 -30t-4.5 -51l-22 -31zM318 86q67 0 109.5 45.5t42.5 119.5q0 73 -43.5 117t-111.5 44q-67 0 -109 -44t-42 -118q0 -75 42.5 -119.5t111.5 -44.5z" />
    <glyph glyph-name="ntilde" unicode="&#xf1;" 
d="M239 748q40 0 73 -17.5t56.5 -35t38.5 -17.5q20 0 30 13.5t17 40.5q11 17 35 17q22 0 33.5 -15.5t11.5 -39.5q0 -49 -29 -84.5t-79 -35.5q-34 0 -67 19t-60 38.5t-47 19.5q-18 0 -29 -8.5t-14.5 -17.5t-6.5 -26q-10 -23 -36 -23q-22 0 -34 14t-12 35q0 51 31.5 87
t87.5 36zM135 -8q-28 0 -42.5 17.5t-14.5 43.5v404q0 21 12 35.5t35 14.5t34.5 -14.5t11.5 -35.5v-45h2q22 44 72 73.5t108 29.5q102 0 155.5 -62t53.5 -184v-216q0 -26 -14.5 -43.5t-42.5 -17.5t-42 17.5t-14 43.5v207q0 153 -117 153q-62 0 -100.5 -43t-39.5 -114l-1 -203
q0 -26 -14 -43.5t-42 -17.5z" />
    <glyph glyph-name="ograve" unicode="&#xf2;" horiz-adv-x="632" 
d="M258 784l94 -115q15 -17 15 -40q0 -22 -15 -35t-35 -13q-16 0 -37 18l-108 99q-27 24 -27 55q0 26 18 43t43 17q27 0 52 -29zM317 -16q-123 0 -196.5 72.5t-73.5 193.5t73.5 193t196.5 72q122 0 195 -72t73 -193t-73 -193.5t-195 -72.5zM317 85q69 0 110.5 44.5
t41.5 120.5q0 75 -42 119t-112 44q-68 0 -109.5 -44t-41.5 -119t42.5 -120t110.5 -45z" />
    <glyph glyph-name="oacute" unicode="&#xf3;" horiz-adv-x="632" 
d="M263 669l94 115q25 29 52 29q25 0 43 -17t18 -43q0 -32 -27 -55l-107 -99q-22 -18 -38 -18q-19 0 -34 13t-15 35q0 23 14 40zM317 -16q-123 0 -196.5 72.5t-73.5 193.5t73.5 193t196.5 72q122 0 195 -72t73 -193t-73 -193.5t-195 -72.5zM317 85q69 0 110.5 44.5
t41.5 120.5q0 75 -42 119t-112 44q-68 0 -109.5 -44t-41.5 -119t42.5 -120t110.5 -45z" />
    <glyph glyph-name="ocircumflex" unicode="&#xf4;" horiz-adv-x="632" 
d="M191 565q-21 0 -34.5 15t-13.5 36t22 43l52 54q59 59 102 59q41 0 106 -63l50 -51q20 -17 20 -42q0 -21 -13.5 -36t-34.5 -15q-19 0 -34 15l-93 92h-2l-94 -93q-14 -14 -33 -14zM317 -16q-123 0 -196.5 72.5t-73.5 193.5t73.5 193t196.5 72q122 0 195 -72t73 -193
t-73 -193.5t-195 -72.5zM317 85q69 0 110.5 44.5t41.5 120.5q0 75 -42 119t-112 44q-68 0 -109.5 -44t-41.5 -119t42.5 -120t110.5 -45z" />
    <glyph glyph-name="otilde" unicode="&#xf5;" horiz-adv-x="632" 
d="M227 749q31 0 59.5 -11t45 -24.5t34 -24.5t30.5 -11q20 0 29.5 13.5t17.5 41.5q11 17 34 17q22 0 34 -16t12 -40q0 -49 -29 -84t-80 -35q-34 0 -66.5 19.5t-59.5 38.5t-47 19q-18 0 -29 -8.5t-14.5 -17.5t-7.5 -26q-8 -23 -36 -23q-22 0 -33.5 14t-11.5 35q0 51 31 87
t87 36zM317 -16q-123 0 -196.5 72.5t-73.5 193.5t73.5 193t196.5 72q122 0 195 -72t73 -193t-73 -193.5t-195 -72.5zM317 85q69 0 110.5 44.5t41.5 120.5q0 75 -42 119t-112 44q-68 0 -109.5 -44t-41.5 -119t42.5 -120t110.5 -45z" />
    <glyph glyph-name="odieresis" unicode="&#xf6;" horiz-adv-x="632" 
d="M208 588q-35 0 -56.5 21.5t-21.5 55.5t21.5 54t56.5 20q34 0 55.5 -20t21.5 -54q0 -35 -21 -56t-56 -21zM434 588q-35 0 -56.5 21.5t-21.5 55.5t21.5 54t56.5 20q34 0 55.5 -20t21.5 -54q0 -35 -21 -56t-56 -21zM317 -16q-123 0 -196.5 72.5t-73.5 193.5t73.5 193
t196.5 72q122 0 195 -72t73 -193t-73 -193.5t-195 -72.5zM317 85q69 0 110.5 44.5t41.5 120.5q0 75 -42 119t-112 44q-68 0 -109.5 -44t-41.5 -119t42.5 -120t110.5 -45z" />
    <glyph glyph-name="divide" unicode="&#xf7;" horiz-adv-x="520" 
d="M258 499q-35 0 -57.5 22t-22.5 58q0 35 22.5 56.5t57.5 21.5q36 0 58.5 -21t22.5 -57t-22 -58t-59 -22zM419 311h-317q-23 0 -36 14t-13 36q0 21 13.5 35.5t35.5 14.5h317q23 0 36.5 -14.5t13.5 -35.5q0 -22 -13.5 -36t-36.5 -14zM258 66q-35 0 -57.5 22t-22.5 58
q0 35 22.5 56t57.5 21q36 0 58.5 -20.5t22.5 -56.5q0 -37 -22 -58.5t-59 -21.5z" />
    <glyph glyph-name="oslash" unicode="&#xf8;" horiz-adv-x="647" 
d="M587 443l-38 -37q43 -65 43 -156q0 -121 -73 -193.5t-195 -72.5q-93 0 -158 42l-36 -35q-25 -23 -52.5 -10.5t-27.5 42.5q0 20 14 34l35 34q-45 67 -45 159q0 121 73.5 193t196.5 72q93 0 159 -43l38 37q25 22 52.5 9t27.5 -42q0 -19 -14 -33zM171 250q0 -38 13 -74
l220 217q-35 20 -82 20q-68 0 -109.5 -44t-41.5 -119zM476 250q0 40 -12 71l-219 -216q35 -20 79 -20q69 0 110.5 44.5t41.5 120.5z" />
    <glyph glyph-name="ugrave" unicode="&#xf9;" 
d="M261 769l95 -115q14 -16 14 -39q0 -22 -15 -35.5t-34 -13.5q-15 0 -38 19l-107 99q-27 22 -27 54q0 27 17.5 44t42.5 17q29 0 52 -30zM283 -16q-103 0 -157 62.5t-54 184.5v215q0 26 14 43.5t42 17.5t42.5 -17.5t14.5 -43.5v-205q0 -155 118 -155q62 0 99.5 43t38.5 114
l1 203q0 26 14 43.5t42 17.5t42.5 -17.5t14.5 -43.5v-404q0 -21 -12.5 -35.5t-34.5 -14.5q-23 0 -35.5 14.5t-12.5 35.5v43h-2q-22 -44 -70 -72.5t-105 -28.5z" />
    <glyph glyph-name="uacute" unicode="&#xfa;" 
d="M252 654l94 115q24 30 52 30q25 0 43 -17t18 -44q0 -32 -27 -54l-107 -99q-23 -19 -38 -19q-19 0 -34.5 13.5t-15.5 35.5t15 39zM283 -16q-103 0 -157 62.5t-54 184.5v215q0 26 14 43.5t42 17.5t42.5 -17.5t14.5 -43.5v-205q0 -155 118 -155q62 0 99.5 43t38.5 114l1 203
q0 26 14 43.5t42 17.5t42.5 -17.5t14.5 -43.5v-404q0 -21 -12.5 -35.5t-34.5 -14.5q-23 0 -35.5 14.5t-12.5 35.5v43h-2q-22 -44 -70 -72.5t-105 -28.5z" />
    <glyph glyph-name="ucircumflex" unicode="&#xfb;" 
d="M179 551q-20 0 -34 15t-14 36q0 20 23 43l51 54q61 59 103 59q40 0 105 -63l50 -51q21 -17 21 -42q0 -21 -14 -36t-34 -15q-19 0 -34 15l-93 92h-2l-94 -93q-15 -14 -34 -14zM283 -16q-103 0 -157 62.5t-54 184.5v215q0 26 14 43.5t42 17.5t42.5 -17.5t14.5 -43.5v-205
q0 -155 118 -155q62 0 99.5 43t38.5 114l1 203q0 26 14 43.5t42 17.5t42.5 -17.5t14.5 -43.5v-404q0 -21 -12.5 -35.5t-34.5 -14.5q-23 0 -35.5 14.5t-12.5 35.5v43h-2q-22 -44 -70 -72.5t-105 -28.5z" />
    <glyph glyph-name="udieresis" unicode="&#xfc;" 
d="M204 574q-35 0 -56.5 21.5t-21.5 55.5t21.5 54t56.5 20q34 0 55.5 -20.5t21.5 -53.5q0 -35 -21 -56t-56 -21zM430 574q-35 0 -56.5 21.5t-21.5 55.5t21.5 54t56.5 20q34 0 55.5 -20.5t21.5 -53.5q0 -35 -21 -56t-56 -21zM283 -16q-103 0 -157 62.5t-54 184.5v215
q0 26 14 43.5t42 17.5t42.5 -17.5t14.5 -43.5v-205q0 -155 118 -155q62 0 99.5 43t38.5 114l1 203q0 26 14 43.5t42 17.5t42.5 -17.5t14.5 -43.5v-404q0 -21 -12.5 -35.5t-34.5 -14.5q-23 0 -35.5 14.5t-12.5 35.5v43h-2q-22 -44 -70 -72.5t-105 -28.5z" />
    <glyph glyph-name="yacute" unicode="&#xfd;" horiz-adv-x="562" 
d="M229 654l94 115q24 30 52 30q25 0 43 -17t18 -44q0 -32 -27 -54l-107 -99q-23 -19 -38 -19q-19 0 -34 13.5t-15 35.5q0 23 14 39zM132 -230q-30 0 -45 7q-32 14 -32 50q0 21 13.5 33.5t35.5 12.5q6 -1 16 -1q67 0 102 100l-182 454q-11 29 6 55t50 26q39 0 55 -50
l132 -369h3l131 369q16 50 58 50q33 0 47 -23.5t2 -55.5l-171 -430q-49 -123 -99 -175.5t-122 -52.5z" />
    <glyph glyph-name="thorn" unicode="&#xfe;" horiz-adv-x="640" 
d="M138 -215q-28 0 -42.5 17.5t-14.5 43.5v853q0 25 14.5 42.5t42.5 17.5t42 -17t14 -43v-249h2q52 68 152 68q106 0 175 -75t69 -192t-69 -192t-174 -75q-101 0 -153 68h-2v-206q0 -27 -14 -44t-42 -17zM332 415q-68 0 -106 -44t-38 -122t39 -121.5t106 -43.5q63 0 103 45
t40 120q0 74 -39.5 120t-104.5 46z" />
    <glyph glyph-name="ydieresis" unicode="&#xff;" horiz-adv-x="562" 
d="M174 574q-35 0 -57 21.5t-22 55.5q0 33 22 53.5t57 20.5q34 0 55 -20t21 -54q0 -35 -21 -56t-55 -21zM400 574q-35 0 -56.5 21.5t-21.5 55.5t21.5 54t56.5 20q34 0 55 -20t21 -54q0 -35 -20.5 -56t-55.5 -21zM132 -230q-30 0 -45 7q-32 14 -32 50q0 21 13.5 33.5
t35.5 12.5q6 -1 16 -1q67 0 102 100l-182 454q-11 29 6 55t50 26q39 0 55 -50l132 -369h3l131 369q16 50 58 50q33 0 47 -23.5t2 -55.5l-171 -430q-49 -123 -99 -175.5t-122 -52.5z" />
    <glyph glyph-name="Amacron" unicode="&#x100;" horiz-adv-x="699" 
d="M222 822q-21 0 -36 14.5t-15 36.5q0 21 15 36t36 15h263q21 0 36 -15t15 -37q0 -21 -15 -35.5t-36 -14.5h-263zM663 66q11 -29 -4.5 -51.5t-47.5 -22.5q-22 0 -33.5 11.5t-21.5 38.5l-53 139q-2 -1 -7 -1h-299h-2l-52 -138q-9 -26 -20.5 -38t-33.5 -12q-33 0 -48 22
t-4 52l210 547q24 65 44 90t59 25q21 0 35.5 -6t27 -24t20 -34.5t21.5 -53.5zM233 281h232l-115 303h-2z" />
    <glyph glyph-name="amacron" unicode="&#x101;" horiz-adv-x="584" 
d="M416 616h-264q-20 0 -35 15t-15 37q0 20 15 35t35 15h264q20 0 35 -15t15 -36t-15 -36t-35 -15zM218 -16q-87 0 -135.5 40t-48.5 115q0 77 57.5 121.5t142.5 44.5t155 -40q0 76 -35.5 110.5t-107.5 34.5q-40 0 -89 -14q-28 -7 -33 -7q-45 0 -45 47q0 36 44 55
q57 24 140 24q72 0 120.5 -22t73 -64.5t33.5 -89.5t9 -112v-62q0 -37 5 -50t25 -25q28 -21 28 -50q0 -25 -16 -41t-48 -15q-40 2 -63 28.5t-28 64.5h-2q-67 -93 -182 -93zM243 73q55 0 98 36t48 80q-57 36 -122 36q-53 0 -84.5 -21t-31.5 -59q0 -72 92 -72z" />
    <glyph glyph-name="Abreve" unicode="&#x102;" horiz-adv-x="699" 
d="M349 778q-72 0 -122 40t-51 105q0 22 14 38t37 16q17 0 30 -10.5t18 -26.5q11 -67 74 -67t74 67q5 16 18.5 26.5t30.5 10.5q24 0 37.5 -16t13.5 -38q-1 -66 -51.5 -105.5t-122.5 -39.5zM663 66q11 -29 -4.5 -51.5t-47.5 -22.5q-22 0 -33.5 11.5t-21.5 38.5l-53 139
q-2 -1 -7 -1h-299h-2l-52 -138q-9 -26 -20.5 -38t-33.5 -12q-33 0 -48 22t-4 52l210 547q24 65 44 90t59 25q21 0 35.5 -6t27 -24t20 -34.5t21.5 -53.5zM233 281h232l-115 303h-2z" />
    <glyph glyph-name="abreve" unicode="&#x103;" horiz-adv-x="584" 
d="M280 667q63 0 73 68q5 16 18.5 26.5t30.5 10.5q24 0 37.5 -16t13.5 -39q-1 -65 -51 -104.5t-122 -39.5q-73 0 -122.5 39.5t-50.5 104.5q0 22 13.5 38.5t36.5 16.5q38 0 49 -37q11 -68 74 -68zM218 -16q-87 0 -135.5 40t-48.5 115q0 77 57.5 121.5t142.5 44.5t155 -40
q0 76 -35.5 110.5t-107.5 34.5q-40 0 -89 -14q-28 -7 -33 -7q-45 0 -45 47q0 36 44 55q57 24 140 24q72 0 120.5 -22t73 -64.5t33.5 -89.5t9 -112v-62q0 -37 5 -50t25 -25q28 -21 28 -50q0 -25 -16 -41t-48 -15q-40 2 -63 28.5t-28 64.5h-2q-67 -93 -182 -93zM243 73
q55 0 98 36t48 80q-57 36 -122 36q-53 0 -84.5 -21t-31.5 -59q0 -72 92 -72z" />
    <glyph glyph-name="Aogonek" unicode="&#x104;" horiz-adv-x="699" 
d="M640 -178q18 1 30 -10.5t12 -30.5q0 -24 -22 -36q-19 -10 -52 -10q-58 0 -98.5 34t-40.5 101q0 94 92 159q-1 2 -2.5 6.5t-2.5 6.5l-53 139q-2 -1 -7 -1h-299h-2l-52 -138q-9 -26 -20.5 -38t-33.5 -12q-33 0 -48 22t-4 52l210 547q24 65 44 90t59 25q21 0 35.5 -6t27 -24
t20 -34.5t21.5 -53.5l209 -544q16 -45 -21 -67q-79 -56 -79 -124q0 -25 15 -39.5t42 -14.5q4 0 10.5 0.5t9.5 0.5zM233 281h232l-115 303h-2z" />
    <glyph glyph-name="aogonek" unicode="&#x105;" horiz-adv-x="584" 
d="M531 -184q18 0 29.5 -11.5t11.5 -30.5q0 -23 -21 -36q-23 -10 -52 -10q-58 0 -98.5 34t-40.5 101q0 84 74 146q-27 24 -32 68h-2q-67 -93 -182 -93q-87 0 -135.5 40t-48.5 115q0 77 57.5 121.5t142.5 44.5t155 -40q0 76 -35.5 110.5t-107.5 34.5q-40 0 -89 -14
q-28 -7 -33 -7q-45 0 -45 47q0 36 44 55q57 24 140 24q72 0 120.5 -22t73 -64.5t33.5 -89.5t9 -112v-62q0 -37 5 -50t25 -25q28 -21 28 -50q0 -32 -25 -47q-78 -58 -78 -125q0 -25 15 -39.5t42 -14.5q8 0 20 2zM243 73q55 0 98 36t48 80q-57 36 -122 36q-53 0 -84.5 -21
t-31.5 -59q0 -72 92 -72z" />
    <glyph glyph-name="Cacute" unicode="&#x106;" horiz-adv-x="648" 
d="M343 890l94 115q25 30 53 30q25 0 42.5 -17.5t17.5 -43.5q0 -32 -27 -55l-107 -98q-23 -19 -38 -19q-19 0 -34 13.5t-15 34.5q0 22 14 40zM437 -16q-171 0 -278 104.5t-107 271.5q0 169 105 272t280 103q88 0 146 -34q31 -18 31 -47q0 -24 -14 -38t-37 -13
q-11 2 -35.5 9.5t-46.5 11.5t-46 4q-120 0 -193 -72.5t-73 -195.5q0 -125 74.5 -197.5t191.5 -72.5q36 0 79.5 12t53.5 13q20 1 32.5 -13t12.5 -34q0 -32 -33 -52q-54 -32 -143 -32z" />
    <glyph glyph-name="cacute" unicode="&#x107;" horiz-adv-x="523" 
d="M260 669l94 115q25 29 53 29q25 0 42.5 -17t17.5 -43q0 -32 -27 -55l-107 -99q-22 -18 -38 -18q-19 0 -34 13t-15 35q0 23 14 40zM311 -16q-121 0 -192.5 74t-71.5 192t72 191.5t197 73.5q91 0 140 -36q28 -21 28 -53q0 -19 -12.5 -32t-34.5 -13q-14 0 -49.5 15t-72.5 15
q-70 0 -110.5 -45.5t-40.5 -116.5t40.5 -116.5t112.5 -45.5q38 0 73.5 15t48.5 15q22 0 34.5 -13t12.5 -32q0 -32 -30 -51q-51 -37 -145 -37z" />
    <glyph glyph-name="Cdotaccent" unicode="&#x10a;" horiz-adv-x="648" 
d="M396 810q-38 0 -62 23t-24 60q0 38 24 60.5t62 22.5t61 -22.5t23 -60.5t-23 -60.5t-61 -22.5zM437 -16q-171 0 -278 104.5t-107 271.5q0 169 105 272t280 103q88 0 146 -34q31 -18 31 -47q0 -24 -14 -38t-37 -13q-11 2 -35.5 9.5t-46.5 11.5t-46 4q-120 0 -193 -72.5
t-73 -195.5q0 -125 74.5 -197.5t191.5 -72.5q36 0 79.5 12t53.5 13q20 1 32.5 -13t12.5 -34q0 -32 -33 -52q-54 -32 -143 -32z" />
    <glyph glyph-name="cdotaccent" unicode="&#x10b;" horiz-adv-x="523" 
d="M313 588q-38 0 -62 23.5t-24 60.5q0 38 24 60t62 22t61 -22t23 -60t-23 -61t-61 -23zM311 -16q-121 0 -192.5 74t-71.5 192t72 191.5t197 73.5q91 0 140 -36q28 -21 28 -53q0 -19 -12.5 -32t-34.5 -13q-14 0 -49.5 15t-72.5 15q-70 0 -110.5 -45.5t-40.5 -116.5
t40.5 -116.5t112.5 -45.5q38 0 73.5 15t48.5 15q22 0 34.5 -13t12.5 -32q0 -32 -30 -51q-51 -37 -145 -37z" />
    <glyph glyph-name="Ccaron" unicode="&#x10c;" horiz-adv-x="648" 
d="M399 784q-42 0 -106 64l-49 50q-21 18 -21 42q0 21 14 36t34 15q19 0 34 -14l93 -93h2l94 94q16 13 33 13q21 0 34.5 -15t13.5 -36t-22 -42l-52 -55q-61 -59 -102 -59zM437 -16q-171 0 -278 104.5t-107 271.5q0 169 105 272t280 103q88 0 146 -34q31 -18 31 -47
q0 -24 -14 -38t-37 -13q-11 2 -35.5 9.5t-46.5 11.5t-46 4q-120 0 -193 -72.5t-73 -195.5q0 -125 74.5 -197.5t191.5 -72.5q36 0 79.5 12t53.5 13q20 1 32.5 -13t12.5 -34q0 -32 -33 -52q-54 -32 -143 -32z" />
    <glyph glyph-name="ccaron" unicode="&#x10d;" horiz-adv-x="523" 
d="M316 563q-41 0 -106 63l-49 51q-21 17 -21 42q0 21 14 36t34 15q19 0 34 -14l93 -93h2l94 93q15 14 33 14q21 0 34.5 -15t13.5 -36t-22 -43l-52 -54q-59 -59 -102 -59zM311 -16q-121 0 -192.5 74t-71.5 192t72 191.5t197 73.5q91 0 140 -36q28 -21 28 -53
q0 -19 -12.5 -32t-34.5 -13q-14 0 -49.5 15t-72.5 15q-70 0 -110.5 -45.5t-40.5 -116.5t40.5 -116.5t112.5 -45.5q38 0 73.5 15t48.5 15q22 0 34.5 -13t12.5 -32q0 -32 -30 -51q-51 -37 -145 -37z" />
    <glyph glyph-name="Dcaron" unicode="&#x10e;" horiz-adv-x="782" 
d="M367 769q-42 0 -106 64l-50 50q-20 19 -20 42q0 21 13.5 36t34.5 15q19 0 34 -14l93 -93h2l94 94q14 13 33 13q21 0 34.5 -15t13.5 -36t-22 -42l-52 -55q-61 -59 -102 -59zM346 -8h-191q-59 0 -59 59v619q0 58 59 58h191q183 0 282.5 -97.5t99.5 -270.5
q0 -172 -99.5 -269.5t-282.5 -98.5zM209 627v-533h137q128 0 197 69t69 197t-68 197.5t-198 69.5h-137z" />
    <glyph glyph-name="dcaron" unicode="&#x10f;" horiz-adv-x="690" 
d="M288 -16q-106 0 -173 74t-67 189q0 121 65 194.5t175 73.5q103 0 155 -70h2v254q0 26 14.5 43t42.5 17t42 -17t14 -43v-522q0 -65 31 -86l6 -6t6 -6.5t4.5 -6t5 -7t3.5 -6.5t2.5 -8t0.5 -9q0 -25 -16 -42t-48 -16q-40 2 -63.5 28t-28.5 66h-2q-23 -45 -68 -69.5
t-103 -24.5zM668 511q-19 0 -32 14t-10 35q11 84 12 151q0 20 15 34t37 14q25 0 39.5 -15.5t12.5 -37.5q-5 -92 -31 -166q-12 -29 -43 -29zM309 87q67 0 105 44t38 120q0 74 -39 117t-106 43q-63 0 -103 -43.5t-40 -118.5q0 -74 39.5 -118t105.5 -44z" />
    <glyph glyph-name="Dcroat" unicode="&#x110;" horiz-adv-x="792" 
d="M357 728q183 0 282 -97.5t99 -270.5q0 -172 -99 -269.5t-282 -98.5h-192q-58 0 -58 59v259h-27q-23 0 -36.5 13.5t-13.5 37.5q0 23 13.5 36.5t36.5 13.5h27v259q0 58 58 58h192zM357 94q127 0 196 69t69 197t-68 197.5t-197 69.5h-137v-216h110q24 0 37.5 -13.5
t13.5 -36.5q0 -24 -13.5 -37.5t-37.5 -13.5h-110v-216h137z" />
    <glyph glyph-name="dcroat" unicode="&#x111;" horiz-adv-x="658" 
d="M612 591h-54v-414q0 -65 31 -86l6 -6t6 -6.5t4.5 -6t5 -7t3.5 -6.5t2.5 -8t0.5 -9q0 -25 -16 -42t-48 -16q-40 2 -63.5 28t-28.5 66h-2q-23 -45 -68 -69.5t-103 -24.5q-106 0 -173 74t-67 189q0 121 65 194.5t175 73.5q103 0 155 -70h2v146h-89q-17 0 -29 10.5t-12 29.5
t12 29.5t29 10.5h89v28q0 26 14.5 43t42.5 17t42 -17t14 -43v-28h54q17 0 29 -10.5t12 -29.5t-12 -29.5t-29 -10.5zM309 87q67 0 105 44t38 120q0 74 -39 117t-106 43q-63 0 -103 -43.5t-40 -118.5q0 -74 39.5 -118t105.5 -44z" />
    <glyph glyph-name="Emacron" unicode="&#x112;" horiz-adv-x="586" 
d="M452 822h-263q-21 0 -36 14.5t-15 36.5q0 21 15 36t36 15h263q21 0 36 -15t15 -37q0 -21 -15 -35.5t-36 -14.5zM487 -8h-332q-59 0 -59 59v619q0 58 59 58h329q22 0 36.5 -14t14.5 -37t-14 -36.5t-35 -13.5h-278v-216h244q22 0 36.5 -14t14.5 -38q0 -23 -14 -36.5
t-35 -13.5h-246l1 -215h277q22 0 36.5 -14.5t14.5 -37.5t-14 -36.5t-36 -13.5z" />
    <glyph glyph-name="emacron" unicode="&#x113;" horiz-adv-x="577" 
d="M433 616h-264q-20 0 -35 15t-15 37q0 20 15 35t35 15h264q20 0 35 -15t15 -36t-15 -36t-35 -15zM330 -16q-136 0 -209 72t-73 196q0 118 69.5 190.5t179.5 72.5q111 0 172.5 -63.5t61.5 -168.5q0 -37 -14.5 -54t-49.5 -17h-303q0 -53 42.5 -89.5t122.5 -36.5
q43 0 81.5 14.5t50.5 14.5q22 0 35 -13t13 -32q0 -31 -31 -52q-52 -34 -148 -34zM164 290h251q1 5 1 18q0 49 -30.5 80t-90.5 31q-56 0 -93.5 -37.5t-37.5 -91.5z" />
    <glyph glyph-name="Edotaccent" unicode="&#x116;" horiz-adv-x="586" 
d="M316 795q-38 0 -62 23t-24 60q0 38 24 60.5t62 22.5t61 -22.5t23 -60.5t-23 -60.5t-61 -22.5zM487 -8h-332q-59 0 -59 59v619q0 58 59 58h329q22 0 36.5 -14t14.5 -37t-14 -36.5t-35 -13.5h-278v-216h244q22 0 36.5 -14t14.5 -38q0 -23 -14 -36.5t-35 -13.5h-246l1 -215
h277q22 0 36.5 -14.5t14.5 -37.5t-14 -36.5t-36 -13.5z" />
    <glyph glyph-name="edotaccent" unicode="&#x117;" horiz-adv-x="577" 
d="M297 589q-38 0 -62 23.5t-24 60.5q0 38 23.5 60t62.5 22q38 0 61 -22t23 -60t-23 -61t-61 -23zM330 -16q-136 0 -209 72t-73 196q0 118 69.5 190.5t179.5 72.5q111 0 172.5 -63.5t61.5 -168.5q0 -37 -14.5 -54t-49.5 -17h-303q0 -53 42.5 -89.5t122.5 -36.5
q43 0 81.5 14.5t50.5 14.5q22 0 35 -13t13 -32q0 -31 -31 -52q-52 -34 -148 -34zM164 290h251q1 5 1 18q0 49 -30.5 80t-90.5 31q-56 0 -93.5 -37.5t-37.5 -91.5z" />
    <glyph glyph-name="Eogonek" unicode="&#x118;" horiz-adv-x="586" 
d="M508 -180q18 0 29.5 -11.5t11.5 -30.5q0 -24 -21 -35q-19 -10 -52 -10q-58 0 -98.5 33.5t-40.5 101.5q0 70 52 124h-234q-59 0 -59 59v619q0 58 59 58h329q22 0 36.5 -14t14.5 -37t-14 -36.5t-35 -13.5h-278v-216h244q22 0 36.5 -14t14.5 -38q0 -23 -14 -36.5t-35 -13.5
h-246l1 -215h277q22 0 36.5 -14.5t14.5 -37.5q0 -36 -31 -47q-75 -58 -75 -122q0 -25 15 -39.5t42 -14.5q4 0 10.5 0.5t9.5 0.5z" />
    <glyph glyph-name="eogonek" unicode="&#x119;" horiz-adv-x="577" 
d="M531 283q0 -37 -14.5 -54t-49.5 -17h-303q0 -53 42.5 -89.5t122.5 -36.5q43 0 81.5 14.5t50.5 14.5q22 0 35 -13t13 -32q0 -31 -31 -52q-12 -8 -17 -9q-72 -57 -72 -120q0 -25 15 -39.5t42 -14.5q4 0 10.5 0.5t9.5 0.5q18 0 29.5 -11.5t11.5 -30.5q0 -24 -21 -35
q-19 -10 -52 -10q-58 0 -98.5 33.5t-40.5 101.5q0 55 32 100q-135 1 -207 73t-72 195q0 118 69.5 190.5t179.5 72.5q111 0 172.5 -63.5t61.5 -168.5zM415 290q1 5 1 18q0 49 -30.5 80t-90.5 31q-56 0 -93.5 -37.5t-37.5 -91.5h251z" />
    <glyph glyph-name="Ecaron" unicode="&#x11a;" horiz-adv-x="586" 
d="M319 769q-42 0 -106 64l-49 50q-21 18 -21 42q0 21 14 36t34 15q19 0 34 -14l93 -93h2l94 94q16 13 33 13q21 0 34.5 -15t13.5 -36t-22 -42l-52 -55q-61 -59 -102 -59zM487 -8h-332q-59 0 -59 59v619q0 58 59 58h329q22 0 36.5 -14t14.5 -37t-14 -36.5t-35 -13.5h-278
v-216h244q22 0 36.5 -14t14.5 -38q0 -23 -14 -36.5t-35 -13.5h-246l1 -215h277q22 0 36.5 -14.5t14.5 -37.5t-14 -36.5t-36 -13.5z" />
    <glyph glyph-name="ecaron" unicode="&#x11b;" horiz-adv-x="577" 
d="M300 564q-41 0 -106 63l-50 51q-20 17 -20 42q0 21 13.5 36t34.5 15q19 0 34 -15l93 -92h2l94 93q14 14 33 14q21 0 34.5 -15t13.5 -36t-22 -43l-52 -54q-59 -59 -102 -59zM330 -16q-136 0 -209 72t-73 196q0 118 69.5 190.5t179.5 72.5q111 0 172.5 -63.5t61.5 -168.5
q0 -37 -14.5 -54t-49.5 -17h-303q0 -53 42.5 -89.5t122.5 -36.5q43 0 81.5 14.5t50.5 14.5q22 0 35 -13t13 -32q0 -31 -31 -52q-52 -34 -148 -34zM164 290h251q1 5 1 18q0 49 -30.5 80t-90.5 31q-56 0 -93.5 -37.5t-37.5 -91.5z" />
    <glyph glyph-name="Gbreve" unicode="&#x11e;" horiz-adv-x="729" 
d="M431 888q30 0 49 18t24 49q5 16 18.5 26.5t30.5 10.5q24 0 37.5 -16t13.5 -38q-1 -66 -51.5 -105.5t-121.5 -39.5q-73 0 -122.5 40t-50.5 105q0 22 13.5 38t36.5 16q17 0 30.5 -10.5t17.5 -26.5q13 -67 75 -67zM436 -16q-172 0 -277 101.5t-105 275.5q0 172 105 273
t281 101q119 0 183 -34q32 -18 32 -48q0 -24 -14 -37.5t-35 -12.5q-8 2 -38 10t-58 12t-62 4q-122 0 -200 -71t-78 -197t74 -198.5t198 -72.5q61 0 109 21v220q0 26 14.5 43t42.5 17t42 -17t14 -43v-246q0 -49 -49 -72q-70 -29 -179 -29z" />
    <glyph glyph-name="gbreve" unicode="&#x11f;" horiz-adv-x="639" 
d="M300 652q63 0 73 68q5 16 18.5 26.5t30.5 10.5q24 0 37.5 -16t13.5 -39q-1 -66 -51 -105t-122 -39q-73 0 -122.5 39.5t-50.5 104.5q0 22 13.5 38.5t37.5 16.5q17 0 30 -10.5t18 -26.5q11 -68 74 -68zM289 -230q-50 0 -96 12.5t-68 29.5q-23 19 -23 47q0 21 13 33.5
t36 12.5q16 0 57.5 -17.5t80.5 -17.5q70 0 113.5 38.5t43.5 121.5v24h-2q-53 -70 -152 -70q-111 0 -177.5 73t-66.5 192q0 117 65.5 191.5t178.5 74.5q55 0 102 -26t71 -72h2v40q0 21 11.5 35.5t34.5 14.5q22 0 34 -14.5t12 -35.5l-1 -384q0 -146 -62 -224.5t-207 -78.5z
M307 88q68 0 108 42.5t40 117.5t-39.5 119t-106.5 44q-66 0 -105.5 -44t-39.5 -118t40 -117.5t103 -43.5z" />
    <glyph glyph-name="Gdotaccent" unicode="&#x120;" horiz-adv-x="729" 
d="M431 810q-39 0 -63 23t-24 60q0 38 24 60.5t63 22.5q38 0 61 -22.5t23 -60.5t-23 -60.5t-61 -22.5zM436 -16q-172 0 -277 101.5t-105 275.5q0 172 105 273t281 101q119 0 183 -34q32 -18 32 -48q0 -24 -14 -37.5t-35 -12.5q-8 2 -38 10t-58 12t-62 4q-122 0 -200 -71
t-78 -197t74 -198.5t198 -72.5q61 0 109 21v220q0 26 14.5 43t42.5 17t42 -17t14 -43v-246q0 -49 -49 -72q-70 -29 -179 -29z" />
    <glyph glyph-name="gdotaccent" unicode="&#x121;" horiz-adv-x="639" 
d="M300 574q-38 0 -62 23.5t-24 60.5q0 38 23.5 60t62.5 22q38 0 61 -22t23 -60t-23 -61t-61 -23zM289 -230q-50 0 -96 12.5t-68 29.5q-23 19 -23 47q0 21 13 33.5t36 12.5q16 0 57.5 -17.5t80.5 -17.5q70 0 113.5 38.5t43.5 121.5v24h-2q-53 -70 -152 -70q-111 0 -177.5 73
t-66.5 192q0 117 65.5 191.5t178.5 74.5q55 0 102 -26t71 -72h2v40q0 21 11.5 35.5t34.5 14.5q22 0 34 -14.5t12 -35.5l-1 -384q0 -146 -62 -224.5t-207 -78.5zM307 88q68 0 108 42.5t40 117.5t-39.5 119t-106.5 44q-66 0 -105.5 -44t-39.5 -118t40 -117.5t103 -43.5z" />
    <glyph glyph-name="uni0122" unicode="&#x122;" horiz-adv-x="729" 
d="M436 -16q-172 0 -277 101.5t-105 275.5q0 172 105 273t281 101q119 0 183 -34q32 -18 32 -48q0 -24 -14 -37.5t-35 -12.5q-8 2 -38 10t-58 12t-62 4q-122 0 -200 -71t-78 -197t74 -198.5t198 -72.5q61 0 109 21v220q0 26 14.5 43t42.5 17t42 -17t14 -43v-246
q0 -49 -49 -72q-70 -29 -179 -29zM412 -302q-19 0 -32 13.5t-10 34.5q11 84 12 151q0 20 15 34.5t37 14.5q25 0 39.5 -16t12.5 -38q-5 -92 -31 -166q-11 -28 -43 -28z" />
    <glyph glyph-name="uni0123" unicode="&#x123;" horiz-adv-x="639" 
d="M325 797q19 0 32 -13.5t10 -34.5q-12 -78 -13 -151q0 -21 -14.5 -35t-36.5 -14q-25 0 -39.5 16t-12.5 38q5 92 31 166q10 28 43 28zM289 -230q-50 0 -96 12.5t-68 29.5q-23 19 -23 47q0 21 13 33.5t36 12.5q16 0 57.5 -17.5t80.5 -17.5q70 0 113.5 38.5t43.5 121.5v24h-2
q-53 -70 -152 -70q-111 0 -177.5 73t-66.5 192q0 117 65.5 191.5t178.5 74.5q55 0 102 -26t71 -72h2v40q0 21 11.5 35.5t34.5 14.5q22 0 34 -14.5t12 -35.5l-1 -384q0 -146 -62 -224.5t-207 -78.5zM307 88q68 0 108 42.5t40 117.5t-39.5 119t-106.5 44q-66 0 -105.5 -44
t-39.5 -118t40 -117.5t103 -43.5z" />
    <glyph glyph-name="Hbar" unicode="&#x126;" horiz-adv-x="837" 
d="M752 634q20 0 35 -15t15 -36t-15 -35.5t-35 -14.5h-24v-480q0 -26 -14 -43.5t-42 -17.5t-42.5 17.5t-14.5 43.5v256h-389v-256q0 -26 -14 -43.5t-42 -17.5t-42.5 17.5t-14.5 43.5v480h-28q-21 0 -36 14.5t-15 35.5t15 36t36 15h28v33q0 26 14.5 43.5t42.5 17.5t42 -17.5
t14 -43.5v-33h389v33q0 26 14.5 43.5t42.5 17.5t42 -17.5t14 -43.5v-33h24zM614 411v122h-387v-122h387z" />
    <glyph glyph-name="hbar" unicode="&#x127;" horiz-adv-x="635" 
d="M355 515q102 0 155 -63t53 -184v-215q0 -26 -14 -43.5t-42 -17.5t-42.5 17.5t-14.5 43.5v205q0 153 -116 153q-63 0 -101.5 -41t-38.5 -110l-1 -207q0 -26 -14 -43.5t-42 -17.5t-42.5 17.5t-14.5 43.5v538h-55q-17 0 -28.5 10.5t-11.5 29.5t11.5 29.5t28.5 10.5h55v28
q0 26 14.5 43t42.5 17t42 -17t14 -43v-28h89q17 0 28.5 -10.5t11.5 -29.5t-11.5 -29.5t-28.5 -10.5h-89v-145h2q23 30 66 49.5t94 19.5z" />
    <glyph glyph-name="Itilde" unicode="&#x128;" horiz-adv-x="305" 
d="M65 955q40 0 73 -17.5t56.5 -35t39.5 -17.5q20 0 29.5 13.5t17.5 40.5q11 17 34 17q22 0 34 -15.5t12 -39.5q0 -49 -29 -84.5t-80 -35.5q-34 0 -66.5 19.5t-59.5 38.5t-47 19q-18 0 -29 -8.5t-14.5 -17.5t-7.5 -26q-8 -23 -36 -23q-22 0 -33.5 14t-11.5 35q0 51 31 87
t87 36zM153 -8q-28 0 -42.5 17.5t-14.5 43.5v614q0 26 14.5 43.5t42.5 17.5t42 -17.5t14 -43.5v-614q0 -26 -14 -43.5t-42 -17.5z" />
    <glyph glyph-name="itilde" unicode="&#x129;" horiz-adv-x="272" 
d="M47 742q40 0 73 -17.5t56.5 -35t39.5 -17.5q20 0 29.5 13.5t17.5 40.5q11 18 34 18q22 0 34 -16t12 -40q0 -49 -29 -84.5t-80 -35.5q-34 0 -67 19t-59.5 38.5t-46.5 19.5q-19 0 -30 -9t-14 -16.5t-7 -25.5q-7 -24 -36 -24q-22 0 -33.5 14t-11.5 35q0 51 31 87t87 36z
M136 -8q-28 0 -42 17.5t-14 43.5v393q0 26 14 43.5t42 17.5t42.5 -17.5t14.5 -43.5v-393q0 -26 -14.5 -43.5t-42.5 -17.5z" />
    <glyph glyph-name="Imacron" unicode="&#x12a;" horiz-adv-x="305" 
d="M290 822h-264q-20 0 -35 15t-15 36t15 36t35 15h264q20 0 35.5 -15t15.5 -37q0 -21 -15 -35.5t-36 -14.5zM153 -8q-28 0 -42.5 17.5t-14.5 43.5v614q0 26 14.5 43.5t42.5 17.5t42 -17.5t14 -43.5v-614q0 -26 -14 -43.5t-42 -17.5z" />
    <glyph glyph-name="imacron" unicode="&#x12b;" horiz-adv-x="272" 
d="M272 609h-264q-20 0 -35 15t-15 37q0 20 15 35t35 15h264q20 0 35 -15t15 -36t-15 -36t-35 -15zM136 -8q-28 0 -42 17.5t-14 43.5v393q0 26 14 43.5t42 17.5t42.5 -17.5t14.5 -43.5v-393q0 -26 -14.5 -43.5t-42.5 -17.5z" />
    <glyph glyph-name="Iogonek" unicode="&#x12e;" horiz-adv-x="308" 
d="M184 -177q18 0 29.5 -11.5t11.5 -30.5q0 -24 -21 -35q-19 -10 -52 -10q-58 0 -98.5 33.5t-40.5 101.5q0 92 90 157q-4 11 -4 25v614q0 26 14.5 43.5t42.5 17.5t42 -17.5t14 -43.5v-614q0 -42 -32 -57q-73 -56 -73 -120q0 -25 15 -39.5t42 -14.5q4 0 10.5 0.5t9.5 0.5z
" />
    <glyph glyph-name="iogonek" unicode="&#x12f;" horiz-adv-x="276" 
d="M140 582q-38 0 -62 23.5t-24 60.5q0 38 23.5 60t62.5 22q38 0 61 -22t23 -60t-23 -61t-61 -23zM165 -180q18 0 29.5 -11.5t11.5 -30.5q0 -24 -21 -35q-19 -10 -52 -10q-58 0 -98.5 33.5t-40.5 101.5q0 92 93 160q-4 9 -4 25v393q0 26 14.5 43.5t42.5 17.5t42 -17.5
t14 -43.5v-393q0 -42 -30 -55q-78 -60 -78 -125q0 -25 15 -39.5t42 -14.5q4 0 10.5 0.5t9.5 0.5z" />
    <glyph glyph-name="Idotaccent" unicode="&#x130;" horiz-adv-x="305" 
d="M154 795q-38 0 -62 23t-24 60q0 38 23.5 60.5t62.5 22.5q38 0 61 -22.5t23 -60.5t-23 -60.5t-61 -22.5zM153 -8q-28 0 -42.5 17.5t-14.5 43.5v614q0 26 14.5 43.5t42.5 17.5t42 -17.5t14 -43.5v-614q0 -26 -14 -43.5t-42 -17.5z" />
    <glyph glyph-name="dotlessi" unicode="&#x131;" horiz-adv-x="272" 
d="M136 -8q-28 0 -42 17.5t-14 43.5v393q0 26 14 43.5t42 17.5t42.5 -17.5t14.5 -43.5v-393q0 -26 -14.5 -43.5t-42.5 -17.5z" />
    <glyph glyph-name="IJ" unicode="&#x132;" horiz-adv-x="780" 
d="M153 -8q-28 0 -42.5 17.5t-14.5 43.5v614q0 26 14.5 43.5t42.5 17.5t42 -17.5t14 -43.5v-614q0 -26 -14 -43.5t-42 -17.5zM491 -16q-76 0 -122 30q-32 21 -32 53q0 18 12.5 31t34.5 13q15 0 45.5 -12.5t62.5 -12.5q84 0 84 153v430q0 23 16.5 39.5t39.5 16.5
q24 0 40.5 -16.5t16.5 -39.5v-435q0 -124 -47 -187t-151 -63z" />
    <glyph glyph-name="ij" unicode="&#x133;" horiz-adv-x="538" 
d="M136 582q-38 0 -62 23.5t-24 60.5q0 38 23.5 60t62.5 22q38 0 61 -22t23 -60t-23 -61t-61 -23zM401 582q-38 0 -62 23.5t-24 60.5q0 38 24 60t62 22t61 -22t23 -60t-22.5 -61t-61.5 -23zM136 -8q-28 0 -42 17.5t-14 43.5v393q0 26 14 43.5t42 17.5t42.5 -17.5t14.5 -43.5
v-393q0 -26 -14.5 -43.5t-42.5 -17.5zM299 -230q-71 0 -103 35q-15 18 -15 42q0 21 12 33.5t29 12.5q11 0 29 -8.5t36 -8.5q20 0 32 8t17 26t6.5 34t1.5 43v459q0 26 14.5 43.5t42.5 17.5t42 -17.5t14 -43.5v-473q0 -41 -7.5 -75t-24.5 -64t-49 -47t-77 -17z" />
    <glyph glyph-name="uni0136" unicode="&#x136;" horiz-adv-x="699" 
d="M153 -8q-28 0 -42.5 17.5t-14.5 43.5v614q0 26 14.5 43.5t42.5 17.5t42 -17.5t14 -43.5v-248h147l192 282q17 27 46 27q24 0 40 -17t16 -39q0 -20 -9 -32l-195 -272l211 -288q10 -13 10 -31q0 -23 -17.5 -40t-40.5 -17q-27 0 -45 27l-209 290h-146v-256q0 -26 -14 -43.5
t-42 -17.5zM343 -298q-19 0 -32 14t-10 35q12 78 13 150q0 21 14.5 35t36.5 14q25 0 39.5 -15.5t12.5 -37.5q-5 -92 -31 -166q-10 -29 -43 -29z" />
    <glyph glyph-name="uni0137" unicode="&#x137;" horiz-adv-x="549" 
d="M137 -8q-28 0 -42.5 17.5t-14.5 43.5v646q0 26 14.5 43t42.5 17t42 -17t14 -43v-390h81l130 173q20 25 44 25q22 0 37.5 -15.5t15.5 -36.5q0 -15 -10 -31l-131 -165l138 -180q11 -14 11 -33q0 -22 -15.5 -38t-37.5 -16q-28 0 -46 24l-144 194h-73v-157q0 -26 -14 -43.5
t-42 -17.5zM257 -298q-19 0 -32 14t-10 35q11 84 12 150q0 20 15 34.5t37 14.5q25 0 39.5 -15.5t12.5 -37.5q-5 -92 -31 -166q-12 -29 -43 -29z" />
    <glyph glyph-name="kgreenlandic" unicode="&#x138;" horiz-adv-x="548" 
d="M135 -8q-28 0 -42.5 17.5t-14.5 43.5v394q0 26 14.5 43t42.5 17t42 -17t14 -43v-138h82l129 173q20 25 44 25q22 0 37.5 -15.5t15.5 -36.5q0 -18 -10 -31l-130 -165l138 -180q11 -14 11 -33q0 -22 -16 -38t-38 -16q-28 0 -45 24l-144 194h-74v-157q0 -26 -14 -43.5
t-42 -17.5z" />
    <glyph glyph-name="Lacute" unicode="&#x139;" horiz-adv-x="544" 
d="M104 877l95 115q24 30 52 30q25 0 43 -17.5t18 -43.5q0 -31 -27 -55l-108 -98q-23 -19 -37 -19q-19 0 -34.5 13.5t-15.5 34.5q0 24 14 40zM471 -8h-316q-59 0 -59 59v620q0 23 16.5 40t40.5 17q23 0 39.5 -16.5t16.5 -39.5l2 -578h259q22 0 36.5 -14.5t14.5 -37.5
t-14 -36.5t-36 -13.5z" />
    <glyph glyph-name="lacute" unicode="&#x13a;" horiz-adv-x="275" 
d="M84 911l94 115q25 29 52 29q25 0 43 -17t18 -44q0 -30 -27 -54l-108 -99q-22 -18 -37 -18q-20 0 -35 13t-15 35q0 23 15 40zM138 -8q-28 0 -42.5 17.5t-14.5 43.5v646q0 26 14.5 43t42.5 17t42 -17t14 -43v-646q0 -26 -14 -43.5t-42 -17.5z" />
    <glyph glyph-name="uni013B" unicode="&#x13b;" horiz-adv-x="544" 
d="M471 -8h-316q-59 0 -59 59v620q0 23 16.5 40t40.5 17q23 0 39.5 -16.5t16.5 -39.5l2 -578h259q22 0 36.5 -14.5t14.5 -37.5t-14 -36.5t-36 -13.5zM290 -298q-19 0 -32 14t-10 35q11 84 12 150q0 20 15 34.5t37 14.5q25 0 39.5 -15.5t12.5 -37.5q-5 -92 -31 -166
q-12 -29 -43 -29z" />
    <glyph glyph-name="uni013C" unicode="&#x13c;" horiz-adv-x="275" 
d="M138 -8q-28 0 -42.5 17.5t-14.5 43.5v646q0 26 14.5 43t42.5 17t42 -17t14 -43v-646q0 -26 -14 -43.5t-42 -17.5zM114 -298q-18 0 -31.5 14t-10.5 35q12 78 13 150q0 21 14.5 35t36.5 14q25 0 39.5 -15.5t12.5 -37.5q-5 -92 -31 -166q-10 -29 -43 -29z" />
    <glyph glyph-name="Lcaron" unicode="&#x13d;" horiz-adv-x="562" 
d="M433 485q-19 0 -32 14t-10 35q11 84 12 150q0 20 15 34.5t37 14.5q25 0 39.5 -15.5t12.5 -37.5q-5 -92 -31 -166q-12 -29 -43 -29zM471 -8h-316q-59 0 -59 59v620q0 23 16.5 40t40.5 17q23 0 39.5 -16.5t16.5 -39.5l2 -578h259q22 0 36.5 -14.5t14.5 -37.5t-14 -36.5
t-36 -13.5z" />
    <glyph glyph-name="lcaron" unicode="&#x13e;" horiz-adv-x="320" 
d="M138 -8q-28 0 -42.5 17.5t-14.5 43.5v646q0 26 14.5 43t42.5 17t42 -17t14 -43v-646q0 -26 -14 -43.5t-42 -17.5zM290 511q-19 0 -32 14t-10 35q11 84 12 151q0 20 15 34t37 14q25 0 39.5 -15.5t12.5 -37.5q-5 -92 -31 -166q-12 -29 -43 -29z" />
    <glyph glyph-name="Ldot" unicode="&#x13f;" horiz-adv-x="577" 
d="M471 -8h-316q-59 0 -59 59v620q0 23 16.5 40t40.5 17q23 0 39.5 -16.5t16.5 -39.5l2 -578h259q22 0 36.5 -14.5t14.5 -37.5t-14 -36.5t-36 -13.5zM440 325q-38 0 -62 23t-24 61q0 37 23.5 59.5t62.5 22.5q38 0 61 -22.5t23 -59.5q0 -38 -23 -61t-61 -23z" />
    <glyph glyph-name="ldot" unicode="&#x140;" horiz-adv-x="368" 
d="M138 -8q-28 0 -42.5 17.5t-14.5 43.5v646q0 26 14.5 43t42.5 17t42 -17t14 -43v-646q0 -26 -14 -43.5t-42 -17.5zM315 295q-38 0 -62 23t-24 61q0 37 23.5 59.5t62.5 22.5q38 0 61 -22.5t23 -59.5q0 -38 -23 -61t-61 -23z" />
    <glyph glyph-name="Lslash" unicode="&#x141;" horiz-adv-x="611" 
d="M536 94q22 0 36.5 -14.5t14.5 -37.5t-14 -36.5t-35 -13.5h-317q-59 0 -59 59v239l-62 -26q-10 -6 -22 -6q-20 0 -34 14.5t-14 37.5q0 34 31 47l101 43v271q0 23 17 40t40 17t39.5 -16.5t16.5 -39.5l1 -225l89 38q13 5 23 5q21 0 34.5 -14t13.5 -37q0 -33 -31 -48
l-129 -54l1 -243h259z" />
    <glyph glyph-name="lslash" unicode="&#x142;" horiz-adv-x="391" 
d="M322 504q22 0 36.5 -15t14.5 -35q0 -32 -28 -46l-94 -46v-309q0 -26 -14 -43.5t-42 -17.5t-42.5 17.5t-14.5 43.5v254l-44 -22q-9 -5 -21 -5q-22 0 -37 15t-15 35q0 32 29 46l88 43v280q0 26 14.5 43t42.5 17t42 -17t14 -43v-224l48 24q9 5 23 5z" />
    <glyph glyph-name="Nacute" unicode="&#x143;" horiz-adv-x="801" 
d="M355 875l94 115q25 30 52 30q25 0 43 -17.5t18 -43.5q0 -31 -27 -55l-107 -98q-23 -19 -38 -19q-19 0 -34.5 13.5t-15.5 34.5t15 40zM153 -8q-28 0 -42.5 17.5t-14.5 43.5v603q0 35 15.5 53.5t41.5 18.5q27 0 46 -15.5t52 -62.5l341 -476h2l-2 493q0 26 14.5 43.5
t42.5 17.5t42 -17.5t14 -43.5v-603q0 -35 -16 -53.5t-44 -18.5q-27 0 -51 21.5t-71 88.5l-314 438h-2l2 -487q0 -26 -14 -43.5t-42 -17.5z" />
    <glyph glyph-name="nacute" unicode="&#x144;" 
d="M274 668l95 115q24 30 52 30q25 0 43 -17.5t18 -43.5q0 -31 -27 -55l-108 -98q-23 -19 -37 -19q-19 0 -34.5 13.5t-15.5 34.5q0 22 14 40zM135 -8q-28 0 -42.5 17.5t-14.5 43.5v404q0 21 12 35.5t35 14.5t34.5 -14.5t11.5 -35.5v-45h2q22 44 72 73.5t108 29.5
q102 0 155.5 -62t53.5 -184v-216q0 -26 -14.5 -43.5t-42.5 -17.5t-42 17.5t-14 43.5v207q0 153 -117 153q-62 0 -100.5 -43t-39.5 -114l-1 -203q0 -26 -14 -43.5t-42 -17.5z" />
    <glyph glyph-name="uni0145" unicode="&#x145;" horiz-adv-x="801" 
d="M153 -8q-28 0 -42.5 17.5t-14.5 43.5v603q0 35 15.5 53.5t41.5 18.5q27 0 46 -15.5t52 -62.5l341 -476h2l-2 493q0 26 14.5 43.5t42.5 17.5t42 -17.5t14 -43.5v-603q0 -35 -16 -53.5t-44 -18.5q-27 0 -51 21.5t-71 88.5l-314 438h-2l2 -487q0 -26 -14 -43.5t-42 -17.5z
M364 -298q-19 0 -32 14t-10 35q11 84 12 150q0 20 15 34.5t37 14.5q25 0 39.5 -15.5t12.5 -37.5q-5 -92 -31 -166q-12 -29 -43 -29z" />
    <glyph glyph-name="uni0146" unicode="&#x146;" 
d="M135 -8q-28 0 -42.5 17.5t-14.5 43.5v404q0 21 12 35.5t35 14.5t34.5 -14.5t11.5 -35.5v-45h2q22 44 72 73.5t108 29.5q102 0 155.5 -62t53.5 -184v-216q0 -26 -14.5 -43.5t-42.5 -17.5t-42 17.5t-14 43.5v207q0 153 -117 153q-62 0 -100.5 -43t-39.5 -114l-1 -203
q0 -26 -14 -43.5t-42 -17.5zM299 -298q-19 0 -32 14t-10 35q11 84 12 151q0 20 15 34t37 14q25 0 39.5 -15.5t12.5 -37.5q-5 -92 -31 -166q-12 -29 -43 -29z" />
    <glyph glyph-name="Ncaron" unicode="&#x147;" horiz-adv-x="801" 
d="M410 769q-41 0 -105 64l-50 50q-21 19 -21 42q0 21 14 36t35 15q19 0 33 -14l94 -93h2l93 94q16 13 34 13q21 0 34.5 -15t13.5 -36t-22 -42l-52 -55q-61 -59 -103 -59zM153 -8q-28 0 -42.5 17.5t-14.5 43.5v603q0 35 15.5 53.5t41.5 18.5q27 0 46 -15.5t52 -62.5
l341 -476h2l-2 493q0 26 14.5 43.5t42.5 17.5t42 -17.5t14 -43.5v-603q0 -35 -16 -53.5t-44 -18.5q-27 0 -51 21.5t-71 88.5l-314 438h-2l2 -487q0 -26 -14 -43.5t-42 -17.5z" />
    <glyph glyph-name="ncaron" unicode="&#x148;" 
d="M330 562q-39 0 -105 64l-50 50q-21 18 -21 43q0 21 14 35.5t34 14.5q19 0 34 -14l93 -92h2l94 93q14 13 34 13t34 -14.5t14 -36.5q0 -21 -23 -42l-51 -55q-61 -59 -103 -59zM135 -8q-28 0 -42.5 17.5t-14.5 43.5v404q0 21 12 35.5t35 14.5t34.5 -14.5t11.5 -35.5v-45h2
q22 44 72 73.5t108 29.5q102 0 155.5 -62t53.5 -184v-216q0 -26 -14.5 -43.5t-42.5 -17.5t-42 17.5t-14 43.5v207q0 153 -117 153q-62 0 -100.5 -43t-39.5 -114l-1 -203q0 -26 -14 -43.5t-42 -17.5z" />
    <glyph glyph-name="napostrophe" unicode="&#x149;" horiz-adv-x="711" 
d="M74 512q-18 0 -31.5 13.5t-10.5 34.5q12 78 13 151q0 21 14.5 35t36.5 14q25 0 39.5 -16t12.5 -38q-5 -92 -31 -166q-10 -28 -43 -28zM213 -8q-28 0 -42.5 17.5t-14.5 43.5v404q0 21 12 35.5t35 14.5t34.5 -14.5t11.5 -35.5v-45h2q21 44 71.5 73.5t108.5 29.5
q102 0 155 -62t53 -184v-216q0 -26 -14 -43.5t-42 -17.5t-42.5 17.5t-14.5 43.5v207q0 153 -116 153q-63 0 -101.5 -43t-38.5 -114l-1 -203q0 -26 -14 -43.5t-42 -17.5z" />
    <glyph glyph-name="Eng" unicode="&#x14a;" horiz-adv-x="803" 
d="M96 53v603q0 35 15.5 53.5t41.5 18.5q27 0 46 -15.5t52 -62.5l341 -476h2l-2 493q0 26 14.5 43.5t42.5 17.5t42 -17.5t14 -43.5v-675q0 -222 -175 -222q-78 0 -121 31q-26 18 -26 48q0 18 12.5 31t34.5 13q14 0 39 -9.5t57 -9.5q75 0 75 100q0 7 -2 14t-5 13.5t-11 18
t-14.5 20.5t-20.5 28t-25 34l-314 438h-2l2 -487q0 -26 -14 -43.5t-42 -17.5t-42.5 17.5t-14.5 43.5z" />
    <glyph glyph-name="eng" unicode="&#x14b;" horiz-adv-x="635" 
d="M192 256l-1 -203q0 -26 -14 -43.5t-42 -17.5t-42.5 17.5t-14.5 43.5v404q0 21 12 35.5t35 14.5t34.5 -14.5t11.5 -35.5v-45h2q22 44 72 73.5t108 29.5q102 0 155.5 -62t53.5 -184v-328q0 -161 -109 -171q-28 -1 -46.5 16.5t-18.5 40.5q0 35 30 56q31 18 31 63v314
q0 153 -117 153q-62 0 -100.5 -43t-39.5 -114z" />
    <glyph glyph-name="Omacron" unicode="&#x14c;" horiz-adv-x="843" 
d="M557 837h-264q-21 0 -36 15t-15 36t15.5 36t35.5 15h264q20 0 35 -15t15 -37q0 -21 -15 -35.5t-35 -14.5zM421 -16q-166 0 -267 106t-101 270q0 165 101 270t267 105q167 0 268 -105t101 -270t-101 -270.5t-268 -105.5zM421 86q117 0 184.5 74t67.5 200q0 124 -68 199
t-185 75q-115 0 -183 -75t-68 -199q0 -126 69 -200t183 -74z" />
    <glyph glyph-name="omacron" unicode="&#x14d;" horiz-adv-x="632" 
d="M452 615h-263q-21 0 -36 15t-15 37q0 21 15 36t36 15h263q20 0 35.5 -15t15.5 -37q0 -21 -15.5 -36t-35.5 -15zM317 -16q-123 0 -196.5 72.5t-73.5 193.5t73.5 193t196.5 72q122 0 195 -72t73 -193t-73 -193.5t-195 -72.5zM317 85q69 0 110.5 44.5t41.5 120.5
q0 75 -42 119t-112 44q-68 0 -109.5 -44t-41.5 -119t42.5 -120t110.5 -45z" />
    <glyph glyph-name="Ohungarumlaut" unicode="&#x150;" horiz-adv-x="843" 
d="M333 781q-22 0 -38.5 16t-16.5 40q0 22 12 41l54 99q22 39 56 39q27 0 46.5 -19t19.5 -46q0 -23 -14 -42l-66 -95q-27 -33 -53 -33zM540 781q-23 0 -39 16t-16 40q0 21 11 41l54 99q24 39 57 39q27 0 46 -19t19 -46q0 -23 -14 -42l-66 -95q-25 -33 -52 -33zM421 -16
q-166 0 -267 106t-101 270q0 165 101 270t267 105q167 0 268 -105t101 -270t-101 -270.5t-268 -105.5zM421 86q117 0 184.5 74t67.5 200q0 124 -68 199t-185 75q-115 0 -183 -75t-68 -199q0 -126 69 -200t183 -74z" />
    <glyph glyph-name="ohungarumlaut" unicode="&#x151;" horiz-adv-x="632" 
d="M229 560q-23 0 -39 16t-16 40q0 19 11 41l54 99q24 39 57 39q27 0 46 -19t19 -46q0 -23 -14 -42l-66 -96q-26 -32 -52 -32zM435 560q-23 0 -39 16t-16 40q0 20 12 41l54 99q22 39 56 39q27 0 46.5 -19t19.5 -46q0 -23 -14 -42l-67 -96q-26 -32 -52 -32zM317 -16
q-123 0 -196.5 72.5t-73.5 193.5t73.5 193t196.5 72q122 0 195 -72t73 -193t-73 -193.5t-195 -72.5zM317 85q69 0 110.5 44.5t41.5 120.5q0 75 -42 119t-112 44q-68 0 -109.5 -44t-41.5 -119t42.5 -120t110.5 -45z" />
    <glyph glyph-name="OE" unicode="&#x152;" horiz-adv-x="1167" 
d="M1067 94q22 0 36.5 -14.5t14.5 -37.5t-14 -36.5t-35 -13.5h-333q-58 0 -58 59v28q-100 -95 -257 -95q-166 0 -267 106t-101 270q0 165 101 270t267 105q157 0 257 -94v29q0 58 58 58h330q22 0 36.5 -14t14.5 -37t-14 -36.5t-36 -13.5h-278l1 -216h244q22 0 36.5 -14
t14.5 -38q0 -23 -14 -36.5t-36 -13.5h-245l1 -215h276zM421 86q117 0 184.5 74t67.5 200q0 124 -68 199t-185 75q-115 0 -183 -75t-68 -199q0 -126 69 -200t183 -74z" />
    <glyph glyph-name="oe" unicode="&#x153;" horiz-adv-x="1000" 
d="M954 283q0 -37 -14.5 -54t-49.5 -17h-302q0 -53 42.5 -89.5t122.5 -36.5q42 0 80.5 14.5t51.5 14.5q22 0 34.5 -13t12.5 -32q0 -31 -31 -52q-52 -34 -148 -34q-151 0 -225 90q-74 -90 -211 -90q-123 0 -196.5 72.5t-73.5 193.5t73.5 193t196.5 72q136 0 210 -88
q69 88 194 88q110 0 171.5 -63.5t61.5 -168.5zM838 290q1 5 1 18q0 49 -30.5 80t-89.5 31q-57 0 -94.5 -37.5t-37.5 -91.5h251zM317 85q69 0 110.5 44.5t41.5 120.5q0 75 -42 119t-112 44q-68 0 -109.5 -44t-41.5 -119t42.5 -120t110.5 -45z" />
    <glyph glyph-name="Racute" unicode="&#x154;" horiz-adv-x="690" 
d="M297 873l95 115q23 30 52 30q25 0 42.5 -17t17.5 -44q0 -32 -27 -54l-107 -99q-23 -19 -38 -19q-19 0 -34 13.5t-15 35.5q0 23 14 39zM153 -8q-28 0 -42.5 17.5t-14.5 43.5v617q0 58 59 58h199q131 0 205.5 -55.5t74.5 -176.5q0 -86 -40 -141.5t-103 -75.5l112 -187
q17 -26 17 -48t-19 -37t-42 -15q-28 0 -56 46l-137 227h-157v-212q0 -26 -14 -43.5t-42 -17.5zM209 630v-268h183q60 0 96.5 37t36.5 97q0 68 -45 101t-121 33h-150z" />
    <glyph glyph-name="racute" unicode="&#x155;" horiz-adv-x="381" 
d="M161 654l94 115q24 30 52 30q25 0 43 -17t18 -44q0 -32 -27 -54l-107 -99q-23 -19 -38 -19q-19 0 -34 13.5t-15 35.5q0 23 14 39zM135 -8q-28 0 -42.5 17.5t-14.5 43.5v404q0 21 12 35.5t35 14.5q46 0 46 -40v-44h2q21 39 59 65t81 27q26 0 39.5 -15t13.5 -37
q0 -21 -13.5 -36.5t-39.5 -15.5q-55 -2 -88 -36.5t-33 -96.5l-1 -225q0 -26 -14 -43.5t-42 -17.5z" />
    <glyph glyph-name="uni0156" unicode="&#x156;" horiz-adv-x="690" 
d="M153 -8q-28 0 -42.5 17.5t-14.5 43.5v617q0 58 59 58h199q131 0 205.5 -55.5t74.5 -176.5q0 -86 -40 -141.5t-103 -75.5l112 -187q17 -26 17 -48t-19 -37t-42 -15q-28 0 -56 46l-137 227h-157v-212q0 -26 -14 -43.5t-42 -17.5zM209 630v-268h183q60 0 96.5 37t36.5 97
q0 68 -45 101t-121 33h-150zM332 -298q-19 0 -32 14t-10 35q11 84 12 150q0 20 15 34.5t37 14.5q25 0 39.5 -15.5t12.5 -37.5q-5 -92 -31 -166q-12 -29 -43 -29z" />
    <glyph glyph-name="uni0157" unicode="&#x157;" horiz-adv-x="381" 
d="M135 -8q-28 0 -42.5 17.5t-14.5 43.5v404q0 21 12 35.5t35 14.5q46 0 46 -40v-44h2q21 39 59 65t81 27q26 0 39.5 -15t13.5 -37q0 -21 -13.5 -36.5t-39.5 -15.5q-55 -2 -88 -36.5t-33 -96.5l-1 -225q0 -26 -14 -43.5t-42 -17.5zM110 -298q-18 0 -31.5 14t-10.5 35
q12 78 13 150q0 21 14.5 35t36.5 14q25 0 39.5 -15.5t12.5 -37.5q-5 -92 -31 -166q-10 -29 -43 -29z" />
    <glyph glyph-name="Rcaron" unicode="&#x158;" horiz-adv-x="690" 
d="M350 768q-40 0 -105 63l-50 51q-21 17 -21 42q0 21 14 36t35 15q18 0 33 -15l94 -92h2l93 93q15 14 34 14q20 0 34 -15t14 -36q0 -20 -23 -43l-51 -54q-59 -59 -103 -59zM153 -8q-28 0 -42.5 17.5t-14.5 43.5v617q0 58 59 58h199q131 0 205.5 -55.5t74.5 -176.5
q0 -86 -40 -141.5t-103 -75.5l112 -187q17 -26 17 -48t-19 -37t-42 -15q-28 0 -56 46l-137 227h-157v-212q0 -26 -14 -43.5t-42 -17.5zM209 630v-268h183q60 0 96.5 37t36.5 97q0 68 -45 101t-121 33h-150z" />
    <glyph glyph-name="rcaron" unicode="&#x159;" horiz-adv-x="381" 
d="M217 549q-41 0 -106 63l-50 51q-20 17 -20 42q0 21 13.5 36t34.5 15q19 0 34 -15l93 -92h2l94 93q14 14 33 14q21 0 34.5 -15t13.5 -36t-22 -43l-52 -54q-59 -59 -102 -59zM135 -8q-28 0 -42.5 17.5t-14.5 43.5v404q0 21 12 35.5t35 14.5q46 0 46 -40v-44h2q21 39 59 65
t81 27q26 0 39.5 -15t13.5 -37q0 -21 -13.5 -36.5t-39.5 -15.5q-55 -2 -88 -36.5t-33 -96.5l-1 -225q0 -26 -14 -43.5t-42 -17.5z" />
    <glyph glyph-name="Sacute" unicode="&#x15a;" horiz-adv-x="627" 
d="M259 890l94 115q25 30 52 30q25 0 43 -17.5t18 -43.5q0 -32 -27 -55l-107 -98q-23 -19 -38 -19q-19 0 -34.5 13.5t-15.5 34.5t15 40zM580 201q0 -103 -75 -160.5t-194 -57.5q-129 0 -221 55q-41 26 -41 58q0 25 16 38t41 12q11 -2 80.5 -30t122.5 -28q72 0 109.5 29.5
t37.5 73.5q0 21 -11 39t-24 29.5t-41.5 24.5t-46 19t-55.5 19l-18 6q-101 34 -150 80t-49 131q0 89 71 142.5t195 53.5q131 0 197 -45q30 -21 30 -51q0 -23 -14.5 -35.5t-39.5 -12.5q-16 0 -71.5 21.5t-108.5 21.5q-62 0 -98.5 -25t-36.5 -68q0 -39 30 -61.5t90 -42.5
q40 -12 59 -18.5t51.5 -18t48.5 -20.5t38.5 -23t33.5 -28.5t23 -33.5t16.5 -42.5t4.5 -51.5z" />
    <glyph glyph-name="sacute" unicode="&#x15b;" horiz-adv-x="517" 
d="M210 669l95 115q24 30 52 30q25 0 43 -17t18 -44q0 -31 -27 -54l-108 -99q-23 -19 -37 -19q-19 0 -34.5 13.5t-15.5 35.5q0 23 14 39zM258 -16q-123 0 -187 47q-29 21 -29 53q0 20 12.5 31t33.5 10q12 -2 68 -25.5t104 -23.5q103 0 103 58q0 22 -19 37t-42 22t-66 16
q-38 8 -66 18.5t-56 28t-43 45.5t-15 66q0 68 54.5 108t150.5 40q92 0 152 -37q33 -19 33 -47q0 -29 -19.5 -39t-48.5 -2q-8 2 -29 11t-44.5 15t-48.5 6q-88 0 -88 -52q0 -11 3.5 -19.5t13.5 -15t19 -11t27.5 -9.5t30.5 -8t37 -8q30 -7 50.5 -12.5t46.5 -18t41.5 -27.5
t26.5 -40t11 -57q0 -69 -51 -114.5t-166 -45.5z" />
    <glyph glyph-name="Scedilla" unicode="&#x15e;" horiz-adv-x="627" 
d="M580 201q0 -91 -60 -147t-159 -68l-6 -20q4 0 11 -1.5t24.5 -9t31 -18t24.5 -32t11 -49.5q0 -50 -36.5 -83t-104.5 -33q-47 0 -82 21q-28 15 -28 42q0 20 11.5 31t26.5 11q8 0 28 -9.5t36 -9.5q51 0 51 44q0 42 -61 42q-21 1 -28.5 8.5t-2.5 31.5l9 32q-110 9 -186 54
q-41 26 -41 58q0 25 16 38t41 12q11 -2 80.5 -30t122.5 -28q72 0 109.5 29.5t37.5 73.5q0 21 -11 39t-24 29.5t-41.5 24.5t-46 19t-55.5 19l-18 6q-101 34 -150 80t-49 131q0 89 71 142.5t195 53.5q131 0 197 -45q30 -21 30 -51q0 -23 -14.5 -35.5t-39.5 -12.5
q-16 0 -71.5 21.5t-108.5 21.5q-62 0 -98.5 -25t-36.5 -68q0 -39 30 -61.5t90 -42.5q40 -12 59 -18.5t51.5 -18t48.5 -20.5t38.5 -23t33.5 -28.5t23 -33.5t16.5 -42.5t4.5 -51.5z" />
    <glyph glyph-name="scedilla" unicode="&#x15f;" horiz-adv-x="517" 
d="M475 144q0 -61 -40.5 -105t-131.5 -53l-7 -22q4 0 11 -1.5t24.5 -9t31 -18t24.5 -32t11 -49.5q0 -50 -36.5 -83t-104.5 -33q-47 0 -82 21q-28 15 -28 42q0 20 11.5 31t26.5 11q8 0 28 -9.5t36 -9.5q51 0 51 44q0 42 -61 42q-21 1 -28.5 8.5t-2.5 31.5l10 36
q-97 8 -147 45q-29 21 -29 53q0 20 12.5 31t33.5 10q12 -2 68 -25.5t104 -23.5q103 0 103 58q0 22 -19 37t-42 22t-66 16q-38 8 -66 18.5t-56 28t-43 45.5t-15 66q0 68 54.5 108t150.5 40q92 0 152 -37q33 -19 33 -47q0 -29 -19.5 -39t-48.5 -2q-8 2 -29 11t-44.5 15
t-48.5 6q-88 0 -88 -52q0 -11 3.5 -19.5t13.5 -15t19 -11t27.5 -9.5t30.5 -8t37 -8q30 -7 50.5 -12.5t46.5 -18t41.5 -27.5t26.5 -40t11 -57z" />
    <glyph glyph-name="Scaron" unicode="&#x160;" horiz-adv-x="627" 
d="M314 784q-41 0 -105 64l-50 50q-21 19 -21 42q0 21 14 36t35 15q19 0 33 -14l94 -93h2l94 94q14 13 33 13q21 0 34.5 -15t13.5 -36t-22 -42l-52 -55q-61 -59 -103 -59zM580 201q0 -103 -75 -160.5t-194 -57.5q-129 0 -221 55q-41 26 -41 58q0 25 16 38t41 12
q11 -2 80.5 -30t122.5 -28q72 0 109.5 29.5t37.5 73.5q0 21 -11 39t-24 29.5t-41.5 24.5t-46 19t-55.5 19l-18 6q-101 34 -150 80t-49 131q0 89 71 142.5t195 53.5q131 0 197 -45q30 -21 30 -51q0 -23 -14.5 -35.5t-39.5 -12.5q-16 0 -71.5 21.5t-108.5 21.5
q-62 0 -98.5 -25t-36.5 -68q0 -39 30 -61.5t90 -42.5q40 -12 59 -18.5t51.5 -18t48.5 -20.5t38.5 -23t33.5 -28.5t23 -33.5t16.5 -42.5t4.5 -51.5z" />
    <glyph glyph-name="scaron" unicode="&#x161;" horiz-adv-x="517" 
d="M266 564q-40 0 -105 63l-50 51q-21 17 -21 42q0 21 14 36t34 15q19 0 34 -15l93 -92h2l94 93q15 14 34 14q20 0 34 -15t14 -36q0 -20 -23 -43l-51 -54q-59 -59 -103 -59zM258 -16q-123 0 -187 47q-29 21 -29 53q0 20 12.5 31t33.5 10q12 -2 68 -25.5t104 -23.5
q103 0 103 58q0 22 -19 37t-42 22t-66 16q-38 8 -66 18.5t-56 28t-43 45.5t-15 66q0 68 54.5 108t150.5 40q92 0 152 -37q33 -19 33 -47q0 -29 -19.5 -39t-48.5 -2q-8 2 -29 11t-44.5 15t-48.5 6q-88 0 -88 -52q0 -11 3.5 -19.5t13.5 -15t19 -11t27.5 -9.5t30.5 -8t37 -8
q30 -7 50.5 -12.5t46.5 -18t41.5 -27.5t26.5 -40t11 -57q0 -69 -51 -114.5t-166 -45.5z" />
    <glyph glyph-name="uni0162" unicode="&#x162;" 
d="M565 728q20 0 35.5 -15t15.5 -36t-14.5 -35.5t-35.5 -14.5h-191l-2 -574q0 -30 -17 -47l-11 -35q4 0 11 -1.5t24.5 -9t31 -18t24.5 -32t11 -49.5q0 -50 -36.5 -83t-104.5 -33q-48 0 -83 21q-28 16 -28 42q0 20 12 30.5t27 10.5q7 0 27 -9t37 -9q50 0 50 44q0 42 -61 42
q-20 0 -28 8t-3 32l12 40q1 3 2.5 8t2.5 7q-13 16 -13 41l-1 574h-192q-21 0 -35 14.5t-14 35.5t15 36t35 15h497z" />
    <glyph glyph-name="uni0163" unicode="&#x163;" horiz-adv-x="411" 
d="M375 18q-29 -32 -96 -35l-7 -23q4 0 11 -1.5t24.5 -9t30.5 -18t24 -32t11 -49.5q0 -50 -36.5 -83t-104.5 -33q-47 0 -82 21q-28 16 -28 42q0 20 11.5 30.5t26.5 10.5q8 0 28 -9t36 -9q51 0 51 44q0 42 -61 42q-20 0 -28 8t-3 32l11 40l3 11q-90 40 -90 189v214h-39
q-20 0 -35 14.5t-15 35.5q0 20 15 35t35 15h42q3 43 15 79q19 44 51 44q44 0 44 -48v-75h101q20 0 34.5 -15t14.5 -35q0 -21 -14.5 -35.5t-34.5 -14.5h-101v-200q0 -28 1.5 -43.5t7 -33.5t18.5 -26t34 -8q19 0 38.5 9t30.5 9q16 0 28 -13t12 -33q0 -25 -15 -43z" />
    <glyph glyph-name="Tcaron" unicode="&#x164;" 
d="M319 769q-41 0 -105 64l-50 50q-21 18 -21 42q0 21 14 36t34 15q19 0 34 -14l93 -93h2l94 94q16 13 34 13q20 0 34 -15t14 -36t-23 -42l-51 -55q-61 -59 -103 -59zM317 -8q-28 0 -42.5 17.5t-14.5 43.5l-1 574h-192q-21 0 -35 14.5t-14 35.5t15 36t35 15h497
q20 0 35.5 -15t15.5 -36t-14.5 -35.5t-35.5 -14.5h-191l-2 -574q0 -26 -14 -43.5t-42 -17.5z" />
    <glyph glyph-name="tcaron" unicode="&#x165;" horiz-adv-x="411" 
d="M350 792q25 0 39.5 -15.5t12.5 -37.5q-5 -92 -31 -166q-12 -29 -43 -29q-19 0 -32 14t-10 35q10 70 12 151q0 20 15 34t37 14zM350 107q16 0 28 -13t12 -33q0 -25 -15 -43q-31 -35 -106 -35q-61 0 -99 31t-50.5 73.5t-12.5 98.5v214h-39q-20 0 -35 14.5t-15 35.5
q0 20 15 35t35 15h42q3 43 15 79q19 44 51 44q44 0 44 -48v-75h101q20 0 34.5 -15t14.5 -35q0 -21 -14.5 -35.5t-34.5 -14.5h-101v-200q0 -28 1.5 -43.5t7 -33.5t18.5 -26t34 -8q19 0 38.5 9t30.5 9z" />
    <glyph glyph-name="Tbar" unicode="&#x166;" horiz-adv-x="648" 
d="M572 728q21 0 36 -15t15 -36t-14.5 -35.5t-34.5 -14.5h-192v-228h101q22 0 36.5 -14t14.5 -37t-14.5 -37t-36.5 -14h-102v-244q0 -26 -14 -43.5t-42 -17.5t-42.5 17.5t-14.5 43.5l-1 244h-103q-22 0 -36.5 14t-14.5 37t14.5 37t36.5 14h103l-1 228h-191q-21 0 -35.5 14.5
t-14.5 35.5t15 36t36 15h496z" />
    <glyph glyph-name="tbar" unicode="&#x167;" horiz-adv-x="416" 
d="M348 107q17 0 29 -13t12 -33q0 -24 -16 -43q-30 -35 -102 -35q-45 0 -77 17t-49 47t-24.5 64t-7.5 75v62h-47q-17 0 -29 12t-12 29t12 28.5t29 11.5h47v71h-37q-20 0 -34.5 14t-14.5 36t14.5 36t34.5 14h40q3 43 15 79q19 44 51 44q44 0 44 -48v-75h92q21 0 35 -14
t14 -36t-14 -36t-35 -14h-92v-71h103q16 0 28 -11.5t12 -28.5t-12 -29t-28 -12h-103v-48q0 -27 1.5 -43t6.5 -34t17 -26t32 -8q18 0 36 9t29 9z" />
    <glyph glyph-name="Utilde" unicode="&#x168;" horiz-adv-x="786" 
d="M303 955q40 0 73 -17.5t56.5 -35t38.5 -17.5q20 0 30 13.5t17 40.5q11 17 35 17q22 0 33.5 -15.5t11.5 -39.5q0 -49 -29 -84.5t-79 -35.5q-34 0 -67 19.5t-60 38.5t-47 19q-18 0 -29 -8.5t-14.5 -17.5t-6.5 -26q-10 -23 -36 -23q-22 0 -34 14t-12 35q0 51 31.5 87
t87.5 36zM393 -16q-151 0 -228 83t-77 226v374q0 26 14.5 43.5t42.5 17.5t42 -17.5t14 -43.5v-375q0 -95 47 -151t145 -56t145 56t47 151v375q0 26 14.5 43.5t42.5 17.5t42 -17.5t14 -43.5v-374q0 -142 -77 -225.5t-228 -83.5z" />
    <glyph glyph-name="utilde" unicode="&#x169;" 
d="M228 734q40 0 73 -17.5t56.5 -35t38.5 -17.5q20 0 30 13.5t17 40.5q11 18 35 18q21 0 33 -16t12 -40q0 -49 -29 -84.5t-79 -35.5q-34 0 -67 19t-60 38.5t-47 19.5q-18 0 -29 -8.5t-14.5 -17.5t-6.5 -25q-9 -24 -36 -24q-22 0 -34 14t-12 35q0 51 31.5 87t87.5 36z
M283 -16q-103 0 -157 62.5t-54 184.5v215q0 26 14 43.5t42 17.5t42.5 -17.5t14.5 -43.5v-205q0 -155 118 -155q62 0 99.5 43t38.5 114l1 203q0 26 14 43.5t42 17.5t42.5 -17.5t14.5 -43.5v-404q0 -21 -12.5 -35.5t-34.5 -14.5q-23 0 -35.5 14.5t-12.5 35.5v43h-2
q-22 -44 -70 -72.5t-105 -28.5z" />
    <glyph glyph-name="Umacron" unicode="&#x16a;" horiz-adv-x="786" 
d="M527 822h-263q-21 0 -36 14.5t-15 36.5q0 21 15 36t36 15h263q21 0 36 -15t15 -37q0 -21 -15 -35.5t-36 -14.5zM393 -16q-151 0 -228 83t-77 226v374q0 26 14.5 43.5t42.5 17.5t42 -17.5t14 -43.5v-375q0 -95 47 -151t145 -56t145 56t47 151v375q0 26 14.5 43.5
t42.5 17.5t42 -17.5t14 -43.5v-374q0 -142 -77 -225.5t-228 -83.5z" />
    <glyph glyph-name="umacron" unicode="&#x16b;" 
d="M448 601h-263q-21 0 -36 15t-15 37q0 20 15 35t36 15h263q20 0 35.5 -15t15.5 -36t-15.5 -36t-35.5 -15zM283 -16q-103 0 -157 62.5t-54 184.5v215q0 26 14 43.5t42 17.5t42.5 -17.5t14.5 -43.5v-205q0 -155 118 -155q62 0 99.5 43t38.5 114l1 203q0 26 14 43.5t42 17.5
t42.5 -17.5t14.5 -43.5v-404q0 -21 -12.5 -35.5t-34.5 -14.5q-23 0 -35.5 14.5t-12.5 35.5v43h-2q-22 -44 -70 -72.5t-105 -28.5z" />
    <glyph glyph-name="Uring" unicode="&#x16e;" horiz-adv-x="786" 
d="M392 777q-50 0 -83 29.5t-33 81.5q0 53 33 82.5t83 29.5t84 -29.5t34 -82.5q0 -52 -34 -81.5t-84 -29.5zM392 848q17 0 28.5 11t11.5 29t-11.5 29t-28.5 11t-28 -11t-11 -29t11 -29t28 -11zM393 -16q-151 0 -228 83t-77 226v374q0 26 14.5 43.5t42.5 17.5t42 -17.5
t14 -43.5v-375q0 -95 47 -151t145 -56t145 56t47 151v375q0 26 14.5 43.5t42.5 17.5t42 -17.5t14 -43.5v-374q0 -142 -77 -225.5t-228 -83.5z" />
    <glyph glyph-name="uring" unicode="&#x16f;" 
d="M313 556q-50 0 -83 29.5t-33 82.5q0 52 33.5 82t82.5 30t83 -30t34 -82q0 -53 -33.5 -82.5t-83.5 -29.5zM313 628q17 0 28.5 11t11.5 29t-11.5 29t-28.5 11t-28 -11t-11 -29t11 -29t28 -11zM283 -16q-103 0 -157 62.5t-54 184.5v215q0 26 14 43.5t42 17.5t42.5 -17.5
t14.5 -43.5v-205q0 -155 118 -155q62 0 99.5 43t38.5 114l1 203q0 26 14 43.5t42 17.5t42.5 -17.5t14.5 -43.5v-404q0 -21 -12.5 -35.5t-34.5 -14.5q-23 0 -35.5 14.5t-12.5 35.5v43h-2q-22 -44 -70 -72.5t-105 -28.5z" />
    <glyph glyph-name="Uhungarumlaut" unicode="&#x170;" horiz-adv-x="786" 
d="M304 766q-23 0 -39 16t-16 40q0 22 12 41l54 99q22 39 56 39q27 0 46.5 -19t19.5 -46q0 -24 -15 -42l-66 -95q-25 -33 -52 -33zM511 766q-23 0 -39 16t-16 40q0 21 11 41l54 99q22 39 57 39q27 0 46 -19t19 -46q0 -23 -14 -42l-66 -95q-25 -33 -52 -33zM393 -16
q-151 0 -228 83t-77 226v374q0 26 14.5 43.5t42.5 17.5t42 -17.5t14 -43.5v-375q0 -95 47 -151t145 -56t145 56t47 151v375q0 26 14.5 43.5t42.5 17.5t42 -17.5t14 -43.5v-374q0 -142 -77 -225.5t-228 -83.5z" />
    <glyph glyph-name="uhungarumlaut" unicode="&#x171;" 
d="M217 546q-22 0 -38.5 16t-16.5 39q0 21 12 42l54 99q22 39 56 39q27 0 46.5 -19.5t19.5 -46.5q0 -22 -14 -41l-66 -96q-26 -32 -53 -32zM424 546q-23 0 -39 16t-16 39q0 20 11 42l54 99q24 39 57 39q27 0 46 -19.5t19 -46.5q0 -22 -14 -41l-66 -96q-24 -32 -52 -32z
M283 -16q-103 0 -157 62.5t-54 184.5v215q0 26 14 43.5t42 17.5t42.5 -17.5t14.5 -43.5v-205q0 -155 118 -155q62 0 99.5 43t38.5 114l1 203q0 26 14 43.5t42 17.5t42.5 -17.5t14.5 -43.5v-404q0 -21 -12.5 -35.5t-34.5 -14.5q-23 0 -35.5 14.5t-12.5 35.5v43h-2
q-22 -44 -70 -72.5t-105 -28.5z" />
    <glyph glyph-name="Uogonek" unicode="&#x172;" horiz-adv-x="786" 
d="M642 728q28 0 42 -17.5t14 -43.5v-374q0 -124 -59 -204t-174 -99q-4 -4 -6 -5q-83 -60 -83 -128q0 -25 15 -39.5t42 -14.5q4 0 10.5 0.5t9.5 0.5q18 0 29.5 -11.5t11.5 -30.5q0 -24 -21 -35q-19 -10 -52 -10q-58 0 -98.5 33.5t-40.5 101.5q0 76 62 134q-127 14 -191.5 95
t-64.5 212v374q0 26 14.5 43.5t42.5 17.5t42 -17.5t14 -43.5v-375q0 -95 47 -151t145 -56t145 56t47 151v375q0 26 14.5 43.5t42.5 17.5z" />
    <glyph glyph-name="uogonek" unicode="&#x173;" 
d="M530 -180q17 1 29 -11t12 -31q0 -24 -22 -35q-19 -10 -52 -10q-57 0 -97.5 34t-40.5 101q0 99 102 166q-1 3 -1 8v43h-2q-22 -44 -70 -72.5t-105 -28.5q-103 0 -157 62.5t-54 184.5v215q0 26 14 43.5t42 17.5t42.5 -17.5t14.5 -43.5v-205q0 -155 118 -155q62 0 99.5 43
t38.5 114l1 203q0 26 14 43.5t42 17.5t42.5 -17.5t14.5 -43.5v-404q0 -32 -24 -44q-78 -60 -78 -125q0 -25 15 -39.5t42 -14.5q4 0 10 0.5t10 0.5z" />
    <glyph glyph-name="Wcircumflex" unicode="&#x174;" horiz-adv-x="1054" 
d="M402 772q-21 0 -34.5 14.5t-13.5 36.5q0 21 22 42l52 54q60 60 102 60q40 0 106 -64l50 -50q20 -19 20 -43q0 -21 -13.5 -35.5t-34.5 -14.5q-19 0 -34 14l-93 92h-2l-94 -93q-13 -13 -33 -13zM303 -7q-37 0 -59 23.5t-40 88.5l-166 547q-8 29 7.5 51.5t47.5 22.5
q44 0 56 -43l152 -565h2l139 513q14 57 33 77t53 20t53 -20t32 -76l140 -514h2l152 565q7 24 19.5 33.5t35.5 9.5q32 0 48 -22.5t8 -51.5l-167 -546q-20 -67 -42 -90.5t-56 -23.5q-39 0 -61 25t-38 91l-125 448h-2l-126 -449q-16 -65 -38 -89.5t-60 -24.5z" />
    <glyph glyph-name="wcircumflex" unicode="&#x175;" horiz-adv-x="841" 
d="M295 551q-21 0 -34.5 15t-13.5 36t22 43l52 54q59 59 103 59q40 0 105 -63l50 -51q21 -18 21 -42q0 -21 -14 -36t-35 -15q-19 0 -33 15l-94 92h-2l-94 -93q-14 -14 -33 -14zM245 -8h-2q-37 0 -56.5 21t-34.5 68l-114 347q-11 33 5 56t51 23q40 0 52 -46l101 -338h2
l91 299q13 48 31 66.5t50 18.5h5q30 -2 46 -20t29 -64l91 -300h2l101 338q12 46 52 46q37 0 52 -23t4 -56l-114 -347q-16 -45 -35.5 -66.5t-54.5 -22.5h-2q-38 0 -56 21t-32 68l-88 286h-2l-87 -286q-14 -44 -32.5 -66.5t-54.5 -22.5z" />
    <glyph glyph-name="Ycircumflex" unicode="&#x176;" horiz-adv-x="654" 
d="M198 782q-20 0 -34 15t-14 36t23 42l51 55q61 59 103 59q41 0 105 -64l50 -50q21 -18 21 -42q0 -21 -14 -36t-35 -15q-18 0 -33 14l-94 93h-2l-93 -94q-16 -13 -34 -13zM328 -8q-28 0 -42.5 17.5t-14.5 43.5v229l-227 363q-8 12 -8 27q0 23 17 39.5t40 16.5q17 0 27 -6.5
t22 -24.5l184 -302h2l183 303q20 30 49 30q23 0 39.5 -16t16.5 -39q0 -15 -7 -26l-225 -365v-229q0 -26 -14 -43.5t-42 -17.5z" />
    <glyph glyph-name="ycircumflex" unicode="&#x177;" horiz-adv-x="562" 
d="M157 551q-21 0 -34.5 15t-13.5 36t22 43l52 54q59 59 102 59q41 0 106 -63l49 -51q21 -17 21 -42q0 -21 -14 -36t-34 -15q-19 0 -34 15l-93 92h-2l-94 -93q-15 -14 -33 -14zM132 -230q-30 0 -45 7q-32 14 -32 50q0 21 13.5 33.5t35.5 12.5q6 -1 16 -1q67 0 102 100
l-182 454q-11 29 6 55t50 26q39 0 55 -50l132 -369h3l131 369q16 50 58 50q33 0 47 -23.5t2 -55.5l-171 -430q-49 -123 -99 -175.5t-122 -52.5z" />
    <glyph glyph-name="Ydieresis" unicode="&#x178;" horiz-adv-x="654" 
d="M217 805q-35 0 -56.5 21t-21.5 55t21.5 54t56.5 20q34 0 55.5 -20t21.5 -54q0 -35 -21 -55.5t-56 -20.5zM443 805q-35 0 -56.5 21t-21.5 55t21.5 54t56.5 20q34 0 55.5 -20t21.5 -54q0 -35 -21 -55.5t-56 -20.5zM328 -8q-28 0 -42.5 17.5t-14.5 43.5v229l-227 363
q-8 12 -8 27q0 23 17 39.5t40 16.5q17 0 27 -6.5t22 -24.5l184 -302h2l183 303q20 30 49 30q23 0 39.5 -16t16.5 -39q0 -15 -7 -26l-225 -365v-229q0 -26 -14 -43.5t-42 -17.5z" />
    <glyph glyph-name="Zacute" unicode="&#x179;" horiz-adv-x="677" 
d="M269 875l94 115q25 30 52 30q25 0 43 -17.5t18 -43.5q0 -32 -27 -55l-107 -98q-23 -19 -38 -19q-19 0 -34 13.5t-15 34.5q0 23 14 40zM592 -8h-503q-24 0 -41 17.5t-17 41.5q0 21 13 37l436 539h-378q-23 0 -39 13t-16 37q0 25 16 38t39 13h476q25 0 41.5 -16t16.5 -42
q0 -20 -14 -38l-436 -538h406q23 0 39 -13t16 -38q0 -24 -16 -37.5t-39 -13.5z" />
    <glyph glyph-name="zacute" unicode="&#x17a;" horiz-adv-x="526" 
d="M207 654l95 115q24 30 52 30q25 0 43 -17t18 -44q0 -31 -27 -54l-108 -99q-23 -19 -37 -19q-19 0 -34.5 13.5t-15.5 35.5q0 23 14 39zM442 -8h-357q-25 0 -37.5 14t-12.5 37q0 18 14 34l268 333h-218q-22 0 -37 12.5t-15 35.5q0 24 15 36.5t37 12.5h330q22 0 36.5 -13
t14.5 -38q0 -18 -13 -33l-271 -334h246q22 0 37 -12.5t15 -35.5t-15 -36t-37 -13z" />
    <glyph glyph-name="Zdotaccent" unicode="&#x17b;" horiz-adv-x="677" 
d="M329 795q-38 0 -62 23t-24 60q0 38 24 60.5t62 22.5t61 -22.5t23 -60.5t-23 -60.5t-61 -22.5zM592 -8h-503q-24 0 -41 17.5t-17 41.5q0 21 13 37l436 539h-378q-23 0 -39 13t-16 37q0 25 16 38t39 13h476q25 0 41.5 -16t16.5 -42q0 -20 -14 -38l-436 -538h406
q23 0 39 -13t16 -38q0 -24 -16 -37.5t-39 -13.5z" />
    <glyph glyph-name="zdotaccent" unicode="&#x17c;" horiz-adv-x="526" 
d="M260 574q-38 0 -62 23.5t-24 60.5q0 38 24 60t62 22t61.5 -22t23.5 -60t-23 -61t-62 -23zM442 -8h-357q-25 0 -37.5 14t-12.5 37q0 18 14 34l268 333h-218q-22 0 -37 12.5t-15 35.5q0 24 15 36.5t37 12.5h330q22 0 36.5 -13t14.5 -38q0 -18 -13 -33l-271 -334h246
q22 0 37 -12.5t15 -35.5t-15 -36t-37 -13z" />
    <glyph glyph-name="Zcaron" unicode="&#x17d;" horiz-adv-x="677" 
d="M339 769q-41 0 -105 64l-50 50q-21 18 -21 42q0 21 14 36t34 15q19 0 34 -14l94 -93h2l93 94q16 13 34 13q20 0 34 -15t14 -36t-23 -42l-51 -55q-61 -59 -103 -59zM592 -8h-503q-24 0 -41 17.5t-17 41.5q0 21 13 37l436 539h-378q-23 0 -39 13t-16 37q0 25 16 38t39 13
h476q25 0 41.5 -16t16.5 -42q0 -20 -14 -38l-436 -538h406q23 0 39 -13t16 -38q0 -24 -16 -37.5t-39 -13.5z" />
    <glyph glyph-name="zcaron" unicode="&#x17e;" horiz-adv-x="526" 
d="M263 549q-40 0 -105 63l-50 51q-21 17 -21 42q0 21 14 36t34 15q19 0 34 -15l93 -92h2l94 93q15 14 34 14q20 0 34 -15t14 -36q0 -20 -23 -43l-51 -54q-61 -59 -103 -59zM442 -8h-357q-25 0 -37.5 14t-12.5 37q0 18 14 34l268 333h-218q-22 0 -37 12.5t-15 35.5
q0 24 15 36.5t37 12.5h330q22 0 36.5 -13t14.5 -38q0 -18 -13 -33l-271 -334h246q22 0 37 -12.5t15 -35.5t-15 -36t-37 -13z" />
    <glyph glyph-name="uni01EA" unicode="&#x1ea;" horiz-adv-x="843" 
d="M495 -10q-83 -58 -83 -128q0 -25 15 -39.5t42 -14.5q7 0 19 2q18 0 30 -11.5t12 -30.5q0 -23 -22 -36q-19 -10 -52 -10q-58 0 -98 34t-40 101q0 75 56 129q-146 16 -233.5 119t-87.5 255q0 165 101 270t267 105q167 0 268 -105t101 -270q0 -145 -79.5 -246t-215.5 -124z
M169 360q0 -126 69 -200t183 -74q117 0 184.5 74t67.5 200q0 124 -68 199t-185 75q-115 0 -183 -75t-68 -199z" />
    <glyph glyph-name="uni01EB" unicode="&#x1eb;" horiz-adv-x="632" 
d="M397 -7q-69 -54 -69 -117q0 -25 14.5 -39.5t42.5 -14.5q7 0 19 2q18 0 30 -11.5t12 -30.5q0 -23 -22 -36q-22 -10 -52 -10q-58 0 -98.5 34t-40.5 102q0 64 43 114q-105 12 -167 83t-62 181q0 121 73.5 193t196.5 72q122 0 195 -72t73 -193q0 -99 -50 -167t-138 -90z
M164 250q0 -75 42.5 -120t110.5 -45q69 0 110.5 44.5t41.5 120.5q0 75 -42 119t-112 44q-68 0 -109.5 -44t-41.5 -119z" />
    <glyph glyph-name="AEacute" unicode="&#x1fc;" horiz-adv-x="937" 
d="M577 787q-19 0 -34 13.5t-15 34.5q0 23 14 40l94 115q26 30 52 30q25 0 43 -17.5t18 -43.5q0 -32 -27 -55l-107 -98q-23 -19 -38 -19zM837 94q21 0 35.5 -14t14.5 -38q0 -23 -14 -36.5t-35 -13.5h-333q-58 0 -58 59v129h-235l-92 -157q-18 -31 -52 -31q-36 0 -51 29.5
t1 56.5l340 588q20 36 36 49t42 13h399q22 0 36.5 -14t14.5 -37t-14 -36.5t-35 -13.5h-278v-216h244q22 0 36.5 -14t14.5 -38q0 -23 -14 -36.5t-35 -13.5h-246l1 -215h277zM271 281h176v299h-2z" />
    <glyph glyph-name="aeacute" unicode="&#x1fd;" horiz-adv-x="922" 
d="M434 578q-20 0 -35 13t-15 35q0 21 15 40l94 115q25 29 52 29q25 0 43 -17t18 -43q0 -31 -27 -55l-108 -99q-21 -18 -37 -18zM876 283q0 -37 -14.5 -54t-49.5 -17h-303q0 -53 42.5 -89.5t122.5 -36.5q42 0 81 14.5t51 14.5q22 0 34.5 -13t12.5 -32q0 -31 -30 -52
q-52 -34 -148 -34q-165 0 -237 104q-31 -46 -89.5 -75t-123.5 -29q-87 0 -139 40.5t-52 114.5q0 77 57.5 121.5t142.5 44.5t155 -40q0 76 -35.5 110.5t-107.5 34.5q-40 0 -89 -14q-28 -7 -33 -7q-45 0 -45 47q0 36 44 55q57 24 140 24q135 0 191 -82q69 82 188 82
q111 0 172.5 -63.5t61.5 -168.5zM760 290q1 5 1 18q0 49 -30.5 80t-90.5 31q-56 0 -94 -37.5t-38 -91.5h252zM243 73q55 0 98 36t48 80q-57 36 -122 36q-53 0 -84.5 -21t-31.5 -59q0 -72 92 -72z" />
    <glyph glyph-name="Oslashacute" unicode="&#x1fe;" horiz-adv-x="869" 
d="M401 802q-19 0 -34.5 13.5t-15.5 34.5q0 23 15 40l94 115q26 30 52 30q25 0 43 -17.5t18 -43.5q0 -31 -27 -55l-108 -98q-23 -19 -37 -19zM829 691q0 -19 -18 -39l-72 -71q62 -95 62 -221q0 -165 -101 -270.5t-267 -105.5q-131 0 -226 70l-66 -65q-19 -19 -39 -19
q-21 0 -37 17.5t-16 40.5t17 40l65 64q-67 97 -67 228q0 165 101.5 270t267.5 105q137 0 233 -74l71 70q17 17 40 17q21 0 36.5 -17t15.5 -40zM180 360q0 -86 33 -147l376 371q-66 50 -158 50q-115 0 -183 -75t-68 -199zM685 360q0 78 -29 139l-372 -369q63 -44 149 -44
q117 0 184.5 74t67.5 200z" />
    <glyph glyph-name="oslashacute" unicode="&#x1ff;" horiz-adv-x="647" 
d="M307 581q-19 0 -34 13t-15 35q0 23 14 40l94 115q25 29 52 29q25 0 43 -17t18 -43q0 -32 -27 -55l-107 -99q-22 -18 -38 -18zM587 443l-38 -37q43 -65 43 -156q0 -121 -73 -193.5t-195 -72.5q-93 0 -158 42l-36 -35q-25 -23 -52.5 -10.5t-27.5 42.5q0 20 14 34l35 34
q-45 67 -45 159q0 121 73.5 193t196.5 72q93 0 159 -43l38 37q25 22 52.5 9t27.5 -42q0 -19 -14 -33zM171 250q0 -38 13 -74l220 217q-35 20 -82 20q-68 0 -109.5 -44t-41.5 -119zM476 250q0 40 -12 71l-219 -216q35 -20 79 -20q69 0 110.5 44.5t41.5 120.5z" />
    <glyph glyph-name="uni0218" unicode="&#x218;" horiz-adv-x="627" 
d="M580 201q0 -103 -75 -160.5t-194 -57.5q-129 0 -221 55q-41 26 -41 58q0 25 16 38t41 12q11 -2 80.5 -30t122.5 -28q72 0 109.5 29.5t37.5 73.5q0 21 -11 39t-24 29.5t-41.5 24.5t-46 19t-55.5 19l-18 6q-101 34 -150 80t-49 131q0 89 71 142.5t195 53.5q131 0 197 -45
q30 -21 30 -51q0 -23 -14.5 -35.5t-39.5 -12.5q-16 0 -71.5 21.5t-108.5 21.5q-62 0 -98.5 -25t-36.5 -68q0 -39 30 -61.5t90 -42.5q40 -12 59 -18.5t51.5 -18t48.5 -20.5t38.5 -23t33.5 -28.5t23 -33.5t16.5 -42.5t4.5 -51.5zM292 -299q-19 0 -32 14t-10 35q10 70 12 151
q0 20 15 34t37 14q25 0 39.5 -15.5t12.5 -37.5q-5 -92 -31 -166q-12 -29 -43 -29z" />
    <glyph glyph-name="uni0219" unicode="&#x219;" horiz-adv-x="517" 
d="M258 -16q-123 0 -187 47q-29 21 -29 53q0 20 12.5 31t33.5 10q12 -2 68 -25.5t104 -23.5q103 0 103 58q0 22 -19 37t-42 22t-66 16q-38 8 -66 18.5t-56 28t-43 45.5t-15 66q0 68 54.5 108t150.5 40q92 0 152 -37q33 -19 33 -47q0 -29 -19.5 -39t-48.5 -2q-8 2 -29 11
t-44.5 15t-48.5 6q-88 0 -88 -52q0 -11 3.5 -19.5t13.5 -15t19 -11t27.5 -9.5t30.5 -8t37 -8q30 -7 50.5 -12.5t46.5 -18t41.5 -27.5t26.5 -40t11 -57q0 -69 -51 -114.5t-166 -45.5zM233 -300q-19 0 -32 13.5t-10 34.5q10 70 12 151q0 20 15 34.5t37 14.5q25 0 39.5 -16
t12.5 -38q-5 -92 -31 -166q-11 -28 -43 -28z" />
    <glyph glyph-name="uni021A" unicode="&#x21a;" 
d="M317 -8q-28 0 -42.5 17.5t-14.5 43.5l-1 574h-192q-21 0 -35 14.5t-14 35.5t15 36t35 15h497q20 0 35.5 -15t15.5 -36t-14.5 -35.5t-35.5 -14.5h-191l-2 -574q0 -26 -14 -43.5t-42 -17.5zM291 -294q-19 0 -32 14t-10 35q11 84 12 151q0 20 15 34t37 14q25 0 39.5 -15.5
t12.5 -37.5q-5 -93 -32 -166q-10 -29 -42 -29z" />
    <glyph glyph-name="uni021B" unicode="&#x21b;" horiz-adv-x="411" 
d="M350 107q16 0 28 -13t12 -33q0 -25 -15 -43q-31 -35 -106 -35q-61 0 -99 31t-50.5 73.5t-12.5 98.5v214h-39q-20 0 -35 14.5t-15 35.5q0 20 15 35t35 15h42q3 43 15 79q19 44 51 44q44 0 44 -48v-75h101q20 0 34.5 -15t14.5 -35q0 -21 -14.5 -35.5t-34.5 -14.5h-101v-200
q0 -28 1.5 -43.5t7 -33.5t18.5 -26t34 -8q19 0 38.5 9t30.5 9zM238 -49q25 0 39.5 -15.5t12.5 -37.5q-5 -92 -31 -166q-12 -29 -43 -29q-19 0 -32 14t-10 35q11 84 12 150q0 20 15 34.5t37 14.5z" />
    <glyph glyph-name="uni0237" unicode="&#x237;" horiz-adv-x="282" 
d="M43 -230q-72 0 -103 35q-15 18 -15 42q0 21 12 33.5t29 12.5q11 0 29 -8.5t36 -8.5q20 0 32 8t17 26t6.5 34t1.5 43v459q0 26 14.5 43.5t42.5 17.5t42 -17.5t14 -43.5v-473q0 -41 -7.5 -75t-24.5 -64t-49 -47t-77 -17z" />
    <glyph glyph-name="circumflex" unicode="&#x2c6;" horiz-adv-x="600" 
d="M150 573q-20 0 -34 15t-14 36q0 20 23 43l51 54q61 59 103 59q40 0 105 -63l50 -51q21 -17 21 -42q0 -21 -14 -36t-34 -15q-19 0 -34 14l-93 93h-2l-94 -93q-15 -14 -34 -14z" />
    <glyph glyph-name="caron" unicode="&#x2c7;" horiz-adv-x="600" 
d="M278 534q-40 0 -105 63l-50 51q-21 18 -21 42q0 21 14 36t35 15q19 0 33 -15l94 -92h2l94 93q14 14 33 14q21 0 34.5 -15t13.5 -36t-22 -43l-52 -54q-59 -59 -103 -59z" />
    <glyph glyph-name="breve" unicode="&#x2d8;" horiz-adv-x="600" 
d="M262 638q64 0 74 67q5 16 18.5 26.5t30.5 10.5q24 0 37.5 -16t13.5 -39q-1 -66 -51.5 -105t-122.5 -39t-122 39.5t-51 104.5q0 22 14 38.5t37 16.5q17 0 30.5 -10.5t17.5 -26.5q13 -67 74 -67z" />
    <glyph glyph-name="dotaccent" unicode="&#x2d9;" horiz-adv-x="600" 
d="M153 559q-38 0 -62 23.5t-24 60.5q0 38 24 60t62 22t61 -22t23 -60t-23 -61t-61 -23z" />
    <glyph glyph-name="ring" unicode="&#x2da;" horiz-adv-x="600" 
d="M211 542q-50 0 -83 29t-33 82q0 52 33.5 82t82.5 30t83 -30t34 -82t-33.5 -81.5t-83.5 -29.5zM211 613q17 0 28 11t11 29t-11 29t-28 11t-28 -11t-11 -29t11 -29t28 -11z" />
    <glyph glyph-name="ogonek" unicode="&#x2db;" horiz-adv-x="600" 
d="M216 -282q-58 0 -98.5 34t-40.5 101q0 39 14 71t42 57t42.5 35.5t42.5 26.5q8 4 18 4q14 -1 23 -10.5t9 -23.5q0 -16 -14 -27q-83 -60 -83 -128q0 -25 15 -39.5t42 -14.5q4 0 10.5 0.5t9.5 0.5q17 1 29 -11t12 -31q0 -24 -21 -35q-19 -10 -52 -10z" />
    <glyph glyph-name="tilde" unicode="&#x2dc;" horiz-adv-x="491" 
d="M204 720q40 0 73 -18t56.5 -35.5t38.5 -17.5q20 0 30 13.5t17 40.5q11 18 35 18q21 0 33 -16t12 -40q0 -49 -29 -84t-79 -35q-34 0 -67 19t-60 38.5t-47 19.5q-14 0 -23.5 -4t-14.5 -13t-7.5 -16t-4.5 -19q-10 -23 -36 -23q-22 0 -34 14t-12 35q0 51 31.5 87t87.5 36z
" />
    <glyph glyph-name="hungarumlaut" unicode="&#x2dd;" horiz-adv-x="600" 
d="M153 531q-23 0 -39 16t-16 40q0 20 12 41l54 99q22 39 56 39q27 0 46.5 -19t19.5 -47q0 -22 -14 -41l-67 -96q-26 -32 -52 -32zM360 531q-23 0 -39 16t-16 40q0 19 11 41l54 99q24 39 57 39q27 0 46 -19t19 -47q0 -22 -14 -41l-66 -96q-26 -32 -52 -32z" />
    <glyph glyph-name="gravecomb" unicode="&#x300;" horiz-adv-x="0" 
d="M-191 754l94 -114q14 -18 14 -40t-15 -35t-34 -13q-16 0 -38 18l-107 99q-27 22 -27 54q0 27 18 44t43 17q28 0 52 -30z" />
    <glyph glyph-name="acutecomb" unicode="&#x301;" horiz-adv-x="0" 
d="M-325 640l95 114q24 30 52 30q25 0 43 -17t18 -44q0 -31 -27 -54l-108 -99q-22 -18 -37 -18q-20 0 -35 13t-15 35t14 40z" />
    <glyph glyph-name="uni0302" unicode="&#x302;" horiz-adv-x="0" 
d="M-407 573q-20 0 -34 15t-14 36q0 20 23 43l51 54q61 59 103 59q40 0 105 -63l50 -51q21 -17 21 -42q0 -21 -14 -36t-34 -15q-19 0 -34 14l-93 93h-2l-94 -93q-15 -14 -34 -14z" />
    <glyph glyph-name="tildecomb" unicode="&#x303;" horiz-adv-x="0" 
d="M-350 720q40 0 73 -18t56.5 -35.5t38.5 -17.5q20 0 30 13.5t17 40.5q11 18 35 18q21 0 33 -16t12 -40q0 -49 -29 -84t-79 -35q-34 0 -67 19t-60 38.5t-47 19.5q-14 0 -23.5 -4t-14.5 -13t-7.5 -16t-4.5 -19q-10 -23 -36 -23q-22 0 -34 14t-12 35q0 51 31.5 87t87.5 36z
" />
    <glyph glyph-name="uni0304" unicode="&#x304;" horiz-adv-x="0" 
d="M-132 586h-264q-20 0 -35 15t-15 37q0 21 15 35.5t35 14.5h264q21 0 36 -15t15 -36t-15.5 -36t-35.5 -15z" />
    <glyph glyph-name="uni0306" unicode="&#x306;" horiz-adv-x="0" 
d="M-264 638q64 0 74 67q5 16 18.5 26.5t30.5 10.5q24 0 37.5 -16t13.5 -39q-1 -66 -51.5 -105t-122.5 -39t-122 39.5t-51 104.5q0 22 14 38.5t37 16.5q17 0 30.5 -10.5t17.5 -26.5q13 -67 74 -67z" />
    <glyph glyph-name="uni0307" unicode="&#x307;" horiz-adv-x="0" 
d="M-154 559q-38 0 -62 23.5t-24 60.5q0 38 24 60t62 22t61 -22t23 -60t-23 -61t-61 -23z" />
    <glyph glyph-name="uni0308" unicode="&#x308;" horiz-adv-x="0" 
d="M-400 562q-35 0 -57 21t-22 55t22 54.5t57 20.5q34 0 55 -20.5t21 -54.5t-21 -55t-55 -21zM-174 562q-35 0 -57 21t-22 55t22 54.5t57 20.5q34 0 55 -20.5t21 -54.5t-21 -55t-55 -21z" />
    <glyph glyph-name="uni030A" unicode="&#x30a;" horiz-adv-x="0" 
d="M-212 542q-50 0 -83 29t-33 82q0 52 33.5 82t82.5 30t83 -30t34 -82t-33.5 -81.5t-83.5 -29.5zM-212 613q17 0 28 11t11 29t-11 29t-28 11t-28 -11t-11 -29t11 -29t28 -11z" />
    <glyph glyph-name="uni030B" unicode="&#x30b;" horiz-adv-x="0" 
d="M-406 531q-23 0 -39 16t-16 40q0 20 12 41l54 99q22 39 56 39q27 0 46.5 -19t19.5 -47q0 -22 -14 -41l-67 -96q-26 -32 -52 -32zM-199 531q-23 0 -39 16t-16 40q0 19 11 41l54 99q24 39 57 39q27 0 46 -19t19 -47q0 -22 -14 -41l-66 -96q-26 -32 -52 -32z" />
    <glyph glyph-name="uni030C" unicode="&#x30c;" horiz-adv-x="0" 
d="M-279 534q-40 0 -105 63l-50 51q-21 18 -21 42q0 21 14 36t35 15q19 0 33 -15l94 -92h2l94 93q14 14 33 14q21 0 34.5 -15t13.5 -36t-22 -43l-52 -54q-59 -59 -103 -59z" />
    <glyph glyph-name="uni0326" unicode="&#x326;" horiz-adv-x="0" 
d="M-165 -178q-19 0 -32 14t-10 35q11 84 12 150q0 20 15 34.5t37 14.5q25 0 39.5 -15.5t12.5 -37.5q-5 -93 -32 -166q-10 -29 -42 -29z" />
    <glyph glyph-name="uni0327" unicode="&#x327;" horiz-adv-x="0" 
d="M-205 -281q-48 0 -83 21q-28 14 -28 41q0 21 12 31.5t27 10.5q7 0 27 -9.5t37 -9.5q50 0 50 45q0 40 -61 42q-20 0 -28 8t-2 32l11 39q5 23 15.5 33t30.5 10q19 0 32.5 -10t7.5 -27l-9 -32q4 0 11 -1.5t24.5 -8.5t31 -17.5t24.5 -32t11 -49.5q0 -50 -36.5 -83t-104.5 -33
z" />
    <glyph glyph-name="uni0328" unicode="&#x328;" horiz-adv-x="0" 
d="M-179 -282q-58 0 -98.5 34t-40.5 101q0 39 14 71t42 57t42.5 35.5t42.5 26.5q8 4 18 4q14 -1 23 -10.5t9 -23.5q0 -16 -14 -27q-83 -60 -83 -128q0 -25 15 -39.5t42 -14.5q4 0 10.5 0.5t9.5 0.5q17 1 29 -11t12 -31q0 -24 -21 -35q-19 -10 -52 -10z" />
    <glyph glyph-name="Wgrave" unicode="&#x1e80;" horiz-adv-x="1054" 
d="M469 990l94 -115q15 -17 15 -40q0 -21 -15.5 -34.5t-34.5 -13.5q-14 0 -37 19l-108 98q-27 24 -27 55q0 26 18 43.5t43 17.5q27 0 52 -30zM303 -7q-37 0 -59 23.5t-40 88.5l-166 547q-8 29 7.5 51.5t47.5 22.5q44 0 56 -43l152 -565h2l139 513q14 57 33 77t53 20t53 -20
t32 -76l140 -514h2l152 565q7 24 19.5 33.5t35.5 9.5q32 0 48 -22.5t8 -51.5l-167 -546q-20 -67 -42 -90.5t-56 -23.5q-39 0 -61 25t-38 91l-125 448h-2l-126 -449q-16 -65 -38 -89.5t-60 -24.5z" />
    <glyph glyph-name="wgrave" unicode="&#x1e81;" horiz-adv-x="841" 
d="M362 769l95 -115q14 -16 14 -39q0 -22 -15.5 -35.5t-34.5 -13.5q-14 0 -37 19l-108 99q-27 23 -27 54q0 27 18 44t43 17q28 0 52 -30zM245 -8h-2q-37 0 -56.5 21t-34.5 68l-114 347q-11 33 5 56t51 23q40 0 52 -46l101 -338h2l91 299q13 48 31 66.5t50 18.5h5
q30 -2 46 -20t29 -64l91 -300h2l101 338q12 46 52 46q37 0 52 -23t4 -56l-114 -347q-16 -45 -35.5 -66.5t-54.5 -22.5h-2q-38 0 -56 21t-32 68l-88 286h-2l-87 -286q-14 -44 -32.5 -66.5t-54.5 -22.5z" />
    <glyph glyph-name="Wacute" unicode="&#x1e82;" horiz-adv-x="1054" 
d="M474 875l94 115q26 30 53 30q25 0 42.5 -17.5t17.5 -43.5q0 -32 -27 -55l-107 -98q-23 -19 -38 -19q-19 0 -34 13.5t-15 34.5q0 23 14 40zM303 -7q-37 0 -59 23.5t-40 88.5l-166 547q-8 29 7.5 51.5t47.5 22.5q44 0 56 -43l152 -565h2l139 513q14 57 33 77t53 20t53 -20
t32 -76l140 -514h2l152 565q7 24 19.5 33.5t35.5 9.5q32 0 48 -22.5t8 -51.5l-167 -546q-20 -67 -42 -90.5t-56 -23.5q-39 0 -61 25t-38 91l-125 448h-2l-126 -449q-16 -65 -38 -89.5t-60 -24.5z" />
    <glyph glyph-name="wacute" unicode="&#x1e83;" horiz-adv-x="841" 
d="M367 654l95 115q23 30 52 30q25 0 42.5 -17t17.5 -44q0 -32 -27 -54l-107 -99q-23 -19 -38 -19q-19 0 -34 13.5t-15 35.5q0 23 14 39zM245 -8h-2q-37 0 -56.5 21t-34.5 68l-114 347q-11 33 5 56t51 23q40 0 52 -46l101 -338h2l91 299q13 48 31 66.5t50 18.5h5
q30 -2 46 -20t29 -64l91 -300h2l101 338q12 46 52 46q37 0 52 -23t4 -56l-114 -347q-16 -45 -35.5 -66.5t-54.5 -22.5h-2q-38 0 -56 21t-32 68l-88 286h-2l-87 -286q-14 -44 -32.5 -66.5t-54.5 -22.5z" />
    <glyph glyph-name="Wdieresis" unicode="&#x1e84;" horiz-adv-x="1054" 
d="M420 795q-35 0 -57 21t-22 55t21.5 54t57.5 20q34 0 55 -20t21 -54q0 -35 -21 -55.5t-55 -20.5zM646 795q-35 0 -57 21t-22 55t22 54t57 20q34 0 55 -20t21 -54q0 -35 -21 -55.5t-55 -20.5zM303 -7q-37 0 -59 23.5t-40 88.5l-166 547q-8 29 7.5 51.5t47.5 22.5
q44 0 56 -43l152 -565h2l139 513q14 57 33 77t53 20t53 -20t32 -76l140 -514h2l152 565q7 24 19.5 33.5t35.5 9.5q32 0 48 -22.5t8 -51.5l-167 -546q-20 -67 -42 -90.5t-56 -23.5q-39 0 -61 25t-38 91l-125 448h-2l-126 -449q-16 -65 -38 -89.5t-60 -24.5z" />
    <glyph glyph-name="wdieresis" unicode="&#x1e85;" horiz-adv-x="841" 
d="M313 574q-35 0 -57 21.5t-22 55.5q0 33 22 53.5t57 20.5q33 0 54.5 -20.5t21.5 -53.5q0 -35 -21 -56t-55 -21zM539 574q-35 0 -57 21.5t-22 55.5q0 33 22 53.5t57 20.5q34 0 55 -20t21 -54q0 -35 -21 -56t-55 -21zM245 -8h-2q-37 0 -56.5 21t-34.5 68l-114 347
q-11 33 5 56t51 23q40 0 52 -46l101 -338h2l91 299q13 48 31 66.5t50 18.5h5q30 -2 46 -20t29 -64l91 -300h2l101 338q12 46 52 46q37 0 52 -23t4 -56l-114 -347q-16 -45 -35.5 -66.5t-54.5 -22.5h-2q-38 0 -56 21t-32 68l-88 286h-2l-87 -286q-14 -44 -32.5 -66.5
t-54.5 -22.5z" />
    <glyph glyph-name="uni1E9E" unicode="&#x1e9e;" horiz-adv-x="661" 
d="M90 53v435q0 118 68 182.5t176 64.5q98 0 156.5 -50.5t58.5 -141.5q0 -48 -21 -87.5t-57 -58.5v-2q60 -16 100 -65t40 -124q0 -106 -57.5 -164t-162.5 -58q-75 0 -116 23q-33 17 -33 51q0 24 12.5 37.5t36.5 13.5q4 0 33 -8t61 -8q50 0 80 29t30 92q0 52 -33.5 84.5
t-90.5 32.5h-16q-51 0 -51 50q0 21 10.5 36t32.5 15h16q34 0 53.5 28.5t19.5 66.5q0 47 -28.5 74t-76.5 27q-57 0 -92.5 -33t-35.5 -106v-436q0 -26 -14 -43.5t-42 -17.5t-42.5 17.5t-14.5 43.5z" />
    <glyph glyph-name="Ygrave" unicode="&#x1ef2;" horiz-adv-x="654" 
d="M267 1000l94 -115q15 -17 15 -40q0 -21 -15.5 -34.5t-34.5 -13.5q-15 0 -37 19l-108 98q-27 24 -27 55q0 26 18 43.5t43 17.5q28 0 52 -30zM328 -8q-28 0 -42.5 17.5t-14.5 43.5v229l-227 363q-8 12 -8 27q0 23 17 39.5t40 16.5q17 0 27 -6.5t22 -24.5l184 -302h2
l183 303q20 30 49 30q23 0 39.5 -16t16.5 -39q0 -15 -7 -26l-225 -365v-229q0 -26 -14 -43.5t-42 -17.5z" />
    <glyph glyph-name="ygrave" unicode="&#x1ef3;" horiz-adv-x="562" 
d="M224 769l94 -115q14 -16 14 -39q0 -22 -15 -35.5t-34 -13.5q-15 0 -38 19l-107 99q-27 22 -27 54q0 27 18 44t43 17q28 0 52 -30zM132 -230q-30 0 -45 7q-32 14 -32 50q0 21 13.5 33.5t35.5 12.5q6 -1 16 -1q67 0 102 100l-182 454q-11 29 6 55t50 26q39 0 55 -50
l132 -369h3l131 369q16 50 58 50q33 0 47 -23.5t2 -55.5l-171 -430q-49 -123 -99 -175.5t-122 -52.5z" />
    <glyph glyph-name="uni1EF8" unicode="&#x1ef8;" horiz-adv-x="654" 
d="M236 965q40 0 73 -17.5t56.5 -35t39.5 -17.5q20 0 29.5 13.5t17.5 40.5q11 17 34 17q22 0 34 -15.5t12 -39.5q0 -49 -29 -84.5t-80 -35.5q-34 0 -66.5 19.5t-59.5 38.5t-47 19q-18 0 -29 -8.5t-14.5 -17.5t-7.5 -26q-8 -23 -36 -23q-22 0 -33.5 14t-11.5 35q0 51 31 87
t87 36zM328 -8q-28 0 -42.5 17.5t-14.5 43.5v229l-227 363q-8 12 -8 27q0 23 17 39.5t40 16.5q17 0 27 -6.5t22 -24.5l184 -302h2l183 303q20 30 49 30q23 0 39.5 -16t16.5 -39q0 -15 -7 -26l-225 -365v-229q0 -26 -14 -43.5t-42 -17.5z" />
    <glyph glyph-name="uni1EF9" unicode="&#x1ef9;" horiz-adv-x="562" 
d="M193 734q40 0 73 -17.5t56.5 -35t39.5 -17.5q20 0 29.5 13.5t17.5 40.5q11 18 34 18q22 0 34 -16t12 -40q0 -49 -29 -84.5t-80 -35.5q-34 0 -67 19t-59.5 38.5t-46.5 19.5q-19 0 -30 -9t-14 -16.5t-7 -25.5q-7 -24 -36 -24q-22 0 -33.5 14t-11.5 35q0 51 31 87t87 36z
M132 -230q-30 0 -45 7q-32 14 -32 50q0 21 13.5 33.5t35.5 12.5q6 -1 16 -1q67 0 102 100l-182 454q-11 29 6 55t50 26q39 0 55 -50l132 -369h3l131 369q16 50 58 50q33 0 47 -23.5t2 -55.5l-171 -430q-49 -123 -99 -175.5t-122 -52.5z" />
    <glyph glyph-name="endash" unicode="&#x2013;" horiz-adv-x="650" 
d="M533 210h-416q-21 0 -35 12.5t-14 37.5t14 37t35 12h416q49 0 49 -49q0 -25 -13.5 -37.5t-35.5 -12.5z" />
    <glyph glyph-name="emdash" unicode="&#x2014;" horiz-adv-x="913" 
d="M796 210h-679q-21 0 -35 12.5t-14 36.5q0 25 14 37.5t35 12.5h679q49 0 49 -50q0 -24 -13.5 -36.5t-35.5 -12.5z" />
    <glyph glyph-name="quoteleft" unicode="&#x2018;" horiz-adv-x="238" 
d="M112 457q-28 0 -42.5 16.5t-12.5 41.5q6 97 36 181q12 29 43 29q24 0 35.5 -14t9.5 -36q-12 -89 -15 -165q0 -24 -13.5 -38.5t-40.5 -14.5z" />
    <glyph glyph-name="quoteright" unicode="&#x2019;" horiz-adv-x="237" 
d="M105 457q-24 0 -35.5 14t-9.5 36q14 85 15 165q2 53 55 53q27 0 41.5 -16.5t12.5 -41.5q-6 -102 -36 -181q-10 -29 -43 -29z" />
    <glyph glyph-name="quotesinglbase" unicode="&#x201a;" horiz-adv-x="219" 
d="M85 -202q-20 0 -33.5 15.5t-10.5 38.5q14 96 15 172q1 23 15.5 38t38.5 15q26 0 41.5 -17t13.5 -41q-6 -105 -36 -188q-11 -33 -44 -33z" />
    <glyph glyph-name="quotedblleft" unicode="&#x201c;" horiz-adv-x="430" 
d="M112 457q-28 0 -42.5 16.5t-12.5 41.5q6 97 36 181q12 29 43 29q24 0 35.5 -14t9.5 -36q-12 -89 -15 -165q0 -24 -13.5 -38.5t-40.5 -14.5zM304 457q-28 0 -42.5 16.5t-12.5 41.5q6 97 36 181q12 29 43 29q25 0 36.5 -14t8.5 -36q-12 -89 -15 -165q0 -24 -13.5 -38.5
t-40.5 -14.5z" />
    <glyph glyph-name="quotedblright" unicode="&#x201d;" horiz-adv-x="429" 
d="M105 457q-24 0 -35.5 14t-9.5 36q14 85 15 165q2 53 55 53q27 0 41.5 -16.5t12.5 -41.5q-6 -102 -36 -181q-10 -29 -43 -29zM297 457q-24 0 -35.5 14t-9.5 36q14 85 15 165q2 53 55 53q27 0 41.5 -16.5t12.5 -41.5q-6 -102 -36 -181q-10 -29 -43 -29z" />
    <glyph glyph-name="quotedblbase" unicode="&#x201e;" horiz-adv-x="410" 
d="M85 -199q-24 0 -35.5 14.5t-9.5 36.5q14 83 15 165q2 53 55 53q27 0 41.5 -16.5t12.5 -41.5q-6 -101 -36 -181q-11 -30 -43 -30zM277 -199q-24 0 -35.5 14.5t-9.5 36.5q14 83 15 165q2 53 55 53q27 0 41.5 -16.5t12.5 -41.5q-6 -101 -36 -181q-11 -30 -43 -30z" />
    <glyph glyph-name="dagger" unicode="&#x2020;" horiz-adv-x="538" 
d="M269 -8q-25 0 -41.5 15.5t-16.5 43.5v395h-131q-25 0 -38 14t-13 36t13 36.5t38 14.5h131v123q0 28 16.5 43t41.5 15t41.5 -15t16.5 -43v-123h131q25 0 38 -14.5t13 -36.5t-13 -36t-38 -14h-131v-395q0 -28 -16.5 -43.5t-41.5 -15.5z" />
    <glyph glyph-name="daggerdbl" unicode="&#x2021;" horiz-adv-x="575" 
d="M287 -8q-25 0 -41.5 15.5t-16.5 43.5v123h-131q-25 0 -37.5 14t-12.5 36t12.5 36.5t37.5 14.5h131v171h-131q-50 0 -50 50q0 22 12.5 36.5t37.5 14.5h131v123q0 28 16.5 43t41.5 15q26 0 42.5 -15t16.5 -43v-123h130q25 0 38 -14.5t13 -36.5t-13 -36t-38 -14h-130v-171
h130q25 0 38 -14.5t13 -36.5t-13 -36t-38 -14h-130v-123q0 -28 -16.5 -43.5t-42.5 -15.5z" />
    <glyph glyph-name="bullet" unicode="&#x2022;" horiz-adv-x="372" 
d="M186 153q-44 0 -72 27t-28 71t28 70t72 26q45 0 72.5 -26t27.5 -70t-27.5 -71t-72.5 -27z" />
    <glyph glyph-name="ellipsis" unicode="&#x2026;" horiz-adv-x="779" 
d="M640 -15q-35 0 -57.5 22t-22.5 58q0 35 22.5 56.5t57.5 21.5q36 0 58.5 -21t22.5 -57q0 -37 -22 -58.5t-59 -21.5zM138 -15q-36 0 -58 22t-22 58t22 56.5t58 20.5t58.5 -20.5t22.5 -56.5t-22.5 -58t-58.5 -22zM391 -15q-36 0 -58.5 22t-22.5 58q0 35 22.5 56t58.5 21
t58.5 -21t22.5 -56q0 -36 -22.5 -58t-58.5 -22z" />
    <glyph glyph-name="perthousand" unicode="&#x2030;" horiz-adv-x="1345" 
d="M300 12q-13 -20 -35 -20q-17 0 -28.5 12t-11.5 29q0 13 6 20l401 655q12 20 35 20q17 0 28.5 -11.5t11.5 -28.5q0 -12 -6 -21zM204 366q-76 0 -123.5 50t-47.5 127q0 76 47 126.5t124 50.5q76 0 123.5 -50.5t47.5 -126.5q0 -77 -47.5 -127t-123.5 -50zM204 449
q35 0 56 25t21 69q0 43 -21 68.5t-56 25.5q-36 0 -56.5 -25t-20.5 -69t21 -69t56 -25zM713 -15q-76 0 -123.5 49.5t-47.5 127.5q0 76 47 126.5t124 50.5q76 0 123 -50.5t47 -126.5q0 -77 -47 -127t-123 -50zM1143 -15q-77 0 -124 49.5t-47 127.5q0 76 47 126.5t124 50.5
q75 0 122.5 -50.5t47.5 -126.5q0 -77 -47 -127t-123 -50zM713 68q35 0 55.5 25t20.5 69q0 43 -20.5 68.5t-55.5 25.5q-36 0 -56.5 -25t-20.5 -69t21 -69t56 -25zM1143 68q35 0 55.5 25t20.5 69q0 43 -20.5 68.5t-55.5 25.5q-36 0 -56.5 -25t-20.5 -69t20.5 -69t56.5 -25z
" />
    <glyph glyph-name="guilsinglleft" unicode="&#x2039;" horiz-adv-x="287" 
d="M57 284l73 136q16 31 43 31q22 0 38 -12.5t16 -33.5q0 -12 -7 -28l-66 -126l66 -126q7 -16 7 -28q0 -21 -16 -33.5t-38 -12.5q-27 0 -43 31l-73 136q-9 18 -9 33q0 17 9 33z" />
    <glyph glyph-name="guilsinglright" unicode="&#x203a;" horiz-adv-x="287" 
d="M157 420l73 -136q9 -16 9 -33q0 -15 -9 -33l-73 -136q-16 -31 -43 -31q-22 0 -38 12.5t-16 33.5q0 12 7 28l66 126l-66 126q-7 16 -7 28q0 21 16 33.5t38 12.5q27 0 43 -31z" />
    <glyph glyph-name="fraction" unicode="&#x2044;" horiz-adv-x="384" 
d="M89 10q-10 -26 -39 -26q-19 0 -31 12.5t-12 30.5q0 10 4 18l283 664q11 26 40 26q18 0 30.5 -12.5t12.5 -30.5q0 -10 -4 -18z" />
    <glyph glyph-name="Euro" unicode="&#x20ac;" 
d="M397 640q92 0 140 -37q28 -20 28 -52q0 -19 -12.5 -32t-34.5 -13q-14 0 -49.5 15t-72.5 15q-59 0 -97.5 -35t-48.5 -96h156q19 0 32.5 -13.5t13.5 -32.5q0 -20 -13.5 -33.5t-32.5 -13.5h-157q9 -63 48 -99t102 -36q37 0 72 15t49 15q22 0 35 -13t13 -31q0 -32 -31 -52
q-51 -37 -145 -37q-111 0 -180 64t-80 174h-49q-19 0 -33 13.5t-14 33.5q0 19 14 32.5t33 13.5h49q12 109 82.5 172t182.5 63z" />
    <glyph glyph-name="trademark" unicode="&#x2122;" horiz-adv-x="1029" 
d="M693 252q-35 0 -52 42l-117 280h-2v-280q0 -18 -10 -30t-29 -12t-29.5 12t-10.5 30v361q0 32 16 49.5t43 17.5q24 0 38 -12t25 -40l127 -304h2l126 304q12 28 26 40t38 12q26 0 42.5 -17.5t16.5 -49.5v-361q0 -18 -11 -30t-30 -12t-29 12t-10 30v280h-2l-116 -280
q-17 -42 -52 -42zM168 295l-1 351h-100q-15 0 -26 11t-11 27q0 15 11 26t26 11h285q15 0 25.5 -11t10.5 -27q0 -15 -10.5 -26t-25.5 -11h-101l-1 -351q0 -18 -10 -30.5t-30 -12.5t-31 12.5t-11 30.5z" />
    <glyph glyph-name="minus" unicode="&#x2212;" horiz-adv-x="528" 
d="M405 309h-283q-22 0 -35.5 12.5t-13.5 37.5t13.5 37.5t35.5 12.5h283q22 0 36 -12.5t14 -37.5t-14 -37.5t-36 -12.5z" />
    <glyph glyph-name="approxequal" unicode="&#x2248;" horiz-adv-x="613" 
d="M410 493q20 0 30 13.5t18 40.5q9 18 34 18q21 0 33 -16t12 -40q0 -49 -29 -84.5t-80 -35.5q-48 0 -119 38.5t-100 38.5q-19 0 -30 -9t-14 -16.5t-7 -25.5q-9 -24 -36 -24q-22 0 -34 14t-12 35q0 51 31.5 87t88.5 36q45 0 87.5 -17.5t74.5 -35t52 -17.5zM410 261
q20 0 30 13.5t18 40.5q9 18 34 18q21 0 33 -16t12 -40q0 -49 -29 -84.5t-80 -35.5q-48 0 -119 38.5t-100 38.5q-19 0 -30 -9t-14 -16.5t-7 -25.5q-9 -24 -36 -24q-22 0 -34 14t-12 35q0 51 31.5 87t88.5 36q45 0 87.5 -17.5t74.5 -35t52 -17.5z" />
    <glyph glyph-name="notequal" unicode="&#x2260;" horiz-adv-x="541" 
d="M416 310q20 0 34.5 -14.5t14.5 -35.5q0 -20 -14.5 -34.5t-34.5 -14.5h-145l-26 -85q-11 -32 -45 -32q-23 0 -37 19t-7 41l17 57h-49q-20 0 -35 14.5t-15 35.5q0 20 15 34.5t35 14.5h79l31 99h-110q-20 0 -35 14.5t-15 35.5q0 20 15 35t35 15h140l23 76q10 33 46 33
q25 0 38.5 -20t6.5 -41l-15 -48h53q20 0 34.5 -15t14.5 -35q0 -21 -14.5 -35.5t-34.5 -14.5h-84l-30 -99h114z" />
    <glyph glyph-name="uniF8FF" unicode="&#xf8ff;" horiz-adv-x="1427" 
d="M741 540q-26 0 -44 18t-18 42q0 27 17.5 44t44.5 17q24 0 41.5 -17.5t17.5 -43.5q0 -24 -18 -42t-41 -18zM207 601q0 -8 3 -57.5t5 -116.5t2 -135h-117q0 157 8 309h99zM798 292h-116q0 109 2 146h-58l3 -66q2 -1 14 -1q16 0 20 2v-70q-15 -16 -69 -16q-80 0 -80 66
q0 11 2 47.5t2 37.5h-21v78l117 29l1 -17h173q10 -64 10 -236zM396 354q-11 -66 -72 -66q-91 0 -91 112q0 133 132 133q120 0 120 -116v-125h-80zM1068 430l3 -138h-111q0 26 1 56.5t1 36.5q0 28 -14 28q-9 0 -13 -4t-5 -9t-1 -15q0 -6 1 -36.5t1 -56.5h-110q0 169 9 236h79
q5 -52 5 -74q2 14 6.5 29t23.5 32.5t48 17.5q42 0 58 -24.5t18 -78.5zM1208 533q119 0 119 -121q0 -124 -121 -124q-120 0 -120 122q0 123 122 123zM361 368q23 0 23 28q0 26 -23 26q-21 0 -21 -26q0 -28 21 -28zM1206 368q24 0 24 28q0 26 -24 26q-21 0 -21 -26
q0 -28 21 -28zM422 147v117h101q12 -66 12 -138q0 -78 -33.5 -112t-117.5 -34q-60 0 -86 16v81q19 -13 69 -13q21 0 34 5.5t16 10t3 8.5q-12 -10 -48 -10q-89 0 -89 83v11h-54l3 -63q6 -4 16 -4q12 0 17 5v-71q-15 -15 -68 -15q-43 0 -60.5 16.5t-17.5 51.5q0 44 3 80h-18
v79l115 28l-1 -15h173v-117q0 -17 2.5 -22.5t12.5 -5.5q9 0 12.5 6t3.5 22zM642 187q18 82 79 82q35 0 56.5 -29.5t21.5 -82.5q0 -133 -135 -133q1 -16 1 -39h-115q0 134 10 279h76q6 -42 6 -77zM938 269q54 0 84 -30t30 -85q0 -23 -3 -35h-122q9 -17 48 -17q35 0 56 11v-73
q-25 -16 -77 -16q-139 0 -139 121q0 57 33 90.5t90 33.5zM922 136h40q2 27 -16 27q-24 0 -24 -27zM656 127q0 -12 5 -27q4 0 11 2t15.5 11t8.5 23q0 23 -21 23q-19 0 -19 -32zM1078 65q-10 0 -16.5 -6.5t-6.5 -16.5q0 -22 23 -22q24 0 24 22q0 23 -24 23zM1078 24
q-17 0 -17 18q0 19 17 19q18 0 18 -19q0 -18 -18 -18zM1082 31h6l-6 9q7 0 7 6q0 8 -10 8h-10v-23h5v9h4zM1084 46q0 -3 -4 -3h-6v6h6q4 0 4 -3z" />
    <glyph glyph-name="A.fina" horiz-adv-x="1106" 
d="M1034 298q34 -68 34 -148q0 -114 -63.5 -183t-178.5 -69t-187 70t-133 212h-311l-52 -138q-9 -26 -20.5 -38t-33.5 -12q-33 0 -48.5 23.5t-3.5 50.5l210 547q24 65 44 90t59 25q21 0 35.5 -6t27 -24t20 -34.5t21.5 -53.5l64 -162q11 -29 28 -74.5t27 -71.5t25 -64
t25.5 -59.5t26 -50.5t28.5 -45.5t30.5 -34.5t34.5 -27.5t38.5 -15.5t44.5 -6q63 0 97.5 39.5t34.5 110.5q0 52 -23 96q-12 34 -12 46q0 22 15.5 35.5t40.5 13.5q35 0 55 -42zM233 281h232l-49 131l-66 172h-2z" />
    <glyph glyph-name="Aacute.fina" horiz-adv-x="1106" 
d="M331 787q-19 0 -34 13.5t-15 34.5q0 23 14 40l95 115q24 30 52 30q25 0 42.5 -17.5t17.5 -43.5q0 -32 -27 -55l-107 -98q-23 -19 -38 -19zM1034 298q34 -68 34 -148q0 -114 -63.5 -183t-178.5 -69t-187 70t-133 212h-311l-52 -138q-9 -26 -20.5 -38t-33.5 -12
q-33 0 -48.5 23.5t-3.5 50.5l210 547q24 65 44 90t59 25q21 0 35.5 -6t27 -24t20 -34.5t21.5 -53.5l64 -162q11 -29 28 -74.5t27 -71.5t25 -64t25.5 -59.5t26 -50.5t28.5 -45.5t30.5 -34.5t34.5 -27.5t38.5 -15.5t44.5 -6q63 0 97.5 39.5t34.5 110.5q0 52 -23 96
q-12 34 -12 46q0 22 15.5 35.5t40.5 13.5q35 0 55 -42zM233 281h232l-49 131l-66 172h-2z" />
    <glyph glyph-name="Abreve.fina" horiz-adv-x="1106" 
d="M349 778q-72 0 -122 40t-51 105q0 22 14 38t37 16q17 0 30 -10.5t18 -26.5q11 -67 74 -67t74 67q11 37 49 37q23 0 36.5 -16t13.5 -38q-1 -66 -51 -105.5t-122 -39.5zM1034 298q34 -68 34 -148q0 -114 -63.5 -183t-178.5 -69t-187 70t-133 212h-311l-52 -138
q-9 -26 -20.5 -38t-33.5 -12q-33 0 -48.5 23.5t-3.5 50.5l210 547q24 65 44 90t59 25q21 0 35.5 -6t27 -24t20 -34.5t21.5 -53.5l64 -162q11 -29 28 -74.5t27 -71.5t25 -64t25.5 -59.5t26 -50.5t28.5 -45.5t30.5 -34.5t34.5 -27.5t38.5 -15.5t44.5 -6q63 0 97.5 39.5
t34.5 110.5q0 52 -23 96q-12 34 -12 46q0 22 15.5 35.5t40.5 13.5q35 0 55 -42zM233 281h232l-49 131l-66 172h-2z" />
    <glyph glyph-name="Acircumflex.fina" horiz-adv-x="1106" 
d="M224 772q-21 0 -34.5 14.5t-13.5 36.5q0 21 22 42l52 54q60 60 103 60q39 0 105 -64l50 -50q21 -20 21 -43q0 -21 -14 -35.5t-35 -14.5q-19 0 -33 14l-94 92h-2l-94 -93q-13 -13 -33 -13zM1034 298q34 -68 34 -148q0 -114 -63.5 -183t-178.5 -69t-187 70t-133 212h-311
l-52 -138q-9 -26 -20.5 -38t-33.5 -12q-33 0 -48.5 23.5t-3.5 50.5l210 547q24 65 44 90t59 25q21 0 35.5 -6t27 -24t20 -34.5t21.5 -53.5l64 -162q11 -29 28 -74.5t27 -71.5t25 -64t25.5 -59.5t26 -50.5t28.5 -45.5t30.5 -34.5t34.5 -27.5t38.5 -15.5t44.5 -6
q63 0 97.5 39.5t34.5 110.5q0 52 -23 96q-12 34 -12 46q0 22 15.5 35.5t40.5 13.5q35 0 55 -42zM233 281h232l-49 131l-66 172h-2z" />
    <glyph glyph-name="Adieresis.fina" horiz-adv-x="1106" 
d="M242 795q-35 0 -57 21t-22 55t22 54t57 20q34 0 55 -20t21 -54q0 -35 -21 -55.5t-55 -20.5zM468 795q-35 0 -57 21t-22 55t22 54t57 20q34 0 55 -20t21 -54q0 -35 -21 -55.5t-55 -20.5zM1034 298q34 -68 34 -148q0 -114 -63.5 -183t-178.5 -69t-187 70t-133 212h-311
l-52 -138q-9 -26 -20.5 -38t-33.5 -12q-33 0 -48.5 23.5t-3.5 50.5l210 547q24 65 44 90t59 25q21 0 35.5 -6t27 -24t20 -34.5t21.5 -53.5l64 -162q11 -29 28 -74.5t27 -71.5t25 -64t25.5 -59.5t26 -50.5t28.5 -45.5t30.5 -34.5t34.5 -27.5t38.5 -15.5t44.5 -6
q63 0 97.5 39.5t34.5 110.5q0 52 -23 96q-12 34 -12 46q0 22 15.5 35.5t40.5 13.5q35 0 55 -42zM233 281h232l-49 131l-66 172h-2z" />
    <glyph glyph-name="Agrave.fina" horiz-adv-x="1106" 
d="M205 904q-27 24 -27 55q0 26 18 43.5t43 17.5q27 0 52 -30l95 -115q14 -17 14 -40q0 -21 -15.5 -34.5t-34.5 -13.5q-14 0 -37 19zM1034 298q34 -68 34 -148q0 -114 -63.5 -183t-178.5 -69t-187 70t-133 212h-311l-52 -138q-9 -26 -20.5 -38t-33.5 -12q-33 0 -48.5 23.5
t-3.5 50.5l210 547q24 65 44 90t59 25q21 0 35.5 -6t27 -24t20 -34.5t21.5 -53.5l64 -162q11 -29 28 -74.5t27 -71.5t25 -64t25.5 -59.5t26 -50.5t28.5 -45.5t30.5 -34.5t34.5 -27.5t38.5 -15.5t44.5 -6q63 0 97.5 39.5t34.5 110.5q0 52 -23 96q-12 34 -12 46
q0 22 15.5 35.5t40.5 13.5q35 0 55 -42zM233 281h232l-49 131l-66 172h-2z" />
    <glyph glyph-name="Amacron.fina" horiz-adv-x="1106" 
d="M222 822q-21 0 -36 14.5t-15 36.5q0 21 15 36t36 15h263q21 0 36 -15t15 -37q0 -21 -15 -35.5t-36 -14.5h-263zM1034 298q34 -68 34 -148q0 -114 -63.5 -183t-178.5 -69t-187 70t-133 212h-311l-52 -138q-9 -26 -20.5 -38t-33.5 -12q-33 0 -48.5 23.5t-3.5 50.5l210 547
q24 65 44 90t59 25q21 0 35.5 -6t27 -24t20 -34.5t21.5 -53.5l64 -162q11 -29 28 -74.5t27 -71.5t25 -64t25.5 -59.5t26 -50.5t28.5 -45.5t30.5 -34.5t34.5 -27.5t38.5 -15.5t44.5 -6q63 0 97.5 39.5t34.5 110.5q0 52 -23 96q-12 34 -12 46q0 22 15.5 35.5t40.5 13.5
q35 0 55 -42zM233 281h232l-49 131l-66 172h-2z" />
    <glyph glyph-name="Aogonek.fina" horiz-adv-x="1106" 
d="M931 -83q-80 -60 -80 -126q0 -25 15 -39.5t42 -14.5q4 0 10.5 0.5t9.5 0.5q17 1 29 -11t12 -31q0 -24 -21 -35q-19 -10 -52 -10q-58 0 -98.5 34t-40.5 101q0 62 42 113q-103 8 -169 77.5t-124 203.5h-311l-52 -138q-9 -26 -20.5 -38t-33.5 -12q-33 0 -48.5 23.5
t-3.5 50.5l210 547q24 65 44 90t59 25q21 0 35.5 -6t27 -24t20 -34.5t21.5 -53.5l64 -162q11 -29 28 -74.5t27 -71.5t25 -64t25.5 -59.5t26 -50.5t28.5 -45.5t30.5 -34.5t34.5 -27.5t38.5 -15.5t44.5 -6q63 0 97.5 39.5t34.5 110.5q0 52 -23 96q-12 34 -12 46
q0 22 15.5 35.5t40.5 13.5q35 0 55 -42q34 -68 34 -148q0 -84 -35 -145t-102 -88zM233 281h232l-49 131l-66 172h-2z" />
    <glyph glyph-name="Aring.fina" horiz-adv-x="1106" 
d="M350 777q-50 0 -83 29.5t-33 81.5q0 53 33 82.5t83 29.5t84 -29.5t34 -82.5q0 -52 -34 -81.5t-84 -29.5zM350 928q-17 0 -28 -11t-11 -29t11 -29t28 -11t28.5 11t11.5 29t-11.5 29t-28.5 11zM1034 298q34 -68 34 -148q0 -114 -63.5 -183t-178.5 -69t-187 70t-133 212
h-311l-52 -138q-9 -26 -20.5 -38t-33.5 -12q-33 0 -48.5 23.5t-3.5 50.5l210 547q24 65 44 90t59 25q21 0 35.5 -6t27 -24t20 -34.5t21.5 -53.5l64 -162q11 -29 28 -74.5t27 -71.5t25 -64t25.5 -59.5t26 -50.5t28.5 -45.5t30.5 -34.5t34.5 -27.5t38.5 -15.5t44.5 -6
q63 0 97.5 39.5t34.5 110.5q0 52 -23 96q-12 34 -12 46q0 22 15.5 35.5t40.5 13.5q35 0 55 -42zM233 281h232l-49 131l-66 172h-2z" />
    <glyph glyph-name="H.fina" horiz-adv-x="1158" 
d="M1123 144q0 -112 -67 -179t-183 -67q-275 0 -275 355v56h-389v-256q0 -26 -14 -43.5t-42 -17.5t-42.5 17.5t-14.5 43.5v609q0 25 14.5 42.5t42.5 17.5t42 -17.5t14 -42.5l1 -251h387l1 251q0 25 14.5 42.5t42.5 17.5t42 -17.5t14 -42.5v-409q0 -254 162 -254q60 0 97 38
t37 107q0 50 -20 88q-12 32 -12 45q0 22 15.5 36.5t40.5 14.5q34 0 56 -42q36 -69 36 -142z" />
    <glyph glyph-name="K.fina" horiz-adv-x="1077" 
d="M1041 160q0 -119 -68 -190.5t-187 -71.5q-79 0 -141.5 25.5t-113.5 81t-91.5 126.5t-84.5 178h-146v-256q0 -26 -14 -43.5t-42 -17.5t-42.5 17.5t-14.5 43.5v614q0 26 14.5 43.5t42.5 17.5t42 -17.5t14 -43.5v-248h147l192 282q17 27 46 27q24 0 40 -17t16 -39
q0 -20 -9 -32l-195 -273q86 -199 162 -283.5t178 -84.5q62 0 100.5 42.5t38.5 118.5q0 50 -20 88q-12 32 -12 41q0 24 16 39t40 15q29 0 51 -31q41 -64 41 -152z" />
    <glyph glyph-name="uni0136.fina" horiz-adv-x="1077" 
d="M1041 160q0 -119 -68 -190.5t-187 -71.5q-79 0 -141.5 25.5t-113.5 81t-91.5 126.5t-84.5 178h-146v-256q0 -26 -14 -43.5t-42 -17.5t-42.5 17.5t-14.5 43.5v614q0 26 14.5 43.5t42.5 17.5t42 -17.5t14 -43.5v-248h147l192 282q17 27 46 27q24 0 40 -17t16 -39
q0 -20 -9 -32l-195 -273q86 -199 162 -283.5t178 -84.5q62 0 100.5 42.5t38.5 118.5q0 50 -20 88q-12 32 -12 41q0 24 16 39t40 15q29 0 51 -31q41 -64 41 -152zM339 -298q-19 0 -32 14t-10 35q11 84 12 150q0 20 15 34.5t37 14.5q25 0 39.5 -15.5t12.5 -37.5
q-5 -92 -31 -166q-12 -29 -43 -29z" />
    <glyph glyph-name="N.fina" horiz-adv-x="1151" 
d="M1117 592q0 -73 -36 -142q-22 -42 -56 -42q-25 0 -40.5 14.5t-15.5 36.5q0 13 12 45q19 36 19 88q0 69 -37 107t-97 38q-161 0 -161 -254v-419q0 -35 -16 -53.5t-44 -18.5q-27 0 -51 21.5t-71 88.5l-314 438h-2l2 -487q0 -26 -14 -43.5t-42 -17.5t-42.5 17.5t-14.5 43.5
v603q0 35 15.5 53.5t41.5 18.5q27 0 46 -15.5t52 -62.5l341 -476h2l-2 309q0 355 274 355q117 0 184 -67t67 -179z" />
    <glyph glyph-name="Nacute.fina" horiz-adv-x="1151" 
d="M361 875l94 115q26 30 52 30q25 0 43 -17.5t18 -43.5q0 -31 -27 -55l-108 -98q-23 -19 -37 -19q-19 0 -34.5 13.5t-15.5 34.5q0 23 15 40zM1117 592q0 -73 -36 -142q-22 -42 -56 -42q-25 0 -40.5 14.5t-15.5 36.5q0 13 12 45q19 36 19 88q0 69 -37 107t-97 38
q-161 0 -161 -254v-419q0 -35 -16 -53.5t-44 -18.5q-27 0 -51 21.5t-71 88.5l-314 438h-2l2 -487q0 -26 -14 -43.5t-42 -17.5t-42.5 17.5t-14.5 43.5v603q0 35 15.5 53.5t41.5 18.5q27 0 46 -15.5t52 -62.5l341 -476h2l-2 309q0 355 274 355q117 0 184 -67t67 -179z" />
    <glyph glyph-name="Ncaron.fina" horiz-adv-x="1151" 
d="M416 769q-41 0 -105 64l-50 50q-21 18 -21 42q0 21 14 36t35 15q18 0 33 -14l94 -93h2l93 94q16 13 34 13q20 0 34 -15t14 -36t-23 -42l-51 -55q-61 -59 -103 -59zM1117 592q0 -73 -36 -142q-22 -42 -56 -42q-25 0 -40.5 14.5t-15.5 36.5q0 13 12 45q19 36 19 88
q0 69 -37 107t-97 38q-161 0 -161 -254v-419q0 -35 -16 -53.5t-44 -18.5q-27 0 -51 21.5t-71 88.5l-314 438h-2l2 -487q0 -26 -14 -43.5t-42 -17.5t-42.5 17.5t-14.5 43.5v603q0 35 15.5 53.5t41.5 18.5q27 0 46 -15.5t52 -62.5l341 -476h2l-2 309q0 355 274 355
q117 0 184 -67t67 -179z" />
    <glyph glyph-name="uni0145.fina" horiz-adv-x="1151" 
d="M1117 592q0 -73 -36 -142q-22 -42 -56 -42q-25 0 -40.5 14.5t-15.5 36.5q0 13 12 45q19 36 19 88q0 69 -37 107t-97 38q-161 0 -161 -254v-419q0 -35 -16 -53.5t-44 -18.5q-27 0 -51 21.5t-71 88.5l-314 438h-2l2 -487q0 -26 -14 -43.5t-42 -17.5t-42.5 17.5t-14.5 43.5
v603q0 35 15.5 53.5t41.5 18.5q27 0 46 -15.5t52 -62.5l341 -476h2l-2 309q0 355 274 355q117 0 184 -67t67 -179zM377 -298q-19 0 -32 14t-10 35q10 70 12 150q0 20 15 34.5t37 14.5q25 0 39.5 -15.5t12.5 -37.5q-5 -92 -31 -166q-12 -29 -43 -29z" />
    <glyph glyph-name="Ntilde.fina" horiz-adv-x="1151" 
d="M325 955q40 0 73 -17.5t56.5 -35t38.5 -17.5q20 0 30 13.5t17 40.5q11 17 35 17q22 0 33.5 -15.5t11.5 -39.5q0 -49 -28.5 -84.5t-79.5 -35.5q-34 0 -67 19.5t-60 38.5t-47 19q-14 0 -23 -4t-14.5 -13t-7.5 -15t-5 -20q-10 -23 -36 -23q-22 0 -34 14t-12 35q0 51 31.5 87
t87.5 36zM1117 592q0 -73 -36 -142q-22 -42 -56 -42q-25 0 -40.5 14.5t-15.5 36.5q0 13 12 45q19 36 19 88q0 69 -37 107t-97 38q-161 0 -161 -254v-419q0 -35 -16 -53.5t-44 -18.5q-27 0 -51 21.5t-71 88.5l-314 438h-2l2 -487q0 -26 -14 -43.5t-42 -17.5t-42.5 17.5
t-14.5 43.5v603q0 35 15.5 53.5t41.5 18.5q27 0 46 -15.5t52 -62.5l341 -476h2l-2 309q0 355 274 355q117 0 184 -67t67 -179z" />
    <glyph glyph-name="R.fina" horiz-adv-x="1050" 
d="M1013 160q0 -119 -68 -190.5t-187 -71.5q-72 0 -130 24.5t-104 75.5t-81 113t-73 154h-161v-212q0 -26 -14 -43.5t-42 -17.5t-42.5 17.5t-14.5 43.5v617q0 58 59 58h199q131 0 205.5 -55.5t74.5 -176.5q0 -86 -42 -141.5t-111 -77.5q65 -146 128 -212t149 -66
q62 0 100 42.5t38 118.5q0 48 -19 88q-12 32 -12 41q0 24 16 39t39 15q30 0 51 -31q42 -65 42 -152zM209 630v-268h183q60 0 96.5 37t36.5 97q0 68 -45 101t-121 33h-150z" />
    <glyph glyph-name="Racute.fina" horiz-adv-x="1050" 
d="M300 873l95 115q25 30 52 30q25 0 43 -17.5t18 -43.5q0 -31 -27 -55l-108 -98q-23 -19 -37 -19q-19 0 -34.5 13.5t-15.5 34.5q0 23 14 40zM1013 160q0 -119 -68 -190.5t-187 -71.5q-72 0 -130 24.5t-104 75.5t-81 113t-73 154h-161v-212q0 -26 -14 -43.5t-42 -17.5
t-42.5 17.5t-14.5 43.5v617q0 58 59 58h199q131 0 205.5 -55.5t74.5 -176.5q0 -86 -42 -141.5t-111 -77.5q65 -146 128 -212t149 -66q62 0 100 42.5t38 118.5q0 48 -19 88q-12 32 -12 41q0 24 16 39t39 15q30 0 51 -31q42 -65 42 -152zM209 630v-268h183q60 0 96.5 37
t36.5 97q0 68 -45 101t-121 33h-150z" />
    <glyph glyph-name="Rcaron.fina" horiz-adv-x="1050" 
d="M356 767q-41 0 -105 64l-50 50q-21 18 -21 42q0 21 14 36t34 15q19 0 34 -14l93 -93h2l94 94q16 13 34 13q20 0 34 -15t14 -36t-23 -42l-51 -55q-61 -59 -103 -59zM1013 160q0 -119 -68 -190.5t-187 -71.5q-72 0 -130 24.5t-104 75.5t-81 113t-73 154h-161v-212
q0 -26 -14 -43.5t-42 -17.5t-42.5 17.5t-14.5 43.5v617q0 58 59 58h199q131 0 205.5 -55.5t74.5 -176.5q0 -86 -42 -141.5t-111 -77.5q65 -146 128 -212t149 -66q62 0 100 42.5t38 118.5q0 48 -19 88q-12 32 -12 41q0 24 16 39t39 15q30 0 51 -31q42 -65 42 -152zM209 630
v-268h183q60 0 96.5 37t36.5 97q0 68 -45 101t-121 33h-150z" />
    <glyph glyph-name="uni0156.fina" horiz-adv-x="1050" 
d="M1013 160q0 -119 -68 -190.5t-187 -71.5q-72 0 -130 24.5t-104 75.5t-81 113t-73 154h-161v-212q0 -26 -14 -43.5t-42 -17.5t-42.5 17.5t-14.5 43.5v617q0 58 59 58h199q131 0 205.5 -55.5t74.5 -176.5q0 -86 -42 -141.5t-111 -77.5q65 -146 128 -212t149 -66
q62 0 100 42.5t38 118.5q0 48 -19 88q-12 32 -12 41q0 24 16 39t39 15q30 0 51 -31q42 -65 42 -152zM209 630v-268h183q60 0 96.5 37t36.5 97q0 68 -45 101t-121 33h-150zM330 -298q-19 0 -32 14t-10 35q11 84 12 150q0 20 15 34.5t37 14.5q25 0 39.5 -15.5t12.5 -37.5
q-5 -92 -31 -166q-12 -29 -43 -29z" />
    <glyph glyph-name="A.init" horiz-adv-x="1109" 
d="M1073 66q11 -30 -4.5 -52t-47.5 -22q-22 0 -33.5 11.5t-21.5 38.5l-52 138h-311q-62 -141 -133 -211.5t-181 -70.5q-119 0 -185.5 71.5t-66.5 189.5q0 93 42 154q22 29 53 29q26 0 39.5 -14.5t13.5 -36.5q0 -8 -12 -42q-20 -40 -20 -90q0 -160 136 -160q24 0 45.5 6
t41 22t34.5 30t33 45.5t29.5 51.5t29.5 64.5t27.5 68.5t31 79t31.5 82l64 162q14 37 21.5 54t19.5 34.5t26.5 23.5t35.5 6q39 0 59 -24.5t45 -90.5zM644 281h232l-115 303h-2l-66 -172z" />
    <glyph glyph-name="Aacute.init" horiz-adv-x="1109" 
d="M742 787q-19 0 -34.5 13.5t-15.5 34.5q0 23 15 40l94 115q25 30 52 30q25 0 43 -17.5t18 -43.5q0 -31 -27 -55l-108 -98q-23 -19 -37 -19zM1073 66q11 -30 -4.5 -52t-47.5 -22q-22 0 -33.5 11.5t-21.5 38.5l-52 138h-311q-62 -141 -133 -211.5t-181 -70.5
q-119 0 -185.5 71.5t-66.5 189.5q0 93 42 154q22 29 53 29q26 0 39.5 -14.5t13.5 -36.5q0 -8 -12 -42q-20 -40 -20 -90q0 -160 136 -160q24 0 45.5 6t41 22t34.5 30t33 45.5t29.5 51.5t29.5 64.5t27.5 68.5t31 79t31.5 82l64 162q14 37 21.5 54t19.5 34.5t26.5 23.5t35.5 6
q39 0 59 -24.5t45 -90.5zM644 281h232l-115 303h-2l-66 -172z" />
    <glyph glyph-name="Abreve.init" horiz-adv-x="1109" 
d="M759 778q-72 0 -122 40t-51 105q0 22 14 38t37 16q17 0 30.5 -10.5t17.5 -26.5q13 -67 74 -67q63 0 74 67q5 16 18.5 26.5t30.5 10.5q24 0 37.5 -16t13.5 -38q-1 -66 -51.5 -105.5t-122.5 -39.5zM1073 66q11 -30 -4.5 -52t-47.5 -22q-22 0 -33.5 11.5t-21.5 38.5l-52 138
h-311q-62 -141 -133 -211.5t-181 -70.5q-119 0 -185.5 71.5t-66.5 189.5q0 93 42 154q22 29 53 29q26 0 39.5 -14.5t13.5 -36.5q0 -8 -12 -42q-20 -40 -20 -90q0 -160 136 -160q24 0 45.5 6t41 22t34.5 30t33 45.5t29.5 51.5t29.5 64.5t27.5 68.5t31 79t31.5 82l64 162
q14 37 21.5 54t19.5 34.5t26.5 23.5t35.5 6q39 0 59 -24.5t45 -90.5zM644 281h232l-115 303h-2l-66 -172z" />
    <glyph glyph-name="Acircumflex.init" horiz-adv-x="1109" 
d="M634 772q-20 0 -34 14.5t-14 36.5q0 21 23 42l51 54q60 60 103 60q39 0 105 -64l50 -50q21 -18 21 -43q0 -21 -14 -35.5t-34 -14.5q-19 0 -34 14l-93 92h-2l-94 -93q-14 -13 -34 -13zM1073 66q11 -30 -4.5 -52t-47.5 -22q-22 0 -33.5 11.5t-21.5 38.5l-52 138h-311
q-62 -141 -133 -211.5t-181 -70.5q-119 0 -185.5 71.5t-66.5 189.5q0 93 42 154q22 29 53 29q26 0 39.5 -14.5t13.5 -36.5q0 -8 -12 -42q-20 -40 -20 -90q0 -160 136 -160q24 0 45.5 6t41 22t34.5 30t33 45.5t29.5 51.5t29.5 64.5t27.5 68.5t31 79t31.5 82l64 162
q14 37 21.5 54t19.5 34.5t26.5 23.5t35.5 6q39 0 59 -24.5t45 -90.5zM644 281h232l-115 303h-2l-66 -172z" />
    <glyph glyph-name="Adieresis.init" horiz-adv-x="1109" 
d="M652 795q-35 0 -57 21t-22 55t22 54t57 20q34 0 55 -20t21 -54q0 -35 -21 -55.5t-55 -20.5zM878 795q-35 0 -57 21t-22 55t22 54t57 20q34 0 55 -20t21 -54q0 -35 -21 -55.5t-55 -20.5zM1073 66q11 -30 -4.5 -52t-47.5 -22q-22 0 -33.5 11.5t-21.5 38.5l-52 138h-311
q-62 -141 -133 -211.5t-181 -70.5q-119 0 -185.5 71.5t-66.5 189.5q0 93 42 154q22 29 53 29q26 0 39.5 -14.5t13.5 -36.5q0 -8 -12 -42q-20 -40 -20 -90q0 -160 136 -160q24 0 45.5 6t41 22t34.5 30t33 45.5t29.5 51.5t29.5 64.5t27.5 68.5t31 79t31.5 82l64 162
q14 37 21.5 54t19.5 34.5t26.5 23.5t35.5 6q39 0 59 -24.5t45 -90.5zM644 281h232l-115 303h-2l-66 -172z" />
    <glyph glyph-name="Agrave.init" horiz-adv-x="1109" 
d="M616 904q-27 23 -27 55q0 26 17.5 43.5t42.5 17.5q27 0 53 -30l94 -115q14 -17 14 -40q0 -21 -15 -34.5t-34 -13.5q-15 0 -38 19zM1073 66q11 -30 -4.5 -52t-47.5 -22q-22 0 -33.5 11.5t-21.5 38.5l-52 138h-311q-62 -141 -133 -211.5t-181 -70.5q-119 0 -185.5 71.5
t-66.5 189.5q0 93 42 154q22 29 53 29q26 0 39.5 -14.5t13.5 -36.5q0 -8 -12 -42q-20 -40 -20 -90q0 -160 136 -160q24 0 45.5 6t41 22t34.5 30t33 45.5t29.5 51.5t29.5 64.5t27.5 68.5t31 79t31.5 82l64 162q14 37 21.5 54t19.5 34.5t26.5 23.5t35.5 6q39 0 59 -24.5
t45 -90.5zM644 281h232l-115 303h-2l-66 -172z" />
    <glyph glyph-name="Amacron.init" horiz-adv-x="1109" 
d="M632 822q-21 0 -36 14.5t-15 36.5q0 21 15 36t36 15h263q21 0 36 -15t15 -37q0 -21 -15 -35.5t-36 -14.5h-263zM1073 66q11 -30 -4.5 -52t-47.5 -22q-22 0 -33.5 11.5t-21.5 38.5l-52 138h-311q-62 -141 -133 -211.5t-181 -70.5q-119 0 -185.5 71.5t-66.5 189.5
q0 93 42 154q22 29 53 29q26 0 39.5 -14.5t13.5 -36.5q0 -8 -12 -42q-20 -40 -20 -90q0 -160 136 -160q24 0 45.5 6t41 22t34.5 30t33 45.5t29.5 51.5t29.5 64.5t27.5 68.5t31 79t31.5 82l64 162q14 37 21.5 54t19.5 34.5t26.5 23.5t35.5 6q39 0 59 -24.5t45 -90.5zM644 281
h232l-115 303h-2l-66 -172z" />
    <glyph glyph-name="Aogonek.init" horiz-adv-x="1109" 
d="M1053 -175q18 0 29.5 -11.5t11.5 -30.5q0 -23 -21 -36q-22 -10 -52 -10q-58 0 -98.5 34t-40.5 101q0 93 89 157q-1 2 -2.5 6.5t-2.5 6.5l-52 138h-311q-62 -141 -133 -211.5t-181 -70.5q-119 0 -185.5 71.5t-66.5 189.5q0 93 42 154q22 29 53 29q26 0 39.5 -14.5
t13.5 -36.5q0 -8 -12 -42q-20 -40 -20 -90q0 -160 136 -160q24 0 45.5 6t41 22t34.5 30t33 45.5t29.5 51.5t29.5 64.5t27.5 68.5t31 79t31.5 82l64 162q14 37 21.5 54t19.5 34.5t26.5 23.5t35.5 6q39 0 59 -24.5t45 -90.5l210 -547q11 -30 -5 -52v-1q-8 -9 -18 -15
q-74 -54 -74 -121q0 -25 15 -39.5t42 -14.5q8 0 20 2zM644 281h232l-115 303h-2l-66 -172z" />
    <glyph glyph-name="Aring.init" horiz-adv-x="1109" 
d="M760 777q-50 0 -83 29.5t-33 81.5q0 53 33 82.5t83 29.5t84 -29.5t34 -82.5q0 -52 -34 -81.5t-84 -29.5zM760 928q-17 0 -28 -11t-11 -29t11 -29t28 -11t28.5 11t11.5 29t-11.5 29t-28.5 11zM1073 66q11 -30 -4.5 -52t-47.5 -22q-22 0 -33.5 11.5t-21.5 38.5l-52 138
h-311q-62 -141 -133 -211.5t-181 -70.5q-119 0 -185.5 71.5t-66.5 189.5q0 93 42 154q22 29 53 29q26 0 39.5 -14.5t13.5 -36.5q0 -8 -12 -42q-20 -40 -20 -90q0 -160 136 -160q24 0 45.5 6t41 22t34.5 30t33 45.5t29.5 51.5t29.5 64.5t27.5 68.5t31 79t31.5 82l64 162
q14 37 21.5 54t19.5 34.5t26.5 23.5t35.5 6q39 0 59 -24.5t45 -90.5zM644 281h232l-115 303h-2l-66 -172z" />
    <glyph glyph-name="Atilde.init" horiz-adv-x="1109" 
d="M598 783q-22 0 -34 14t-12 35q0 51 31.5 87t87.5 36q40 0 73 -17.5t56.5 -35t38.5 -17.5q20 0 30 13.5t17 40.5q11 17 35 17q22 0 33.5 -15.5t11.5 -39.5q0 -49 -28.5 -84.5t-79.5 -35.5q-34 0 -67 19.5t-60 38.5t-47 19q-14 0 -23 -4t-14.5 -13t-7.5 -15t-5 -20
q-10 -23 -36 -23zM1073 66q11 -30 -4.5 -52t-47.5 -22q-22 0 -33.5 11.5t-21.5 38.5l-52 138h-311q-62 -141 -133 -211.5t-181 -70.5q-119 0 -185.5 71.5t-66.5 189.5q0 93 42 154q22 29 53 29q26 0 39.5 -14.5t13.5 -36.5q0 -8 -12 -42q-20 -40 -20 -90q0 -160 136 -160
q24 0 45.5 6t41 22t34.5 30t33 45.5t29.5 51.5t29.5 64.5t27.5 68.5t31 79t31.5 82l64 162q14 37 21.5 54t19.5 34.5t26.5 23.5t35.5 6q39 0 59 -24.5t45 -90.5zM644 281h232l-115 303h-2l-66 -172z" />
    <glyph glyph-name="H.init" horiz-adv-x="1158" 
d="M36 570q0 112 67.5 179.5t184.5 67.5q136 0 204.5 -91t68.5 -265v-50h388v256q0 26 14 43.5t42 17.5t42.5 -17.5t14.5 -43.5v-614q0 -26 -14.5 -43.5t-42.5 -17.5t-42 17.5t-14 43.5v256h-388v-256q0 -26 -14.5 -43.5t-42.5 -17.5t-42 17.5t-14 43.5v408q0 117 -38 185.5
t-122 68.5q-60 0 -98 -38t-38 -107q0 -48 19 -88q13 -35 13 -45q0 -21 -16 -36t-41 -15q-34 0 -56 43q-35 67 -35 141z" />
    <glyph glyph-name="J.init" horiz-adv-x="651" 
d="M35 144q0 73 36 142q22 42 56 42q25 0 40.5 -14.5t15.5 -36.5q0 -13 -12 -45q-20 -38 -20 -88q0 -69 37.5 -107t97.5 -38q160 0 160 254v419q0 24 15.5 40t42.5 16q55 0 55 -56v-419q0 -174 -68 -264.5t-204 -90.5q-117 0 -184.5 67t-67.5 179z" />
    <glyph glyph-name="M.init" horiz-adv-x="1306" 
d="M35 129q0 93 42 154q21 29 53 29q26 0 39.5 -14.5t13.5 -36.5q0 -8 -12 -42q-20 -40 -20 -90q0 -65 31 -97.5t87 -32.5q23 0 43.5 8t37.5 27t31 39.5t25.5 56t20.5 65t17.5 78.5t14 84t12 94.5t10 97.5t9.5 104q3 32 23 53.5t52 21.5q34 0 53 -19.5t37 -74.5l168 -488h2
l212 488q23 55 44.5 74.5t54.5 19.5q36 0 55 -27t19 -69v-583q0 -24 -13 -40.5t-39 -16.5q-25 0 -38 16.5t-13 40.5v490h-2l-203 -456q-22 -51 -37.5 -71t-40.5 -20q-28 0 -43.5 20.5t-32.5 69.5l-164 457h-2q-5 -75 -9.5 -128.5t-15 -125t-24.5 -122t-37.5 -104t-54 -86.5
t-74.5 -54t-98 -21q-109 0 -171.5 62.5t-62.5 168.5z" />
    <glyph glyph-name="N.init" horiz-adv-x="1152" 
d="M35 144q0 73 36 142q22 42 56 42q25 0 40.5 -14.5t15.5 -36.5q0 -13 -12 -45q-20 -38 -20 -88q0 -69 38 -107t98 -38q160 0 160 254v403q0 35 15.5 53.5t41.5 18.5q27 0 46 -15.5t52 -62.5l341 -476h2l-2 493q0 26 14.5 43.5t42.5 17.5t42 -17.5t14 -43.5v-603
q0 -35 -16 -53.5t-44 -18.5q-27 0 -51 21.5t-71 88.5l-314 438h-2l2 -287q0 -173 -68.5 -264t-204.5 -91q-117 0 -184.5 67t-67.5 179z" />
    <glyph glyph-name="Nacute.init" horiz-adv-x="1152" 
d="M705 875l94 115q25 30 53 30q25 0 42.5 -17.5t17.5 -43.5q0 -32 -27 -55l-107 -98q-23 -19 -38 -19q-19 0 -34 13.5t-15 34.5q0 23 14 40zM35 144q0 73 36 142q22 42 56 42q25 0 40.5 -14.5t15.5 -36.5q0 -13 -12 -45q-20 -38 -20 -88q0 -69 38 -107t98 -38
q160 0 160 254v403q0 35 15.5 53.5t41.5 18.5q27 0 46 -15.5t52 -62.5l341 -476h2l-2 493q0 26 14.5 43.5t42.5 17.5t42 -17.5t14 -43.5v-603q0 -35 -16 -53.5t-44 -18.5q-27 0 -51 21.5t-71 88.5l-314 438h-2l2 -287q0 -173 -68.5 -264t-204.5 -91q-117 0 -184.5 67
t-67.5 179z" />
    <glyph glyph-name="Ncaron.init" horiz-adv-x="1152" 
d="M761 769q-42 0 -106 64l-49 50q-21 18 -21 42q0 21 14 36t34 15q19 0 34 -14l93 -93h2l94 94q16 13 33 13q21 0 34.5 -15t13.5 -36t-22 -42l-52 -55q-61 -59 -102 -59zM35 144q0 73 36 142q22 42 56 42q25 0 40.5 -14.5t15.5 -36.5q0 -13 -12 -45q-20 -38 -20 -88
q0 -69 38 -107t98 -38q160 0 160 254v403q0 35 15.5 53.5t41.5 18.5q27 0 46 -15.5t52 -62.5l341 -476h2l-2 493q0 26 14.5 43.5t42.5 17.5t42 -17.5t14 -43.5v-603q0 -35 -16 -53.5t-44 -18.5q-27 0 -51 21.5t-71 88.5l-314 438h-2l2 -287q0 -173 -68.5 -264t-204.5 -91
q-117 0 -184.5 67t-67.5 179z" />
    <glyph glyph-name="uni0145.init" horiz-adv-x="1152" 
d="M35 144q0 73 36 142q22 42 56 42q25 0 40.5 -14.5t15.5 -36.5q0 -13 -12 -45q-20 -38 -20 -88q0 -69 38 -107t98 -38q160 0 160 254v403q0 35 15.5 53.5t41.5 18.5q27 0 46 -15.5t52 -62.5l341 -476h2l-2 493q0 26 14.5 43.5t42.5 17.5t42 -17.5t14 -43.5v-603
q0 -35 -16 -53.5t-44 -18.5q-27 0 -51 21.5t-71 88.5l-314 438h-2l2 -287q0 -173 -68.5 -264t-204.5 -91q-117 0 -184.5 67t-67.5 179zM703 -298q-19 0 -32 14t-10 35q11 84 12 150q0 20 15 34.5t37 14.5q25 0 39.5 -15.5t12.5 -37.5q-5 -93 -32 -166q-10 -29 -42 -29z" />
    <glyph glyph-name="Ntilde.init" horiz-adv-x="1152" 
d="M669 955q40 0 73.5 -17.5t57 -35t38.5 -17.5q20 0 29.5 13.5t17.5 40.5q11 17 35 17q22 0 33.5 -15.5t11.5 -39.5q0 -49 -29 -84.5t-80 -35.5q-34 0 -66.5 19.5t-59.5 38.5t-47 19q-18 0 -29 -8.5t-14.5 -17.5t-7.5 -26q-8 -23 -35 -23q-22 0 -34 14t-12 35q0 51 31 87
t87 36zM35 144q0 73 36 142q22 42 56 42q25 0 40.5 -14.5t15.5 -36.5q0 -13 -12 -45q-20 -38 -20 -88q0 -69 38 -107t98 -38q160 0 160 254v403q0 35 15.5 53.5t41.5 18.5q27 0 46 -15.5t52 -62.5l341 -476h2l-2 493q0 26 14.5 43.5t42.5 17.5t42 -17.5t14 -43.5v-603
q0 -35 -16 -53.5t-44 -18.5q-27 0 -51 21.5t-71 88.5l-314 438h-2l2 -287q0 -173 -68.5 -264t-204.5 -91q-117 0 -184.5 67t-67.5 179z" />
    <glyph glyph-name="T.init" horiz-adv-x="911" 
d="M284 325q41 0 79 19q24 10 36 10q21 0 34 -14t13 -37q0 -29 -30 -47q-54 -32 -132 -32q-117 0 -181.5 65t-64.5 171q0 125 83 196.5t250 71.5h471q21 0 36 -15t15 -36t-14.5 -35.5t-34.5 -14.5h-170l-1 -574q0 -26 -14 -43.5t-42 -17.5t-42.5 17.5t-14.5 43.5l-2 574
h-174q-230 0 -230 -167q0 -56 32 -95.5t98 -39.5z" />
    <glyph glyph-name="Tcaron.init" horiz-adv-x="903" 
d="M615 769q-41 0 -105 64l-50 50q-21 18 -21 42q0 21 14 36t34 15q19 0 34 -14l94 -93h2l93 94q16 13 34 13q20 0 34 -15t14 -36t-23 -42l-51 -55q-61 -59 -103 -59zM284 325q41 0 79 19q24 10 36 10q21 0 34 -14t13 -37q0 -29 -30 -47q-54 -32 -132 -32q-117 0 -181.5 65
t-64.5 171q0 125 83 196.5t250 71.5h471q21 0 36 -15t15 -36t-14.5 -35.5t-34.5 -14.5h-170l-1 -574q0 -26 -14 -43.5t-42 -17.5t-42.5 17.5t-14.5 43.5l-2 574h-174q-230 0 -230 -167q0 -56 32 -95.5t98 -39.5z" />
    <glyph glyph-name="uni0162.init" horiz-adv-x="903" 
d="M842 728q21 0 36 -15t15 -36t-14.5 -35.5t-34.5 -14.5h-170l-1 -574q0 -30 -18 -47l-8 -26q4 0 11 -1.5t24.5 -9t31 -18t24.5 -32t11 -49.5q0 -50 -36.5 -83t-104.5 -33q-47 0 -82 21q-28 15 -28 42q0 20 11.5 31t26.5 11q8 0 28 -9.5t36 -9.5q51 0 51 44q0 42 -62 42
q-20 1 -27.5 8.5t-2.5 31.5l11 40q0 1 1 3t1 3q-12 18 -12 41l-2 574h-174q-230 0 -230 -167q0 -56 32 -95.5t98 -39.5q41 0 79 19q24 10 36 10q21 0 34 -14t13 -37q0 -29 -30 -47q-54 -32 -132 -32q-117 0 -181.5 65t-64.5 171q0 125 83 196.5t250 71.5h471z" />
    <glyph glyph-name="uni021A.init" horiz-adv-x="903" 
d="M284 325q41 0 79 19q24 10 36 10q21 0 34 -14t13 -37q0 -29 -30 -47q-54 -32 -132 -32q-117 0 -181.5 65t-64.5 171q0 125 83 196.5t250 71.5h471q21 0 36 -15t15 -36t-14.5 -35.5t-34.5 -14.5h-170l-1 -574q0 -26 -14 -43.5t-42 -17.5t-42.5 17.5t-14.5 43.5l-2 574
h-174q-230 0 -230 -167q0 -56 32 -95.5t98 -39.5zM592 -285q-19 0 -32 14t-11 35q12 78 13 151q0 20 15 34t37 14q25 0 39.5 -15.5t12.5 -37.5q-5 -89 -32 -166q-10 -29 -42 -29z" />
    <glyph glyph-name="U.init" horiz-adv-x="1136" 
d="M34 601q0 112 67.5 179.5t184.5 67.5q264 0 264 -349v-207q0 -95 47 -151t145 -56t145.5 56.5t47.5 150.5v375q0 26 14 43.5t42 17.5t42.5 -17.5t14.5 -43.5v-374q0 -142 -77.5 -225.5t-228.5 -83.5t-228 83t-77 226v206q0 247 -152 247q-60 0 -97.5 -38t-37.5 -107
q0 -48 19 -88q13 -35 13 -45q0 -21 -16 -36t-41 -15q-34 0 -56 43q-35 67 -35 141z" />
    <glyph glyph-name="Uacute.init" horiz-adv-x="1136" 
d="M688 875l94 115q26 30 52 30q25 0 43 -17.5t18 -43.5q0 -32 -27 -55l-107 -98q-23 -19 -38 -19q-19 0 -34.5 13.5t-15.5 34.5t15 40zM34 601q0 112 67.5 179.5t184.5 67.5q264 0 264 -349v-207q0 -95 47 -151t145 -56t145.5 56.5t47.5 150.5v375q0 26 14 43.5t42 17.5
t42.5 -17.5t14.5 -43.5v-374q0 -142 -77.5 -225.5t-228.5 -83.5t-228 83t-77 226v206q0 247 -152 247q-60 0 -97.5 -38t-37.5 -107q0 -48 19 -88q13 -35 13 -45q0 -21 -16 -36t-41 -15q-34 0 -56 43q-35 67 -35 141z" />
    <glyph glyph-name="Ucircumflex.init" horiz-adv-x="1136" 
d="M615 772q-20 0 -34 14.5t-14 36.5q0 21 23 42l51 54q62 60 103 60q39 0 105 -64l50 -50q21 -18 21 -43q0 -21 -14 -35.5t-34 -14.5q-19 0 -34 14l-93 92h-2l-94 -93q-14 -13 -34 -13zM34 601q0 112 67.5 179.5t184.5 67.5q264 0 264 -349v-207q0 -95 47 -151t145 -56
t145.5 56.5t47.5 150.5v375q0 26 14 43.5t42 17.5t42.5 -17.5t14.5 -43.5v-374q0 -142 -77.5 -225.5t-228.5 -83.5t-228 83t-77 226v206q0 247 -152 247q-60 0 -97.5 -38t-37.5 -107q0 -48 19 -88q13 -35 13 -45q0 -21 -16 -36t-41 -15q-34 0 -56 43q-35 67 -35 141z" />
    <glyph glyph-name="Udieresis.init" horiz-adv-x="1136" 
d="M633 795q-35 0 -57 21t-22 55t22 54t57 20q34 0 55 -20t21 -54q0 -35 -20.5 -55.5t-55.5 -20.5zM859 795q-35 0 -57 21t-22 55t22 54t57 20q34 0 55 -20t21 -54q0 -35 -20.5 -55.5t-55.5 -20.5zM34 601q0 112 67.5 179.5t184.5 67.5q264 0 264 -349v-207q0 -95 47 -151
t145 -56t145.5 56.5t47.5 150.5v375q0 26 14 43.5t42 17.5t42.5 -17.5t14.5 -43.5v-374q0 -142 -77.5 -225.5t-228.5 -83.5t-228 83t-77 226v206q0 247 -152 247q-60 0 -97.5 -38t-37.5 -107q0 -48 19 -88q13 -35 13 -45q0 -21 -16 -36t-41 -15q-34 0 -56 43q-35 67 -35 141
z" />
    <glyph glyph-name="Ugrave.init" horiz-adv-x="1136" 
d="M683 990l94 -115q14 -17 14 -40q0 -21 -15 -34.5t-34 -13.5q-15 0 -38 19l-107 98q-27 23 -27 55q0 26 18 43.5t43 17.5q27 0 52 -30zM34 601q0 112 67.5 179.5t184.5 67.5q264 0 264 -349v-207q0 -95 47 -151t145 -56t145.5 56.5t47.5 150.5v375q0 26 14 43.5t42 17.5
t42.5 -17.5t14.5 -43.5v-374q0 -142 -77.5 -225.5t-228.5 -83.5t-228 83t-77 226v206q0 247 -152 247q-60 0 -97.5 -38t-37.5 -107q0 -48 19 -88q13 -35 13 -45q0 -21 -16 -36t-41 -15q-34 0 -56 43q-35 67 -35 141z" />
    <glyph glyph-name="Uhungarumlaut.init" horiz-adv-x="1136" 
d="M653 766q-22 0 -38.5 16t-16.5 40q0 22 12 41l54 99q22 39 57 39q26 0 45.5 -19t19.5 -46q0 -23 -14 -42l-66 -95q-27 -33 -53 -33zM860 766q-23 0 -39 16t-16 40q0 21 11 41l54 99q24 39 57 39q27 0 46 -19t19 -46q0 -23 -14 -42l-66 -95q-25 -33 -52 -33zM34 601
q0 112 67.5 179.5t184.5 67.5q264 0 264 -349v-207q0 -95 47 -151t145 -56t145.5 56.5t47.5 150.5v375q0 26 14 43.5t42 17.5t42.5 -17.5t14.5 -43.5v-374q0 -142 -77.5 -225.5t-228.5 -83.5t-228 83t-77 226v206q0 247 -152 247q-60 0 -97.5 -38t-37.5 -107q0 -48 19 -88
q13 -35 13 -45q0 -21 -16 -36t-41 -15q-34 0 -56 43q-35 67 -35 141z" />
    <glyph glyph-name="Umacron.init" horiz-adv-x="1136" 
d="M877 822h-264q-21 0 -36 15t-15 36t15.5 36t35.5 15h264q20 0 35 -15t15 -37q0 -21 -15 -35.5t-35 -14.5zM34 601q0 112 67.5 179.5t184.5 67.5q264 0 264 -349v-207q0 -95 47 -151t145 -56t145.5 56.5t47.5 150.5v375q0 26 14 43.5t42 17.5t42.5 -17.5t14.5 -43.5v-374
q0 -142 -77.5 -225.5t-228.5 -83.5t-228 83t-77 226v206q0 247 -152 247q-60 0 -97.5 -38t-37.5 -107q0 -48 19 -88q13 -35 13 -45q0 -21 -16 -36t-41 -15q-34 0 -56 43q-35 67 -35 141z" />
    <glyph glyph-name="Uogonek.init" horiz-adv-x="1136" 
d="M991 728q28 0 42.5 -17.5t14.5 -43.5v-374q0 -125 -60.5 -205.5t-178.5 -98.5q-83 -60 -83 -128q0 -25 15 -39.5t42 -14.5q4 0 10.5 0.5t9.5 0.5q18 0 29.5 -11.5t11.5 -30.5q0 -24 -21 -35q-19 -10 -52 -10q-58 0 -98.5 33.5t-40.5 101.5q0 73 58 131q-125 14 -189 95
t-64 211v206q0 247 -152 247q-60 0 -97.5 -38t-37.5 -107q0 -48 19 -88q13 -35 13 -45q0 -21 -16 -36t-41 -15q-34 0 -56 43q-35 67 -35 141q0 112 67.5 179.5t184.5 67.5q264 0 264 -349v-207q0 -95 47 -151t145 -56t145.5 56.5t47.5 150.5v375q0 26 14 43.5t42 17.5z" />
    <glyph glyph-name="Uring.init" horiz-adv-x="1136" 
d="M736 777q-50 0 -83 29.5t-33 81.5q0 53 33 82.5t83 29.5t83.5 -29.5t33.5 -82.5q0 -52 -33.5 -81.5t-83.5 -29.5zM736 848q17 0 28 11t11 29t-11 29t-28 11t-28 -11t-11 -29t11 -29t28 -11zM34 601q0 112 67.5 179.5t184.5 67.5q264 0 264 -349v-207q0 -95 47 -151
t145 -56t145.5 56.5t47.5 150.5v375q0 26 14 43.5t42 17.5t42.5 -17.5t14.5 -43.5v-374q0 -142 -77.5 -225.5t-228.5 -83.5t-228 83t-77 226v206q0 247 -152 247q-60 0 -97.5 -38t-37.5 -107q0 -48 19 -88q13 -35 13 -45q0 -21 -16 -36t-41 -15q-34 0 -56 43q-35 67 -35 141
z" />
    <glyph glyph-name="Utilde.init" horiz-adv-x="1136" 
d="M652 955q40 0 73 -17.5t56.5 -35t39.5 -17.5q20 0 29.5 13.5t17.5 40.5q9 17 34 17q22 0 33.5 -15.5t11.5 -39.5q0 -49 -28.5 -84.5t-79.5 -35.5q-34 0 -67 19.5t-60 38.5t-47 19q-14 0 -23 -4t-14.5 -13t-7.5 -15t-5 -20q-10 -23 -36 -23q-22 0 -33.5 14t-11.5 35
q0 51 31 87t87 36zM34 601q0 112 67.5 179.5t184.5 67.5q264 0 264 -349v-207q0 -95 47 -151t145 -56t145.5 56.5t47.5 150.5v375q0 26 14 43.5t42 17.5t42.5 -17.5t14.5 -43.5v-374q0 -142 -77.5 -225.5t-228.5 -83.5t-228 83t-77 226v206q0 247 -152 247q-60 0 -97.5 -38
t-37.5 -107q0 -48 19 -88q13 -35 13 -45q0 -21 -16 -36t-41 -15q-34 0 -56 43q-35 67 -35 141z" />
    <glyph glyph-name="V.init" horiz-adv-x="1121" 
d="M35 581q0 105 64.5 174t181.5 69q51 0 92 -13.5t74.5 -44.5t59.5 -65.5t52 -92t46 -107.5t48 -127q21 -57 32 -87l70 -181h2l220 573q10 26 21.5 37.5t33.5 11.5q32 0 48 -22.5t4 -51.5l-219 -537q-30 -73 -50.5 -99t-57.5 -26q-35 0 -55 22.5t-46 82.5l-64 161
q-106 274 -145 345q-48 89 -104 110q-26 10 -63 10q-64 0 -98 -40t-34 -102t31 -112q8 -14 8 -28q0 -24 -15 -39t-40 -15q-30 0 -49 29q-48 70 -48 165z" />
    <glyph glyph-name="W.init" horiz-adv-x="1468" 
d="M35 581q0 105 64.5 174t181.5 69q44 0 80.5 -10t66.5 -28.5t56.5 -52t48.5 -72.5t44.5 -98.5t42 -121t44.5 -148.5l51 -175h2l139 513q14 57 33 77t53 20t53 -20t32 -76l139 -514h2l153 565q6 24 18.5 33.5t36.5 9.5q32 0 48 -22.5t8 -51.5l-167 -546q-20 -67 -42 -90.5
t-56 -23.5q-39 0 -61 24.5t-38 91.5l-125 448h-2l-126 -449q-16 -64 -38.5 -89t-59.5 -25t-59 23.5t-40 88.5l-53 171q-20 70 -32 110.5t-30.5 94.5t-33.5 84.5t-36 65t-42.5 52t-50 29t-60.5 11.5q-64 0 -98 -40t-34 -102t31 -112q8 -14 8 -28q0 -23 -16.5 -38.5
t-38.5 -15.5q-29 0 -44 23q-53 79 -53 171z" />
    <glyph glyph-name="Wacute.init" horiz-adv-x="1468" 
d="M888 875l94 115q25 30 52 30q25 0 43 -17.5t18 -43.5q0 -32 -27 -55l-107 -98q-23 -19 -38 -19q-19 0 -34 13.5t-15 34.5q0 23 14 40zM35 581q0 105 64.5 174t181.5 69q44 0 80.5 -10t66.5 -28.5t56.5 -52t48.5 -72.5t44.5 -98.5t42 -121t44.5 -148.5l51 -175h2l139 513
q14 57 33 77t53 20t53 -20t32 -76l139 -514h2l153 565q6 24 18.5 33.5t36.5 9.5q32 0 48 -22.5t8 -51.5l-167 -546q-20 -67 -42 -90.5t-56 -23.5q-39 0 -61 24.5t-38 91.5l-125 448h-2l-126 -449q-16 -64 -38.5 -89t-59.5 -25t-59 23.5t-40 88.5l-53 171q-20 70 -32 110.5
t-30.5 94.5t-33.5 84.5t-36 65t-42.5 52t-50 29t-60.5 11.5q-64 0 -98 -40t-34 -102t31 -112q8 -14 8 -28q0 -23 -16.5 -38.5t-38.5 -15.5q-29 0 -44 23q-53 79 -53 171z" />
    <glyph glyph-name="Wcircumflex.init" horiz-adv-x="1468" 
d="M816 772q-21 0 -34.5 14.5t-13.5 36.5q0 21 22 42l52 54q60 60 102 60q40 0 106 -64l50 -50q20 -19 20 -43q0 -21 -13.5 -35.5t-34.5 -14.5q-19 0 -34 14l-93 92h-2l-94 -93q-13 -13 -33 -13zM35 581q0 105 64.5 174t181.5 69q44 0 80.5 -10t66.5 -28.5t56.5 -52
t48.5 -72.5t44.5 -98.5t42 -121t44.5 -148.5l51 -175h2l139 513q14 57 33 77t53 20t53 -20t32 -76l139 -514h2l153 565q6 24 18.5 33.5t36.5 9.5q32 0 48 -22.5t8 -51.5l-167 -546q-20 -67 -42 -90.5t-56 -23.5q-39 0 -61 24.5t-38 91.5l-125 448h-2l-126 -449
q-16 -64 -38.5 -89t-59.5 -25t-59 23.5t-40 88.5l-53 171q-20 70 -32 110.5t-30.5 94.5t-33.5 84.5t-36 65t-42.5 52t-50 29t-60.5 11.5q-64 0 -98 -40t-34 -102t31 -112q8 -14 8 -28q0 -23 -16.5 -38.5t-38.5 -15.5q-29 0 -44 23q-53 79 -53 171z" />
    <glyph glyph-name="Wdieresis.init" horiz-adv-x="1468" 
d="M833 795q-35 0 -56.5 21t-21.5 55t21.5 54t56.5 20q34 0 55.5 -20t21.5 -54q0 -35 -21 -55.5t-56 -20.5zM1059 795q-35 0 -56.5 21t-21.5 55t21.5 54t56.5 20q34 0 55.5 -20t21.5 -54q0 -35 -21 -55.5t-56 -20.5zM35 581q0 105 64.5 174t181.5 69q44 0 80.5 -10
t66.5 -28.5t56.5 -52t48.5 -72.5t44.5 -98.5t42 -121t44.5 -148.5l51 -175h2l139 513q14 57 33 77t53 20t53 -20t32 -76l139 -514h2l153 565q6 24 18.5 33.5t36.5 9.5q32 0 48 -22.5t8 -51.5l-167 -546q-20 -67 -42 -90.5t-56 -23.5q-39 0 -61 24.5t-38 91.5l-125 448h-2
l-126 -449q-16 -64 -38.5 -89t-59.5 -25t-59 23.5t-40 88.5l-53 171q-20 70 -32 110.5t-30.5 94.5t-33.5 84.5t-36 65t-42.5 52t-50 29t-60.5 11.5q-64 0 -98 -40t-34 -102t31 -112q8 -14 8 -28q0 -23 -16.5 -38.5t-38.5 -15.5q-29 0 -44 23q-53 79 -53 171z" />
    <glyph glyph-name="Wgrave.init" horiz-adv-x="1468" 
d="M883 990l94 -115q15 -19 15 -40t-15.5 -34.5t-34.5 -13.5q-15 0 -38 19l-107 98q-27 24 -27 55q0 26 18 43.5t43 17.5q26 0 52 -30zM35 581q0 105 64.5 174t181.5 69q44 0 80.5 -10t66.5 -28.5t56.5 -52t48.5 -72.5t44.5 -98.5t42 -121t44.5 -148.5l51 -175h2l139 513
q14 57 33 77t53 20t53 -20t32 -76l139 -514h2l153 565q6 24 18.5 33.5t36.5 9.5q32 0 48 -22.5t8 -51.5l-167 -546q-20 -67 -42 -90.5t-56 -23.5q-39 0 -61 24.5t-38 91.5l-125 448h-2l-126 -449q-16 -64 -38.5 -89t-59.5 -25t-59 23.5t-40 88.5l-53 171q-20 70 -32 110.5
t-30.5 94.5t-33.5 84.5t-36 65t-42.5 52t-50 29t-60.5 11.5q-64 0 -98 -40t-34 -102t31 -112q8 -14 8 -28q0 -23 -16.5 -38.5t-38.5 -15.5q-29 0 -44 23q-53 79 -53 171z" />
    <glyph glyph-name="i.loclTRK" horiz-adv-x="272" 
d="M136 582q-38 0 -62 23.5t-24 60.5q0 38 23.5 60t62.5 22q38 0 61 -22t23 -60t-23 -61t-61 -23zM136 -8q-28 0 -42 17.5t-14 43.5v393q0 26 14 43.5t42 17.5t42.5 -17.5t14.5 -43.5v-393q0 -26 -14.5 -43.5t-42.5 -17.5z" />
    <glyph glyph-name="a.fina" horiz-adv-x="899" 
d="M885 -12q0 -106 -58 -170t-173 -64q-123 0 -187.5 84.5t-64.5 221.5v17h-2q-67 -93 -182 -93q-87 0 -135.5 40t-48.5 115q0 77 57.5 121.5t142.5 44.5t155 -40q0 76 -35.5 110.5t-107.5 34.5q-40 0 -89 -14q-28 -7 -33 -7q-45 0 -45 47q0 36 44 55q57 24 140 24
q72 0 120.5 -22t73 -64.5t33.5 -89.5t9 -112v-123q0 -249 151 -249q59 0 90.5 34t31.5 99q0 52 -22 96q-11 28 -11 40q0 23 16 37t40 14q26 0 45 -25q45 -64 45 -162zM243 73q55 0 98 36t48 80q-57 36 -122 36q-53 0 -84.5 -21t-31.5 -59q0 -72 92 -72z" />
    <glyph glyph-name="aacute.fina" horiz-adv-x="899" 
d="M227 669l94 115q24 30 52 30q25 0 43 -17t18 -44q0 -32 -27 -54l-107 -99q-23 -19 -38 -19q-19 0 -34 13.5t-15 35.5q0 23 14 39zM885 -12q0 -106 -58 -170t-173 -64q-123 0 -187.5 84.5t-64.5 221.5v17h-2q-67 -93 -182 -93q-87 0 -135.5 40t-48.5 115q0 77 57.5 121.5
t142.5 44.5t155 -40q0 76 -35.5 110.5t-107.5 34.5q-40 0 -89 -14q-28 -7 -33 -7q-45 0 -45 47q0 36 44 55q57 24 140 24q72 0 120.5 -22t73 -64.5t33.5 -89.5t9 -112v-123q0 -249 151 -249q59 0 90.5 34t31.5 99q0 52 -22 96q-11 28 -11 40q0 23 16 37t40 14q26 0 45 -25
q45 -64 45 -162zM243 73q55 0 98 36t48 80q-57 36 -122 36q-53 0 -84.5 -21t-31.5 -59q0 -72 92 -72z" />
    <glyph glyph-name="abreve.fina" horiz-adv-x="899" 
d="M280 667q63 0 73 68q5 16 18.5 26.5t30.5 10.5q24 0 37.5 -16t13.5 -39q-1 -65 -51 -104.5t-122 -39.5q-73 0 -122.5 39.5t-50.5 104.5q0 22 13.5 38.5t36.5 16.5q38 0 49 -37q11 -68 74 -68zM885 -12q0 -106 -58 -170t-173 -64q-123 0 -187.5 84.5t-64.5 221.5v17h-2
q-67 -93 -182 -93q-87 0 -135.5 40t-48.5 115q0 77 57.5 121.5t142.5 44.5t155 -40q0 76 -35.5 110.5t-107.5 34.5q-40 0 -89 -14q-28 -7 -33 -7q-45 0 -45 47q0 36 44 55q57 24 140 24q72 0 120.5 -22t73 -64.5t33.5 -89.5t9 -112v-123q0 -249 151 -249q59 0 90.5 34
t31.5 99q0 52 -22 96q-11 28 -11 40q0 23 16 37t40 14q26 0 45 -25q45 -64 45 -162zM243 73q55 0 98 36t48 80q-57 36 -122 36q-53 0 -84.5 -21t-31.5 -59q0 -72 92 -72z" />
    <glyph glyph-name="acircumflex.fina" horiz-adv-x="899" 
d="M155 566q-21 0 -34.5 15t-13.5 36t22 43l52 54q59 59 102 59q41 0 106 -63l49 -51q21 -17 21 -42q0 -21 -14 -36t-34 -15q-19 0 -34 15l-93 92h-2l-94 -93q-15 -14 -33 -14zM885 -12q0 -106 -58 -170t-173 -64q-123 0 -187.5 84.5t-64.5 221.5v17h-2q-67 -93 -182 -93
q-87 0 -135.5 40t-48.5 115q0 77 57.5 121.5t142.5 44.5t155 -40q0 76 -35.5 110.5t-107.5 34.5q-40 0 -89 -14q-28 -7 -33 -7q-45 0 -45 47q0 36 44 55q57 24 140 24q72 0 120.5 -22t73 -64.5t33.5 -89.5t9 -112v-123q0 -249 151 -249q59 0 90.5 34t31.5 99q0 52 -22 96
q-11 28 -11 40q0 23 16 37t40 14q26 0 45 -25q45 -64 45 -162zM243 73q55 0 98 36t48 80q-57 36 -122 36q-53 0 -84.5 -21t-31.5 -59q0 -72 92 -72z" />
    <glyph glyph-name="adieresis.fina" horiz-adv-x="899" 
d="M172 589q-35 0 -57 21.5t-22 55.5q0 33 22 53.5t57 20.5q34 0 55 -20t21 -54q0 -35 -20.5 -56t-55.5 -21zM398 589q-35 0 -56.5 21.5t-21.5 55.5t21.5 54t56.5 20q34 0 55.5 -20.5t21.5 -53.5q0 -35 -21 -56t-56 -21zM885 -12q0 -106 -58 -170t-173 -64
q-123 0 -187.5 84.5t-64.5 221.5v17h-2q-67 -93 -182 -93q-87 0 -135.5 40t-48.5 115q0 77 57.5 121.5t142.5 44.5t155 -40q0 76 -35.5 110.5t-107.5 34.5q-40 0 -89 -14q-28 -7 -33 -7q-45 0 -45 47q0 36 44 55q57 24 140 24q72 0 120.5 -22t73 -64.5t33.5 -89.5t9 -112
v-123q0 -249 151 -249q59 0 90.5 34t31.5 99q0 52 -22 96q-11 28 -11 40q0 23 16 37t40 14q26 0 45 -25q45 -64 45 -162zM243 73q55 0 98 36t48 80q-57 36 -122 36q-53 0 -84.5 -21t-31.5 -59q0 -72 92 -72z" />
    <glyph glyph-name="agrave.fina" horiz-adv-x="899" 
d="M222 784l94 -115q14 -16 14 -39q0 -22 -15 -35.5t-34 -13.5q-15 0 -38 19l-107 99q-27 22 -27 54q0 27 18 44t43 17q28 0 52 -30zM885 -12q0 -106 -58 -170t-173 -64q-123 0 -187.5 84.5t-64.5 221.5v17h-2q-67 -93 -182 -93q-87 0 -135.5 40t-48.5 115q0 77 57.5 121.5
t142.5 44.5t155 -40q0 76 -35.5 110.5t-107.5 34.5q-40 0 -89 -14q-28 -7 -33 -7q-45 0 -45 47q0 36 44 55q57 24 140 24q72 0 120.5 -22t73 -64.5t33.5 -89.5t9 -112v-123q0 -249 151 -249q59 0 90.5 34t31.5 99q0 52 -22 96q-11 28 -11 40q0 23 16 37t40 14q26 0 45 -25
q45 -64 45 -162zM243 73q55 0 98 36t48 80q-57 36 -122 36q-53 0 -84.5 -21t-31.5 -59q0 -72 92 -72z" />
    <glyph glyph-name="amacron.fina" horiz-adv-x="899" 
d="M416 616h-264q-20 0 -35 15t-15 37q0 20 15 35t35 15h264q20 0 35 -15t15 -36t-15 -36t-35 -15zM885 -12q0 -106 -58 -170t-173 -64q-123 0 -187.5 84.5t-64.5 221.5v17h-2q-67 -93 -182 -93q-87 0 -135.5 40t-48.5 115q0 77 57.5 121.5t142.5 44.5t155 -40
q0 76 -35.5 110.5t-107.5 34.5q-40 0 -89 -14q-28 -7 -33 -7q-45 0 -45 47q0 36 44 55q57 24 140 24q72 0 120.5 -22t73 -64.5t33.5 -89.5t9 -112v-123q0 -249 151 -249q59 0 90.5 34t31.5 99q0 52 -22 96q-11 28 -11 40q0 23 16 37t40 14q26 0 45 -25q45 -64 45 -162z
M243 73q55 0 98 36t48 80q-57 36 -122 36q-53 0 -84.5 -21t-31.5 -59q0 -72 92 -72z" />
    <glyph glyph-name="aogonek.fina" horiz-adv-x="899" 
d="M748 -232q-82 -59 -82 -127q0 -25 15 -39.5t42 -14.5q3 0 10 0.5t10 0.5q17 1 29 -10.5t12 -30.5q0 -25 -22 -36q-19 -10 -52 -10q-57 0 -97.5 34t-40.5 101q0 66 47 120q-106 12 -161.5 94.5t-55.5 209.5v17h-2q-67 -93 -182 -93q-87 0 -135.5 40t-48.5 115
q0 77 57.5 121.5t142.5 44.5t155 -40q0 76 -35.5 110.5t-107.5 34.5q-40 0 -89 -14q-28 -7 -33 -7q-45 0 -45 47q0 36 44 55q57 24 140 24q72 0 120.5 -22t73 -64.5t33.5 -89.5t9 -112v-123q0 -249 151 -249q59 0 90.5 34t31.5 99q0 52 -22 96q-11 28 -11 40q0 23 16 37
t40 14q26 0 45 -25q45 -64 45 -162q0 -81 -34 -139t-103 -81zM243 73q55 0 98 36t48 80q-57 36 -122 36q-53 0 -84.5 -21t-31.5 -59q0 -72 92 -72z" />
    <glyph glyph-name="aring.fina" horiz-adv-x="899" 
d="M281 571q-50 0 -83 29.5t-33 82.5q0 52 33.5 82t82.5 30t83 -30t34 -82q0 -53 -33.5 -82.5t-83.5 -29.5zM281 643q17 0 28 11t11 29t-11 29t-28 11t-28 -11t-11 -29t11 -29t28 -11zM885 -12q0 -106 -58 -170t-173 -64q-123 0 -187.5 84.5t-64.5 221.5v17h-2
q-67 -93 -182 -93q-87 0 -135.5 40t-48.5 115q0 77 57.5 121.5t142.5 44.5t155 -40q0 76 -35.5 110.5t-107.5 34.5q-40 0 -89 -14q-28 -7 -33 -7q-45 0 -45 47q0 36 44 55q57 24 140 24q72 0 120.5 -22t73 -64.5t33.5 -89.5t9 -112v-123q0 -249 151 -249q59 0 90.5 34
t31.5 99q0 52 -22 96q-11 28 -11 40q0 23 16 37t40 14q26 0 45 -25q45 -64 45 -162zM243 73q55 0 98 36t48 80q-57 36 -122 36q-53 0 -84.5 -21t-31.5 -59q0 -72 92 -72z" />
    <glyph glyph-name="atilde.fina" horiz-adv-x="899" 
d="M191 749q40 0 73 -17.5t56.5 -35t39.5 -17.5q20 0 29.5 13.5t17.5 40.5q11 18 34 18q22 0 34 -16t12 -40q0 -49 -29 -84.5t-80 -35.5q-34 0 -67 19.5t-59.5 38.5t-46.5 19q-18 0 -29 -8.5t-14.5 -17t-7.5 -25.5q-7 -24 -36 -24q-22 0 -33.5 14t-11.5 35q0 51 31 87t87 36
zM885 -12q0 -106 -58 -170t-173 -64q-123 0 -187.5 84.5t-64.5 221.5v17h-2q-67 -93 -182 -93q-87 0 -135.5 40t-48.5 115q0 77 57.5 121.5t142.5 44.5t155 -40q0 76 -35.5 110.5t-107.5 34.5q-40 0 -89 -14q-28 -7 -33 -7q-45 0 -45 47q0 36 44 55q57 24 140 24
q72 0 120.5 -22t73 -64.5t33.5 -89.5t9 -112v-123q0 -249 151 -249q59 0 90.5 34t31.5 99q0 52 -22 96q-11 28 -11 40q0 23 16 37t40 14q26 0 45 -25q45 -64 45 -162zM243 73q55 0 98 36t48 80q-57 36 -122 36q-53 0 -84.5 -21t-31.5 -59q0 -72 92 -72z" />
    <glyph glyph-name="d.fina" horiz-adv-x="960" 
d="M945 -12q0 -106 -58 -170t-173 -64q-123 0 -188 84.5t-65 221.5v18h-2q-23 -45 -68 -69.5t-103 -24.5q-106 0 -173 74t-67 189q0 121 65 194.5t175 73.5q103 0 155 -70h2v254q0 26 14.5 43t42.5 17t42 -17t14 -43v-595q0 -116 36.5 -182.5t115.5 -66.5q59 0 90.5 34
t31.5 99q0 52 -22 96q-11 28 -11 40q0 23 16 37t40 14q26 0 45 -25q45 -64 45 -162zM309 87q67 0 105 44t38 120q0 74 -39 117t-106 43q-63 0 -103 -43.5t-40 -118.5q0 -74 39.5 -118t105.5 -44z" />
    <glyph glyph-name="dcaron.fina" horiz-adv-x="960" 
d="M945 -12q0 -106 -58 -170t-173 -64q-123 0 -188 84.5t-65 221.5v18h-2q-23 -45 -68 -69.5t-103 -24.5q-106 0 -173 74t-67 189q0 121 65 194.5t175 73.5q103 0 155 -70h2v254q0 26 14.5 43t42.5 17t42 -17t14 -43v-595q0 -116 36.5 -182.5t115.5 -66.5q59 0 90.5 34
t31.5 99q0 52 -22 96q-11 28 -11 40q0 23 16 37t40 14q26 0 45 -25q45 -64 45 -162zM668 511q-19 0 -32 14t-10 35q11 84 12 151q0 20 15 34t37 14q25 0 39.5 -15.5t12.5 -37.5q-5 -92 -31 -166q-12 -29 -43 -29zM309 87q67 0 105 44t38 120q0 74 -39 117t-106 43
q-63 0 -103 -43.5t-40 -118.5q0 -74 39.5 -118t105.5 -44z" />
    <glyph glyph-name="dcroat.fina" horiz-adv-x="960" 
d="M900 150q45 -64 45 -162q0 -106 -58 -170t-173 -64q-123 0 -188 84.5t-65 221.5v18h-2q-23 -45 -68 -69.5t-103 -24.5q-106 0 -173 74t-67 189q0 121 65 194.5t175 73.5q103 0 155 -70h2v139h-104q-22 0 -37.5 15.5t-15.5 37.5t15.5 37.5t37.5 15.5h104v9q0 26 14.5 43
t42.5 17t42 -17t14 -43v-9h8q22 0 37.5 -15.5t15.5 -37.5t-15.5 -37.5t-37.5 -15.5h-8v-480q0 -116 36.5 -182.5t115.5 -66.5q59 0 90.5 34t31.5 99q0 52 -22 96q-11 28 -11 40q0 23 16 37t40 14q26 0 45 -25zM309 87q67 0 105 44t38 120q0 74 -39 117t-106 43
q-63 0 -103 -43.5t-40 -118.5q0 -74 39.5 -118t105.5 -44z" />
    <glyph glyph-name="h.fina" horiz-adv-x="955" 
d="M942 -15q0 -105 -59 -168t-170 -63q-63 0 -109.5 20t-75.5 55t-47 89t-24.5 115t-6.5 140v85q0 153 -116 153q-63 0 -101.5 -41t-38.5 -110l-1 -207q0 -26 -14 -43.5t-42 -17.5t-42.5 17.5t-14.5 43.5v646q0 26 14.5 43t42.5 17t42 -17t14 -43v-253h2q23 30 66 49.5
t94 19.5q102 0 155 -63t53 -184v-115q0 -66 6 -115.5t21 -93t45 -66.5t73 -23q56 0 89 33.5t33 96.5q0 50 -23 96q-11 33 -11 41q0 22 16 36.5t40 14.5q26 0 45 -26q45 -64 45 -162z" />
    <glyph glyph-name="hbar.fina" horiz-adv-x="955" 
d="M897 147q45 -64 45 -162q0 -105 -59 -168t-170 -63q-63 0 -109.5 20t-75.5 55t-47 89t-24.5 115t-6.5 140v85q0 153 -116 153q-63 0 -101.5 -41t-38.5 -110l-1 -207q0 -26 -14 -43.5t-42 -17.5t-42.5 17.5t-14.5 43.5v531q-22 0 -37.5 15.5t-15.5 37.5t15.5 37.5
t37.5 15.5v9q0 26 14.5 43t42.5 17t42 -17t14 -43v-9h111q22 0 37.5 -15.5t15.5 -37.5t-15.5 -37.5t-37.5 -15.5h-111v-138h2q23 30 66 49.5t94 19.5q102 0 155 -63t53 -184v-115q0 -66 6 -115.5t21 -93t45 -66.5t73 -23q56 0 89 33.5t33 96.5q0 50 -23 96q-11 33 -11 41
q0 22 16 36.5t40 14.5q26 0 45 -26z" />
    <glyph glyph-name="k.fina" horiz-adv-x="942" 
d="M905 129q0 -116 -63.5 -184.5t-182.5 -68.5q-72 0 -128 21t-102.5 68t-82 102t-80.5 143h-73v-157q0 -26 -14 -43.5t-42 -17.5t-42.5 17.5t-14.5 43.5v646q0 26 14.5 43t42.5 17t42 -17t14 -43v-390h81l130 173q20 25 44 25q22 0 37.5 -15.5t15.5 -36.5q0 -15 -10 -31
l-131 -165q32 -66 58 -109.5t62 -87t79 -64.5t94 -21q65 0 102.5 37.5t37.5 114.5q0 41 -27 103q-6 14 -6 27q0 23 16 38t39 15q26 0 43 -22q47 -62 47 -161z" />
    <glyph glyph-name="uni0137.fina" horiz-adv-x="942" 
d="M905 129q0 -116 -63.5 -184.5t-182.5 -68.5q-72 0 -128 21t-102.5 68t-82 102t-80.5 143h-73v-157q0 -26 -14 -43.5t-42 -17.5t-42.5 17.5t-14.5 43.5v646q0 26 14.5 43t42.5 17t42 -17t14 -43v-390h81l130 173q20 25 44 25q22 0 37.5 -15.5t15.5 -36.5q0 -15 -10 -31
l-131 -165q32 -66 58 -109.5t62 -87t79 -64.5t94 -21q65 0 102.5 37.5t37.5 114.5q0 41 -27 103q-6 14 -6 27q0 23 16 38t39 15q26 0 43 -22q47 -62 47 -161zM257 -298q-19 0 -32 14t-10 35q11 84 12 150q0 20 15 34.5t37 14.5q25 0 39.5 -15.5t12.5 -37.5q-5 -92 -31 -166
q-12 -29 -43 -29z" />
    <glyph glyph-name="m.fina" horiz-adv-x="1288" 
d="M1275 -15q0 -105 -59 -168t-170 -63q-63 0 -109.5 20t-75.5 55t-47 89t-24.5 115t-6.5 140v85q0 153 -113 153q-55 0 -90.5 -42t-35.5 -112v-204q0 -26 -14 -43.5t-42 -17.5t-42.5 17.5t-14.5 43.5v205q0 70 -26.5 111.5t-82.5 41.5q-58 0 -93.5 -42.5t-36.5 -112.5
l-1 -203q0 -26 -14 -43.5t-42 -17.5t-42.5 17.5t-14.5 43.5v404q0 21 12 35.5t35 14.5t34.5 -14.5t11.5 -35.5v-45h2q22 45 68.5 74t101.5 29q121 0 169 -103h2q22 44 69.5 73.5t100.5 29.5q101 0 156.5 -63.5t55.5 -183.5v-115q0 -66 6 -115.5t21.5 -93t45 -66.5t73.5 -23
q56 0 88 33t32 97q0 52 -22 96q-11 28 -11 41q0 22 16 36.5t40 14.5q25 0 45 -26q45 -64 45 -162z" />
    <glyph glyph-name="n.fina" horiz-adv-x="954" 
d="M941 -15q0 -105 -59 -168t-170 -63q-63 0 -109.5 20t-76 55t-47 89t-24 114.5t-6.5 140.5v87q0 153 -117 153q-62 0 -100.5 -43t-39.5 -114l-1 -203q0 -26 -14 -43.5t-42 -17.5t-42.5 17.5t-14.5 43.5v404q0 21 12 35.5t35 14.5t34.5 -14.5t11.5 -35.5v-45h2
q22 44 72 73.5t108 29.5q102 0 155.5 -62t53.5 -184v-116q0 -67 6 -116t21 -92.5t44.5 -66.5t73.5 -23q56 0 88.5 33t32.5 97q0 52 -22 96q-11 27 -11 41q0 22 16 36.5t40 14.5q25 0 45 -26q45 -64 45 -162z" />
    <glyph glyph-name="nacute.fina" horiz-adv-x="954" 
d="M274 668l95 115q24 30 52 30q25 0 43 -17.5t18 -43.5q0 -31 -27 -55l-108 -98q-23 -19 -37 -19q-19 0 -34.5 13.5t-15.5 34.5q0 22 14 40zM941 -15q0 -105 -59 -168t-170 -63q-63 0 -109.5 20t-76 55t-47 89t-24 114.5t-6.5 140.5v87q0 153 -117 153q-62 0 -100.5 -43
t-39.5 -114l-1 -203q0 -26 -14 -43.5t-42 -17.5t-42.5 17.5t-14.5 43.5v404q0 21 12 35.5t35 14.5t34.5 -14.5t11.5 -35.5v-45h2q22 44 72 73.5t108 29.5q102 0 155.5 -62t53.5 -184v-116q0 -67 6 -116t21 -92.5t44.5 -66.5t73.5 -23q56 0 88.5 33t32.5 97q0 52 -22 96
q-11 27 -11 41q0 22 16 36.5t40 14.5q25 0 45 -26q45 -64 45 -162z" />
    <glyph glyph-name="ncaron.fina" horiz-adv-x="954" 
d="M330 562q-39 0 -105 64l-50 50q-21 18 -21 43q0 21 14 35.5t34 14.5q19 0 34 -14l93 -92h2l94 93q14 13 34 13t34 -14.5t14 -36.5q0 -21 -23 -42l-51 -55q-61 -59 -103 -59zM941 -15q0 -105 -59 -168t-170 -63q-63 0 -109.5 20t-76 55t-47 89t-24 114.5t-6.5 140.5v87
q0 153 -117 153q-62 0 -100.5 -43t-39.5 -114l-1 -203q0 -26 -14 -43.5t-42 -17.5t-42.5 17.5t-14.5 43.5v404q0 21 12 35.5t35 14.5t34.5 -14.5t11.5 -35.5v-45h2q22 44 72 73.5t108 29.5q102 0 155.5 -62t53.5 -184v-116q0 -67 6 -116t21 -92.5t44.5 -66.5t73.5 -23
q56 0 88.5 33t32.5 97q0 52 -22 96q-11 27 -11 41q0 22 16 36.5t40 14.5q25 0 45 -26q45 -64 45 -162z" />
    <glyph glyph-name="uni0146.fina" horiz-adv-x="954" 
d="M941 -15q0 -105 -59 -168t-170 -63q-63 0 -109.5 20t-76 55t-47 89t-24 114.5t-6.5 140.5v87q0 153 -117 153q-62 0 -100.5 -43t-39.5 -114l-1 -203q0 -26 -14 -43.5t-42 -17.5t-42.5 17.5t-14.5 43.5v404q0 21 12 35.5t35 14.5t34.5 -14.5t11.5 -35.5v-45h2
q22 44 72 73.5t108 29.5q102 0 155.5 -62t53.5 -184v-116q0 -67 6 -116t21 -92.5t44.5 -66.5t73.5 -23q56 0 88.5 33t32.5 97q0 52 -22 96q-11 27 -11 41q0 22 16 36.5t40 14.5q25 0 45 -26q45 -64 45 -162zM275 -302q-19 0 -32 14t-10 35q11 84 12 150q0 20 15 34.5
t37 14.5q25 0 39.5 -15.5t12.5 -37.5q-5 -92 -31 -166q-12 -29 -43 -29z" />
    <glyph glyph-name="ntilde.fina" horiz-adv-x="954" 
d="M239 748q40 0 73 -17.5t56.5 -35t38.5 -17.5q20 0 30 13.5t17 40.5q11 17 35 17q22 0 33.5 -15.5t11.5 -39.5q0 -49 -29 -84.5t-79 -35.5q-34 0 -67 19t-60 38.5t-47 19.5q-18 0 -29 -8.5t-14.5 -17.5t-6.5 -26q-10 -23 -36 -23q-22 0 -34 14t-12 35q0 51 31.5 87
t87.5 36zM941 -15q0 -105 -59 -168t-170 -63q-63 0 -109.5 20t-76 55t-47 89t-24 114.5t-6.5 140.5v87q0 153 -117 153q-62 0 -100.5 -43t-39.5 -114l-1 -203q0 -26 -14 -43.5t-42 -17.5t-42.5 17.5t-14.5 43.5v404q0 21 12 35.5t35 14.5t34.5 -14.5t11.5 -35.5v-45h2
q22 44 72 73.5t108 29.5q102 0 155.5 -62t53.5 -184v-116q0 -67 6 -116t21 -92.5t44.5 -66.5t73.5 -23q56 0 88.5 33t32.5 97q0 52 -22 96q-11 27 -11 41q0 22 16 36.5t40 14.5q25 0 45 -26q45 -64 45 -162z" />
    </font>
</defs>
</svg>
