<?xml version="1.0" standalone="no"?>
<!DOCTYPE svg PUBLIC "-//W3C//DTD SVG 1.1//EN" "http://www.w3.org/Graphics/SVG/1.1/DTD/svg11.dtd" >
<svg xmlns="http://www.w3.org/2000/svg" xmlns:xlink="http://www.w3.org/1999/xlink" version="1.1">
<metadata>
Created by FontForge 20170731 at Wed Nov  7 09:29:00 2018
 By Aleksey,,,
Copyright (c) 2018 by Sofia Mohr. All rights reserved.
</metadata>
<defs>
<font id="MohrRounded-Regular" horiz-adv-x="633" >
  <font-face 
    font-family="MohrRounded-Regular"
    font-weight="400"
    font-stretch="normal"
    units-per-em="1000"
    panose-1="0 0 5 0 0 0 0 0 0 0"
    ascent="770"
    descent="-230"
    x-height="504"
    cap-height="728"
    bbox="-463 -502 1434.45 1049"
    underline-thickness="50"
    underline-position="-200"
    unicode-range="U+0020-FB02"
  />
<missing-glyph horiz-adv-x="530" 
d="M50 730h430v-730h-430v730zM115 695l150 -287l150 287h-300zM243 365l-153 292v-584zM288 365l152 -292v584zM265 322l-150 -287h300z" />
    <glyph glyph-name="fi" unicode="fi" horiz-adv-x="579" 
d="M453 497q39 0 39 -40v-413q0 -20 -11.5 -34t-33.5 -14q-21 0 -33 14t-12 34v373h-202v-377q0 -20 -11.5 -34t-33.5 -14q-21 0 -33 14t-12 34l-2 377h-28q-16 0 -28 11.5t-12 28.5t12 28.5t28 11.5h28v9q0 264 236 264q84 0 129 -36q19 -15 19 -35q0 -19 -10.5 -28.5
t-26.5 -9.5q-14 0 -47 13t-70 13q-138 0 -138 -182v-8h253z" />
    <glyph glyph-name="fl" unicode="fl" horiz-adv-x="569" 
d="M436 758q22 0 33.5 -13.5t11.5 -34.5v-670q0 -20 -11.5 -34t-33.5 -14t-33.5 14t-11.5 34v640q-40 12 -69 12q-62 0 -92 -39t-30 -129v-27h92q16 0 28 -12t12 -28t-12 -28t-28 -12h-92v-377q0 -20 -11.5 -34t-33.5 -14q-21 0 -33 14t-12 34l-2 377h-28q-16 0 -27.5 12
t-11.5 28t11.5 28t27.5 12h28v34q0 66 15.5 114t44.5 74.5t64 38.5t77 12q61 0 100 -19q12 7 27 7z" />
    <glyph glyph-name="f_f" unicode="ff" horiz-adv-x="657" 
d="M684 737q14 -14 14 -34q0 -17 -10.5 -27t-25.5 -10q-12 0 -36.5 10.5t-50.5 10.5q-43 0 -67.5 -31.5t-24.5 -88.5v-70h117q18 0 30 -10t12 -30q0 -19 -12 -29.5t-30 -10.5h-117v-377q0 -20 -11.5 -34t-33.5 -14t-33.5 14t-11.5 34l-1 377h-192v-379q0 -19 -13 -32
t-32 -13t-32 13t-13 32l-2 379h-26q-17 0 -29.5 10.5t-12.5 29.5q0 20 12.5 30t29.5 10h26v39q0 66 18.5 113.5t51 72.5t69.5 36.5t81 11.5q34 0 74 -9t64 -22q43 31 108 31q75 0 110 -33zM392 497v73q0 63 23 109q-41 13 -75 13q-140 0 -140 -163v-32h192z" />
    <glyph glyph-name="f_f_i" unicode="ffi" horiz-adv-x="859" 
d="M732 497q40 0 40 -40v-413q0 -20 -12 -34t-33 -14t-33 14t-12 34v373h-202v-377q0 -20 -11.5 -34t-33.5 -14q-21 0 -33 14t-12 34l-2 377h-188v-377q0 -20 -11.5 -34t-33.5 -14t-33.5 14t-11.5 34v377h-30q-16 0 -28 11.5t-12 28.5t12 28.5t28 11.5h30v39
q0 66 18.5 113.5t51.5 72.5t69.5 36.5t80.5 11.5q87 0 144 -35l4 -3q56 38 146 38q84 0 129 -36q19 -15 19 -35q0 -19 -10.5 -28.5t-26.5 -9.5q-14 0 -47 13t-70 13q-138 0 -138 -182v-8h252zM388 497v9q0 106 38 171q-45 15 -84 15q-142 0 -142 -163v-32h188z" />
    <glyph glyph-name="f_f_l" unicode="ffl" horiz-adv-x="843" 
d="M711 758q21 0 32.5 -13.5t11.5 -34.5v-670q0 -20 -11.5 -34t-32.5 -14q-22 0 -34 14t-12 34v640q-40 12 -69 12q-62 0 -91.5 -39.5t-29.5 -128.5v-27h92q16 0 27.5 -12t11.5 -28t-11.5 -28t-27.5 -12h-92v-377q0 -20 -11.5 -34t-33.5 -14t-33.5 14t-11.5 34l-2 377h-183
v-377q0 -20 -11.5 -34t-33.5 -14t-33.5 14t-11.5 34v377h-30q-16 0 -28 11.5t-12 28.5t12 28.5t28 11.5h30v39q0 66 18.5 113.5t50.5 72.5t69 36.5t80 11.5q83 0 138 -32q47 32 118 32q61 0 100 -19q12 7 27 7zM383 497v34q0 93 31 149q-44 12 -74 12q-140 0 -140 -163v-32
h183z" />
    <glyph glyph-name="f_t" unicode="ft" horiz-adv-x="680" 
d="M627 88q14 0 24 -10t10 -27q0 -19 -14 -35q-31 -33 -101 -33q-153 0 -153 212v222h-189v-377q0 -20 -11.5 -34t-33.5 -14t-33.5 14t-11.5 34l-1 377h-36q-18 0 -30.5 10.5t-12.5 29.5q0 20 12.5 30t30.5 10h36v73q0 91 47.5 145.5t134.5 54.5q75 0 110 -33q14 -14 14 -34
q0 -17 -10.5 -27t-25.5 -10q-12 0 -36.5 10.5t-50.5 10.5q-43 0 -67.5 -31.5t-24.5 -88.5v-70h190q3 54 14 90q13 35 40 35q35 0 35 -38v-87h110q16 0 27.5 -12t11.5 -28t-11.5 -28t-27.5 -12h-110v-204q0 -30 0.5 -44t4 -37.5t10.5 -34.5t21.5 -20t35.5 -9q23 0 43 10
t29 10z" />
    <glyph glyph-name="t_t" unicode="tt" horiz-adv-x="702" 
d="M649 88q14 0 23.5 -10t9.5 -27q0 -21 -13 -35q-33 -33 -104 -33q-157 0 -157 212v222h-212v-204v-8q0 -28 0.5 -42t4 -35.5t10.5 -32t21 -19t35 -8.5q17 0 36 6.5t27 6.5q13 0 22.5 -10t9.5 -27q0 -18 -14 -34q-30 -27 -85 -27q-157 0 -157 212v222h-35q-16 0 -27.5 12
t-11.5 28t11.5 28t27.5 12h36q3 52 13 90q13 35 41 35q35 0 35 -38v-87h213q4 58 13 90q13 35 40 35q17 0 26.5 -10.5t9.5 -27.5v-87h120q16 0 27.5 -12t11.5 -28t-11.5 -28t-27.5 -12h-120v-204q0 -25 0.5 -36.5t2 -32.5t6.5 -31t13 -22.5t21.5 -17.5t31.5 -5q25 0 46 10
t30 10z" />
    <glyph glyph-name=".notdef" horiz-adv-x="530" 
d="M50 730h430v-730h-430v730zM115 695l150 -287l150 287h-300zM243 365l-153 292v-584zM288 365l152 -292v584zM265 322l-150 -287h300z" />
    <glyph glyph-name=".null" horiz-adv-x="0" 
 />
    <glyph glyph-name="nonmarkingreturn" horiz-adv-x="333" 
 />
    <glyph glyph-name="space" unicode=" " horiz-adv-x="264" 
 />
    <glyph glyph-name="exclam" unicode="!" horiz-adv-x="293" 
d="M146 220q-20 0 -31.5 12t-11.5 31l-5 416q-1 21 12.5 35t35.5 14t35 -14t13 -34l-4 -417q-1 -19 -12.5 -31t-31.5 -12zM146 -16q-30 0 -49 19t-19 50q0 30 19 48.5t49 18.5t49.5 -18.5t19.5 -48.5q0 -31 -19 -50t-50 -19z" />
    <glyph glyph-name="quotedbl" unicode="&#x22;" horiz-adv-x="398" 
d="M110 468q-33 0 -35 33l-7 179q-1 19 10 31.5t32 12.5q44 0 42 -44l-7 -179q-3 -33 -35 -33zM288 468q-33 0 -35 33l-7 179q-1 19 10 31.5t32 12.5q44 0 42 -44l-7 -179q-2 -33 -35 -33z" />
    <glyph glyph-name="numbersign" unicode="#" horiz-adv-x="797" 
d="M722 539q18 0 30 -10.5t12 -30.5t-12 -30.5t-30 -10.5h-113l-46 -180h92q18 0 29.5 -10.5t11.5 -30.5q0 -19 -11.5 -30.5t-29.5 -11.5h-113l-43 -171q-9 -31 -40 -31q-24 0 -35.5 14.5t-4.5 37.5l38 150h-214l-43 -170q-9 -32 -41 -32q-23 0 -34.5 15t-5.5 37l38 150h-81
q-18 0 -29.5 10.5t-11.5 30.5q0 19 12 30.5t29 11.5h102l46 180h-80q-18 0 -30 11t-12 30t12.5 30t29.5 11h101l40 158q7 31 43 31q22 0 33 -15t5 -37l-35 -137h213l40 158q9 31 43 31q21 0 32.5 -15t5.5 -36l-35 -138h92zM478 277l45 180h-213l-46 -180h214z" />
    <glyph glyph-name="dollar" unicode="$" horiz-adv-x="532" 
d="M487 247q0 -59 -43 -102t-136 -52v-80q0 -15 -11 -26.5t-27 -11.5t-27 11.5t-11 26.5v79q-50 3 -94 16.5t-66 31.5q-23 18 -23 43q0 16 11 25.5t29 6.5q13 -4 46.5 -19t64.5 -23t68 -8q62 0 96 20t34 54q0 21 -10.5 36t-34.5 25t-44 15t-59 13q-41 9 -70 19t-58 27.5
t-44.5 45t-15.5 64.5q0 60 44.5 97t125.5 45v80q0 15 11 26.5t27 11.5t27 -11.5t11 -26.5v-81q75 -6 120 -36q26 -15 26 -38q0 -22 -15 -30t-38 -2q-8 1 -28 10t-47.5 16.5t-59.5 7.5q-115 0 -115 -67q0 -16 8 -28t18.5 -20t33 -15t39 -11t48.5 -10q33 -7 56 -13t50 -18.5
t43.5 -27.5t28 -40t11.5 -56z" />
    <glyph glyph-name="percent" unicode="%" horiz-adv-x="893" 
d="M284 9q-11 -17 -29 -17q-14 0 -23.5 10t-9.5 24q0 9 5 17l410 668q9 17 29 17q14 0 23.5 -9.5t9.5 -23.5q0 -9 -5 -17zM201 366q-74 0 -119.5 50t-45.5 127q0 76 45 126.5t120 50.5q73 0 118.5 -50.5t45.5 -126.5q0 -77 -45 -127t-119 -50zM201 434q41 0 65 30t24 79
t-24 79t-65 30q-42 0 -66 -30t-24 -79t24 -79t66 -30zM694 -15q-74 0 -119.5 49.5t-45.5 127.5q0 76 45 126.5t120 50.5q74 0 119 -50.5t45 -126.5q0 -78 -45 -127.5t-119 -49.5zM694 52q41 0 65 30t24 80q0 48 -24 78.5t-65 30.5q-42 0 -66 -30t-24 -79q0 -50 24 -80
t66 -30z" />
    <glyph glyph-name="ampersand" unicode="&#x26;" horiz-adv-x="687" 
d="M636 52q12 -11 12 -28t-11.5 -28.5t-28.5 -11.5t-41 24l-50 50q-88 -74 -221 -74q-114 0 -179.5 52t-65.5 143q0 68 38.5 116t108.5 88q-63 87 -63 181q0 74 53.5 122.5t150.5 48.5q82 0 132.5 -43.5t50.5 -110.5q0 -39 -15.5 -71t-48.5 -59.5t-61.5 -45t-75.5 -42.5
l19 -19l168 -166q31 59 31 139q0 48 42 48q43 0 43 -48q0 -118 -54 -200zM219 555q0 -64 52 -134l1 1q83 42 124 76t41 78q0 39 -27 61.5t-72 22.5q-58 0 -88.5 -27.5t-30.5 -77.5zM306 59q92 0 153 56l-192 190l-19 19q-52 -30 -78.5 -62t-26.5 -80q0 -62 43.5 -92.5
t119.5 -30.5z" />
    <glyph glyph-name="quotesingle" unicode="'" horiz-adv-x="220" 
d="M110 468q-33 0 -35 33l-7 179q-1 19 10 31.5t32 12.5q44 0 42 -44l-7 -179q-3 -33 -35 -33z" />
    <glyph glyph-name="parenleft" unicode="(" horiz-adv-x="329" 
d="M55 288q0 265 169 458q11 13 30 13q16 0 28 -11t12 -26q0 -9 -6 -21q-143 -193 -143 -411q0 -219 145 -420q6 -8 6 -19q0 -16 -12.5 -27.5t-28.5 -11.5q-19 0 -31 15q-169 199 -169 461z" />
    <glyph glyph-name="parenright" unicode=")" horiz-adv-x="329" 
d="M74 -188q-17 0 -29.5 11.5t-12.5 27.5q0 9 6 19q146 201 146 420q0 218 -144 411q-5 10 -5 21q0 15 12 26t28 11q18 0 29 -13q170 -193 170 -458q0 -260 -169 -461q-12 -15 -31 -15z" />
    <glyph glyph-name="asterisk" unicode="*" horiz-adv-x="483" 
d="M118 336q-27 20 0 58l66 87q-33 11 -99 35q-43 16 -33 47q12 31 56 17l98 -34v107q0 47 34 47q35 0 35 -47v-107l102 35q45 16 56 -17q9 -33 -34 -48q-60 -22 -102 -35l64 -85q27 -37 2 -58q-27 -23 -56 17l-67 86l-67 -87q-28 -39 -55 -18z" />
    <glyph glyph-name="plus" unicode="+" horiz-adv-x="491" 
d="M286 517v-119h121q17 0 28.5 -12t11.5 -28t-11.5 -28t-28.5 -12h-121v-120q0 -16 -12 -27.5t-28 -11.5q-17 0 -29 11.5t-12 27.5v120h-122q-16 0 -27.5 12t-11.5 28t11.5 28t27.5 12h122v119q0 17 12 28.5t29 11.5q16 0 28 -12t12 -28z" />
    <glyph glyph-name="comma" unicode="," horiz-adv-x="204" 
d="M77 -202q-16 0 -27 12t-8 31q16 98 17 180q1 18 12.5 30t31.5 12q21 0 33 -13.5t11 -32.5q-5 -108 -35 -193q-10 -26 -35 -26z" />
    <glyph glyph-name="hyphen" unicode="-" horiz-adv-x="512" 
d="M400 216h-288q-17 0 -28 10t-11 30q0 19 11 29t28 10h288q17 0 28.5 -10t11.5 -29q0 -20 -11.5 -30t-28.5 -10z" />
    <glyph glyph-name="period" unicode="." horiz-adv-x="265" 
d="M132 -15q-30 0 -49 19t-19 50q0 30 19 48t49 18q31 0 50 -18t19 -48q0 -31 -19 -50t-50 -19z" />
    <glyph glyph-name="slash" unicode="/" horiz-adv-x="447" 
d="M67 -214q-20 0 -30 14.5t-4 32.5l314 901q9 24 32 24q20 0 30.5 -14.5t4.5 -31.5l-314 -901q-9 -25 -33 -25z" />
    <glyph glyph-name="zero" unicode="0" horiz-adv-x="757" 
d="M379 -15q-62 0 -118 22.5t-101.5 67t-72.5 118t-27 166.5t27 166.5t72.5 118t101.5 68t118 23.5t117.5 -23.5t100.5 -68t72 -118t27 -166.5t-26.5 -166.5t-72 -118t-101 -67t-117.5 -22.5zM379 69q93 0 157.5 73.5t64.5 216.5t-65 217.5t-157 74.5t-157 -74.5t-65 -217.5
q0 -144 64.5 -217t157.5 -73z" />
    <glyph glyph-name="one" unicode="1" horiz-adv-x="383" 
d="M187 614l-107 -39q-8 -3 -18 -3q-20 0 -31.5 12.5t-11.5 32.5q0 31 31 43l164 59q13 5 23 5q20 0 31.5 -12t11.5 -31v-639q0 -22 -12 -36t-34 -14q-23 0 -35 14t-12 36v572z" />
    <glyph glyph-name="two" unicode="2" horiz-adv-x="607" 
d="M526 520q0 -115 -91 -231.5t-218 -210.5v-2h308q17 0 29.5 -12.5t12.5 -29.5t-12 -29.5t-29 -12.5h-430q-23 0 -35.5 12t-12.5 31q0 29 40 56q340 228 344 429q0 132 -151 132q-48 -1 -88 -17t-66.5 -31.5t-40.5 -15.5q-18 0 -28 12t-10 27q0 24 23 41q33 27 90.5 47.5
t124.5 20.5q122 0 181 -56t59 -160z" />
    <glyph glyph-name="three" unicode="3" horiz-adv-x="602" 
d="M286 -15q-65 0 -123.5 18t-89.5 43q-23 17 -23 41q0 15 10 27t28 12q14 0 39.5 -14t65 -28.5t86.5 -14.5q75 0 119.5 32t44.5 100q0 134 -186 134h-75q-16 0 -27.5 11.5t-11.5 28.5q0 16 12 28t28 12h72q68 0 116.5 33.5t48.5 95.5q0 56 -35 82t-107 26q-48 -1 -85.5 -14
t-61 -25.5t-37.5 -12.5q-17 0 -27.5 12t-10.5 27q0 22 23 40q30 23 86 40t123 17q104 0 167 -47t63 -137q0 -66 -41 -111.5t-96 -60.5v-2q65 -11 113 -59t48 -127q0 -100 -70.5 -153.5t-185.5 -53.5z" />
    <glyph glyph-name="four" unicode="4" horiz-adv-x="612" 
d="M552 245q16 0 27.5 -11.5t11.5 -27.5q0 -17 -11.5 -28.5t-27.5 -11.5h-51v-123q0 -19 -14 -33t-34 -14t-34 14t-14 33v123h-331q-38 0 -48 28t8 56l253 463q12 22 37 22q18 0 31.5 -13t13.5 -31q0 -11 -5 -21l-236 -425h277v118q0 19 14 33t34 14t34 -14t14 -33v-118h51z
" />
    <glyph glyph-name="five" unicode="5" horiz-adv-x="604" 
d="M271 358q-34 0 -84 -9.5t-60 -9.5q-47 0 -40 64l25 247q4 44 22 61t58 17h292q17 0 29 -12t12 -31q0 -18 -11.5 -29.5t-28.5 -11.5h-291l-22 -217q66 14 121 14q127 0 192.5 -58t65.5 -161q0 -118 -76.5 -177.5t-199.5 -59.5q-63 0 -120.5 18t-88.5 43q-23 18 -23 41
q0 15 10.5 27t27.5 12q14 0 39 -14t63 -28.5t84 -14.5q90 0 140 39t50 115q0 135 -186 135z" />
    <glyph glyph-name="six" unicode="6" horiz-adv-x="626" 
d="M343 490q-72 0 -115 -31h-2l137 213q8 11 8 25q0 16 -12.5 27t-31.5 11q-25 0 -41 -27l-150 -232q-42 -60 -61.5 -113.5t-19.5 -119.5q0 -110 73.5 -183.5t192.5 -73.5t192.5 74.5t73.5 181.5q0 109 -68.5 178.5t-175.5 69.5zM320 417q77 0 126 -49.5t49 -125.5
t-48.5 -126t-125.5 -50t-125.5 50t-48.5 126q0 86 49.5 130.5t123.5 44.5z" />
    <glyph glyph-name="seven" unicode="7" horiz-adv-x="528" 
d="M172 -16q-19 0 -31 11.5t-12 27.5q0 14 8 31l275 592l-358 -2q-17 0 -28 11.5t-11 30.5q0 20 11.5 31t28.5 11h399q25 0 38.5 -14.5t13.5 -38.5q0 -18 -7 -34l-286 -624q-14 -33 -41 -33z" />
    <glyph glyph-name="eight" unicode="8" horiz-adv-x="665" 
d="M335 -15q-132 0 -204.5 59t-72.5 158q0 77 44 125.5t111 65.5v2q-52 17 -87.5 59.5t-35.5 99.5q0 82 66 131.5t178 49.5q113 0 177.5 -48t64.5 -131q0 -59 -35.5 -101.5t-91.5 -59.5v-2q67 -15 112.5 -63.5t45.5 -128.5q0 -97 -72.5 -156.5t-199.5 -59.5zM332 428
q71 0 110 35t39 85t-37.5 81.5t-109.5 31.5q-70 0 -109 -31.5t-39 -81.5q1 -53 38 -86.5t108 -33.5zM331 58q83 0 131 42.5t48 105.5q0 65 -50 106.5t-126 41.5q-79 0 -129 -40t-50 -107q0 -66 46.5 -107.5t129.5 -41.5z" />
    <glyph glyph-name="nine" unicode="9" horiz-adv-x="627" 
d="M283 231q74 0 115 31h2l-137 -213q-8 -13 -8 -25q0 -16 12.5 -27t31.5 -11q26 0 41 26l150 233q81 115 81 232q0 110 -73.5 184t-191.5 74q-119 0 -192.5 -75t-73.5 -182q0 -109 68 -178t175 -69zM306 303q-77 0 -126 50t-49 125q0 76 48.5 126.5t126.5 50.5
q76 0 125 -50t49 -127q0 -86 -50 -130.5t-124 -44.5z" />
    <glyph glyph-name="colon" unicode=":" horiz-adv-x="284" 
d="M142 377q-30 0 -49.5 18.5t-19.5 49.5q0 30 19.5 48.5t49.5 18.5t49.5 -18.5t19.5 -48.5q0 -31 -19 -49.5t-50 -18.5zM142 -15q-30 0 -49.5 19t-19.5 50q0 30 19 48t50 18t50 -18t19 -48q0 -31 -19 -50t-50 -19z" />
    <glyph glyph-name="semicolon" unicode=";" horiz-adv-x="285" 
d="M142 377q-30 0 -49 18.5t-19 49.5q0 30 19 48.5t49 18.5q31 0 50.5 -18.5t19.5 -48.5q0 -31 -19.5 -49.5t-50.5 -18.5zM116 -200q-16 0 -27 12t-8 29q16 98 17 180q1 18 13.5 30t30.5 12q19 0 32 -14t11 -32q-5 -111 -34 -193q-10 -24 -35 -24z" />
    <glyph glyph-name="less" unicode="&#x3c;" horiz-adv-x="495" 
d="M378 146q-11 0 -17 3l-264 133q-48 21 -48 74q0 54 48 74l264 133q5 4 16 4q17 0 29 -12t12 -29q0 -26 -25 -37l-268 -131v-2l268 -133q25 -9 25 -36q0 -17 -11.5 -29t-28.5 -12z" />
    <glyph glyph-name="equal" unicode="=" horiz-adv-x="541" 
d="M423 435h-305q-16 0 -27.5 11.5t-11.5 27.5q0 17 11.5 28.5t27.5 11.5h305q16 0 27.5 -11.5t11.5 -27.5q0 -17 -11.5 -28.5t-27.5 -11.5zM423 205h-305q-16 0 -27.5 12t-11.5 28t11.5 28t27.5 12h305q16 0 27.5 -12t11.5 -28t-11.5 -28t-27.5 -12z" />
    <glyph glyph-name="greater" unicode="&#x3e;" horiz-adv-x="495" 
d="M118 146q-17 0 -28.5 12t-11.5 29q0 27 24 36l269 133v2l-268 131q-25 11 -25 37q0 17 11.5 29t28.5 12q10 0 17 -4l264 -133q48 -20 48 -74q0 -52 -48 -74l-264 -133q-7 -3 -17 -3z" />
    <glyph glyph-name="question" unicode="?" horiz-adv-x="506" 
d="M463 557q0 -48 -18.5 -86.5t-49.5 -62t-63.5 -37t-68.5 -19.5v-88q0 -20 -11.5 -34t-33.5 -14t-33.5 14t-11.5 34v100q0 25 12 38t39 21q147 25 147 131q0 102 -139 102q-43 0 -75.5 -10t-53 -20.5t-33.5 -10.5q-18 0 -28 12t-10 27q0 27 33 45q66 37 164 37
q119 0 176.5 -47.5t57.5 -131.5zM219 -15q-30 0 -49.5 19t-19.5 50q0 30 19 48t50 18t50 -18t19 -48q0 -31 -19 -50t-50 -19z" />
    <glyph glyph-name="at" unicode="@" horiz-adv-x="1034" 
d="M544 739q110 0 195.5 -36t136 -97t76 -134.5t25.5 -155.5q0 -146 -59.5 -217.5t-142.5 -71.5q-106 0 -124 94h-3q-53 -88 -162 -88q-92 0 -145 60.5t-53 162.5q0 96 52 158t143 62q59 0 103 -23.5t64 -62.5h2v35q0 45 34 45q17 0 26 -10.5t9 -26.5v-248q0 -45 16 -62.5
t45 -17.5q48 0 82.5 57t34.5 152q0 157 -91.5 255t-263.5 98q-189 0 -302 -111t-113 -302q0 -189 110 -296t297 -107q52 0 101.5 15t53.5 15q34 0 34 -32q0 -24 -27 -40q-53 -30 -162 -30q-228 0 -356 130.5t-128 344.5q0 217 132.5 351t359.5 134zM641 258q0 74 -37 112.5
t-102 38.5q-59 0 -96 -43.5t-37 -111.5q0 -69 36.5 -112t98.5 -43q61 0 99 44t38 115z" />
    <glyph glyph-name="A" unicode="A" horiz-adv-x="701" 
d="M664 52q9 -24 -2.5 -42t-38.5 -18q-18 0 -27 9.5t-17 29.5l-64 165h-4h-325l-64 -165q-8 -20 -17 -29.5t-26 -9.5q-27 0 -39 18t-3 42l231 586q20 51 36 70.5t47 19.5q33 0 48 -19.5t36 -74.5zM217 277h266l-132 339h-2z" />
    <glyph glyph-name="B" unicode="B" horiz-adv-x="675" 
d="M348 0h-199q-46 0 -46 46v628q0 46 46 46h191q249 0 249 -180q0 -63 -34 -109.5t-89 -60.5v-2q70 -16 111.5 -60.5t41.5 -112.5q0 -195 -271 -195zM190 642v-237h167q63 0 102.5 31t40.5 91q0 115 -161 115h-149zM190 327v-249h163q85 0 130.5 27.5t45.5 96.5
q0 62 -47 93.5t-128 31.5h-164z" />
    <glyph glyph-name="C" unicode="C" horiz-adv-x="647" 
d="M437 -16q-169 0 -275 103.5t-106 272.5t105 272t276 103q91 0 150 -37q25 -13 25 -37q0 -20 -12 -31t-30 -9q-85 29 -135 29q-128 0 -207 -79t-79 -211q0 -135 80 -213t206 -78q21 0 41.5 3t33.5 6.5t33 9.5l30 9q17 1 27.5 -10t10.5 -28q0 -24 -26 -41q-58 -34 -148 -34
z" />
    <glyph glyph-name="D" unicode="D" horiz-adv-x="786" 
d="M348 -8h-199q-46 0 -46 47v643q0 46 46 46h199q182 0 281 -97.5t99 -270.5q0 -171 -99 -269t-281 -99zM193 647v-573h155q137 0 212.5 75t75.5 211t-74 211.5t-214 75.5h-155z" />
    <glyph glyph-name="E" unicode="E" horiz-adv-x="586" 
d="M495 -8h-346q-46 0 -46 47v643q0 46 46 46h344q18 0 29.5 -11.5t11.5 -29.5t-11 -29t-29 -11h-303l1 -246h267q17 0 29 -11.5t12 -30.5q0 -18 -11.5 -29t-28.5 -11h-268l1 -245h301q18 0 29.5 -11.5t11.5 -30.5q0 -18 -11.5 -29t-28.5 -11z" />
    <glyph glyph-name="F" unicode="F" horiz-adv-x="562" 
d="M148 -8q-22 0 -33.5 14t-11.5 34v642q0 46 46 46h344q17 0 29 -12t12 -29t-11.5 -28.5t-28.5 -11.5h-303l1 -274h267q17 0 29 -12t12 -29q0 -16 -12 -28t-28 -12h-268l1 -252q0 -20 -11.5 -34t-33.5 -14z" />
    <glyph glyph-name="G" unicode="G" horiz-adv-x="731" 
d="M437 -16q-170 0 -275 102t-105 275q0 172 104.5 273t277.5 101q120 0 187 -36q26 -15 26 -38q0 -20 -12 -31t-29 -9q-96 30 -166 30q-130 0 -212.5 -77.5t-82.5 -212.5t79.5 -213.5t212.5 -78.5q75 0 131 26v243q0 21 11.5 34.5t33.5 13.5t33.5 -13.5t11.5 -34.5v-264
q0 -39 -39 -57q-80 -33 -187 -33z" />
    <glyph glyph-name="H" unicode="H" horiz-adv-x="809" 
d="M148 -8q-22 0 -33.5 14t-11.5 34v640q0 21 11.5 34.5t33.5 13.5t33.5 -13.5t11.5 -34.5v-279h423v279q0 21 11.5 34.5t33.5 13.5t33.5 -13.5t11.5 -34.5v-640q0 -20 -11.5 -34t-33.5 -14q-21 0 -33 14t-12 34v279h-423v-279q0 -20 -11.5 -34t-33.5 -14z" />
    <glyph glyph-name="I" unicode="I" horiz-adv-x="295" 
d="M148 -8q-22 0 -33.5 14t-11.5 34v640q0 21 11.5 34.5t33.5 13.5t33.5 -13.5t11.5 -34.5v-640q0 -20 -11.5 -34t-33.5 -14z" />
    <glyph glyph-name="J" unicode="J" horiz-adv-x="456" 
d="M165 -16q-72 0 -116 30q-25 16 -25 42q0 15 10 25.5t27 10.5q12 0 41.5 -13t62.5 -13q105 0 105 169v444q0 18 13 31.5t31 13.5q19 0 32.5 -13.5t13.5 -31.5v-448q0 -247 -195 -247z" />
    <glyph glyph-name="K" unicode="K" horiz-adv-x="699" 
d="M148 -8q-22 0 -33.5 14t-11.5 34v640q0 21 11.5 34.5t33.5 13.5t33.5 -13.5t11.5 -34.5v-272h169l208 299q13 21 36 21q20 0 32.5 -13.5t12.5 -30.5q0 -16 -7 -26l-211 -291l228 -304q9 -13 9 -26q0 -18 -14 -31.5t-32 -13.5q-20 0 -37 22l-227 306h-167v-280
q0 -20 -11.5 -34t-33.5 -14z" />
    <glyph glyph-name="L" unicode="L" horiz-adv-x="548" 
d="M481 -8h-332q-46 0 -46 47v644q0 19 13 32t32 13t32 -13t13 -32l1 -609h286q17 0 29 -11.5t12 -30.5q0 -18 -11.5 -29t-28.5 -11z" />
    <glyph glyph-name="M" unicode="M" horiz-adv-x="935" 
d="M144 -8q-21 0 -31.5 13t-10.5 33v612q0 78 62 78q27 0 44.5 -16t35.5 -60l223 -541h2l224 542q18 44 35 59.5t45 15.5q30 0 45 -21.5t15 -56.5v-612q0 -20 -10.5 -33t-30.5 -13t-30.5 13t-10.5 33v544h-2l-216 -515q-17 -40 -31 -57.5t-34 -17.5t-34 17t-30 55l-217 518
h-2v-544q0 -19 -10.5 -32.5t-30.5 -13.5z" />
    <glyph glyph-name="N" unicode="N" horiz-adv-x="805" 
d="M148 -8q-22 0 -33.5 14t-11.5 34v630q0 27 12 42.5t34 15.5t37 -12t42 -50l384 -530h2l-2 544q0 21 12 34.5t34 13.5q21 0 32.5 -13.5t11.5 -34.5v-630q0 -58 -49 -58q-22 0 -41 17t-55 69l-364 501h-2l2 -539q0 -20 -11.5 -34t-33.5 -14z" />
    <glyph glyph-name="O" unicode="O" horiz-adv-x="845" 
d="M422 -16q-162 0 -263.5 104.5t-101.5 271.5q0 166 101.5 270.5t263.5 104.5q163 0 264.5 -104.5t101.5 -270.5q0 -167 -101 -271.5t-265 -104.5zM422 66q124 0 198.5 79.5t74.5 214.5q0 133 -75 213.5t-199 80.5q-122 0 -196.5 -80.5t-74.5 -213.5q0 -135 75 -214.5
t197 -79.5z" />
    <glyph glyph-name="P" unicode="P" horiz-adv-x="657" 
d="M148 -8q-22 0 -33.5 14t-11.5 34v642q0 46 46 46h172q148 0 221 -64.5t73 -182.5q0 -246 -292 -246h-130v-195q0 -20 -11.5 -34t-33.5 -14zM193 650v-337h132q104 0 152.5 41.5t48.5 126.5q0 169 -198 169h-135z" />
    <glyph glyph-name="Q" unicode="Q" horiz-adv-x="837" 
d="M779 360q0 -155 -86 -257t-231 -117q-1 -71 19.5 -102t67.5 -31q17 0 36 6t30 6q31 0 31 -33q1 -26 -26 -45q-30 -19 -74 -19q-170 0 -173 218q-143 15 -229.5 117t-86.5 257q0 166 100 270.5t261 104.5q162 0 261.5 -104t99.5 -271zM150 360q0 -135 73.5 -214.5
t194.5 -79.5q124 0 196 79t72 215q0 133 -73 213.5t-196 80.5q-122 0 -194.5 -80.5t-72.5 -213.5z" />
    <glyph glyph-name="R" unicode="R" horiz-adv-x="690" 
d="M148 -8q-22 0 -33.5 14t-11.5 34v642q0 46 46 46h205q276 0 276 -227q0 -87 -42.5 -143t-108.5 -72l127 -215q13 -19 13 -37t-15 -30t-34 -12q-22 0 -44 36l-147 247h-186v-235q0 -20 -11.5 -34t-33.5 -14zM193 650v-297h209q62 0 102 41t40 107q0 149 -186 149h-165z
" />
    <glyph glyph-name="S" unicode="S" horiz-adv-x="620" 
d="M570 192q0 -100 -73 -154.5t-189 -54.5q-128 0 -227 59q-32 19 -32 46q0 21 13.5 31.5t33.5 8.5q16 -5 58.5 -23.5t77.5 -28t74 -9.5q79 0 122.5 32.5t43.5 85.5q0 26 -12.5 47.5t-27 34.5t-48 28.5t-52 22t-62.5 20.5q-102 35 -152.5 79t-50.5 128q0 88 69.5 139
t186.5 51q61 0 115.5 -13t82.5 -32q23 -15 23 -40q0 -38 -42 -38q-10 0 -67 21t-116 21q-70 0 -112 -28.5t-42 -79.5q0 -47 35 -73t106 -49q36 -11 55 -17.5t49.5 -17.5t46 -20t37.5 -22.5t33 -28t22.5 -33.5t16 -42.5t4.5 -50.5z" />
    <glyph glyph-name="T" unicode="T" horiz-adv-x="615" 
d="M308 -8q-22 0 -33.5 14t-11.5 34l-1 607h-202q-16 0 -27.5 11.5t-11.5 28.5t11.5 29t28.5 12h493q17 0 29 -12t12 -29t-11.5 -28.5t-28.5 -11.5h-201l-1 -607q0 -20 -11.5 -34t-33.5 -14z" />
    <glyph glyph-name="U" unicode="U" horiz-adv-x="789" 
d="M394 -16q-148 0 -224 84t-76 228v384q0 21 11.5 34.5t33.5 13.5t33.5 -13.5t11.5 -34.5v-384q0 -103 51.5 -167t158.5 -64q108 0 159.5 64t51.5 167v384q0 21 12 34.5t34 13.5q21 0 32.5 -13.5t11.5 -34.5v-384q0 -143 -76.5 -227.5t-224.5 -84.5z" />
    <glyph glyph-name="V" unicode="V" horiz-adv-x="727" 
d="M366 -8q-31 0 -47.5 20t-41.5 78l-243 579q-9 23 3.5 41t38.5 18q18 0 26.5 -9t16.5 -29l245 -607h2l239 607q7 20 16 29t27 9q27 0 39 -18t3 -41l-237 -578q-23 -57 -39.5 -78t-47.5 -21z" />
    <glyph glyph-name="W" unicode="W" horiz-adv-x="1056" 
d="M296 -7q-29 0 -46.5 18t-31.5 68l-179 586q-7 24 6 42t38 18q35 0 45 -35l167 -598h2l162 561q11 44 26 59.5t43 15.5t43.5 -16t25.5 -58l163 -562h2l167 598q10 35 44 35q26 0 38.5 -18t6.5 -42l-180 -585q-15 -51 -32 -69.5t-46 -18.5q-30 0 -48 19.5t-31 69.5
l-152 513h-2l-152 -513q-13 -49 -30.5 -68.5t-48.5 -19.5z" />
    <glyph glyph-name="X" unicode="X" horiz-adv-x="662" 
d="M72 -7q-18 0 -30.5 12.5t-12.5 30.5q0 14 8 25l238 311l-222 287q-7 11 -7 25q0 18 12 30.5t30 12.5q23 0 37 -19l206 -271h2l204 271q13 19 38 19q18 0 30 -12.5t12 -29.5q0 -14 -8 -25l-222 -288l238 -311q8 -11 8 -25q0 -18 -12.5 -30.5t-30.5 -12.5q-22 0 -37 20
l-221 292h-2l-221 -293q-16 -19 -37 -19z" />
    <glyph glyph-name="Y" unicode="Y" horiz-adv-x="658" 
d="M329 -8q-21 0 -33 14t-12 34v245l-239 377q-6 8 -6 21q0 18 13 31.5t32 13.5q23 0 39 -25l205 -327h2l204 328q15 24 38 24q19 0 32 -13t13 -31q0 -12 -5 -21l-238 -378v-245q0 -20 -11.5 -34t-33.5 -14z" />
    <glyph glyph-name="Z" unicode="Z" horiz-adv-x="665" 
d="M591 -8h-513q-19 0 -33 14t-14 34q0 17 10 30l460 577h-409q-19 0 -31.5 10.5t-12.5 29.5q0 20 12.5 30.5t31.5 10.5h486q19 0 33 -13t14 -34q0 -17 -11 -30l-461 -577h438q18 0 30.5 -10.5t12.5 -30.5q0 -19 -12.5 -30t-30.5 -11z" />
    <glyph glyph-name="bracketleft" unicode="[" horiz-adv-x="374" 
d="M306 -180h-161q-46 0 -46 46v843q0 46 46 46h161q19 0 31 -11t12 -32t-12 -31.5t-31 -10.5h-120v-765h120q19 0 31 -10.5t12 -31.5t-12 -32t-31 -11z" />
    <glyph glyph-name="backslash" unicode="\" horiz-adv-x="447" 
d="M380 -214q-24 0 -33 25l-314 901q-6 17 4.5 31.5t30.5 14.5q25 0 32 -24l315 -901q5 -18 -5 -32.5t-30 -14.5z" />
    <glyph glyph-name="bracketright" unicode="]" horiz-adv-x="374" 
d="M229 -180h-161q-18 0 -30 11t-12 32t12 31.5t30 10.5h120v765h-120q-18 0 -30 10.5t-12 31.5t12 32t30 11h161q46 0 46 -46v-843q0 -46 -46 -46z" />
    <glyph glyph-name="asciicircum" unicode="^" horiz-adv-x="559" 
d="M72 417l133 264q20 48 74 48q53 0 74 -48l133 -264q4 -8 4 -16q0 -17 -12 -29t-29 -12q-27 0 -37 26l-132 268h-2l-132 -269q-11 -25 -37 -25q-17 0 -28.5 12t-11.5 28q0 11 3 17z" />
    <glyph glyph-name="underscore" unicode="_" horiz-adv-x="603" 
d="M515 -96h-427q-17 0 -28 10.5t-11 29.5q0 20 11 30t28 10h427q17 0 28 -10t11 -30q0 -19 -11 -29.5t-28 -10.5z" />
    <glyph glyph-name="grave" unicode="`" horiz-adv-x="600" 
d="M190 751l111 -129q11 -13 11 -32q0 -17 -11.5 -27.5t-27.5 -10.5q-11 0 -29 15l-122 115q-21 20 -21 43q0 21 14.5 35t34.5 14q21 0 40 -23z" />
    <glyph glyph-name="a" unicode="a" horiz-adv-x="579" 
d="M217 -16q-85 0 -132.5 39.5t-47.5 112.5q0 76 57 119.5t141 43.5q90 0 167 -44q0 89 -36.5 131.5t-116.5 42.5q-49 0 -102 -17q-20 -6 -27 -6q-36 0 -36 38q0 29 36 44q59 24 142 24q55 0 96 -15t66 -39.5t40 -62t20 -77.5t5 -91v-74q0 -42 6.5 -57.5t30.5 -27.5
q22 -15 22 -39q0 -20 -13 -33t-39 -12q-78 9 -85 104h-2q-69 -104 -192 -104zM235 57q65 0 113 42t54 93q-69 42 -143 42q-58 0 -93.5 -24.5t-35.5 -68.5q0 -84 105 -84z" />
    <glyph glyph-name="b" unicode="b" horiz-adv-x="639" 
d="M351 -16q-60 0 -111.5 28.5t-77.5 79.5h-2v-62q0 -16 -9.5 -27t-27.5 -11t-27.5 11.5t-9.5 28.5v678q0 21 11.5 34.5t33.5 13.5t33.5 -13.5t11.5 -34.5v-282h3q23 35 69.5 59.5t102.5 24.5q107 0 171.5 -72.5t64.5 -189.5q0 -116 -64.5 -191t-171.5 -75zM333 67
q73 0 117 50t44 131q0 82 -44 131.5t-115 49.5q-76 0 -120.5 -48t-44.5 -130q1 -83 45 -133.5t118 -50.5z" />
    <glyph glyph-name="c" unicode="c" horiz-adv-x="522" 
d="M313 -16q-120 0 -191 73.5t-71 191.5t71 190.5t192 72.5q91 0 143 -39q22 -17 22 -42q0 -15 -10.5 -25.5t-27.5 -10.5q-10 0 -47.5 17.5t-80.5 17.5q-76 0 -122.5 -51t-46.5 -131t46 -130.5t127 -50.5q43 0 80.5 17t47.5 17q17 0 27.5 -10.5t10.5 -25.5q0 -26 -24 -41
q-53 -40 -146 -40z" />
    <glyph glyph-name="d" unicode="d" horiz-adv-x="656" 
d="M291 -16q-106 0 -172.5 74t-66.5 189q0 119 65 192t173 73q60 0 103.5 -24.5t66.5 -60.5h2v283q0 21 12 34.5t34 13.5q21 0 32.5 -13.5t11.5 -34.5v-548q0 -41 7.5 -61t29.5 -32q23 -21 23 -39q0 -20 -13 -33.5t-39 -12.5q-79 10 -86 106h-2q-25 -51 -73 -78.5
t-108 -27.5zM306 67q74 0 118 50.5t44 133.5q0 82 -44.5 130.5t-119.5 48.5q-70 0 -114.5 -50t-44.5 -132q0 -81 44 -131t117 -50z" />
    <glyph glyph-name="e" unicode="e" horiz-adv-x="576" 
d="M327 -16q-132 0 -203.5 71.5t-71.5 195.5q0 118 68.5 189.5t176.5 71.5q110 0 170 -62t60 -167q0 -33 -11.5 -48.5t-40.5 -15.5h-330q0 -67 47 -110t134 -43q47 0 88 16t51 16q17 0 27.5 -10.5t10.5 -25.5q0 -25 -24 -41q-53 -37 -152 -37zM144 284h291q1 5 1 20
q0 60 -36.5 96t-104.5 36q-65 0 -108 -44.5t-43 -107.5z" />
    <glyph glyph-name="f" unicode="f" horiz-adv-x="378" 
d="M405 737q14 -14 14 -34q0 -17 -10.5 -27t-25.5 -10q-12 0 -36.5 10.5t-50.5 10.5q-43 0 -67.5 -31.5t-24.5 -88.5v-70h117q18 0 30 -10t12 -30q0 -19 -12 -29.5t-30 -10.5h-117v-377q0 -20 -11.5 -34t-33.5 -14t-33.5 14t-11.5 34l-1 377h-36q-18 0 -30.5 10.5
t-12.5 29.5q0 20 12.5 30t30.5 10h36v73q0 91 47.5 145.5t134.5 54.5q75 0 110 -33z" />
    <glyph glyph-name="g" unicode="g" horiz-adv-x="639" 
d="M288 -230q-52 0 -96.5 13t-66.5 31q-19 15 -19 37q0 37 40 37q11 0 53.5 -19t88.5 -19q78 0 126.5 44.5t48.5 147.5v25h-2q-56 -83 -168 -83q-109 0 -175 73.5t-66 190.5q0 116 65.5 190t176.5 74q58 0 107.5 -28.5t75.5 -79.5h2v60q0 17 9.5 28.5t27.5 11.5t27.5 -11.5
t9.5 -28.5l-1 -391q0 -147 -62 -225t-202 -78zM304 67q76 0 121 47.5t45 130.5q0 82 -45 133.5t-119 51.5q-72 0 -116.5 -50.5t-44.5 -131.5q0 -82 44 -131.5t115 -49.5z" />
    <glyph glyph-name="h" unicode="h" horiz-adv-x="634" 
d="M131 -8q-21 0 -33 14t-12 34v670q0 21 11.5 34.5t33.5 13.5t33.5 -13.5t11.5 -34.5v-281h2q24 35 70 59t103 24q205 0 205 -242v-230q0 -20 -11.5 -34t-33.5 -14q-21 0 -33 14t-12 34v222q0 168 -130 168q-70 0 -114.5 -45.5t-44.5 -121.5l-1 -223q0 -20 -11.5 -34
t-33.5 -14z" />
    <glyph glyph-name="i" unicode="i" horiz-adv-x="264" 
d="M132 597q-32 0 -53 20t-21 52q0 33 20.5 52t53.5 19t52.5 -19t19.5 -52q0 -32 -19.5 -52t-52.5 -20zM132 -8q-22 0 -33.5 14t-11.5 34v416q0 20 11.5 34t33.5 14t33.5 -14t11.5 -34v-416q0 -20 -11.5 -34t-33.5 -14z" />
    <glyph glyph-name="j" unicode="j" horiz-adv-x="272" 
d="M140 597q-32 0 -53 20t-21 52q0 33 20.5 52t53.5 19t52.5 -19t19.5 -52q0 -32 -19.5 -52t-52.5 -20zM31 -230q-70 0 -101 33q-13 13 -13 34q0 17 9.5 27t23.5 10q9 0 29.5 -10t43.5 -10q17 0 30 5t20.5 17.5t12 23t6 31.5t2 32.5t0.5 36.5v456q0 20 12 34t33 14
q22 0 33.5 -14t11.5 -34v-474q0 -212 -153 -212z" />
    <glyph glyph-name="k" unicode="k" horiz-adv-x="544" 
d="M131 -8q-21 0 -33 14t-12 34v670q0 21 11.5 34.5t33.5 13.5t33.5 -13.5t11.5 -34.5v-408h99l144 182q15 20 35 20q17 0 29.5 -12t12.5 -29q0 -14 -8 -25l-144 -177l151 -198q10 -13 10 -28q0 -18 -13 -30.5t-30 -12.5q-22 0 -36 20l-157 210h-93v-182q0 -20 -11.5 -34
t-33.5 -14z" />
    <glyph glyph-name="l" unicode="l" horiz-adv-x="266" 
d="M133 -8q-22 0 -33.5 14t-11.5 34v670q0 21 11.5 34.5t33.5 13.5t33.5 -13.5t11.5 -34.5v-670q0 -20 -11.5 -34t-33.5 -14z" />
    <glyph glyph-name="m" unicode="m" horiz-adv-x="981" 
d="M130 -8q-21 0 -33 14t-12 34v424q0 17 9.5 28.5t27.5 11.5t27.5 -11.5t9.5 -28.5v-66h2q23 50 72 82t107 32q129 0 173 -114h2q23 50 73.5 82t107.5 32q103 0 155 -62t52 -180v-230q0 -20 -11.5 -34t-32.5 -14q-22 0 -34 14t-12 34v222q0 168 -127 168q-63 0 -104.5 -48
t-41.5 -124v-218q0 -20 -11.5 -34t-33.5 -14t-33.5 14t-11.5 34v222q0 168 -125 168q-65 0 -107 -48.5t-42 -125.5l-1 -216q0 -20 -11.5 -34t-33.5 -14z" />
    <glyph glyph-name="n" unicode="n" 
d="M130 -8q-21 0 -33 14t-12 34v424q0 17 9.5 28.5t27.5 11.5t27.5 -11.5t9.5 -28.5v-66h2q23 50 75 82t114 32q205 0 205 -241v-231q0 -20 -11.5 -34t-33.5 -14t-33.5 14t-11.5 34v223q0 168 -130 168q-70 0 -114.5 -48.5t-44.5 -126.5l-1 -216q0 -20 -11.5 -34t-33.5 -14z
" />
    <glyph glyph-name="o" unicode="o" horiz-adv-x="630" 
d="M316 -16q-119 0 -192 72.5t-73 192.5t73 191.5t192 71.5q118 0 190.5 -71.5t72.5 -191.5t-72 -192.5t-191 -72.5zM317 65q76 0 122.5 50t46.5 134q0 83 -47 132.5t-125 49.5q-76 0 -123 -49.5t-47 -132.5t48 -133.5t125 -50.5z" />
    <glyph glyph-name="p" unicode="p" horiz-adv-x="640" 
d="M132 -215q-22 0 -33.5 14t-11.5 34v631q0 17 9.5 28.5t27.5 11.5t27.5 -10t9.5 -25v-61h2q29 50 78 77t105 27q113 0 177.5 -73.5t64.5 -189.5q0 -119 -67 -192t-174 -73q-113 0 -168 83h-2v-234q0 -21 -11.5 -34.5t-33.5 -13.5zM335 67q71 0 115.5 49.5t44.5 131.5
q0 81 -44.5 131.5t-117.5 50.5t-117 -51.5t-45 -133.5q0 -83 44.5 -130.5t119.5 -47.5z" />
    <glyph glyph-name="q" unicode="q" horiz-adv-x="640" 
d="M508 -215q-45 0 -45 48v233h-2q-24 -36 -67 -59t-101 -23q-107 0 -174 73t-67 192q0 116 65 189.5t177 73.5q59 0 108 -28t75 -77h2v60q0 37 37 37q18 0 27.5 -11.5t9.5 -28.5v-631q0 -21 -11.5 -34.5t-33.5 -13.5zM304 67q76 0 120.5 47.5t43.5 130.5q0 82 -44 133.5
t-118 51.5q-72 0 -116.5 -50.5t-44.5 -131.5q0 -82 44 -131.5t115 -49.5z" />
    <glyph glyph-name="r" unicode="r" horiz-adv-x="377" 
d="M130 -8q-21 0 -33 14t-12 34v424q0 17 9.5 28.5t27.5 11.5q37 0 37 -33v-68h2q22 45 64.5 76.5t91.5 32.5q21 1 32 -11t11 -30q0 -17 -11 -29t-31 -12q-63 -4 -103 -48t-40 -113v-229q0 -20 -11.5 -34t-33.5 -14z" />
    <glyph glyph-name="s" unicode="s" horiz-adv-x="515" 
d="M256 -16q-57 0 -108.5 14t-78.5 35q-23 18 -23 42q0 17 11 26t29 7q14 -4 45 -18t61.5 -22.5t65.5 -8.5q59 0 91.5 19t32.5 52q0 20 -10 35t-33 25t-43 15t-56 13q-39 8 -67.5 18t-56.5 27t-42.5 44t-14.5 63q0 66 53.5 104t147.5 38q97 0 153 -38q26 -15 26 -37
t-15.5 -30.5t-37.5 -2.5q-8 2 -28 10.5t-45.5 15.5t-55.5 7q-109 0 -109 -65q0 -18 9.5 -31t32 -22.5t41.5 -14.5t58 -13q32 -7 53.5 -13t48.5 -18t42.5 -27t26.5 -39.5t11 -55.5q0 -66 -51.5 -110t-163.5 -44z" />
    <glyph glyph-name="t" unicode="t" horiz-adv-x="403" 
d="M350 88q14 0 23.5 -10t9.5 -27q0 -21 -13 -35q-33 -33 -104 -33q-157 0 -157 212v222h-49q-16 0 -28 11.5t-12 28.5t12 28.5t28 11.5h50q4 58 13 90q13 35 40 35q17 0 26.5 -10.5t9.5 -27.5v-87h120q16 0 27.5 -12t11.5 -28t-11.5 -28t-27.5 -12h-120v-204
q0 -25 0.5 -36.5t2 -32.5t6.5 -31t13 -22.5t21.5 -17.5t31.5 -5q25 0 46 10t30 10z" />
    <glyph glyph-name="u" unicode="u" 
d="M287 -16q-103 0 -156 62t-53 180v230q0 20 11.5 34t32.5 14q22 0 34 -14t12 -34v-222q0 -168 134 -168q69 0 111.5 48t43.5 126l1 216q0 20 11.5 34t32.5 14q22 0 34 -14t12 -34v-424q0 -17 -10 -28.5t-28 -11.5q-19 0 -29 11.5t-10 28.5v63h-2q-23 -50 -72 -80.5
t-110 -30.5z" />
    <glyph glyph-name="v" unicode="v" horiz-adv-x="569" 
d="M289 -8h-7q-31 0 -48.5 17.5t-34.5 62.5l-161 371q-9 24 5 42.5t41 18.5q16 0 24 -8t15 -26l160 -393h2l161 392q14 35 45 35q26 0 37 -18t3 -42l-159 -369q-18 -47 -36 -65t-47 -18z" />
    <glyph glyph-name="w" unicode="w" horiz-adv-x="838" 
d="M242 -8h-2q-30 0 -46 17t-28 55l-126 377q-8 26 4 44.5t40 18.5q32 0 42 -36l117 -374h2l108 342q10 38 25 53t41 15h4q25 -1 39 -15.5t24 -52.5l107 -342h2l117 374q10 36 42 36q30 0 41.5 -18t2.5 -45l-126 -377q-13 -36 -29 -53.5t-44 -18.5h-2q-31 0 -45.5 16.5
t-26.5 55.5l-105 332h-2l-105 -332q-11 -36 -26.5 -54t-44.5 -18z" />
    <glyph glyph-name="x" unicode="x" horiz-adv-x="528" 
d="M79 -8q-17 0 -29.5 12.5t-12.5 29.5q0 13 8 24l161 197l-151 183q-8 9 -8 24q0 17 12.5 29.5t29.5 12.5q20 0 36 -20l138 -166h2l134 165q16 21 37 21q18 0 30.5 -12.5t12.5 -30.5q0 -13 -7 -23l-148 -182l158 -197q8 -11 8 -24q0 -18 -13 -30.5t-30 -12.5q-19 0 -35 19
l-147 182h-2l-149 -182q-14 -19 -35 -19z" />
    <glyph glyph-name="y" unicode="y" horiz-adv-x="555" 
d="M123 -230q-25 0 -41 6q-26 11 -26 40q0 17 11 27.5t29 9.5q8 -1 18 -1q42 0 68.5 34.5t48.5 91.5l-190 462q-9 22 5 43t40 21q31 0 44 -40l149 -391h3l148 393q14 38 46 38q26 0 37.5 -18.5t1.5 -44.5l-180 -445q-48 -118 -95.5 -172t-116.5 -54z" />
    <glyph glyph-name="z" unicode="z" horiz-adv-x="517" 
d="M442 -8h-366q-19 0 -29.5 11.5t-10.5 29.5q0 17 13 31l292 362h-249q-18 0 -29.5 10t-11.5 29t11.5 29t29.5 10h337q41 0 41 -42q0 -14 -10 -26l-297 -366h279q18 0 30 -10t12 -29t-12 -29t-30 -10z" />
    <glyph glyph-name="braceleft" unicode="{" horiz-adv-x="358" 
d="M35 286q0 28 21 40q27 14 37.5 21.5t19.5 26.5t9 51v95q0 132 41 190t122 58q45 0 45 -40q0 -32 -32 -39q-34 -3 -52 -17t-28 -54t-10 -115v-86q0 -34 -8 -59.5t-19.5 -38.5t-23 -21t-19.5 -10l-8 -1v-2q3 0 8.5 -1.5t19 -9.5t23.5 -20.5t18.5 -38.5t8.5 -60v-86
q0 -75 10 -115t28 -54t52 -17q32 -7 32 -39q0 -40 -45 -40q-81 0 -122 58t-41 190v95q0 32 -9 51t-19.5 26.5t-37.5 21.5q-21 12 -21 40z" />
    <glyph glyph-name="bar" unicode="|" horiz-adv-x="291" 
d="M99 -168v849q0 19 13.5 32.5t32.5 13.5t33 -14t14 -33v-848q0 -20 -13.5 -33.5t-33.5 -13.5q-19 0 -32.5 13.5t-13.5 33.5z" />
    <glyph glyph-name="braceright" unicode="}" horiz-adv-x="358" 
d="M324 286q0 -27 -22 -40q-27 -14 -37 -21t-19 -26.5t-9 -51.5v-95q0 -132 -41.5 -190t-122.5 -58q-45 0 -45 40q0 32 32 39q34 3 52 17t28 54t10 115v86q0 34 8 60t19.5 38.5t23 20.5t19.5 10l8 1v2q-3 0 -8.5 1.5t-19 10t-23.5 21t-18.5 38t-8.5 59.5v86q0 75 -10 115
t-28 54t-52 17q-32 7 -32 39q0 40 45 40q81 0 122.5 -58t41.5 -190v-95q0 -32 9 -51.5t19 -26.5t37 -21q22 -13 22 -40z" />
    <glyph glyph-name="asciitilde" unicode="~" horiz-adv-x="600" 
d="M409 359q45 0 55 66q7 16 28 16q17 0 27 -12t10 -31q0 -52 -28.5 -87t-77.5 -35q-48 0 -119 43t-105 43q-21 0 -33.5 -10t-16.5 -21.5t-7 -31.5q-5 -20 -29 -20q-17 0 -27 11t-10 28q0 51 28.5 86.5t83.5 35.5q46 0 89 -20t76.5 -40.5t55.5 -20.5z" />
    <glyph glyph-name="exclamdown" unicode="&#xa1;" horiz-adv-x="268" 
d="M134 506q30 0 49 -19t19 -50q0 -30 -19 -48.5t-49 -18.5t-49.5 18.5t-19.5 48.5q0 31 19 50t50 19zM134 244q18 0 30.5 -12.5t12.5 -30.5l5 -386q1 -20 -13.5 -34.5t-34.5 -14.5t-34 14t-14 34l4 387q1 18 13.5 30.5t30.5 12.5z" />
    <glyph glyph-name="cent" unicode="&#xa2;" horiz-adv-x="537" 
d="M448 204q17 0 27.5 -10t10.5 -25q0 -27 -24 -41q-41 -31 -110 -38v-70q0 -15 -11 -26t-27 -11t-27 11t-11 26v70q-103 13 -162.5 84t-59.5 178t59.5 178t162.5 84v66q0 15 11 26.5t27 11.5t27 -11.5t11 -26.5v-66q70 -7 107 -38q23 -16 23 -41q0 -15 -10.5 -25.5
t-28.5 -10.5q-10 0 -47 17t-80 17q-76 0 -122.5 -50.5t-46.5 -130.5t46 -131t127 -51q43 0 80.5 17t47.5 17z" />
    <glyph glyph-name="sterling" unicode="&#xa3;" horiz-adv-x="559" 
d="M461 164q16 0 27 -12t11 -29q0 -16 -11 -27.5t-27 -11.5h-322q-52 0 -52 42q0 21 27 52q45 50 50 140h-73q-15 0 -26 10.5t-11 26.5t11 26.5t26 10.5h74v8q0 129 44.5 185t137.5 56q71 0 116 -27q20 -13 20 -35q0 -19 -11 -30t-28 -11q-12 0 -22 5q-32 16 -78 16
q-60 0 -77.5 -38t-17.5 -123v-6h132q15 0 26 -10.5t11 -26.5t-11 -26.5t-26 -10.5h-133q-7 -108 -49 -154h262z" />
    <glyph glyph-name="currency" unicode="&#xa4;" horiz-adv-x="656" 
d="M568 165q15 -15 15 -30t-11.5 -26.5t-26.5 -11.5t-30 15l-54 54q-58 -39 -135 -39t-132 37l-52 -52q-15 -15 -31 -15q-15 0 -26 12t-11 26t14 30l52 52q-39 56 -39 133t41 134l-53 52q-15 15 -15 30q0 14 11.5 26t25.5 12t31 -15l55 -55q53 35 129 35t132 -37l57 57
q15 15 30 15t26 -12t11 -26q0 -16 -14 -30l-56 -55q39 -55 39 -131q0 -74 -38 -131zM326 192q65 0 106.5 45t41.5 113q0 67 -40.5 110.5t-107.5 43.5q-65 0 -106 -42t-41 -111q0 -70 41 -114.5t106 -44.5z" />
    <glyph glyph-name="yen" unicode="&#xa5;" horiz-adv-x="530" 
d="M474 593q0 -11 -6 -20l-157 -268h94q15 0 26.5 -11t11.5 -27q0 -15 -11.5 -26t-26.5 -11h-95v-114q0 -19 -13.5 -32t-32.5 -13t-32 13t-13 32v114h-93q-15 0 -26 11t-11 26q0 16 11 27t26 11h92l-157 268q-6 9 -6 19q0 17 12 29t29 12q25 0 37 -22l130 -226h2l131 226
q12 22 37 22q17 0 29 -12t12 -28z" />
    <glyph glyph-name="brokenbar" unicode="&#xa6;" horiz-adv-x="291" 
d="M192 681v-316q0 -19 -14 -32.5t-33 -13.5t-32.5 13.5t-13.5 32.5v316q0 19 13.5 32.5t32.5 13.5t33 -13.5t14 -32.5zM192 130v-299q0 -19 -14 -32.5t-33 -13.5t-32.5 13.5t-13.5 32.5v299q0 19 13.5 32.5t32.5 13.5t33 -13.5t14 -32.5z" />
    <glyph glyph-name="section" unicode="&#xa7;" horiz-adv-x="602" 
d="M479 171q65 -48 65 -130q0 -81 -60 -128.5t-175 -47.5q-137 0 -228 61q-21 16 -21 36q0 18 11.5 28t28.5 8q16 -6 56 -24.5t75.5 -28.5t76.5 -10q73 0 113.5 29t40.5 78q0 13 -2.5 24.5t-9.5 21t-12.5 16.5t-18 14t-20.5 11t-25 9.5t-25 8t-28 8.5t-28 8q-47 14 -77 25.5
t-62.5 28.5t-50.5 35.5t-29.5 45.5t-11.5 60q0 78 71 133q-53 44 -53 122q0 75 54.5 116t163.5 41q55 0 109.5 -13t81.5 -30q23 -15 23 -36q0 -20 -15 -28t-37 -2q-6 1 -32.5 11t-62.5 18.5t-75 8.5q-60 0 -95.5 -21.5t-35.5 -63.5q0 -17 3.5 -30.5t14 -24.5t17 -17.5
t27.5 -15t29.5 -11.5t37.5 -12t39 -12q4 -1 29.5 -9t33 -10.5t30.5 -11t32 -14.5t26.5 -17t25.5 -22t18 -26t13.5 -33.5t3.5 -39.5q0 -73 -60 -137zM146 365q0 -50 39.5 -76.5t140.5 -54.5q46 -12 87 -27q44 44 44 92q0 12 -1.5 22t-7.5 18.5t-9.5 15t-14 13t-15 10t-20 9
t-20.5 7.5t-24 8t-24 8q-89 28 -123 43q-52 -33 -52 -88z" />
    <glyph glyph-name="dieresis" unicode="&#xa8;" horiz-adv-x="567" 
d="M173 571q-30 0 -49.5 18.5t-19.5 48.5t19.5 47.5t49.5 17.5t48 -17.5t18 -47.5t-18 -48.5t-48 -18.5zM396 571q-30 0 -49 18.5t-19 48.5t19 47.5t49 17.5t48.5 -17.5t18.5 -47.5t-18 -48.5t-49 -18.5z" />
    <glyph glyph-name="copyright" unicode="&#xa9;" horiz-adv-x="887" 
d="M445 -40q-123 0 -212.5 53t-132.5 139t-43 193q0 164 104.5 276.5t281.5 112.5t282 -112.5t105 -276.5q0 -166 -101 -275.5t-284 -109.5zM445 30q145 0 229 85t84 230q0 141 -87.5 230t-227.5 89q-141 0 -227.5 -88.5t-86.5 -230.5q0 -144 85.5 -229.5t230.5 -85.5z
M444 133q-95 0 -152.5 58.5t-57.5 153.5t57.5 153.5t153.5 58.5q76 0 114 -28q18 -12 18 -34q0 -13 -8.5 -21.5t-22.5 -8.5q-8 0 -36.5 12t-65.5 12q-59 0 -96.5 -40t-37.5 -104q0 -65 37 -104.5t100 -39.5q37 0 65.5 11.5t36.5 11.5q15 0 23 -8t8 -21q0 -21 -19 -35
q-40 -27 -117 -27z" />
    <glyph glyph-name="ordfeminine" unicode="&#xaa;" horiz-adv-x="593" 
d="M53 513q0 -102 53.5 -162.5t144.5 -60.5q108 0 161 88h2q3 -35 23 -59.5t56 -28.5q23 -1 36 11t13 31q0 22 -18 37q-23 13 -28 29.5t-5 59.5v231q0 16 -10 27.5t-28 11.5t-27.5 -11.5t-9.5 -27.5v-46h-2q-19 42 -62.5 66t-103.5 24q-91 0 -143 -62t-52 -158zM269 356
q-62 0 -98.5 43t-36.5 112q0 68 37.5 111.5t96.5 43.5q65 0 102 -39t37 -112q-1 -71 -39 -115t-99 -44z" />
    <glyph glyph-name="guillemotleft" unicode="&#xab;" horiz-adv-x="483" 
d="M59 278l77 143q13 26 35 26q18 0 30.5 -10t12.5 -27q0 -9 -6 -23l-72 -136l72 -136q6 -14 6 -23q0 -17 -12.5 -27t-30.5 -10q-22 0 -35 26l-77 143q-7 16 -7 27t7 27zM264 278l77 143q13 26 35 26q18 0 30.5 -10t12.5 -27q0 -9 -6 -23l-72 -136l72 -136q6 -14 6 -23
q0 -17 -12.5 -27t-30.5 -10q-22 0 -35 26l-77 143q-7 13 -7 27t7 27z" />
    <glyph glyph-name="registered" unicode="&#xae;" horiz-adv-x="887" 
d="M445 -40q-123 0 -212.5 53t-132.5 139t-43 193q0 164 104.5 276.5t281.5 112.5t282 -112.5t105 -276.5q0 -166 -101 -275.5t-284 -109.5zM445 30q145 0 229 85t84 230q0 141 -87.5 230t-227.5 89q-141 0 -227.5 -88.5t-86.5 -230.5q0 -144 85.5 -229.5t230.5 -85.5z
M300 179v317q0 24 13.5 37.5t36.5 13.5h105q76 0 118 -31.5t42 -94.5q0 -96 -86 -115l67 -108q5 -10 5 -19q0 -15 -10 -25.5t-27 -10.5q-19 0 -30 18l-84 134h-77v-116q0 -36 -36 -36q-37 0 -37 36zM373 480v-123h94q68 0 68 61q0 62 -82 62h-80z" />
    <glyph glyph-name="macron" unicode="&#xaf;" horiz-adv-x="600" 
d="M410 593h-278q-16 0 -28 12t-12 29t11.5 29t28.5 12h278q17 0 29 -12t12 -29q0 -16 -12.5 -28.5t-28.5 -12.5z" />
    <glyph glyph-name="degree" unicode="&#xb0;" horiz-adv-x="450" 
d="M225 389q-76 0 -125 48.5t-49 122.5q0 73 48.5 121t125.5 48q76 0 125 -47.5t49 -121.5q0 -73 -49 -122t-125 -49zM225 456q42 0 68 28.5t26 75.5t-26 74.5t-68 27.5t-68.5 -27.5t-26.5 -74.5q0 -48 26.5 -76t68.5 -28z" />
    <glyph glyph-name="plusminus" unicode="&#xb1;" horiz-adv-x="532" 
d="M266 605q17 0 28.5 -10.5t11.5 -29.5v-70h108q17 0 28 -10t11 -29q0 -20 -11 -30t-28 -10h-108v-70q0 -19 -11.5 -29.5t-28.5 -10.5t-28.5 10.5t-11.5 29.5v70h-107q-40 0 -40 40q0 39 40 39h107v70q0 19 11.5 29.5t28.5 10.5zM119 206h293q19 0 29 -11.5t10 -28.5
t-10 -28.5t-29 -11.5h-293q-19 0 -29.5 11.5t-10.5 28.5t10.5 28.5t29.5 11.5z" />
    <glyph glyph-name="acute" unicode="&#xb4;" horiz-adv-x="385" 
d="M82 622l111 129q19 23 40 23q20 0 34.5 -14t14.5 -35q0 -24 -21 -43l-121 -115q-19 -15 -30 -15q-15 0 -27 10.5t-12 27.5q0 19 11 32z" />
    <glyph glyph-name="paragraph" unicode="&#xb6;" horiz-adv-x="641" 
d="M535 695v-3v-794q0 -15 -9 -25t-25 -10t-24.5 10t-8.5 25v756h-130v-749q0 -18 -10.5 -29.5t-29.5 -11.5t-29 12t-10 29v331q-105 0 -164.5 67.5t-59.5 179.5q0 111 60.5 177t167.5 68h2h235q33 0 35 -33z" />
    <glyph glyph-name="periodcentered" unicode="&#xb7;" horiz-adv-x="275" 
d="M137 182q-30 0 -49 19t-19 50q0 30 19 48.5t49 18.5q31 0 50 -18t19 -49t-19 -50t-50 -19z" />
    <glyph glyph-name="cedilla" unicode="&#xb8;" horiz-adv-x="600" 
d="M204 -271q-53 0 -91 25q-21 11 -21 34q0 16 9.5 25t22.5 9q6 0 28.5 -12t45.5 -12q62 0 62 52q0 47 -72 49q-17 1 -23 8t-2 27l12 42q8 33 37 33q16 0 27 -9t6 -22l-10 -34q4 0 11 -1.5t25.5 -8t32 -16.5t25 -30.5t11.5 -47.5q0 -49 -36 -80t-100 -31z" />
    <glyph glyph-name="ordmasculine" unicode="&#xba;" horiz-adv-x="546" 
d="M273 292q-100 0 -161 60.5t-61 160.5q0 102 61 162t161 60t160.5 -60t60.5 -162q0 -100 -60.5 -160.5t-160.5 -60.5zM273 363q63 0 101.5 41t38.5 109q0 69 -38.5 109.5t-102.5 40.5q-63 0 -101.5 -41t-38.5 -109t39.5 -109t101.5 -41z" />
    <glyph glyph-name="guillemotright" unicode="&#xbb;" horiz-adv-x="483" 
d="M142 421l77 -143q7 -16 7 -27t-7 -27l-77 -143q-13 -26 -35 -26q-18 0 -30.5 10t-12.5 27q0 12 6 23l72 136l-72 136q-6 10 -6 23q0 17 12.5 27t30.5 10q22 0 35 -26zM347 421l77 -143q7 -16 7 -27t-7 -27l-77 -143q-13 -26 -35 -26q-18 0 -30.5 10t-12.5 27q0 12 6 23
l72 136l-72 136q-6 10 -6 23q0 17 12.5 27t30.5 10q22 0 35 -26z" />
    <glyph glyph-name="onequarter" unicode="&#xbc;" horiz-adv-x="819" 
d="M558 700q0 -8 -4 -16l-288 -677q-10 -23 -33 -23q-15 0 -25 10.5t-10 24.5q0 8 4 16l288 677q9 23 33 23q15 0 25 -10.5t10 -24.5zM214 369q0 -17 -10 -28.5t-28 -11.5t-27.5 11.5t-9.5 28.5v266q-28 -12 -70 -25q-18 -1 -28.5 9.5t-10.5 27.5q0 26 26 36l98 37
q16 4 23 4q16 0 26.5 -10t10.5 -27v-318zM756 142q14 0 23.5 -10t9.5 -23q0 -14 -9.5 -24t-23.5 -10h-17v-42q0 -16 -10.5 -27t-26.5 -11t-26.5 11t-10.5 27v42h-190q-17 0 -27 10t-10 26q0 10 7 26l127 242q11 20 30 20q18 0 28 -10t10 -24q0 -8 -4 -16l-110 -207h142l5 57
q5 32 34 32q13 0 22.5 -9.5t9.5 -22.5v-57h17z" />
    <glyph glyph-name="onehalf" unicode="&#xbd;" horiz-adv-x="816" 
d="M227 -16q-15 0 -25 10.5t-10 24.5q0 8 4 16l287 677q11 23 33 23q15 0 25 -10t10 -25q0 -7 -3 -16l-288 -677q-10 -23 -33 -23zM176 329q-18 0 -28 11.5t-10 28.5v266q-28 -12 -70 -25q-17 -1 -28 9.5t-11 27.5q0 26 26 36l99 37q16 4 23 4q16 0 26 -9.5t10 -27.5v-318
q0 -17 -9.5 -28.5t-27.5 -11.5zM621 335q-12 0 -22.5 -2t-20 -6t-14.5 -6.5t-14.5 -8t-10.5 -6.5q-19 -13 -33 -13t-22.5 9.5t-8.5 21.5q0 22 21 37q52 41 129 41q136 -3 136 -116q0 -103 -166 -224v-2l145 1q14 0 23 -9.5t9 -23.5q0 -13 -9 -22t-22 -9h-232q-36 0 -36 33
q0 19 31 43q56 44 84.5 68t60.5 64.5t32 71.5q0 30 -15 43t-45 15z" />
    <glyph glyph-name="threequarters" unicode="&#xbe;" horiz-adv-x="911" 
d="M349 429q0 -55 -39.5 -84.5t-113.5 -30.5q-85 0 -133 36q-15 13 -15 27q0 11 7 19t19 8q13 0 42.5 -15t68.5 -16q78 4 78 63q0 37 -29 53.5t-71 16.5h-40q-9 0 -15.5 7t-6.5 18t6.5 18t16.5 7h41q39 0 65.5 15.5t26.5 50.5q0 32 -18.5 44t-51.5 14q-36 -1 -66 -16
t-43 -15q-12 0 -19 8t-7 19q0 14 15 27q49 37 130 37q146 -3 146 -107q0 -34 -23 -62.5t-54 -36.5v-3q35 -9 59 -35.5t24 -66.5zM650 700q0 -8 -4 -16l-288 -677q-10 -23 -33 -23q-15 0 -25 10.5t-10 24.5q0 8 4 16l288 677q9 23 33 23q15 0 25 -10.5t10 -24.5zM849 142
q13 0 23 -10t10 -23q0 -14 -9.5 -24t-23.5 -10h-17v-42q0 -16 -10.5 -27t-26.5 -11t-26.5 11t-10.5 27v42h-190q-17 0 -27 10t-10 26q0 10 7 26l127 242q11 20 30 20q18 0 28 -10t10 -24q0 -8 -4 -16l-109 -207h141l5 57q5 32 34 32q14 0 23 -9.5t9 -22.5v-57h17z" />
    <glyph glyph-name="questiondown" unicode="&#xbf;" horiz-adv-x="499" 
d="M284 520q30 0 49 -19t19 -50q0 -30 -19 -48.5t-49 -18.5q-31 0 -50 18t-19 49t19 50t50 19zM39 -52q0 91 61 141t140 63v89q0 20 11.5 33.5t32.5 13.5q22 0 34 -13.5t12 -33.5v-100q0 -45 -52 -60q-147 -25 -147 -131q0 -101 139 -101q57 0 104.5 20t58.5 20
q17 0 27.5 -12t10.5 -27q0 -25 -34 -45q-68 -36 -164 -36q-119 0 -176.5 47.5t-57.5 131.5z" />
    <glyph glyph-name="Agrave" unicode="&#xc0;" horiz-adv-x="701" 
d="M204 922q-21 17 -21 43q0 21 14.5 34.5t33.5 13.5q22 0 41 -23l110 -129q12 -14 12 -31t-12 -28t-27 -11q-12 0 -30 15zM664 52q9 -24 -2.5 -42t-38.5 -18q-18 0 -27 9.5t-17 29.5l-64 165h-4h-325l-64 -165q-8 -20 -17 -29.5t-26 -9.5q-27 0 -39 18t-3 42l231 586
q20 51 36 70.5t47 19.5q33 0 48 -19.5t36 -74.5zM217 277h266l-132 339h-2z" />
    <glyph glyph-name="Aacute" unicode="&#xc1;" horiz-adv-x="701" 
d="M324 791q-16 0 -27.5 11t-11.5 28q0 18 11 31l111 129q19 23 40 23q20 0 34.5 -13.5t14.5 -34.5q0 -26 -21 -43l-122 -116q-18 -15 -29 -15zM664 52q9 -24 -2.5 -42t-38.5 -18q-18 0 -27 9.5t-17 29.5l-64 165h-4h-325l-64 -165q-8 -20 -17 -29.5t-26 -9.5q-27 0 -39 18
t-3 42l231 586q20 51 36 70.5t47 19.5q33 0 48 -19.5t36 -74.5zM217 277h266l-132 339h-2z" />
    <glyph glyph-name="Acircumflex" unicode="&#xc2;" horiz-adv-x="701" 
d="M220 777q-16 0 -27 11.5t-11 28.5t18 35l63 69q55 59 93 59q34 0 98 -66l58 -63q17 -15 17 -35q0 -16 -11.5 -27.5t-27.5 -11.5q-15 0 -27 12l-107 109h-2l-107 -110q-11 -11 -27 -11zM664 52q9 -24 -2.5 -42t-38.5 -18q-18 0 -27 9.5t-17 29.5l-64 165h-4h-325l-64 -165
q-8 -20 -17 -29.5t-26 -9.5q-27 0 -39 18t-3 42l231 586q20 51 36 70.5t47 19.5q33 0 48 -19.5t36 -74.5zM217 277h266l-132 339h-2z" />
    <glyph glyph-name="Atilde" unicode="&#xc3;" horiz-adv-x="701" 
d="M185 792q-17 0 -26.5 11t-9.5 28q0 51 28 86.5t82 35.5q39 0 71.5 -20.5t57 -40.5t42.5 -20q45 0 53 67q9 16 29 16q17 0 27 -12.5t10 -31.5q0 -52 -28 -87t-77 -35q-34 0 -66 21.5t-59 43t-49 21.5q-20 0 -32.5 -9.5t-16.5 -21.5t-6 -31q-5 -21 -30 -21zM664 52
q9 -24 -2.5 -42t-38.5 -18q-18 0 -27 9.5t-17 29.5l-64 165h-4h-325l-64 -165q-8 -20 -17 -29.5t-26 -9.5q-27 0 -39 18t-3 42l231 586q20 51 36 70.5t47 19.5q33 0 48 -19.5t36 -74.5zM217 277h266l-132 339h-2z" />
    <glyph glyph-name="Adieresis" unicode="&#xc4;" horiz-adv-x="701" 
d="M242 806q-30 0 -49 18.5t-19 48.5t19 47.5t49 17.5t48.5 -17.5t18.5 -47.5t-18 -48.5t-49 -18.5zM466 806q-30 0 -49 18.5t-19 48.5t19 47.5t49 17.5t48.5 -17.5t18.5 -47.5t-18 -48.5t-49 -18.5zM664 52q9 -24 -2.5 -42t-38.5 -18q-18 0 -27 9.5t-17 29.5l-64 165h-4
h-325l-64 -165q-8 -20 -17 -29.5t-26 -9.5q-27 0 -39 18t-3 42l231 586q20 51 36 70.5t47 19.5q33 0 48 -19.5t36 -74.5zM217 277h266l-132 339h-2z" />
    <glyph glyph-name="Aring" unicode="&#xc5;" horiz-adv-x="701" 
d="M351 782q-46 0 -77.5 29t-31.5 77t31.5 77t77.5 29q47 0 78.5 -29t31.5 -77t-31.5 -77t-78.5 -29zM351 934q-20 0 -32.5 -13t-12.5 -33q0 -21 12.5 -33.5t32.5 -12.5t33 12.5t13 33.5q0 20 -13 33t-33 13zM664 52q9 -24 -2.5 -42t-38.5 -18q-18 0 -27 9.5t-17 29.5
l-64 165h-4h-325l-64 -165q-8 -20 -17 -29.5t-26 -9.5q-27 0 -39 18t-3 42l231 586q20 51 36 70.5t47 19.5q33 0 48 -19.5t36 -74.5zM217 277h266l-132 339h-2z" />
    <glyph glyph-name="AE" unicode="&#xc6;" horiz-adv-x="937" 
d="M846 74q17 0 28.5 -11.5t11.5 -30.5q0 -18 -11 -29t-28 -11h-347q-46 0 -46 47v157h-252l-107 -178q-14 -26 -41 -26q-29 0 -40.5 23t1.5 45l365 616q17 30 30.5 41t35.5 11h399q17 0 28.5 -11.5t11.5 -29.5t-11 -29t-28 -11h-303v-246h267q18 0 29.5 -11.5t11.5 -30.5
q0 -18 -11.5 -29t-28.5 -11h-268l1 -245h302zM250 277h204v336h-2z" />
    <glyph glyph-name="Ccedilla" unicode="&#xc7;" horiz-adv-x="647" 
d="M573 97q17 1 27.5 -10t10.5 -28q0 -24 -26 -41q-58 -34 -148 -34h-6l-8 -28q4 0 11 -1.5t25 -8t32 -16.5t25 -30.5t11 -47.5q0 -49 -36 -80t-100 -31q-52 0 -90 25q-22 12 -22 34q0 16 9.5 25t22.5 9q6 0 29 -12t46 -12q62 0 62 52q0 47 -72 49q-17 1 -23.5 8t-1.5 27
l11 42q0 1 1 2q-139 22 -223 121.5t-84 248.5q0 169 105 272t276 103q91 0 150 -37q25 -13 25 -37q0 -20 -12 -31t-30 -9q-85 29 -135 29q-128 0 -207 -79t-79 -211q0 -135 80 -213t206 -78q21 0 41.5 3t33.5 6.5t33 9.5z" />
    <glyph glyph-name="Egrave" unicode="&#xc8;" horiz-adv-x="586" 
d="M241 990l110 -129q12 -14 12 -31t-12 -28t-27 -11q-12 0 -30 15l-122 116q-20 17 -20 43q0 21 14 34.5t34 13.5q22 0 41 -23zM495 -8h-346q-46 0 -46 47v643q0 46 46 46h344q18 0 29.5 -11.5t11.5 -29.5t-11 -29t-29 -11h-303l1 -246h267q17 0 29 -11.5t12 -30.5
q0 -18 -11.5 -29t-28.5 -11h-268l1 -245h301q18 0 29.5 -11.5t11.5 -30.5q0 -18 -11.5 -29t-28.5 -11z" />
    <glyph glyph-name="Eacute" unicode="&#xc9;" horiz-adv-x="586" 
d="M265 861l110 129q19 23 41 23q20 0 34 -13.5t14 -34.5q0 -26 -21 -43l-121 -116q-18 -15 -30 -15q-15 0 -27 11t-12 28t12 31zM495 -8h-346q-46 0 -46 47v643q0 46 46 46h344q18 0 29.5 -11.5t11.5 -29.5t-11 -29t-29 -11h-303l1 -246h267q17 0 29 -11.5t12 -30.5
q0 -18 -11.5 -29t-28.5 -11h-268l1 -245h301q18 0 29.5 -11.5t11.5 -30.5q0 -18 -11.5 -29t-28.5 -11z" />
    <glyph glyph-name="Ecircumflex" unicode="&#xca;" horiz-adv-x="586" 
d="M188 777q-16 0 -27 11.5t-11 28.5q0 16 19 35l62 69q56 59 93 59q34 0 98 -66l59 -63q16 -15 16 -35q0 -17 -11 -28t-27 -11q-15 0 -28 12l-106 109h-2l-108 -110q-10 -11 -27 -11zM495 -8h-346q-46 0 -46 47v643q0 46 46 46h344q18 0 29.5 -11.5t11.5 -29.5t-11 -29
t-29 -11h-303l1 -246h267q17 0 29 -11.5t12 -30.5q0 -18 -11.5 -29t-28.5 -11h-268l1 -245h301q18 0 29.5 -11.5t11.5 -30.5q0 -18 -11.5 -29t-28.5 -11z" />
    <glyph glyph-name="Edieresis" unicode="&#xcb;" horiz-adv-x="586" 
d="M211 806q-30 0 -49 18.5t-19 48.5t19 47.5t49 17.5t48.5 -17.5t18.5 -47.5t-18.5 -48.5t-48.5 -18.5zM435 806q-30 0 -49.5 18.5t-19.5 48.5t19.5 47.5t49.5 17.5t48 -17.5t18 -47.5t-18 -48.5t-48 -18.5zM495 -8h-346q-46 0 -46 47v643q0 46 46 46h344q18 0 29.5 -11.5
t11.5 -29.5t-11 -29t-29 -11h-303l1 -246h267q17 0 29 -11.5t12 -30.5q0 -18 -11.5 -29t-28.5 -11h-268l1 -245h301q18 0 29.5 -11.5t11.5 -30.5q0 -18 -11.5 -29t-28.5 -11z" />
    <glyph glyph-name="Igrave" unicode="&#xcc;" horiz-adv-x="295" 
d="M70 990l110 -129q12 -14 12 -31t-12 -28t-27 -11q-12 0 -30 15l-121 116q-21 17 -21 43q0 21 14.5 34.5t33.5 13.5q22 0 41 -23zM148 -8q-22 0 -33.5 14t-11.5 34v640q0 21 11.5 34.5t33.5 13.5t33.5 -13.5t11.5 -34.5v-640q0 -20 -11.5 -34t-33.5 -14z" />
    <glyph glyph-name="Iacute" unicode="&#xcd;" horiz-adv-x="295" 
d="M94 861l111 129q19 23 40 23q20 0 34.5 -13.5t14.5 -34.5q0 -26 -21 -43l-122 -116q-18 -15 -29 -15q-16 0 -27.5 11t-11.5 28q0 18 11 31zM148 -8q-22 0 -33.5 14t-11.5 34v640q0 21 11.5 34.5t33.5 13.5t33.5 -13.5t11.5 -34.5v-640q0 -20 -11.5 -34t-33.5 -14z" />
    <glyph glyph-name="Icircumflex" unicode="&#xce;" horiz-adv-x="295" 
d="M18 777q-16 0 -27 11.5t-11 28.5t18 35l63 69q55 59 93 59q34 0 98 -66l58 -63q17 -15 17 -35q0 -16 -11.5 -27.5t-27.5 -11.5q-15 0 -27 12l-107 109h-2l-107 -110q-11 -11 -27 -11zM148 -8q-22 0 -33.5 14t-11.5 34v640q0 21 11.5 34.5t33.5 13.5t33.5 -13.5
t11.5 -34.5v-640q0 -20 -11.5 -34t-33.5 -14z" />
    <glyph glyph-name="Idieresis" unicode="&#xcf;" horiz-adv-x="295" 
d="M40 806q-30 0 -49 18.5t-19 48.5t19 47.5t49 17.5t48.5 -17.5t18.5 -47.5t-18 -48.5t-49 -18.5zM264 806q-30 0 -49 18.5t-19 48.5t19 47.5t49 17.5t48.5 -17.5t18.5 -47.5t-18 -48.5t-49 -18.5zM148 -8q-22 0 -33.5 14t-11.5 34v640q0 21 11.5 34.5t33.5 13.5
t33.5 -13.5t11.5 -34.5v-640q0 -20 -11.5 -34t-33.5 -14z" />
    <glyph glyph-name="Eth" unicode="&#xd0;" horiz-adv-x="796" 
d="M357 728q183 0 282 -97.5t99 -270.5q0 -171 -99.5 -269t-281.5 -99h-199q-46 0 -46 47v281h-36q-19 0 -29.5 11t-10.5 30q0 18 10.5 29t29.5 11h36v281q0 46 46 46h199zM357 74q137 0 212.5 75t75.5 211t-74 211.5t-214 75.5h-155v-246h136q19 0 30 -11t11 -29
q0 -19 -11 -30t-30 -11h-136v-246h155z" />
    <glyph glyph-name="Ntilde" unicode="&#xd1;" horiz-adv-x="805" 
d="M320 953q39 0 72 -20.5t57.5 -40.5t42.5 -20q43 0 53 67q7 16 29 16q17 0 26.5 -12.5t9.5 -31.5q0 -52 -27.5 -87t-76.5 -35q-34 0 -66.5 21.5t-59.5 43t-49 21.5q-29 0 -39.5 -16t-15.5 -46q-5 -21 -29 -21q-37 0 -37 39q0 51 28 86.5t82 35.5zM148 -8q-22 0 -33.5 14
t-11.5 34v630q0 27 12 42.5t34 15.5t37 -12t42 -50l384 -530h2l-2 544q0 21 12 34.5t34 13.5q21 0 32.5 -13.5t11.5 -34.5v-630q0 -58 -49 -58q-22 0 -41 17t-55 69l-364 501h-2l2 -539q0 -20 -11.5 -34t-33.5 -14z" />
    <glyph glyph-name="Ograve" unicode="&#xd2;" horiz-adv-x="845" 
d="M343 1005l111 -129q11 -13 11 -31q0 -17 -11.5 -28t-27.5 -11q-11 0 -29 15l-122 116q-21 18 -21 43q0 21 14.5 34.5t34.5 13.5q21 0 40 -23zM422 -16q-162 0 -263.5 104.5t-101.5 271.5q0 166 101.5 270.5t263.5 104.5q163 0 264.5 -104.5t101.5 -270.5
q0 -167 -101 -271.5t-265 -104.5zM422 66q124 0 198.5 79.5t74.5 214.5q0 133 -75 213.5t-199 80.5q-122 0 -196.5 -80.5t-74.5 -213.5q0 -135 75 -214.5t197 -79.5z" />
    <glyph glyph-name="Oacute" unicode="&#xd3;" horiz-adv-x="845" 
d="M368 876l110 129q19 23 41 23q19 0 33.5 -13.5t14.5 -34.5q0 -26 -21 -43l-121 -116q-18 -15 -30 -15q-15 0 -27 11t-12 28t12 31zM422 -16q-162 0 -263.5 104.5t-101.5 271.5q0 166 101.5 270.5t263.5 104.5q163 0 264.5 -104.5t101.5 -270.5q0 -167 -101 -271.5
t-265 -104.5zM422 66q124 0 198.5 79.5t74.5 214.5q0 133 -75 213.5t-199 80.5q-122 0 -196.5 -80.5t-74.5 -213.5q0 -135 75 -214.5t197 -79.5z" />
    <glyph glyph-name="Ocircumflex" unicode="&#xd4;" horiz-adv-x="845" 
d="M291 792q-16 0 -27 11.5t-11 28.5t18 35l63 69q56 59 93 59q34 0 98 -66l58 -63q17 -15 17 -35q0 -16 -11 -27.5t-27 -11.5t-28 12l-106 109h-2l-108 -110q-11 -11 -27 -11zM422 -16q-162 0 -263.5 104.5t-101.5 271.5q0 166 101.5 270.5t263.5 104.5q163 0 264.5 -104.5
t101.5 -270.5q0 -167 -101 -271.5t-265 -104.5zM422 66q124 0 198.5 79.5t74.5 214.5q0 133 -75 213.5t-199 80.5q-122 0 -196.5 -80.5t-74.5 -213.5q0 -135 75 -214.5t197 -79.5z" />
    <glyph glyph-name="Otilde" unicode="&#xd5;" horiz-adv-x="845" 
d="M330 968q31 0 58.5 -12.5t44.5 -28t35.5 -28t33.5 -12.5q43 0 53 67q7 16 29 16q17 0 26.5 -12.5t9.5 -31.5q0 -52 -27.5 -87t-76.5 -35q-34 0 -66.5 21.5t-59.5 43t-49 21.5q-29 0 -39.5 -16t-15.5 -46q-5 -21 -29 -21q-37 0 -37 39q0 51 28 86.5t82 35.5zM422 -16
q-162 0 -263.5 104.5t-101.5 271.5q0 166 101.5 270.5t263.5 104.5q163 0 264.5 -104.5t101.5 -270.5q0 -167 -101 -271.5t-265 -104.5zM422 66q124 0 198.5 79.5t74.5 214.5q0 133 -75 213.5t-199 80.5q-122 0 -196.5 -80.5t-74.5 -213.5q0 -135 75 -214.5t197 -79.5z" />
    <glyph glyph-name="Odieresis" unicode="&#xd6;" horiz-adv-x="845" 
d="M314 821q-30 0 -49.5 18.5t-19.5 48.5t19.5 47.5t49.5 17.5t48 -17.5t18 -47.5t-18 -48.5t-48 -18.5zM538 821q-30 0 -49.5 18.5t-19.5 48.5t19.5 47.5t49.5 17.5t48 -17.5t18 -47.5t-18 -48.5t-48 -18.5zM422 -16q-162 0 -263.5 104.5t-101.5 271.5q0 166 101.5 270.5
t263.5 104.5q163 0 264.5 -104.5t101.5 -270.5q0 -167 -101 -271.5t-265 -104.5zM422 66q124 0 198.5 79.5t74.5 214.5q0 133 -75 213.5t-199 80.5q-122 0 -196.5 -80.5t-74.5 -213.5q0 -135 75 -214.5t197 -79.5z" />
    <glyph glyph-name="multiply" unicode="&#xd7;" horiz-adv-x="484" 
d="M109 186q-17 0 -28.5 12t-11.5 28q0 17 12 29l103 103l-101 101q-12 12 -12 28q0 17 12 29t29 12q18 0 28 -12l102 -101l102 102q11 11 29 11q16 0 28 -11.5t12 -28.5q0 -14 -12 -28l-102 -101l103 -104q12 -12 12 -28q0 -17 -12 -29t-29 -12q-15 0 -29 12l-102 103
l-104 -103q-11 -12 -29 -12z" />
    <glyph glyph-name="Oslash" unicode="&#xd8;" horiz-adv-x="869" 
d="M825 699q0 -17 -14 -31l-80 -79q67 -97 67 -229q0 -167 -101 -271.5t-264 -104.5q-137 0 -234 78l-73 -73q-16 -15 -31 -15q-17 0 -30 14.5t-13 32.5q0 17 14 31l73 73q-71 98 -71 235q0 166 101.5 270.5t263.5 104.5q142 0 240 -82l79 78q16 14 32 14t28.5 -14t12.5 -32
zM160 360q0 -100 44 -172l408 404q-73 62 -180 62q-122 0 -197 -80.5t-75 -213.5zM706 360q0 94 -40 165l-405 -402q69 -57 172 -57q124 0 198.5 79.5t74.5 214.5z" />
    <glyph glyph-name="Ugrave" unicode="&#xd9;" horiz-adv-x="789" 
d="M314 990l110 -129q12 -14 12 -31t-12 -28t-27 -11q-12 0 -30 15l-121 116q-21 17 -21 43q0 21 14.5 34.5t33.5 13.5q22 0 41 -23zM394 -16q-148 0 -224 84t-76 228v384q0 21 11.5 34.5t33.5 13.5t33.5 -13.5t11.5 -34.5v-384q0 -103 51.5 -167t158.5 -64q108 0 159.5 64
t51.5 167v384q0 21 12 34.5t34 13.5q21 0 32.5 -13.5t11.5 -34.5v-384q0 -143 -76.5 -227.5t-224.5 -84.5z" />
    <glyph glyph-name="Uacute" unicode="&#xda;" horiz-adv-x="789" 
d="M338 861l111 129q19 23 40 23q20 0 34.5 -13.5t14.5 -34.5q0 -26 -21 -43l-122 -116q-18 -15 -29 -15q-16 0 -27.5 11t-11.5 28q0 18 11 31zM394 -16q-148 0 -224 84t-76 228v384q0 21 11.5 34.5t33.5 13.5t33.5 -13.5t11.5 -34.5v-384q0 -103 51.5 -167t158.5 -64
q108 0 159.5 64t51.5 167v384q0 21 12 34.5t34 13.5q21 0 32.5 -13.5t11.5 -34.5v-384q0 -143 -76.5 -227.5t-224.5 -84.5z" />
    <glyph glyph-name="Ucircumflex" unicode="&#xdb;" horiz-adv-x="789" 
d="M262 777q-16 0 -27 11.5t-11 28.5t18 35l63 69q55 59 93 59q34 0 98 -66l58 -63q17 -15 17 -35q0 -16 -11.5 -27.5t-27.5 -11.5q-15 0 -27 12l-107 109h-2l-107 -110q-11 -11 -27 -11zM394 -16q-148 0 -224 84t-76 228v384q0 21 11.5 34.5t33.5 13.5t33.5 -13.5
t11.5 -34.5v-384q0 -103 51.5 -167t158.5 -64q108 0 159.5 64t51.5 167v384q0 21 12 34.5t34 13.5q21 0 32.5 -13.5t11.5 -34.5v-384q0 -143 -76.5 -227.5t-224.5 -84.5z" />
    <glyph glyph-name="Udieresis" unicode="&#xdc;" horiz-adv-x="789" 
d="M284 806q-30 0 -49 18.5t-19 48.5t19 47.5t49 17.5t48.5 -17.5t18.5 -47.5t-18 -48.5t-49 -18.5zM508 806q-30 0 -49 18.5t-19 48.5t19 47.5t49 17.5t48.5 -17.5t18.5 -47.5t-18 -48.5t-49 -18.5zM394 -16q-148 0 -224 84t-76 228v384q0 21 11.5 34.5t33.5 13.5
t33.5 -13.5t11.5 -34.5v-384q0 -103 51.5 -167t158.5 -64q108 0 159.5 64t51.5 167v384q0 21 12 34.5t34 13.5q21 0 32.5 -13.5t11.5 -34.5v-384q0 -143 -76.5 -227.5t-224.5 -84.5z" />
    <glyph glyph-name="Yacute" unicode="&#xdd;" horiz-adv-x="658" 
d="M273 872l110 129q18 22 41 22q20 0 34.5 -13.5t14.5 -34.5q0 -23 -21 -43l-122 -116q-17 -14 -29 -14q-16 0 -28 10.5t-12 27.5q0 18 12 32zM329 -8q-21 0 -33 14t-12 34v245l-239 377q-6 8 -6 21q0 18 13 31.5t32 13.5q23 0 39 -25l205 -327h2l204 328q15 24 38 24
q19 0 32 -13t13 -31q0 -12 -5 -21l-238 -378v-245q0 -20 -11.5 -34t-33.5 -14z" />
    <glyph glyph-name="Thorn" unicode="&#xde;" horiz-adv-x="678" 
d="M625 360q0 -242 -286 -243h-146v-77q0 -20 -11.5 -34t-33.5 -14t-33.5 14t-11.5 34v640q0 21 11.5 34.5t33.5 13.5t33.5 -13.5t11.5 -34.5v-77h146q286 0 286 -243zM533 360q0 161 -193 161h-147v-322h147q101 0 147 39.5t46 121.5z" />
    <glyph glyph-name="germandbls" unicode="&#xdf;" horiz-adv-x="644" 
d="M86 40v505q0 117 64.5 171t167.5 54q90 0 144.5 -42t54.5 -110q0 -33 -16.5 -64t-36 -50.5t-36 -45t-16.5 -48.5q0 -26 19.5 -47t48 -38t56.5 -37t47.5 -53.5t19.5 -78.5q0 -81 -56.5 -126t-158.5 -45q-76 0 -123 28q-26 15 -26 41q0 40 40 40q3 0 34.5 -11.5t71.5 -11.5
q125 0 125 96q0 29 -20 52t-48.5 40.5t-57 36t-48.5 47t-20 64.5t27.5 72t55 70t27.5 64q0 38 -30 57t-78 19q-142 0 -142 -144v-505q0 -20 -11.5 -34t-33.5 -14q-21 0 -33 14t-12 34z" />
    <glyph glyph-name="agrave" unicode="&#xe0;" horiz-adv-x="579" 
d="M198 782l111 -129q11 -15 11 -31q0 -17 -12 -28t-27 -11q-12 0 -30 15l-121 116q-21 17 -21 43q0 21 14.5 34.5t33.5 13.5q22 0 41 -23zM217 -16q-85 0 -132.5 39.5t-47.5 112.5q0 76 57 119.5t141 43.5q90 0 167 -44q0 89 -36.5 131.5t-116.5 42.5q-49 0 -102 -17
q-20 -6 -27 -6q-36 0 -36 38q0 29 36 44q59 24 142 24q55 0 96 -15t66 -39.5t40 -62t20 -77.5t5 -91v-74q0 -42 6.5 -57.5t30.5 -27.5q22 -15 22 -39q0 -20 -13 -33t-39 -12q-78 9 -85 104h-2q-69 -104 -192 -104zM235 57q65 0 113 42t54 93q-69 42 -143 42
q-58 0 -93.5 -24.5t-35.5 -68.5q0 -84 105 -84z" />
    <glyph glyph-name="aacute" unicode="&#xe1;" horiz-adv-x="579" 
d="M222 653l111 129q19 23 40 23q20 0 34.5 -13.5t14.5 -34.5q0 -26 -21 -43l-121 -116q-19 -15 -30 -15q-15 0 -27 11t-12 28q0 18 11 31zM217 -16q-85 0 -132.5 39.5t-47.5 112.5q0 76 57 119.5t141 43.5q90 0 167 -44q0 89 -36.5 131.5t-116.5 42.5q-49 0 -102 -17
q-20 -6 -27 -6q-36 0 -36 38q0 29 36 44q59 24 142 24q55 0 96 -15t66 -39.5t40 -62t20 -77.5t5 -91v-74q0 -42 6.5 -57.5t30.5 -27.5q22 -15 22 -39q0 -20 -13 -33t-39 -12q-78 9 -85 104h-2q-69 -104 -192 -104zM235 57q65 0 113 42t54 93q-69 42 -143 42
q-58 0 -93.5 -24.5t-35.5 -68.5q0 -84 105 -84z" />
    <glyph glyph-name="acircumflex" unicode="&#xe2;" horiz-adv-x="579" 
d="M146 569q-16 0 -27 11.5t-11 28.5t18 34l63 70q56 59 93 59q34 0 98 -66l58 -63q17 -15 17 -35q0 -16 -11.5 -27.5t-27.5 -11.5q-15 0 -27 12l-107 109h-2l-107 -110q-11 -11 -27 -11zM217 -16q-85 0 -132.5 39.5t-47.5 112.5q0 76 57 119.5t141 43.5q90 0 167 -44
q0 89 -36.5 131.5t-116.5 42.5q-49 0 -102 -17q-20 -6 -27 -6q-36 0 -36 38q0 29 36 44q59 24 142 24q55 0 96 -15t66 -39.5t40 -62t20 -77.5t5 -91v-74q0 -42 6.5 -57.5t30.5 -27.5q22 -15 22 -39q0 -20 -13 -33t-39 -12q-78 9 -85 104h-2q-69 -104 -192 -104zM235 57
q65 0 113 42t54 93q-69 42 -143 42q-58 0 -93.5 -24.5t-35.5 -68.5q0 -84 105 -84z" />
    <glyph glyph-name="atilde" unicode="&#xe3;" horiz-adv-x="579" 
d="M185 745q39 0 72 -20.5t57 -40.5t42 -20q44 0 54 66q8 17 28 17q17 0 27 -12.5t10 -31.5q0 -52 -28 -87t-76 -35q-34 0 -66.5 21.5t-59.5 43t-49 21.5q-20 0 -32.5 -10t-16.5 -22t-6 -31q-5 -20 -29 -20q-37 0 -37 39q0 51 28 86.5t82 35.5zM217 -16q-85 0 -132.5 39.5
t-47.5 112.5q0 76 57 119.5t141 43.5q90 0 167 -44q0 89 -36.5 131.5t-116.5 42.5q-49 0 -102 -17q-20 -6 -27 -6q-36 0 -36 38q0 29 36 44q59 24 142 24q55 0 96 -15t66 -39.5t40 -62t20 -77.5t5 -91v-74q0 -42 6.5 -57.5t30.5 -27.5q22 -15 22 -39q0 -20 -13 -33t-39 -12
q-78 9 -85 104h-2q-69 -104 -192 -104zM235 57q65 0 113 42t54 93q-69 42 -143 42q-58 0 -93.5 -24.5t-35.5 -68.5q0 -84 105 -84z" />
    <glyph glyph-name="adieresis" unicode="&#xe4;" horiz-adv-x="579" 
d="M169 598q-30 0 -49.5 18.5t-19.5 48.5t19.5 47.5t49.5 17.5t48 -17.5t18 -47.5t-18 -48.5t-48 -18.5zM392 598q-30 0 -49 18.5t-19 48.5t19 47.5t49 17.5t48.5 -17.5t18.5 -47.5t-18 -48.5t-49 -18.5zM217 -16q-85 0 -132.5 39.5t-47.5 112.5q0 76 57 119.5t141 43.5
q90 0 167 -44q0 89 -36.5 131.5t-116.5 42.5q-49 0 -102 -17q-20 -6 -27 -6q-36 0 -36 38q0 29 36 44q59 24 142 24q55 0 96 -15t66 -39.5t40 -62t20 -77.5t5 -91v-74q0 -42 6.5 -57.5t30.5 -27.5q22 -15 22 -39q0 -20 -13 -33t-39 -12q-78 9 -85 104h-2q-69 -104 -192 -104
zM235 57q65 0 113 42t54 93q-69 42 -143 42q-58 0 -93.5 -24.5t-35.5 -68.5q0 -84 105 -84z" />
    <glyph glyph-name="aring" unicode="&#xe5;" horiz-adv-x="579" 
d="M277 574q-46 0 -77.5 29t-31.5 77t31.5 77t77.5 29q47 0 79 -29t32 -77t-32 -77t-79 -29zM277 633q20 0 33 13t13 34q0 20 -13 33t-33 13q-19 0 -32 -13t-13 -33q0 -21 13 -34t32 -13zM217 -16q-85 0 -132.5 39.5t-47.5 112.5q0 76 57 119.5t141 43.5q90 0 167 -44
q0 89 -36.5 131.5t-116.5 42.5q-49 0 -102 -17q-20 -6 -27 -6q-36 0 -36 38q0 29 36 44q59 24 142 24q55 0 96 -15t66 -39.5t40 -62t20 -77.5t5 -91v-74q0 -42 6.5 -57.5t30.5 -27.5q22 -15 22 -39q0 -20 -13 -33t-39 -12q-78 9 -85 104h-2q-69 -104 -192 -104zM235 57
q65 0 113 42t54 93q-69 42 -143 42q-58 0 -93.5 -24.5t-35.5 -68.5q0 -84 105 -84z" />
    <glyph glyph-name="ae" unicode="&#xe6;" horiz-adv-x="928" 
d="M879 283q0 -33 -11.5 -48.5t-40.5 -15.5h-330q0 -67 47.5 -110t134.5 -43q47 0 88 16t50 16q17 0 27.5 -10.5t10.5 -25.5q0 -25 -24 -41q-53 -37 -152 -37q-171 0 -239 118q-30 -51 -89 -84.5t-129 -33.5q-85 0 -135 40t-50 112q0 76 57 119.5t141 43.5q90 0 167 -44
q0 89 -36.5 131.5t-116.5 42.5q-49 0 -102 -17q-20 -6 -27 -6q-36 0 -36 38q0 29 36 44q59 24 142 24q140 0 192 -94q67 94 195 94q110 0 170 -62t60 -167zM787 284q1 5 1 20q0 60 -36 96t-104 36q-65 0 -108.5 -44.5t-43.5 -107.5h291zM235 57q65 0 113 42t54 93
q-69 42 -143 42q-58 0 -93.5 -24.5t-35.5 -68.5q0 -84 105 -84z" />
    <glyph glyph-name="ccedilla" unicode="&#xe7;" horiz-adv-x="522" 
d="M445 101q17 0 27.5 -10.5t10.5 -25.5q0 -26 -24 -41q-37 -29 -109 -38l-7 -24q4 0 11 -1.5t25.5 -8t32 -16.5t25 -30.5t11.5 -47.5q0 -50 -36 -81t-100 -31q-52 0 -90 25q-22 12 -22 34q0 16 9.5 25t22.5 9q6 0 28.5 -11.5t45.5 -11.5q62 0 62 52q0 47 -72 49
q-17 0 -23 7t-2 27l10 35q-106 10 -168 82t-62 181q0 118 71 190.5t192 72.5q91 0 143 -39q22 -17 22 -42q0 -15 -10.5 -25.5t-27.5 -10.5q-10 0 -47.5 17.5t-80.5 17.5q-76 0 -122.5 -51t-46.5 -131t46 -130.5t127 -50.5q43 0 80.5 17t47.5 17z" />
    <glyph glyph-name="egrave" unicode="&#xe8;" horiz-adv-x="576" 
d="M218 782l111 -129q11 -15 11 -31q0 -17 -12 -28t-27 -11q-12 0 -30 15l-121 116q-21 17 -21 43q0 21 14.5 34.5t33.5 13.5q22 0 41 -23zM327 -16q-132 0 -203.5 71.5t-71.5 195.5q0 118 68.5 189.5t176.5 71.5q110 0 170 -62t60 -167q0 -33 -11.5 -48.5t-40.5 -15.5h-330
q0 -67 47 -110t134 -43q47 0 88 16t51 16q17 0 27.5 -10.5t10.5 -25.5q0 -25 -24 -41q-53 -37 -152 -37zM144 284h291q1 5 1 20q0 60 -36.5 96t-104.5 36q-65 0 -108 -44.5t-43 -107.5z" />
    <glyph glyph-name="eacute" unicode="&#xe9;" horiz-adv-x="576" 
d="M242 653l111 129q19 23 41 23q19 0 33.5 -13.5t14.5 -34.5q0 -26 -21 -43l-121 -116q-18 -15 -30 -15q-15 0 -27 11t-12 28q0 16 11 31zM327 -16q-132 0 -203.5 71.5t-71.5 195.5q0 118 68.5 189.5t176.5 71.5q110 0 170 -62t60 -167q0 -33 -11.5 -48.5t-40.5 -15.5h-330
q0 -67 47 -110t134 -43q47 0 88 16t51 16q17 0 27.5 -10.5t10.5 -25.5q0 -25 -24 -41q-53 -37 -152 -37zM144 284h291q1 5 1 20q0 60 -36.5 96t-104.5 36q-65 0 -108 -44.5t-43 -107.5z" />
    <glyph glyph-name="ecircumflex" unicode="&#xea;" horiz-adv-x="576" 
d="M166 569q-16 0 -27 11.5t-11 28.5t18 34l63 70q56 59 93 59q34 0 98 -66l58 -63q17 -15 17 -35q0 -16 -11.5 -27.5t-27.5 -11.5q-15 0 -27 12l-107 109h-2l-107 -110q-11 -11 -27 -11zM327 -16q-132 0 -203.5 71.5t-71.5 195.5q0 118 68.5 189.5t176.5 71.5
q110 0 170 -62t60 -167q0 -33 -11.5 -48.5t-40.5 -15.5h-330q0 -67 47 -110t134 -43q47 0 88 16t51 16q17 0 27.5 -10.5t10.5 -25.5q0 -25 -24 -41q-53 -37 -152 -37zM144 284h291q1 5 1 20q0 60 -36.5 96t-104.5 36q-65 0 -108 -44.5t-43 -107.5z" />
    <glyph glyph-name="edieresis" unicode="&#xeb;" horiz-adv-x="576" 
d="M189 598q-30 0 -49.5 18.5t-19.5 48.5t19.5 47.5t49.5 17.5t48 -17.5t18 -47.5t-18 -48.5t-48 -18.5zM412 598q-30 0 -49 18.5t-19 48.5t19 47.5t49 17.5t48.5 -17.5t18.5 -47.5t-18 -48.5t-49 -18.5zM327 -16q-132 0 -203.5 71.5t-71.5 195.5q0 118 68.5 189.5
t176.5 71.5q110 0 170 -62t60 -167q0 -33 -11.5 -48.5t-40.5 -15.5h-330q0 -67 47 -110t134 -43q47 0 88 16t51 16q17 0 27.5 -10.5t10.5 -25.5q0 -25 -24 -41q-53 -37 -152 -37zM144 284h291q1 5 1 20q0 60 -36.5 96t-104.5 36q-65 0 -108 -44.5t-43 -107.5z" />
    <glyph glyph-name="igrave" unicode="&#xec;" horiz-adv-x="264" 
d="M53 781l111 -129q11 -15 11 -31q0 -17 -12 -28t-27 -11q-11 0 -30 15l-121 116q-21 17 -21 43q0 21 14.5 34.5t34.5 13.5q21 0 40 -23zM132 -8q-22 0 -33.5 14t-11.5 34v416q0 20 11.5 34t33.5 14t33.5 -14t11.5 -34v-416q0 -20 -11.5 -34t-33.5 -14z" />
    <glyph glyph-name="iacute" unicode="&#xed;" horiz-adv-x="264" 
d="M77 652l111 129q19 23 41 23q19 0 33.5 -13.5t14.5 -34.5q0 -26 -21 -43l-121 -116q-18 -15 -30 -15q-15 0 -27 11t-12 28q0 16 11 31zM132 -8q-22 0 -33.5 14t-11.5 34v416q0 20 11.5 34t33.5 14t33.5 -14t11.5 -34v-416q0 -20 -11.5 -34t-33.5 -14z" />
    <glyph glyph-name="icircumflex" unicode="&#xee;" horiz-adv-x="264" 
d="M1 568q-16 0 -27 11.5t-11 28.5t18 35l63 69q56 59 93 59q34 0 98 -66l58 -63q17 -15 17 -35q0 -17 -11 -28t-28 -11q-15 0 -27 12l-107 109h-2l-107 -110q-11 -11 -27 -11zM132 -8q-22 0 -33.5 14t-11.5 34v416q0 20 11.5 34t33.5 14t33.5 -14t11.5 -34v-416
q0 -20 -11.5 -34t-33.5 -14z" />
    <glyph glyph-name="idieresis" unicode="&#xef;" horiz-adv-x="264" 
d="M24 597q-30 0 -49.5 18.5t-19.5 48.5t19.5 47.5t49.5 17.5t48 -17.5t18 -47.5t-18 -48.5t-48 -18.5zM248 597q-30 0 -49.5 18.5t-19.5 48.5t19.5 47.5t49.5 17.5t48 -17.5t18 -47.5t-18 -48.5t-48 -18.5zM132 -8q-22 0 -33.5 14t-11.5 34v416q0 20 11.5 34t33.5 14
t33.5 -14t11.5 -34v-416q0 -20 -11.5 -34t-33.5 -14z" />
    <glyph glyph-name="eth" unicode="&#xf0;" horiz-adv-x="646" 
d="M425 685q156 -117 156 -384q0 -146 -70.5 -231t-194.5 -85q-119 0 -191.5 72t-72.5 192q0 113 68.5 184.5t172.5 71.5q38 0 71.5 -10t54.5 -24.5t36.5 -29.5t22.5 -25l6 -10h2q0 130 -108 214q-10 8 -17 13l-45 -62q-16 -22 -40 -17q-21 3 -31 22t4 41l40 56
q-15 5 -43 13q-33 10 -33 35q0 20 11.5 32t29.5 11q38 -5 83 -24l35 48q15 21 38 18q22 -5 32.5 -23.5t-3.5 -42.5l-31 -42q12 -8 17 -13zM317 66q74 0 122 51.5t48 133.5q0 80 -49.5 129.5t-123.5 49.5q-75 0 -122 -50t-47 -131q0 -83 47.5 -133t124.5 -50z" />
    <glyph glyph-name="ntilde" unicode="&#xf1;" 
d="M237 744q39 0 71.5 -20t57 -40.5t42.5 -20.5q45 0 53 66q9 17 29 17q17 0 27 -12.5t10 -31.5q0 -52 -28 -87t-77 -35q-34 0 -66 21.5t-59 43t-49 21.5q-20 0 -32.5 -10t-16.5 -22t-6 -31q-5 -20 -30 -20q-17 0 -26.5 11t-9.5 28q0 51 28 86.5t82 35.5zM130 -8
q-21 0 -33 14t-12 34v424q0 17 9.5 28.5t27.5 11.5t27.5 -11.5t9.5 -28.5v-66h2q23 50 75 82t114 32q205 0 205 -241v-231q0 -20 -11.5 -34t-33.5 -14t-33.5 14t-11.5 34v223q0 168 -130 168q-70 0 -114.5 -48.5t-44.5 -126.5l-1 -216q0 -20 -11.5 -34t-33.5 -14z" />
    <glyph glyph-name="ograve" unicode="&#xf2;" horiz-adv-x="630" 
d="M237 782l110 -130q12 -12 12 -31q0 -17 -12 -27.5t-27 -10.5q-13 0 -30 14l-121 116q-21 19 -21 43q0 21 14 34.5t34 13.5q23 0 41 -22zM316 -16q-119 0 -192 72.5t-73 192.5t73 191.5t192 71.5q118 0 190.5 -71.5t72.5 -191.5t-72 -192.5t-191 -72.5zM317 65
q76 0 122.5 50t46.5 134q0 83 -47 132.5t-125 49.5q-76 0 -123 -49.5t-47 -132.5t48 -133.5t125 -50.5z" />
    <glyph glyph-name="oacute" unicode="&#xf3;" horiz-adv-x="630" 
d="M261 652l110 130q18 22 41 22q20 0 34 -13.5t14 -34.5q0 -24 -20 -43l-122 -116q-17 -14 -30 -14q-15 0 -27 10.5t-12 27.5q0 19 12 31zM316 -16q-119 0 -192 72.5t-73 192.5t73 191.5t192 71.5q118 0 190.5 -71.5t72.5 -191.5t-72 -192.5t-191 -72.5zM317 65
q76 0 122.5 50t46.5 134q0 83 -47 132.5t-125 49.5q-76 0 -123 -49.5t-47 -132.5t48 -133.5t125 -50.5z" />
    <glyph glyph-name="ocircumflex" unicode="&#xf4;" horiz-adv-x="630" 
d="M184 568q-16 0 -27 11.5t-11 28.5q0 16 19 35l62 70q57 58 93 58q35 0 98 -66l59 -63q16 -15 16 -34q0 -17 -11 -28.5t-27 -11.5q-15 0 -28 12l-106 110h-2l-108 -111q-11 -11 -27 -11zM316 -16q-119 0 -192 72.5t-73 192.5t73 191.5t192 71.5q118 0 190.5 -71.5
t72.5 -191.5t-72 -192.5t-191 -72.5zM317 65q76 0 122.5 50t46.5 134q0 83 -47 132.5t-125 49.5q-76 0 -123 -49.5t-47 -132.5t48 -133.5t125 -50.5z" />
    <glyph glyph-name="otilde" unicode="&#xf5;" horiz-adv-x="630" 
d="M224 745q39 0 71.5 -20.5t57 -41t42.5 -20.5q43 0 53 67q7 16 29 16q17 0 26.5 -12.5t9.5 -31.5q0 -52 -27.5 -86.5t-76.5 -34.5q-34 0 -66 21.5t-59.5 43t-49.5 21.5q-20 0 -32 -10t-16 -22t-6 -31q-8 -21 -30 -21q-17 0 -27 11t-10 28q0 51 28.5 87t82.5 36zM316 -16
q-119 0 -192 72.5t-73 192.5t73 191.5t192 71.5q118 0 190.5 -71.5t72.5 -191.5t-72 -192.5t-191 -72.5zM317 65q76 0 122.5 50t46.5 134q0 83 -47 132.5t-125 49.5q-76 0 -123 -49.5t-47 -132.5t48 -133.5t125 -50.5z" />
    <glyph glyph-name="odieresis" unicode="&#xf6;" horiz-adv-x="630" 
d="M207 597q-30 0 -49 18.5t-19 48.5t19 47.5t49 17.5t48.5 -17.5t18.5 -47.5t-18 -48.5t-49 -18.5zM431 597q-30 0 -49.5 18.5t-19.5 48.5t19.5 47.5t49.5 17.5t48.5 -17.5t18.5 -47.5t-18.5 -48.5t-48.5 -18.5zM316 -16q-119 0 -192 72.5t-73 192.5t73 191.5t192 71.5
q118 0 190.5 -71.5t72.5 -191.5t-72 -192.5t-191 -72.5zM317 65q76 0 122.5 50t46.5 134q0 83 -47 132.5t-125 49.5q-76 0 -123 -49.5t-47 -132.5t48 -133.5t125 -50.5z" />
    <glyph glyph-name="divide" unicode="&#xf7;" horiz-adv-x="541" 
d="M268 511q-30 0 -49 19t-19 50q0 30 19 48.5t49 18.5q31 0 50.5 -18.5t19.5 -48.5q0 -31 -19 -50t-51 -19zM438 321h-334q-18 0 -29 11.5t-11 28.5t11 28.5t29 11.5h334q18 0 29 -11.5t11 -28.5t-11 -28.5t-29 -11.5zM268 78q-30 0 -49 19t-19 50q0 30 19 48t49 18
q31 0 50.5 -18t19.5 -48q0 -31 -19 -50t-51 -19z" />
    <glyph glyph-name="oslash" unicode="&#xf8;" horiz-adv-x="646" 
d="M598 480q0 -15 -11 -27l-46 -45q45 -67 45 -159q0 -120 -72 -192.5t-191 -72.5q-95 0 -162 47l-41 -40q-20 -19 -43 -9t-23 35q0 16 12 27l41 41q-49 66 -49 164q0 120 73 191.5t192 71.5q96 0 165 -50l45 45q20 18 42.5 7t22.5 -34zM151 249q0 -57 23 -98l251 249
q-43 31 -104 31q-76 0 -123 -49.5t-47 -132.5zM493 249q0 51 -19 92l-250 -247q43 -29 100 -29q76 0 122.5 50t46.5 134z" />
    <glyph glyph-name="ugrave" unicode="&#xf9;" 
d="M238 767l111 -129q11 -15 11 -31q0 -17 -12 -28t-27 -11q-12 0 -30 15l-121 116q-21 17 -21 43q0 21 14.5 34.5t33.5 13.5q22 0 41 -23zM287 -16q-103 0 -156 62t-53 180v230q0 20 11.5 34t32.5 14q22 0 34 -14t12 -34v-222q0 -168 134 -168q69 0 111.5 48t43.5 126
l1 216q0 20 11.5 34t32.5 14q22 0 34 -14t12 -34v-424q0 -17 -10 -28.5t-28 -11.5q-19 0 -29 11.5t-10 28.5v63h-2q-23 -50 -72 -80.5t-110 -30.5z" />
    <glyph glyph-name="uacute" unicode="&#xfa;" 
d="M252 638l110 129q19 23 41 23q19 0 33.5 -13.5t14.5 -34.5q0 -26 -21 -43l-121 -116q-18 -15 -30 -15q-15 0 -27 11t-12 28t12 31zM287 -16q-103 0 -156 62t-53 180v230q0 20 11.5 34t32.5 14q22 0 34 -14t12 -34v-222q0 -168 134 -168q69 0 111.5 48t43.5 126l1 216
q0 20 11.5 34t32.5 14q22 0 34 -14t12 -34v-424q0 -17 -10 -28.5t-28 -11.5q-19 0 -29 11.5t-10 28.5v63h-2q-23 -50 -72 -80.5t-110 -30.5z" />
    <glyph glyph-name="ucircumflex" unicode="&#xfb;" 
d="M175 554q-16 0 -27 11.5t-11 28.5q0 18 18 34l63 70q56 59 93 59q34 0 98 -66l58 -63q17 -15 17 -35q0 -16 -11 -27.5t-27 -11.5t-28 12l-106 109h-2l-108 -110q-11 -11 -27 -11zM287 -16q-103 0 -156 62t-53 180v230q0 20 11.5 34t32.5 14q22 0 34 -14t12 -34v-222
q0 -168 134 -168q69 0 111.5 48t43.5 126l1 216q0 20 11.5 34t32.5 14q22 0 34 -14t12 -34v-424q0 -17 -10 -28.5t-28 -11.5q-19 0 -29 11.5t-10 28.5v63h-2q-23 -50 -72 -80.5t-110 -30.5z" />
    <glyph glyph-name="udieresis" unicode="&#xfc;" 
d="M203 583q-30 0 -49 18.5t-19 48.5t19 47.5t49 17.5t48.5 -17.5t18.5 -47.5t-18 -48.5t-49 -18.5zM427 583q-30 0 -49.5 18.5t-19.5 48.5t19.5 47.5t49.5 17.5t48.5 -17.5t18.5 -47.5t-18.5 -48.5t-48.5 -18.5zM287 -16q-103 0 -156 62t-53 180v230q0 20 11.5 34t32.5 14
q22 0 34 -14t12 -34v-222q0 -168 134 -168q69 0 111.5 48t43.5 126l1 216q0 20 11.5 34t32.5 14q22 0 34 -14t12 -34v-424q0 -17 -10 -28.5t-28 -11.5q-19 0 -29 11.5t-10 28.5v63h-2q-23 -50 -72 -80.5t-110 -30.5z" />
    <glyph glyph-name="yacute" unicode="&#xfd;" horiz-adv-x="555" 
d="M223 638l111 129q19 23 41 23q19 0 33.5 -13.5t14.5 -34.5q0 -26 -21 -43l-121 -116q-18 -15 -30 -15q-15 0 -27 11t-12 28q0 16 11 31zM123 -230q-25 0 -41 6q-26 11 -26 40q0 17 11 27.5t29 9.5q8 -1 18 -1q42 0 68.5 34.5t48.5 91.5l-190 462q-9 22 5 43t40 21
q31 0 44 -40l149 -391h3l148 393q14 38 46 38q26 0 37.5 -18.5t1.5 -44.5l-180 -445q-48 -118 -95.5 -172t-116.5 -54z" />
    <glyph glyph-name="thorn" unicode="&#xfe;" horiz-adv-x="640" 
d="M132 -215q-22 0 -33.5 14t-11.5 34v877q0 20 11.5 34t33.5 14q45 0 45 -48v-277h2q57 81 167 81q106 0 174 -74.5t68 -190.5q0 -115 -68 -190t-173 -75q-57 0 -100 23t-68 59h-2v-233q0 -21 -11.5 -34.5t-33.5 -13.5zM335 432q-77 0 -120.5 -49t-42.5 -135
q-1 -86 43.5 -134.5t120.5 -48.5q70 0 115 50.5t45 132.5t-44 133t-117 51z" />
    <glyph glyph-name="ydieresis" unicode="&#xff;" horiz-adv-x="555" 
d="M170 583q-30 0 -49.5 18.5t-19.5 48.5t19.5 47.5t49.5 17.5t48 -17.5t18 -47.5t-18 -48.5t-48 -18.5zM394 583q-30 0 -49.5 18.5t-19.5 48.5t19.5 47.5t49.5 17.5t48 -17.5t18 -47.5t-18 -48.5t-48 -18.5zM123 -230q-25 0 -41 6q-26 11 -26 40q0 17 11 27.5t29 9.5
q8 -1 18 -1q42 0 68.5 34.5t48.5 91.5l-190 462q-9 22 5 43t40 21q31 0 44 -40l149 -391h3l148 393q14 38 46 38q26 0 37.5 -18.5t1.5 -44.5l-180 -445q-48 -118 -95.5 -172t-116.5 -54z" />
    <glyph glyph-name="Amacron" unicode="&#x100;" horiz-adv-x="701" 
d="M214 833q-17 0 -28.5 12t-11.5 29q0 16 12 28t28 12h278q17 0 29 -12t12 -29q0 -16 -12 -28t-29 -12h-278zM664 52q9 -24 -2.5 -42t-38.5 -18q-18 0 -27 9.5t-17 29.5l-64 165h-4h-325l-64 -165q-8 -20 -17 -29.5t-26 -9.5q-27 0 -39 18t-3 42l231 586q20 51 36 70.5
t47 19.5q33 0 48 -19.5t36 -74.5zM217 277h266l-132 339h-2z" />
    <glyph glyph-name="amacron" unicode="&#x101;" horiz-adv-x="579" 
d="M419 625h-279q-17 0 -28.5 12t-11.5 29q0 16 12 28t28 12h279q16 0 28 -12t12 -29q0 -16 -12 -28t-28 -12zM217 -16q-85 0 -132.5 39.5t-47.5 112.5q0 76 57 119.5t141 43.5q90 0 167 -44q0 89 -36.5 131.5t-116.5 42.5q-49 0 -102 -17q-20 -6 -27 -6q-36 0 -36 38
q0 29 36 44q59 24 142 24q55 0 96 -15t66 -39.5t40 -62t20 -77.5t5 -91v-74q0 -42 6.5 -57.5t30.5 -27.5q22 -15 22 -39q0 -20 -13 -33t-39 -12q-78 9 -85 104h-2q-69 -104 -192 -104zM235 57q65 0 113 42t54 93q-69 42 -143 42q-58 0 -93.5 -24.5t-35.5 -68.5
q0 -84 105 -84z" />
    <glyph glyph-name="Abreve" unicode="&#x102;" horiz-adv-x="701" 
d="M350 785q-72 0 -120 41t-50 108q0 17 11 30t30 13q14 0 24.5 -8.5t13.5 -21.5q5 -41 28.5 -63.5t62.5 -22.5t62 22.5t28 63.5q9 30 39 30q19 0 30 -12.5t11 -30.5q-2 -68 -50.5 -108.5t-119.5 -40.5zM664 52q9 -24 -2.5 -42t-38.5 -18q-18 0 -27 9.5t-17 29.5l-64 165h-4
h-325l-64 -165q-8 -20 -17 -29.5t-26 -9.5q-27 0 -39 18t-3 42l231 586q20 51 36 70.5t47 19.5q33 0 48 -19.5t36 -74.5zM217 277h266l-132 339h-2z" />
    <glyph glyph-name="abreve" unicode="&#x103;" horiz-adv-x="579" 
d="M276 653q39 0 62 22.5t28 63.5q9 30 40 30q19 0 29.5 -12.5t10.5 -30.5q-2 -68 -50.5 -109t-119.5 -41q-72 0 -120 41.5t-49 108.5q0 17 11 30t29 13q30 0 39 -30q5 -41 28.5 -63.5t61.5 -22.5zM217 -16q-85 0 -132.5 39.5t-47.5 112.5q0 76 57 119.5t141 43.5
q90 0 167 -44q0 89 -36.5 131.5t-116.5 42.5q-49 0 -102 -17q-20 -6 -27 -6q-36 0 -36 38q0 29 36 44q59 24 142 24q55 0 96 -15t66 -39.5t40 -62t20 -77.5t5 -91v-74q0 -42 6.5 -57.5t30.5 -27.5q22 -15 22 -39q0 -20 -13 -33t-39 -12q-78 9 -85 104h-2q-69 -104 -192 -104
zM235 57q65 0 113 42t54 93q-69 42 -143 42q-58 0 -93.5 -24.5t-35.5 -68.5q0 -84 105 -84z" />
    <glyph glyph-name="Aogonek" unicode="&#x104;" horiz-adv-x="701" 
d="M649 -188q14 1 24 -8.5t10 -25.5q0 -19 -18 -29q-16 -8 -47 -8q-55 0 -93 32t-38 94q0 93 95 157l-3 7l-64 165h-4h-325l-64 -165q-8 -20 -17 -29.5t-26 -9.5q-27 0 -39 18t-3 42l231 586q20 51 36 70.5t47 19.5q33 0 48 -19.5t36 -74.5l229 -582q7 -18 1 -34t-22 -22
q-80 -57 -80 -124q0 -29 17 -45t47 -16q3 0 11 0.5t11 0.5zM217 277h266l-132 339h-2z" />
    <glyph glyph-name="aogonek" unicode="&#x105;" horiz-adv-x="579" 
d="M530 -195q14 0 24 -9.5t10 -25.5q0 -18 -18 -28q-18 -9 -47 -9q-55 0 -93 32.5t-38 94.5q0 81 78 145q-30 26 -35 83h-2q-69 -104 -192 -104q-85 0 -132.5 39.5t-47.5 112.5q0 76 57 119.5t141 43.5q90 0 167 -44q0 89 -36.5 131.5t-116.5 42.5q-49 0 -102 -17
q-20 -6 -27 -6q-36 0 -36 38q0 29 36 44q59 24 142 24q55 0 96 -15t66 -39.5t40 -62t20 -77.5t5 -91v-74q0 -42 6.5 -57.5t30.5 -27.5q22 -15 22 -39q0 -15 -8 -28q-3 -5 -8 -8q-88 -57 -88 -129q0 -28 17 -44.5t47 -16.5q8 0 22 2zM235 57q65 0 113 42t54 93
q-69 42 -143 42q-58 0 -93.5 -24.5t-35.5 -68.5q0 -84 105 -84z" />
    <glyph glyph-name="Cacute" unicode="&#x106;" horiz-adv-x="647" 
d="M342 876l110 129q19 23 41 23q19 0 33.5 -13.5t14.5 -34.5q0 -26 -21 -43l-121 -116q-18 -15 -30 -15q-15 0 -27 11t-12 28t12 31zM437 -16q-169 0 -275 103.5t-106 272.5t105 272t276 103q91 0 150 -37q25 -13 25 -37q0 -20 -12 -31t-30 -9q-85 29 -135 29
q-128 0 -207 -79t-79 -211q0 -135 80 -213t206 -78q21 0 41.5 3t33.5 6.5t33 9.5l30 9q17 1 27.5 -10t10.5 -28q0 -24 -26 -41q-58 -34 -148 -34z" />
    <glyph glyph-name="cacute" unicode="&#x107;" horiz-adv-x="522" 
d="M256 652l110 130q18 22 41 22q19 0 33.5 -13.5t14.5 -34.5q0 -24 -21 -43l-121 -116q-17 -14 -30 -14q-15 0 -27 10.5t-12 27.5q0 19 12 31zM313 -16q-120 0 -191 73.5t-71 191.5t71 190.5t192 72.5q91 0 143 -39q22 -17 22 -42q0 -15 -10.5 -25.5t-27.5 -10.5
q-10 0 -47.5 17.5t-80.5 17.5q-76 0 -122.5 -51t-46.5 -131t46 -130.5t127 -50.5q43 0 80.5 17t47.5 17q17 0 27.5 -10.5t10.5 -25.5q0 -26 -24 -41q-53 -40 -146 -40z" />
    <glyph glyph-name="Cdotaccent" unicode="&#x10a;" horiz-adv-x="647" 
d="M396 821q-32 0 -53 20t-21 52q0 33 20.5 52t53.5 19t52.5 -19t19.5 -52q0 -32 -19.5 -52t-52.5 -20zM437 -16q-169 0 -275 103.5t-106 272.5t105 272t276 103q91 0 150 -37q25 -13 25 -37q0 -20 -12 -31t-30 -9q-85 29 -135 29q-128 0 -207 -79t-79 -211q0 -135 80 -213
t206 -78q21 0 41.5 3t33.5 6.5t33 9.5l30 9q17 1 27.5 -10t10.5 -28q0 -24 -26 -41q-58 -34 -148 -34z" />
    <glyph glyph-name="cdotaccent" unicode="&#x10b;" horiz-adv-x="522" 
d="M310 597q-32 0 -53 20t-21 52q0 33 20.5 52t53.5 19t52.5 -19t19.5 -52q0 -32 -19.5 -52t-52.5 -20zM313 -16q-120 0 -191 73.5t-71 191.5t71 190.5t192 72.5q91 0 143 -39q22 -17 22 -42q0 -15 -10.5 -25.5t-27.5 -10.5q-10 0 -47.5 17.5t-80.5 17.5q-76 0 -122.5 -51
t-46.5 -131t46 -130.5t127 -50.5q43 0 80.5 17t47.5 17q17 0 27.5 -10.5t10.5 -25.5q0 -26 -24 -41q-53 -40 -146 -40z" />
    <glyph glyph-name="Ccaron" unicode="&#x10c;" horiz-adv-x="647" 
d="M400 790q-35 0 -98 66l-58 63q-17 15 -17 34q0 17 11.5 28.5t27.5 11.5q15 0 27 -13l107 -109h2l107 111q12 11 27 11q16 0 27 -11.5t11 -28.5t-18 -35l-63 -70q-57 -58 -93 -58zM437 -16q-169 0 -275 103.5t-106 272.5t105 272t276 103q91 0 150 -37q25 -13 25 -37
q0 -20 -12 -31t-30 -9q-85 29 -135 29q-128 0 -207 -79t-79 -211q0 -135 80 -213t206 -78q21 0 41.5 3t33.5 6.5t33 9.5l30 9q17 1 27.5 -10t10.5 -28q0 -24 -26 -41q-58 -34 -148 -34z" />
    <glyph glyph-name="ccaron" unicode="&#x10d;" horiz-adv-x="522" 
d="M314 566q-35 0 -98 66l-58 63q-17 15 -17 34q0 17 11.5 28.5t27.5 11.5q15 0 27 -12l107 -110h2l107 111q12 11 27 11q16 0 27 -11.5t11 -28.5t-18 -35l-63 -69q-56 -59 -93 -59zM313 -16q-120 0 -191 73.5t-71 191.5t71 190.5t192 72.5q91 0 143 -39q22 -17 22 -42
q0 -15 -10.5 -25.5t-27.5 -10.5q-10 0 -47.5 17.5t-80.5 17.5q-76 0 -122.5 -51t-46.5 -131t46 -130.5t127 -50.5q43 0 80.5 17t47.5 17q17 0 27.5 -10.5t10.5 -25.5q0 -26 -24 -41q-53 -40 -146 -40z" />
    <glyph glyph-name="Dcaron" unicode="&#x10e;" horiz-adv-x="786" 
d="M368 775q-35 0 -98 66l-59 63q-16 15 -16 34q0 17 11 28.5t27 11.5t28 -13l106 -109h2l108 111q11 11 27 11t27 -11.5t11 -28.5t-18 -35l-63 -70q-57 -58 -93 -58zM348 -8h-199q-46 0 -46 47v643q0 46 46 46h199q182 0 281 -97.5t99 -270.5q0 -171 -99 -269t-281 -99z
M193 647v-573h155q137 0 212.5 75t75.5 211t-74 211.5t-214 75.5h-155z" />
    <glyph glyph-name="dcaron" unicode="&#x10f;" horiz-adv-x="679" 
d="M291 -16q-106 0 -172.5 74t-66.5 189q0 119 65 192t173 73q60 0 103.5 -24.5t66.5 -60.5h2v283q0 21 12 34.5t34 13.5q21 0 32.5 -13.5t11.5 -34.5v-548q0 -41 7.5 -61t29.5 -32q23 -21 23 -39q0 -20 -13 -33.5t-39 -12.5q-79 10 -86 106h-2q-25 -51 -73 -78.5
t-108 -27.5zM657 520q-16 0 -26 11t-8 28q12 78 14 160q0 17 12 28t30 11q20 0 31.5 -12.5t10.5 -29.5q-3 -94 -30 -173q-9 -23 -34 -23zM306 67q74 0 118 50.5t44 133.5q0 82 -44.5 130.5t-119.5 48.5q-70 0 -114.5 -50t-44.5 -132q0 -81 44 -131t117 -50z" />
    <glyph glyph-name="Dcroat" unicode="&#x110;" horiz-adv-x="796" 
d="M357 728q183 0 282 -97.5t99 -270.5q0 -171 -99.5 -269t-281.5 -99h-199q-46 0 -46 47v281h-36q-19 0 -29.5 11t-10.5 30q0 18 10.5 29t29.5 11h36v281q0 46 46 46h199zM357 74q137 0 212.5 75t75.5 211t-74 211.5t-214 75.5h-155v-246h136q19 0 30 -11t11 -29
q0 -19 -11 -30t-30 -11h-136v-246h155z" />
    <glyph glyph-name="dcroat" unicode="&#x111;" horiz-adv-x="656" 
d="M616 664q13 0 23 -9t10 -24t-10 -24t-23 -9h-64v-436q0 -41 7.5 -61t29.5 -32q23 -21 23 -39q0 -20 -13 -33.5t-39 -12.5q-79 10 -86 106h-2q-25 -51 -73 -78.5t-108 -27.5q-106 0 -172.5 74t-66.5 189q0 119 65 192t173 73q60 0 103.5 -24.5t66.5 -60.5h2v171h-102
q-14 0 -23.5 9t-9.5 24t9.5 24t23.5 9h102v46q0 21 12 34.5t34 13.5q21 0 32.5 -13.5t11.5 -34.5v-46h64zM306 67q74 0 118 50.5t44 133.5q0 82 -44.5 130.5t-119.5 48.5q-70 0 -114.5 -50t-44.5 -132q0 -81 44 -131t117 -50z" />
    <glyph glyph-name="Emacron" unicode="&#x112;" horiz-adv-x="586" 
d="M461 833h-278q-17 0 -29 12t-12 29q0 16 12 28t29 12h278q17 0 29 -12t12 -29q0 -16 -12 -28t-29 -12zM495 -8h-346q-46 0 -46 47v643q0 46 46 46h344q18 0 29.5 -11.5t11.5 -29.5t-11 -29t-29 -11h-303l1 -246h267q17 0 29 -11.5t12 -30.5q0 -18 -11.5 -29t-28.5 -11
h-268l1 -245h301q18 0 29.5 -11.5t11.5 -30.5q0 -18 -11.5 -29t-28.5 -11z" />
    <glyph glyph-name="emacron" unicode="&#x113;" horiz-adv-x="576" 
d="M439 625h-279q-17 0 -28.5 12t-11.5 29q0 16 12 28t28 12h279q16 0 28 -12t12 -29q0 -16 -12 -28t-28 -12zM327 -16q-132 0 -203.5 71.5t-71.5 195.5q0 118 68.5 189.5t176.5 71.5q110 0 170 -62t60 -167q0 -33 -11.5 -48.5t-40.5 -15.5h-330q0 -67 47 -110t134 -43
q47 0 88 16t51 16q17 0 27.5 -10.5t10.5 -25.5q0 -25 -24 -41q-53 -37 -152 -37zM144 284h291q1 5 1 20q0 60 -36.5 96t-104.5 36q-65 0 -108 -44.5t-43 -107.5z" />
    <glyph glyph-name="Edotaccent" unicode="&#x116;" horiz-adv-x="586" 
d="M319 806q-32 0 -53 20t-21 52q0 33 20.5 52t53.5 19t52.5 -19t19.5 -52q0 -32 -19.5 -52t-52.5 -20zM495 -8h-346q-46 0 -46 47v643q0 46 46 46h344q18 0 29.5 -11.5t11.5 -29.5t-11 -29t-29 -11h-303l1 -246h267q17 0 29 -11.5t12 -30.5q0 -18 -11.5 -29t-28.5 -11h-268
l1 -245h301q18 0 29.5 -11.5t11.5 -30.5q0 -18 -11.5 -29t-28.5 -11z" />
    <glyph glyph-name="edotaccent" unicode="&#x117;" horiz-adv-x="576" 
d="M297 598q-33 0 -53.5 20t-20.5 52q0 33 20.5 52t53.5 19t52.5 -19t19.5 -52q0 -32 -19.5 -52t-52.5 -20zM327 -16q-132 0 -203.5 71.5t-71.5 195.5q0 118 68.5 189.5t176.5 71.5q110 0 170 -62t60 -167q0 -33 -11.5 -48.5t-40.5 -15.5h-330q0 -67 47 -110t134 -43
q47 0 88 16t51 16q17 0 27.5 -10.5t10.5 -25.5q0 -25 -24 -41q-53 -37 -152 -37zM144 284h291q1 5 1 20q0 60 -36.5 96t-104.5 36q-65 0 -108 -44.5t-43 -107.5z" />
    <glyph glyph-name="Eogonek" unicode="&#x118;" horiz-adv-x="586" 
d="M514 -190q15 0 24.5 -9t9.5 -25q0 -19 -18 -29q-16 -8 -47 -8q-55 0 -92.5 32t-37.5 94q0 72 57 127h-261q-46 0 -46 47v643q0 46 46 46h344q18 0 29.5 -11.5t11.5 -29.5t-11 -29t-29 -11h-303l1 -246h267q17 0 29 -11.5t12 -30.5q0 -18 -11.5 -29t-28.5 -11h-268l1 -245
h301q18 0 29.5 -11.5t11.5 -30.5q0 -30 -26 -38q-81 -58 -81 -125q0 -28 17 -44t47 -16q4 0 11.5 0.5t10.5 0.5z" />
    <glyph glyph-name="eogonek" unicode="&#x119;" horiz-adv-x="576" 
d="M527 283q0 -33 -11.5 -48.5t-40.5 -15.5h-330q0 -67 47 -110t134 -43q47 0 88 16t51 16q17 0 27.5 -10.5t10.5 -25.5q0 -25 -24 -41q-12 -9 -27 -14q-76 -57 -76 -122q0 -28 17 -44t47 -16q4 0 11.5 0.5t10.5 0.5q15 0 24.5 -9t9.5 -25q0 -19 -18 -29q-16 -8 -47 -8
q-55 0 -92.5 32t-37.5 94q0 57 36 103h-10q-132 0 -203.5 71.5t-71.5 195.5q0 118 68.5 189.5t176.5 71.5q110 0 170 -62t60 -167zM435 284q1 5 1 20q0 60 -36.5 96t-104.5 36q-65 0 -108 -44.5t-43 -107.5h291z" />
    <glyph glyph-name="Ecaron" unicode="&#x11a;" horiz-adv-x="586" 
d="M323 775q-35 0 -98 66l-58 63q-17 15 -17 34q0 17 11.5 28.5t27.5 11.5q15 0 27 -13l107 -109h2l107 111q12 11 27 11q16 0 27 -11.5t11 -28.5t-18 -35l-63 -70q-55 -58 -93 -58zM495 -8h-346q-46 0 -46 47v643q0 46 46 46h344q18 0 29.5 -11.5t11.5 -29.5t-11 -29
t-29 -11h-303l1 -246h267q17 0 29 -11.5t12 -30.5q0 -18 -11.5 -29t-28.5 -11h-268l1 -245h301q18 0 29.5 -11.5t11.5 -30.5q0 -18 -11.5 -29t-28.5 -11z" />
    <glyph glyph-name="ecaron" unicode="&#x11b;" horiz-adv-x="576" 
d="M301 567q-35 0 -98 66l-59 63q-16 15 -16 34q0 17 11 28.5t27 11.5t28 -13l106 -109h2l108 111q11 11 27 11t27 -11.5t11 -28.5t-18 -35l-63 -70q-57 -58 -93 -58zM327 -16q-132 0 -203.5 71.5t-71.5 195.5q0 118 68.5 189.5t176.5 71.5q110 0 170 -62t60 -167
q0 -33 -11.5 -48.5t-40.5 -15.5h-330q0 -67 47 -110t134 -43q47 0 88 16t51 16q17 0 27.5 -10.5t10.5 -25.5q0 -25 -24 -41q-53 -37 -152 -37zM144 284h291q1 5 1 20q0 60 -36.5 96t-104.5 36q-65 0 -108 -44.5t-43 -107.5z" />
    <glyph glyph-name="Gbreve" unicode="&#x11e;" horiz-adv-x="731" 
d="M431 876q38 0 61.5 22.5t28.5 63.5q3 13 14 21.5t25 8.5q19 0 29.5 -12.5t10.5 -30.5q-1 -67 -49.5 -108t-119.5 -41q-72 0 -120 41t-50 108q0 17 11 30t30 13q13 0 24 -8.5t14 -21.5q5 -41 28.5 -63.5t62.5 -22.5zM437 -16q-170 0 -275 102t-105 275q0 172 104.5 273
t277.5 101q120 0 187 -36q26 -15 26 -38q0 -20 -12 -31t-29 -9q-96 30 -166 30q-130 0 -212.5 -77.5t-82.5 -212.5t79.5 -213.5t212.5 -78.5q75 0 131 26v243q0 21 11.5 34.5t33.5 13.5t33.5 -13.5t11.5 -34.5v-264q0 -39 -39 -57q-80 -33 -187 -33z" />
    <glyph glyph-name="gbreve" unicode="&#x11f;" horiz-adv-x="639" 
d="M300 638q39 0 62 22.5t28 63.5q9 30 39 30q19 0 30 -12.5t11 -30.5q-2 -68 -50.5 -109t-119.5 -41q-72 0 -120 41.5t-50 108.5q0 17 11 30t30 13q14 0 24.5 -8.5t13.5 -21.5q5 -41 28.5 -63.5t62.5 -22.5zM288 -230q-52 0 -96.5 13t-66.5 31q-19 15 -19 37q0 37 40 37
q11 0 53.5 -19t88.5 -19q78 0 126.5 44.5t48.5 147.5v25h-2q-56 -83 -168 -83q-109 0 -175 73.5t-66 190.5q0 116 65.5 190t176.5 74q58 0 107.5 -28.5t75.5 -79.5h2v60q0 17 9.5 28.5t27.5 11.5t27.5 -11.5t9.5 -28.5l-1 -391q0 -147 -62 -225t-202 -78zM304 67
q76 0 121 47.5t45 130.5q0 82 -45 133.5t-119 51.5q-72 0 -116.5 -50.5t-44.5 -131.5q0 -82 44 -131.5t115 -49.5z" />
    <glyph glyph-name="Gdotaccent" unicode="&#x120;" horiz-adv-x="731" 
d="M431 821q-32 0 -53 20t-21 52q0 33 20.5 52t53.5 19t52.5 -19t19.5 -52q0 -32 -19.5 -52t-52.5 -20zM437 -16q-170 0 -275 102t-105 275q0 172 104.5 273t277.5 101q120 0 187 -36q26 -15 26 -38q0 -20 -12 -31t-29 -9q-96 30 -166 30q-130 0 -212.5 -77.5t-82.5 -212.5
t79.5 -213.5t212.5 -78.5q75 0 131 26v243q0 21 11.5 34.5t33.5 13.5t33.5 -13.5t11.5 -34.5v-264q0 -39 -39 -57q-80 -33 -187 -33z" />
    <glyph glyph-name="gdotaccent" unicode="&#x121;" horiz-adv-x="639" 
d="M300 583q-32 0 -52.5 20t-20.5 52q0 33 20 52t53 19t53 -19t20 -52t-19.5 -52.5t-53.5 -19.5zM288 -230q-52 0 -96.5 13t-66.5 31q-19 15 -19 37q0 37 40 37q11 0 53.5 -19t88.5 -19q78 0 126.5 44.5t48.5 147.5v25h-2q-56 -83 -168 -83q-109 0 -175 73.5t-66 190.5
q0 116 65.5 190t176.5 74q58 0 107.5 -28.5t75.5 -79.5h2v60q0 17 9.5 28.5t27.5 11.5t27.5 -11.5t9.5 -28.5l-1 -391q0 -147 -62 -225t-202 -78zM304 67q76 0 121 47.5t45 130.5q0 82 -45 133.5t-119 51.5q-72 0 -116.5 -50.5t-44.5 -131.5q0 -82 44 -131.5t115 -49.5z" />
    <glyph glyph-name="uni0122" unicode="&#x122;" horiz-adv-x="731" 
d="M437 -16q-170 0 -275 102t-105 275q0 172 104.5 273t277.5 101q120 0 187 -36q26 -15 26 -38q0 -20 -12 -31t-29 -9q-96 30 -166 30q-130 0 -212.5 -77.5t-82.5 -212.5t79.5 -213.5t212.5 -78.5q75 0 131 26v243q0 21 11.5 34.5t33.5 13.5t33.5 -13.5t11.5 -34.5v-264
q0 -39 -39 -57q-80 -33 -187 -33zM413 -291q-15 0 -25.5 11t-7.5 28q13 88 14 159q0 17 11.5 28.5t29.5 11.5q20 0 32 -12.5t10 -30.5q-3 -94 -29 -172q-9 -23 -35 -23z" />
    <glyph glyph-name="uni0123" unicode="&#x123;" horiz-adv-x="639" 
d="M325 783q15 0 25 -11t8 -28q-12 -76 -14 -159q0 -17 -12 -28.5t-29 -11.5q-20 0 -32 12.5t-10 30.5q4 98 29 172q9 23 35 23zM288 -230q-52 0 -96.5 13t-66.5 31q-19 15 -19 37q0 37 40 37q11 0 53.5 -19t88.5 -19q78 0 126.5 44.5t48.5 147.5v25h-2q-56 -83 -168 -83
q-109 0 -175 73.5t-66 190.5q0 116 65.5 190t176.5 74q58 0 107.5 -28.5t75.5 -79.5h2v60q0 17 9.5 28.5t27.5 11.5t27.5 -11.5t9.5 -28.5l-1 -391q0 -147 -62 -225t-202 -78zM304 67q76 0 121 47.5t45 130.5q0 82 -45 133.5t-119 51.5q-72 0 -116.5 -50.5t-44.5 -131.5
q0 -82 44 -131.5t115 -49.5z" />
    <glyph glyph-name="Hbar" unicode="&#x126;" horiz-adv-x="831" 
d="M747 624q17 0 28.5 -12t11.5 -29t-11.5 -28.5t-28.5 -11.5h-29v-503q0 -20 -11.5 -34t-32.5 -14q-22 0 -34 14t-12 34v279h-423v-279q0 -20 -11.5 -34t-33.5 -14t-33.5 14t-11.5 34v503h-32q-17 0 -28.5 11.5t-11.5 28.5t11.5 29t28.5 12h32v56q0 21 11.5 34.5t33.5 13.5
t33.5 -13.5t11.5 -34.5v-56h423v56q0 21 12 34.5t34 13.5q21 0 32.5 -13.5t11.5 -34.5v-56h29zM628 401v142h-423v-142h423z" />
    <glyph glyph-name="hbar" unicode="&#x127;" horiz-adv-x="634" 
d="M351 512q205 0 205 -242v-230q0 -20 -11.5 -34t-33.5 -14q-21 0 -33 14t-12 34v222q0 168 -130 168q-70 0 -114.5 -45.5t-44.5 -121.5l-1 -223q0 -20 -11.5 -34t-33.5 -14q-21 0 -33 14t-12 34v558h-63q-13 0 -23 9t-10 24t10 24t23 9h63v46q0 21 11.5 34.5t33.5 13.5
t33.5 -13.5t11.5 -34.5v-46h103q14 0 23.5 -9t9.5 -24t-9.5 -24t-23.5 -9h-103v-169h2q24 35 70 59t103 24z" />
    <glyph glyph-name="Itilde" unicode="&#x128;" horiz-adv-x="295" 
d="M57 953q39 0 71.5 -20.5t57 -40.5t42.5 -20q45 0 53 67q9 16 29 16q17 0 27 -12.5t10 -31.5q0 -52 -28 -87t-77 -35q-34 0 -66 21.5t-59 43t-49 21.5q-20 0 -32.5 -9.5t-16.5 -21.5t-6 -31q-5 -21 -30 -21q-17 0 -26.5 11t-9.5 28q0 51 28 86.5t82 35.5zM148 -8
q-22 0 -33.5 14t-11.5 34v640q0 21 11.5 34.5t33.5 13.5t33.5 -13.5t11.5 -34.5v-640q0 -20 -11.5 -34t-33.5 -14z" />
    <glyph glyph-name="itilde" unicode="&#x129;" horiz-adv-x="264" 
d="M40 744q31 0 58.5 -12.5t44 -28t35.5 -28t34 -12.5q43 0 53 67q7 16 29 16q17 0 26.5 -12.5t9.5 -31.5q0 -52 -28 -87t-76 -35q-34 0 -66.5 21.5t-59.5 43t-49 21.5q-20 0 -32.5 -9.5t-16.5 -21.5t-6 -31q-5 -21 -29 -21q-37 0 -37 39q0 51 28 86.5t82 35.5zM132 -8
q-22 0 -33.5 14t-11.5 34v416q0 20 11.5 34t33.5 14t33.5 -14t11.5 -34v-416q0 -20 -11.5 -34t-33.5 -14z" />
    <glyph glyph-name="Imacron" unicode="&#x12a;" horiz-adv-x="295" 
d="M290 833h-278q-17 0 -28.5 12t-11.5 29q0 16 12 28t28 12h278q17 0 29 -12t12 -29q0 -16 -12 -28t-29 -12zM148 -8q-22 0 -33.5 14t-11.5 34v640q0 21 11.5 34.5t33.5 13.5t33.5 -13.5t11.5 -34.5v-640q0 -20 -11.5 -34t-33.5 -14z" />
    <glyph glyph-name="imacron" unicode="&#x12b;" horiz-adv-x="264" 
d="M274 624h-279q-16 0 -28 12t-12 29q0 16 12 28t28 12h279q17 0 28.5 -12t11.5 -29q0 -16 -12 -28t-28 -12zM132 -8q-22 0 -33.5 14t-11.5 34v416q0 20 11.5 34t33.5 14t33.5 -14t11.5 -34v-416q0 -20 -11.5 -34t-33.5 -14z" />
    <glyph glyph-name="Iogonek" unicode="&#x12e;" horiz-adv-x="298" 
d="M175 -188q15 1 24.5 -8.5t9.5 -25.5q0 -19 -18 -29q-16 -8 -47 -8q-55 0 -93 32.5t-38 93.5q0 91 94 157q-2 10 -2 16v640q0 21 11.5 34.5t33.5 13.5t33.5 -13.5t11.5 -34.5v-640q0 -34 -26 -44q-80 -57 -80 -124q0 -29 17 -45t47 -16q4 0 11.5 0.5t10.5 0.5z" />
    <glyph glyph-name="iogonek" unicode="&#x12f;" horiz-adv-x="267" 
d="M135 597q-32 0 -53 20t-21 52q0 33 20.5 52t53.5 19t52.5 -19t19.5 -52q0 -32 -19.5 -52t-52.5 -20zM157 -190q15 0 24.5 -9t9.5 -25q0 -20 -18 -29q-15 -8 -47 -8q-55 0 -92.5 32t-37.5 94q0 92 96 159q-2 10 -2 16v416q0 20 12 34t33 14q22 0 33.5 -14t11.5 -34v-416
q0 -33 -26 -45q-82 -57 -82 -126q0 -28 16.5 -44t46.5 -16q4 0 11.5 0.5t10.5 0.5z" />
    <glyph glyph-name="Idotaccent" unicode="&#x130;" horiz-adv-x="295" 
d="M148 806q-32 0 -53 20t-21 52q0 33 20.5 52t53.5 19t53 -19t20 -52q0 -32 -20 -52t-53 -20zM148 -8q-22 0 -33.5 14t-11.5 34v640q0 21 11.5 34.5t33.5 13.5t33.5 -13.5t11.5 -34.5v-640q0 -20 -11.5 -34t-33.5 -14z" />
    <glyph glyph-name="dotlessi" unicode="&#x131;" horiz-adv-x="264" 
d="M132 -8q-22 0 -33.5 14t-11.5 34v416q0 20 11.5 34t33.5 14t33.5 -14t11.5 -34v-416q0 -20 -11.5 -34t-33.5 -14z" />
    <glyph glyph-name="IJ" unicode="&#x132;" horiz-adv-x="759" 
d="M148 -8q-22 0 -33.5 14t-11.5 34v640q0 21 11.5 34.5t33.5 13.5t33.5 -13.5t11.5 -34.5v-640q0 -20 -11.5 -34t-33.5 -14zM468 -16q-72 0 -116 30q-25 16 -25 42q0 15 10 25.5t27 10.5q12 0 41.5 -13t62.5 -13q105 0 105 169v444q0 18 13 31.5t31 13.5q19 0 32.5 -13.5
t13.5 -31.5v-448q0 -247 -195 -247z" />
    <glyph glyph-name="ij" unicode="&#x133;" horiz-adv-x="522" 
d="M132 597q-32 0 -53 20t-21 52q0 33 20.5 52t53.5 19t52.5 -19t19.5 -52q0 -32 -19.5 -52t-52.5 -20zM390 597q-32 0 -53 20t-21 52q0 33 20.5 52t53.5 19t52.5 -19t19.5 -52q0 -32 -19.5 -52t-52.5 -20zM132 -8q-22 0 -33.5 14t-11.5 34v416q0 20 11.5 34t33.5 14
t33.5 -14t11.5 -34v-416q0 -20 -11.5 -34t-33.5 -14zM281 -230q-70 0 -101 33q-13 13 -13 34q0 17 9.5 27t23.5 10q9 0 29.5 -10t43.5 -10q17 0 30 5t20.5 17.5t12 23t6 31.5t2 32.5t0.5 36.5v456q0 20 11.5 34t33.5 14t33.5 -14t11.5 -34v-474q0 -212 -153 -212z" />
    <glyph glyph-name="uni0136" unicode="&#x136;" horiz-adv-x="699" 
d="M148 -8q-22 0 -33.5 14t-11.5 34v640q0 21 11.5 34.5t33.5 13.5t33.5 -13.5t11.5 -34.5v-272h169l208 299q13 21 36 21q20 0 32.5 -13.5t12.5 -30.5q0 -16 -7 -26l-211 -291l228 -304q9 -13 9 -26q0 -18 -14 -31.5t-32 -13.5q-20 0 -37 22l-227 306h-167v-280
q0 -20 -11.5 -34t-33.5 -14zM340 -286q-15 0 -25 11t-8 28q13 88 14 159q0 17 12 28.5t29 11.5q20 0 32 -13t10 -30q-4 -98 -29 -172q-9 -23 -35 -23z" />
    <glyph glyph-name="uni0137" unicode="&#x137;" horiz-adv-x="544" 
d="M131 -8q-21 0 -33 14t-12 34v670q0 21 11.5 34.5t33.5 13.5t33.5 -13.5t11.5 -34.5v-408h99l144 182q15 20 35 20q17 0 29.5 -12t12.5 -29q0 -14 -8 -25l-144 -177l151 -198q10 -13 10 -28q0 -18 -13 -30.5t-30 -12.5q-22 0 -36 20l-157 210h-93v-182q0 -20 -11.5 -34
t-33.5 -14zM256 -286q-16 0 -26 11t-8 28q12 76 14 159q0 17 12 28.5t30 11.5q19 0 31 -13t11 -30q-3 -95 -30 -172q-9 -23 -34 -23z" />
    <glyph glyph-name="kgreenlandic" unicode="&#x138;" horiz-adv-x="543" 
d="M130 -8q-21 0 -33 14t-12 34v417q0 20 12 33.5t33 13.5q22 0 33.5 -13.5t11.5 -33.5v-155h99l144 182q15 20 35 20q17 0 29.5 -12t12.5 -29q0 -11 -8 -25l-144 -177l151 -198q10 -15 10 -28q0 -18 -13 -30.5t-30 -12.5q-22 0 -36 20l-157 210h-93v-182q0 -20 -11.5 -34
t-33.5 -14z" />
    <glyph glyph-name="Lacute" unicode="&#x139;" horiz-adv-x="548" 
d="M96 863l111 129q19 23 40 23q20 0 34.5 -14t14.5 -35q0 -24 -21 -43l-121 -115q-18 -15 -30 -15q-15 0 -27 10.5t-12 27.5t11 32zM481 -8h-332q-46 0 -46 47v644q0 19 13 32t32 13t32 -13t13 -32l1 -609h286q17 0 29 -11.5t12 -30.5q0 -18 -11.5 -29t-28.5 -11z" />
    <glyph glyph-name="lacute" unicode="&#x13a;" horiz-adv-x="266" 
d="M78 897l110 129q19 23 41 23q20 0 34.5 -14t14.5 -35q0 -23 -21 -43l-122 -116q-18 -14 -29 -14q-16 0 -28 10.5t-12 27.5q0 18 12 32zM133 -8q-22 0 -33.5 14t-11.5 34v670q0 21 11.5 34.5t33.5 13.5t33.5 -13.5t11.5 -34.5v-670q0 -20 -11.5 -34t-33.5 -14z" />
    <glyph glyph-name="uni013B" unicode="&#x13b;" horiz-adv-x="548" 
d="M481 -8h-332q-46 0 -46 47v644q0 19 13 32t32 13t32 -13t13 -32l1 -609h286q17 0 29 -11.5t12 -30.5q0 -18 -11.5 -29t-28.5 -11zM293 -286q-16 0 -26 11t-8 28q12 76 14 159q0 17 12 28.5t30 11.5q19 0 31 -13t11 -30q-5 -101 -30 -172q-9 -23 -34 -23z" />
    <glyph glyph-name="uni013C" unicode="&#x13c;" horiz-adv-x="266" 
d="M133 -8q-22 0 -33.5 14t-11.5 34v670q0 21 11.5 34.5t33.5 13.5t33.5 -13.5t11.5 -34.5v-670q0 -20 -11.5 -34t-33.5 -14zM110 -286q-15 0 -25.5 11t-8.5 28q14 83 15 159q0 17 11.5 28.5t29.5 11.5q20 0 32 -13t10 -30q-3 -95 -30 -172q-7 -23 -34 -23z" />
    <glyph glyph-name="Lcaron" unicode="&#x13d;" horiz-adv-x="563" 
d="M436 494q-16 0 -26 11t-8 28q12 76 14 159q0 17 12 28.5t30 11.5q19 0 31 -13t11 -30q-5 -101 -30 -172q-9 -23 -34 -23zM481 -8h-332q-46 0 -46 47v644q0 19 13 32t32 13t32 -13t13 -32l1 -609h286q17 0 29 -11.5t12 -30.5q0 -18 -11.5 -29t-28.5 -11z" />
    <glyph glyph-name="lcaron" unicode="&#x13e;" horiz-adv-x="298" 
d="M133 -8q-22 0 -33.5 14t-11.5 34v670q0 21 11.5 34.5t33.5 13.5t33.5 -13.5t11.5 -34.5v-670q0 -20 -11.5 -34t-33.5 -14zM270 520q-15 0 -25.5 11t-8.5 28q12 78 14 160q0 17 12 28t30 11q20 0 32 -12.5t10 -29.5q-3 -94 -30 -173q-7 -23 -34 -23z" />
    <glyph glyph-name="Ldot" unicode="&#x13f;" horiz-adv-x="573" 
d="M481 -8h-332q-46 0 -46 47v644q0 19 13 32t32 13t32 -13t13 -32l1 -609h286q17 0 29 -11.5t12 -30.5q0 -18 -11.5 -29t-28.5 -11zM433 327q-32 0 -52.5 20t-20.5 52q0 33 20 52t53 19t53 -19t20 -52t-20 -52.5t-53 -19.5z" />
    <glyph glyph-name="ldot" unicode="&#x140;" horiz-adv-x="333" 
d="M133 -8q-22 0 -33.5 14t-11.5 34v670q0 21 11.5 34.5t33.5 13.5t33.5 -13.5t11.5 -34.5v-670q0 -20 -11.5 -34t-33.5 -14zM292 306q-33 0 -53.5 20t-20.5 53q0 32 20.5 51t53.5 19q32 0 52 -19t20 -51q0 -33 -19.5 -53t-52.5 -20z" />
    <glyph glyph-name="Lslash" unicode="&#x141;" horiz-adv-x="608" 
d="M540 74q17 0 28.5 -11.5t11.5 -30.5q0 -18 -11 -29t-28 -11h-333q-46 0 -46 47v261l-76 -32q-8 -4 -18 -4q-16 0 -27 12t-11 30q0 27 24 37l108 46v294q0 19 13 32t32 13t32 -13t13 -32v-256l114 48q12 5 19 5q17 0 27.5 -11.5t10.5 -30.5q0 -27 -25 -38l-145 -62v-264
h287z" />
    <glyph glyph-name="lslash" unicode="&#x142;" horiz-adv-x="371" 
d="M309 490q17 0 29 -12t12 -29q0 -24 -23 -36l-97 -48v-325q0 -20 -11.5 -34t-33.5 -14q-21 0 -33 14t-12 34v281l-57 -28q-8 -4 -17 -4q-18 0 -30 12t-12 29q0 24 23 36l93 46v298q0 21 11.5 34.5t33.5 13.5t33.5 -13.5t11.5 -34.5v-254l60 30q8 4 19 4z" />
    <glyph glyph-name="Nacute" unicode="&#x143;" horiz-adv-x="805" 
d="M358 861l110 129q19 23 41 23q19 0 33.5 -13.5t14.5 -34.5q0 -26 -21 -43l-121 -116q-18 -15 -30 -15q-15 0 -27 11t-12 28t12 31zM148 -8q-22 0 -33.5 14t-11.5 34v630q0 27 12 42.5t34 15.5t37 -12t42 -50l384 -530h2l-2 544q0 21 12 34.5t34 13.5q21 0 32.5 -13.5
t11.5 -34.5v-630q0 -58 -49 -58q-22 0 -41 17t-55 69l-364 501h-2l2 -539q0 -20 -11.5 -34t-33.5 -14z" />
    <glyph glyph-name="nacute" unicode="&#x144;" 
d="M274 652l111 129q19 23 40 23q20 0 34.5 -13.5t14.5 -35.5q0 -25 -21 -42l-122 -116q-18 -15 -29 -15q-16 0 -27.5 11t-11.5 28q0 18 11 31zM130 -8q-21 0 -33 14t-12 34v424q0 17 9.5 28.5t27.5 11.5t27.5 -11.5t9.5 -28.5v-66h2q23 50 75 82t114 32q205 0 205 -241
v-231q0 -20 -11.5 -34t-33.5 -14t-33.5 14t-11.5 34v223q0 168 -130 168q-70 0 -114.5 -48.5t-44.5 -126.5l-1 -216q0 -20 -11.5 -34t-33.5 -14z" />
    <glyph glyph-name="uni0145" unicode="&#x145;" horiz-adv-x="805" 
d="M148 -8q-22 0 -33.5 14t-11.5 34v630q0 27 12 42.5t34 15.5t37 -12t42 -50l384 -530h2l-2 544q0 21 12 34.5t34 13.5q21 0 32.5 -13.5t11.5 -34.5v-630q0 -58 -49 -58q-22 0 -41 17t-55 69l-364 501h-2l2 -539q0 -20 -11.5 -34t-33.5 -14zM366 -286q-16 0 -26 11t-8 28
q12 76 14 159q0 17 12 28.5t30 11.5q19 0 31 -13t11 -30q-3 -95 -30 -172q-9 -23 -34 -23z" />
    <glyph glyph-name="uni0146" unicode="&#x146;" 
d="M130 -8q-21 0 -33 14t-12 34v424q0 17 9.5 28.5t27.5 11.5t27.5 -11.5t9.5 -28.5v-66h2q23 50 75 82t114 32q205 0 205 -241v-231q0 -20 -11.5 -34t-33.5 -14t-33.5 14t-11.5 34v223q0 168 -130 168q-70 0 -114.5 -48.5t-44.5 -126.5l-1 -216q0 -20 -11.5 -34t-33.5 -14z
M299 -286q-16 0 -26 11t-8 28q12 78 14 160q0 17 12 28t30 11q20 0 31.5 -12.5t10.5 -29.5q-5 -100 -30 -173q-9 -23 -34 -23z" />
    <glyph glyph-name="Ncaron" unicode="&#x147;" horiz-adv-x="805" 
d="M416 775q-35 0 -98 66l-58 63q-17 15 -17 34q0 17 11.5 28.5t27.5 11.5q15 0 27 -13l107 -109h2l107 111q12 11 27 11q16 0 27 -11.5t11 -28.5t-18 -35l-63 -70q-57 -58 -93 -58zM148 -8q-22 0 -33.5 14t-11.5 34v630q0 27 12 42.5t34 15.5t37 -12t42 -50l384 -530h2
l-2 544q0 21 12 34.5t34 13.5q21 0 32.5 -13.5t11.5 -34.5v-630q0 -58 -49 -58q-22 0 -41 17t-55 69l-364 501h-2l2 -539q0 -20 -11.5 -34t-33.5 -14z" />
    <glyph glyph-name="ncaron" unicode="&#x148;" 
d="M333 566q-35 0 -98 66l-59 63q-16 15 -16 34q0 17 11 28.5t27 11.5q14 0 28 -13l106 -109h2l108 111q11 11 27 11t27 -12t11 -29q0 -15 -19 -34l-62 -70q-57 -58 -93 -58zM130 -8q-21 0 -33 14t-12 34v424q0 17 9.5 28.5t27.5 11.5t27.5 -11.5t9.5 -28.5v-66h2
q23 50 75 82t114 32q205 0 205 -241v-231q0 -20 -11.5 -34t-33.5 -14t-33.5 14t-11.5 34v223q0 168 -130 168q-70 0 -114.5 -48.5t-44.5 -126.5l-1 -216q0 -20 -11.5 -34t-33.5 -14z" />
    <glyph glyph-name="napostrophe" unicode="&#x149;" horiz-adv-x="703" 
d="M70 515q-15 0 -25.5 11t-8.5 28q14 85 15 160q0 16 11.5 27.5t29.5 11.5q20 0 32 -12.5t10 -30.5q-3 -93 -30 -172q-7 -23 -34 -23zM201 -8q-22 0 -33.5 14t-11.5 34v424q0 17 9.5 28.5t27.5 11.5t27.5 -11.5t9.5 -28.5v-66h2q22 50 74.5 82t114.5 32q205 0 205 -241
v-231q0 -20 -11.5 -34t-33.5 -14t-33.5 14t-11.5 34v223q0 168 -130 168q-71 0 -115 -48.5t-44 -126.5l-1 -216q0 -20 -11.5 -34t-33.5 -14z" />
    <glyph glyph-name="Eng" unicode="&#x14a;" horiz-adv-x="806" 
d="M103 40v630q0 27 12 42.5t34 15.5t37 -12t42 -50l384 -530h2l-2 544q0 21 12 34.5t34 13.5q21 0 32.5 -13.5t11.5 -34.5v-695q0 -108 -38.5 -161.5t-124.5 -53.5q-74 0 -114 30q-22 14 -22 39q0 15 10.5 25t27.5 10q12 0 37 -10.5t58 -10.5q49 0 66 31t17 90q0 5 -1 9.5
t-3.5 10.5t-5.5 10.5l-9 13.5t-11 15.5t-14.5 20t-17.5 24.5l-364 501h-2l2 -539q0 -20 -11.5 -34t-33.5 -14t-33.5 14t-11.5 34z" />
    <glyph glyph-name="eng" unicode="&#x14b;" horiz-adv-x="634" 
d="M176 256l-1 -216q0 -20 -11.5 -34t-33.5 -14q-21 0 -33 14t-12 34v424q0 17 9.5 28.5t27.5 11.5t27.5 -11.5t9.5 -28.5v-66h2q23 50 75 82t114 32q205 0 205 -241v-337q0 -148 -99 -164q-22 -1 -37 13t-15 33q0 27 24 44q37 19 37 76v327q0 168 -130 168
q-70 0 -114.5 -48.5t-44.5 -126.5z" />
    <glyph glyph-name="Omacron" unicode="&#x14c;" horiz-adv-x="845" 
d="M564 848h-278q-17 0 -29 12t-12 29q0 16 12 28t29 12h278q17 0 28.5 -12t11.5 -29q0 -16 -12 -28t-28 -12zM422 -16q-162 0 -263.5 104.5t-101.5 271.5q0 166 101.5 270.5t263.5 104.5q163 0 264.5 -104.5t101.5 -270.5q0 -167 -101 -271.5t-265 -104.5zM422 66
q124 0 198.5 79.5t74.5 214.5q0 133 -75 213.5t-199 80.5q-122 0 -196.5 -80.5t-74.5 -213.5q0 -135 75 -214.5t197 -79.5z" />
    <glyph glyph-name="omacron" unicode="&#x14d;" horiz-adv-x="630" 
d="M457 624h-278q-17 0 -29 12t-12 29t12 29t29 12h278q17 0 29 -12t12 -29t-12 -29t-29 -12zM316 -16q-119 0 -192 72.5t-73 192.5t73 191.5t192 71.5q118 0 190.5 -71.5t72.5 -191.5t-72 -192.5t-191 -72.5zM317 65q76 0 122.5 50t46.5 134q0 83 -47 132.5t-125 49.5
q-76 0 -123 -49.5t-47 -132.5t48 -133.5t125 -50.5z" />
    <glyph glyph-name="Ohungarumlaut" unicode="&#x150;" horiz-adv-x="845" 
d="M334 788q-17 0 -30 12.5t-13 30.5q0 17 9 34l62 116q18 31 45 31q21 0 36.5 -15t15.5 -36q0 -19 -11 -33l-71 -112q-21 -28 -43 -28zM535 788q-17 0 -30 12.5t-13 30.5q0 17 9 34l62 116q18 31 45 31q21 0 36.5 -15t15.5 -36q0 -19 -11 -33l-71 -112q-21 -28 -43 -28z
M422 -16q-162 0 -263.5 104.5t-101.5 271.5q0 166 101.5 270.5t263.5 104.5q163 0 264.5 -104.5t101.5 -270.5q0 -167 -101 -271.5t-265 -104.5zM422 66q124 0 198.5 79.5t74.5 214.5q0 133 -75 213.5t-199 80.5q-122 0 -196.5 -80.5t-74.5 -213.5q0 -135 75 -214.5
t197 -79.5z" />
    <glyph glyph-name="ohungarumlaut" unicode="&#x151;" horiz-adv-x="630" 
d="M228 564q-18 0 -31 12.5t-13 31.5q0 15 10 33l62 117q17 30 44 30q22 0 37.5 -14.5t15.5 -36.5q0 -19 -11 -33l-72 -112q-20 -28 -42 -28zM429 564q-18 0 -31 12.5t-13 31.5q0 17 10 33l61 117q18 30 45 30q22 0 37.5 -14.5t15.5 -36.5q0 -19 -11 -33l-72 -112
q-20 -28 -42 -28zM316 -16q-119 0 -192 72.5t-73 192.5t73 191.5t192 71.5q118 0 190.5 -71.5t72.5 -191.5t-72 -192.5t-191 -72.5zM317 65q76 0 122.5 50t46.5 134q0 83 -47 132.5t-125 49.5q-76 0 -123 -49.5t-47 -132.5t48 -133.5t125 -50.5z" />
    <glyph glyph-name="OE" unicode="&#x152;" horiz-adv-x="1182" 
d="M1090 74q18 0 29.5 -11.5t11.5 -30.5q0 -18 -11 -29t-28 -11h-347q-46 0 -46 47v63q-102 -118 -277 -118q-162 0 -263.5 104.5t-101.5 271.5q0 166 101.5 270.5t263.5 104.5q173 0 277 -118v65q0 46 46 46h344q18 0 29.5 -11.5t11.5 -29.5t-11 -29t-29 -11h-302v-246h267
q18 0 29.5 -11.5t11.5 -30.5q0 -18 -11.5 -29t-28.5 -11h-268l1 -245h301zM422 66q124 0 198.5 79.5t74.5 214.5q0 133 -75 213.5t-199 80.5q-122 0 -196.5 -80.5t-74.5 -213.5q0 -135 75 -214.5t197 -79.5z" />
    <glyph glyph-name="oe" unicode="&#x153;" horiz-adv-x="1013" 
d="M964 283q0 -33 -12 -48.5t-41 -15.5h-330q0 -67 47.5 -110t134.5 -43q47 0 88 16t50 16q17 0 27.5 -10.5t10.5 -25.5q0 -25 -24 -41q-51 -37 -152 -37q-159 0 -230 104q-72 -104 -217 -104q-119 0 -192 72.5t-73 192.5t73 191.5t192 71.5q145 0 216 -102q69 102 202 102
q109 0 169.5 -62t60.5 -167zM871 284q1 5 1 20q0 60 -36 96t-104 36q-65 0 -108.5 -44.5t-43.5 -107.5h291zM317 65q76 0 122.5 50t46.5 134q0 83 -47 132.5t-125 49.5q-76 0 -123 -49.5t-47 -132.5t48 -133.5t125 -50.5z" />
    <glyph glyph-name="Racute" unicode="&#x154;" horiz-adv-x="690" 
d="M294 860l111 129q19 23 41 23q19 0 33.5 -13.5t14.5 -34.5q0 -26 -21 -43l-121 -116q-18 -15 -30 -15q-15 0 -27 11t-12 28q0 16 11 31zM148 -8q-22 0 -33.5 14t-11.5 34v642q0 46 46 46h205q276 0 276 -227q0 -87 -42.5 -143t-108.5 -72l127 -215q13 -19 13 -37t-15 -30
t-34 -12q-22 0 -44 36l-147 247h-186v-235q0 -20 -11.5 -34t-33.5 -14zM193 650v-297h209q62 0 102 41t40 107q0 149 -186 149h-165z" />
    <glyph glyph-name="racute" unicode="&#x155;" horiz-adv-x="377" 
d="M162 638l111 129q19 23 41 23q19 0 33.5 -13.5t14.5 -34.5q0 -26 -21 -43l-121 -116q-18 -15 -30 -15q-15 0 -27 11t-12 28q0 16 11 31zM130 -8q-21 0 -33 14t-12 34v424q0 17 9.5 28.5t27.5 11.5q37 0 37 -33v-68h2q22 45 64.5 76.5t91.5 32.5q21 1 32 -11t11 -30
q0 -17 -11 -29t-31 -12q-63 -4 -103 -48t-40 -113v-229q0 -20 -11.5 -34t-33.5 -14z" />
    <glyph glyph-name="uni0156" unicode="&#x156;" horiz-adv-x="690" 
d="M148 -8q-22 0 -33.5 14t-11.5 34v642q0 46 46 46h205q276 0 276 -227q0 -87 -42.5 -143t-108.5 -72l127 -215q13 -19 13 -37t-15 -30t-34 -12q-22 0 -44 36l-147 247h-186v-235q0 -20 -11.5 -34t-33.5 -14zM193 650v-297h209q62 0 102 41t40 107q0 149 -186 149h-165z
M330 -286q-15 0 -25.5 11t-8.5 28q14 83 15 159q0 17 11.5 28.5t29.5 11.5q20 0 32 -13t10 -30q-3 -94 -29 -172q-9 -23 -35 -23z" />
    <glyph glyph-name="uni0157" unicode="&#x157;" horiz-adv-x="377" 
d="M130 -8q-21 0 -33 14t-12 34v424q0 17 9.5 28.5t27.5 11.5q37 0 37 -33v-68h2q22 45 64.5 76.5t91.5 32.5q21 1 32 -11t11 -30q0 -17 -11 -29t-31 -12q-63 -4 -103 -48t-40 -113v-229q0 -20 -11.5 -34t-33.5 -14zM106 -286q-15 0 -25.5 11t-8.5 28q14 83 15 159
q0 17 11.5 28.5t29.5 11.5q20 0 32 -13t10 -30q-3 -95 -30 -172q-7 -23 -34 -23z" />
    <glyph glyph-name="Rcaron" unicode="&#x158;" horiz-adv-x="690" 
d="M350 774q-35 0 -98 66l-58 63q-16 15 -16 34q0 17 11 28.5t27 11.5q15 0 27 -13l107 -109h2l107 111q12 11 27 11q16 0 27 -11.5t11 -28.5t-18 -35l-63 -70q-55 -58 -93 -58zM148 -8q-22 0 -33.5 14t-11.5 34v642q0 46 46 46h205q276 0 276 -227q0 -87 -42.5 -143
t-108.5 -72l127 -215q13 -19 13 -37t-15 -30t-34 -12q-22 0 -44 36l-147 247h-186v-235q0 -20 -11.5 -34t-33.5 -14zM193 650v-297h209q62 0 102 41t40 107q0 149 -186 149h-165z" />
    <glyph glyph-name="rcaron" unicode="&#x159;" horiz-adv-x="377" 
d="M221 552q-35 0 -98 66l-58 63q-17 14 -17 34q0 17 11 28.5t27 11.5t28 -13l106 -109h2l108 111q12 11 27 11q16 0 27 -11.5t11 -28.5t-18 -35l-63 -70q-57 -58 -93 -58zM130 -8q-21 0 -33 14t-12 34v424q0 17 9.5 28.5t27.5 11.5q37 0 37 -33v-68h2q22 45 64.5 76.5
t91.5 32.5q21 1 32 -11t11 -30q0 -17 -11 -29t-31 -12q-63 -4 -103 -48t-40 -113v-229q0 -20 -11.5 -34t-33.5 -14z" />
    <glyph glyph-name="Sacute" unicode="&#x15a;" horiz-adv-x="620" 
d="M255 876l111 129q19 23 41 23q19 0 33.5 -13.5t14.5 -34.5q0 -26 -21 -43l-121 -116q-18 -15 -30 -15q-15 0 -27 11t-12 28q0 16 11 31zM570 192q0 -100 -73 -154.5t-189 -54.5q-128 0 -227 59q-32 19 -32 46q0 21 13.5 31.5t33.5 8.5q16 -5 58.5 -23.5t77.5 -28t74 -9.5
q79 0 122.5 32.5t43.5 85.5q0 26 -12.5 47.5t-27 34.5t-48 28.5t-52 22t-62.5 20.5q-102 35 -152.5 79t-50.5 128q0 88 69.5 139t186.5 51q61 0 115.5 -13t82.5 -32q23 -15 23 -40q0 -38 -42 -38q-10 0 -67 21t-116 21q-70 0 -112 -28.5t-42 -79.5q0 -47 35 -73t106 -49
q36 -11 55 -17.5t49.5 -17.5t46 -20t37.5 -22.5t33 -28t22.5 -33.5t16 -42.5t4.5 -50.5z" />
    <glyph glyph-name="sacute" unicode="&#x15b;" horiz-adv-x="515" 
d="M207 653l111 129q19 23 40 23q20 0 34.5 -13.5t14.5 -34.5q0 -25 -21 -43l-122 -116q-18 -15 -29 -15q-16 0 -27.5 11t-11.5 28q0 18 11 31zM256 -16q-57 0 -108.5 14t-78.5 35q-23 18 -23 42q0 17 11 26t29 7q14 -4 45 -18t61.5 -22.5t65.5 -8.5q59 0 91.5 19t32.5 52
q0 20 -10 35t-33 25t-43 15t-56 13q-39 8 -67.5 18t-56.5 27t-42.5 44t-14.5 63q0 66 53.5 104t147.5 38q97 0 153 -38q26 -15 26 -37t-15.5 -30.5t-37.5 -2.5q-8 2 -28 10.5t-45.5 15.5t-55.5 7q-109 0 -109 -65q0 -18 9.5 -31t32 -22.5t41.5 -14.5t58 -13q32 -7 53.5 -13
t48.5 -18t42.5 -27t26.5 -39.5t11 -55.5q0 -66 -51.5 -110t-163.5 -44z" />
    <glyph glyph-name="Scedilla" unicode="&#x15e;" horiz-adv-x="620" 
d="M570 192q0 -92 -61.5 -145t-162.5 -62l-7 -24q4 0 11 -1.5t25 -8t32 -17t25 -31t11 -47.5q0 -49 -36 -80t-100 -31q-52 0 -90 25q-22 12 -22 34q0 16 9.5 25t22.5 9q6 0 29 -11.5t46 -11.5q62 0 62 52q0 47 -72 49q-17 0 -23.5 7t-1.5 27l9 34q-112 9 -195 58
q-32 19 -32 46q0 21 13.5 31.5t33.5 8.5q16 -5 58.5 -23.5t77.5 -28t74 -9.5q79 0 122.5 32.5t43.5 85.5q0 26 -12.5 47.5t-27 34.5t-48 28.5t-52 22t-62.5 20.5q-102 35 -152.5 79t-50.5 128q0 88 69.5 139t186.5 51q61 0 115.5 -13t82.5 -32q23 -15 23 -40q0 -38 -42 -38
q-10 0 -67 21t-116 21q-70 0 -112 -28.5t-42 -79.5q0 -47 35 -73t106 -49q36 -11 55 -17.5t49.5 -17.5t46 -20t37.5 -22.5t33 -28t22.5 -33.5t16 -42.5t4.5 -50.5z" />
    <glyph glyph-name="scedilla" unicode="&#x15f;" horiz-adv-x="515" 
d="M471 138q0 -60 -43 -102.5t-137 -50.5l-8 -25q4 0 11 -1.5t25 -8t32 -17t25 -31t11 -47.5q0 -49 -36 -80t-100 -31q-52 0 -90 25q-22 12 -22 34q0 16 9.5 25t22.5 9q6 0 29 -11.5t46 -11.5q62 0 62 51q0 47 -72 49q-17 1 -23.5 8t-1.5 27l10 36q-101 9 -152 48
q-23 18 -23 42q0 17 11 26t29 7q14 -4 45 -18t61.5 -22.5t65.5 -8.5q59 0 91.5 19t32.5 52q0 20 -10 35t-33 25t-43 15t-56 13q-39 8 -67.5 18t-56.5 27t-42.5 44t-14.5 63q0 66 53.5 104t147.5 38q97 0 153 -38q26 -15 26 -37t-15.5 -30.5t-37.5 -2.5q-8 2 -28 10.5
t-45.5 15.5t-55.5 7q-109 0 -109 -65q0 -18 9.5 -31t32 -22.5t41.5 -14.5t58 -13q32 -7 53.5 -13t48.5 -18t42.5 -27t26.5 -39.5t11 -55.5z" />
    <glyph glyph-name="Scaron" unicode="&#x160;" horiz-adv-x="620" 
d="M314 790q-35 0 -98 66l-58 63q-17 15 -17 34q0 17 11.5 28.5t27.5 11.5q15 0 27 -13l107 -109h2l107 111q12 11 27 11q16 0 27 -11.5t11 -28.5t-18 -35l-63 -70q-57 -58 -93 -58zM570 192q0 -100 -73 -154.5t-189 -54.5q-128 0 -227 59q-32 19 -32 46q0 21 13.5 31.5
t33.5 8.5q16 -5 58.5 -23.5t77.5 -28t74 -9.5q79 0 122.5 32.5t43.5 85.5q0 26 -12.5 47.5t-27 34.5t-48 28.5t-52 22t-62.5 20.5q-102 35 -152.5 79t-50.5 128q0 88 69.5 139t186.5 51q61 0 115.5 -13t82.5 -32q23 -15 23 -40q0 -38 -42 -38q-10 0 -67 21t-116 21
q-70 0 -112 -28.5t-42 -79.5q0 -47 35 -73t106 -49q36 -11 55 -17.5t49.5 -17.5t46 -20t37.5 -22.5t33 -28t22.5 -33.5t16 -42.5t4.5 -50.5z" />
    <glyph glyph-name="scaron" unicode="&#x161;" horiz-adv-x="515" 
d="M266 567q-35 0 -99 66l-58 63q-16 15 -16 34q0 17 11 28.5t27 11.5q15 0 28 -13l106 -109h2l107 111q12 11 27 11q16 0 27 -11.5t11 -28.5t-18 -35l-62 -70q-57 -58 -93 -58zM256 -16q-57 0 -108.5 14t-78.5 35q-23 18 -23 42q0 17 11 26t29 7q14 -4 45 -18t61.5 -22.5
t65.5 -8.5q59 0 91.5 19t32.5 52q0 20 -10 35t-33 25t-43 15t-56 13q-39 8 -67.5 18t-56.5 27t-42.5 44t-14.5 63q0 66 53.5 104t147.5 38q97 0 153 -38q26 -15 26 -37t-15.5 -30.5t-37.5 -2.5q-8 2 -28 10.5t-45.5 15.5t-55.5 7q-109 0 -109 -65q0 -18 9.5 -31t32 -22.5
t41.5 -14.5t58 -13q32 -7 53.5 -13t48.5 -18t42.5 -27t26.5 -39.5t11 -55.5q0 -66 -51.5 -110t-163.5 -44z" />
    <glyph glyph-name="uni0162" unicode="&#x162;" horiz-adv-x="615" 
d="M554 728q17 0 29 -12t12 -29t-11.5 -28.5t-28.5 -11.5h-201l-1 -607q0 -24 -15 -37l-10 -35q4 0 11 -1.5t25.5 -8t32 -16.5t25 -30.5t11.5 -47.5q0 -50 -36 -81t-100 -31q-52 0 -90 25q-22 14 -22 34q0 16 9.5 25t22.5 9q6 0 28.5 -11.5t45.5 -11.5q62 0 62 52
q0 47 -72 49q-16 0 -22.5 7t-2.5 27l12 44l3 9q-8 13 -8 30l-1 607h-202q-16 0 -27.5 11.5t-11.5 28.5t11.5 29t28.5 12h493z" />
    <glyph glyph-name="uni0163" unicode="&#x163;" horiz-adv-x="403" 
d="M370 16q-32 -32 -100 -33l-8 -26q4 0 11 -1.5t25 -8t32 -16.5t25 -30.5t11 -47.5q0 -50 -36 -81t-100 -31q-52 0 -90 25q-22 14 -22 34q0 16 9.5 25t22.5 9q6 0 28.5 -11.5t45.5 -11.5q63 0 63 52q0 47 -72 49q-17 0 -23.5 7t-1.5 27l11 43q0 1 0.5 2.5t0.5 2.5
q-93 36 -93 201v222h-49q-16 0 -28 11.5t-12 28.5t12 28.5t28 11.5h50q4 58 13 90q13 35 40 35q17 0 26.5 -10.5t9.5 -27.5v-87h120q16 0 27.5 -12t11.5 -28t-11.5 -28t-27.5 -12h-120v-204q0 -25 0.5 -36.5t2 -32.5t6.5 -31t13 -22.5t21.5 -17.5t31.5 -5q25 0 46 10t30 10
q14 0 23.5 -10t9.5 -27q0 -21 -13 -35z" />
    <glyph glyph-name="Tcaron" unicode="&#x164;" horiz-adv-x="615" 
d="M312 775q-35 0 -98 66l-59 63q-16 15 -16 34q0 17 11 28.5t27 11.5q15 0 28 -13l106 -109h2l108 111q11 11 27 11t27 -11.5t11 -28.5q0 -16 -19 -35l-62 -70q-57 -58 -93 -58zM308 -8q-22 0 -33.5 14t-11.5 34l-1 607h-202q-16 0 -27.5 11.5t-11.5 28.5t11.5 29t28.5 12
h493q17 0 29 -12t12 -29t-11.5 -28.5t-28.5 -11.5h-201l-1 -607q0 -20 -11.5 -34t-33.5 -14z" />
    <glyph glyph-name="tcaron" unicode="&#x165;" horiz-adv-x="403" 
d="M316 544q-15 0 -25.5 11t-8.5 28q12 78 14 160q0 16 12 27.5t30 11.5q20 0 31.5 -12.5t10.5 -30.5q-3 -93 -30 -172q-9 -23 -34 -23zM350 88q14 0 23.5 -10t9.5 -27q0 -21 -13 -35q-33 -33 -104 -33q-157 0 -157 212v222h-49q-16 0 -28 11.5t-12 28.5t12 28.5t28 11.5h50
q4 58 13 90q13 35 40 35q17 0 26.5 -10.5t9.5 -27.5v-87h120q16 0 27.5 -12t11.5 -28t-11.5 -28t-27.5 -12h-120v-204q0 -25 0.5 -36.5t2 -32.5t6.5 -31t13 -22.5t21.5 -17.5t31.5 -5q25 0 46 10t30 10z" />
    <glyph glyph-name="Tbar" unicode="&#x166;" horiz-adv-x="631" 
d="M562 728q17 0 29 -12t12 -29t-11.5 -28.5t-28.5 -11.5h-201v-252h112q18 0 29.5 -11.5t11.5 -29.5t-11.5 -29t-29.5 -11h-113v-274q0 -20 -11.5 -34t-33.5 -14t-33.5 14t-11.5 34v274h-116q-17 0 -28.5 11t-11.5 29t11.5 29.5t28.5 11.5h115v252h-202q-16 0 -27.5 11.5
t-11.5 28.5t11.5 29t28.5 12h493z" />
    <glyph glyph-name="tbar" unicode="&#x167;" horiz-adv-x="408" 
d="M348 88q14 0 24 -10t10 -27q0 -19 -14 -35q-31 -33 -101 -33q-153 0 -153 212v66h-52q-14 0 -23.5 9.5t-9.5 23.5t9.5 23.5t23.5 9.5h52v90h-46q-16 0 -27.5 11t-11.5 29t11.5 29t27.5 11h47q3 54 14 90q13 35 40 35q35 0 35 -38v-87h110q16 0 27.5 -11t11.5 -29
t-11.5 -29t-27.5 -11h-110v-90h117q13 0 23 -9.5t10 -23.5q0 -13 -10 -23t-23 -10h-117v-48q0 -30 0.5 -44t4 -37.5t10.5 -34.5t21.5 -20t35.5 -9q23 0 43 10t29 10z" />
    <glyph glyph-name="Utilde" unicode="&#x168;" horiz-adv-x="789" 
d="M301 953q39 0 71.5 -20.5t57 -40.5t42.5 -20q45 0 53 67q9 16 29 16q17 0 27 -12.5t10 -31.5q0 -52 -28 -87t-77 -35q-34 0 -66 21.5t-59 43t-49 21.5q-20 0 -32.5 -9.5t-16.5 -21.5t-6 -31q-5 -21 -30 -21q-17 0 -26.5 11t-9.5 28q0 51 28 86.5t82 35.5zM394 -16
q-148 0 -224 84t-76 228v384q0 21 11.5 34.5t33.5 13.5t33.5 -13.5t11.5 -34.5v-384q0 -103 51.5 -167t158.5 -64q108 0 159.5 64t51.5 167v384q0 21 12 34.5t34 13.5q21 0 32.5 -13.5t11.5 -34.5v-384q0 -143 -76.5 -227.5t-224.5 -84.5z" />
    <glyph glyph-name="utilde" unicode="&#x169;" 
d="M223 730q39 0 71.5 -20t57 -40.5t42.5 -20.5q43 0 53 66q9 17 29 17q17 0 27 -12.5t10 -31.5q0 -52 -28 -87t-77 -35q-34 0 -66 21.5t-59 43t-49 21.5q-20 0 -32.5 -10t-16.5 -22t-6 -31q-5 -20 -30 -20q-17 0 -26.5 11t-9.5 28q0 51 28 86.5t82 35.5zM287 -16
q-103 0 -156 62t-53 180v230q0 20 11.5 34t32.5 14q22 0 34 -14t12 -34v-222q0 -168 134 -168q69 0 111.5 48t43.5 126l1 216q0 20 11.5 34t32.5 14q22 0 34 -14t12 -34v-424q0 -17 -10 -28.5t-28 -11.5q-19 0 -29 11.5t-10 28.5v63h-2q-23 -50 -72 -80.5t-110 -30.5z" />
    <glyph glyph-name="Umacron" unicode="&#x16a;" horiz-adv-x="789" 
d="M534 833h-278q-17 0 -28.5 12t-11.5 29q0 16 12 28t28 12h278q17 0 29 -12t12 -29q0 -16 -12 -28t-29 -12zM394 -16q-148 0 -224 84t-76 228v384q0 21 11.5 34.5t33.5 13.5t33.5 -13.5t11.5 -34.5v-384q0 -103 51.5 -167t158.5 -64q108 0 159.5 64t51.5 167v384
q0 21 12 34.5t34 13.5q21 0 32.5 -13.5t11.5 -34.5v-384q0 -143 -76.5 -227.5t-224.5 -84.5z" />
    <glyph glyph-name="umacron" unicode="&#x16b;" 
d="M453 610h-278q-17 0 -29 12t-12 29q0 16 12 28t29 12h278q17 0 29 -12t12 -29q0 -16 -12 -28t-29 -12zM287 -16q-103 0 -156 62t-53 180v230q0 20 11.5 34t32.5 14q22 0 34 -14t12 -34v-222q0 -168 134 -168q69 0 111.5 48t43.5 126l1 216q0 20 11.5 34t32.5 14
q22 0 34 -14t12 -34v-424q0 -17 -10 -28.5t-28 -11.5q-19 0 -29 11.5t-10 28.5v63h-2q-23 -50 -72 -80.5t-110 -30.5z" />
    <glyph glyph-name="Uring" unicode="&#x16e;" horiz-adv-x="789" 
d="M393 782q-46 0 -77.5 29t-31.5 77t31.5 77t77.5 29q47 0 78.5 -29t31.5 -77t-31.5 -77t-78.5 -29zM393 842q20 0 33 12.5t13 33.5q0 20 -13 33t-33 13t-32.5 -13t-12.5 -33q0 -21 12.5 -33.5t32.5 -12.5zM394 -16q-148 0 -224 84t-76 228v384q0 21 11.5 34.5t33.5 13.5
t33.5 -13.5t11.5 -34.5v-384q0 -103 51.5 -167t158.5 -64q108 0 159.5 64t51.5 167v384q0 21 12 34.5t34 13.5q21 0 32.5 -13.5t11.5 -34.5v-384q0 -143 -76.5 -227.5t-224.5 -84.5z" />
    <glyph glyph-name="uring" unicode="&#x16f;" 
d="M312 559q-47 0 -78 29t-31 77t31 77t78 29t78.5 -29t31.5 -77t-31.5 -77t-78.5 -29zM312 618q20 0 33 13t13 34q0 20 -13 33t-33 13t-32.5 -13t-12.5 -33q0 -21 12.5 -34t32.5 -13zM287 -16q-103 0 -156 62t-53 180v230q0 20 11.5 34t32.5 14q22 0 34 -14t12 -34v-222
q0 -168 134 -168q69 0 111.5 48t43.5 126l1 216q0 20 11.5 34t32.5 14q22 0 34 -14t12 -34v-424q0 -17 -10 -28.5t-28 -11.5q-19 0 -29 11.5t-10 28.5v63h-2q-23 -50 -72 -80.5t-110 -30.5z" />
    <glyph glyph-name="Uhungarumlaut" unicode="&#x170;" horiz-adv-x="789" 
d="M305 773q-18 0 -30.5 12.5t-12.5 30.5t9 34l62 116q16 31 45 31q21 0 36.5 -15t15.5 -36q0 -19 -11 -33l-72 -112q-19 -28 -42 -28zM506 773q-18 0 -31 12.5t-13 30.5q0 16 10 34l62 116q16 31 44 31q21 0 37 -15t16 -36q0 -19 -11 -33l-72 -112q-19 -28 -42 -28z
M394 -16q-148 0 -224 84t-76 228v384q0 21 11.5 34.5t33.5 13.5t33.5 -13.5t11.5 -34.5v-384q0 -103 51.5 -167t158.5 -64q108 0 159.5 64t51.5 167v384q0 21 12 34.5t34 13.5q21 0 32.5 -13.5t11.5 -34.5v-384q0 -143 -76.5 -227.5t-224.5 -84.5z" />
    <glyph glyph-name="uhungarumlaut" unicode="&#x171;" 
d="M218 550q-17 0 -30 12.5t-13 30.5q0 17 9 34l62 116q18 31 45 31q21 0 36.5 -15t15.5 -37q0 -18 -11 -32l-71 -112q-21 -28 -43 -28zM419 550q-17 0 -30 12.5t-13 30.5q0 17 9 34l62 116q18 31 45 31q21 0 36.5 -15t15.5 -37q0 -18 -11 -32l-71 -112q-21 -28 -43 -28z
M287 -16q-103 0 -156 62t-53 180v230q0 20 11.5 34t32.5 14q22 0 34 -14t12 -34v-222q0 -168 134 -168q69 0 111.5 48t43.5 126l1 216q0 20 11.5 34t32.5 14q22 0 34 -14t12 -34v-424q0 -17 -10 -28.5t-28 -11.5q-19 0 -29 11.5t-10 28.5v63h-2q-23 -50 -72 -80.5
t-110 -30.5z" />
    <glyph glyph-name="Uogonek" unicode="&#x172;" horiz-adv-x="789" 
d="M651 728q21 0 32.5 -13.5t11.5 -34.5v-384q0 -126 -60 -207.5t-177 -99.5l-3 -3q-88 -59 -88 -129q0 -29 17 -45t47 -16q4 0 11.5 0.5t10.5 0.5q15 1 24.5 -8.5t9.5 -25.5q0 -19 -18 -29q-16 -8 -47 -8q-55 0 -92.5 32t-37.5 94q0 76 64 134q-129 11 -195.5 93.5
t-66.5 216.5v384q0 21 11.5 34.5t33.5 13.5t33.5 -13.5t11.5 -34.5v-384q0 -103 51.5 -167t158.5 -64q108 0 159.5 64t51.5 167v384q0 21 12 34.5t34 13.5z" />
    <glyph glyph-name="uogonek" unicode="&#x173;" 
d="M530 -190q15 1 24.5 -8.5t9.5 -25.5q0 -18 -18 -29q-19 -8 -47 -8q-55 0 -92.5 32.5t-37.5 94.5q0 95 102 162v4v63h-2q-23 -50 -72 -80.5t-110 -30.5q-103 0 -156 62t-53 180v230q0 20 11.5 34t32.5 14q22 0 34 -14t12 -34v-222q0 -168 134 -168q69 0 111.5 48t43.5 126
l1 216q0 20 11.5 34t32.5 14q22 0 34 -14t12 -34v-424q0 -26 -21 -37q-83 -56 -83 -125q0 -28 17 -44.5t47 -16.5q4 0 11.5 0.5t10.5 0.5z" />
    <glyph glyph-name="Wcircumflex" unicode="&#x174;" horiz-adv-x="1056" 
d="M397 777q-16 0 -27 11.5t-11 28.5t18 35l63 69q56 59 93 59q34 0 98 -66l58 -63q17 -15 17 -35q0 -16 -11 -27.5t-27 -11.5t-28 12l-106 109h-2l-108 -110q-11 -11 -27 -11zM296 -7q-29 0 -46.5 18t-31.5 68l-179 586q-7 24 6 42t38 18q35 0 45 -35l167 -598h2l162 561
q11 44 26 59.5t43 15.5t43.5 -16t25.5 -58l163 -562h2l167 598q10 35 44 35q26 0 38.5 -18t6.5 -42l-180 -585q-15 -51 -32 -69.5t-46 -18.5q-30 0 -48 19.5t-31 69.5l-152 513h-2l-152 -513q-13 -49 -30.5 -68.5t-48.5 -19.5z" />
    <glyph glyph-name="wcircumflex" unicode="&#x175;" horiz-adv-x="838" 
d="M288 554q-16 0 -27 11.5t-11 28.5q0 18 18 34l63 70q56 59 93 59q34 0 98 -66l58 -63q17 -15 17 -35q0 -17 -11.5 -28t-27.5 -11q-15 0 -27 12l-107 109h-2l-107 -110q-11 -11 -27 -11zM242 -8h-2q-30 0 -46 17t-28 55l-126 377q-8 26 4 44.5t40 18.5q32 0 42 -36
l117 -374h2l108 342q10 38 25 53t41 15h4q25 -1 39 -15.5t24 -52.5l107 -342h2l117 374q10 36 42 36q30 0 41.5 -18t2.5 -45l-126 -377q-13 -36 -29 -53.5t-44 -18.5h-2q-31 0 -45.5 16.5t-26.5 55.5l-105 332h-2l-105 -332q-11 -36 -26.5 -54t-44.5 -18z" />
    <glyph glyph-name="Ycircumflex" unicode="&#x176;" horiz-adv-x="658" 
d="M194 787q-16 0 -27 11.5t-11 28.5t18 35l63 70q55 58 93 58q35 0 98 -66l58 -63q17 -15 17 -34q0 -17 -11.5 -28.5t-27.5 -11.5q-15 0 -27 13l-107 109h-2l-107 -111q-12 -11 -27 -11zM329 -8q-21 0 -33 14t-12 34v245l-239 377q-6 8 -6 21q0 18 13 31.5t32 13.5
q23 0 39 -25l205 -327h2l204 328q15 24 38 24q19 0 32 -13t13 -31q0 -12 -5 -21l-238 -378v-245q0 -20 -11.5 -34t-33.5 -14z" />
    <glyph glyph-name="ycircumflex" unicode="&#x177;" horiz-adv-x="555" 
d="M147 554q-16 0 -27 11.5t-11 28.5q0 18 18 34l63 70q56 59 93 59q34 0 98 -66l58 -63q17 -15 17 -35q0 -17 -11 -28t-28 -11q-15 0 -27 12l-107 109h-2l-107 -110q-11 -11 -27 -11zM123 -230q-25 0 -41 6q-26 11 -26 40q0 17 11 27.5t29 9.5q8 -1 18 -1q42 0 68.5 34.5
t48.5 91.5l-190 462q-9 22 5 43t40 21q31 0 44 -40l149 -391h3l148 393q14 38 46 38q26 0 37.5 -18.5t1.5 -44.5l-180 -445q-48 -118 -95.5 -172t-116.5 -54z" />
    <glyph glyph-name="Ydieresis" unicode="&#x178;" horiz-adv-x="658" 
d="M219 816q-30 0 -49 18.5t-19 48.5t19 47.5t49 17.5t48.5 -17.5t18.5 -47.5t-18 -48.5t-49 -18.5zM443 816q-30 0 -49 18.5t-19 48.5t19 47.5t49 17.5t48.5 -17.5t18.5 -47.5t-18.5 -48.5t-48.5 -18.5zM329 -8q-21 0 -33 14t-12 34v245l-239 377q-6 8 -6 21q0 18 13 31.5
t32 13.5q23 0 39 -25l205 -327h2l204 328q15 24 38 24q19 0 32 -13t13 -31q0 -12 -5 -21l-238 -378v-245q0 -20 -11.5 -34t-33.5 -14z" />
    <glyph glyph-name="Zacute" unicode="&#x179;" horiz-adv-x="665" 
d="M260 861l111 129q19 23 41 23q19 0 33.5 -13.5t14.5 -34.5q0 -26 -21 -43l-121 -116q-18 -15 -30 -15q-15 0 -27 11t-12 28q0 16 11 31zM591 -8h-513q-19 0 -33 14t-14 34q0 17 10 30l460 577h-409q-19 0 -31.5 10.5t-12.5 29.5q0 20 12.5 30.5t31.5 10.5h486
q19 0 33 -13t14 -34q0 -17 -11 -30l-461 -577h438q18 0 30.5 -10.5t12.5 -30.5q0 -19 -12.5 -30t-30.5 -11z" />
    <glyph glyph-name="zacute" unicode="&#x17a;" horiz-adv-x="517" 
d="M202 638l111 129q19 23 41 23q19 0 33.5 -13.5t14.5 -34.5q0 -26 -21 -43l-121 -116q-18 -15 -30 -15q-15 0 -27 11t-12 28q0 16 11 31zM442 -8h-366q-19 0 -29.5 11.5t-10.5 29.5q0 17 13 31l292 362h-249q-18 0 -29.5 10t-11.5 29t11.5 29t29.5 10h337q41 0 41 -42
q0 -14 -10 -26l-297 -366h279q18 0 30 -10t12 -29t-12 -29t-30 -10z" />
    <glyph glyph-name="Zdotaccent" unicode="&#x17b;" horiz-adv-x="665" 
d="M320 806q-32 0 -53 20t-21 52q0 33 20.5 52t53.5 19t52.5 -19t19.5 -52q0 -32 -19.5 -52t-52.5 -20zM591 -8h-513q-19 0 -33 14t-14 34q0 17 10 30l460 577h-409q-19 0 -31.5 10.5t-12.5 29.5q0 20 12.5 30.5t31.5 10.5h486q19 0 33 -13t14 -34q0 -17 -11 -30l-461 -577
h438q18 0 30.5 -10.5t12.5 -30.5q0 -19 -12.5 -30t-30.5 -11z" />
    <glyph glyph-name="zdotaccent" unicode="&#x17c;" horiz-adv-x="517" 
d="M257 583q-33 0 -53.5 20t-20.5 52q0 33 20.5 52t53.5 19t52.5 -19t19.5 -52q0 -32 -19.5 -52t-52.5 -20zM442 -8h-366q-19 0 -29.5 11.5t-10.5 29.5q0 17 13 31l292 362h-249q-18 0 -29.5 10t-11.5 29t11.5 29t29.5 10h337q41 0 41 -42q0 -14 -10 -26l-297 -366h279
q18 0 30 -10t12 -29t-12 -29t-30 -10z" />
    <glyph glyph-name="Zcaron" unicode="&#x17d;" horiz-adv-x="665" 
d="M329 775q-35 0 -98 66l-58 63q-16 15 -16 34q0 17 11 28.5t27 11.5q15 0 27 -13l107 -109h2l107 111q12 11 27 11q16 0 27 -11.5t11 -28.5t-18 -35l-63 -70q-55 -58 -93 -58zM591 -8h-513q-19 0 -33 14t-14 34q0 17 10 30l460 577h-409q-19 0 -31.5 10.5t-12.5 29.5
q0 20 12.5 30.5t31.5 10.5h486q19 0 33 -13t14 -34q0 -17 -11 -30l-461 -577h438q18 0 30.5 -10.5t12.5 -30.5q0 -19 -12.5 -30t-30.5 -11z" />
    <glyph glyph-name="zcaron" unicode="&#x17e;" horiz-adv-x="517" 
d="M261 552q-35 0 -98 66l-59 63q-16 15 -16 34q0 17 11 28.5t27 11.5t28 -13l106 -109h2l108 111q12 11 27 11q16 0 27 -11.5t11 -28.5t-18 -35l-63 -70q-57 -58 -93 -58zM442 -8h-366q-19 0 -29.5 11.5t-10.5 29.5q0 17 13 31l292 362h-249q-18 0 -29.5 10t-11.5 29
t11.5 29t29.5 10h337q41 0 41 -42q0 -14 -10 -26l-297 -366h279q18 0 30 -10t12 -29t-12 -29t-30 -10z" />
    <glyph glyph-name="uni01EA" unicode="&#x1ea;" horiz-adv-x="845" 
d="M487 -11q-85 -59 -85 -129q0 -28 16.5 -44.5t46.5 -16.5q8 0 22 2q15 0 24.5 -9t9.5 -25q0 -20 -18 -29q-17 -9 -47 -9q-55 0 -92.5 32.5t-37.5 94.5q0 73 60 129q-148 13 -238.5 116t-90.5 259q0 166 101.5 270.5t263.5 104.5q163 0 264.5 -104.5t101.5 -270.5
q0 -149 -82 -250t-219 -121zM150 360q0 -135 75 -214.5t197 -79.5q124 0 198.5 79.5t74.5 214.5q0 133 -75 213.5t-199 80.5q-122 0 -196.5 -80.5t-74.5 -213.5z" />
    <glyph glyph-name="uni01EB" unicode="&#x1eb;" horiz-adv-x="630" 
d="M394 -7q-76 -54 -76 -120q0 -28 17 -44.5t47 -16.5q8 0 22 2q14 0 24 -9.5t10 -25.5q0 -18 -18 -29q-19 -8 -47 -8q-55 0 -93 32.5t-38 94.5q0 64 47 116q-108 8 -173 79.5t-65 184.5q0 120 73 191.5t192 71.5q118 0 190.5 -71.5t72.5 -191.5q0 -98 -49.5 -166
t-135.5 -90zM144 249q0 -83 48 -133.5t125 -50.5q76 0 122.5 50t46.5 134q0 83 -47 132.5t-125 49.5q-76 0 -123 -49.5t-47 -132.5z" />
    <glyph glyph-name="AEacute" unicode="&#x1fc;" horiz-adv-x="937" 
d="M570 791q-15 0 -27 11t-12 28q0 16 11 31l111 129q19 23 41 23q19 0 33.5 -13.5t14.5 -34.5q0 -26 -21 -43l-121 -116q-18 -15 -30 -15zM846 74q17 0 28.5 -11.5t11.5 -30.5q0 -18 -11 -29t-28 -11h-347q-46 0 -46 47v157h-252l-107 -178q-14 -26 -41 -26q-29 0 -40.5 23
t1.5 45l365 616q17 30 30.5 41t35.5 11h399q17 0 28.5 -11.5t11.5 -29.5t-11 -29t-28 -11h-303v-246h267q18 0 29.5 -11.5t11.5 -30.5q0 -18 -11.5 -29t-28.5 -11h-268l1 -245h302zM250 277h204v336h-2z" />
    <glyph glyph-name="aeacute" unicode="&#x1fd;" horiz-adv-x="928" 
d="M428 581q-15 0 -27 10.5t-12 27.5q0 19 12 31l110 130q19 22 41 22q19 0 33.5 -13.5t14.5 -34.5q0 -24 -21 -43l-121 -116q-17 -14 -30 -14zM879 283q0 -33 -11.5 -48.5t-40.5 -15.5h-330q0 -67 47.5 -110t134.5 -43q47 0 88 16t50 16q17 0 27.5 -10.5t10.5 -25.5
q0 -25 -24 -41q-53 -37 -152 -37q-171 0 -239 118q-30 -51 -89 -84.5t-129 -33.5q-85 0 -135 40t-50 112q0 76 57 119.5t141 43.5q90 0 167 -44q0 89 -36.5 131.5t-116.5 42.5q-49 0 -102 -17q-20 -6 -27 -6q-36 0 -36 38q0 29 36 44q59 24 142 24q140 0 192 -94
q67 94 195 94q110 0 170 -62t60 -167zM787 284q1 5 1 20q0 60 -36 96t-104 36q-65 0 -108.5 -44.5t-43.5 -107.5h291zM235 57q65 0 113 42t54 93q-69 42 -143 42q-58 0 -93.5 -24.5t-35.5 -68.5q0 -84 105 -84z" />
    <glyph glyph-name="Oslashacute" unicode="&#x1fe;" horiz-adv-x="869" 
d="M391 806q-16 0 -28 11t-12 28t12 31l110 129q20 23 41 23q20 0 34.5 -13.5t14.5 -34.5q0 -25 -21 -43l-122 -116q-18 -15 -29 -15zM825 699q0 -17 -14 -31l-80 -79q67 -97 67 -229q0 -167 -101 -271.5t-264 -104.5q-137 0 -234 78l-73 -73q-16 -15 -31 -15
q-17 0 -30 14.5t-13 32.5q0 17 14 31l73 73q-71 98 -71 235q0 166 101.5 270.5t263.5 104.5q142 0 240 -82l79 78q16 14 32 14t28.5 -14t12.5 -32zM160 360q0 -100 44 -172l408 404q-73 62 -180 62q-122 0 -197 -80.5t-75 -213.5zM706 360q0 94 -40 165l-405 -402
q69 -57 172 -57q124 0 198.5 79.5t74.5 214.5z" />
    <glyph glyph-name="oslashacute" unicode="&#x1ff;" horiz-adv-x="646" 
d="M299 583q-15 0 -27 10.5t-12 27.5q0 20 11 31l111 130q18 22 40 22q20 0 34.5 -13.5t14.5 -34.5q0 -24 -21 -43l-122 -116q-17 -14 -29 -14zM598 480q0 -15 -11 -27l-46 -45q45 -67 45 -159q0 -120 -72 -192.5t-191 -72.5q-95 0 -162 47l-41 -40q-20 -19 -43 -9t-23 35
q0 16 12 27l41 41q-49 66 -49 164q0 120 73 191.5t192 71.5q96 0 165 -50l45 45q20 18 42.5 7t22.5 -34zM151 249q0 -57 23 -98l251 249q-43 31 -104 31q-76 0 -123 -49.5t-47 -132.5zM493 249q0 51 -19 92l-250 -247q43 -29 100 -29q76 0 122.5 50t46.5 134z" />
    <glyph glyph-name="uni0218" unicode="&#x218;" horiz-adv-x="620" 
d="M570 192q0 -100 -73 -154.5t-189 -54.5q-128 0 -227 59q-32 19 -32 46q0 21 13.5 31.5t33.5 8.5q16 -5 58.5 -23.5t77.5 -28t74 -9.5q79 0 122.5 32.5t43.5 85.5q0 26 -12.5 47.5t-27 34.5t-48 28.5t-52 22t-62.5 20.5q-102 35 -152.5 79t-50.5 128q0 88 69.5 139
t186.5 51q61 0 115.5 -13t82.5 -32q23 -15 23 -40q0 -38 -42 -38q-10 0 -67 21t-116 21q-70 0 -112 -28.5t-42 -79.5q0 -47 35 -73t106 -49q36 -11 55 -17.5t49.5 -17.5t46 -20t37.5 -22.5t33 -28t22.5 -33.5t16 -42.5t4.5 -50.5zM288 -286q-16 0 -26 11t-8 28q12 78 14 160
q0 16 12 27.5t30 11.5q20 0 31.5 -12.5t10.5 -30.5q-3 -93 -30 -172q-9 -23 -34 -23z" />
    <glyph glyph-name="uni0219" unicode="&#x219;" horiz-adv-x="515" 
d="M256 -16q-57 0 -108.5 14t-78.5 35q-23 18 -23 42q0 17 11 26t29 7q14 -4 45 -18t61.5 -22.5t65.5 -8.5q59 0 91.5 19t32.5 52q0 20 -10 35t-33 25t-43 15t-56 13q-39 8 -67.5 18t-56.5 27t-42.5 44t-14.5 63q0 66 53.5 104t147.5 38q97 0 153 -38q26 -15 26 -37
t-15.5 -30.5t-37.5 -2.5q-8 2 -28 10.5t-45.5 15.5t-55.5 7q-109 0 -109 -65q0 -18 9.5 -31t32 -22.5t41.5 -14.5t58 -13q32 -7 53.5 -13t48.5 -18t42.5 -27t26.5 -39.5t11 -55.5q0 -66 -51.5 -110t-163.5 -44zM232 -287q-15 0 -25.5 11t-8.5 28q12 78 14 160q0 16 12 27.5
t30 11.5q20 0 31.5 -12.5t10.5 -30.5q-3 -93 -30 -172q-9 -23 -34 -23z" />
    <glyph glyph-name="uni021A" unicode="&#x21a;" horiz-adv-x="615" 
d="M308 -8q-22 0 -33.5 14t-11.5 34l-1 607h-202q-16 0 -27.5 11.5t-11.5 28.5t11.5 29t28.5 12h493q17 0 29 -12t12 -29t-11.5 -28.5t-28.5 -11.5h-201l-1 -607q0 -20 -11.5 -34t-33.5 -14zM283 -279q-16 0 -26 11t-8 28q12 78 14 160q0 17 12 28t30 11q20 0 31.5 -12.5
t10.5 -29.5q-3 -94 -30 -173q-9 -23 -34 -23z" />
    <glyph glyph-name="uni021B" unicode="&#x21b;" horiz-adv-x="403" 
d="M350 88q14 0 23.5 -10t9.5 -27q0 -21 -13 -35q-33 -33 -104 -33q-157 0 -157 212v222h-49q-16 0 -28 11.5t-12 28.5t12 28.5t28 11.5h50q4 58 13 90q13 35 40 35q17 0 26.5 -10.5t9.5 -27.5v-87h120q16 0 27.5 -12t11.5 -28t-11.5 -28t-27.5 -12h-120v-204
q0 -25 0.5 -36.5t2 -32.5t6.5 -31t13 -22.5t21.5 -17.5t31.5 -5q25 0 46 10t30 10zM235 -47q20 0 32 -13t10 -30q-3 -95 -30 -172q-9 -23 -34 -23q-15 0 -25.5 11t-8.5 28q12 76 14 159q0 17 12 28.5t30 11.5z" />
    <glyph glyph-name="uni0237" unicode="&#x237;" horiz-adv-x="272" 
d="M31 -230q-70 0 -101 33q-13 13 -13 34q0 17 9.5 27t23.5 10q9 0 29.5 -10t43.5 -10q17 0 30 5t20.5 17.5t12 23t6 31.5t2 32.5t0.5 36.5v456q0 20 12 34t33 14q22 0 33.5 -14t11.5 -34v-474q0 -212 -153 -212z" />
    <glyph glyph-name="circumflex" unicode="&#x2c6;" horiz-adv-x="600" 
d="M140 564q-16 0 -27 11.5t-11 28.5t18 35l63 69q56 59 93 59q35 0 98 -66l58 -63q17 -15 17 -34q0 -17 -11.5 -28.5t-27.5 -11.5q-15 0 -27 12l-107 110h-2l-107 -111q-12 -11 -27 -11z" />
    <glyph glyph-name="caron" unicode="&#x2c7;" horiz-adv-x="600" 
d="M275 535q-34 0 -98 66l-58 63q-17 15 -17 35q0 17 11 28t28 11q15 0 27 -12l106 -109h2l108 110q11 11 27 11t27 -11.5t11 -28.5q0 -18 -18 -34l-63 -70q-56 -59 -93 -59z" />
    <glyph glyph-name="breve" unicode="&#x2d8;" horiz-adv-x="600" 
d="M259 622q39 0 62 22.5t28 63.5q3 13 14 21.5t25 8.5q19 0 30 -13t11 -31q-2 -68 -50.5 -108.5t-119.5 -40.5q-72 0 -120 41t-50 108q0 18 11 31t30 13q13 0 24 -8.5t14 -21.5q5 -41 28.5 -63.5t62.5 -22.5z" />
    <glyph glyph-name="dotaccent" unicode="&#x2d9;" horiz-adv-x="600" 
d="M150 566q-32 0 -53 20.5t-21 52.5t20.5 51t53.5 19q32 0 52 -19t20 -51q0 -33 -19.5 -53t-52.5 -20z" />
    <glyph glyph-name="ring" unicode="&#x2da;" horiz-adv-x="600" 
d="M211 543q-47 0 -78 28.5t-31 77.5q0 48 31.5 77t77.5 29q47 0 79 -29t32 -77q0 -49 -32 -77.5t-79 -28.5zM211 602q20 0 33 13t13 34q0 20 -13 33t-33 13t-32.5 -13t-12.5 -33q0 -21 12.5 -34t32.5 -13z" />
    <glyph glyph-name="ogonek" unicode="&#x2db;" horiz-adv-x="600" 
d="M213 -272q-55 0 -93 32.5t-38 94.5q0 37 14 68t39.5 54.5t41 34t39.5 24.5q7 4 16 3q26 -2 26 -28q0 -13 -12 -23q-88 -59 -88 -129q0 -28 17 -44.5t47 -16.5q4 0 11 0.5t11 0.5q14 1 24 -8.5t10 -25.5q0 -19 -18 -29q-19 -8 -47 -8z" />
    <glyph glyph-name="tilde" unicode="&#x2dc;" horiz-adv-x="486" 
d="M201 714q31 0 58.5 -12.5t44 -28t35 -28t33.5 -12.5q44 0 54 66q7 16 28 16q17 0 27 -12.5t10 -30.5q0 -53 -28 -87.5t-76 -34.5q-34 0 -66.5 21.5t-59.5 43t-49 21.5q-20 0 -32.5 -10t-16.5 -22t-6 -31q-5 -20 -30 -20q-17 0 -26.5 11t-9.5 28q0 51 28 86.5t82 35.5z
" />
    <glyph glyph-name="hungarumlaut" unicode="&#x2dd;" horiz-adv-x="600" 
d="M145 534q-18 0 -30.5 12t-12.5 31q0 16 9 34l62 116q16 31 44 31q21 0 37 -15t16 -37q0 -17 -11 -33l-72 -112q-19 -27 -42 -27zM346 534q-18 0 -31 12.5t-13 30.5q0 17 10 34l62 116q16 31 44 31q21 0 37 -15t16 -37q0 -17 -11 -33l-72 -112q-20 -27 -42 -27z" />
    <glyph glyph-name="gravecomb" unicode="&#x300;" horiz-adv-x="0" 
d="M-207 751l111 -129q11 -13 11 -32q0 -17 -11.5 -27.5t-27.5 -10.5q-11 0 -29 15l-122 115q-21 20 -21 43q0 21 14.5 35t34.5 14q21 0 40 -23z" />
    <glyph glyph-name="acutecomb" unicode="&#x301;" horiz-adv-x="0" 
d="M-315 622l111 129q19 23 40 23q20 0 34.5 -14t14.5 -35q0 -24 -21 -43l-121 -115q-19 -15 -30 -15q-15 0 -27 10.5t-12 27.5q0 19 11 32z" />
    <glyph glyph-name="uni0302" unicode="&#x302;" horiz-adv-x="0" 
d="M-410 564q-16 0 -27 11.5t-11 28.5t18 35l63 69q56 59 93 59q35 0 98 -66l58 -63q17 -15 17 -34q0 -17 -11.5 -28.5t-27.5 -11.5q-15 0 -27 12l-107 110h-2l-107 -111q-12 -11 -27 -11z" />
    <glyph glyph-name="tildecomb" unicode="&#x303;" horiz-adv-x="0" 
d="M-343 714q31 0 58.5 -12.5t44 -28t35 -28t33.5 -12.5q44 0 54 66q7 16 28 16q17 0 27 -12.5t10 -30.5q0 -53 -28 -87.5t-76 -34.5q-34 0 -66.5 21.5t-59.5 43t-49 21.5q-20 0 -32.5 -10t-16.5 -22t-6 -31q-5 -20 -30 -20q-17 0 -26.5 11t-9.5 28q0 51 28 86.5t82 35.5z
" />
    <glyph glyph-name="uni0304" unicode="&#x304;" horiz-adv-x="0" 
d="M-127 593h-278q-16 0 -28 12t-12 29t11.5 29t28.5 12h278q17 0 29 -12t12 -29q0 -16 -12 -28.5t-29 -12.5z" />
    <glyph glyph-name="uni0306" unicode="&#x306;" horiz-adv-x="0" 
d="M-260 622q39 0 62 22.5t28 63.5q3 13 14 21.5t25 8.5q19 0 30 -13t11 -31q-2 -68 -50.5 -108.5t-119.5 -40.5q-72 0 -120 41t-50 108q0 18 11 31t30 13q13 0 24 -8.5t14 -21.5q5 -41 28.5 -63.5t62.5 -22.5z" />
    <glyph glyph-name="uni0307" unicode="&#x307;" horiz-adv-x="0" 
d="M-150 566q-32 0 -53 20.5t-21 52.5t20.5 51t53.5 19q32 0 52 -19t20 -51q0 -33 -19.5 -53t-52.5 -20z" />
    <glyph glyph-name="uni0308" unicode="&#x308;" horiz-adv-x="0" 
d="M-394 571q-30 0 -49.5 18.5t-19.5 48.5t19.5 47.5t49.5 17.5t48 -17.5t18 -47.5t-18 -48.5t-48 -18.5zM-171 571q-30 0 -49 18.5t-19 48.5t19 47.5t49 17.5t48.5 -17.5t18.5 -47.5t-18 -48.5t-49 -18.5z" />
    <glyph glyph-name="uni030A" unicode="&#x30a;" horiz-adv-x="0" 
d="M-212 543q-47 0 -78 28.5t-31 77.5q0 48 31.5 77t77.5 29q47 0 79 -29t32 -77q0 -49 -32 -77.5t-79 -28.5zM-212 602q20 0 33 13t13 34q0 20 -13 33t-33 13t-32.5 -13t-12.5 -33q0 -21 12.5 -34t32.5 -13z" />
    <glyph glyph-name="uni030B" unicode="&#x30b;" horiz-adv-x="0" 
d="M-401 534q-18 0 -30.5 12t-12.5 31q0 16 9 34l62 116q16 31 44 31q21 0 37 -15t16 -37q0 -17 -11 -33l-72 -112q-19 -27 -42 -27zM-200 534q-18 0 -31 12.5t-13 30.5q0 17 10 34l62 116q16 31 44 31q21 0 37 -15t16 -37q0 -17 -11 -33l-72 -112q-20 -27 -42 -27z" />
    <glyph glyph-name="uni030C" unicode="&#x30c;" horiz-adv-x="0" 
d="M-275 535q-34 0 -98 66l-58 63q-17 15 -17 35q0 17 11 28t28 11q15 0 27 -12l106 -109h2l108 110q11 11 27 11t27 -11.5t11 -28.5q0 -18 -18 -34l-63 -70q-56 -59 -93 -59z" />
    <glyph glyph-name="uni0326" unicode="&#x326;" horiz-adv-x="0" 
d="M-157 -180q-15 0 -25.5 11t-8.5 28q12 76 14 159q0 17 12 28.5t30 11.5q20 0 31.5 -12.5t10.5 -30.5q-3 -95 -30 -172q-9 -23 -34 -23z" />
    <glyph glyph-name="uni0327" unicode="&#x327;" horiz-adv-x="0" 
d="M-209 -271q-53 0 -91 25q-21 11 -21 34q0 16 9.5 25t22.5 9q6 0 28.5 -12t45.5 -12q62 0 62 52q0 47 -72 49q-17 1 -23 8t-2 27l12 42q8 33 37 33q16 0 27 -9t6 -22l-10 -34q4 0 11 -1.5t25.5 -8t32 -16.5t25 -30.5t11.5 -47.5q0 -49 -36 -80t-100 -31z" />
    <glyph glyph-name="uni0328" unicode="&#x328;" horiz-adv-x="0" 
d="M-178 -272q-55 0 -93 32.5t-38 94.5q0 37 14 68t39.5 54.5t41 34t39.5 24.5q7 4 16 3q26 -2 26 -28q0 -13 -12 -23q-88 -59 -88 -129q0 -28 17 -44.5t47 -16.5q3 0 11 0.5t11 0.5q14 1 24 -8.5t10 -25.5q0 -19 -18 -29q-19 -8 -47 -8z" />
    <glyph glyph-name="Wgrave" unicode="&#x1e80;" horiz-adv-x="1056" 
d="M450 990l110 -129q11 -13 11 -31q0 -17 -11.5 -28t-27.5 -11q-11 0 -29 15l-122 116q-21 18 -21 43q0 21 14.5 34.5t34.5 13.5q21 0 41 -23zM296 -7q-29 0 -46.5 18t-31.5 68l-179 586q-7 24 6 42t38 18q35 0 45 -35l167 -598h2l162 561q11 44 26 59.5t43 15.5t43.5 -16
t25.5 -58l163 -562h2l167 598q10 35 44 35q26 0 38.5 -18t6.5 -42l-180 -585q-15 -51 -32 -69.5t-46 -18.5q-30 0 -48 19.5t-31 69.5l-152 513h-2l-152 -513q-13 -49 -30.5 -68.5t-48.5 -19.5z" />
    <glyph glyph-name="wgrave" unicode="&#x1e81;" horiz-adv-x="838" 
d="M340 767l111 -129q11 -13 11 -31q0 -17 -12 -28t-27 -11q-11 0 -29 15l-122 116q-21 17 -21 43q0 21 14.5 34.5t34.5 13.5q21 0 40 -23zM242 -8h-2q-30 0 -46 17t-28 55l-126 377q-8 26 4 44.5t40 18.5q32 0 42 -36l117 -374h2l108 342q10 38 25 53t41 15h4
q25 -1 39 -15.5t24 -52.5l107 -342h2l117 374q10 36 42 36q30 0 41.5 -18t2.5 -45l-126 -377q-13 -36 -29 -53.5t-44 -18.5h-2q-31 0 -45.5 16.5t-26.5 55.5l-105 332h-2l-105 -332q-11 -36 -26.5 -54t-44.5 -18z" />
    <glyph glyph-name="Wacute" unicode="&#x1e82;" horiz-adv-x="1056" 
d="M474 861l110 129q19 23 41 23q19 0 33.5 -13.5t14.5 -34.5q0 -26 -21 -43l-121 -116q-18 -15 -30 -15q-15 0 -27 11t-12 28t12 31zM296 -7q-29 0 -46.5 18t-31.5 68l-179 586q-7 24 6 42t38 18q35 0 45 -35l167 -598h2l162 561q11 44 26 59.5t43 15.5t43.5 -16t25.5 -58
l163 -562h2l167 598q10 35 44 35q26 0 38.5 -18t6.5 -42l-180 -585q-15 -51 -32 -69.5t-46 -18.5q-30 0 -48 19.5t-31 69.5l-152 513h-2l-152 -513q-13 -49 -30.5 -68.5t-48.5 -19.5z" />
    <glyph glyph-name="wacute" unicode="&#x1e83;" horiz-adv-x="838" 
d="M364 638l111 129q19 23 41 23q19 0 33.5 -13.5t14.5 -34.5q0 -26 -21 -43l-121 -116q-18 -15 -30 -15q-15 0 -27 11t-12 28q0 16 11 31zM242 -8h-2q-30 0 -46 17t-28 55l-126 377q-8 26 4 44.5t40 18.5q32 0 42 -36l117 -374h2l108 342q10 38 25 53t41 15h4
q25 -1 39 -15.5t24 -52.5l107 -342h2l117 374q10 36 42 36q30 0 41.5 -18t2.5 -45l-126 -377q-13 -36 -29 -53.5t-44 -18.5h-2q-31 0 -45.5 16.5t-26.5 55.5l-105 332h-2l-105 -332q-11 -36 -26.5 -54t-44.5 -18z" />
    <glyph glyph-name="Wdieresis" unicode="&#x1e84;" horiz-adv-x="1056" 
d="M420 806q-30 0 -49.5 18.5t-19.5 48.5t19.5 47.5t49.5 17.5t48 -17.5t18 -47.5t-18 -48.5t-48 -18.5zM644 806q-30 0 -49.5 18.5t-19.5 48.5t19.5 47.5t49.5 17.5t48 -17.5t18 -47.5t-18 -48.5t-48 -18.5zM296 -7q-29 0 -46.5 18t-31.5 68l-179 586q-7 24 6 42t38 18
q35 0 45 -35l167 -598h2l162 561q11 44 26 59.5t43 15.5t43.5 -16t25.5 -58l163 -562h2l167 598q10 35 44 35q26 0 38.5 -18t6.5 -42l-180 -585q-15 -51 -32 -69.5t-46 -18.5q-30 0 -48 19.5t-31 69.5l-152 513h-2l-152 -513q-13 -49 -30.5 -68.5t-48.5 -19.5z" />
    <glyph glyph-name="wdieresis" unicode="&#x1e85;" horiz-adv-x="838" 
d="M311 583q-30 0 -49.5 18.5t-19.5 48.5t19.5 47.5t49.5 17.5t48 -17.5t18 -47.5t-18 -48.5t-48 -18.5zM535 583q-30 0 -49.5 18.5t-19.5 48.5t19.5 47.5t49.5 17.5t48 -17.5t18 -47.5t-18 -48.5t-48 -18.5zM242 -8h-2q-30 0 -46 17t-28 55l-126 377q-8 26 4 44.5t40 18.5
q32 0 42 -36l117 -374h2l108 342q10 38 25 53t41 15h4q25 -1 39 -15.5t24 -52.5l107 -342h2l117 374q10 36 42 36q30 0 41.5 -18t2.5 -45l-126 -377q-13 -36 -29 -53.5t-44 -18.5h-2q-31 0 -45.5 16.5t-26.5 55.5l-105 332h-2l-105 -332q-11 -36 -26.5 -54t-44.5 -18z" />
    <glyph glyph-name="uni1E9E" unicode="&#x1e9e;" horiz-adv-x="666" 
d="M96 40v451q0 117 67 180.5t175 63.5q95 0 154 -51t59 -139q0 -50 -23.5 -92t-62.5 -59v-2q60 -13 103.5 -62t43.5 -127q0 -105 -59.5 -162t-164.5 -57q-83 0 -128 27q-26 15 -26 40q0 19 10.5 30.5t29.5 11.5q3 0 36 -11t74 -11q61 0 98.5 34t37.5 104q0 61 -39.5 96.5
t-105.5 35.5h-15q-41 0 -41 40q0 41 35 41h15q42 0 67 33.5t25 78.5q0 52 -34.5 84t-90.5 32q-67 0 -108.5 -39t-41.5 -119v-452q0 -20 -11.5 -34t-33.5 -14q-21 0 -33 14t-12 34z" />
    <glyph glyph-name="Ygrave" unicode="&#x1ef2;" horiz-adv-x="658" 
d="M249 1001l110 -129q12 -14 12 -32q0 -17 -12 -27.5t-27 -10.5q-13 0 -30 14l-121 116q-21 19 -21 43q0 21 14.5 34.5t33.5 13.5q23 0 41 -22zM329 -8q-21 0 -33 14t-12 34v245l-239 377q-6 8 -6 21q0 18 13 31.5t32 13.5q23 0 39 -25l205 -327h2l204 328q15 24 38 24
q19 0 32 -13t13 -31q0 -12 -5 -21l-238 -378v-245q0 -20 -11.5 -34t-33.5 -14z" />
    <glyph glyph-name="ygrave" unicode="&#x1ef3;" horiz-adv-x="555" 
d="M199 767l111 -129q11 -15 11 -31q0 -17 -12 -28t-27 -11q-11 0 -30 15l-121 116q-21 17 -21 43q0 21 14.5 34.5t34.5 13.5q21 0 40 -23zM123 -230q-25 0 -41 6q-26 11 -26 40q0 17 11 27.5t29 9.5q8 -1 18 -1q42 0 68.5 34.5t48.5 91.5l-190 462q-9 22 5 43t40 21
q31 0 44 -40l149 -391h3l148 393q14 38 46 38q26 0 37.5 -18.5t1.5 -44.5l-180 -445q-48 -118 -95.5 -172t-116.5 -54z" />
    <glyph glyph-name="uni1EF8" unicode="&#x1ef8;" horiz-adv-x="658" 
d="M236 964q39 0 71.5 -20.5t57 -41t42.5 -20.5q43 0 53 67q7 16 29 16q17 0 26.5 -12.5t9.5 -31.5q0 -52 -27.5 -86.5t-76.5 -34.5q-34 0 -66 21.5t-59.5 43t-49.5 21.5q-20 0 -32 -10t-16 -22t-6 -31q-7 -20 -30 -20q-17 0 -27 11t-10 28q0 51 28.5 86.5t82.5 35.5z
M329 -8q-21 0 -33 14t-12 34v245l-239 377q-6 8 -6 21q0 18 13 31.5t32 13.5q23 0 39 -25l205 -327h2l204 328q15 24 38 24q19 0 32 -13t13 -31q0 -12 -5 -21l-238 -378v-245q0 -20 -11.5 -34t-33.5 -14z" />
    <glyph glyph-name="uni1EF9" unicode="&#x1ef9;" horiz-adv-x="555" 
d="M186 730q31 0 58.5 -12.5t44 -28t35.5 -28t34 -12.5q43 0 53 66q8 17 29 17q17 0 26.5 -12.5t9.5 -31.5q0 -52 -28 -87t-76 -35q-34 0 -66.5 21.5t-59.5 43t-49 21.5q-20 0 -32.5 -10t-16.5 -22t-6 -31q-5 -20 -29 -20q-37 0 -37 39q0 51 28 86.5t82 35.5zM123 -230
q-25 0 -41 6q-26 11 -26 40q0 17 11 27.5t29 9.5q8 -1 18 -1q42 0 68.5 34.5t48.5 91.5l-190 462q-9 22 5 43t40 21q31 0 44 -40l149 -391h3l148 393q14 38 46 38q26 0 37.5 -18.5t1.5 -44.5l-180 -445q-48 -118 -95.5 -172t-116.5 -54z" />
    <glyph glyph-name="endash" unicode="&#x2013;" horiz-adv-x="650" 
d="M539 216h-427q-17 0 -28 10t-11 30q0 19 11 29t28 10h427q17 0 28 -10t11 -29q0 -20 -11 -30t-28 -10z" />
    <glyph glyph-name="emdash" unicode="&#x2014;" horiz-adv-x="913" 
d="M802 216h-690q-17 0 -28 10t-11 29q0 20 11 30t28 10h690q17 0 28 -10t11 -30q0 -19 -11 -29t-28 -10z" />
    <glyph glyph-name="quoteleft" unicode="&#x2018;" horiz-adv-x="228" 
d="M107 467q-21 0 -33 13.5t-11 32.5q5 102 35 188q9 23 34 23q20 0 29 -11.5t7 -28.5q-16 -97 -18 -174q0 -19 -11 -31t-32 -12z" />
    <glyph glyph-name="quoteright" unicode="&#x2019;" horiz-adv-x="227" 
d="M100 467q-19 0 -28.5 11.5t-7.5 28.5q15 84 18 175q0 18 11.5 30t32.5 12q22 0 33.5 -13.5t9.5 -32.5q-5 -106 -34 -188q-11 -23 -35 -23z" />
    <glyph glyph-name="quotesinglbase" unicode="&#x201a;" horiz-adv-x="204" 
d="M77 -202q-16 0 -27 12t-8 31q16 98 17 180q1 18 12.5 30t31.5 12q21 0 33 -13.5t11 -32.5q-5 -108 -35 -193q-10 -26 -35 -26z" />
    <glyph glyph-name="quotedblleft" unicode="&#x201c;" horiz-adv-x="414" 
d="M107 467q-21 0 -33 13.5t-11 32.5q5 102 35 188q9 23 34 23q20 0 29 -11.5t7 -28.5q-16 -97 -18 -174q0 -19 -11 -31t-32 -12zM293 467q-22 0 -34 13.5t-10 32.5q5 102 35 188q9 23 34 23q20 0 29 -11.5t7 -28.5q-16 -97 -18 -174q0 -19 -11 -31t-32 -12z" />
    <glyph glyph-name="quotedblright" unicode="&#x201d;" horiz-adv-x="413" 
d="M100 467q-19 0 -28.5 11.5t-7.5 28.5q15 84 18 175q0 18 11.5 30t32.5 12q22 0 33.5 -13.5t9.5 -32.5q-5 -106 -34 -188q-11 -23 -35 -23zM286 467q-19 0 -28.5 11.5t-7.5 28.5q15 84 18 175q0 18 11.5 30t32.5 12q22 0 33.5 -13.5t9.5 -32.5q-4 -101 -34 -188
q-11 -23 -35 -23z" />
    <glyph glyph-name="quotedblbase" unicode="&#x201e;" horiz-adv-x="389" 
d="M77 -199q-19 0 -28.5 11.5t-7.5 28.5q15 84 18 174q0 19 11 31t33 12t33.5 -13.5t9.5 -32.5q-4 -101 -34 -188q-11 -23 -35 -23zM263 -199q-19 0 -28.5 11.5t-7.5 28.5q15 84 18 174q0 19 11 31t33 12t33.5 -13.5t9.5 -32.5q-4 -102 -35 -188q-9 -23 -34 -23z" />
    <glyph glyph-name="dagger" unicode="&#x2020;" horiz-adv-x="534" 
d="M267 -8q-20 0 -33 12.5t-13 34.5v417h-150q-19 0 -30 11.5t-11 28.5q0 18 10.5 29.5t30.5 11.5h150v145q0 22 13 34t33 12t33 -12t13 -34v-145h150q19 0 29.5 -11.5t10.5 -29.5q0 -17 -10.5 -28.5t-29.5 -11.5h-150v-417q0 -22 -13 -34.5t-33 -12.5z" />
    <glyph glyph-name="daggerdbl" unicode="&#x2021;" horiz-adv-x="575" 
d="M287 -8q-20 0 -33 12.5t-13 34.5v145h-149q-20 0 -30.5 11t-10.5 29t10.5 29.5t30.5 11.5h149v191h-149q-20 0 -30.5 11t-10.5 29q0 41 41 41h149v145q0 22 13 34t33 12t33.5 -12t13.5 -34v-145h149q41 0 41 -41q0 -18 -10.5 -29t-30.5 -11h-149v-191h149
q20 0 30.5 -11.5t10.5 -29.5t-10.5 -29t-30.5 -11h-149v-145q0 -22 -13.5 -34.5t-33.5 -12.5z" />
    <glyph glyph-name="bullet" unicode="&#x2022;" horiz-adv-x="355" 
d="M177 166q-37 0 -61 23.5t-24 61.5t24 60.5t61 22.5q39 0 62.5 -22.5t23.5 -60.5q0 -39 -23.5 -62t-62.5 -23z" />
    <glyph glyph-name="ellipsis" unicode="&#x2026;" horiz-adv-x="775" 
d="M642 -15q-30 0 -49 19t-19 50q0 30 19 48.5t49 18.5q31 0 50 -18t19 -49t-19 -50t-50 -19zM132 -15q-30 0 -49 19t-19 50q0 30 19 48t49 18q31 0 50 -18t19 -48q0 -31 -19 -50t-50 -19zM391 -15q-30 0 -49.5 19t-19.5 50q0 30 19 48t50 18t50 -18t19 -48q0 -31 -19 -50
t-50 -19z" />
    <glyph glyph-name="perthousand" unicode="&#x2030;" horiz-adv-x="1328" 
d="M284 9q-11 -17 -29 -17q-14 0 -23.5 10t-9.5 24q0 9 5 17l410 668q9 17 29 17q14 0 23.5 -9.5t9.5 -23.5q0 -9 -5 -17zM202 366q-75 0 -121 50t-46 127q0 76 45.5 126.5t121.5 50.5q75 0 121 -50.5t46 -126.5q0 -77 -46 -127t-121 -50zM202 434q42 0 66.5 30t24.5 79
t-24.5 79t-66.5 30q-43 0 -67 -30t-24 -79t24.5 -79t66.5 -30zM702 -15q-75 0 -121 49.5t-46 127.5q0 76 45.5 126.5t121.5 50.5q74 0 120 -50.5t46 -126.5q0 -78 -45.5 -127.5t-120.5 -49.5zM1127 -15q-75 0 -121 49.5t-46 127.5q0 76 46 126.5t121 50.5q74 0 120 -50.5
t46 -126.5q0 -78 -45.5 -127.5t-120.5 -49.5zM702 52q42 0 66 30t24 80q0 48 -24 78.5t-66 30.5q-43 0 -67 -30t-24 -79q0 -50 24.5 -80t66.5 -30zM1127 52q42 0 66 30t24 80q0 48 -24 78.5t-66 30.5q-43 0 -67 -30t-24 -79q0 -50 24.5 -80t66.5 -30z" />
    <glyph glyph-name="guilsinglleft" unicode="&#x2039;" horiz-adv-x="278" 
d="M59 278l77 143q13 26 35 26q18 0 30.5 -10t12.5 -27q0 -9 -6 -23l-72 -136l72 -136q6 -14 6 -23q0 -17 -12.5 -27t-30.5 -10q-22 0 -35 26l-77 143q-7 16 -7 27t7 27z" />
    <glyph glyph-name="guilsinglright" unicode="&#x203a;" horiz-adv-x="278" 
d="M142 421l77 -143q7 -16 7 -27t-7 -27l-77 -143q-13 -26 -35 -26q-18 0 -30.5 10t-12.5 27q0 12 6 23l72 136l-72 136q-6 10 -6 23q0 17 12.5 27t30.5 10q22 0 35 -26z" />
    <glyph glyph-name="fraction" unicode="&#x2044;" horiz-adv-x="377" 
d="M76 7q-10 -23 -33 -23q-15 0 -25 10.5t-10 24.5q0 8 4 16l288 677q9 23 33 23q15 0 25 -10.5t10 -24.5q0 -8 -4 -16z" />
    <glyph glyph-name="Euro" unicode="&#x20ac;" 
d="M396 635q92 0 143 -40q23 -16 23 -41q0 -16 -10.5 -26t-28.5 -10q-10 0 -47.5 17t-79.5 17q-68 0 -112.5 -41.5t-52.5 -114.5h180q15 0 26.5 -11t11.5 -26q0 -16 -11.5 -27t-26.5 -11h-181q7 -75 51.5 -119t118.5 -44q43 0 80 17.5t47 17.5q18 0 28.5 -10.5t10.5 -25.5
q0 -25 -24 -41q-55 -40 -147 -40q-112 0 -181 66t-78 179h-57q-15 0 -26 11t-11 27q0 15 11 26t26 11h57q11 111 80 175t180 64z" />
    <glyph glyph-name="trademark" unicode="&#x2122;" horiz-adv-x="1041" 
d="M702 254q-31 0 -46 38l-135 315h-2v-319q0 -14 -8.5 -24t-23.5 -10q-16 0 -25 10t-9 24v379q0 27 13.5 42t37.5 15q36 0 54 -44l143 -336h2l142 336q10 23 22 33.5t33 10.5q23 0 36.5 -15t13.5 -42v-379q0 -14 -8.5 -24t-24.5 -10t-24.5 10t-8.5 24v319h-2l-134 -315
q-17 -38 -46 -38zM172 289l-1 370h-110q-12 0 -21 9t-9 22t9 22t21 9h290q12 0 21 -9t9 -22t-9 -22t-21 -9h-110l-1 -370q0 -15 -9 -25t-25 -10t-25 10t-9 25z" />
    <glyph glyph-name="minus" unicode="&#x2212;" horiz-adv-x="526" 
d="M409 318h-293q-17 0 -28 10.5t-11 29.5t11 29.5t28 10.5h293q17 0 28.5 -10.5t11.5 -29.5t-11.5 -29.5t-28.5 -10.5z" />
    <glyph glyph-name="approxequal" unicode="&#x2248;" horiz-adv-x="612" 
d="M413 475q45 0 55 67q7 16 29 16q17 0 26.5 -12.5t9.5 -31.5q0 -52 -28 -86.5t-77 -34.5q-48 0 -119.5 43t-105.5 43q-30 0 -41 -16.5t-15 -46.5q-8 -21 -30 -21q-17 0 -27 11t-10 28q0 51 29 87t83 36q46 0 89 -20.5t76.5 -41t55.5 -20.5zM413 244q45 0 55 67q7 16 29 16
q17 0 26.5 -12.5t9.5 -31.5q0 -52 -28 -87t-77 -35q-48 0 -119.5 43t-105.5 43q-30 0 -41 -16t-15 -46q-8 -21 -30 -21q-17 0 -27 11t-10 28q0 51 29 86.5t83 35.5q46 0 89 -20.5t76.5 -40.5t55.5 -20z" />
    <glyph glyph-name="notequal" unicode="&#x2260;" horiz-adv-x="541" 
d="M421 300q16 0 27.5 -12t11.5 -28t-11.5 -27.5t-27.5 -11.5h-158l-31 -100q-9 -26 -36 -26q-19 0 -30.5 15.5t-5.5 33.5l23 77h-67q-17 0 -28.5 11.5t-11.5 28.5q0 16 12 27.5t28 11.5h92l36 119h-128q-16 0 -28 11.5t-12 28.5t12 28.5t28 11.5h152l28 91q8 27 37 27
q20 0 31 -16.5t6 -33.5l-21 -68h72q16 0 27.5 -12t11.5 -28t-11.5 -28t-27.5 -12h-97l-37 -119h134z" />
    <glyph glyph-name="uniF8FF" unicode="&#xf8ff;" horiz-adv-x="1427" 
d="M741 540q-26 0 -44 18t-18 42q0 27 17.5 44t44.5 17q24 0 41.5 -17.5t17.5 -43.5q0 -24 -18 -42t-41 -18zM207 601q0 -8 3 -57.5t5 -116.5t2 -135h-117q0 157 8 309h99zM798 292h-116q0 109 2 146h-58l3 -66q2 -1 14 -1q16 0 20 2v-70q-15 -16 -69 -16q-80 0 -80 66
q0 11 2 47.5t2 37.5h-21v78l117 29l1 -17h173q10 -64 10 -236zM396 354q-11 -66 -72 -66q-91 0 -91 112q0 133 132 133q120 0 120 -116v-125h-80zM1068 430l3 -138h-111q0 26 1 56.5t1 36.5q0 28 -14 28q-9 0 -13 -4t-5 -9t-1 -15q0 -6 1 -36.5t1 -56.5h-110q0 169 9 236h79
q5 -52 5 -74q2 14 6.5 29t23.5 32.5t48 17.5q42 0 58 -24.5t18 -78.5zM1208 533q119 0 119 -121q0 -124 -121 -124q-120 0 -120 122q0 123 122 123zM361 368q23 0 23 28q0 26 -23 26q-21 0 -21 -26q0 -28 21 -28zM1206 368q24 0 24 28q0 26 -24 26q-21 0 -21 -26
q0 -28 21 -28zM422 147v117h101q12 -66 12 -138q0 -78 -33.5 -112t-117.5 -34q-60 0 -86 16v81q19 -13 69 -13q21 0 34 5.5t16 10t3 8.5q-12 -10 -48 -10q-89 0 -89 83v11h-54l3 -63q6 -4 16 -4q12 0 17 5v-71q-15 -15 -68 -15q-43 0 -60.5 16.5t-17.5 51.5q0 44 3 80h-18
v79l115 28l-1 -15h173v-117q0 -17 2.5 -22.5t12.5 -5.5q9 0 12.5 6t3.5 22zM642 187q18 82 79 82q35 0 56.5 -29.5t21.5 -82.5q0 -133 -135 -133q1 -16 1 -39h-115q0 134 10 279h76q6 -42 6 -77zM938 269q54 0 84 -30t30 -85q0 -23 -3 -35h-122q9 -17 48 -17q35 0 56 11v-73
q-25 -16 -77 -16q-139 0 -139 121q0 57 33 90.5t90 33.5zM922 136h40q2 27 -16 27q-24 0 -24 -27zM656 127q0 -12 5 -27q4 0 11 2t15.5 11t8.5 23q0 23 -21 23q-19 0 -19 -32zM1078 65q-10 0 -16.5 -6.5t-6.5 -16.5q0 -22 23 -22q24 0 24 22q0 23 -24 23zM1078 24
q-17 0 -17 18q0 19 17 19q18 0 18 -19q0 -18 -18 -18zM1082 31h6l-6 9q7 0 7 6q0 8 -10 8h-10v-23h5v9h4zM1084 46q0 -3 -4 -3h-6v6h6q4 0 4 -3z" />
    <glyph glyph-name="A.fina" horiz-adv-x="1124" 
d="M1043 311q40 -77 40 -160q0 -116 -63 -183.5t-176 -67.5q-115 0 -187 72.5t-138 223.5h-333l-64 -165q-8 -20 -17 -29.5t-26 -9.5q-27 0 -39 19t-3 41l231 586q20 51 36 70.5t47 19.5q33 0 48 -19.5t36 -74.5l81 -200q86 -217 111 -267q66 -135 141 -170q35 -16 76 -16
q71 0 111 44.5t40 124.5q0 60 -30 117q-10 23 -10 36q0 17 13 28.5t32 11.5q26 0 43 -32zM217 277h268l-50 128l-84 211h-2z" />
    <glyph glyph-name="Aacute.fina" horiz-adv-x="1124" 
d="M324 791q-15 0 -27 11t-12 28q0 16 11 31l111 129q19 23 41 23q19 0 33.5 -13.5t14.5 -34.5q0 -26 -21 -43l-121 -116q-18 -15 -30 -15zM1043 311q40 -77 40 -160q0 -116 -63 -183.5t-176 -67.5q-115 0 -187 72.5t-138 223.5h-333l-64 -165q-8 -20 -17 -29.5t-26 -9.5
q-27 0 -39 19t-3 41l231 586q20 51 36 70.5t47 19.5q33 0 48 -19.5t36 -74.5l81 -200q86 -217 111 -267q66 -135 141 -170q35 -16 76 -16q71 0 111 44.5t40 124.5q0 60 -30 117q-10 23 -10 36q0 17 13 28.5t32 11.5q26 0 43 -32zM217 277h268l-50 128l-84 211h-2z" />
    <glyph glyph-name="Abreve.fina" horiz-adv-x="1124" 
d="M351 785q-72 0 -120 41t-50 108q0 17 11 30t29 13q14 0 25 -8.5t14 -21.5q5 -41 28.5 -63.5t62.5 -22.5q38 0 61.5 22.5t28.5 63.5q3 13 14 21.5t25 8.5q19 0 29.5 -12.5t10.5 -30.5q-2 -68 -50 -108.5t-119 -40.5zM1043 311q40 -77 40 -160q0 -116 -63 -183.5
t-176 -67.5q-115 0 -187 72.5t-138 223.5h-333l-64 -165q-8 -20 -17 -29.5t-26 -9.5q-27 0 -39 19t-3 41l231 586q20 51 36 70.5t47 19.5q33 0 48 -19.5t36 -74.5l81 -200q86 -217 111 -267q66 -135 141 -170q35 -16 76 -16q71 0 111 44.5t40 124.5q0 60 -30 117
q-10 23 -10 36q0 17 13 28.5t32 11.5q26 0 43 -32zM217 277h268l-50 128l-84 211h-2z" />
    <glyph glyph-name="Acircumflex.fina" horiz-adv-x="1124" 
d="M220 777q-16 0 -27 11.5t-11 28.5t18 35l63 69q56 59 93 59q34 0 98 -66l58 -63q17 -15 17 -35q0 -16 -11.5 -27.5t-27.5 -11.5q-15 0 -27 12l-106 109h-2l-108 -110q-11 -11 -27 -11zM1043 311q40 -77 40 -160q0 -116 -63 -183.5t-176 -67.5q-115 0 -187 72.5
t-138 223.5h-333l-64 -165q-8 -20 -17 -29.5t-26 -9.5q-27 0 -39 19t-3 41l231 586q20 51 36 70.5t47 19.5q33 0 48 -19.5t36 -74.5l81 -200q86 -217 111 -267q66 -135 141 -170q35 -16 76 -16q71 0 111 44.5t40 124.5q0 60 -30 117q-10 23 -10 36q0 17 13 28.5t32 11.5
q26 0 43 -32zM217 277h268l-50 128l-84 211h-2z" />
    <glyph glyph-name="Adieresis.fina" horiz-adv-x="1124" 
d="M243 806q-30 0 -49.5 18.5t-19.5 48.5t19.5 47.5t49.5 17.5t48 -17.5t18 -47.5t-18 -48.5t-48 -18.5zM467 806q-30 0 -49.5 18.5t-19.5 48.5t19.5 47.5t49.5 17.5t48 -17.5t18 -47.5t-18 -48.5t-48 -18.5zM1043 311q40 -77 40 -160q0 -116 -63 -183.5t-176 -67.5
q-115 0 -187 72.5t-138 223.5h-333l-64 -165q-8 -20 -17 -29.5t-26 -9.5q-27 0 -39 19t-3 41l231 586q20 51 36 70.5t47 19.5q33 0 48 -19.5t36 -74.5l81 -200q86 -217 111 -267q66 -135 141 -170q35 -16 76 -16q71 0 111 44.5t40 124.5q0 60 -30 117q-10 23 -10 36
q0 17 13 28.5t32 11.5q26 0 43 -32zM217 277h268l-50 128l-84 211h-2z" />
    <glyph glyph-name="Agrave.fina" horiz-adv-x="1124" 
d="M204 922q-21 17 -21 43q0 21 14.5 34.5t34.5 13.5q21 0 40 -23l111 -129q11 -13 11 -31q0 -17 -12 -28t-27 -11q-11 0 -29 15zM1043 311q40 -77 40 -160q0 -116 -63 -183.5t-176 -67.5q-115 0 -187 72.5t-138 223.5h-333l-64 -165q-8 -20 -17 -29.5t-26 -9.5
q-27 0 -39 19t-3 41l231 586q20 51 36 70.5t47 19.5q33 0 48 -19.5t36 -74.5l81 -200q86 -217 111 -267q66 -135 141 -170q35 -16 76 -16q71 0 111 44.5t40 124.5q0 60 -30 117q-10 23 -10 36q0 17 13 28.5t32 11.5q26 0 43 -32zM217 277h268l-50 128l-84 211h-2z" />
    <glyph glyph-name="Amacron.fina" horiz-adv-x="1124" 
d="M215 833q-17 0 -29 12t-12 29q0 16 12 28t29 12h278q17 0 28.5 -12t11.5 -29t-11.5 -28.5t-28.5 -11.5h-278zM1043 311q40 -77 40 -160q0 -116 -63 -183.5t-176 -67.5q-115 0 -187 72.5t-138 223.5h-333l-64 -165q-8 -20 -17 -29.5t-26 -9.5q-27 0 -39 19t-3 41l231 586
q20 51 36 70.5t47 19.5q33 0 48 -19.5t36 -74.5l81 -200q86 -217 111 -267q66 -135 141 -170q35 -16 76 -16q71 0 111 44.5t40 124.5q0 60 -30 117q-10 23 -10 36q0 17 13 28.5t32 11.5q26 0 43 -32zM217 277h268l-50 128l-84 211h-2z" />
    <glyph glyph-name="Aogonek.fina" horiz-adv-x="1124" 
d="M945 -83q-86 -57 -86 -127q0 -29 17 -45t47 -16q4 0 11.5 0.5t10.5 0.5q15 1 24.5 -8.5t9.5 -25.5q0 -19 -18 -29q-16 -8 -47 -8q-55 0 -92.5 32.5t-37.5 94.5q0 64 46 114q-108 5 -178 77.5t-133 218.5h-333l-64 -165q-8 -20 -17 -29.5t-26 -9.5q-27 0 -39 19t-3 41
l231 586q20 51 36 70.5t47 19.5q33 0 48 -19.5t36 -74.5l81 -200q86 -217 111 -267q66 -135 141 -170q35 -16 76 -16q71 0 111 44.5t40 124.5q0 60 -30 117q-10 23 -10 36q0 17 13 28.5t32 11.5q26 0 43 -32q40 -77 40 -160q0 -86 -35.5 -147t-102.5 -87zM217 277h268
l-50 128l-84 211h-2z" />
    <glyph glyph-name="Aring.fina" horiz-adv-x="1124" 
d="M352 782q-47 0 -78 29t-31 77t31 77t78 29t78.5 -29t31.5 -77t-31.5 -77t-78.5 -29zM352 934q-20 0 -32.5 -13t-12.5 -33q0 -21 12.5 -33.5t32.5 -12.5t32.5 12.5t12.5 33.5q0 20 -12.5 33t-32.5 13zM1043 311q40 -77 40 -160q0 -116 -63 -183.5t-176 -67.5
q-115 0 -187 72.5t-138 223.5h-333l-64 -165q-8 -20 -17 -29.5t-26 -9.5q-27 0 -39 19t-3 41l231 586q20 51 36 70.5t47 19.5q33 0 48 -19.5t36 -74.5l81 -200q86 -217 111 -267q66 -135 141 -170q35 -16 76 -16q71 0 111 44.5t40 124.5q0 60 -30 117q-10 23 -10 36
q0 17 13 28.5t32 11.5q26 0 43 -32zM217 277h268l-50 128l-84 211h-2z" />
    <glyph glyph-name="H.fina" horiz-adv-x="1165" 
d="M1126 139q0 -109 -65 -174t-176 -65q-269 0 -269 345v74h-423v-279q0 -20 -11.5 -34t-33.5 -14t-33.5 14t-11.5 34v636q0 20 11.5 34t33.5 14t33.5 -14t11.5 -34v-275h423v275q0 20 12 34t33 14q22 0 33.5 -14t11.5 -34v-431q0 -264 179 -264q66 0 107.5 41.5t41.5 116.5
q0 60 -28 111q-10 26 -10 36q0 17 13 29t32 12q27 0 44 -33q41 -75 41 -155z" />
    <glyph glyph-name="K.fina" horiz-adv-x="1087" 
d="M1047 159q0 -118 -67.5 -188.5t-182.5 -70.5q-78 0 -140 25.5t-114 80.5t-94.5 129t-88.5 185h-167v-280q0 -20 -11.5 -34t-33.5 -14t-33.5 14t-11.5 34v640q0 21 11.5 34.5t33.5 13.5t33.5 -13.5t11.5 -34.5v-272h169l208 299q13 21 36 21q20 0 32.5 -13.5t12.5 -30.5
q0 -16 -7 -26l-211 -292q88 -207 170 -296t194 -89q70 0 113.5 47t43.5 131q0 60 -28 111q-10 26 -10 32q0 19 13.5 31.5t32.5 12.5q23 0 40 -24q45 -74 45 -163z" />
    <glyph glyph-name="uni0136.fina" horiz-adv-x="1087" 
d="M1047 159q0 -118 -67.5 -188.5t-182.5 -70.5q-78 0 -140 25.5t-114 80.5t-94.5 129t-88.5 185h-167v-280q0 -20 -11.5 -34t-33.5 -14t-33.5 14t-11.5 34v640q0 21 11.5 34.5t33.5 13.5t33.5 -13.5t11.5 -34.5v-272h169l208 299q13 21 36 21q20 0 32.5 -13.5t12.5 -30.5
q0 -16 -7 -26l-211 -292q88 -207 170 -296t194 -89q70 0 113.5 47t43.5 131q0 60 -28 111q-10 26 -10 32q0 19 13.5 31.5t32.5 12.5q23 0 40 -24q45 -74 45 -163zM337 -286q-15 0 -25.5 11t-8.5 28q14 83 15 159q0 17 11.5 28.5t29.5 11.5q20 0 32 -13t10 -30
q-3 -94 -29 -172q-9 -23 -35 -23z" />
    <glyph glyph-name="N.fina" horiz-adv-x="1161" 
d="M1123 592q0 -81 -42 -155q-17 -33 -43 -33q-20 0 -33 12t-13 30q0 9 10 35q28 51 28 111q0 74 -42 116t-108 42q-178 0 -178 -264v-436q0 -58 -49 -58q-22 0 -41 17t-55 69l-364 501h-2l2 -539q0 -20 -11.5 -34t-33.5 -14t-33.5 14t-11.5 34v630q0 27 12 42.5t34 15.5
t37 -12t42 -50l384 -530h2l-2 350q0 346 268 346q111 0 177 -65.5t66 -174.5z" />
    <glyph glyph-name="Nacute.fina" horiz-adv-x="1161" 
d="M362 861l110 129q19 23 41 23q20 0 34 -13.5t14 -34.5q0 -26 -20 -43l-122 -116q-18 -15 -30 -15q-15 0 -27 11t-12 28t12 31zM1123 592q0 -81 -42 -155q-17 -33 -43 -33q-20 0 -33 12t-13 30q0 9 10 35q28 51 28 111q0 74 -42 116t-108 42q-178 0 -178 -264v-436
q0 -58 -49 -58q-22 0 -41 17t-55 69l-364 501h-2l2 -539q0 -20 -11.5 -34t-33.5 -14t-33.5 14t-11.5 34v630q0 27 12 42.5t34 15.5t37 -12t42 -50l384 -530h2l-2 350q0 346 268 346q111 0 177 -65.5t66 -174.5z" />
    <glyph glyph-name="Ncaron.fina" horiz-adv-x="1161" 
d="M420 775q-35 0 -98 66l-58 63q-17 15 -17 34q0 17 11.5 28.5t27.5 11.5q15 0 27 -13l107 -109h2l107 111q12 11 27 11q16 0 27 -11.5t11 -28.5t-18 -35l-63 -70q-55 -58 -93 -58zM1123 592q0 -81 -42 -155q-17 -33 -43 -33q-20 0 -33 12t-13 30q0 9 10 35q28 51 28 111
q0 74 -42 116t-108 42q-178 0 -178 -264v-436q0 -58 -49 -58q-22 0 -41 17t-55 69l-364 501h-2l2 -539q0 -20 -11.5 -34t-33.5 -14t-33.5 14t-11.5 34v630q0 27 12 42.5t34 15.5t37 -12t42 -50l384 -530h2l-2 350q0 346 268 346q111 0 177 -65.5t66 -174.5z" />
    <glyph glyph-name="uni0145.fina" horiz-adv-x="1161" 
d="M1123 592q0 -81 -42 -155q-17 -33 -43 -33q-20 0 -33 12t-13 30q0 9 10 35q28 51 28 111q0 74 -42 116t-108 42q-178 0 -178 -264v-436q0 -58 -49 -58q-22 0 -41 17t-55 69l-364 501h-2l2 -539q0 -20 -11.5 -34t-33.5 -14t-33.5 14t-11.5 34v630q0 27 12 42.5t34 15.5
t37 -12t42 -50l384 -530h2l-2 350q0 346 268 346q111 0 177 -65.5t66 -174.5zM376 -286q-15 0 -25.5 11t-8.5 28q12 76 14 159q0 17 12 28.5t30 11.5q19 0 31 -13t11 -30q-3 -95 -30 -172q-9 -23 -34 -23z" />
    <glyph glyph-name="Ntilde.fina" horiz-adv-x="1161" 
d="M325 953q39 0 71.5 -20.5t57 -40.5t42.5 -20q43 0 53 67q7 16 29 16q17 0 26.5 -12.5t9.5 -31.5q0 -52 -27.5 -87t-76.5 -35q-34 0 -66 21.5t-59.5 43t-49.5 21.5q-20 0 -32 -9.5t-16 -21.5t-6 -31q-7 -21 -30 -21q-17 0 -27 11t-10 28q0 51 28.5 86.5t82.5 35.5z
M1123 592q0 -81 -42 -155q-17 -33 -43 -33q-20 0 -33 12t-13 30q0 9 10 35q28 51 28 111q0 74 -42 116t-108 42q-178 0 -178 -264v-436q0 -58 -49 -58q-22 0 -41 17t-55 69l-364 501h-2l2 -539q0 -20 -11.5 -34t-33.5 -14t-33.5 14t-11.5 34v630q0 27 12 42.5t34 15.5
t37 -12t42 -50l384 -530h2l-2 350q0 346 268 346q111 0 177 -65.5t66 -174.5z" />
    <glyph glyph-name="R.fina" horiz-adv-x="1052" 
d="M1012 159q0 -118 -68 -188.5t-182 -70.5q-71 0 -127.5 25t-101.5 77t-79.5 115.5t-71.5 157.5h-189v-235q0 -20 -11.5 -34t-33.5 -14t-33.5 14t-11.5 34v642q0 46 46 46h205q276 0 276 -227q0 -87 -44.5 -143t-114.5 -74q65 -157 130.5 -230t160.5 -73q70 0 113.5 47
t43.5 131q0 60 -28 111q-10 26 -10 32q0 19 13.5 31.5t31.5 12.5q23 0 40 -24q46 -73 46 -163zM193 650v-297h209q62 0 102 41t40 107q0 149 -186 149h-165z" />
    <glyph glyph-name="Racute.fina" horiz-adv-x="1052" 
d="M300 859l111 129q19 23 40 23q20 0 34.5 -13.5t14.5 -34.5q0 -26 -21 -43l-122 -116q-18 -15 -29 -15q-16 0 -27.5 11t-11.5 28q0 18 11 31zM1012 159q0 -118 -68 -188.5t-182 -70.5q-71 0 -127.5 25t-101.5 77t-79.5 115.5t-71.5 157.5h-189v-235q0 -20 -11.5 -34
t-33.5 -14t-33.5 14t-11.5 34v642q0 46 46 46h205q276 0 276 -227q0 -87 -44.5 -143t-114.5 -74q65 -157 130.5 -230t160.5 -73q70 0 113.5 47t43.5 131q0 60 -28 111q-10 26 -10 32q0 19 13.5 31.5t31.5 12.5q23 0 40 -24q46 -73 46 -163zM193 650v-297h209q62 0 102 41
t40 107q0 149 -186 149h-165z" />
    <glyph glyph-name="Rcaron.fina" horiz-adv-x="1052" 
d="M359 773q-35 0 -98 66l-59 63q-16 15 -16 34q0 17 11 28.5t27 11.5q15 0 28 -13l106 -109h2l108 111q11 11 27 11t27 -11.5t11 -28.5q0 -16 -19 -35l-62 -70q-57 -58 -93 -58zM1012 159q0 -118 -68 -188.5t-182 -70.5q-71 0 -127.5 25t-101.5 77t-79.5 115.5t-71.5 157.5
h-189v-235q0 -20 -11.5 -34t-33.5 -14t-33.5 14t-11.5 34v642q0 46 46 46h205q276 0 276 -227q0 -87 -44.5 -143t-114.5 -74q65 -157 130.5 -230t160.5 -73q70 0 113.5 47t43.5 131q0 60 -28 111q-10 26 -10 32q0 19 13.5 31.5t31.5 12.5q23 0 40 -24q46 -73 46 -163z
M193 650v-297h209q62 0 102 41t40 107q0 149 -186 149h-165z" />
    <glyph glyph-name="uni0156.fina" horiz-adv-x="1052" 
d="M1012 159q0 -118 -68 -188.5t-182 -70.5q-71 0 -127.5 25t-101.5 77t-79.5 115.5t-71.5 157.5h-189v-235q0 -20 -11.5 -34t-33.5 -14t-33.5 14t-11.5 34v642q0 46 46 46h205q276 0 276 -227q0 -87 -44.5 -143t-114.5 -74q65 -157 130.5 -230t160.5 -73q70 0 113.5 47
t43.5 131q0 60 -28 111q-10 26 -10 32q0 19 13.5 31.5t31.5 12.5q23 0 40 -24q46 -73 46 -163zM193 650v-297h209q62 0 102 41t40 107q0 149 -186 149h-165zM331 -286q-15 0 -25.5 11t-7.5 28q13 88 14 159q0 17 11.5 28.5t29.5 11.5q20 0 32 -13t10 -30q-3 -94 -29 -172
q-9 -23 -35 -23z" />
    <glyph glyph-name="A.init" horiz-adv-x="1126" 
d="M1089 52q9 -24 -3 -42t-38 -18q-18 0 -26.5 9t-16.5 30l-64 165h-334q-66 -150 -138 -223t-183 -73q-115 0 -180.5 69.5t-65.5 187.5q0 93 46 164q16 23 42 23q20 0 31.5 -12t11.5 -29q0 -7 -10 -33q-28 -53 -28 -113q0 -89 41 -132.5t112 -43.5q30 0 57.5 11t48.5 25.5
t44.5 47.5t38.5 57.5t39 77.5t37 84.5t40 99.5q13 33 20 50l81 200q20 55 35.5 74.5t48.5 19.5q31 0 47 -19.5t36 -70.5zM641 277h268l-132 339h-2l-84 -211z" />
    <glyph glyph-name="Aacute.init" horiz-adv-x="1126" 
d="M748 791q-15 0 -27 11t-12 28t12 31l110 129q19 23 41 23q20 0 34 -13.5t14 -34.5q0 -26 -20 -43l-122 -116q-18 -15 -30 -15zM1089 52q9 -24 -3 -42t-38 -18q-18 0 -26.5 9t-16.5 30l-64 165h-334q-66 -150 -138 -223t-183 -73q-115 0 -180.5 69.5t-65.5 187.5
q0 93 46 164q16 23 42 23q20 0 31.5 -12t11.5 -29q0 -7 -10 -33q-28 -53 -28 -113q0 -89 41 -132.5t112 -43.5q30 0 57.5 11t48.5 25.5t44.5 47.5t38.5 57.5t39 77.5t37 84.5t40 99.5q13 33 20 50l81 200q20 55 35.5 74.5t48.5 19.5q31 0 47 -19.5t36 -70.5zM641 277h268
l-132 339h-2l-84 -211z" />
    <glyph glyph-name="Abreve.init" horiz-adv-x="1126" 
d="M775 785q-72 0 -120 41t-50 108q0 17 11 30t30 13q13 0 24 -8.5t14 -21.5q5 -41 28.5 -63.5t62.5 -22.5t62 22.5t28 63.5q3 13 14 21.5t25 8.5q19 0 30 -12.5t11 -30.5q-2 -68 -50.5 -108.5t-119.5 -40.5zM1089 52q9 -24 -3 -42t-38 -18q-18 0 -26.5 9t-16.5 30l-64 165
h-334q-66 -150 -138 -223t-183 -73q-115 0 -180.5 69.5t-65.5 187.5q0 93 46 164q16 23 42 23q20 0 31.5 -12t11.5 -29q0 -7 -10 -33q-28 -53 -28 -113q0 -89 41 -132.5t112 -43.5q30 0 57.5 11t48.5 25.5t44.5 47.5t38.5 57.5t39 77.5t37 84.5t40 99.5q13 33 20 50l81 200
q20 55 35.5 74.5t48.5 19.5q31 0 47 -19.5t36 -70.5zM641 277h268l-132 339h-2l-84 -211z" />
    <glyph glyph-name="Acircumflex.init" horiz-adv-x="1126" 
d="M644 777q-16 0 -27 11.5t-11 28.5q0 16 19 35l62 69q56 59 93 59q34 0 98 -66l59 -63q16 -15 16 -35q0 -17 -11 -28t-27 -11q-15 0 -28 12l-106 109h-2l-108 -110q-10 -11 -27 -11zM1089 52q9 -24 -3 -42t-38 -18q-18 0 -26.5 9t-16.5 30l-64 165h-334
q-66 -150 -138 -223t-183 -73q-115 0 -180.5 69.5t-65.5 187.5q0 93 46 164q16 23 42 23q20 0 31.5 -12t11.5 -29q0 -7 -10 -33q-28 -53 -28 -113q0 -89 41 -132.5t112 -43.5q30 0 57.5 11t48.5 25.5t44.5 47.5t38.5 57.5t39 77.5t37 84.5t40 99.5q13 33 20 50l81 200
q20 55 35.5 74.5t48.5 19.5q31 0 47 -19.5t36 -70.5zM641 277h268l-132 339h-2l-84 -211z" />
    <glyph glyph-name="Adieresis.init" horiz-adv-x="1126" 
d="M667 806q-30 0 -49 18.5t-19 48.5t19 47.5t49 17.5t48.5 -17.5t18.5 -47.5t-18 -48.5t-49 -18.5zM891 806q-30 0 -49.5 18.5t-19.5 48.5t19.5 47.5t49.5 17.5t48.5 -17.5t18.5 -47.5t-18.5 -48.5t-48.5 -18.5zM1089 52q9 -24 -3 -42t-38 -18q-18 0 -26.5 9t-16.5 30
l-64 165h-334q-66 -150 -138 -223t-183 -73q-115 0 -180.5 69.5t-65.5 187.5q0 93 46 164q16 23 42 23q20 0 31.5 -12t11.5 -29q0 -7 -10 -33q-28 -53 -28 -113q0 -89 41 -132.5t112 -43.5q30 0 57.5 11t48.5 25.5t44.5 47.5t38.5 57.5t39 77.5t37 84.5t40 99.5q13 33 20 50
l81 200q20 55 35.5 74.5t48.5 19.5q31 0 47 -19.5t36 -70.5zM641 277h268l-132 339h-2l-84 -211z" />
    <glyph glyph-name="Agrave.init" horiz-adv-x="1126" 
d="M629 922q-21 17 -21 43q0 21 14 34.5t34 13.5q22 0 41 -23l110 -129q12 -14 12 -31t-12 -28t-27 -11q-12 0 -30 15zM1089 52q9 -24 -3 -42t-38 -18q-18 0 -26.5 9t-16.5 30l-64 165h-334q-66 -150 -138 -223t-183 -73q-115 0 -180.5 69.5t-65.5 187.5q0 93 46 164
q16 23 42 23q20 0 31.5 -12t11.5 -29q0 -7 -10 -33q-28 -53 -28 -113q0 -89 41 -132.5t112 -43.5q30 0 57.5 11t48.5 25.5t44.5 47.5t38.5 57.5t39 77.5t37 84.5t40 99.5q13 33 20 50l81 200q20 55 35.5 74.5t48.5 19.5q31 0 47 -19.5t36 -70.5zM641 277h268l-132 339h-2
l-84 -211z" />
    <glyph glyph-name="Amacron.init" horiz-adv-x="1126" 
d="M639 833q-17 0 -29 12t-12 29q0 16 12 28t29 12h278q17 0 29 -12t12 -29q0 -16 -12 -28t-29 -12h-278zM1089 52q9 -24 -3 -42t-38 -18q-18 0 -26.5 9t-16.5 30l-64 165h-334q-66 -150 -138 -223t-183 -73q-115 0 -180.5 69.5t-65.5 187.5q0 93 46 164q16 23 42 23
q20 0 31.5 -12t11.5 -29q0 -7 -10 -33q-28 -53 -28 -113q0 -89 41 -132.5t112 -43.5q30 0 57.5 11t48.5 25.5t44.5 47.5t38.5 57.5t39 77.5t37 84.5t40 99.5q13 33 20 50l81 200q20 55 35.5 74.5t48.5 19.5q31 0 47 -19.5t36 -70.5zM641 277h268l-132 339h-2l-84 -211z" />
    <glyph glyph-name="Aogonek.init" horiz-adv-x="1126" 
d="M1076 -186q15 0 24.5 -9t9.5 -26q0 -18 -18 -28q-18 -9 -47 -9q-55 0 -92.5 32.5t-37.5 94.5q0 91 93 156l-3 6l-64 165h-334q-66 -150 -138 -223t-183 -73q-115 0 -180.5 69.5t-65.5 187.5q0 93 46 164q16 23 42 23q20 0 31.5 -12t11.5 -29q0 -7 -10 -33
q-28 -53 -28 -113q0 -89 41 -132.5t112 -43.5q30 0 57.5 11t48.5 25.5t44.5 47.5t38.5 57.5t39 77.5t37 84.5t40 99.5q13 33 20 50l81 200q20 55 35.5 74.5t48.5 19.5q31 0 47 -19.5t36 -70.5l230 -586q15 -39 -19 -56q-80 -53 -80 -123q0 -28 17 -44.5t47 -16.5q8 0 22 2z
M641 277h268l-132 339h-2l-84 -211z" />
    <glyph glyph-name="Aring.init" horiz-adv-x="1126" 
d="M776 782q-47 0 -78 29t-31 77t31 77t78 29t78.5 -29t31.5 -77t-31.5 -77t-78.5 -29zM776 934q-20 0 -32.5 -13t-12.5 -33q0 -21 12.5 -33.5t32.5 -12.5t33 12.5t13 33.5q0 20 -13 33t-33 13zM1089 52q9 -24 -3 -42t-38 -18q-18 0 -26.5 9t-16.5 30l-64 165h-334
q-66 -150 -138 -223t-183 -73q-115 0 -180.5 69.5t-65.5 187.5q0 93 46 164q16 23 42 23q20 0 31.5 -12t11.5 -29q0 -7 -10 -33q-28 -53 -28 -113q0 -89 41 -132.5t112 -43.5q30 0 57.5 11t48.5 25.5t44.5 47.5t38.5 57.5t39 77.5t37 84.5t40 99.5q13 33 20 50l81 200
q20 55 35.5 74.5t48.5 19.5q31 0 47 -19.5t36 -70.5zM641 277h268l-132 339h-2l-84 -211z" />
    <glyph glyph-name="Atilde.init" horiz-adv-x="1126" 
d="M610 792q-17 0 -27 11t-10 28q0 51 28.5 86.5t82.5 35.5q39 0 71.5 -20.5t57 -40.5t42.5 -20q43 0 53 67q7 16 29 16q17 0 26.5 -12.5t9.5 -31.5q0 -52 -27.5 -87t-76.5 -35q-34 0 -66 21.5t-59.5 43t-49.5 21.5q-20 0 -32 -9.5t-16 -21.5t-6 -31q-7 -21 -30 -21z
M1089 52q9 -24 -3 -42t-38 -18q-18 0 -26.5 9t-16.5 30l-64 165h-334q-66 -150 -138 -223t-183 -73q-115 0 -180.5 69.5t-65.5 187.5q0 93 46 164q16 23 42 23q20 0 31.5 -12t11.5 -29q0 -7 -10 -33q-28 -53 -28 -113q0 -89 41 -132.5t112 -43.5q30 0 57.5 11t48.5 25.5
t44.5 47.5t38.5 57.5t39 77.5t37 84.5t40 99.5q13 33 20 50l81 200q20 55 35.5 74.5t48.5 19.5q31 0 47 -19.5t36 -70.5zM641 277h268l-132 339h-2l-84 -211z" />
    <glyph glyph-name="H.init" horiz-adv-x="1165" 
d="M39 577q0 109 66.5 174.5t178.5 65.5q132 0 198.5 -89t66.5 -257v-70h423v279q0 21 11.5 34.5t33.5 13.5t33.5 -13.5t11.5 -34.5v-640q0 -20 -11.5 -34t-33.5 -14t-33.5 14t-11.5 34v279h-423v-279q0 -20 -12 -34t-33 -14q-22 0 -33.5 14t-11.5 34v431q0 121 -41.5 192.5
t-133.5 71.5q-67 0 -110 -42t-43 -116q0 -60 28 -111q10 -26 10 -35q0 -17 -13 -29t-32 -12q-27 0 -44 32q-41 75 -41 155z" />
    <glyph glyph-name="J.init" horiz-adv-x="645" 
d="M39 139q0 80 41 155q16 33 43 33q20 0 33 -12t13 -29q0 -10 -10 -36q-28 -51 -28 -111q0 -74 42.5 -116t108.5 -42q91 0 133 71.5t42 192.5v438q0 20 12 32.5t34 12.5q44 0 44 -45v-438q0 -167 -65.5 -256t-197.5 -89q-112 0 -178.5 65t-66.5 174z" />
    <glyph glyph-name="M.init" horiz-adv-x="1304" 
d="M38 129q0 91 46 164q16 23 42 23q20 0 31.5 -12t11.5 -30q0 -5 -10 -33q-28 -53 -28 -112q0 -72 35.5 -110t98.5 -38q109 0 162 169q38 124 66 441q2 25 6 73q2 28 18 46t44 18q27 0 43 -15.5t31 -59.5l186 -542h2l237 542q18 44 35 59.5t45 15.5q30 0 46 -21.5t16 -56.5
v-612q0 -19 -10.5 -32.5t-31.5 -13.5q-20 0 -30.5 13.5t-10.5 32.5v544h-2l-229 -515q-19 -42 -31.5 -58.5t-34.5 -16.5q-23 0 -36.5 16t-27.5 56l-183 518h-2q-5 -84 -10 -145t-15.5 -137t-24 -129t-37 -108t-53 -88t-72.5 -54t-96 -21q-104 0 -165.5 62t-61.5 167z" />
    <glyph glyph-name="N.init" horiz-adv-x="1161" 
d="M39 139q0 80 41 155q16 33 43 33q20 0 33 -12t13 -29q0 -10 -10 -36q-28 -51 -28 -111q0 -74 43 -116t110 -42q91 0 133 71.5t42 192.5v425q0 27 12.5 42.5t34.5 15.5t37 -12t42 -50l383 -530h2l-1 544q0 21 11.5 34.5t33.5 13.5t33.5 -13.5t11.5 -34.5v-630
q0 -27 -13 -42.5t-37 -15.5q-21 0 -39.5 17t-55.5 69l-365 501h-2l2 -334q0 -167 -66.5 -256t-198.5 -89q-112 0 -178.5 65t-66.5 174z" />
    <glyph glyph-name="Nacute.init" horiz-adv-x="1161" 
d="M711 861l110 129q19 23 41 23q19 0 33.5 -13.5t14.5 -34.5q0 -26 -21 -43l-121 -116q-18 -15 -30 -15q-15 0 -27 11t-12 28t12 31zM39 139q0 80 41 155q16 33 43 33q20 0 33 -12t13 -29q0 -10 -10 -36q-28 -51 -28 -111q0 -74 43 -116t110 -42q91 0 133 71.5t42 192.5
v425q0 27 12.5 42.5t34.5 15.5t37 -12t42 -50l383 -530h2l-1 544q0 21 11.5 34.5t33.5 13.5t33.5 -13.5t11.5 -34.5v-630q0 -27 -13 -42.5t-37 -15.5q-21 0 -39.5 17t-55.5 69l-365 501h-2l2 -334q0 -167 -66.5 -256t-198.5 -89q-112 0 -178.5 65t-66.5 174z" />
    <glyph glyph-name="Ncaron.init" horiz-adv-x="1161" 
d="M769 775q-35 0 -98 66l-58 63q-17 15 -17 34q0 17 11.5 28.5t27.5 11.5q15 0 27 -13l107 -109h2l107 111q12 11 27 11q16 0 27 -11.5t11 -28.5t-18 -35l-63 -70q-57 -58 -93 -58zM39 139q0 80 41 155q16 33 43 33q20 0 33 -12t13 -29q0 -10 -10 -36q-28 -51 -28 -111
q0 -74 43 -116t110 -42q91 0 133 71.5t42 192.5v425q0 27 12.5 42.5t34.5 15.5t37 -12t42 -50l383 -530h2l-1 544q0 21 11.5 34.5t33.5 13.5t33.5 -13.5t11.5 -34.5v-630q0 -27 -13 -42.5t-37 -15.5q-21 0 -39.5 17t-55.5 69l-365 501h-2l2 -334q0 -167 -66.5 -256
t-198.5 -89q-112 0 -178.5 65t-66.5 174z" />
    <glyph glyph-name="uni0145.init" horiz-adv-x="1161" 
d="M39 139q0 80 41 155q16 33 43 33q20 0 33 -12t13 -29q0 -10 -10 -36q-28 -51 -28 -111q0 -74 43 -116t110 -42q91 0 133 71.5t42 192.5v425q0 27 12.5 42.5t34.5 15.5t37 -12t42 -50l383 -530h2l-1 544q0 21 11.5 34.5t33.5 13.5t33.5 -13.5t11.5 -34.5v-630
q0 -27 -13 -42.5t-37 -15.5q-21 0 -39.5 17t-55.5 69l-365 501h-2l2 -334q0 -167 -66.5 -256t-198.5 -89q-112 0 -178.5 65t-66.5 174zM708 -286q-15 0 -25.5 11t-8.5 28q12 76 14 159q0 17 12 28.5t30 11.5q19 0 31 -13t11 -30q-3 -95 -30 -172q-9 -23 -34 -23z" />
    <glyph glyph-name="Ntilde.init" horiz-adv-x="1161" 
d="M673 953q39 0 72 -20.5t57.5 -40.5t42.5 -20q43 0 53 67q7 16 29 16q17 0 26.5 -12.5t9.5 -31.5q0 -52 -27.5 -87t-76.5 -35q-34 0 -66 21.5t-59.5 43t-49.5 21.5q-29 0 -39.5 -16t-15.5 -46q-5 -21 -29 -21q-17 0 -27 11t-10 28q0 51 28 86.5t82 35.5zM39 139
q0 80 41 155q16 33 43 33q20 0 33 -12t13 -29q0 -10 -10 -36q-28 -51 -28 -111q0 -74 43 -116t110 -42q91 0 133 71.5t42 192.5v425q0 27 12.5 42.5t34.5 15.5t37 -12t42 -50l383 -530h2l-1 544q0 21 11.5 34.5t33.5 13.5t33.5 -13.5t11.5 -34.5v-630q0 -27 -13 -42.5
t-37 -15.5q-21 0 -39.5 17t-55.5 69l-365 501h-2l2 -334q0 -167 -66.5 -256t-198.5 -89q-112 0 -178.5 65t-66.5 174z" />
    <glyph glyph-name="T.init" horiz-adv-x="901" 
d="M280 315q55 0 97 25q22 8 30 8q17 0 27.5 -12t10.5 -30q0 -22 -24 -37q-58 -35 -141 -35q-112 0 -175.5 65t-63.5 168q0 124 83.5 192.5t245.5 68.5h470q17 0 29 -12t12 -29t-11.5 -28.5t-28.5 -11.5h-185l-1 -607q0 -20 -11.5 -34t-33.5 -14t-33.5 14t-11.5 34l-1 607
h-185q-245 0 -245 -180q0 -63 37 -107.5t109 -44.5z" />
    <glyph glyph-name="Tcaron.init" horiz-adv-x="887" 
d="M609 775q-36 0 -99 66l-58 63q-16 15 -16 34q0 17 11 28.5t27 11.5q15 0 28 -13l106 -109h2l107 111q12 11 27 11q16 0 27 -11.5t11 -28.5t-18 -35l-63 -70q-55 -58 -92 -58zM280 315q55 0 97 25q22 8 30 8q17 0 27.5 -12t10.5 -30q0 -22 -24 -37q-58 -35 -141 -35
q-112 0 -175.5 65t-63.5 168q0 124 83.5 192.5t245.5 68.5h470q17 0 29 -12t12 -29t-11.5 -28.5t-28.5 -11.5h-185l-1 -607q0 -20 -11.5 -34t-33.5 -14t-33.5 14t-11.5 34l-1 607h-185q-245 0 -245 -180q0 -63 37 -107.5t109 -44.5z" />
    <glyph glyph-name="uni0162.init" horiz-adv-x="887" 
d="M840 728q17 0 29 -12t12 -29t-11.5 -28.5t-28.5 -11.5h-185l-1 -607q0 -24 -14 -37l-8 -28q4 0 11 -1.5t25 -8t32 -17t25 -31t11 -47.5q0 -50 -35.5 -80.5t-99.5 -30.5q-53 0 -91 25q-22 12 -22 34q0 16 9.5 25t22.5 9q6 0 29 -11.5t46 -11.5q62 0 62 52q0 47 -72 49
q-17 0 -23 7t-2 27l12 42l1 1v2q-9 13 -9 31l-1 607h-185q-245 0 -245 -180q0 -63 37 -107.5t109 -44.5q55 0 97 25q22 8 30 8q17 0 27.5 -12t10.5 -30q0 -22 -24 -37q-58 -35 -141 -35q-112 0 -175.5 65t-63.5 168q0 124 83.5 192.5t245.5 68.5h470z" />
    <glyph glyph-name="uni021A.init" horiz-adv-x="887" 
d="M280 315q55 0 97 25q22 8 30 8q17 0 27.5 -12t10.5 -30q0 -22 -24 -37q-58 -35 -141 -35q-112 0 -175.5 65t-63.5 168q0 124 83.5 192.5t245.5 68.5h470q17 0 29 -12t12 -29t-11.5 -28.5t-28.5 -11.5h-185l-1 -607q0 -20 -11.5 -34t-33.5 -14t-33.5 14t-11.5 34l-1 607
h-185q-245 0 -245 -180q0 -63 37 -107.5t109 -44.5zM586 -272q-15 0 -25.5 11t-8.5 28q12 78 14 160q0 16 12 27.5t30 11.5q20 0 31.5 -12.5t10.5 -30.5q-3 -93 -30 -172q-9 -23 -34 -23z" />
    <glyph glyph-name="U.init" horiz-adv-x="1146" 
d="M37 608q0 109 66.5 174.5t178.5 65.5q258 0 258 -341v-211q0 -103 51.5 -167t159.5 -64q107 0 159 64t52 167v384q0 21 11.5 34.5t33.5 13.5t33.5 -13.5t11.5 -34.5v-384q0 -143 -76.5 -227.5t-224.5 -84.5t-224.5 84t-76.5 228v211q0 259 -170 259q-66 0 -108.5 -42
t-42.5 -116q0 -60 28 -111q10 -26 10 -35q0 -17 -13 -29t-32 -12q-27 0 -44 32q-41 75 -41 155z" />
    <glyph glyph-name="Uacute.init" horiz-adv-x="1146" 
d="M694 861l111 129q19 23 41 23q19 0 33.5 -13.5t14.5 -34.5q0 -26 -21 -43l-121 -116q-18 -15 -30 -15q-15 0 -27 11t-12 28q0 16 11 31zM37 608q0 109 66.5 174.5t178.5 65.5q258 0 258 -341v-211q0 -103 51.5 -167t159.5 -64q107 0 159 64t52 167v384q0 21 11.5 34.5
t33.5 13.5t33.5 -13.5t11.5 -34.5v-384q0 -143 -76.5 -227.5t-224.5 -84.5t-224.5 84t-76.5 228v211q0 259 -170 259q-66 0 -108.5 -42t-42.5 -116q0 -60 28 -111q10 -26 10 -35q0 -17 -13 -29t-32 -12q-27 0 -44 32q-41 75 -41 155z" />
    <glyph glyph-name="Ucircumflex.init" horiz-adv-x="1146" 
d="M618 777q-16 0 -27 11.5t-11 28.5t18 35l63 69q56 59 93 59q34 0 98 -66l58 -63q17 -15 17 -35q0 -16 -11.5 -27.5t-27.5 -11.5q-15 0 -27 12l-106 109h-2l-108 -110q-11 -11 -27 -11zM37 608q0 109 66.5 174.5t178.5 65.5q258 0 258 -341v-211q0 -103 51.5 -167
t159.5 -64q107 0 159 64t52 167v384q0 21 11.5 34.5t33.5 13.5t33.5 -13.5t11.5 -34.5v-384q0 -143 -76.5 -227.5t-224.5 -84.5t-224.5 84t-76.5 228v211q0 259 -170 259q-66 0 -108.5 -42t-42.5 -116q0 -60 28 -111q10 -26 10 -35q0 -17 -13 -29t-32 -12q-27 0 -44 32
q-41 75 -41 155z" />
    <glyph glyph-name="Udieresis.init" horiz-adv-x="1146" 
d="M641 806q-30 0 -49.5 18.5t-19.5 48.5t19.5 47.5t49.5 17.5t48 -17.5t18 -47.5t-18 -48.5t-48 -18.5zM865 806q-30 0 -49.5 18.5t-19.5 48.5t19.5 47.5t49.5 17.5t48 -17.5t18 -47.5t-18 -48.5t-48 -18.5zM37 608q0 109 66.5 174.5t178.5 65.5q258 0 258 -341v-211
q0 -103 51.5 -167t159.5 -64q107 0 159 64t52 167v384q0 21 11.5 34.5t33.5 13.5t33.5 -13.5t11.5 -34.5v-384q0 -143 -76.5 -227.5t-224.5 -84.5t-224.5 84t-76.5 228v211q0 259 -170 259q-66 0 -108.5 -42t-42.5 -116q0 -60 28 -111q10 -26 10 -35q0 -17 -13 -29t-32 -12
q-27 0 -44 32q-41 75 -41 155z" />
    <glyph glyph-name="Ugrave.init" horiz-adv-x="1146" 
d="M670 990l111 -129q11 -13 11 -31q0 -17 -12 -28t-27 -11q-11 0 -29 15l-122 116q-21 17 -21 43q0 21 14.5 34.5t34.5 13.5q21 0 40 -23zM37 608q0 109 66.5 174.5t178.5 65.5q258 0 258 -341v-211q0 -103 51.5 -167t159.5 -64q107 0 159 64t52 167v384q0 21 11.5 34.5
t33.5 13.5t33.5 -13.5t11.5 -34.5v-384q0 -143 -76.5 -227.5t-224.5 -84.5t-224.5 84t-76.5 228v211q0 259 -170 259q-66 0 -108.5 -42t-42.5 -116q0 -60 28 -111q10 -26 10 -35q0 -17 -13 -29t-32 -12q-27 0 -44 32q-41 75 -41 155z" />
    <glyph glyph-name="Uhungarumlaut.init" horiz-adv-x="1146" 
d="M661 773q-17 0 -30 12.5t-13 30.5t9 34l62 116q18 31 45 31q21 0 36.5 -15t15.5 -36q0 -19 -11 -33l-71 -112q-21 -28 -43 -28zM862 773q-17 0 -30 12.5t-13 30.5t9 34l62 116q16 31 45 31q21 0 36.5 -15t15.5 -36q0 -19 -11 -33l-71 -112q-21 -28 -43 -28zM37 608
q0 109 66.5 174.5t178.5 65.5q258 0 258 -341v-211q0 -103 51.5 -167t159.5 -64q107 0 159 64t52 167v384q0 21 11.5 34.5t33.5 13.5t33.5 -13.5t11.5 -34.5v-384q0 -143 -76.5 -227.5t-224.5 -84.5t-224.5 84t-76.5 228v211q0 259 -170 259q-66 0 -108.5 -42t-42.5 -116
q0 -60 28 -111q10 -26 10 -35q0 -17 -13 -29t-32 -12q-27 0 -44 32q-41 75 -41 155z" />
    <glyph glyph-name="Umacron.init" horiz-adv-x="1146" 
d="M891 833h-278q-17 0 -29 12t-12 29q0 16 12 28t29 12h278q17 0 28.5 -12t11.5 -29t-11.5 -28.5t-28.5 -11.5zM37 608q0 109 66.5 174.5t178.5 65.5q258 0 258 -341v-211q0 -103 51.5 -167t159.5 -64q107 0 159 64t52 167v384q0 21 11.5 34.5t33.5 13.5t33.5 -13.5
t11.5 -34.5v-384q0 -143 -76.5 -227.5t-224.5 -84.5t-224.5 84t-76.5 228v211q0 259 -170 259q-66 0 -108.5 -42t-42.5 -116q0 -60 28 -111q10 -26 10 -35q0 -17 -13 -29t-32 -12q-27 0 -44 32q-41 75 -41 155z" />
    <glyph glyph-name="Uogonek.init" horiz-adv-x="1146" 
d="M1007 728q22 0 33.5 -13.5t11.5 -34.5v-384q0 -127 -61 -209t-180 -99q-87 -58 -87 -129q0 -28 17 -44.5t47 -16.5q8 0 22 2q15 0 24.5 -9t9.5 -25q0 -19 -18 -29q-18 -9 -47 -9q-55 0 -92.5 32.5t-37.5 94.5q0 74 61 131q-128 12 -194 94.5t-66 215.5v211
q0 259 -170 259q-66 0 -108.5 -42t-42.5 -116q0 -60 28 -111q10 -26 10 -35q0 -17 -13 -29t-32 -12q-27 0 -44 32q-41 75 -41 155q0 109 66.5 174.5t178.5 65.5q258 0 258 -341v-211q0 -103 51.5 -167t159.5 -64q107 0 159 64t52 167v384q0 21 11.5 34.5t33.5 13.5z" />
    <glyph glyph-name="Uring.init" horiz-adv-x="1146" 
d="M746 782q-47 0 -78.5 29t-31.5 77t31.5 77t78.5 29t78.5 -29t31.5 -77t-31.5 -77t-78.5 -29zM746 842q19 0 32 12.5t13 33.5q0 20 -12.5 33t-32.5 13t-33 -13t-13 -33q0 -21 13 -33.5t33 -12.5zM37 608q0 109 66.5 174.5t178.5 65.5q258 0 258 -341v-211
q0 -103 51.5 -167t159.5 -64q107 0 159 64t52 167v384q0 21 11.5 34.5t33.5 13.5t33.5 -13.5t11.5 -34.5v-384q0 -143 -76.5 -227.5t-224.5 -84.5t-224.5 84t-76.5 228v211q0 259 -170 259q-66 0 -108.5 -42t-42.5 -116q0 -60 28 -111q10 -26 10 -35q0 -17 -13 -29t-32 -12
q-27 0 -44 32q-41 75 -41 155z" />
    <glyph glyph-name="Utilde.init" horiz-adv-x="1146" 
d="M657 953q39 0 72 -20.5t57.5 -40.5t42.5 -20q43 0 53 67q7 16 29 16q17 0 26.5 -12.5t9.5 -31.5q0 -52 -27.5 -87t-76.5 -35q-34 0 -66.5 21.5t-59.5 43t-49 21.5q-20 0 -32.5 -9.5t-16.5 -21.5t-6 -31q-5 -21 -29 -21q-37 0 -37 39q0 51 28 86.5t82 35.5zM37 608
q0 109 66.5 174.5t178.5 65.5q258 0 258 -341v-211q0 -103 51.5 -167t159.5 -64q107 0 159 64t52 167v384q0 21 11.5 34.5t33.5 13.5t33.5 -13.5t11.5 -34.5v-384q0 -143 -76.5 -227.5t-224.5 -84.5t-224.5 84t-76.5 228v211q0 259 -170 259q-66 0 -108.5 -42t-42.5 -116
q0 -60 28 -111q10 -26 10 -35q0 -17 -13 -29t-32 -12q-27 0 -44 32q-41 75 -41 155z" />
    <glyph glyph-name="V.init" horiz-adv-x="1127" 
d="M38 586q0 104 64 171t176 67q49 0 89 -13.5t73 -43.5t58.5 -64.5t52.5 -91t47.5 -107.5t50.5 -129q19 -50 29 -76l85 -216h2l239 607q8 20 17 29t27 9q26 0 38.5 -18t2.5 -41l-237 -578q-23 -57 -39.5 -78t-47.5 -21q-29 0 -45 17.5t-37 65.5l-81 199q-104 263 -142 334
q-53 98 -114 123q-30 12 -69 12q-70 0 -109.5 -44t-39.5 -113q0 -68 37 -128q6 -12 6 -24q0 -18 -12.5 -30.5t-31.5 -12.5q-23 0 -39 23q-50 77 -50 172z" />
    <glyph glyph-name="W.init" horiz-adv-x="1470" 
d="M38 586q0 104 64 171t176 67q44 0 80.5 -11.5t65.5 -30t55 -55t46 -73t42.5 -99t40 -118t42.5 -143.5l59 -202h2l163 561q10 44 25.5 59.5t43.5 15.5t43.5 -16t25.5 -58l162 -562h2l168 598q8 35 44 35q25 0 38 -18t6 -42l-179 -585q-15 -51 -32.5 -69.5t-45.5 -18.5
q-31 0 -48.5 19.5t-30.5 69.5l-152 513h-2l-153 -513q-12 -49 -30 -68.5t-48 -19.5q-29 0 -46.5 18t-32.5 68l-61 200q-65 226 -97 298q-57 129 -139 157q-27 9 -58 9q-70 0 -109.5 -44t-39.5 -113q0 -68 37 -128q6 -12 6 -24q0 -18 -13 -30.5t-31 -12.5q-22 0 -35 19
q-54 82 -54 176z" />
    <glyph glyph-name="Wacute.init" horiz-adv-x="1470" 
d="M888 861l111 129q19 23 40 23q20 0 34.5 -13.5t14.5 -34.5q0 -25 -21 -43l-122 -116q-18 -15 -29 -15q-16 0 -27.5 11t-11.5 28q0 18 11 31zM38 586q0 104 64 171t176 67q44 0 80.5 -11.5t65.5 -30t55 -55t46 -73t42.5 -99t40 -118t42.5 -143.5l59 -202h2l163 561
q10 44 25.5 59.5t43.5 15.5t43.5 -16t25.5 -58l162 -562h2l168 598q8 35 44 35q25 0 38 -18t6 -42l-179 -585q-15 -51 -32.5 -69.5t-45.5 -18.5q-31 0 -48.5 19.5t-30.5 69.5l-152 513h-2l-153 -513q-12 -49 -30 -68.5t-48 -19.5q-29 0 -46.5 18t-32.5 68l-61 200
q-65 226 -97 298q-57 129 -139 157q-27 9 -58 9q-70 0 -109.5 -44t-39.5 -113q0 -68 37 -128q6 -12 6 -24q0 -18 -13 -30.5t-31 -12.5q-22 0 -35 19q-54 82 -54 176z" />
    <glyph glyph-name="Wcircumflex.init" horiz-adv-x="1470" 
d="M812 777q-16 0 -27 11.5t-11 28.5t18 35l63 69q55 59 93 59q34 0 98 -66l58 -63q16 -15 16 -35q0 -17 -11 -28t-27 -11q-15 0 -27 12l-107 109h-2l-107 -110q-11 -11 -27 -11zM38 586q0 104 64 171t176 67q44 0 80.5 -11.5t65.5 -30t55 -55t46 -73t42.5 -99t40 -118
t42.5 -143.5l59 -202h2l163 561q10 44 25.5 59.5t43.5 15.5t43.5 -16t25.5 -58l162 -562h2l168 598q8 35 44 35q25 0 38 -18t6 -42l-179 -585q-15 -51 -32.5 -69.5t-45.5 -18.5q-31 0 -48.5 19.5t-30.5 69.5l-152 513h-2l-153 -513q-12 -49 -30 -68.5t-48 -19.5
q-29 0 -46.5 18t-32.5 68l-61 200q-65 226 -97 298q-57 129 -139 157q-27 9 -58 9q-70 0 -109.5 -44t-39.5 -113q0 -68 37 -128q6 -12 6 -24q0 -18 -13 -30.5t-31 -12.5q-22 0 -35 19q-54 82 -54 176z" />
    <glyph glyph-name="Wdieresis.init" horiz-adv-x="1470" 
d="M834 806q-30 0 -49 18.5t-19 48.5t19 47.5t49 17.5t48.5 -17.5t18.5 -47.5t-18 -48.5t-49 -18.5zM1058 806q-30 0 -49 18.5t-19 48.5t19 47.5t49 17.5t48.5 -17.5t18.5 -47.5t-18 -48.5t-49 -18.5zM38 586q0 104 64 171t176 67q44 0 80.5 -11.5t65.5 -30t55 -55t46 -73
t42.5 -99t40 -118t42.5 -143.5l59 -202h2l163 561q10 44 25.5 59.5t43.5 15.5t43.5 -16t25.5 -58l162 -562h2l168 598q8 35 44 35q25 0 38 -18t6 -42l-179 -585q-15 -51 -32.5 -69.5t-45.5 -18.5q-31 0 -48.5 19.5t-30.5 69.5l-152 513h-2l-153 -513q-12 -49 -30 -68.5
t-48 -19.5q-29 0 -46.5 18t-32.5 68l-61 200q-65 226 -97 298q-57 129 -139 157q-27 9 -58 9q-70 0 -109.5 -44t-39.5 -113q0 -68 37 -128q6 -12 6 -24q0 -18 -13 -30.5t-31 -12.5q-22 0 -35 19q-54 82 -54 176z" />
    <glyph glyph-name="Wgrave.init" horiz-adv-x="1470" 
d="M864 990l110 -129q12 -14 12 -31t-12 -28t-27 -11q-12 0 -30 15l-121 116q-21 17 -21 43q0 21 14.5 34.5t33.5 13.5q22 0 41 -23zM38 586q0 104 64 171t176 67q44 0 80.5 -11.5t65.5 -30t55 -55t46 -73t42.5 -99t40 -118t42.5 -143.5l59 -202h2l163 561q10 44 25.5 59.5
t43.5 15.5t43.5 -16t25.5 -58l162 -562h2l168 598q8 35 44 35q25 0 38 -18t6 -42l-179 -585q-15 -51 -32.5 -69.5t-45.5 -18.5q-31 0 -48.5 19.5t-30.5 69.5l-152 513h-2l-153 -513q-12 -49 -30 -68.5t-48 -19.5q-29 0 -46.5 18t-32.5 68l-61 200q-65 226 -97 298
q-57 129 -139 157q-27 9 -58 9q-70 0 -109.5 -44t-39.5 -113q0 -68 37 -128q6 -12 6 -24q0 -18 -13 -30.5t-31 -12.5q-22 0 -35 19q-54 82 -54 176z" />
    <glyph glyph-name="i.loclTRK" horiz-adv-x="264" 
d="M132 597q-32 0 -53 20t-21 52q0 33 20.5 52t53.5 19t52.5 -19t19.5 -52q0 -32 -19.5 -52t-52.5 -20zM132 -8q-22 0 -33.5 14t-11.5 34v416q0 20 11.5 34t33.5 14t33.5 -14t11.5 -34v-416q0 -20 -11.5 -34t-33.5 -14z" />
    <glyph glyph-name="a.fina" horiz-adv-x="905" 
d="M888 -15q0 -105 -59 -168t-169 -63q-122 0 -185.5 86t-63.5 226v22h-2q-69 -104 -192 -104q-85 0 -132.5 39.5t-47.5 112.5q0 76 57 119.5t141 43.5q90 0 167 -44q0 89 -36.5 131.5t-116.5 42.5q-49 0 -102 -17q-20 -6 -27 -6q-36 0 -36 38q0 29 36 44q59 24 142 24
q55 0 96 -15t66 -39.5t40 -62t20 -77.5t5 -91v-130q0 -121 40.5 -191.5t127.5 -70.5q66 0 103.5 39t37.5 111q0 62 -30 117q-9 22 -9 32q0 18 13.5 29.5t31.5 11.5q22 0 36 -20q48 -74 48 -170zM235 57q65 0 113 42t54 93q-69 42 -143 42q-58 0 -93.5 -24.5t-35.5 -68.5
q0 -84 105 -84z" />
    <glyph glyph-name="aacute.fina" horiz-adv-x="905" 
d="M222 653l111 129q19 23 40 23q20 0 34.5 -13.5t14.5 -34.5q0 -26 -21 -43l-121 -116q-19 -15 -30 -15q-15 0 -27 11t-12 28q0 18 11 31zM888 -15q0 -105 -59 -168t-169 -63q-122 0 -185.5 86t-63.5 226v22h-2q-69 -104 -192 -104q-85 0 -132.5 39.5t-47.5 112.5
q0 76 57 119.5t141 43.5q90 0 167 -44q0 89 -36.5 131.5t-116.5 42.5q-49 0 -102 -17q-20 -6 -27 -6q-36 0 -36 38q0 29 36 44q59 24 142 24q55 0 96 -15t66 -39.5t40 -62t20 -77.5t5 -91v-130q0 -121 40.5 -191.5t127.5 -70.5q66 0 103.5 39t37.5 111q0 62 -30 117
q-9 22 -9 32q0 18 13.5 29.5t31.5 11.5q22 0 36 -20q48 -74 48 -170zM235 57q65 0 113 42t54 93q-69 42 -143 42q-58 0 -93.5 -24.5t-35.5 -68.5q0 -84 105 -84z" />
    <glyph glyph-name="abreve.fina" horiz-adv-x="905" 
d="M276 653q39 0 62 22.5t28 63.5q9 30 40 30q19 0 29.5 -12.5t10.5 -30.5q-2 -68 -50.5 -109t-119.5 -41q-72 0 -120 41.5t-49 108.5q0 17 11 30t29 13q30 0 39 -30q5 -41 28.5 -63.5t61.5 -22.5zM888 -15q0 -105 -59 -168t-169 -63q-122 0 -185.5 86t-63.5 226v22h-2
q-69 -104 -192 -104q-85 0 -132.5 39.5t-47.5 112.5q0 76 57 119.5t141 43.5q90 0 167 -44q0 89 -36.5 131.5t-116.5 42.5q-49 0 -102 -17q-20 -6 -27 -6q-36 0 -36 38q0 29 36 44q59 24 142 24q55 0 96 -15t66 -39.5t40 -62t20 -77.5t5 -91v-130q0 -121 40.5 -191.5
t127.5 -70.5q66 0 103.5 39t37.5 111q0 62 -30 117q-9 22 -9 32q0 18 13.5 29.5t31.5 11.5q22 0 36 -20q48 -74 48 -170zM235 57q65 0 113 42t54 93q-69 42 -143 42q-58 0 -93.5 -24.5t-35.5 -68.5q0 -84 105 -84z" />
    <glyph glyph-name="acircumflex.fina" horiz-adv-x="905" 
d="M146 569q-16 0 -27 11.5t-11 28.5t18 34l63 70q56 59 93 59q34 0 98 -66l58 -63q17 -15 17 -35q0 -16 -11.5 -27.5t-27.5 -11.5q-15 0 -27 12l-107 109h-2l-107 -110q-11 -11 -27 -11zM888 -15q0 -105 -59 -168t-169 -63q-122 0 -185.5 86t-63.5 226v22h-2
q-69 -104 -192 -104q-85 0 -132.5 39.5t-47.5 112.5q0 76 57 119.5t141 43.5q90 0 167 -44q0 89 -36.5 131.5t-116.5 42.5q-49 0 -102 -17q-20 -6 -27 -6q-36 0 -36 38q0 29 36 44q59 24 142 24q55 0 96 -15t66 -39.5t40 -62t20 -77.5t5 -91v-130q0 -121 40.5 -191.5
t127.5 -70.5q66 0 103.5 39t37.5 111q0 62 -30 117q-9 22 -9 32q0 18 13.5 29.5t31.5 11.5q22 0 36 -20q48 -74 48 -170zM235 57q65 0 113 42t54 93q-69 42 -143 42q-58 0 -93.5 -24.5t-35.5 -68.5q0 -84 105 -84z" />
    <glyph glyph-name="adieresis.fina" horiz-adv-x="905" 
d="M169 598q-30 0 -49.5 18.5t-19.5 48.5t19.5 47.5t49.5 17.5t48 -17.5t18 -47.5t-18 -48.5t-48 -18.5zM392 598q-30 0 -49 18.5t-19 48.5t19 47.5t49 17.5t48.5 -17.5t18.5 -47.5t-18 -48.5t-49 -18.5zM888 -15q0 -105 -59 -168t-169 -63q-122 0 -185.5 86t-63.5 226v22
h-2q-69 -104 -192 -104q-85 0 -132.5 39.5t-47.5 112.5q0 76 57 119.5t141 43.5q90 0 167 -44q0 89 -36.5 131.5t-116.5 42.5q-49 0 -102 -17q-20 -6 -27 -6q-36 0 -36 38q0 29 36 44q59 24 142 24q55 0 96 -15t66 -39.5t40 -62t20 -77.5t5 -91v-130q0 -121 40.5 -191.5
t127.5 -70.5q66 0 103.5 39t37.5 111q0 62 -30 117q-9 22 -9 32q0 18 13.5 29.5t31.5 11.5q22 0 36 -20q48 -74 48 -170zM235 57q65 0 113 42t54 93q-69 42 -143 42q-58 0 -93.5 -24.5t-35.5 -68.5q0 -84 105 -84z" />
    <glyph glyph-name="agrave.fina" horiz-adv-x="905" 
d="M198 782l111 -129q11 -15 11 -31q0 -17 -12 -28t-27 -11q-12 0 -30 15l-121 116q-21 17 -21 43q0 21 14.5 34.5t33.5 13.5q22 0 41 -23zM888 -15q0 -105 -59 -168t-169 -63q-122 0 -185.5 86t-63.5 226v22h-2q-69 -104 -192 -104q-85 0 -132.5 39.5t-47.5 112.5
q0 76 57 119.5t141 43.5q90 0 167 -44q0 89 -36.5 131.5t-116.5 42.5q-49 0 -102 -17q-20 -6 -27 -6q-36 0 -36 38q0 29 36 44q59 24 142 24q55 0 96 -15t66 -39.5t40 -62t20 -77.5t5 -91v-130q0 -121 40.5 -191.5t127.5 -70.5q66 0 103.5 39t37.5 111q0 62 -30 117
q-9 22 -9 32q0 18 13.5 29.5t31.5 11.5q22 0 36 -20q48 -74 48 -170zM235 57q65 0 113 42t54 93q-69 42 -143 42q-58 0 -93.5 -24.5t-35.5 -68.5q0 -84 105 -84z" />
    <glyph glyph-name="amacron.fina" horiz-adv-x="905" 
d="M419 625h-279q-17 0 -28.5 12t-11.5 29q0 16 12 28t28 12h279q16 0 28 -12t12 -29q0 -16 -12 -28t-28 -12zM888 -15q0 -105 -59 -168t-169 -63q-122 0 -185.5 86t-63.5 226v22h-2q-69 -104 -192 -104q-85 0 -132.5 39.5t-47.5 112.5q0 76 57 119.5t141 43.5q90 0 167 -44
q0 89 -36.5 131.5t-116.5 42.5q-49 0 -102 -17q-20 -6 -27 -6q-36 0 -36 38q0 29 36 44q59 24 142 24q55 0 96 -15t66 -39.5t40 -62t20 -77.5t5 -91v-130q0 -121 40.5 -191.5t127.5 -70.5q66 0 103.5 39t37.5 111q0 62 -30 117q-9 22 -9 32q0 18 13.5 29.5t31.5 11.5
q22 0 36 -20q48 -74 48 -170zM235 57q65 0 113 42t54 93q-69 42 -143 42q-58 0 -93.5 -24.5t-35.5 -68.5q0 -84 105 -84z" />
    <glyph glyph-name="aogonek.fina" horiz-adv-x="905" 
d="M753 -231q-86 -59 -86 -128q0 -29 17 -45t47 -16q4 0 11.5 0.5t10.5 0.5q15 1 24.5 -8.5t9.5 -25.5q0 -19 -18 -29q-16 -8 -47 -8q-55 0 -93 32.5t-38 93.5q0 65 49 119q-112 7 -170.5 92t-58.5 219v22h-2q-69 -104 -192 -104q-85 0 -132.5 39.5t-47.5 112.5
q0 76 57 119.5t141 43.5q90 0 167 -44q0 89 -36.5 131.5t-116.5 42.5q-49 0 -102 -17q-20 -6 -27 -6q-36 0 -36 38q0 29 36 44q59 24 142 24q55 0 96 -15t66 -39.5t40 -62t20 -77.5t5 -91v-130q0 -121 40.5 -191.5t127.5 -70.5q66 0 103.5 39t37.5 111q0 62 -30 117
q-9 22 -9 32q0 18 13.5 29.5t31.5 11.5q22 0 36 -20q48 -74 48 -170q0 -80 -34.5 -136.5t-100.5 -79.5zM235 57q65 0 113 42t54 93q-69 42 -143 42q-58 0 -93.5 -24.5t-35.5 -68.5q0 -84 105 -84z" />
    <glyph glyph-name="aring.fina" horiz-adv-x="905" 
d="M277 574q-46 0 -77.5 29t-31.5 77t31.5 77t77.5 29q47 0 79 -29t32 -77t-32 -77t-79 -29zM277 633q20 0 33 13t13 34q0 20 -13 33t-33 13q-19 0 -32 -13t-13 -33q0 -21 13 -34t32 -13zM888 -15q0 -105 -59 -168t-169 -63q-122 0 -185.5 86t-63.5 226v22h-2
q-69 -104 -192 -104q-85 0 -132.5 39.5t-47.5 112.5q0 76 57 119.5t141 43.5q90 0 167 -44q0 89 -36.5 131.5t-116.5 42.5q-49 0 -102 -17q-20 -6 -27 -6q-36 0 -36 38q0 29 36 44q59 24 142 24q55 0 96 -15t66 -39.5t40 -62t20 -77.5t5 -91v-130q0 -121 40.5 -191.5
t127.5 -70.5q66 0 103.5 39t37.5 111q0 62 -30 117q-9 22 -9 32q0 18 13.5 29.5t31.5 11.5q22 0 36 -20q48 -74 48 -170zM235 57q65 0 113 42t54 93q-69 42 -143 42q-58 0 -93.5 -24.5t-35.5 -68.5q0 -84 105 -84z" />
    <glyph glyph-name="atilde.fina" horiz-adv-x="905" 
d="M185 745q39 0 72 -20.5t57 -40.5t42 -20q44 0 54 66q8 17 28 17q17 0 27 -12.5t10 -31.5q0 -52 -28 -87t-76 -35q-34 0 -66.5 21.5t-59.5 43t-49 21.5q-20 0 -32.5 -10t-16.5 -22t-6 -31q-5 -20 -29 -20q-37 0 -37 39q0 51 28 86.5t82 35.5zM888 -15q0 -105 -59 -168
t-169 -63q-122 0 -185.5 86t-63.5 226v22h-2q-69 -104 -192 -104q-85 0 -132.5 39.5t-47.5 112.5q0 76 57 119.5t141 43.5q90 0 167 -44q0 89 -36.5 131.5t-116.5 42.5q-49 0 -102 -17q-20 -6 -27 -6q-36 0 -36 38q0 29 36 44q59 24 142 24q55 0 96 -15t66 -39.5t40 -62
t20 -77.5t5 -91v-130q0 -121 40.5 -191.5t127.5 -70.5q66 0 103.5 39t37.5 111q0 62 -30 117q-9 22 -9 32q0 18 13.5 29.5t31.5 11.5q22 0 36 -20q48 -74 48 -170zM235 57q65 0 113 42t54 93q-69 42 -143 42q-58 0 -93.5 -24.5t-35.5 -68.5q0 -84 105 -84z" />
    <glyph glyph-name="d.fina" horiz-adv-x="970" 
d="M951 -15q0 -105 -58.5 -168t-168.5 -63q-123 0 -186.5 85.5t-63.5 226.5v24h-2q-25 -51 -73 -78.5t-108 -27.5q-106 0 -172.5 74t-66.5 189q0 119 65 192t173 73q60 0 103.5 -24.5t66.5 -60.5h2v283q0 21 12 34.5t34 13.5q21 0 32.5 -13.5t11.5 -34.5v-613
q0 -121 41 -191.5t128 -70.5q66 0 103.5 39.5t37.5 110.5q0 59 -30 117q-10 24 -10 32q0 18 13.5 29.5t32.5 11.5q21 0 35 -20q48 -71 48 -170zM306 67q74 0 118 50.5t44 133.5q0 82 -44.5 130.5t-119.5 48.5q-70 0 -114.5 -50t-44.5 -132q0 -81 44 -131t117 -50z" />
    <glyph glyph-name="dcaron.fina" horiz-adv-x="970" 
d="M951 -15q0 -105 -58.5 -168t-168.5 -63q-123 0 -186.5 85.5t-63.5 226.5v24h-2q-25 -51 -73 -78.5t-108 -27.5q-106 0 -172.5 74t-66.5 189q0 119 65 192t173 73q60 0 103.5 -24.5t66.5 -60.5h2v283q0 21 12 34.5t34 13.5q21 0 32.5 -13.5t11.5 -34.5v-613
q0 -121 41 -191.5t128 -70.5q66 0 103.5 39.5t37.5 110.5q0 59 -30 117q-10 24 -10 32q0 18 13.5 29.5t32.5 11.5q21 0 35 -20q48 -71 48 -170zM657 520q-16 0 -26 11t-8 28q12 78 14 160q0 17 12 28t30 11q20 0 31.5 -12.5t10.5 -29.5q-3 -94 -30 -173q-9 -23 -34 -23z
M306 67q74 0 118 50.5t44 133.5q0 82 -44.5 130.5t-119.5 48.5q-70 0 -114.5 -50t-44.5 -132q0 -81 44 -131t117 -50z" />
    <glyph glyph-name="dcroat.fina" horiz-adv-x="970" 
d="M903 155q48 -71 48 -170q0 -105 -58.5 -168t-168.5 -63q-123 0 -186.5 85.5t-63.5 226.5v24h-2q-25 -51 -73 -78.5t-108 -27.5q-106 0 -172.5 74t-66.5 189q0 119 65 192t173 73q60 0 103.5 -24.5t66.5 -60.5h2v167h-124q-17 0 -29.5 12.5t-12.5 29.5q0 18 12.5 30
t29.5 12h124v32q0 21 12 34.5t34 13.5q21 0 32.5 -13.5t11.5 -34.5v-32h19q17 0 29.5 -12t12.5 -30q0 -17 -12.5 -29.5t-29.5 -12.5h-19v-497q0 -121 41 -191.5t128 -70.5q66 0 103.5 39.5t37.5 110.5q0 59 -30 117q-10 24 -10 32q0 18 13.5 29.5t32.5 11.5q21 0 35 -20z
M306 67q74 0 118 50.5t44 133.5q0 82 -44.5 130.5t-119.5 48.5q-70 0 -114.5 -50t-44.5 -132q0 -81 44 -131t117 -50z" />
    <glyph glyph-name="h.fina" horiz-adv-x="966" 
d="M950 -17q0 -104 -59.5 -166.5t-167.5 -62.5q-74 0 -125.5 28t-79.5 82.5t-40 123t-12 160.5v114q0 168 -130 168q-70 0 -114.5 -45.5t-44.5 -121.5l-1 -223q0 -20 -11.5 -34t-33.5 -14q-21 0 -33 14t-12 34v670q0 21 11.5 34.5t33.5 13.5t33.5 -13.5t11.5 -34.5v-281h2
q24 35 70 59t103 24q205 0 205 -242v-134q0 -67 7.5 -118t25 -94t50.5 -66t81 -23q64 0 102 38.5t38 109.5q0 62 -30 117q-9 22 -9 32q0 18 13 29.5t32 11.5q21 0 36 -20q48 -74 48 -170z" />
    <glyph glyph-name="hbar.fina" horiz-adv-x="966" 
d="M902 153q48 -74 48 -170q0 -104 -59.5 -166.5t-167.5 -62.5q-74 0 -125.5 28t-79.5 82.5t-40 123t-12 160.5v114q0 168 -130 168q-70 0 -114.5 -45.5t-44.5 -121.5l-1 -223q0 -20 -11.5 -34t-33.5 -14q-21 0 -33 14t-12 34v554h-10q-17 0 -30 12.5t-13 29.5q0 18 12.5 30
t30.5 12h10v32q0 21 11.5 34.5t33.5 13.5t33.5 -13.5t11.5 -34.5v-32h132q17 0 29.5 -12t12.5 -30q0 -17 -12.5 -29.5t-29.5 -12.5h-132v-165h2q24 35 70 59t103 24q205 0 205 -242v-134q0 -67 7.5 -118t25 -94t50.5 -66t81 -23q64 0 102 38.5t38 109.5q0 62 -30 117
q-9 22 -9 32q0 18 13 29.5t32 11.5q21 0 36 -20z" />
    <glyph glyph-name="k.fina" horiz-adv-x="944" 
d="M904 123q0 -114 -62.5 -179.5t-176.5 -65.5q-134 0 -220 81.5t-176 262.5h-93v-182q0 -20 -11.5 -34t-33.5 -14q-21 0 -33 14t-12 34v670q0 21 11.5 34.5t33.5 13.5t33.5 -13.5t11.5 -34.5v-408h99l144 182q15 20 35 20q17 0 29.5 -12t12.5 -29q0 -14 -8 -25l-144 -177
q34 -71 64 -120t68.5 -93.5t84.5 -66.5t100 -22q70 0 111.5 41t41.5 123q0 56 -33 122q-6 12 -6 23q0 18 13.5 30t31.5 12q20 0 34 -18q50 -73 50 -169z" />
    <glyph glyph-name="uni0137.fina" horiz-adv-x="944" 
d="M904 123q0 -114 -62.5 -179.5t-176.5 -65.5q-134 0 -220 81.5t-176 262.5h-93v-182q0 -20 -11.5 -34t-33.5 -14q-21 0 -33 14t-12 34v670q0 21 11.5 34.5t33.5 13.5t33.5 -13.5t11.5 -34.5v-408h99l144 182q15 20 35 20q17 0 29.5 -12t12.5 -29q0 -14 -8 -25l-144 -177
q34 -71 64 -120t68.5 -93.5t84.5 -66.5t100 -22q70 0 111.5 41t41.5 123q0 56 -33 122q-6 12 -6 23q0 18 13.5 30t31.5 12q20 0 34 -18q50 -73 50 -169zM256 -286q-16 0 -26 11t-8 28q12 76 14 159q0 17 12 28.5t30 11.5q19 0 31 -13t11 -30q-3 -95 -30 -172q-9 -23 -34 -23
z" />
    <glyph glyph-name="m.fina" horiz-adv-x="1314" 
d="M1297 -17q0 -104 -59.5 -166.5t-166.5 -62.5q-74 0 -125.5 28t-80 82.5t-40.5 123t-12 160.5v114q0 168 -127 168q-63 0 -104.5 -48t-41.5 -124v-218q0 -20 -11.5 -34t-33.5 -14t-33.5 14t-11.5 34v222q0 168 -125 168q-65 0 -107 -48.5t-42 -125.5l-1 -216
q0 -20 -11.5 -34t-33.5 -14q-21 0 -33 14t-12 34v424q0 17 9.5 28.5t27.5 11.5t27.5 -11.5t9.5 -28.5v-66h2q23 50 72 82t107 32q129 0 173 -114h2q23 50 73.5 82t107.5 32q103 0 155 -62t52 -180v-134q0 -301 165 -301q64 0 101.5 38.5t37.5 109.5q0 62 -30 117
q-9 22 -9 32q0 18 13.5 29.5t31.5 11.5q22 0 36 -20q48 -74 48 -170z" />
    <glyph glyph-name="n.fina" horiz-adv-x="965" 
d="M949 -17q0 -104 -59.5 -166.5t-167.5 -62.5q-74 0 -125.5 28t-79.5 82.5t-40 123t-12 160.5v115q0 168 -130 168q-70 0 -114.5 -48.5t-44.5 -126.5l-1 -216q0 -20 -11.5 -34t-33.5 -14q-21 0 -33 14t-12 34v424q0 17 9.5 28.5t27.5 11.5t27.5 -11.5t9.5 -28.5v-66h2
q23 50 75 82t114 32q205 0 205 -241v-135q0 -67 7.5 -118t25 -94t50.5 -66t81 -23q64 0 102 38.5t38 109.5q0 62 -30 117q-9 22 -9 32q0 18 13 29.5t32 11.5q21 0 36 -20q48 -74 48 -170z" />
    <glyph glyph-name="nacute.fina" horiz-adv-x="965" 
d="M274 652l111 129q19 23 40 23q20 0 34.5 -13.5t14.5 -35.5q0 -25 -21 -42l-122 -116q-18 -15 -29 -15q-16 0 -27.5 11t-11.5 28q0 18 11 31zM949 -17q0 -104 -59.5 -166.5t-167.5 -62.5q-74 0 -125.5 28t-79.5 82.5t-40 123t-12 160.5v115q0 168 -130 168
q-70 0 -114.5 -48.5t-44.5 -126.5l-1 -216q0 -20 -11.5 -34t-33.5 -14q-21 0 -33 14t-12 34v424q0 17 9.5 28.5t27.5 11.5t27.5 -11.5t9.5 -28.5v-66h2q23 50 75 82t114 32q205 0 205 -241v-135q0 -67 7.5 -118t25 -94t50.5 -66t81 -23q64 0 102 38.5t38 109.5q0 62 -30 117
q-9 22 -9 32q0 18 13 29.5t32 11.5q21 0 36 -20q48 -74 48 -170z" />
    <glyph glyph-name="ncaron.fina" horiz-adv-x="965" 
d="M333 566q-35 0 -98 66l-59 63q-16 15 -16 34q0 17 11 28.5t27 11.5q14 0 28 -13l106 -109h2l108 111q11 11 27 11t27 -12t11 -29q0 -15 -19 -34l-62 -70q-57 -58 -93 -58zM949 -17q0 -104 -59.5 -166.5t-167.5 -62.5q-74 0 -125.5 28t-79.5 82.5t-40 123t-12 160.5v115
q0 168 -130 168q-70 0 -114.5 -48.5t-44.5 -126.5l-1 -216q0 -20 -11.5 -34t-33.5 -14q-21 0 -33 14t-12 34v424q0 17 9.5 28.5t27.5 11.5t27.5 -11.5t9.5 -28.5v-66h2q23 50 75 82t114 32q205 0 205 -241v-135q0 -67 7.5 -118t25 -94t50.5 -66t81 -23q64 0 102 38.5
t38 109.5q0 62 -30 117q-9 22 -9 32q0 18 13 29.5t32 11.5q21 0 36 -20q48 -74 48 -170z" />
    <glyph glyph-name="uni0146.fina" horiz-adv-x="965" 
d="M949 -17q0 -104 -59.5 -166.5t-167.5 -62.5q-74 0 -125.5 28t-79.5 82.5t-40 123t-12 160.5v115q0 168 -130 168q-70 0 -114.5 -48.5t-44.5 -126.5l-1 -216q0 -20 -11.5 -34t-33.5 -14q-21 0 -33 14t-12 34v424q0 17 9.5 28.5t27.5 11.5t27.5 -11.5t9.5 -28.5v-66h2
q23 50 75 82t114 32q205 0 205 -241v-135q0 -67 7.5 -118t25 -94t50.5 -66t81 -23q64 0 102 38.5t38 109.5q0 62 -30 117q-9 22 -9 32q0 18 13 29.5t32 11.5q21 0 36 -20q48 -74 48 -170zM279 -293q-15 0 -25.5 11t-7.5 28q13 89 14 159q0 17 11.5 28.5t29.5 11.5
q20 0 32 -13t10 -30q-3 -94 -29 -172q-9 -23 -35 -23z" />
    <glyph glyph-name="ntilde.fina" horiz-adv-x="965" 
d="M237 744q39 0 71.5 -20t57 -40.5t42.5 -20.5q45 0 53 66q9 17 29 17q17 0 27 -12.5t10 -31.5q0 -52 -28 -87t-77 -35q-34 0 -66 21.5t-59 43t-49 21.5q-20 0 -32.5 -10t-16.5 -22t-6 -31q-5 -20 -30 -20q-17 0 -26.5 11t-9.5 28q0 51 28 86.5t82 35.5zM949 -17
q0 -104 -59.5 -166.5t-167.5 -62.5q-74 0 -125.5 28t-79.5 82.5t-40 123t-12 160.5v115q0 168 -130 168q-70 0 -114.5 -48.5t-44.5 -126.5l-1 -216q0 -20 -11.5 -34t-33.5 -14q-21 0 -33 14t-12 34v424q0 17 9.5 28.5t27.5 11.5t27.5 -11.5t9.5 -28.5v-66h2q23 50 75 82
t114 32q205 0 205 -241v-135q0 -67 7.5 -118t25 -94t50.5 -66t81 -23q64 0 102 38.5t38 109.5q0 62 -30 117q-9 22 -9 32q0 18 13 29.5t32 11.5q21 0 36 -20q48 -74 48 -170z" />
    <glyph glyph-name="t.fina" horiz-adv-x="623" 
d="M554 170q48 -72 48 -170q0 -105 -58.5 -168t-168.5 -63q-138 0 -198.5 96.5t-60.5 279.5v272h-46q-16 0 -28 11.5t-12 28.5t12 28.5t28 11.5h47q3 52 13 90q13 35 40 35q17 0 26.5 -10.5t9.5 -27.5v-87h109q16 0 28 -12t12 -28t-12 -28t-28 -12h-109v-273
q0 -142 37.5 -217.5t127.5 -75.5q67 0 104 39t37 110q0 62 -30 117q-9 22 -9 33q0 18 13.5 29.5t31.5 11.5q21 0 36 -21z" />
    <glyph glyph-name="tbar.fina" horiz-adv-x="627" 
d="M558 163q48 -74 48 -170q0 -105 -59 -168t-169 -63q-136 0 -196.5 96.5t-60.5 278.5v124h-53q-13 0 -23 9t-10 24q0 33 33 33h53v90h-46q-17 0 -28.5 10.5t-11.5 29.5q0 18 11.5 29t28.5 11h47q3 52 13 90q13 35 42 35q34 0 34 -38v-87h109q40 0 40 -40
q0 -19 -11.5 -29.5t-28.5 -10.5h-109v-90h116q14 0 23.5 -8.5t9.5 -24.5q0 -15 -9.5 -24t-23.5 -9h-116v-124q0 -143 37.5 -218.5t127.5 -75.5q67 0 103.5 39t36.5 111q0 62 -30 117q-9 22 -9 32q0 18 13 29.5t32 11.5q21 0 36 -20z" />
    </font>
</defs>
</svg>
