<svg width="213" height="28" viewBox="0 0 213 28" fill="none" xmlns="http://www.w3.org/2000/svg">
<rect x="208" y="23" width="5" height="5" fill="black"/>
<g clip-path="url(#clip0_2_14)">
<path d="M58.6124 6.24036H62.9719V10.9664H82.1047V15.0858H63.0691V23.8613H85.0585C85.0585 25.1085 85.115 26.2256 85.0156 27.3258C84.993 27.5666 84.428 27.9397 84.1116 27.9494C81.8923 28.0023 79.6752 27.9783 77.456 27.9783C71.5529 27.9783 65.6499 27.959 59.7469 27.9975C58.8316 27.9975 58.5265 27.7568 58.5333 26.7384C58.5763 20.2909 58.5536 13.841 58.5582 7.39358C58.5536 7.03966 58.5876 6.68816 58.6124 6.24036Z" fill="black"/>
<path d="M125.012 10.9858H144.156V15.0931H125.136V23.859H147.146C147.146 25.1013 147.202 26.216 147.103 27.3163C147.08 27.557 146.52 27.9374 146.199 27.9471C144.208 28.0073 142.214 27.9783 140.221 27.9783C134.056 27.9783 127.889 27.9783 121.721 27.9783C121.043 27.9783 120.614 27.9254 120.618 26.9768C120.652 20.2886 120.636 13.598 120.641 6.90975C120.652 6.69037 120.673 6.47176 120.706 6.25488H125.012V10.9858Z" fill="black"/>
<path d="M4.35022 15.1099V23.8469H26.3238V27.8676H0.038208V6.26208H4.29598V10.9713H23.4198V15.1099H4.35022Z" fill="black"/>
<path d="M102.747 12.476L115.88 0.312981C115.929 0.763196 115.988 1.03524 115.99 1.32897C115.99 9.82045 115.977 18.3144 116.015 26.8058C116.015 27.8026 115.701 28.0433 114.849 27.9904C113.807 27.9254 112.759 27.9759 111.572 27.9759V10.131L102.745 18.2879L94.871 11.0122C93.2257 9.49063 91.5601 7.99072 89.9601 6.41376C89.5758 6.01804 89.3355 5.49002 89.2821 4.92348C89.1939 3.41152 89.2504 1.88994 89.2504 0L102.747 12.476Z" fill="black"/>
<path d="M151.341 0.0408936L170.659 17.9339V0.247941H175.046V27.6822C174.761 27.4703 174.517 27.3234 174.309 27.1308C166.901 20.2741 159.492 13.4173 152.082 6.56059C151.556 6.07907 151.291 5.59756 151.323 4.82714C151.384 3.35852 151.341 1.88268 151.341 0.0408936Z" fill="black"/>
<path d="M53.8617 27.8989H30.7061V0.0457764H35V23.8422H53.8707L53.8617 27.8989Z" fill="black"/>
<path d="M179.36 4.22528V0.312988H206V4.23732L179.36 4.22528Z" fill="black"/>
<path d="M85.0062 0.252808V4.22529H58.6415V0.252808H85.0062Z" fill="black"/>
<path d="M120.695 4.22764V0.247925H147.062V4.22764H120.695Z" fill="black"/>
<path d="M0.00195312 4.20843V0.269653H26.3034V4.20843H0.00195312Z" fill="black"/>
<path d="M190.341 6.2356H194.556V27.9037H190.341V6.2356Z" fill="black"/>
<path d="M93.6825 27.9062H89.332V8.51562C90.8281 9.91201 92.1954 11.1639 93.5423 12.464C93.6478 12.6255 93.6951 12.8221 93.6757 13.0178C93.6825 17.9413 93.6825 22.8623 93.6825 27.9062Z" fill="black"/>
<path d="M151.341 8.51318C152.871 9.92161 154.182 11.1013 155.458 12.3244C155.654 12.5573 155.76 12.8596 155.757 13.1718C155.757 17.987 155.757 22.7852 155.757 27.5907C155.726 27.7219 155.682 27.8488 155.623 27.9687C154.419 27.9687 153.137 28.0169 151.89 27.9206C151.687 27.9037 151.377 27.244 151.372 26.8805C151.334 23.156 151.35 19.4171 151.35 15.7046L151.341 8.51318Z" fill="black"/>
</g>
<defs>
<clipPath id="clip0_2_14">
<rect width="206" height="28" fill="white"/>
</clipPath>
</defs>
</svg>
